<?xml version="1.0" encoding="utf-8"?>
<!-- Generator: Adobe Illustrator 19.2.1, SVG Export Plug-In . SVG Version: 6.00 Build 0)  -->
<svg version="1.1" id="Layer_1" xmlns="http://www.w3.org/2000/svg" xmlns:xlink="http://www.w3.org/1999/xlink" x="0px" y="0px"
	 viewBox="0 0 328.7 137.3" style="enable-background:new 0 0 328.7 137.3;" xml:space="preserve">
<style type="text/css">
	.st0{fill:#702B89;}
	.st1{fill:#632976;}
	.st2{fill:#FFFFFF;}
	.st3{fill:#CAECFC;}
	.st4{fill:#F5F5F5;}
</style>
<title>$150 Free Power</title>
<circle class="st0" cx="82.8" cy="61" r="57.7"/>
<path class="st1" d="M123.7,101.9c22.4-22.4,22.6-58.7,0.4-81.3l-81.7,81.7C65,124.5,101.3,124.3,123.7,101.9z"/>
<g>
	<path class="st2" d="M81.2,83.3c0,0.5-0.3,0.8-0.8,0.8h-0.3c-0.4,0-0.7-0.3-0.7-0.8v-6c0-0.6,0.3-1,1-1h2c2.1,0,3.2,0.9,3.2,2.6
		s-1,2.6-3.1,2.6h-1.1v1.7h-0.2V83.3z M82.3,80.3c1,0,1.5-0.4,1.5-1.3c0-0.8-0.5-1.2-1.5-1.2h-1.1v2.5H82.3z"/>
	<path class="st2" d="M86.1,81.2c0-1.8,1.3-3,3.1-3s3,1.2,3,3s-1.2,3-3.1,3C87.3,84.3,86.1,83,86.1,81.2z M90.7,81.3
		c0-1-0.7-1.7-1.6-1.7c-1,0-1.6,0.7-1.6,1.7s0.7,1.7,1.6,1.7C90,82.9,90.7,82.2,90.7,81.3z"/>
	<path class="st2" d="M94.3,83.7l-1.5-4.9c0-0.1,0.5-0.5,1-0.5c0.3,0,0.7,0.2,0.8,0.7l0.7,3.5l1-3c0.1-0.3,0.4-0.5,0.9-0.5
		s0.8,0.2,0.9,0.5l0.9,2.9l0.7-3.4c0.1-0.5,0.4-0.7,0.8-0.7c0.5,0,1,0.4,1,0.5l-1.5,4.9c-0.1,0.4-0.5,0.5-0.9,0.5
		c-0.6,0-0.8-0.1-1-0.5l-1-2.9l-1,2.9c-0.2,0.4-0.3,0.5-1,0.5C94.7,84.2,94.3,84,94.3,83.7z"/>
	<path class="st2" d="M105,83c0.9,0,1.4-0.4,1.6-0.9c0,0,0.8,0.1,0.8,0.8c0,0.6-0.9,1.3-2.5,1.3c-1.9,0-3.1-1.2-3.1-3
		c0-1.7,1.3-3,3-3s2.9,1.2,2.9,2.9v0.1c0,0.3-0.1,0.4-0.4,0.4h-4C103.4,82.6,104.1,83,105,83z M106.2,80.6c0-0.8-0.5-1.3-1.4-1.3
		c-0.8,0-1.4,0.5-1.5,1.3H106.2z"/>
	<path class="st2" d="M111.6,78.1c0.7,0,1,0.3,1,1s-0.5,0.9-0.5,0.9c-0.2-0.2-0.4-0.3-0.8-0.3c-0.8,0-1.2,0.7-1.2,1.9v1.7
		c0,0.6-0.3,0.8-0.7,0.8h-0.2c-0.4,0-0.8-0.2-0.8-0.8v-4.9c0-0.1,0.3-0.2,0.6-0.2c0.4,0,1,0.2,1,1C110.5,78.6,110.9,78.1,111.6,78.1
		z"/>
	<path class="st2" d="M46.6,83.2v-5.8c0-0.6,0.3-1,1-1h4c0.5,0,0.8,0.3,0.8,0.7v0.1c0,0.5-0.3,0.7-0.8,0.7h-3.1v1.9h2.2
		c0.5,0,0.8,0.3,0.8,0.7l0,0c0,0.4-0.3,0.7-0.8,0.7h-2.2v2.1c0,0.5-0.3,0.8-0.8,0.8h-0.3C46.9,84.1,46.6,83.8,46.6,83.2z"/>
	<path class="st2" d="M59.4,83.5c0.1,0.1-0.3,0.6-1,0.6c-0.5,0-0.8-0.2-1.1-0.7l-1.6-2.1H55v2c0,0.5-0.3,0.8-0.8,0.8H54
		c-0.4,0-0.7-0.3-0.7-1v-5.8c0-0.6,0.3-1,1-1h2.2c2,0,3,0.9,3,2.4c0,1.2-0.7,2.1-2,2.2L59.4,83.5z M56.3,80c1,0,1.4-0.4,1.4-1.1
		c0-0.8-0.4-1.1-1.4-1.1H55v2.3L56.3,80L56.3,80z"/>
	<path class="st2" d="M60.5,83.2v-5.7c0-0.6,0.3-1,1-1h4.2c0.5,0,0.8,0.3,0.8,0.7v0.1c0,0.5-0.3,0.7-0.8,0.7h-3.5v1.6h2.5
		c0.6,0,0.8,0.3,0.8,0.7v0.1c0,0.4-0.3,0.7-0.8,0.7h-2.5v1.6h3.5c0.5,0,0.8,0.3,0.8,0.7v0.1c0,0.5-0.3,0.8-0.8,0.8h-4.3
		C60.9,84.1,60.5,83.8,60.5,83.2z"/>
	<path class="st2" d="M67.6,83.2v-5.7c0-0.6,0.3-1,1-1h4.2c0.5,0,0.8,0.3,0.8,0.7v0.1c0,0.5-0.3,0.7-0.8,0.7h-3.5v1.6h2.5
		c0.6,0,0.8,0.3,0.8,0.7v0.1c0,0.4-0.3,0.7-0.8,0.7h-2.5v1.6h3.5c0.5,0,0.8,0.3,0.8,0.7v0.1c0,0.5-0.3,0.8-0.8,0.8h-4.3
		C68,84.1,67.6,83.8,67.6,83.2z"/>
</g>
<g>
	<g>
		<path class="st3" d="M62.7,47c0,1.8-2,3.2-2.1,3.1c-1.5-1.3-3.5-2.2-5.4-2.2c-1.8,0-2.6,0.5-2.6,1.6s1.6,1.4,3.6,1.8
			c2.8,0.5,7,1.7,7,6.1c0,3.5-2.1,5.7-5.8,6.4v0.8c0,2-0.8,3-2.6,3h-0.2c-1.9,0-2.6-1-2.6-3V64c-3.9-0.4-6-2-6-4.1
			c0-1.7,1.8-3.1,2-2.9c1.4,1.2,3.9,2.2,6.1,2.2c1.9,0,2.7-0.5,2.7-1.6s-1.6-1.5-3.5-1.9c-2.7-0.5-6.8-1.6-6.8-6.2
			c0-3.3,2.1-5.5,5.5-6.2v-0.7c0-2,0.8-3,2.6-3h0.2c1.9,0,2.6,1,2.6,3v0.5C60.9,43.6,62.7,45,62.7,47z"/>
		<path class="st3" d="M77.3,50c6.1,0,10.1,3.1,10.1,8.4c0,5.4-4.2,8.8-11.2,8.8c-6.7,0-10.4-2.5-10.4-5.1c0-2.2,2.8-4,3-3.7
			c1.9,2,4.4,3,7.1,3c2.8,0,4.4-1.2,4.4-3.2c0-2.1-1.4-3.1-4.4-3.1c-2.2,0-3.7,0.7-4.6,1.4c-3,0-4.8-1.2-4.8-4.6v-7.1
			c0-2.9,1-4.6,3.8-4.6h12.2c2.7,0,3.9,1,3.9,3.1v0.2c0,2.2-1.2,3.1-3.9,3.1h-9.3v3.9C74.5,50.2,75.8,50,77.3,50z"/>
		<path class="st3" d="M89.4,54.6v-2.5c0-7.6,4.6-12.4,12.2-12.4s12.2,4.8,12.2,12.4v2.5c0,7.6-4.6,12.4-12.2,12.4
			C93.9,67.2,89.4,62.3,89.4,54.6z M105.6,55.4v-4c0-3.5-1.4-5.3-4-5.3c-2.8,0-4.1,1.7-4.1,5.3v4c0,3.5,1.4,5.3,4.1,5.3
			C104.2,60.6,105.6,58.9,105.6,55.4z"/>
	</g>
</g>
<circle class="st0" cx="248" cy="61" r="57.7"/>
<path class="st1" d="M288.9,101.9c22.4-22.4,22.6-58.7,0.4-81.3l-81.7,81.7C230.2,124.5,266.4,124.3,288.9,101.9z"/>
<g>
	<path class="st2" d="M271.9,29.6c0-0.4,0.3-0.9,0.9-0.9h8c0.4,0,0.9,0.3,0.9,0.9c0,0.5-0.3,0.9-0.9,0.9h-8
		C272.3,30.5,271.9,30.2,271.9,29.6z"/>
	<path class="st2" d="M213.9,29.6c0-0.4,0.3-0.9,0.9-0.9h8c0.4,0,0.9,0.3,0.9,0.9c0,0.5-0.3,0.9-0.9,0.9h-8
		C214.2,30.5,213.9,30.2,213.9,29.6z"/>
	<g>
		<path class="st2" d="M228.4,32.4v-5.7c0-0.6,0.3-1,1-1h2.6c1.7,0,2.7,0.7,2.7,2c0,0.9-0.5,1.4-1.4,1.6c1.1,0.3,1.6,1,1.6,1.9
			c0,1.5-1,2.2-3.1,2.2h-2.5C228.8,33.4,228.4,33,228.4,32.4z M231.6,29c0.8,0,1.2-0.3,1.2-1c0-0.6-0.3-1-1.2-1h-1.5v2H231.6z
			 M231.7,32.1c1,0,1.4-0.3,1.4-1s-0.4-1-1.4-1h-1.6v2H231.7z"/>
		<path class="st2" d="M238.8,32.3c0.9,0,1.4-0.4,1.6-0.9c0,0,0.8,0.1,0.8,0.8c0,0.6-0.9,1.3-2.5,1.3c-1.9,0-3.1-1.2-3.1-3
			c0-1.7,1.3-3,3-3s2.9,1.2,2.9,2.9v0.1c0,0.3-0.1,0.4-0.4,0.4h-4C237.2,31.8,237.9,32.3,238.8,32.3z M240,30c0-0.8-0.5-1.3-1.4-1.3
			c-0.8,0-1.4,0.5-1.5,1.3H240z"/>
		<path class="st2" d="M244.4,25.8c0-0.5,0.3-0.9,1-0.9c0.6,0,1,0.3,1,0.9c0,0.5-0.3,0.9-1,0.9C244.8,26.6,244.4,26.3,244.4,25.8z
			 M244.5,32.6v-4.3c0-0.6,0.3-0.8,0.8-0.8h0.2c0.4,0,0.8,0.2,0.8,0.8v4.3c0,0.6-0.3,0.8-0.7,0.8h-0.2
			C244.9,33.4,244.5,33.3,244.5,32.6z"/>
		<path class="st2" d="M251,27.5c1.6,0,2.2,1,2.2,2.4v2.8c0,0.6-0.3,0.8-0.7,0.8h-0.2c-0.4,0-0.8-0.2-0.8-0.8v-2.5
			c0-0.8-0.4-1.2-1-1.2s-1,0.3-1.3,0.8v3c0,0.6-0.3,0.8-0.7,0.8h-0.2c-0.4,0-0.8-0.2-0.8-0.8v-4.9c0-0.1,0.3-0.2,0.6-0.2
			c0.4,0,0.9,0.2,1,1C249.5,27.9,250.1,27.5,251,27.5z"/>
		<path class="st2" d="M256.6,28.9c-0.4,0-0.7-0.2-0.7-0.6v-0.1c0-0.4,0.3-0.6,0.7-0.6h0.3v-0.7c0-0.5,0.3-0.8,0.8-0.8h0.2
			c0.4,0,0.8,0.2,0.8,0.8v0.7h1c0.4,0,0.7,0.2,0.7,0.6v0.1c0,0.4-0.2,0.6-0.7,0.6h-1v2.5c0,0.6,0.2,0.9,0.6,0.9
			c0.3,0,0.6-0.2,0.8-0.4c0,0,0.4,0.2,0.4,0.7c0,0.6-0.6,1-1.6,1c-1.3,0-1.9-0.7-1.9-2v-2.7C257,28.9,256.6,28.9,256.6,28.9z"/>
		<path class="st2" d="M260.8,30.5c0-1.8,1.3-3,3.1-3s3,1.2,3,3c0,1.8-1.2,3-3.1,3C262.1,33.5,260.8,32.3,260.8,30.5z M265.5,30.5
			c0-1-0.7-1.7-1.6-1.7c-1,0-1.6,0.7-1.6,1.7s0.7,1.7,1.6,1.7S265.5,31.5,265.5,30.5z"/>
	</g>
</g>
<g>
	<path class="st3" d="M214.9,64.5l-6.2-20.7c-0.1-0.3,1.6-2.8,5.1-2.8c1.6,0,3.8,0.9,4.5,4.3l2.2,11.3l2.8-10.3c0.4-2.1,2.2-3,4.5-3
		c2.1,0,3.9,1.1,4.3,3l2.8,10.3l2.2-11.5c0.6-3.2,2.5-4.2,4.4-4.2c3.3,0,4.8,2.3,4.8,2.8l-6,20.7c-0.6,2.3-2.2,3.1-4.8,3.1
		c-2.4,0-4.1-0.7-4.8-3.1l-3.1-10.9l-3,10.9c-0.7,2.3-2.4,3.1-4.8,3.1C217.1,67.6,215.5,66.9,214.9,64.5z"/>
	<path class="st3" d="M249.5,63.8V44.7c0-2.5,1.2-3.8,3.5-3.8h1.2c2.3,0,3.5,1.3,3.5,3.8v19.2c0,2.5-1.2,3.8-3.5,3.8H253
		C250.7,67.6,249.5,66.3,249.5,63.8z"/>
	<path class="st3" d="M261.7,63.8V44.7c0-2.5,1.3-3.8,3.4-3.8h0.8c1.9,0,2.5,0.6,3.6,1.9l9.4,12.3V44.7c0-2.5,1.2-3.8,3.5-3.8h0.7
		c2.2,0,3.5,1.3,3.5,3.8v19.2c0,2.5-1.3,3.8-3.3,3.8h-0.7c-2,0-2.5-0.5-3.6-1.8l-9.7-12.4V64c0,2.5-1.2,3.8-3.5,3.8h-0.7
		C262.8,67.6,261.7,66.3,261.7,63.8z"/>
</g>
<g>
	<path class="st2" d="M222.5,83.5c0,0.5-0.3,0.8-0.8,0.8h-0.3c-0.5,0-0.8-0.3-0.8-0.8v-2.3l-2.7-4c-0.1-0.1,0.3-0.7,1.1-0.7
		c0.3,0,0.6,0.2,0.9,0.6l1.6,2.6l1.6-2.6c0.3-0.4,0.5-0.6,0.9-0.6c0.8,0,1.1,0.6,1,0.7l-2.7,4L222.5,83.5L222.5,83.5z"/>
	<path class="st2" d="M225.6,81.3c0-1.8,1.3-3,3.1-3s3,1.2,3,3s-1.2,3-3.1,3C226.9,84.4,225.6,83.2,225.6,81.3z M230.3,81.3
		c0-1-0.7-1.7-1.6-1.7c-1,0-1.6,0.7-1.6,1.7s0.7,1.7,1.6,1.7S230.3,82.3,230.3,81.3z"/>
	<path class="st2" d="M234.8,84.4c-1.6,0-2.2-1-2.2-2.4v-2.8c0-0.6,0.3-0.8,0.7-0.8h0.2c0.4,0,0.8,0.2,0.8,0.8v2.5
		c0,0.8,0.4,1.2,1.1,1.2c0.5,0,1-0.3,1.2-0.8v-3c0-0.6,0.3-0.8,0.8-0.8h0.2c0.4,0,0.8,0.2,0.8,0.8V84c0,0.1-0.3,0.2-0.6,0.2
		c-0.4,0-0.9-0.2-1-1C236.3,83.9,235.7,84.4,234.8,84.4z"/>
	<path class="st2" d="M242.7,78.3c0.7,0,1,0.3,1,1s-0.5,0.9-0.5,0.9c-0.2-0.2-0.4-0.3-0.8-0.3c-0.8,0-1.2,0.7-1.2,1.9v1.7
		c0,0.6-0.3,0.8-0.7,0.8h-0.2c-0.4,0-0.8-0.2-0.8-0.8v-4.9c0-0.1,0.3-0.2,0.6-0.2c0.4,0,1,0.2,1,1C241.5,78.7,242,78.3,242.7,78.3z"
		/>
	<path class="st2" d="M248.2,83.5v-6.1c0-0.6,0.3-0.9,0.9-0.9h0.5c0.5,0,0.7,0.2,1,0.6l1.6,3.6l1.6-3.7c0.2-0.4,0.4-0.6,0.9-0.6h0.4
		c0.6,0,0.9,0.3,0.9,0.9v6.1c0,0.5-0.2,0.8-0.7,0.8H255c-0.4,0-0.7-0.3-0.7-0.8v-4.6l-1.3,3.1c-0.1,0.3-0.2,0.5-0.9,0.5
		s-0.8-0.3-0.9-0.5l-1.3-3v4.5c0,0.5-0.2,0.8-0.7,0.8h-0.3C248.5,84.3,248.2,84,248.2,83.5z"/>
	<path class="st2" d="M259.6,79.5c-0.8,0-1.2,0.4-1.5,0.9c0,0-1,0.1-1-0.7c0-0.7,0.9-1.5,2.6-1.5c1.8,0,2.8,0.9,2.8,2.4v3.5
		c0,0.1-0.3,0.2-0.6,0.2c-0.5,0-0.9-0.3-1-1c-0.4,0.6-1.1,1-2,1c-1.2,0-1.9-0.7-1.9-1.6c0-1.3,1.2-1.9,3.7-2h0.2
		C260.8,80,260.4,79.5,259.6,79.5z M260.8,81.9v-0.3h-0.3c-1.3,0-2,0.3-2,1c0,0.4,0.3,0.7,0.9,0.7C260.2,83.2,260.8,82.7,260.8,81.9
		z"/>
	<path class="st2" d="M266.7,78.3c0.7,0,1,0.3,1,1s-0.5,0.9-0.5,0.9c-0.2-0.2-0.4-0.3-0.8-0.3c-0.8,0-1.2,0.7-1.2,1.9v1.7
		c0,0.6-0.3,0.8-0.7,0.8h-0.2c-0.4,0-0.8-0.2-0.8-0.8v-4.9c0-0.1,0.3-0.2,0.6-0.2c0.4,0,1,0.2,1,1C265.5,78.7,266,78.3,266.7,78.3z"
		/>
	<path class="st2" d="M268.3,81.3c0-1.7,1.3-3,3-3s2.4,1,2.4,1.6c0,0.7-0.9,0.8-1,0.7c-0.3-0.5-0.7-1-1.5-1c-1,0-1.6,0.7-1.6,1.6
		c0,1,0.7,1.7,1.6,1.7c0.8,0,1.2-0.4,1.5-1c0-0.1,1,0,1,0.8c0,0.5-0.7,1.6-2.4,1.6C269.5,84.4,268.3,83.1,268.3,81.3z"/>
	<path class="st2" d="M278.2,78.3c1.6,0,2.2,1.1,2.2,2.4v2.8c0,0.6-0.3,0.8-0.7,0.8h-0.2c-0.4,0-0.8-0.2-0.8-0.8V81
		c0-0.8-0.4-1.3-1-1.3c-0.8,0-1.3,0.5-1.3,1.4v2.4c0,0.6-0.3,0.8-0.7,0.8h-0.2c-0.4,0-0.8-0.2-0.8-0.8v-7.3c0-0.1,0.3-0.2,0.6-0.2
		c0.5,0,1,0.3,1,1.3v2C276.7,78.7,277.3,78.3,278.2,78.3z"/>
	<path class="st2" d="M220,98.5c0,0.6-0.3,0.8-0.7,0.8H219c-0.4,0-0.8-0.2-0.8-0.8v-7.2c0-0.1,0.3-0.2,0.6-0.2c0.4,0,1,0.2,1,1
		c0.3-0.7,1-1,1.9-1c1.6,0,2.7,1.2,2.7,3s-1.1,3-2.7,3c-0.9,0-1.6-0.4-1.8-1L220,98.5L220,98.5z M220,94.4c0,0.8,0.6,1.4,1.5,1.4
		s1.5-0.7,1.5-1.7s-0.6-1.7-1.5-1.7c-0.7,0-1.2,0.3-1.5,1V94.4z"/>
	<path class="st2" d="M225.2,94c0-1.8,1.3-3,3.1-3s3,1.2,3,3s-1.2,3-3.1,3C226.4,97.2,225.2,95.9,225.2,94z M229.9,94.1
		c0-1-0.7-1.7-1.6-1.7s-1.6,0.7-1.6,1.7s0.7,1.7,1.6,1.7C229.2,95.8,229.9,95.1,229.9,94.1z"/>
	<path class="st2" d="M233.4,96.6l-1.5-4.9c0-0.1,0.5-0.5,1-0.5c0.3,0,0.7,0.2,0.8,0.7l0.7,3.5l1-3c0.1-0.3,0.4-0.5,0.9-0.5
		c0.4,0,0.8,0.2,0.9,0.5l0.9,2.9l0.7-3.4c0.1-0.5,0.4-0.7,0.8-0.7c0.5,0,1,0.4,1,0.5l-1.5,4.9c-0.1,0.4-0.5,0.5-0.9,0.5
		c-0.6,0-0.8-0.1-1-0.5l-1-2.9l-1,2.9c-0.2,0.4-0.3,0.5-1,0.5C233.9,97.1,233.5,96.9,233.4,96.6z"/>
	<path class="st2" d="M244.2,95.9c0.9,0,1.4-0.4,1.6-0.9c0,0,0.8,0.1,0.8,0.8c0,0.6-0.9,1.3-2.5,1.3c-1.9,0-3.1-1.2-3.1-3
		c0-1.7,1.3-3,3-3s2.9,1.2,2.9,2.9v0.1c0,0.3-0.1,0.4-0.4,0.4h-4C242.6,95.4,243.3,95.9,244.2,95.9z M245.3,93.5
		c0-0.8-0.5-1.3-1.4-1.3c-0.8,0-1.4,0.5-1.5,1.3H245.3z"/>
	<path class="st2" d="M250.8,91c0.7,0,1,0.3,1,1s-0.5,0.9-0.5,0.9c-0.2-0.2-0.4-0.3-0.8-0.3c-0.8,0-1.2,0.7-1.2,1.9v1.7
		c0,0.6-0.3,0.8-0.7,0.8h-0.2c-0.4,0-0.8-0.2-0.8-0.8v-4.9c0-0.1,0.3-0.2,0.6-0.2c0.4,0,1,0.2,1,1C249.7,91.5,250.1,91,250.8,91z"/>
	<path class="st2" d="M257.8,96.2c0,0.6-0.3,0.8-0.7,0.8H257c-0.4,0-0.8-0.2-0.8-0.8v-7.3c0-0.1,0.3-0.2,0.6-0.2c0.5,0,1,0.3,1,1.3
		v1.9c0.4-0.6,1-1,1.9-1c1.6,0,2.7,1.2,2.7,3s-1.1,3-2.7,3c-0.9,0-1.6-0.4-1.8-1C257.8,96.1,257.8,96.2,257.8,96.2z M257.8,94.4
		c0,0.8,0.6,1.4,1.5,1.4s1.5-0.7,1.5-1.7s-0.6-1.7-1.5-1.7c-0.7,0-1.2,0.3-1.5,1C257.8,93.4,257.8,94.4,257.8,94.4z"/>
	<path class="st2" d="M265.8,92.3c-0.8,0-1.2,0.4-1.5,0.9c0,0-1,0.1-1-0.7c0-0.7,0.9-1.5,2.6-1.5c1.8,0,2.8,0.9,2.8,2.4v3.5
		c0,0.1-0.3,0.2-0.6,0.2c-0.5,0-0.9-0.3-1-1c-0.4,0.6-1.1,1-2,1c-1.2,0-1.9-0.7-1.9-1.6c0-1.3,1.2-1.9,3.7-2h0.2
		C266.9,92.8,266.5,92.3,265.8,92.3z M266.9,94.7v-0.3h-0.3c-1.3,0-2,0.3-2,1c0,0.4,0.3,0.7,0.9,0.7C266.4,96,266.9,95.4,266.9,94.7
		z"/>
	<path class="st2" d="M269.5,94c0-1.7,1.3-3,3-3s2.4,1,2.4,1.6c0,0.7-0.9,0.8-1,0.7c-0.3-0.5-0.7-1-1.5-1c-1,0-1.6,0.7-1.6,1.6
		c0,1,0.7,1.7,1.6,1.7c0.8,0,1.2-0.4,1.5-1c0-0.1,1,0,1,0.8c0,0.5-0.7,1.6-2.4,1.6C270.7,97.2,269.5,95.9,269.5,94z"/>
	<path class="st2" d="M277.5,96.2c0,0.6-0.3,0.8-0.7,0.8h-0.2c-0.4,0-0.8-0.2-0.8-0.8v-7.3c0-0.1,0.3-0.2,0.6-0.2c0.5,0,1,0.3,1,1.3
		v3.6l1.6-2.1c0.3-0.4,0.6-0.5,1-0.5c0.5,0,1,0.5,0.9,0.6l-1.8,2.2l2.1,2.5c0.1,0.1-0.3,0.6-1,0.6c-0.3,0-0.7-0.2-1-0.5l-1.8-2.2
		L277.5,96.2L277.5,96.2z"/>
</g>
<path class="st4" d="M176.4,63.4h-7.8v-7.8c0-0.8-0.6-1.4-1.4-1.4c-0.8,0-1.4,0.6-1.4,1.4v7.8H158c-0.8,0-1.4,0.6-1.4,1.4
	s0.6,1.4,1.4,1.4h7.8V74c0,0.8,0.6,1.4,1.4,1.4s1.4-0.6,1.4-1.4v-7.8h7.8c0.8,0,1.4-0.6,1.4-1.4C177.8,64.1,177.2,63.4,176.4,63.4z"
	/>
</svg>
