<svg xmlns="http://www.w3.org/2000/svg" viewBox="0 0 900 841.9"><path d="M594 342.68H129.88c-30.21 0-52.18 24.72-52.18 52.18v346.05c0 30.21 24.72 52.18 52.18 52.18h461.41c30.21 0 52.18-24.72 52.18-52.18V397.6c2.75-30.21-21.97-54.92-49.47-54.92zm-230.7 390c-90.63 0-162-71.41-162-162s71.41-162 162-162 162 71.41 162 162c-2.67 87.84-74.08 162-161.97 162zM305.66 469l162 93.38c8.24 5.49 8.24 16.48 0 22l-162 93.38c-8.24 5.49-19.23 0-19.23-11V480c0-11 10.99-16.48 19.23-11zm491.62-38.45l-120.85 68.67v137.33l120.85 68.66c11 5.49 24.72-2.75 24.72-13.73V444.3c2.74-10.99-13.74-19.23-24.72-13.74zM508.9 48.8c-74.15 0-134.58 60.42-134.58 134.58S434.74 318 508.9 318s134.58-60.42 134.58-134.58c2.74-74.2-60.43-134.62-134.58-134.62zm0 164.79a30.21 30.21 0 1 1 30.21-30.21 30.48 30.48 0 0 1-30.21 30.21zM215 48.8c-74.15 0-134.58 60.42-134.58 134.58S140.87 318 215 318s134.6-60.47 134.6-134.62S289.18 48.8 215 48.8zm0 164.79a30.21 30.21 0 1 1 30.21-30.21A30.48 30.48 0 0 1 215 213.59z"/></svg>