<svg xmlns="http://www.w3.org/2000/svg" viewBox="0 0 900 841.9">
  <path d="M352.86,426.42l90.3,109.46c2.74,2.74,5.47,2.74,8.21,2.74s5.47,0,8.21-2.74l90.3-109.46c5.47-5.47,2.74-19.15-8.21-19.15H497.89V243.09c0-5.47-5.47-10.95-10.95-10.95H413.06c-5.47,0-10.95,5.47-10.95,10.95V407.27H358.33C350.12,407.27,347.39,418.21,352.86,426.42ZM552.61,607H350.12q-8.21,0-8.21-8.21V579.66q0-8.21,8.21-8.21H552.61q8.21,0,8.21,8.21v19.15Q560.82,607,552.61,607Zm52-558.22H298.13c-24.63,0-46.52,19.15-46.52,46.52V746.58c0,24.63,19.15,46.52,46.52,46.52H601.87c24.63,0,46.52-19.15,46.52-46.52v-654A43.22,43.22,0,0,0,604.61,48.8ZM451.37,765.73a30.1,30.1,0,1,1,30.1-30.1A30.37,30.37,0,0,1,451.37,765.73ZM621,683.64H281.71V155.52h342V683.64H621Z"/>
</svg>
