<svg xmlns="http://www.w3.org/2000/svg" xmlns:xlink="http://www.w3.org/1999/xlink" viewBox="0 0 457 84"><defs><style>.cls-1{isolation:isolate;}.cls-2{fill:#d8d9db;}.cls-2,.cls-6,.cls-8{mix-blend-mode:multiply;}.cls-3{fill:#fff;}.cls-4{fill:url(#radial-gradient);}.cls-5{fill:#7e7e7e;}.cls-6,.cls-9{fill:#cecece;}.cls-7{fill:#fa0e6a;}</style><radialGradient id="radial-gradient" cx="305.54" cy="41.18" r="37" gradientUnits="userSpaceOnUse"><stop offset="0.21" stop-color="#ec1d6b"/><stop offset="0.5" stop-color="#ec1a6b"/><stop offset="1" stop-color="#a7226b"/></radialGradient></defs><title>150</title><g class="cls-1"><g id="Sign_Up_Offer" data-name="Sign Up Offer"><polygon id="_Path_" data-name="&lt;Path&gt;" class="cls-2" points="449.91 23.68 386.76 23.68 383.46 23.68 369.58 23.68 364.04 23.68 348.35 23.68 346.86 23.68 335.26 23.68 337.2 20.76 331.82 20.53 332.01 15.19 326.72 15.92 325.73 10.68 320.75 12.39 318.65 7.54 314.14 10.15 311.06 5.92 307.2 9.33 303.31 5.93 300.21 9.97 295.72 7.54 293.5 12.07 288.63 10.69 287.37 15.54 282.36 15.25 282.09 20.22 277.17 21.02 277.91 25.92 273.29 27.73 275.01 32.37 270.89 35.11 273.52 39.28 270.08 42.82 273.52 46.36 270.89 50.54 275.01 53.28 273.29 57.91 277.91 59.73 277.17 64.63 282.09 65.42 282.36 70.39 287.37 70.11 288.63 74.95 293.5 73.58 295.72 78.11 300.21 75.67 303.31 79.72 307.2 76.32 311.06 79.72 314.14 75.5 318.65 78.11 320.75 73.25 325.73 74.95 326.72 69.69 332.01 70.39 331.82 64.99 337.2 64.27 337.15 63.71 350.74 63.71 352.23 63.71 365.86 63.71 373.46 63.71 385.27 63.71 388.58 63.71 451.73 63.71 440.69 41.39 449.91 23.68"/><polygon id="_Path_2" data-name="&lt;Path&gt;" class="cls-3" points="447.78 20.96 429.94 20.96 426.9 20.96 421.48 20.96 414.15 20.96 409.06 20.96 403.63 20.96 400.6 20.96 398.88 20.96 421.88 20.96 420.51 20.96 415.09 20.96 409.99 20.96 408.27 20.96 405.24 20.96 401.01 20.96 399.81 20.96 395.58 20.96 394.21 20.96 392.49 20.96 387.39 20.96 381.97 20.96 378.93 20.96 374.7 20.96 372.98 20.96 371.61 20.96 366.18 20.96 361.09 20.96 352.1 20.96 346.68 20.96 345.31 20.96 325.8 20.96 327.69 61.29 347.2 61.29 348.57 61.29 354 61.29 361.09 61.29 368.07 61.29 373.5 61.29 374.87 61.29 376.6 61.29 378.93 61.29 381.97 61.29 387.39 61.29 394.38 61.29 396.1 61.29 397.47 61.29 399.81 61.29 402.9 61.29 405.24 61.29 408.27 61.29 409.99 61.29 416.98 61.29 422.4 61.29 423.78 61.29 398.88 61.29 400.6 61.29 403.63 61.29 409.06 61.29 416.05 61.29 421.48 61.29 426.9 61.29 429.94 61.29 447.78 61.29 437.64 40.25 447.78 20.96"/><polygon id="_Path_3" data-name="&lt;Path&gt;" class="cls-4" points="305.55 7.68 309.42 4.28 312.5 8.51 317 5.89 319.1 10.75 324.09 9.05 325.08 14.31 330.36 13.61 330.17 19.01 335.55 19.37 334.18 24.65 339.43 26.09 336.95 30.98 341.83 33.46 338.36 37.73 342.64 41.18 338.36 44.62 341.83 48.89 336.95 51.37 339.43 56.27 334.18 57.7 335.55 62.98 330.17 63.34 330.36 68.75 325.08 68.04 324.09 73.31 319.1 71.6 317 76.46 312.5 73.85 309.42 78.07 305.55 74.67 301.66 78.07 298.57 74.03 294.07 76.46 291.86 71.93 286.99 73.31 285.72 68.46 280.71 68.75 280.44 63.78 275.52 62.98 276.26 58.08 271.64 56.27 273.36 51.63 269.25 48.89 271.88 44.72 268.44 41.18 271.88 37.64 269.25 33.46 273.36 30.72 271.64 26.09 276.26 24.27 275.52 19.37 280.44 18.57 280.71 13.61 285.72 13.89 286.99 9.05 291.86 10.43 294.07 5.89 298.57 8.33 301.66 4.28 305.55 7.68"/><g id="_Group_" data-name="&lt;Group&gt;"><path id="_Compound_Path_" data-name="&lt;Compound Path&gt;" class="cls-3" d="M280.69,41.51a1.8,1.8,0,0,1-.64.59,2.55,2.55,0,0,1-1,.3,2.61,2.61,0,0,1-1.11-.1,2.12,2.12,0,0,1-.85-.52,2.4,2.4,0,0,1-.54-.86,3.45,3.45,0,0,1,0-2.35,3.14,3.14,0,0,1,.63-1,3.28,3.28,0,0,1,1-.71,3.73,3.73,0,0,1,1.26-.35,4,4,0,0,1,.95,0,2.25,2.25,0,0,1,.7.2,1.09,1.09,0,0,1,.44.37.89.89,0,0,1,.15.5.67.67,0,0,1-.13.41,1.25,1.25,0,0,1-.29.28,1.29,1.29,0,0,1-.3.16c-.09,0-.15,0-.16,0a1.34,1.34,0,0,0-.55-.39,1.58,1.58,0,0,0-1.26.09,1.53,1.53,0,0,0-.46.36,1.64,1.64,0,0,0-.31.52,1.8,1.8,0,0,0-.11.63,1.75,1.75,0,0,0,.1.62,1.25,1.25,0,0,0,.28.45,1,1,0,0,0,.43.26,1.28,1.28,0,0,0,.55.05,1.4,1.4,0,0,0,.75-.28,1,1,0,0,0,.35-.58l-.58.06a1.17,1.17,0,0,1-.62-.06c-.14-.07-.21-.22-.21-.46v-.08a.57.57,0,0,1,.2-.51A1.4,1.4,0,0,1,280,39l1.53-.16a.89.89,0,0,1,.31,0,.33.33,0,0,1,.18.12.48.48,0,0,1,.09.22,2.1,2.1,0,0,1,0,.33v2.36s-.06.07-.17.13a1.25,1.25,0,0,1-.41.11h-.26A.74.74,0,0,1,281,42a.63.63,0,0,1-.21-.18A.9.9,0,0,1,280.69,41.51Z"/><path id="_Compound_Path_2" data-name="&lt;Compound Path&gt;" class="cls-3" d="M285.42,41.72q-2.58.28-2.58-2.29V37a.91.91,0,0,1,.2-.63.86.86,0,0,1,.57-.26l.22,0q.77-.08.77.73v2.41q0,1,.84,1a.84.84,0,0,0,.63-.32,1.39,1.39,0,0,0,.2-.82v-2.4a.91.91,0,0,1,.2-.63.86.86,0,0,1,.57-.26l.23,0q.76-.08.76.73v2.4a2.85,2.85,0,0,1-.65,2A3,3,0,0,1,285.42,41.72Z"/><path id="_Compound_Path_3" data-name="&lt;Compound Path&gt;" class="cls-3" d="M290.32,39.94l-.17.45a1.43,1.43,0,0,1-.41.68,1,1,0,0,1-.54.24,1,1,0,0,1-.35,0,1.2,1.2,0,0,1-.3-.12.7.7,0,0,1-.2-.16.17.17,0,0,1-.05-.15l1.83-4.93a.83.83,0,0,1,.1-.21.62.62,0,0,1,.19-.18,1.22,1.22,0,0,1,.33-.14,3.12,3.12,0,0,1,.5-.09,2.87,2.87,0,0,1,.49,0,1,1,0,0,1,.31.07.43.43,0,0,1,.18.14.73.73,0,0,1,.1.19l1.9,4.52s0,.09,0,.16a1,1,0,0,1-.2.21,1.57,1.57,0,0,1-.31.19,1.18,1.18,0,0,1-.38.1.92.92,0,0,1-.55-.12,1.15,1.15,0,0,1-.45-.6l-.16-.4Zm1.5-1.42-.6-1.58-.61,1.71Z"/><path id="_Compound_Path_4" data-name="&lt;Compound Path&gt;" class="cls-3" d="M299.7,39.55s0,.06,0,.13a.88.88,0,0,1-.17.22,1.28,1.28,0,0,1-.32.23,1.33,1.33,0,0,1-.48.13,1.27,1.27,0,0,1-.36,0,1,1,0,0,1-.3-.1,1.1,1.1,0,0,1-.26-.2l-.26-.3-.79-1-.32,0v1a1,1,0,0,1-.19.62.83.83,0,0,1-.58.27l-.25,0a.57.57,0,0,1-.55-.21,1.18,1.18,0,0,1-.19-.73V36a1.13,1.13,0,0,1,.23-.75,1,1,0,0,1,.67-.32l1.74-.19a2.61,2.61,0,0,1,1.77.28,1.5,1.5,0,0,1,.58,1.32,1.81,1.81,0,0,1-1.22,1.78Zm-2.59-2.17a1,1,0,0,0,.59-.23.67.67,0,0,0,.2-.5q0-.66-.8-.58l-.71.08v1.32Z"/><path id="_Compound_Path_5" data-name="&lt;Compound Path&gt;" class="cls-3" d="M302,38.7l-.17.45a1.43,1.43,0,0,1-.41.68,1,1,0,0,1-.54.24,1,1,0,0,1-.35,0,1.2,1.2,0,0,1-.3-.12.71.71,0,0,1-.2-.16.17.17,0,0,1-.05-.15l1.83-4.93a.83.83,0,0,1,.1-.21.63.63,0,0,1,.19-.18,1.25,1.25,0,0,1,.33-.14,3.12,3.12,0,0,1,.5-.09,2.86,2.86,0,0,1,.49,0,.93.93,0,0,1,.31.07.44.44,0,0,1,.18.14.72.72,0,0,1,.1.19L305.9,39s0,.09,0,.16a1.06,1.06,0,0,1-.2.2,1.56,1.56,0,0,1-.31.19,1.18,1.18,0,0,1-.38.1.91.91,0,0,1-.55-.12,1.15,1.15,0,0,1-.45-.6l-.16-.4Zm1.5-1.42-.6-1.58-.61,1.7Z"/><path id="_Compound_Path_6" data-name="&lt;Compound Path&gt;" class="cls-3" d="M306.32,38.64V34.53a.94.94,0,0,1,.19-.63.79.79,0,0,1,.53-.26l.17,0h.26a.53.53,0,0,1,.19.05.73.73,0,0,1,.17.11l.17.16,2,2.42V34.14a.78.78,0,0,1,.76-.89l.15,0c.49-.05.73.19.73.73v4.11a.94.94,0,0,1-.19.63A.75.75,0,0,1,311,39l-.14,0h-.27a.63.63,0,0,1-.19,0,.57.57,0,0,1-.16-.1l-.16-.16L308,36.21v2.25a.78.78,0,0,1-.76.89l-.15,0Q306.32,39.45,306.32,38.64Z"/><path id="_Compound_Path_7" data-name="&lt;Compound Path&gt;" class="cls-3" d="M313,34.57q-.8.09-.8-.67v0q0-.73.8-.81l3.62-.39q.81-.09.81.64v0a.78.78,0,0,1-.81.85l-.92.1v3.36a.91.91,0,0,1-.2.63.87.87,0,0,1-.58.27l-.24,0q-.73.08-.72-.73V34.47Z"/><path id="_Compound_Path_8" data-name="&lt;Compound Path&gt;" class="cls-3" d="M318.08,37.91a.91.91,0,0,1-.23-.69V33.51a1.13,1.13,0,0,1,.23-.75,1,1,0,0,1,.67-.32l3-.32a.78.78,0,0,1,.61.13.66.66,0,0,1,.2.52v.05a.77.77,0,0,1-.2.57,1,1,0,0,1-.61.24l-2.15.23v.57l1.43-.15a.85.85,0,0,1,.62.11.58.58,0,0,1,.19.48v0a.76.76,0,0,1-.19.54,1,1,0,0,1-.62.25l-1.43.15v.65l2.19-.23q.8-.09.8.6v0a.86.86,0,0,1-.19.59.9.9,0,0,1-.61.27l-3,.32A.81.81,0,0,1,318.08,37.91Z"/><path id="_Compound_Path_9" data-name="&lt;Compound Path&gt;" class="cls-3" d="M323.46,37.34a.91.91,0,0,1-.23-.69V32.94a1.13,1.13,0,0,1,.23-.75,1,1,0,0,1,.67-.32l3-.32a.77.77,0,0,1,.61.13.66.66,0,0,1,.2.52v.05a.77.77,0,0,1-.2.57,1,1,0,0,1-.61.24l-2.15.23v.57l1.43-.15a.84.84,0,0,1,.62.11.58.58,0,0,1,.19.48v0a.76.76,0,0,1-.19.54,1,1,0,0,1-.62.25l-1.43.15v.65l2.19-.23q.8-.09.8.6v0a.86.86,0,0,1-.19.59.9.9,0,0,1-.61.27l-3,.32A.81.81,0,0,1,323.46,37.34Z"/><path id="_Compound_Path_10" data-name="&lt;Compound Path&gt;" class="cls-3" d="M329.2,36.89a.84.84,0,0,1-.31-.17.89.89,0,0,1-.21-.28.86.86,0,0,1-.08-.37V32.37a1.07,1.07,0,0,1,.26-.76,1,1,0,0,1,.66-.32l1.49-.16a3.61,3.61,0,0,1,1.25.06,2.33,2.33,0,0,1,.94.46,2.1,2.1,0,0,1,.6.81A2.88,2.88,0,0,1,334,33.6a3.32,3.32,0,0,1-.21,1.2,2.92,2.92,0,0,1-.61,1,3.1,3.1,0,0,1-1,.67,4,4,0,0,1-1.26.33l-1.4.15A1,1,0,0,1,329.2,36.89Zm1.73-1.59a1.52,1.52,0,0,0,1-.46,1.47,1.47,0,0,0,.37-1,1.16,1.16,0,0,0-.36-.94,1.24,1.24,0,0,0-1-.24l-.62.07v2.68Z"/><path id="_Compound_Path_11" data-name="&lt;Compound Path&gt;" class="cls-3" d="M289.23,50.8a4.82,4.82,0,0,1-1.05,0,2.05,2.05,0,0,1-.7-.19.92.92,0,0,1-.38-.33.79.79,0,0,1-.12-.41.71.71,0,0,1,.08-.32,1.58,1.58,0,0,1,.19-.29,1.64,1.64,0,0,1,.2-.21c.06-.05.1-.08.11-.06a2.24,2.24,0,0,0,.33.2,2.74,2.74,0,0,0,.41.16,2.7,2.7,0,0,0,.46.1,1.92,1.92,0,0,0,.47,0c.52-.06.78-.23.78-.53a.24.24,0,0,0-.08-.2.5.5,0,0,0-.22-.1l-.32,0-.39,0a5.08,5.08,0,0,1-.69-.11,1.94,1.94,0,0,1-.61-.26,1.31,1.31,0,0,1-.43-.46,1.45,1.45,0,0,1-.16-.73,1.87,1.87,0,0,1,.62-1.44,3.05,3.05,0,0,1,1.79-.69,4.45,4.45,0,0,1,1,0,2.14,2.14,0,0,1,.66.17,1,1,0,0,1,.38.3.68.68,0,0,1,.12.39.77.77,0,0,1-.09.36,1.6,1.6,0,0,1-.2.31,1.68,1.68,0,0,1-.21.2c-.06.05-.1.07-.11.07a2,2,0,0,0-.68-.36,1.93,1.93,0,0,0-.81-.09q-.76.08-.76.53a.2.2,0,0,0,.08.18.56.56,0,0,0,.22.08l.34,0,.41,0a4.29,4.29,0,0,1,.78.15,2.12,2.12,0,0,1,.62.29,1.29,1.29,0,0,1,.41.45,1.37,1.37,0,0,1,.15.66,1.9,1.9,0,0,1-.63,1.49A3.37,3.37,0,0,1,289.23,50.8Z"/><path id="_Compound_Path_12" data-name="&lt;Compound Path&gt;" class="cls-3" d="M294.06,49l-.17.45a1.43,1.43,0,0,1-.41.68,1,1,0,0,1-.54.24,1,1,0,0,1-.35,0,1.2,1.2,0,0,1-.3-.12.69.69,0,0,1-.2-.16.17.17,0,0,1-.05-.15L293.87,45a.83.83,0,0,1,.1-.21.62.62,0,0,1,.19-.18,1.26,1.26,0,0,1,.33-.14,3.14,3.14,0,0,1,.5-.09,2.87,2.87,0,0,1,.49,0,1,1,0,0,1,.31.07.44.44,0,0,1,.18.14.73.73,0,0,1,.1.19l1.9,4.52s0,.09,0,.16a1,1,0,0,1-.2.2,1.56,1.56,0,0,1-.31.19,1.17,1.17,0,0,1-.38.1.92.92,0,0,1-.55-.12,1.15,1.15,0,0,1-.45-.6l-.16-.4Zm1.5-1.42L295,46l-.61,1.71Z"/><path id="_Compound_Path_13" data-name="&lt;Compound Path&gt;" class="cls-3" d="M301.22,44.53a1.28,1.28,0,0,1,.38-.67,1,1,0,0,1,.55-.25,1.19,1.19,0,0,1,.41,0,1.35,1.35,0,0,1,.35.13.87.87,0,0,1,.23.18c.05.06.07.11.05.16l-1.86,4.67a1.22,1.22,0,0,1-.38.55,1.27,1.27,0,0,1-.63.22,1.07,1.07,0,0,1-.61-.08,1,1,0,0,1-.38-.47l-1.91-4.27s0-.1.06-.17a1.24,1.24,0,0,1,.24-.23,2,2,0,0,1,.36-.21,1.39,1.39,0,0,1,.42-.12.81.81,0,0,1,.59.16,1.11,1.11,0,0,1,.38.56l.88,2.7Z"/><path id="_Compound_Path_14" data-name="&lt;Compound Path&gt;" class="cls-3" d="M303.7,48.37V44.26a.78.78,0,0,1,.74-.89l.25,0q.76-.08.76.73v4.11a.78.78,0,0,1-.76.89l-.25,0Q303.7,49.18,303.7,48.37Z"/><path id="_Compound_Path_15" data-name="&lt;Compound Path&gt;" class="cls-3" d="M306.3,48.09V44a.94.94,0,0,1,.19-.63.79.79,0,0,1,.53-.26l.17,0h.26a.54.54,0,0,1,.19.05.78.78,0,0,1,.17.11l.17.16,2,2.42V43.59a.78.78,0,0,1,.76-.89l.15,0q.73-.08.73.73v4.11a.94.94,0,0,1-.19.63.75.75,0,0,1-.52.26l-.14,0h-.27a.63.63,0,0,1-.19,0,.56.56,0,0,1-.16-.1l-.16-.16L308,45.66v2.25a.78.78,0,0,1-.76.89l-.15,0Q306.3,48.9,306.3,48.09Z"/><path id="_Compound_Path_16" data-name="&lt;Compound Path&gt;" class="cls-3" d="M316.62,47.13a1.81,1.81,0,0,1-.64.59,2.54,2.54,0,0,1-1,.3,2.61,2.61,0,0,1-1.11-.1,2.12,2.12,0,0,1-.85-.52,2.4,2.4,0,0,1-.54-.86,3.26,3.26,0,0,1-.19-1.15,3.22,3.22,0,0,1,.22-1.2,3.14,3.14,0,0,1,.63-1,3.27,3.27,0,0,1,1-.71,3.74,3.74,0,0,1,1.26-.35,4,4,0,0,1,.95,0,2.23,2.23,0,0,1,.7.2,1.08,1.08,0,0,1,.44.37.89.89,0,0,1,.15.5.67.67,0,0,1-.13.41,1.23,1.23,0,0,1-.29.28,1.28,1.28,0,0,1-.3.16c-.09,0-.15,0-.16,0a1.34,1.34,0,0,0-.55-.39,1.58,1.58,0,0,0-1.26.09,1.55,1.55,0,0,0-.46.36,1.65,1.65,0,0,0-.31.52,1.82,1.82,0,0,0-.11.64,1.75,1.75,0,0,0,.1.62,1.24,1.24,0,0,0,.28.45,1,1,0,0,0,.43.26,1.27,1.27,0,0,0,.54.05,1.4,1.4,0,0,0,.75-.28,1,1,0,0,0,.35-.58l-.58.06a1.18,1.18,0,0,1-.62-.06q-.2-.1-.2-.46v-.08a.57.57,0,0,1,.2-.51,1.39,1.39,0,0,1,.62-.18l1.54-.16a.89.89,0,0,1,.31,0,.32.32,0,0,1,.18.12.48.48,0,0,1,.09.22,2.1,2.1,0,0,1,0,.33v2.36s-.06.07-.17.13a1.25,1.25,0,0,1-.41.11,1.15,1.15,0,0,1-.26,0,.74.74,0,0,1-.25-.08.62.62,0,0,1-.21-.18A.9.9,0,0,1,316.62,47.13Z"/><path id="_Compound_Path_17" data-name="&lt;Compound Path&gt;" class="cls-3" d="M320.81,47.43a4.8,4.8,0,0,1-1.05,0,2,2,0,0,1-.7-.19.93.93,0,0,1-.38-.33.8.8,0,0,1-.12-.41.72.72,0,0,1,.08-.32,1.56,1.56,0,0,1,.19-.29,1.71,1.71,0,0,1,.2-.21c.06-.05.1-.07.11-.06a2.18,2.18,0,0,0,.33.2,2.75,2.75,0,0,0,.41.17,2.79,2.79,0,0,0,.46.1,2,2,0,0,0,.47,0q.79-.08.79-.53a.24.24,0,0,0-.08-.2.49.49,0,0,0-.22-.1l-.32,0-.39,0a4.94,4.94,0,0,1-.69-.11,1.94,1.94,0,0,1-.61-.26,1.31,1.31,0,0,1-.43-.46,1.46,1.46,0,0,1-.16-.73,1.87,1.87,0,0,1,.62-1.44,3.06,3.06,0,0,1,1.79-.69,4.57,4.57,0,0,1,1,0,2.11,2.11,0,0,1,.66.17.94.94,0,0,1,.38.3.68.68,0,0,1,.12.39.76.76,0,0,1-.09.36,1.62,1.62,0,0,1-.41.51c-.06.05-.1.07-.11.07a2,2,0,0,0-.68-.36,2,2,0,0,0-.81-.09c-.51.05-.76.23-.76.53a.2.2,0,0,0,.08.18.56.56,0,0,0,.22.08l.34,0,.41,0a4.37,4.37,0,0,1,.78.15,2.17,2.17,0,0,1,.62.29,1.3,1.3,0,0,1,.41.45,1.37,1.37,0,0,1,.15.67,1.9,1.9,0,0,1-.63,1.49A3.36,3.36,0,0,1,320.81,47.43Z"/></g><path id="_Path_4" data-name="&lt;Path&gt;" class="cls-3" d="M291,30.83a.41.41,0,0,1,0-.81l26.92-3.18a.4.4,0,0,1,.45.36.41.41,0,0,1-.36.45l-26.92,3.18Z"/><path id="_Path_5" data-name="&lt;Path&gt;" class="cls-3" d="M291,56.41a.41.41,0,0,1,0-.81l26.92-3.18a.4.4,0,0,1,.45.36.41.41,0,0,1-.36.45l-26.92,3.18Z"/><g id="_Group_2" data-name="&lt;Group&gt;"><g id="_Group_3" data-name="&lt;Group&gt;"><path id="_Compound_Path_18" data-name="&lt;Compound Path&gt;" class="cls-5" d="M351.94,44.34a4.15,4.15,0,0,1-1.45-.24,3.11,3.11,0,0,1-1.1-.68,3,3,0,0,1-.7-1.06,3.76,3.76,0,0,1-.25-1.4,3.62,3.62,0,0,1,.25-1.37,3,3,0,0,1,.72-1.06,3.23,3.23,0,0,1,1.12-.68A4.17,4.17,0,0,1,352,37.6a4.06,4.06,0,0,1,1.43.24,3.14,3.14,0,0,1,1.1.69,3.05,3.05,0,0,1,.71,1.06,3.71,3.71,0,0,1,.25,1.38,3.64,3.64,0,0,1-.25,1.39,3,3,0,0,1-.71,1.06,3.18,3.18,0,0,1-1.11.68A4.16,4.16,0,0,1,351.94,44.34Zm0-1.9a1.32,1.32,0,0,0,1-.42,1.46,1.46,0,0,0,.4-1A1.48,1.48,0,0,0,353,39.9a1.45,1.45,0,0,0-2,0,1.46,1.46,0,0,0-.39,1.06,1.48,1.48,0,0,0,.39,1.07A1.33,1.33,0,0,0,351.95,42.44Z"/><path id="_Compound_Path_19" data-name="&lt;Compound Path&gt;" class="cls-5" d="M359.19,41.76l.95-3a1.67,1.67,0,0,1,.55-.9,1.24,1.24,0,0,1,.72-.24,1.43,1.43,0,0,1,.52.1,2.53,2.53,0,0,1,.45.22,1.43,1.43,0,0,1,.3.24c.07.08.09.13.08.17l-2.25,5.3a.67.67,0,0,1-.23.29,1.33,1.33,0,0,1-.34.17,1.7,1.7,0,0,1-.38.09l-.35,0-.35,0a1.8,1.8,0,0,1-.39-.09,1.41,1.41,0,0,1-.36-.17.65.65,0,0,1-.24-.29l-2.29-5.3s0-.09.1-.17A1.53,1.53,0,0,1,356,38a2.72,2.72,0,0,1,.45-.22,1.43,1.43,0,0,1,.52-.1,1.3,1.3,0,0,1,.75.24,1.65,1.65,0,0,1,.56.9Z"/><path id="_Compound_Path_20" data-name="&lt;Compound Path&gt;" class="cls-5" d="M365.59,42.36a1.78,1.78,0,0,0,1,.25,1.85,1.85,0,0,0,1-.24,1.55,1.55,0,0,0,.58-.58l.18,0a1.55,1.55,0,0,1,.4.14,1.15,1.15,0,0,1,.39.32.86.86,0,0,1,.17.56,1.24,1.24,0,0,1-.72,1.08,4.14,4.14,0,0,1-2.09.43,4.59,4.59,0,0,1-1.49-.23,3.18,3.18,0,0,1-1.13-.65,2.8,2.8,0,0,1-.71-1,3.72,3.72,0,0,1-.25-1.39,3.64,3.64,0,0,1,.25-1.37,3.21,3.21,0,0,1,.71-1.08,3.28,3.28,0,0,1,1.08-.71,3.59,3.59,0,0,1,1.38-.26,3.7,3.7,0,0,1,1.35.24,3.14,3.14,0,0,1,1.06.67,3.06,3.06,0,0,1,.69,1,3.28,3.28,0,0,1,.25,1.28V41a1,1,0,0,1-.12.47.41.41,0,0,1-.39.18h-4.05A1.17,1.17,0,0,0,365.59,42.36Zm1.81-2a1.2,1.2,0,0,0-.32-.8,1.07,1.07,0,0,0-.81-.3,1.18,1.18,0,0,0-.83.31,1.27,1.27,0,0,0-.4.79Z"/><path id="_Compound_Path_21" data-name="&lt;Compound Path&gt;" class="cls-5" d="M372.85,38.81a1.92,1.92,0,0,1,.57-.87,1.45,1.45,0,0,1,1-.33,1.36,1.36,0,0,1,1,.36,1.3,1.3,0,0,1,.37,1,1.44,1.44,0,0,1-.12.63,1.64,1.64,0,0,1-.27.41,1,1,0,0,1-.28.22c-.09,0-.13.06-.14.05a1.33,1.33,0,0,0-.39-.24,1.31,1.31,0,0,0-.5-.1q-1.1,0-1.1,1.58V43a1,1,0,0,1-1.1,1.2h-.26a1.24,1.24,0,0,1-.81-.26,1.16,1.16,0,0,1-.32-.95V38s.1-.1.29-.18a1.9,1.9,0,0,1,.67-.11,1.83,1.83,0,0,1,.43.05,1.29,1.29,0,0,1,.41.18,1.35,1.35,0,0,1,.35.35A1.71,1.71,0,0,1,372.85,38.81Z"/></g><g id="_Group_4" data-name="&lt;Group&gt;"><path id="_Compound_Path_22" data-name="&lt;Compound Path&gt;" class="cls-5" d="M380.55,39.53q-1,0-1-.84v-.14q0-.89,1-.89h.14V37a1.27,1.27,0,0,1,.29-.9,1.08,1.08,0,0,1,.83-.3H382a1.21,1.21,0,0,1,.8.26,1.18,1.18,0,0,1,.31.95v.62h.74q1,0,1,.85v.13q0,.89-1,.89h-.76v2.15c0,.43.18.65.55.65a.73.73,0,0,0,.42-.11,1.28,1.28,0,0,0,.29-.28s0,0,.1,0a.72.72,0,0,1,.19.17,1.19,1.19,0,0,1,.18.3,1.05,1.05,0,0,1,.08.42,1.22,1.22,0,0,1-.52,1,2.28,2.28,0,0,1-1.41.4,2.25,2.25,0,0,1-1.7-.58,2.41,2.41,0,0,1-.55-1.73V39.53Z"/><path id="_Compound_Path_23" data-name="&lt;Compound Path&gt;" class="cls-5" d="M388.94,37.85a2.12,2.12,0,0,1,1.23-.33,2.3,2.3,0,0,1,1.06.22,2,2,0,0,1,.71.58,2.38,2.38,0,0,1,.4.83,4,4,0,0,1,.12,1v2.79a1.2,1.2,0,0,1-.3.94,1.17,1.17,0,0,1-.8.27h-.25a1.26,1.26,0,0,1-.82-.26,1.17,1.17,0,0,1-.32-.95V40.55a1.14,1.14,0,0,0-.22-.74.74.74,0,0,0-.6-.27.93.93,0,0,0-.73.28,1.11,1.11,0,0,0-.25.77v2.34a1,1,0,0,1-1.1,1.2h-.26a1.24,1.24,0,0,1-.81-.26,1.16,1.16,0,0,1-.32-.95V35.24s.1-.1.29-.17a1.94,1.94,0,0,1,1.21,0,1.23,1.23,0,0,1,.49.3,1.55,1.55,0,0,1,.36.58,2.69,2.69,0,0,1,.14.93v1.83A2.66,2.66,0,0,1,388.94,37.85Z"/><path id="_Compound_Path_24" data-name="&lt;Compound Path&gt;" class="cls-5" d="M396,42.28a1.78,1.78,0,0,0,1,.25,1.85,1.85,0,0,0,1-.24,1.55,1.55,0,0,0,.58-.58l.18,0a1.55,1.55,0,0,1,.4.14,1.15,1.15,0,0,1,.39.32.86.86,0,0,1,.17.56,1.24,1.24,0,0,1-.72,1.08,4.14,4.14,0,0,1-2.09.43,4.59,4.59,0,0,1-1.49-.23,3.18,3.18,0,0,1-1.13-.65,2.8,2.8,0,0,1-.71-1,3.72,3.72,0,0,1-.25-1.39,3.64,3.64,0,0,1,.25-1.37,3.21,3.21,0,0,1,.71-1.08,3.28,3.28,0,0,1,1.08-.71,3.59,3.59,0,0,1,1.38-.26,3.7,3.7,0,0,1,1.35.24,3.14,3.14,0,0,1,1.06.67,3.06,3.06,0,0,1,.69,1,3.28,3.28,0,0,1,.25,1.28v.16a1,1,0,0,1-.12.47.41.41,0,0,1-.39.18h-4.05A1.17,1.17,0,0,0,396,42.28Zm1.81-2a1.2,1.2,0,0,0-.32-.8,1.07,1.07,0,0,0-.81-.3,1.18,1.18,0,0,0-.83.31,1.27,1.27,0,0,0-.4.79Z"/></g><g id="_Group_5" data-name="&lt;Group&gt;"><path id="_Compound_Path_25" data-name="&lt;Compound Path&gt;" class="cls-5" d="M405.24,46.42a1.55,1.55,0,0,1-.52-.09,2.42,2.42,0,0,1-.44-.21,1.46,1.46,0,0,1-.29-.23c-.07-.07-.1-.13-.08-.16l1-2.22a1.11,1.11,0,0,1-.38-.16.74.74,0,0,1-.25-.3l-2.14-4.86s0-.09.1-.17a1.53,1.53,0,0,1,.31-.24,2.63,2.63,0,0,1,.46-.22,1.48,1.48,0,0,1,.53-.1,1.32,1.32,0,0,1,.75.24,1.58,1.58,0,0,1,.55.9l1,2.8.91-2.8a1.6,1.6,0,0,1,.55-.89,1.26,1.26,0,0,1,.72-.25,1.55,1.55,0,0,1,.52.09,2.31,2.31,0,0,1,.45.21,1.43,1.43,0,0,1,.3.25c.07.08.1.14.09.17l-2.82,7.12a1.88,1.88,0,0,1-.58.86A1.24,1.24,0,0,1,405.24,46.42Z"/><path id="_Compound_Path_26" data-name="&lt;Compound Path&gt;" class="cls-5" d="M412.2,42.19a1.78,1.78,0,0,0,1,.25,1.85,1.85,0,0,0,1-.24,1.55,1.55,0,0,0,.58-.58l.18,0a1.55,1.55,0,0,1,.4.14,1.15,1.15,0,0,1,.39.32.86.86,0,0,1,.17.56,1.24,1.24,0,0,1-.72,1.08,4.14,4.14,0,0,1-2.09.43,4.59,4.59,0,0,1-1.49-.23,3.18,3.18,0,0,1-1.13-.65,2.8,2.8,0,0,1-.71-1,3.72,3.72,0,0,1-.25-1.39,3.64,3.64,0,0,1,.25-1.37,3.21,3.21,0,0,1,.71-1.08,3.28,3.28,0,0,1,1.08-.71,3.59,3.59,0,0,1,1.38-.26,3.7,3.7,0,0,1,1.35.24,3.14,3.14,0,0,1,1.06.67,3.06,3.06,0,0,1,.69,1,3.28,3.28,0,0,1,.25,1.28v.16a1,1,0,0,1-.12.47.41.41,0,0,1-.39.18h-4.05A1.17,1.17,0,0,0,412.2,42.19Zm1.81-2a1.2,1.2,0,0,0-.32-.8,1.07,1.07,0,0,0-.81-.3,1.18,1.18,0,0,0-.83.31,1.27,1.27,0,0,0-.4.79Z"/><path id="_Compound_Path_27" data-name="&lt;Compound Path&gt;" class="cls-5" d="M420,39.21a1.56,1.56,0,0,0-.52.08,1.18,1.18,0,0,0-.62.47,2.35,2.35,0,0,0-.16.29l-.26,0a2.14,2.14,0,0,1-.57-.07,1.39,1.39,0,0,1-.56-.29.78.78,0,0,1-.25-.63,1.35,1.35,0,0,1,.74-1.21,4.76,4.76,0,0,1,2.34-.44,3.86,3.86,0,0,1,2.53.67,2.56,2.56,0,0,1,.79,2.06v3.65c0,.07-.1.13-.3.19a2.29,2.29,0,0,1-.66.09,1.32,1.32,0,0,1-1.4-1,2.08,2.08,0,0,1-.87.78,2.84,2.84,0,0,1-1.28.28A2.66,2.66,0,0,1,418,44a2,2,0,0,1-.68-.39,1.67,1.67,0,0,1-.43-.6,1.94,1.94,0,0,1-.15-.76,1.75,1.75,0,0,1,.94-1.63,6.41,6.41,0,0,1,3-.54H421A.87.87,0,0,0,420,39.21Zm-.08,3.39a1.05,1.05,0,0,0,.79-.3,1.09,1.09,0,0,0,.3-.8v-.22h-.31a3.4,3.4,0,0,0-1.14.19.55.55,0,0,0-.39.54.52.52,0,0,0,.21.44A.88.88,0,0,0,419.88,42.6Z"/><path id="_Compound_Path_28" data-name="&lt;Compound Path&gt;" class="cls-5" d="M426.9,38.64a1.92,1.92,0,0,1,.57-.87,1.45,1.45,0,0,1,1-.33,1.36,1.36,0,0,1,1,.36,1.3,1.3,0,0,1,.37,1,1.44,1.44,0,0,1-.12.63,1.64,1.64,0,0,1-.27.41,1,1,0,0,1-.28.22c-.09,0-.13.06-.14.05a1.33,1.33,0,0,0-.39-.24,1.31,1.31,0,0,0-.5-.1q-1.1,0-1.1,1.58v1.53a1,1,0,0,1-1.1,1.2h-.26a1.24,1.24,0,0,1-.81-.26,1.16,1.16,0,0,1-.32-.95V37.78s.1-.1.29-.18a1.9,1.9,0,0,1,.67-.11,1.83,1.83,0,0,1,.43.05,1.29,1.29,0,0,1,.41.18,1.35,1.35,0,0,1,.35.35A1.71,1.71,0,0,1,426.9,38.64Z"/></g></g><path class="cls-6" d="M248,38.15h-9.66V28.48a1.14,1.14,0,1,0-2.29,0v9.66h-9.66a1.14,1.14,0,0,0,0,2.29H236V50.1a1.14,1.14,0,1,0,2.29,0V40.44H248a1.14,1.14,0,0,0,0-2.29Z"/><path class="cls-7" d="M236.05,49.69a1.13,1.13,0,0,1-1.13-1.13V27.13a1.13,1.13,0,1,1,2.27,0V48.56A1.13,1.13,0,0,1,236.05,49.69Z"/><path class="cls-7" d="M246.77,39H225.34a1.13,1.13,0,0,1,0-2.27h21.43a1.13,1.13,0,1,1,0,2.27Z"/><g id="_Group_6" data-name="&lt;Group&gt;" class="cls-8"><path id="_Compound_Path_29" data-name="&lt;Compound Path&gt;" class="cls-9" d="M139.39,23a1.63,1.63,0,0,1,1.68-1.77h10.67c1,0,1.47.46,1.47,1.28v.18c0,.86-.49,1.31-1.47,1.31h-9.23v6.3h6.85c1,0,1.47.46,1.47,1.25v.12q0,1.28-1.47,1.28h-6.79v6.72c0,.95-.46,1.44-1.38,1.44h-.49c-.86,0-1.31-.58-1.31-1.65Z"/><path id="_Compound_Path_30" data-name="&lt;Compound Path&gt;" class="cls-9" d="M156,23a1.63,1.63,0,0,1,1.68-1.77h5.62c4.83,0,7.4,2,7.4,5.93,0,3.36-2.08,5.5-5.9,5.81l5.78,6.88c.15.18-.52,1.28-1.83,1.28a2.39,2.39,0,0,1-2-1.22l-5.41-6.63h-2.17v6.42a1.29,1.29,0,0,1-1.38,1.44h-.43c-.86,0-1.31-.58-1.31-1.62Zm7.24,7.79c2.9,0,4.28-1.34,4.28-3.48,0-2.29-1.47-3.48-4.37-3.48h-4.07v7Z"/><path id="_Compound_Path_31" data-name="&lt;Compound Path&gt;" class="cls-9" d="M174,23a1.63,1.63,0,0,1,1.68-1.77h11.46c1,0,1.47.49,1.47,1.31v.18c0,.86-.49,1.31-1.47,1.31h-10v5.53h7.73c1,0,1.47.43,1.47,1.25v.09c0,.86-.49,1.31-1.47,1.31h-7.73v6h10.18c1,0,1.44.43,1.44,1.25v.15c0,.89-.46,1.38-1.44,1.38H175.67A1.61,1.61,0,0,1,174,39.25Z"/><path id="_Compound_Path_32" data-name="&lt;Compound Path&gt;" class="cls-9" d="M191.93,23a1.63,1.63,0,0,1,1.68-1.77h11.46c1,0,1.47.49,1.47,1.31v.18c0,.86-.49,1.31-1.47,1.31h-10v5.53h7.73c1,0,1.47.43,1.47,1.25v.09c0,.86-.49,1.31-1.47,1.31h-7.73v6h10.18c1,0,1.44.43,1.44,1.25v.15c0,.89-.46,1.38-1.44,1.38H193.61a1.61,1.61,0,0,1-1.68-1.74Z"/><path id="_Compound_Path_33" data-name="&lt;Compound Path&gt;" class="cls-9" d="M139.39,47.85a1.1,1.1,0,0,1,1.13-1.2H144c3.3,0,5.17,1.5,5.17,4.25s-1.81,4.29-5.26,4.29h-2.37V59.1a.87.87,0,0,1-.93,1h-.31c-.58,0-.89-.33-.89-1Zm4.54,5.63c2,0,3.09-.89,3.09-2.54s-1.05-2.54-3.07-2.54h-2.45v5.07Z"/><path id="_Compound_Path_34" data-name="&lt;Compound Path&gt;" class="cls-9" d="M157.35,46.39a6.53,6.53,0,0,1,6.74,6.93,6.75,6.75,0,1,1-13.5,0A6.61,6.61,0,0,1,157.35,46.39Zm0,12c2.7,0,4.6-2.06,4.6-5s-1.92-5.09-4.62-5.09-4.6,2.06-4.6,5.05S154.65,58.38,157.35,58.38Z"/><path id="_Compound_Path_35" data-name="&lt;Compound Path&gt;" class="cls-9" d="M165.18,47.17a1.32,1.32,0,0,1,1.26-.6c.56,0,1,.33,1.24,1.24l2.16,9.81,2.54-8.39a1.24,1.24,0,0,1,1.4-1,1.26,1.26,0,0,1,1.4,1l2.49,8.35,2.21-9.79c.19-.87.58-1.22,1.18-1.22.78,0,1.24.49,1.2.6l-3.07,12.12c-.14.62-.54.84-1.44.84s-1.2-.25-1.38-.87l-2.58-8.62-2.7,8.62c-.16.62-.52.87-1.34.87s-1.3-.21-1.44-.84Z"/><path id="_Compound_Path_36" data-name="&lt;Compound Path&gt;" class="cls-9" d="M184.68,47.85a1.1,1.1,0,0,1,1.13-1.2h7.73c.66,0,1,.33,1,.89v.12c0,.58-.33.89-1,.89H186.8v3.73H192c.68,0,1,.29,1,.85v.06c0,.58-.33.89-1,.89H186.8v4h6.86c.66,0,1,.29,1,.85v.1c0,.6-.31.93-1,.93h-7.85a1.08,1.08,0,0,1-1.13-1.18Z"/><path id="_Compound_Path_37" data-name="&lt;Compound Path&gt;" class="cls-9" d="M196.78,47.85a1.1,1.1,0,0,1,1.13-1.2h3.79c3.26,0,5,1.36,5,4,0,2.27-1.4,3.71-4,3.92l3.9,4.64c.1.12-.35.87-1.24.87a1.62,1.62,0,0,1-1.38-.83l-3.65-4.47h-1.46V59.1a.87.87,0,0,1-.93,1h-.29c-.58,0-.89-.39-.89-1.09Zm4.89,5.26c2,0,2.89-.91,2.89-2.35s-1-2.35-2.95-2.35h-2.74v4.7Z"/></g><path id="_Compound_Path_38" data-name="&lt;Compound Path&gt;" class="cls-6" d="M10.24,44.84A14.69,14.69,0,0,0,19,48.11c2.7,0,3.93-.76,3.93-2.23,0-1.66-2.22-2.08-5-2.7-3.88-.8-9.8-2.41-9.8-8.95,0-4.73,2.94-7.95,8-9v-1c0-2.89,1.09-4.4,3.69-4.4H20c2.7,0,3.69,1.42,3.69,4.4V25c5.06.61,7.67,2.65,7.67,5.54,0,2.6-2.84,4.64-3,4.45a12.29,12.29,0,0,0-7.81-3.17c-2.6,0-3.79.8-3.79,2.22,0,1.61,2.22,2,5.21,2.65,4,.8,10.08,2.55,10.08,8.8,0,5-2.93,8.19-8.38,9.23v1.18c0,2.89-1.09,4.4-3.69,4.4h-.24c-2.7,0-3.69-1.42-3.69-4.4v-.95c-5.63-.61-8.66-2.84-8.66-5.87C7.4,46.59,10.06,44.6,10.24,44.84Z"/><path id="_Compound_Path_39" data-name="&lt;Compound Path&gt;" class="cls-6" d="M44.25,34.75a6.62,6.62,0,0,1-2.79.65,5.77,5.77,0,0,1-6-5.92c0-4,2.67-5.62,3.08-5.45a6.48,6.48,0,0,0,3.73,1.19,5.36,5.36,0,0,0,5.33-4.32h3.08c3.38,0,5.21,1.84,5.21,5.51V54.77c0,3.61-1.84,5.51-5.21,5.51H49.23c-3.26,0-5-1.9-5-5.51Z"/><path id="_Compound_Path_40" data-name="&lt;Compound Path&gt;" class="cls-6" d="M63.25,47.72a14.19,14.19,0,0,0,10.36,4.44c4.09,0,6.46-1.72,6.46-4.62S78,43,73.62,43a10.89,10.89,0,0,0-6.69,2c-4.38-.06-6.87-1.83-6.87-6.63V28c0-4.27,1.54-6.58,5.57-6.58H83.33C87.18,21.43,89,22.85,89,26v.3c0,3.14-1.78,4.5-5.69,4.5H69.71v5.69a18.84,18.84,0,0,1,5.92-.95c8.94,0,14.69,4.5,14.69,12.2S84.1,60.58,73.91,60.58c-9.77,0-15-3.67-15-7.46C58.87,50,62.9,47.43,63.25,47.72Z"/><path id="_Compound_Path_41" data-name="&lt;Compound Path&gt;" class="cls-6" d="M93.38,38.72c0-11.08,6.63-18.12,17.77-18.12s17.71,7,17.71,18.12V42.4c0,11.13-6.63,18.18-17.71,18.18s-17.77-7-17.77-18.18ZM111.14,51c3.85,0,5.8-2.55,5.8-7.58v-5.8c0-5.09-2-7.7-5.8-7.7s-5.86,2.49-5.86,7.7V43.4C105.28,48.55,107.23,51,111.14,51Z"/><path id="_Path_6" data-name="&lt;Path&gt;" class="cls-7" d="M8.16,43.43a14.8,14.8,0,0,0,8.77,3.29c2.72,0,4-.77,4-2.24,0-1.67-2.24-2.1-5.05-2.72C11.93,41,6,39.33,6,32.75c0-4.77,3-8,8.11-9.11v-1c0-2.91,1.1-4.44,3.72-4.44H18c2.72,0,3.72,1.43,3.72,4.44v.81c5.1.62,7.72,2.67,7.72,5.58,0,2.62-2.86,4.67-3.05,4.48a12.38,12.38,0,0,0-7.87-3.19c-2.62,0-3.81.81-3.81,2.24,0,1.62,2.24,2,5.24,2.67C24,36,30.15,37.75,30.15,44c0,5-3,8.25-8.44,9.3v1.19c0,2.91-1.1,4.44-3.72,4.44h-.24C15,59,14,57.54,14,54.54v-1C8.36,53,5.3,50.72,5.3,47.67,5.3,45.19,8,43.19,8.16,43.43Z"/><path id="_Path_7" data-name="&lt;Path&gt;" class="cls-7" d="M41.73,32.61a6.62,6.62,0,0,1-2.79.65,5.77,5.77,0,0,1-6-5.92c0-4,2.67-5.62,3.08-5.45a6.48,6.48,0,0,0,3.73,1.19,5.36,5.36,0,0,0,5.33-4.32h3.08c3.38,0,5.21,1.84,5.21,5.51V52.63c0,3.61-1.84,5.51-5.21,5.51H46.7c-3.26,0-5-1.9-5-5.51Z"/><path id="_Path_8" data-name="&lt;Path&gt;" class="cls-7" d="M60.73,45.58A14.19,14.19,0,0,0,71.1,50c4.09,0,6.46-1.72,6.46-4.62s-2.08-4.56-6.46-4.56a10.89,10.89,0,0,0-6.69,2C60,42.8,57.53,41,57.53,36.22V25.86c0-4.27,1.54-6.58,5.57-6.58H80.81c3.85,0,5.69,1.42,5.69,4.56v.3c0,3.14-1.78,4.5-5.69,4.5H67.19v5.69a18.84,18.84,0,0,1,5.92-.95c8.94,0,14.69,4.5,14.69,12.2S81.58,58.43,71.39,58.43c-9.77,0-15-3.67-15-7.46C56.35,47.83,60.38,45.29,60.73,45.58Z"/><path id="_Compound_Path_42" data-name="&lt;Compound Path&gt;" class="cls-7" d="M109,18.46c-11.13,0-17.78,7-17.78,18.12v3.67c0,11.19,6.58,18.18,17.78,18.18s17.72-7,17.72-18.18V36.58C126.69,25.44,120.11,18.46,109,18.46Zm6.58,22.86c0,5-3.08,7.58-6.93,7.58s-7-2.49-7-7.64V35.51c0-5.21,3-7.7,7-7.7s6.93,2.61,6.93,7.7Z"/><g id="_Group_7" data-name="&lt;Group&gt;"><path id="_Compound_Path_43" data-name="&lt;Compound Path&gt;" class="cls-7" d="M137.76,21.36a1.63,1.63,0,0,1,1.68-1.77h10.67c1,0,1.47.46,1.47,1.28v.18c0,.86-.49,1.31-1.47,1.31h-9.23v6.3h6.85c1,0,1.47.46,1.47,1.25V30q0,1.28-1.47,1.28h-6.79V38c0,.95-.46,1.44-1.38,1.44h-.49c-.86,0-1.31-.58-1.31-1.65Z"/><path id="_Compound_Path_44" data-name="&lt;Compound Path&gt;" class="cls-7" d="M154.36,21.36A1.63,1.63,0,0,1,156,19.59h5.62c4.83,0,7.4,2,7.4,5.93,0,3.36-2.08,5.5-5.9,5.81l5.78,6.88c.15.18-.52,1.28-1.83,1.28a2.39,2.39,0,0,1-2-1.22l-5.41-6.63h-2.17V38a1.29,1.29,0,0,1-1.38,1.44h-.43c-.86,0-1.31-.58-1.31-1.62Zm7.24,7.79c2.9,0,4.28-1.34,4.28-3.48,0-2.29-1.47-3.48-4.37-3.48h-4.07v7Z"/><path id="_Compound_Path_45" data-name="&lt;Compound Path&gt;" class="cls-7" d="M172.36,21.36A1.63,1.63,0,0,1,174,19.59H185.5c1,0,1.47.49,1.47,1.31v.18c0,.86-.49,1.31-1.47,1.31h-10v5.53h7.73c1,0,1.47.43,1.47,1.25v.09c0,.86-.49,1.31-1.47,1.31h-7.73v6h10.18c1,0,1.44.43,1.44,1.25V38c0,.89-.46,1.38-1.44,1.38H174a1.61,1.61,0,0,1-1.68-1.74Z"/><path id="_Compound_Path_46" data-name="&lt;Compound Path&gt;" class="cls-7" d="M190.3,21.36A1.63,1.63,0,0,1,192,19.59h11.46c1,0,1.47.49,1.47,1.31v.18c0,.86-.49,1.31-1.47,1.31h-10v5.53h7.73c1,0,1.47.43,1.47,1.25v.09c0,.86-.49,1.31-1.47,1.31h-7.73v6h10.18c1,0,1.44.43,1.44,1.25V38c0,.89-.46,1.38-1.44,1.38H192a1.61,1.61,0,0,1-1.68-1.74Z"/><path id="_Compound_Path_47" data-name="&lt;Compound Path&gt;" class="cls-7" d="M137.76,46.22A1.1,1.1,0,0,1,138.9,45h3.44c3.3,0,5.17,1.5,5.17,4.25s-1.81,4.29-5.26,4.29h-2.37v3.92a.87.87,0,0,1-.93,1h-.31c-.58,0-.89-.33-.89-1Zm4.54,5.63c2,0,3.09-.89,3.09-2.54s-1.05-2.54-3.07-2.54h-2.45v5.07Z"/><path id="_Compound_Path_48" data-name="&lt;Compound Path&gt;" class="cls-7" d="M155.72,44.76a6.53,6.53,0,0,1,6.74,6.93,6.75,6.75,0,1,1-13.5,0A6.61,6.61,0,0,1,155.72,44.76Zm0,12c2.7,0,4.6-2.06,4.6-5s-1.92-5.09-4.62-5.09-4.6,2.06-4.6,5.05S153,56.75,155.72,56.75Z"/><path id="_Compound_Path_49" data-name="&lt;Compound Path&gt;" class="cls-7" d="M163.55,45.54a1.32,1.32,0,0,1,1.26-.6c.56,0,1,.33,1.24,1.24L168.21,56l2.54-8.39a1.24,1.24,0,0,1,1.4-1,1.26,1.26,0,0,1,1.4,1L176,56l2.21-9.79c.19-.87.58-1.22,1.18-1.22.78,0,1.24.49,1.2.6l-3.07,12.12c-.14.62-.54.84-1.44.84s-1.2-.25-1.38-.87L172.15,49l-2.7,8.62c-.16.62-.52.87-1.34.87s-1.3-.21-1.44-.84Z"/><path id="_Compound_Path_50" data-name="&lt;Compound Path&gt;" class="cls-7" d="M183,46.22a1.1,1.1,0,0,1,1.13-1.2h7.73c.66,0,1,.33,1,.89V46c0,.58-.33.89-1,.89h-6.74v3.73h5.22c.68,0,1,.29,1,.85v.06c0,.58-.33.89-1,.89h-5.22v4H192c.66,0,1,.29,1,.85v.1c0,.6-.31.93-1,.93h-7.85A1.08,1.08,0,0,1,183,57.19Z"/><path id="_Compound_Path_51" data-name="&lt;Compound Path&gt;" class="cls-7" d="M195.15,46.22a1.1,1.1,0,0,1,1.13-1.2h3.79c3.26,0,5,1.36,5,4,0,2.27-1.4,3.71-4,3.92l3.9,4.64c.1.12-.35.87-1.24.87a1.62,1.62,0,0,1-1.38-.83l-3.65-4.47h-1.46v4.33a.87.87,0,0,1-.93,1H196c-.58,0-.89-.39-.89-1.09ZM200,51.48c2,0,2.89-.91,2.89-2.35s-1-2.35-2.95-2.35h-2.74v4.7Z"/></g></g></g></svg>