<?xml version="1.0" encoding="utf-8"?>
<!-- Generator: Adobe Illustrator 19.2.1, SVG Export Plug-In . SVG Version: 6.00 Build 0)  -->
<svg version="1.1" id="Layer_1" xmlns="http://www.w3.org/2000/svg" xmlns:xlink="http://www.w3.org/1999/xlink" x="0px" y="0px"
	 viewBox="0 0 457 84" style="enable-background:new 0 0 457 84;" xml:space="preserve">
<style type="text/css">
	.st0{fill:#D8D9DB;}
	.st1{fill:#FFFFFF;}
	.st2{fill:url(#_Path_3_1_);}
	.st3{fill:#7E7E7E;}
	.st4{fill:#CECECE;}
	.st5{fill:#FA0E6A;}
</style>
<title>150</title>
<g>
	<g id="Sign_Up_Offer">
		<polygon id="_Path_" class="st0" points="449.9,23.7 386.8,23.7 383.5,23.7 369.6,23.7 364,23.7 348.4,23.7 346.9,23.7 
			335.3,23.7 337.2,20.8 331.8,20.5 332,15.2 326.7,15.9 325.7,10.7 320.8,12.4 318.6,7.5 314.1,10.1 311.1,5.9 307.2,9.3 
			303.3,5.9 300.2,10 295.7,7.5 293.5,12.1 288.6,10.7 287.4,15.5 282.4,15.2 282.1,20.2 277.2,21 277.9,25.9 273.3,27.7 275,32.4 
			270.9,35.1 273.5,39.3 270.1,42.8 273.5,46.4 270.9,50.5 275,53.3 273.3,57.9 277.9,59.7 277.2,64.6 282.1,65.4 282.4,70.4 
			287.4,70.1 288.6,74.9 293.5,73.6 295.7,78.1 300.2,75.7 303.3,79.7 307.2,76.3 311.1,79.7 314.1,75.5 318.6,78.1 320.8,73.2 
			325.7,74.9 326.7,69.7 332,70.4 331.8,65 337.2,64.3 337.1,63.7 350.7,63.7 352.2,63.7 365.9,63.7 373.5,63.7 385.3,63.7 
			388.6,63.7 451.7,63.7 440.7,41.4 		"/>
		<polygon id="_Path_2" class="st1" points="447.8,21 429.9,21 426.9,21 421.5,21 414.1,21 409.1,21 403.6,21 400.6,21 398.9,21 
			421.9,21 420.5,21 415.1,21 410,21 408.3,21 405.2,21 401,21 399.8,21 395.6,21 394.2,21 392.5,21 387.4,21 382,21 378.9,21 
			374.7,21 373,21 371.6,21 366.2,21 361.1,21 352.1,21 346.7,21 345.3,21 325.8,21 327.7,61.3 347.2,61.3 348.6,61.3 354,61.3 
			361.1,61.3 368.1,61.3 373.5,61.3 374.9,61.3 376.6,61.3 378.9,61.3 382,61.3 387.4,61.3 394.4,61.3 396.1,61.3 397.5,61.3 
			399.8,61.3 402.9,61.3 405.2,61.3 408.3,61.3 410,61.3 417,61.3 422.4,61.3 423.8,61.3 398.9,61.3 400.6,61.3 403.6,61.3 
			409.1,61.3 416,61.3 421.5,61.3 426.9,61.3 429.9,61.3 447.8,61.3 437.6,40.2 		"/>
		
			<radialGradient id="_Path_3_1_" cx="305.54" cy="44.105" r="36.9976" gradientTransform="matrix(1 0 0 -1 0 85.28)" gradientUnits="userSpaceOnUse">
			<stop  offset="0.21" style="stop-color:#EC1D6B"/>
			<stop  offset="0.5" style="stop-color:#EC1A6B"/>
			<stop  offset="1" style="stop-color:#A7226B"/>
		</radialGradient>
		<polygon id="_Path_3" class="st2" points="305.5,7.7 309.4,4.3 312.5,8.5 317,5.9 319.1,10.7 324.1,9 325.1,14.3 330.4,13.6 
			330.2,19 335.5,19.4 334.2,24.6 339.4,26.1 337,31 341.8,33.5 338.4,37.7 342.6,41.2 338.4,44.6 341.8,48.9 337,51.4 339.4,56.3 
			334.2,57.7 335.5,63 330.2,63.3 330.4,68.7 325.1,68 324.1,73.3 319.1,71.6 317,76.5 312.5,73.8 309.4,78.1 305.5,74.7 
			301.7,78.1 298.6,74 294.1,76.5 291.9,71.9 287,73.3 285.7,68.5 280.7,68.7 280.4,63.8 275.5,63 276.3,58.1 271.6,56.3 
			273.4,51.6 269.2,48.9 271.9,44.7 268.4,41.2 271.9,37.6 269.2,33.5 273.4,30.7 271.6,26.1 276.3,24.3 275.5,19.4 280.4,18.6 
			280.7,13.6 285.7,13.9 287,9 291.9,10.4 294.1,5.9 298.6,8.3 301.7,4.3 		"/>
		<g id="_Group_">
			<path id="_Compound_Path_" class="st1" d="M280.7,41.5c-0.2,0.2-0.4,0.4-0.6,0.6c-0.3,0.2-0.6,0.3-1,0.3c-0.4,0-0.8,0-1.1-0.1
				c-0.3-0.1-0.6-0.3-0.9-0.5c-0.2-0.2-0.4-0.5-0.5-0.9c-0.3-0.8-0.3-1.6,0-2.3c0.1-0.4,0.4-0.7,0.6-1c0.3-0.3,0.6-0.5,1-0.7
				c0.4-0.2,0.8-0.3,1.3-0.3c0.3,0,0.6,0,1,0c0.2,0,0.5,0.1,0.7,0.2c0.2,0.1,0.3,0.2,0.4,0.4c0.1,0.1,0.2,0.3,0.1,0.5
				c0,0.1,0,0.3-0.1,0.4c-0.1,0.1-0.2,0.2-0.3,0.3c-0.1,0.1-0.2,0.1-0.3,0.2c-0.1,0-0.1,0-0.2,0c-0.1-0.2-0.3-0.3-0.5-0.4
				c-0.4-0.1-0.9-0.1-1.3,0.1c-0.2,0.1-0.3,0.2-0.5,0.4c-0.1,0.2-0.2,0.3-0.3,0.5c-0.1,0.2-0.1,0.4-0.1,0.6c0,0.2,0,0.4,0.1,0.6
				c0.1,0.2,0.2,0.3,0.3,0.5c0.1,0.1,0.3,0.2,0.4,0.3c0.2,0.1,0.4,0.1,0.5,0c0.3,0,0.5-0.1,0.8-0.3c0.2-0.1,0.3-0.4,0.4-0.6
				l-0.6,0.1c-0.2,0-0.4,0-0.6-0.1c-0.1-0.1-0.2-0.2-0.2-0.5v-0.1c0-0.2,0.1-0.4,0.2-0.5c0.2-0.1,0.4-0.1,0.6-0.1l1.5-0.2
				c0.1,0,0.2,0,0.3,0c0.1,0,0.1,0.1,0.2,0.1c0,0.1,0.1,0.1,0.1,0.2c0,0.1,0,0.2,0,0.3v2.4c0,0-0.1,0.1-0.2,0.1
				c-0.1,0.1-0.3,0.1-0.4,0.1h-0.3c-0.1,0-0.2-0.1-0.3-0.1c-0.1,0-0.2-0.1-0.2-0.2C280.7,41.7,280.7,41.6,280.7,41.5z"/>
			<path id="_Compound_Path_2" class="st1" d="M285.4,41.7c-1.7,0.2-2.6-0.6-2.6-2.3V37c0-0.2,0.1-0.5,0.2-0.6
				c0.2-0.2,0.4-0.2,0.6-0.3h0.2c0.5-0.1,0.8,0.2,0.8,0.7v2.4c0,0.7,0.3,1,0.8,1c0.2,0,0.5-0.1,0.6-0.3c0.2-0.2,0.2-0.5,0.2-0.8
				v-2.4c0-0.2,0.1-0.5,0.2-0.6c0.2-0.2,0.4-0.2,0.6-0.3h0.2c0.5-0.1,0.8,0.2,0.8,0.7v2.4c0,0.7-0.2,1.4-0.6,2
				C286.8,41.4,286.1,41.7,285.4,41.7z"/>
			<path id="_Compound_Path_3" class="st1" d="M290.3,39.9l-0.2,0.5c-0.1,0.3-0.2,0.5-0.4,0.7c-0.2,0.1-0.3,0.2-0.5,0.2
				c-0.1,0-0.2,0-0.4,0c-0.1,0-0.2-0.1-0.3-0.1c-0.1,0-0.1-0.1-0.2-0.2c0,0-0.1-0.1,0-0.2l1.8-4.9c0-0.1,0.1-0.1,0.1-0.2
				c0-0.1,0.1-0.1,0.2-0.2c0.1-0.1,0.2-0.1,0.3-0.1c0.2,0,0.3-0.1,0.5-0.1c0.2,0,0.3,0,0.5,0c0.1,0,0.2,0,0.3,0.1
				c0.1,0,0.1,0.1,0.2,0.1c0,0.1,0.1,0.1,0.1,0.2l1.9,4.5c0,0,0,0.1,0,0.2c-0.1,0.1-0.1,0.2-0.2,0.2c-0.1,0.1-0.2,0.1-0.3,0.2
				c-0.1,0.1-0.2,0.1-0.4,0.1c-0.2,0-0.4,0-0.5-0.1c-0.2-0.1-0.4-0.4-0.5-0.6l-0.2-0.4L290.3,39.9z M291.8,38.5l-0.6-1.6l-0.6,1.7
				L291.8,38.5z"/>
			<path id="_Compound_Path_4" class="st1" d="M299.7,39.5c0,0,0,0.1,0,0.1c0,0.1-0.1,0.2-0.2,0.2c-0.1,0.1-0.2,0.2-0.3,0.2
				c-0.2,0.1-0.3,0.1-0.5,0.1c-0.1,0-0.2,0-0.4,0c-0.1,0-0.2-0.1-0.3-0.1c-0.1-0.1-0.2-0.1-0.3-0.2l-0.3-0.3l-0.8-1h-0.3v1
				c0,0.2-0.1,0.4-0.2,0.6c-0.1,0.2-0.4,0.3-0.6,0.3h-0.2c-0.2,0-0.4,0-0.5-0.2c-0.1-0.2-0.2-0.5-0.2-0.7V36c0-0.3,0.1-0.5,0.2-0.8
				c0.2-0.2,0.4-0.3,0.7-0.3l1.7-0.2c0.6-0.1,1.2,0,1.8,0.3c0.4,0.3,0.6,0.8,0.6,1.3c0,0.8-0.5,1.5-1.2,1.8L299.7,39.5z M297.1,37.4
				c0.2,0,0.4-0.1,0.6-0.2c0.1-0.1,0.2-0.3,0.2-0.5c0-0.4-0.3-0.6-0.8-0.6l-0.7,0.1v1.3L297.1,37.4z"/>
			<path id="_Compound_Path_5" class="st1" d="M302,38.7l-0.2,0.5c-0.1,0.3-0.2,0.5-0.4,0.7c-0.2,0.1-0.3,0.2-0.5,0.2
				c-0.1,0-0.2,0-0.4,0c-0.1,0-0.2-0.1-0.3-0.1c-0.1,0-0.1-0.1-0.2-0.2c0,0-0.1-0.1,0-0.2l1.8-4.9c0-0.1,0.1-0.1,0.1-0.2
				c0.1-0.1,0.1-0.1,0.2-0.2c0.1-0.1,0.2-0.1,0.3-0.1c0.2,0,0.3-0.1,0.5-0.1c0.2,0,0.3,0,0.5,0c0.1,0,0.2,0,0.3,0.1
				c0.1,0,0.1,0.1,0.2,0.1c0,0.1,0.1,0.1,0.1,0.2l1.9,4.5c0,0,0,0.1,0,0.2c-0.1,0.1-0.1,0.1-0.2,0.2c-0.1,0.1-0.2,0.1-0.3,0.2
				c-0.1,0.1-0.2,0.1-0.4,0.1c-0.2,0-0.4,0-0.5-0.1c-0.2-0.1-0.4-0.4-0.5-0.6l-0.2-0.4L302,38.7z M303.5,37.3l-0.6-1.6l-0.6,1.7
				L303.5,37.3z"/>
			<path id="_Compound_Path_6" class="st1" d="M306.3,38.6v-4.1c0-0.2,0.1-0.4,0.2-0.6c0.1-0.2,0.3-0.2,0.5-0.3h0.2h0.3
				c0.1,0,0.1,0,0.2,0c0.1,0,0.1,0.1,0.2,0.1L308,34l2,2.4v-2.2c-0.1-0.4,0.2-0.8,0.7-0.9c0,0,0.1,0,0.1,0h0.1
				c0.5,0,0.7,0.2,0.7,0.7v4.1c0,0.2-0.1,0.4-0.2,0.6c-0.1,0.1-0.3,0.2-0.5,0.3h-0.1h-0.3c-0.1,0-0.1,0-0.2,0
				c-0.1,0-0.1-0.1-0.2-0.1l-0.2-0.2l-2.1-2.5v2.2c0.1,0.4-0.2,0.8-0.7,0.9c0,0-0.1,0-0.1,0h-0.1C306.6,39.4,306.3,39.2,306.3,38.6z
				"/>
			<path id="_Compound_Path_7" class="st1" d="M313,34.6c-0.5,0.1-0.8-0.2-0.8-0.7l0,0c0-0.5,0.3-0.8,0.8-0.8l3.6-0.4
				c0.5-0.1,0.8,0.2,0.8,0.6l0,0c0,0.4-0.3,0.8-0.7,0.8c0,0-0.1,0-0.1,0l-0.9,0.1v3.4c0,0.2-0.1,0.5-0.2,0.6
				c-0.2,0.2-0.4,0.3-0.6,0.3h-0.2c-0.5,0.1-0.7-0.2-0.7-0.7v-3.3L313,34.6z"/>
			<path id="_Compound_Path_8" class="st1" d="M318.1,37.9c-0.2-0.2-0.3-0.4-0.2-0.7v-3.7c0-0.3,0.1-0.5,0.2-0.8
				c0.2-0.2,0.4-0.3,0.7-0.3l3-0.3c0.2,0,0.4,0,0.6,0.1c0.1,0.1,0.2,0.3,0.2,0.5v0c0,0.2-0.1,0.4-0.2,0.6c-0.2,0.1-0.4,0.2-0.6,0.2
				l-2.1,0.2v0.6l1.4-0.2c0.2,0,0.4,0,0.6,0.1c0.1,0.1,0.2,0.3,0.2,0.5l0,0c0,0.2-0.1,0.4-0.2,0.5c-0.2,0.2-0.4,0.2-0.6,0.2
				l-1.4,0.2v0.7l2.2-0.2c0.5-0.1,0.8,0.1,0.8,0.6l0,0c0,0.2-0.1,0.4-0.2,0.6c-0.2,0.2-0.4,0.3-0.6,0.3l-3,0.3
				C318.6,38.1,318.3,38.1,318.1,37.9z"/>
			<path id="_Compound_Path_9" class="st1" d="M323.5,37.3c-0.2-0.2-0.3-0.4-0.2-0.7v-3.7c0-0.3,0.1-0.5,0.2-0.8
				c0.2-0.2,0.4-0.3,0.7-0.3l3-0.3c0.2,0,0.4,0,0.6,0.1c0.1,0.1,0.2,0.3,0.2,0.5v0c0,0.2-0.1,0.4-0.2,0.6c-0.2,0.1-0.4,0.2-0.6,0.2
				l-2.1,0.2v0.6l1.4-0.2c0.2,0,0.4,0,0.6,0.1c0.1,0.1,0.2,0.3,0.2,0.5l0,0c0,0.2-0.1,0.4-0.2,0.5c-0.2,0.2-0.4,0.2-0.6,0.2
				l-1.4,0.2v0.7l2.2-0.2c0.5-0.1,0.8,0.1,0.8,0.6l0,0c0,0.2-0.1,0.4-0.2,0.6c-0.2,0.2-0.4,0.3-0.6,0.3l-3,0.3
				C323.9,37.5,323.7,37.5,323.5,37.3z"/>
			<path id="_Compound_Path_10" class="st1" d="M329.2,36.9c-0.1,0-0.2-0.1-0.3-0.2c-0.1-0.1-0.2-0.2-0.2-0.3
				c-0.1-0.1-0.1-0.2-0.1-0.4v-3.7c0-0.3,0.1-0.6,0.3-0.8c0.2-0.2,0.4-0.3,0.7-0.3l1.5-0.2c0.4-0.1,0.8,0,1.2,0.1
				c0.3,0.1,0.7,0.2,0.9,0.5c0.3,0.2,0.5,0.5,0.6,0.8c0.1,0.4,0.2,0.8,0.2,1.1c0,0.4-0.1,0.8-0.2,1.2c-0.1,0.4-0.3,0.7-0.6,1
				c-0.3,0.3-0.6,0.5-1,0.7c-0.4,0.2-0.8,0.3-1.3,0.3l-1.4,0.2C329.4,36.9,329.3,36.9,329.2,36.9z M330.9,35.3c0.4,0,0.7-0.2,1-0.5
				c0.2-0.3,0.4-0.6,0.4-1c0-0.4-0.1-0.7-0.4-0.9c-0.3-0.2-0.6-0.3-1-0.2l-0.6,0.1v2.7L330.9,35.3z"/>
			<path id="_Compound_Path_11" class="st1" d="M289.2,50.8c-0.3,0-0.7,0-1,0c-0.2,0-0.5-0.1-0.7-0.2c-0.2-0.1-0.3-0.2-0.4-0.3
				c-0.1-0.1-0.1-0.3-0.1-0.4c0-0.1,0-0.2,0.1-0.3c0.1-0.1,0.1-0.2,0.2-0.3c0.1-0.1,0.1-0.1,0.2-0.2c0.1,0,0.1-0.1,0.1-0.1
				c0.1,0.1,0.2,0.1,0.3,0.2c0.1,0.1,0.3,0.1,0.4,0.2c0.2,0,0.3,0.1,0.5,0.1c0.2,0,0.3,0,0.5,0c0.5-0.1,0.8-0.2,0.8-0.5
				c0-0.1,0-0.1-0.1-0.2c-0.1-0.1-0.1-0.1-0.2-0.1h-0.3H289c-0.2,0-0.5-0.1-0.7-0.1c-0.2-0.1-0.4-0.1-0.6-0.3
				c-0.2-0.1-0.3-0.3-0.4-0.5c-0.1-0.2-0.2-0.5-0.2-0.7c0-0.5,0.2-1.1,0.6-1.4c0.5-0.4,1.1-0.7,1.8-0.7c0.3,0,0.7,0,1,0
				c0.2,0,0.5,0.1,0.7,0.2c0.1,0.1,0.3,0.2,0.4,0.3c0.1,0.1,0.1,0.3,0.1,0.4c0,0.1,0,0.2-0.1,0.4c-0.1,0.1-0.1,0.2-0.2,0.3
				c-0.1,0.1-0.1,0.1-0.2,0.2c-0.1,0-0.1,0.1-0.1,0.1c-0.2-0.2-0.4-0.3-0.7-0.4c-0.3-0.1-0.5-0.1-0.8-0.1c-0.5,0.1-0.8,0.2-0.8,0.5
				c0,0.1,0,0.1,0.1,0.2c0.1,0,0.1,0.1,0.2,0.1h0.3h0.4c0.3,0,0.5,0.1,0.8,0.2c0.2,0.1,0.4,0.2,0.6,0.3c0.2,0.1,0.3,0.3,0.4,0.5
				c0.1,0.2,0.2,0.4,0.1,0.7c0,0.6-0.2,1.1-0.6,1.5C290.6,50.5,289.9,50.8,289.2,50.8z"/>
			<path id="_Compound_Path_12" class="st1" d="M294.1,49l-0.2,0.5c-0.1,0.3-0.2,0.5-0.4,0.7c-0.2,0.1-0.3,0.2-0.5,0.2
				c-0.1,0-0.2,0-0.4,0c-0.1,0-0.2-0.1-0.3-0.1c-0.1,0-0.1-0.1-0.2-0.2c0,0-0.1-0.1,0-0.2l1.8-4.9c0-0.1,0.1-0.1,0.1-0.2
				c0-0.1,0.1-0.1,0.2-0.2c0.1-0.1,0.2-0.1,0.3-0.1c0.2,0,0.3-0.1,0.5-0.1c0.2,0,0.3,0,0.5,0c0.1,0,0.2,0,0.3,0.1
				c0.1,0,0.1,0.1,0.2,0.1c0,0.1,0.1,0.1,0.1,0.2l1.9,4.5c0,0,0,0.1,0,0.2c-0.1,0.1-0.1,0.1-0.2,0.2c-0.1,0.1-0.2,0.1-0.3,0.2
				c-0.1,0.1-0.2,0.1-0.4,0.1c-0.2,0-0.4,0-0.5-0.1c-0.2-0.1-0.4-0.4-0.5-0.6l-0.2-0.4L294.1,49z M295.6,47.6L295,46l-0.6,1.7
				L295.6,47.6z"/>
			<path id="_Compound_Path_13" class="st1" d="M301.2,44.5c0.1-0.3,0.2-0.5,0.4-0.7c0.2-0.1,0.3-0.2,0.5-0.2c0.1,0,0.3,0,0.4,0
				c0.1,0,0.2,0.1,0.4,0.1c0.1,0,0.2,0.1,0.2,0.2c0,0.1,0.1,0.1,0,0.2l-1.9,4.7c-0.1,0.2-0.2,0.4-0.4,0.5c-0.2,0.1-0.4,0.2-0.6,0.2
				c-0.2,0-0.4,0-0.6-0.1c-0.2-0.1-0.3-0.3-0.4-0.5l-1.9-4.3c0,0,0-0.1,0.1-0.2c0.1-0.1,0.2-0.2,0.2-0.2c0.1-0.1,0.2-0.2,0.4-0.2
				c0.1-0.1,0.3-0.1,0.4-0.1c0.2,0,0.4,0,0.6,0.2c0.2,0.1,0.3,0.3,0.4,0.6l0.9,2.7L301.2,44.5z"/>
			<path id="_Compound_Path_14" class="st1" d="M303.7,48.4v-4.1c-0.1-0.4,0.2-0.8,0.7-0.9c0,0,0.1,0,0.1,0h0.2
				c0.5-0.1,0.8,0.2,0.8,0.7v4.1c0.1,0.4-0.2,0.8-0.7,0.9c0,0-0.1,0-0.1,0h-0.2C303.9,49.2,303.7,48.9,303.7,48.4z"/>
			<path id="_Compound_Path_15" class="st1" d="M306.3,48.1V44c0-0.2,0.1-0.4,0.2-0.6c0.1-0.2,0.3-0.2,0.5-0.3h0.2h0.3
				c0.1,0,0.1,0,0.2,0c0.1,0,0.1,0.1,0.2,0.1l0.2,0.2l2,2.4v-2.3c-0.1-0.4,0.2-0.8,0.7-0.9c0,0,0.1,0,0.1,0h0.1
				c0.5-0.1,0.7,0.2,0.7,0.7v4.1c0,0.2-0.1,0.4-0.2,0.6c-0.1,0.2-0.3,0.2-0.5,0.3h-0.1h-0.3c-0.1,0-0.1,0-0.2,0
				c-0.1,0-0.1-0.1-0.2-0.1l-0.2-0.2l-2-2.5v2.2c0.1,0.4-0.2,0.8-0.7,0.9c0,0-0.1,0-0.1,0h-0.1C306.6,48.9,306.3,48.6,306.3,48.1z"
				/>
			<path id="_Compound_Path_16" class="st1" d="M316.6,47.1c-0.2,0.2-0.4,0.4-0.6,0.6c-0.3,0.2-0.6,0.3-1,0.3c-0.4,0-0.8,0-1.1-0.1
				c-0.3-0.1-0.6-0.3-0.9-0.5c-0.2-0.2-0.4-0.5-0.5-0.9c-0.1-0.4-0.2-0.8-0.2-1.2c0-0.4,0.1-0.8,0.2-1.2c0.1-0.4,0.4-0.7,0.6-1
				c0.3-0.3,0.6-0.5,1-0.7c0.4-0.2,0.8-0.3,1.3-0.3c0.3,0,0.6,0,1,0c0.2,0,0.5,0.1,0.7,0.2c0.2,0.1,0.3,0.2,0.4,0.4
				c0.1,0.1,0.2,0.3,0.1,0.5c0,0.1,0,0.3-0.1,0.4c-0.1,0.1-0.2,0.2-0.3,0.3c-0.1,0.1-0.2,0.1-0.3,0.2c-0.1,0-0.1,0-0.2,0
				c-0.1-0.2-0.3-0.3-0.5-0.4c-0.4-0.1-0.9-0.1-1.3,0.1c-0.2,0.1-0.3,0.2-0.5,0.4c-0.1,0.2-0.2,0.3-0.3,0.5
				c-0.1,0.2-0.1,0.4-0.1,0.6c0,0.2,0,0.4,0.1,0.6c0.1,0.2,0.2,0.3,0.3,0.5c0.1,0.1,0.3,0.2,0.4,0.3c0.2,0.1,0.4,0.1,0.5,0
				c0.3,0,0.5-0.1,0.8-0.3c0.2-0.1,0.3-0.4,0.4-0.6l-0.6,0.1c-0.2,0-0.4,0-0.6-0.1c-0.1-0.1-0.2-0.2-0.2-0.5v-0.1
				c0-0.2,0.1-0.4,0.2-0.5c0.2-0.1,0.4-0.2,0.6-0.2l1.5-0.2c0.1,0,0.2,0,0.3,0c0.1,0,0.1,0.1,0.2,0.1c0,0.1,0.1,0.1,0.1,0.2
				c0,0.1,0,0.2,0,0.3v2.4c0,0-0.1,0.1-0.2,0.1c-0.1,0.1-0.3,0.1-0.4,0.1c-0.1,0-0.2,0-0.3,0c-0.1,0-0.2,0-0.2-0.1
				c-0.1,0-0.2-0.1-0.2-0.2C316.7,47.3,316.6,47.2,316.6,47.1z"/>
			<path id="_Compound_Path_17" class="st1" d="M320.8,47.4c-0.3,0-0.7,0-1,0c-0.2,0-0.5-0.1-0.7-0.2c-0.2-0.1-0.3-0.2-0.4-0.3
				c-0.1-0.1-0.1-0.3-0.1-0.4c0-0.1,0-0.2,0.1-0.3c0.1-0.1,0.1-0.2,0.2-0.3c0.1-0.1,0.1-0.1,0.2-0.2c0.1,0,0.1-0.1,0.1-0.1
				c0.1,0.1,0.2,0.1,0.3,0.2c0.1,0.1,0.3,0.1,0.4,0.2c0.2,0,0.3,0.1,0.5,0.1c0.2,0,0.3,0,0.5,0c0.5-0.1,0.8-0.2,0.8-0.5
				c0-0.1,0-0.1-0.1-0.2c-0.1-0.1-0.1-0.1-0.2-0.1H321h-0.4c-0.2,0-0.5-0.1-0.7-0.1c-0.2-0.1-0.4-0.1-0.6-0.3
				c-0.2-0.1-0.3-0.3-0.4-0.5c-0.1-0.2-0.2-0.5-0.2-0.7c0-0.5,0.2-1.1,0.6-1.4c0.5-0.4,1.1-0.7,1.8-0.7c0.3,0,0.7,0,1,0
				c0.2,0,0.5,0.1,0.7,0.2c0.2,0.1,0.3,0.2,0.4,0.3c0.1,0.1,0.1,0.3,0.1,0.4c0,0.1,0,0.2-0.1,0.4c-0.1,0.2-0.2,0.4-0.4,0.5
				c-0.1,0-0.1,0.1-0.1,0.1c-0.2-0.2-0.4-0.3-0.7-0.4c-0.3-0.1-0.5-0.1-0.8-0.1c-0.5,0-0.8,0.2-0.8,0.5c0,0.1,0,0.1,0.1,0.2
				c0.1,0,0.1,0.1,0.2,0.1h0.3h0.4c0.3,0,0.5,0.1,0.8,0.2c0.2,0.1,0.4,0.2,0.6,0.3c0.2,0.1,0.3,0.3,0.4,0.5c0.1,0.2,0.2,0.4,0.1,0.7
				c0,0.6-0.2,1.1-0.6,1.5C322.2,47.2,321.5,47.4,320.8,47.4z"/>
		</g>
		<path id="_Path_4" class="st1" d="M291,30.8c-0.2,0-0.4-0.2-0.3-0.5c0-0.2,0.2-0.3,0.3-0.3l26.9-3.2c0.2,0,0.4,0.1,0.4,0.3
			c0,0,0,0,0,0c0,0.2-0.1,0.4-0.4,0.5L291,30.8L291,30.8z"/>
		<path id="_Path_5" class="st1" d="M291,56.4c-0.2,0-0.4-0.2-0.3-0.5c0-0.2,0.2-0.3,0.3-0.3l26.9-3.2c0.2,0,0.4,0.1,0.4,0.3
			c0,0,0,0,0,0c0,0.2-0.1,0.4-0.4,0.5L291,56.4L291,56.4z"/>
		<g id="_Group_2">
			<g id="_Group_3">
				<path id="_Compound_Path_18" class="st3" d="M351.9,44.3c-0.5,0-1-0.1-1.5-0.2c-0.4-0.1-0.8-0.4-1.1-0.7
					c-0.3-0.3-0.5-0.7-0.7-1.1c-0.2-0.4-0.3-0.9-0.2-1.4c0-0.5,0.1-0.9,0.2-1.4c0.2-0.4,0.4-0.8,0.7-1.1c0.3-0.3,0.7-0.5,1.1-0.7
					c0.5-0.2,1-0.3,1.5-0.2c0.5,0,1,0.1,1.4,0.2c0.4,0.2,0.8,0.4,1.1,0.7c0.3,0.3,0.6,0.7,0.7,1.1c0.2,0.4,0.3,0.9,0.2,1.4
					c0,0.5-0.1,0.9-0.2,1.4c-0.2,0.4-0.4,0.8-0.7,1.1c-0.3,0.3-0.7,0.5-1.1,0.7C352.9,44.3,352.4,44.4,351.9,44.3z M351.9,42.4
					c0.4,0,0.7-0.1,1-0.4c0.3-0.3,0.4-0.6,0.4-1c0-0.4-0.1-0.8-0.3-1.1c-0.6-0.5-1.4-0.5-2,0c-0.3,0.3-0.4,0.7-0.4,1.1
					c0,0.4,0.1,0.8,0.4,1.1C351.2,42.3,351.6,42.4,351.9,42.4L351.9,42.4z"/>
				<path id="_Compound_Path_19" class="st3" d="M359.2,41.8l1-3c0.1-0.4,0.3-0.7,0.5-0.9c0.2-0.2,0.5-0.2,0.7-0.2
					c0.2,0,0.4,0,0.5,0.1c0.2,0.1,0.3,0.1,0.5,0.2c0.1,0.1,0.2,0.1,0.3,0.2c0.1,0.1,0.1,0.1,0.1,0.2l-2.2,5.3c0,0.1-0.1,0.2-0.2,0.3
					c-0.1,0.1-0.2,0.1-0.3,0.2c-0.1,0-0.3,0.1-0.4,0.1h-0.4h-0.4c-0.1,0-0.3,0-0.4-0.1c-0.1,0-0.2-0.1-0.4-0.2
					c-0.1-0.1-0.2-0.2-0.2-0.3l-2.3-5.3c0,0,0-0.1,0.1-0.2c0.1-0.1,0.2-0.1,0.3-0.2c0.1-0.1,0.3-0.2,0.5-0.2
					c0.2-0.1,0.3-0.1,0.5-0.1c0.3,0,0.5,0.1,0.8,0.2c0.3,0.2,0.5,0.5,0.6,0.9L359.2,41.8z"/>
				<path id="_Compound_Path_20" class="st3" d="M365.6,42.4c0.3,0.2,0.6,0.3,1,0.2c0.3,0,0.7-0.1,1-0.2c0.2-0.1,0.4-0.3,0.6-0.6
					h0.2c0.1,0,0.3,0.1,0.4,0.1c0.2,0.1,0.3,0.2,0.4,0.3c0.1,0.2,0.2,0.4,0.2,0.6c0,0.5-0.3,0.9-0.7,1.1c-0.6,0.3-1.4,0.5-2.1,0.4
					c-0.5,0-1-0.1-1.5-0.2c-0.4-0.1-0.8-0.4-1.1-0.7c-0.3-0.3-0.6-0.6-0.7-1c-0.2-0.4-0.3-0.9-0.2-1.4c0-0.5,0.1-0.9,0.2-1.4
					c0.2-0.4,0.4-0.8,0.7-1.1c0.3-0.3,0.7-0.5,1.1-0.7c0.4-0.2,0.9-0.3,1.4-0.3c0.5,0,0.9,0.1,1.4,0.2c0.4,0.1,0.8,0.4,1.1,0.7
					c0.3,0.3,0.5,0.6,0.7,1c0.2,0.4,0.3,0.8,0.2,1.3V41c0,0.2,0,0.3-0.1,0.5c-0.1,0.1-0.2,0.2-0.4,0.2h-4
					C365.2,41.9,365.4,42.2,365.6,42.4z M367.4,40.4c0-0.3-0.1-0.6-0.3-0.8c-0.2-0.2-0.5-0.3-0.8-0.3c-0.3,0-0.6,0.1-0.8,0.3
					c-0.2,0.2-0.4,0.5-0.4,0.8L367.4,40.4z"/>
				<path id="_Compound_Path_21" class="st3" d="M372.9,38.8c0.1-0.3,0.3-0.6,0.6-0.9c0.3-0.2,0.6-0.3,1-0.3c0.4,0,0.7,0.1,1,0.4
					c0.3,0.3,0.4,0.6,0.4,1c0,0.2,0,0.4-0.1,0.6c-0.1,0.1-0.2,0.3-0.3,0.4c-0.1,0.1-0.2,0.2-0.3,0.2c-0.1,0-0.1,0.1-0.1,0
					c-0.1-0.1-0.2-0.2-0.4-0.2c-0.2-0.1-0.3-0.1-0.5-0.1c-0.7,0-1.1,0.5-1.1,1.6V43c0.1,0.5-0.2,1.1-0.8,1.2c-0.1,0-0.2,0-0.3,0
					h-0.3c-0.3,0-0.6-0.1-0.8-0.3c-0.2-0.3-0.4-0.6-0.3-1v-5c0,0,0.1-0.1,0.3-0.2c0.2-0.1,0.4-0.1,0.7-0.1c0.1,0,0.3,0,0.4,0
					c0.1,0,0.3,0.1,0.4,0.2c0.1,0.1,0.3,0.2,0.4,0.3C372.7,38.5,372.8,38.6,372.9,38.8z"/>
			</g>
			<g id="_Group_4">
				<path id="_Compound_Path_22" class="st3" d="M380.5,39.5c-0.7,0-1-0.3-1-0.8v-0.1c0-0.6,0.3-0.9,1-0.9h0.1V37
					c0-0.3,0.1-0.6,0.3-0.9c0.2-0.2,0.5-0.3,0.8-0.3h0.2c0.3,0,0.6,0.1,0.8,0.3c0.2,0.3,0.4,0.6,0.3,1v0.6h0.7c0.7,0,1,0.3,1,0.8
					v0.1c0,0.6-0.3,0.9-1,0.9h-0.8v2.2c0,0.4,0.2,0.7,0.5,0.7c0.1,0,0.3,0,0.4-0.1c0.1-0.1,0.2-0.2,0.3-0.3c0,0,0,0,0.1,0
					c0.1,0,0.1,0.1,0.2,0.2c0.1,0.1,0.1,0.2,0.2,0.3c0.1,0.1,0.1,0.3,0.1,0.4c0,0.4-0.2,0.8-0.5,1c-0.4,0.3-0.9,0.4-1.4,0.4
					c-0.6,0.1-1.2-0.2-1.7-0.6c-0.4-0.5-0.6-1.1-0.5-1.7v-2.4H380.5z"/>
				<path id="_Compound_Path_23" class="st3" d="M388.9,37.8c0.4-0.2,0.8-0.3,1.2-0.3c0.4,0,0.7,0.1,1.1,0.2
					c0.3,0.1,0.5,0.3,0.7,0.6c0.2,0.2,0.3,0.5,0.4,0.8c0.1,0.3,0.1,0.7,0.1,1v2.8c0,0.3-0.1,0.7-0.3,0.9c-0.2,0.2-0.5,0.3-0.8,0.3
					h-0.2c-0.3,0-0.6-0.1-0.8-0.3c-0.2-0.3-0.4-0.6-0.3-1v-2.4c0-0.3-0.1-0.5-0.2-0.7c-0.1-0.2-0.4-0.3-0.6-0.3
					c-0.3,0-0.5,0.1-0.7,0.3c-0.2,0.2-0.3,0.5-0.2,0.8v2.3c0.1,0.5-0.2,1.1-0.8,1.2c-0.1,0-0.2,0-0.3,0h-0.3c-0.3,0-0.6-0.1-0.8-0.3
					c-0.2-0.3-0.4-0.6-0.3-1v-7.7c0,0,0.1-0.1,0.3-0.2c0.4-0.1,0.8-0.1,1.2,0c0.2,0.1,0.4,0.2,0.5,0.3c0.2,0.2,0.3,0.4,0.4,0.6
					c0.1,0.3,0.1,0.6,0.1,0.9v1.8C388.4,38.4,388.6,38.1,388.9,37.8z"/>
				<path id="_Compound_Path_24" class="st3" d="M396,42.3c0.3,0.2,0.6,0.3,1,0.2c0.3,0,0.7-0.1,1-0.2c0.2-0.1,0.4-0.3,0.6-0.6h0.2
					c0.1,0,0.3,0.1,0.4,0.1c0.2,0.1,0.3,0.2,0.4,0.3c0.1,0.2,0.2,0.4,0.2,0.6c0,0.5-0.3,0.9-0.7,1.1c-0.6,0.3-1.4,0.5-2.1,0.4
					c-0.5,0-1-0.1-1.5-0.2c-0.4-0.1-0.8-0.4-1.1-0.7c-0.3-0.3-0.6-0.6-0.7-1c-0.2-0.4-0.3-0.9-0.2-1.4c0-0.5,0.1-0.9,0.2-1.4
					c0.2-0.4,0.4-0.8,0.7-1.1c0.3-0.3,0.7-0.5,1.1-0.7c0.4-0.2,0.9-0.3,1.4-0.3c0.5,0,0.9,0.1,1.4,0.2c0.4,0.1,0.8,0.4,1.1,0.7
					c0.3,0.3,0.5,0.6,0.7,1c0.2,0.4,0.3,0.8,0.2,1.3v0.2c0,0.2,0,0.3-0.1,0.5c-0.1,0.1-0.2,0.2-0.4,0.2h-4
					C395.6,41.8,395.8,42.1,396,42.3z M397.8,40.3c0-0.3-0.1-0.6-0.3-0.8c-0.2-0.2-0.5-0.3-0.8-0.3c-0.3,0-0.6,0.1-0.8,0.3
					c-0.2,0.2-0.4,0.5-0.4,0.8L397.8,40.3z"/>
			</g>
			<g id="_Group_5">
				<path id="_Compound_Path_25" class="st3" d="M405.2,46.4c-0.2,0-0.4,0-0.5-0.1c-0.2-0.1-0.3-0.1-0.4-0.2
					c-0.1-0.1-0.2-0.1-0.3-0.2c-0.1-0.1-0.1-0.1-0.1-0.2l1-2.2c-0.1,0-0.3-0.1-0.4-0.2c-0.1-0.1-0.2-0.2-0.2-0.3l-2.1-4.9
					c0,0,0-0.1,0.1-0.2c0.1-0.1,0.2-0.2,0.3-0.2c0.1-0.1,0.3-0.2,0.5-0.2c0.2-0.1,0.3-0.1,0.5-0.1c0.3,0,0.5,0.1,0.8,0.2
					c0.3,0.2,0.5,0.5,0.5,0.9l1,2.8l0.9-2.8c0.1-0.3,0.3-0.7,0.5-0.9c0.2-0.2,0.5-0.2,0.7-0.2c0.2,0,0.4,0,0.5,0.1
					c0.2,0.1,0.3,0.1,0.5,0.2c0.1,0.1,0.2,0.2,0.3,0.2c0.1,0.1,0.1,0.1,0.1,0.2l-2.8,7.1c-0.1,0.3-0.3,0.6-0.6,0.9
					C405.8,46.3,405.5,46.4,405.2,46.4z"/>
				<path id="_Compound_Path_26" class="st3" d="M412.2,42.2c0.3,0.2,0.6,0.3,1,0.2c0.3,0,0.7-0.1,1-0.2c0.2-0.1,0.4-0.3,0.6-0.6
					h0.2c0.1,0,0.3,0.1,0.4,0.1c0.2,0.1,0.3,0.2,0.4,0.3c0.1,0.2,0.2,0.4,0.2,0.6c0,0.5-0.3,0.9-0.7,1.1c-0.6,0.3-1.4,0.5-2.1,0.4
					c-0.5,0-1-0.1-1.5-0.2c-0.4-0.1-0.8-0.4-1.1-0.7c-0.3-0.3-0.6-0.6-0.7-1c-0.2-0.4-0.3-0.9-0.2-1.4c0-0.5,0.1-0.9,0.2-1.4
					c0.2-0.4,0.4-0.8,0.7-1.1c0.3-0.3,0.7-0.5,1.1-0.7c0.4-0.2,0.9-0.3,1.4-0.3c0.5,0,0.9,0.1,1.4,0.2c0.4,0.1,0.8,0.4,1.1,0.7
					c0.3,0.3,0.5,0.6,0.7,1c0.2,0.4,0.3,0.8,0.2,1.3v0.2c0,0.2,0,0.3-0.1,0.5c-0.1,0.1-0.2,0.2-0.4,0.2h-4
					C411.8,41.8,412,42,412.2,42.2z M414,40.2c0-0.3-0.1-0.6-0.3-0.8c-0.2-0.2-0.5-0.3-0.8-0.3c-0.3,0-0.6,0.1-0.8,0.3
					c-0.2,0.2-0.4,0.5-0.4,0.8L414,40.2z"/>
				<path id="_Compound_Path_27" class="st3" d="M420,39.2c-0.2,0-0.4,0-0.5,0.1c-0.3,0.1-0.5,0.2-0.6,0.5c-0.1,0.1-0.1,0.2-0.2,0.3
					h-0.3c-0.2,0-0.4,0-0.6-0.1c-0.2-0.1-0.4-0.2-0.6-0.3c-0.2-0.2-0.3-0.4-0.2-0.6c0-0.5,0.3-1,0.7-1.2c0.7-0.3,1.5-0.5,2.3-0.4
					c0.9-0.1,1.8,0.2,2.5,0.7c0.6,0.5,0.9,1.3,0.8,2.1v3.7c0,0.1-0.1,0.1-0.3,0.2c-0.2,0.1-0.4,0.1-0.7,0.1c-0.6,0.1-1.2-0.4-1.4-1
					c-0.2,0.3-0.5,0.6-0.9,0.8c-0.4,0.2-0.8,0.3-1.3,0.3c-0.3,0-0.6,0-1-0.1c-0.3-0.1-0.5-0.2-0.7-0.4c-0.2-0.2-0.3-0.4-0.4-0.6
					c-0.1-0.2-0.2-0.5-0.1-0.8c0-0.7,0.3-1.3,0.9-1.6c0.9-0.4,2-0.6,3-0.5h0.3c0-0.5-0.4-0.9-0.9-0.9C420.1,39.2,420,39.2,420,39.2z
					 M419.9,42.6c0.3,0,0.6-0.1,0.8-0.3c0.2-0.2,0.3-0.5,0.3-0.8v-0.2h-0.3c-0.4,0-0.8,0.1-1.1,0.2c-0.2,0.1-0.4,0.3-0.4,0.5
					c0,0.2,0.1,0.3,0.2,0.4C419.5,42.5,419.7,42.6,419.9,42.6L419.9,42.6z"/>
				<path id="_Compound_Path_28" class="st3" d="M426.9,38.6c0.1-0.3,0.3-0.6,0.6-0.9c0.3-0.2,0.6-0.3,1-0.3c0.4,0,0.7,0.1,1,0.4
					c0.3,0.3,0.4,0.6,0.4,1c0,0.2,0,0.4-0.1,0.6c-0.1,0.1-0.2,0.3-0.3,0.4c-0.1,0.1-0.2,0.2-0.3,0.2c-0.1,0-0.1,0.1-0.1,0
					c-0.1-0.1-0.2-0.2-0.4-0.2c-0.2-0.1-0.3-0.1-0.5-0.1c-0.7,0-1.1,0.5-1.1,1.6v1.5c0.1,0.5-0.2,1.1-0.8,1.2c-0.1,0-0.2,0-0.3,0
					h-0.3c-0.3,0-0.6-0.1-0.8-0.3c-0.2-0.3-0.4-0.6-0.3-1v-5.1c0,0,0.1-0.1,0.3-0.2c0.2-0.1,0.4-0.1,0.7-0.1c0.1,0,0.3,0,0.4,0
					c0.1,0,0.3,0.1,0.4,0.2c0.1,0.1,0.3,0.2,0.4,0.3C426.8,38.2,426.9,38.4,426.9,38.6z"/>
			</g>
		</g>
		<path class="st4" d="M248,38.1h-9.7v-9.7c0-0.6-0.5-1.1-1.1-1.1c-0.6,0-1.1,0.5-1.1,1.1v9.7h-9.7c-0.6,0-1.1,0.5-1.1,1.1
			s0.5,1.1,1.1,1.1h9.6v9.7c0,0.6,0.5,1.1,1.1,1.1c0.6,0,1.1-0.5,1.1-1.1v-9.7h9.7c0.6,0,1.1-0.5,1.1-1.1S248.6,38.1,248,38.1
			C248,38.1,248,38.1,248,38.1z"/>
		<path class="st5" d="M236.1,49.7c-0.6,0-1.1-0.5-1.1-1.1c0,0,0,0,0,0V27.1c0-0.6,0.5-1.1,1.1-1.1c0.6,0,1.1,0.5,1.1,1.1l0,0v21.4
			C237.2,49.2,236.7,49.7,236.1,49.7C236.1,49.7,236.1,49.7,236.1,49.7z"/>
		<path class="st5" d="M246.8,39h-21.4c-0.6,0-1.1-0.5-1.1-1.1c0-0.6,0.5-1.1,1.1-1.1h21.4c0.6,0,1.1,0.5,1.1,1.1
			C247.9,38.5,247.4,39,246.8,39L246.8,39z"/>
		<g id="_Group_6">
			<path id="_Compound_Path_29" class="st4" d="M139.4,23c-0.1-0.9,0.6-1.7,1.5-1.8c0.1,0,0.1,0,0.2,0h10.7c1,0,1.5,0.5,1.5,1.3v0.2
				c0,0.9-0.5,1.3-1.5,1.3h-9.2v6.3h6.9c1,0,1.5,0.5,1.5,1.2v0.1c0,0.9-0.5,1.3-1.5,1.3h-6.8v6.7c0,1-0.5,1.4-1.4,1.4h-0.5
				c-0.9,0-1.3-0.6-1.3-1.7V23z"/>
			<path id="_Compound_Path_30" class="st4" d="M156,23c-0.1-0.9,0.6-1.7,1.5-1.8c0.1,0,0.1,0,0.2,0h5.6c4.8,0,7.4,2,7.4,5.9
				c0,3.4-2.1,5.5-5.9,5.8l5.8,6.9c0.1,0.2-0.5,1.3-1.8,1.3c-0.8,0-1.6-0.5-2-1.2l-5.4-6.6h-2.2v6.4c0.1,0.7-0.4,1.3-1.1,1.4
				c-0.1,0-0.2,0-0.3,0h-0.4c-0.9,0-1.3-0.6-1.3-1.6L156,23z M163.2,30.8c2.9,0,4.3-1.3,4.3-3.5c0-2.3-1.5-3.5-4.4-3.5h-4.1v7
				L163.2,30.8z"/>
			<path id="_Compound_Path_31" class="st4" d="M174,23c-0.1-0.9,0.6-1.7,1.5-1.8c0.1,0,0.1,0,0.2,0h11.5c1,0,1.5,0.5,1.5,1.3v0.2
				c0,0.9-0.5,1.3-1.5,1.3h-10v5.5h7.7c1,0,1.5,0.4,1.5,1.2v0.1c0,0.9-0.5,1.3-1.5,1.3h-7.7v6h10.2c1,0,1.4,0.4,1.4,1.2v0.2
				c0,0.9-0.5,1.4-1.4,1.4h-11.7c-0.9,0-1.6-0.7-1.7-1.5c0-0.1,0-0.1,0-0.2V23z"/>
			<path id="_Compound_Path_32" class="st4" d="M191.9,23c-0.1-0.9,0.6-1.7,1.5-1.8c0.1,0,0.1,0,0.2,0h11.5c1,0,1.5,0.5,1.5,1.3v0.2
				c0,0.9-0.5,1.3-1.5,1.3h-10v5.5h7.7c1,0,1.5,0.4,1.5,1.2v0.1c0,0.9-0.5,1.3-1.5,1.3h-7.7v6h10.2c1,0,1.4,0.4,1.4,1.2v0.2
				c0,0.9-0.5,1.4-1.4,1.4h-11.6c-0.9,0-1.6-0.6-1.7-1.5c0-0.1,0-0.1,0-0.2L191.9,23z"/>
			<path id="_Compound_Path_33" class="st4" d="M139.4,47.8c-0.1-0.6,0.4-1.1,1-1.2c0,0,0.1,0,0.1,0h3.5c3.3,0,5.2,1.5,5.2,4.2
				s-1.8,4.3-5.3,4.3h-2.4v3.9c0.1,0.5-0.3,0.9-0.7,1c-0.1,0-0.1,0-0.2,0h-0.3c-0.6,0-0.9-0.3-0.9-1L139.4,47.8z M143.9,53.5
				c2,0,3.1-0.9,3.1-2.5s-1.1-2.5-3.1-2.5h-2.4v5.1L143.9,53.5z"/>
			<path id="_Compound_Path_34" class="st4" d="M157.4,46.4c3.6-0.1,6.6,2.7,6.7,6.3c0,0.2,0,0.4,0,0.6c0,3.7-3,6.8-6.8,6.8
				s-6.8-3-6.8-6.8c-0.2-3.6,2.6-6.7,6.3-6.9C157,46.4,157.2,46.4,157.4,46.4z M157.4,58.4c2.7,0,4.6-2.1,4.6-5s-1.9-5.1-4.6-5.1
				s-4.6,2.1-4.6,5S154.6,58.4,157.4,58.4L157.4,58.4z"/>
			<path id="_Compound_Path_35" class="st4" d="M165.2,47.2c0.3-0.4,0.8-0.7,1.3-0.6c0.6,0,1,0.3,1.2,1.2l2.2,9.8l2.5-8.4
				c0.1-0.7,0.7-1.1,1.4-1c0.7-0.1,1.3,0.4,1.4,1l2.5,8.3l2.2-9.8c0.2-0.9,0.6-1.2,1.2-1.2c0.8,0,1.2,0.5,1.2,0.6l-3.1,12.1
				c-0.1,0.6-0.5,0.8-1.4,0.8s-1.2-0.2-1.4-0.9l-2.6-8.6l-2.7,8.6c-0.2,0.6-0.5,0.9-1.3,0.9s-1.3-0.2-1.4-0.8L165.2,47.2z"/>
			<path id="_Compound_Path_36" class="st4" d="M184.7,47.8c-0.1-0.6,0.4-1.1,1-1.2c0,0,0.1,0,0.1,0h7.7c0.7,0,1,0.3,1,0.9v0.1
				c0,0.6-0.3,0.9-1,0.9h-6.7v3.7h5.2c0.7,0,1,0.3,1,0.8v0.1c0,0.6-0.3,0.9-1,0.9h-5.2v4h6.9c0.7,0,1,0.3,1,0.8V59
				c0,0.6-0.3,0.9-1,0.9h-7.9c-0.6,0-1.1-0.4-1.1-1c0-0.1,0-0.1,0-0.2V47.8z"/>
			<path id="_Compound_Path_37" class="st4" d="M196.8,47.8c-0.1-0.6,0.4-1.1,1-1.2c0,0,0.1,0,0.1,0h3.8c3.3,0,5,1.4,5,4
				c0,2.3-1.4,3.7-4,3.9l3.9,4.6c0.1,0.1-0.4,0.9-1.2,0.9c-0.6,0-1.1-0.3-1.4-0.8l-3.6-4.5h-1.5v4.3c0.1,0.5-0.3,0.9-0.7,1
				c-0.1,0-0.1,0-0.2,0h-0.3c-0.6,0-0.9-0.4-0.9-1.1L196.8,47.8z M201.7,53.1c2,0,2.9-0.9,2.9-2.3s-1-2.3-2.9-2.3h-2.7v4.7
				L201.7,53.1z"/>
		</g>
		<path id="_Compound_Path_38" class="st4" d="M10.2,44.8c2.5,2,5.6,3.2,8.8,3.3c2.7,0,3.9-0.8,3.9-2.2c0-1.7-2.2-2.1-5-2.7
			c-3.9-0.8-9.8-2.4-9.8-9c0-4.7,2.9-7.9,8-9v-1c0-2.9,1.1-4.4,3.7-4.4H20c2.7,0,3.7,1.4,3.7,4.4V25c5.1,0.6,7.7,2.6,7.7,5.5
			c0,2.6-2.8,4.6-3,4.4c-2.1-1.9-4.9-3.1-7.8-3.2c-2.6,0-3.8,0.8-3.8,2.2c0,1.6,2.2,2,5.2,2.7c4,0.8,10.1,2.5,10.1,8.8
			c0,5-2.9,8.2-8.4,9.2v1.2c0,2.9-1.1,4.4-3.7,4.4h-0.2c-2.7,0-3.7-1.4-3.7-4.4v-1c-5.6-0.6-8.7-2.8-8.7-5.9
			C7.4,46.6,10.1,44.6,10.2,44.8z"/>
		<path id="_Compound_Path_39" class="st4" d="M44.2,34.7c-0.9,0.4-1.8,0.6-2.8,0.7c-3.2,0.1-5.9-2.3-6-5.5c0-0.1,0-0.3,0-0.4
			c0-4,2.7-5.6,3.1-5.4c1.1,0.8,2.4,1.2,3.7,1.2c2.6,0,4.8-1.8,5.3-4.3h3.1c3.4,0,5.2,1.8,5.2,5.5v28.4c0,3.6-1.8,5.5-5.2,5.5h-1.5
			c-3.3,0-5-1.9-5-5.5L44.2,34.7z"/>
		<path id="_Compound_Path_40" class="st4" d="M63.2,47.7c2.7,2.8,6.4,4.5,10.4,4.4c4.1,0,6.5-1.7,6.5-4.6S78,43,73.6,43
			c-2.4-0.1-4.7,0.6-6.7,2c-4.4-0.1-6.9-1.8-6.9-6.6V28c0-4.3,1.5-6.6,5.6-6.6h17.7c3.8,0,5.7,1.4,5.7,4.6v0.3
			c0,3.1-1.8,4.5-5.7,4.5H69.7v5.7c1.9-0.6,3.9-1,5.9-1c8.9,0,14.7,4.5,14.7,12.2s-6.2,12.8-16.4,12.8c-9.8,0-15-3.7-15-7.5
			C58.9,50,62.9,47.4,63.2,47.7z"/>
		<path id="_Compound_Path_41" class="st4" d="M93.4,38.7c0-11.1,6.6-18.1,17.8-18.1s17.7,7,17.7,18.1v3.7
			c0,11.1-6.6,18.2-17.7,18.2s-17.8-7-17.8-18.2L93.4,38.7z M111.1,51c3.8,0,5.8-2.5,5.8-7.6v-5.8c0-5.1-2-7.7-5.8-7.7
			s-5.9,2.5-5.9,7.7v5.8C105.3,48.5,107.2,51,111.1,51z"/>
		<path id="_Path_6" class="st5" d="M8.2,43.4c2.5,2,5.6,3.2,8.8,3.3c2.7,0,4-0.8,4-2.2c0-1.7-2.2-2.1-5.1-2.7
			C11.9,41,6,39.3,6,32.7c0-4.8,3-8,8.1-9.1v-1c0-2.9,1.1-4.4,3.7-4.4H18c2.7,0,3.7,1.4,3.7,4.4v0.8c5.1,0.6,7.7,2.7,7.7,5.6
			c0,2.6-2.9,4.7-3,4.5c-2.2-2-5-3.1-7.9-3.2c-2.6,0-3.8,0.8-3.8,2.2c0,1.6,2.2,2,5.2,2.7c4,0.8,10.2,2.5,10.2,8.8
			c0,5-3,8.2-8.4,9.3v1.2c0,2.9-1.1,4.4-3.7,4.4h-0.2C15,59,14,57.5,14,54.5v-1c-5.6-0.5-8.7-2.8-8.7-5.9C5.3,45.2,8,43.2,8.2,43.4z
			"/>
		<path id="_Path_7" class="st5" d="M41.7,32.6c-0.9,0.4-1.8,0.6-2.8,0.7c-3.2,0.1-5.9-2.3-6-5.5c0-0.1,0-0.3,0-0.4
			c0-4,2.7-5.6,3.1-5.4c1.1,0.8,2.4,1.2,3.7,1.2c2.6,0,4.8-1.8,5.3-4.3h3.1c3.4,0,5.2,1.8,5.2,5.5v28.4c0,3.6-1.8,5.5-5.2,5.5h-1.5
			c-3.3,0-5-1.9-5-5.5L41.7,32.6z"/>
		<path id="_Path_8" class="st5" d="M60.7,45.6c2.7,2.8,6.5,4.4,10.4,4.4c4.1,0,6.5-1.7,6.5-4.6s-2.1-4.6-6.5-4.6
			c-2.4-0.1-4.7,0.6-6.7,2c-4.4,0-6.9-1.8-6.9-6.6V25.9c0-4.3,1.5-6.6,5.6-6.6h17.7c3.8,0,5.7,1.4,5.7,4.6v0.3
			c0,3.1-1.8,4.5-5.7,4.5H67.2v5.7c1.9-0.6,3.9-1,5.9-1c8.9,0,14.7,4.5,14.7,12.2s-6.2,12.9-16.4,12.9c-9.8,0-15-3.7-15-7.5
			C56.3,47.8,60.4,45.3,60.7,45.6z"/>
		<path id="_Compound_Path_42" class="st5" d="M109,18.5c-11.1,0-17.8,7-17.8,18.1v3.7c0,11.2,6.6,18.2,17.8,18.2s17.7-7,17.7-18.2
			v-3.7C126.7,25.4,120.1,18.5,109,18.5z M115.6,41.3c0,5-3.1,7.6-6.9,7.6s-7-2.5-7-7.6v-5.8c0-5.2,3-7.7,7-7.7s6.9,2.6,6.9,7.7
			V41.3z"/>
		<g id="_Group_7">
			<path id="_Compound_Path_43" class="st5" d="M137.8,21.4c-0.1-0.9,0.6-1.7,1.5-1.8c0.1,0,0.1,0,0.2,0h10.7c1,0,1.5,0.5,1.5,1.3
				V21c0,0.9-0.5,1.3-1.5,1.3h-9.2v6.3h6.9c1,0,1.5,0.5,1.5,1.2V30c0,0.9-0.5,1.3-1.5,1.3h-6.8V38c0,1-0.5,1.4-1.4,1.4h-0.5
				c-0.9,0-1.3-0.6-1.3-1.7V21.4z"/>
			<path id="_Compound_Path_44" class="st5" d="M154.4,21.4c-0.1-0.9,0.6-1.7,1.5-1.8c0.1,0,0.1,0,0.2,0h5.6c4.8,0,7.4,2,7.4,5.9
				c0,3.4-2.1,5.5-5.9,5.8l5.8,6.9c0.1,0.2-0.5,1.3-1.8,1.3c-0.8,0-1.6-0.5-2-1.2l-5.4-6.6h-2.2V38c0.1,0.7-0.4,1.3-1.1,1.4
				c-0.1,0-0.2,0-0.3,0h-0.4c-0.9,0-1.3-0.6-1.3-1.6L154.4,21.4z M161.6,29.1c2.9,0,4.3-1.3,4.3-3.5c0-2.3-1.5-3.5-4.4-3.5h-4.1v7
				L161.6,29.1z"/>
			<path id="_Compound_Path_45" class="st5" d="M172.4,21.4c-0.1-0.9,0.6-1.7,1.5-1.8c0.1,0,0.1,0,0.2,0h11.5c1,0,1.5,0.5,1.5,1.3
				v0.2c0,0.9-0.5,1.3-1.5,1.3h-10v5.5h7.7c1,0,1.5,0.4,1.5,1.2v0.1c0,0.9-0.5,1.3-1.5,1.3h-7.7v6h10.2c1,0,1.4,0.4,1.4,1.2V38
				c0,0.9-0.5,1.4-1.4,1.4H174c-0.9,0-1.6-0.6-1.7-1.5c0-0.1,0-0.1,0-0.2L172.4,21.4z"/>
			<path id="_Compound_Path_46" class="st5" d="M190.3,21.4c-0.1-0.9,0.6-1.7,1.5-1.8c0.1,0,0.1,0,0.2,0h11.5c1,0,1.5,0.5,1.5,1.3
				v0.2c0,0.9-0.5,1.3-1.5,1.3h-10v5.5h7.7c1,0,1.5,0.4,1.5,1.2v0.1c0,0.9-0.5,1.3-1.5,1.3h-7.7v6h10.2c1,0,1.4,0.4,1.4,1.2V38
				c0,0.9-0.5,1.4-1.4,1.4H192c-0.9,0-1.6-0.6-1.7-1.5c0-0.1,0-0.1,0-0.2L190.3,21.4z"/>
			<path id="_Compound_Path_47" class="st5" d="M137.8,46.2c-0.1-0.6,0.4-1.1,1-1.2c0.1,0,0.1,0,0.2,0h3.4c3.3,0,5.2,1.5,5.2,4.2
				s-1.8,4.3-5.3,4.3h-2.4v3.9c0.1,0.5-0.3,0.9-0.7,1c-0.1,0-0.1,0-0.2,0h-0.3c-0.6,0-0.9-0.3-0.9-1L137.8,46.2z M142.3,51.8
				c2,0,3.1-0.9,3.1-2.5s-1.1-2.5-3.1-2.5h-2.4v5.1L142.3,51.8z"/>
			<path id="_Compound_Path_48" class="st5" d="M155.7,44.8c3.6-0.1,6.6,2.7,6.7,6.3c0,0.2,0,0.4,0,0.6c0,3.7-3,6.8-6.8,6.8
				s-6.8-3-6.8-6.8c-0.2-3.6,2.6-6.7,6.3-6.9C155.4,44.8,155.6,44.8,155.7,44.8z M155.7,56.8c2.7,0,4.6-2.1,4.6-5s-1.9-5.1-4.6-5.1
				s-4.6,2.1-4.6,5S153,56.7,155.7,56.8L155.7,56.8z"/>
			<path id="_Compound_Path_49" class="st5" d="M163.6,45.5c0.3-0.4,0.8-0.7,1.3-0.6c0.6,0,1,0.3,1.2,1.2l2.2,9.8l2.5-8.4
				c0.1-0.7,0.7-1.1,1.4-1c0.7-0.1,1.3,0.4,1.4,1L176,56l2.2-9.8c0.2-0.9,0.6-1.2,1.2-1.2c0.8,0,1.2,0.5,1.2,0.6l-3.1,12.1
				c-0.1,0.6-0.5,0.8-1.4,0.8s-1.2-0.2-1.4-0.9l-2.5-8.7l-2.7,8.6c-0.2,0.6-0.5,0.9-1.3,0.9s-1.3-0.2-1.4-0.8L163.6,45.5z"/>
			<path id="_Compound_Path_50" class="st5" d="M183,46.2c-0.1-0.6,0.4-1.1,1-1.2c0,0,0.1,0,0.1,0h7.7c0.7,0,1,0.3,1,0.9V46
				c0,0.6-0.3,0.9-1,0.9h-6.7v3.7h5.2c0.7,0,1,0.3,1,0.8v0.1c0,0.6-0.3,0.9-1,0.9h-5.2v4h6.9c0.7,0,1,0.3,1,0.8v0.1
				c0,0.6-0.3,0.9-1,0.9h-7.9c-0.6,0-1.1-0.4-1.1-1c0,0,0-0.1,0-0.1V46.2z"/>
			<path id="_Compound_Path_51" class="st5" d="M195.1,46.2c-0.1-0.6,0.4-1.1,1-1.2c0,0,0.1,0,0.1,0h3.8c3.3,0,5,1.4,5,4
				c0,2.3-1.4,3.7-4,3.9l3.9,4.6c0.1,0.1-0.4,0.9-1.2,0.9c-0.6,0-1.1-0.3-1.4-0.8l-3.6-4.5h-1.5v4.3c0.1,0.5-0.3,0.9-0.7,1
				c-0.1,0-0.1,0-0.2,0H196c-0.6,0-0.9-0.4-0.9-1.1L195.1,46.2z M200,51.5c2,0,2.9-0.9,2.9-2.3s-1-2.3-2.9-2.3h-2.7v4.7L200,51.5z"
				/>
		</g>
	</g>
</g>
</svg>
