<svg class="free-power-150" xmlns="http://www.w3.org/2000/svg" viewBox="0 0 253.05 53.3"><title>$150 Free Power</title><g class="shadow"><path d="M6.2 33.52a18.46 18.46 0 0 0 10.94 4.11c3.39 0 4.93-1 4.93-2.8 0-2.08-2.79-2.62-6.3-3.39-4.88-1-12.31-3-12.31-11.24 0-5.94 3.69-10 10.11-11.36v-1.3c.04-3.63 1.38-5.58 4.65-5.58h.3c3.39 0 4.64 1.79 4.64 5.53v1c6.36.77 9.63 3.33 9.63 7 0 3.27-3.57 5.83-3.81 5.59a15.44 15.44 0 0 0-9.81-4c-3.27 0-4.76 1-4.76 2.79 0 2 2.79 2.5 6.54 3.33 5.06 1.05 12.66 3.25 12.66 11.1 0 6.24-3.69 10.29-10.52 11.6v1.49c.01 3.57-1.36 5.57-4.63 5.57h-.3c-3.39 0-4.64-1.78-4.64-5.53v-1.24c-7.08-.77-10.91-3.57-10.91-7.37 0-3.09 3.36-5.59 3.59-5.3zM48.94 20.85a8.32 8.32 0 0 1-3.5.82 7.25 7.25 0 0 1-7.52-7.44c0-5 3.35-7.07 3.87-6.85a8.14 8.14 0 0 0 4.69 1.49 6.74 6.74 0 0 0 6.7-5.43h3.87c4.24 0 6.55 2.31 6.55 6.92v35.6c.01 4.59-2.31 7-6.55 7h-1.87c-4.09 0-6.25-2.38-6.25-6.92V20.85zM72.81 37.15a17.84 17.84 0 0 0 13 5.58c5.13 0 8.11-2.16 8.11-5.8s-2.61-5.73-8.11-5.73a13.68 13.68 0 0 0-8.41 2.53c-5.51-.07-8.63-2.3-8.63-8.34v-13c0-5.36 1.93-8.26 7-8.26h22.25c4.84 0 7.14 1.78 7.14 5.73v.37c0 3.94-2.23 5.66-7.14 5.66h-17.1v7.14a23.68 23.68 0 0 1 7.44-1.19c11.24 0 18.45 5.66 18.45 15.33S99.01 53.3 86.2 53.3c-12.28 0-18.9-4.61-18.9-9.38 0-3.96 5.06-7.14 5.51-6.77zM110.66 25.84c0-13.92 8.34-22.77 22.33-22.77s22.25 8.78 22.25 22.77v4.61c0 14-8.34 22.85-22.25 22.85s-22.33-8.78-22.33-22.85v-4.61zm22.33 15.48c4.84 0 7.29-3.2 7.29-9.53V24.5c0-6.4-2.46-9.68-7.29-9.68s-7.38 3.14-7.38 9.68v7.22c0 6.47 2.46 9.6 7.38 9.6z"/></g><g class="number"><path d="M3.61 31.75a18.6 18.6 0 0 0 11 4.14c3.42 0 5-1 5-2.82 0-2.1-2.81-2.64-6.35-3.42-4.91-1-12.4-3.05-12.4-11.32 0-6 3.72-10.06 10.19-11.44V5.57C11.02 1.96 12.4-.04 15.7-.04h.3c3.42 0 4.67 1.8 4.67 5.57v1c6.41.78 9.71 3.35 9.71 7 0 3.3-3.59 5.87-3.83 5.63a15.55 15.55 0 0 0-9.89-4c-3.3 0-4.79 1-4.79 2.81 0 2 2.81 2.52 6.59 3.36 5.09 1 12.76 3.23 12.76 11.14 0 6.29-3.71 10.37-10.6 11.68v1.5c0 3.66-1.38 5.57-4.67 5.57h-.34c-3.41 0-4.67-1.8-4.67-5.57v-1.2c-7.13-.78-11-3.59-11-7.43.06-3.06 3.41-5.57 3.67-5.27zM45.77 18.16a8.32 8.32 0 0 1-3.5.82 7.25 7.25 0 0 1-7.52-7.44c0-5 3.35-7.07 3.87-6.85a8.14 8.14 0 0 0 4.69 1.49 6.74 6.74 0 0 0 6.7-5.43h3.87c4.24 0 6.55 2.31 6.55 6.92v35.65c0 4.54-2.31 6.92-6.55 6.92h-1.86c-4.09 0-6.25-2.38-6.25-6.92V18.16zM69.61 34.46a17.84 17.84 0 0 0 13 5.58c5.13 0 8.11-2.16 8.11-5.8s-2.61-5.73-8.11-5.73a13.68 13.68 0 0 0-8.41 2.53c-5.45-.08-8.59-2.31-8.59-8.34v-13c0-5.36 1.93-8.26 7-8.26h22.25c4.84 0 7.14 1.78 7.14 5.73v.37c0 3.94-2.23 5.66-7.14 5.66H77.75v7.14a23.68 23.68 0 0 1 7.44-1.19c11.24 0 18.45 5.66 18.45 15.33s-7.81 16.15-20.61 16.15c-12.28 0-18.9-4.61-18.9-9.38.01-3.96 5.07-7.16 5.48-6.79zM129.82.38c-14 0-22.54 8.86-22.54 22.77v4.61c0 14.06 8.47 22.85 22.54 22.85s22.46-8.86 22.46-22.85v-4.61c0-14-8.47-22.77-22.46-22.77zm8.46 28.73c0 6.33-4.13 9.53-9 9.53s-9-3.13-9-9.6v-7.23c0-6.55 4.05-9.68 9-9.68s9 3.27 9 9.68v7.29z"/></g><g class="shadow"><path d="M168.48 6.07a2 2 0 0 1 2.13-2.23h13.4c1.23 0 1.84.58 1.84 1.61v.23a1.56 1.56 0 0 1-1.84 1.65h-11.6v7.91h8.6c1.27 0 1.84.58 1.84 1.58v.14q0 1.61-1.84 1.61h-8.53v8.45a1.57 1.57 0 0 1-1.73 1.81h-.61c-1.08 0-1.65-.73-1.65-2.07V6.07zM189.33 6.07a2 2 0 0 1 2.11-2.23h7.07c6.07 0 9.29 2.53 9.29 7.45 0 4.22-2.61 6.91-7.41 7.3l7.22 8.64c.19.23-.65 1.61-2.3 1.61a3 3 0 0 1-2.57-1.54l-6.76-8.34h-2.73v8.06a1.62 1.62 0 0 1-1.73 1.81h-.54c-1.08 0-1.65-.73-1.65-2V6.07zm9.1 9.79c3.65 0 5.38-1.69 5.38-4.38 0-2.88-1.84-4.38-5.49-4.38h-5.11v8.76h5.22zM211.95 6.07a2 2 0 0 1 2.11-2.23h14.4a1.58 1.58 0 0 1 1.84 1.65v.23a1.56 1.56 0 0 1-1.84 1.65h-12.55v7h9.7c1.27 0 1.84.54 1.84 1.58v.12a1.56 1.56 0 0 1-1.84 1.6h-9.7v7.53h12.79c1.23 0 1.81.54 1.81 1.58v.18a1.57 1.57 0 0 1-1.81 1.73h-14.63a2 2 0 0 1-2.11-2.19V6.07zM234.5 6.07a2 2 0 0 1 2.11-2.23h14.4a1.58 1.58 0 0 1 1.84 1.65v.23a1.56 1.56 0 0 1-1.84 1.65h-12.56v7h9.72c1.27 0 1.84.54 1.84 1.58v.12a1.56 1.56 0 0 1-1.84 1.65h-9.72v7.53h12.79c1.23 0 1.81.54 1.81 1.58v.13a1.57 1.57 0 0 1-1.81 1.73h-14.63a2 2 0 0 1-2.11-2.19V6.07zM168.48 37.31a1.38 1.38 0 0 1 1.42-1.5h4.33c4.14 0 6.5 1.89 6.5 5.34s-2.28 5.39-6.61 5.39h-3v4.92a1.09 1.09 0 0 1-1.17 1.22h-.34a1 1 0 0 1-1.11-1.22V37.31zm5.7 7.07c2.56 0 3.89-1.11 3.89-3.19s-1.33-3.23-3.87-3.23h-3.08v6.37h3.06zM191.04 35.47c5 0 8.47 3.58 8.47 8.7s-3.52 8.73-8.5 8.73-8.47-3.57-8.47-8.68 3.55-8.75 8.5-8.75zm0 15.08c3.39 0 5.78-2.59 5.78-6.32s-2.41-6.4-5.8-6.4-5.78 2.59-5.78 6.35 2.37 6.36 5.8 6.36zM200.88 36.45a1.66 1.66 0 0 1 1.58-.75 1.62 1.62 0 0 1 1.55 1.55l2.72 12.33 3.19-10.54a1.56 1.56 0 0 1 1.76-1.22 1.59 1.59 0 0 1 1.76 1.22l3.17 10.49 2.77-12.3c.23-1.09.73-1.53 1.48-1.53a1.52 1.52 0 0 1 1.5.75l-3.86 15.23c-.18.78-.67 1.06-1.81 1.06a1.48 1.48 0 0 1-1.74-1.09l-3.24-10.83-3.42 10.84a1.41 1.41 0 0 1-1.68 1.09c-1.14 0-1.63-.26-1.81-1.06zM225.38 37.31a1.38 1.38 0 0 1 1.42-1.5h9.71a1.06 1.06 0 0 1 1.26 1.15v.15a1.05 1.05 0 0 1-1.24 1.11h-8.47v4.69h6.55a1 1 0 0 1 1.24 1.05v.08a1.05 1.05 0 0 1-1.24 1.09h-6.55v5.08h8.63a1 1 0 0 1 1.22 1.06v.13a1.06 1.06 0 0 1-1.22 1.17h-9.88a1.36 1.36 0 0 1-1.42-1.48V37.31zM240.61 37.31a1.38 1.38 0 0 1 1.42-1.5h4.77c4.09 0 6.27 1.71 6.27 5 0 2.85-1.76 4.66-5 4.92l4.9 5.83a1.44 1.44 0 0 1-1.55 1.09 2 2 0 0 1-1.74-1l-4.58-5.62h-1.84v5.44a1.09 1.09 0 0 1-1.17 1.22h-.36a1.14 1.14 0 0 1-1.12-1.4v-14zm6.14 6.6c2.46 0 3.63-1.14 3.63-3s-1.24-3-3.7-3h-3.44v6.05h3.52z"/></g><g class="free-power"><path d="M166.43 4.02a2 2 0 0 1 2.11-2.23h13.4c1.23 0 1.84.58 1.84 1.61v.23a1.56 1.56 0 0 1-1.84 1.65h-11.6v7.91h8.6c1.27 0 1.84.58 1.84 1.58v.19q0 1.61-1.84 1.61h-8.53v8.39a1.57 1.57 0 0 1-1.73 1.81h-.61c-1.08 0-1.65-.73-1.65-2.07V4.02zM187.29 4.02a2 2 0 0 1 2.11-2.23h7.07c6.07 0 9.29 2.53 9.29 7.45 0 4.22-2.61 6.91-7.41 7.3l7.26 8.64c.19.23-.65 1.61-2.3 1.61a3 3 0 0 1-2.57-1.54l-6.81-8.29h-2.72v8a1.62 1.62 0 0 1-1.73 1.81h-.54c-1.08 0-1.65-.73-1.65-2V4.02zm9.1 9.79c3.65 0 5.38-1.69 5.38-4.38 0-2.88-1.84-4.38-5.49-4.38h-5.11v8.76h5.22zM209.91 4.02a2 2 0 0 1 2.11-2.23h14.4a1.58 1.58 0 0 1 1.84 1.65v.23a1.56 1.56 0 0 1-1.84 1.65h-12.56v7h9.75c1.27 0 1.84.54 1.84 1.58v.06a1.56 1.56 0 0 1-1.84 1.66h-9.72v7.53h12.72c1.23 0 1.81.54 1.81 1.58v.23a1.57 1.57 0 0 1-1.81 1.68h-14.59a2 2 0 0 1-2.11-2.19V4.02zM232.45 4.02a2 2 0 0 1 2.16-2.22h14.4a1.58 1.58 0 0 1 1.84 1.65v.23a1.56 1.56 0 0 1-1.84 1.65h-12.6v7h9.72c1.27 0 1.84.54 1.84 1.58v.05a1.56 1.56 0 0 1-1.84 1.65h-9.72v7.53h12.79c1.23 0 1.81.54 1.81 1.58v.24a1.57 1.57 0 0 1-1.81 1.73h-14.59a2 2 0 0 1-2.11-2.19V4.02zM166.43 35.26a1.38 1.38 0 0 1 1.42-1.5h4.33c4.14 0 6.5 1.89 6.5 5.34s-2.28 5.39-6.61 5.39h-3v4.92a1.09 1.09 0 0 1-1.17 1.22h-.39a1 1 0 0 1-1.11-1.22V35.26zm5.7 7.07c2.56 0 3.89-1.11 3.89-3.19s-1.32-3.18-3.86-3.18h-3.08v6.37h3.06zM188.99 33.42c5 0 8.47 3.58 8.47 8.7s-3.52 8.73-8.5 8.73-8.47-3.57-8.47-8.68 3.56-8.75 8.5-8.75zm0 15.08c3.39 0 5.78-2.59 5.78-6.32s-2.41-6.4-5.8-6.4-5.78 2.59-5.78 6.35 2.42 6.37 5.8 6.37zM198.84 34.41a1.66 1.66 0 0 1 1.58-.75 1.62 1.62 0 0 1 1.55 1.55l2.72 12.33 3.19-10.58a1.56 1.56 0 0 1 1.73-1.18 1.59 1.59 0 0 1 1.79 1.18l3.13 10.49 2.77-12.3c.23-1.09.73-1.53 1.48-1.53a1.52 1.52 0 0 1 1.5.75l-3.86 15.23c-.18.78-.67 1.06-1.81 1.06a1.48 1.48 0 0 1-1.74-1.09l-3.26-10.79-3.39 10.83a1.41 1.41 0 0 1-1.68 1.09c-1.14 0-1.63-.26-1.81-1.06zM223.34 35.26a1.38 1.38 0 0 1 1.42-1.5h9.71a1.06 1.06 0 0 1 1.24 1.11v.15a1.05 1.05 0 0 1-1.24 1.11h-8.46v4.69h6.55a1 1 0 0 1 1.24 1.06v.08a1.05 1.05 0 0 1-1.24 1.11h-6.55v5.09h8.6a1 1 0 0 1 1.22 1.06v.13a1.06 1.06 0 0 1-1.22 1.17h-9.87a1.36 1.36 0 0 1-1.42-1.48V35.26zM238.54 35.26a1.38 1.38 0 0 1 1.42-1.5h4.77c4.09 0 6.27 1.71 6.27 5 0 2.85-1.76 4.66-5 4.92l4.9 5.83a1.44 1.44 0 0 1-1.55 1.09 2 2 0 0 1-1.74-1l-4.59-5.64h-1.84v5.44a1.09 1.09 0 0 1-1.17 1.22h-.4a1.14 1.14 0 0 1-1.11-1.37v-14zm6.14 6.6c2.46 0 3.63-1.14 3.63-3s-1.24-3-3.7-3h-3.44v5.91h3.52z"/></g></svg>