<svg class="free-power-150" xmlns="http://www.w3.org/2000/svg" viewBox="0 0 253.05 53.3">
  <title>$200 Free Power</title>
  <g class="shadow">
    <path d="M12.59,58.56a18.46,18.46,0,0,0,10.94,4.11c3.39,0,4.93-1,4.93-2.8,0-2.08-2.79-2.62-6.3-3.39-4.88-1-12.31-3-12.31-11.24,0-5.94,3.69-10,10.11-11.36V32.58C20,28.95,21.34,27,24.61,27h0.3c3.39,0,4.64,1.79,4.64,5.53v1c6.36,0.77,9.63,3.33,9.63,7,0,3.27-3.57,5.83-3.81,5.59a15.44,15.44,0,0,0-9.81-4c-3.27,0-4.76,1-4.76,2.79,0,2,2.79,2.5,6.54,3.33C32.4,49.29,40,51.49,40,59.34c0,6.24-3.69,10.29-10.52,11.6v1.49C29.49,76,28.12,78,24.85,78h-0.3c-3.39,0-4.64-1.78-4.64-5.53V71.23C12.83,70.46,9,67.66,9,63.86,9,60.77,12.36,58.27,12.59,58.56Z" transform="translate(-6.39 -25.04)"/>
    <path d="M55.33,45.89a8.32,8.32,0,0,1-3.5.82,7.25,7.25,0,0,1-7.52-7.44c0-5,3.35-7.07,3.87-6.85a8.14,8.14,0,0,0,4.69,1.49,6.74,6.74,0,0,0,6.7-5.43h3.87c4.24,0,6.55,2.31,6.55,6.92V71C70,75.59,67.68,78,63.44,78H61.57c-4.09,0-6.25-2.38-6.25-6.92V45.89Z" transform="translate(-6.39 -25.04)"/>
    <path d="M79.2,62.19a17.84,17.84,0,0,0,13,5.58c5.13,0,8.11-2.16,8.11-5.8s-2.61-5.73-8.11-5.73a13.68,13.68,0,0,0-8.41,2.53c-5.51-.07-8.63-2.3-8.63-8.34v-13c0-5.36,1.93-8.26,7-8.26h22.25c4.84,0,7.14,1.78,7.14,5.73v0.37c0,3.94-2.23,5.66-7.14,5.66H87.31v7.14a23.68,23.68,0,0,1,7.44-1.19c11.24,0,18.45,5.66,18.45,15.33S105.4,78.34,92.59,78.34c-12.28,0-18.9-4.61-18.9-9.38C73.69,65,78.75,61.82,79.2,62.19Z" transform="translate(-6.39 -25.04)"/>
    <path d="M117.05,50.88c0-13.92,8.34-22.77,22.33-22.77s22.25,8.78,22.25,22.77v4.61c0,14-8.34,22.85-22.25,22.85s-22.33-8.78-22.33-22.85V50.88Zm22.33,15.48c4.84,0,7.29-3.2,7.29-9.53V49.54c0-6.4-2.46-9.68-7.29-9.68S132,43,132,49.54v7.22C132,63.23,134.46,66.36,139.38,66.36Z" transform="translate(-6.39 -25.04)"/>
  </g>
  <g class="number">
    <path d="M10,56.79a18.6,18.6,0,0,0,11,4.14c3.42,0,5-1,5-2.82,0-2.1-2.81-2.64-6.35-3.42-4.91-1-12.4-3.05-12.4-11.32,0-6,3.72-10.06,10.19-11.44V30.61C17.41,27,18.79,25,22.09,25h0.3c3.42,0,4.67,1.8,4.67,5.57v1c6.41,0.78,9.71,3.35,9.71,7,0,3.3-3.59,5.87-3.83,5.63a15.55,15.55,0,0,0-9.89-4c-3.3,0-4.79,1-4.79,2.81,0,2,2.81,2.52,6.59,3.36,5.09,1,12.76,3.23,12.76,11.14,0,6.29-3.71,10.37-10.6,11.68v1.5c0,3.66-1.38,5.57-4.67,5.57H22c-3.41,0-4.67-1.8-4.67-5.57v-1.2c-7.13-.78-11-3.59-11-7.43C6.39,59,9.74,56.49,10,56.79Z" transform="translate(-6.39 -25.04)"/>
    <path d="M52.16,43.2a8.32,8.32,0,0,1-3.5.82,7.25,7.25,0,0,1-7.52-7.44c0-5,3.35-7.07,3.87-6.85a8.14,8.14,0,0,0,4.69,1.49,6.74,6.74,0,0,0,6.7-5.43h3.87c4.24,0,6.55,2.31,6.55,6.92V68.36c0,4.54-2.31,6.92-6.55,6.92H58.41c-4.09,0-6.25-2.38-6.25-6.92V43.2Z" transform="translate(-6.39 -25.04)"/>
    <path d="M76,59.5a17.84,17.84,0,0,0,13,5.58c5.13,0,8.11-2.16,8.11-5.8s-2.61-5.73-8.11-5.73a13.68,13.68,0,0,0-8.41,2.53C75.14,56,72,53.77,72,47.74v-13c0-5.36,1.93-8.26,7-8.26h22.25c4.84,0,7.14,1.78,7.14,5.73v0.37c0,3.94-2.23,5.66-7.14,5.66H84.14v7.14a23.68,23.68,0,0,1,7.44-1.19c11.24,0,18.45,5.66,18.45,15.33s-7.81,16.15-20.61,16.15c-12.28,0-18.9-4.61-18.9-9.38C70.53,62.33,75.59,59.13,76,59.5Z" transform="translate(-6.39 -25.04)"/>
    <path d="M136.21,25.42c-14,0-22.54,8.86-22.54,22.77V52.8c0,14.06,8.47,22.85,22.54,22.85s22.46-8.86,22.46-22.85V48.19C158.67,34.19,150.2,25.42,136.21,25.42Zm8.46,28.73c0,6.33-4.13,9.53-9,9.53s-9-3.13-9-9.6V46.85c0-6.55,4.05-9.68,9-9.68s9,3.27,9,9.68v7.29Z" transform="translate(-6.39 -25.04)"/>
  </g>
  <g class="shadow">
    <path d="M174.87,31.11A2,2,0,0,1,177,28.88h13.4c1.23,0,1.84.58,1.84,1.61v0.23a1.56,1.56,0,0,1-1.84,1.65h-11.6v7.91h8.6c1.27,0,1.84.58,1.84,1.58V42q0,1.61-1.84,1.61h-8.53v8.45a1.57,1.57,0,0,1-1.73,1.81h-0.61c-1.08,0-1.65-.73-1.65-2.07V31.11Z" transform="translate(-6.39 -25.04)"/>
    <path d="M195.72,31.11a2,2,0,0,1,2.11-2.23h7.07c6.07,0,9.29,2.53,9.29,7.45,0,4.22-2.61,6.91-7.41,7.3L214,52.27c0.19,0.23-.65,1.61-2.3,1.61a3,3,0,0,1-2.57-1.54L202.37,44h-2.73v8.06a1.62,1.62,0,0,1-1.73,1.81h-0.54c-1.08,0-1.65-.73-1.65-2V31.11Zm9.1,9.79c3.65,0,5.38-1.69,5.38-4.38,0-2.88-1.84-4.38-5.49-4.38H199.6V40.9h5.22Z" transform="translate(-6.39 -25.04)"/>
    <path d="M218.34,31.11a2,2,0,0,1,2.11-2.23h14.4a1.58,1.58,0,0,1,1.84,1.65v0.23a1.56,1.56,0,0,1-1.84,1.65H222.3v7H232c1.27,0,1.84.54,1.84,1.58v0.12A1.56,1.56,0,0,1,232,42.71H222.3v7.53h12.79c1.23,0,1.81.54,1.81,1.58V52a1.57,1.57,0,0,1-1.81,1.73H220.46a2,2,0,0,1-2.11-2.19V31.11Z" transform="translate(-6.39 -25.04)"/>
    <path d="M240.89,31.11A2,2,0,0,1,243,28.88h14.4a1.58,1.58,0,0,1,1.84,1.65v0.23a1.56,1.56,0,0,1-1.84,1.65H244.84v7h9.72c1.27,0,1.84.54,1.84,1.58v0.12a1.56,1.56,0,0,1-1.84,1.65h-9.72v7.53h12.79c1.23,0,1.81.54,1.81,1.58V52a1.57,1.57,0,0,1-1.81,1.73H243a2,2,0,0,1-2.11-2.19V31.11Z" transform="translate(-6.39 -25.04)"/>
    <path d="M174.87,62.35a1.38,1.38,0,0,1,1.42-1.5h4.33c4.14,0,6.5,1.89,6.5,5.34s-2.28,5.39-6.61,5.39h-3v4.92a1.09,1.09,0,0,1-1.17,1.22H176a1,1,0,0,1-1.11-1.22V62.35Zm5.7,7.07c2.56,0,3.89-1.11,3.89-3.19S183.13,63,180.59,63h-3.08v6.37h3.06Z" transform="translate(-6.39 -25.04)"/>
    <path d="M197.43,60.51c5,0,8.47,3.58,8.47,8.7s-3.52,8.73-8.5,8.73-8.47-3.57-8.47-8.68S192.48,60.51,197.43,60.51Zm0,15.08c3.39,0,5.78-2.59,5.78-6.32s-2.41-6.4-5.8-6.4-5.78,2.59-5.78,6.35S194,75.58,197.43,75.58Z" transform="translate(-6.39 -25.04)"/>
    <path d="M207.27,61.49a1.66,1.66,0,0,1,1.58-.75,1.62,1.62,0,0,1,1.55,1.55l2.72,12.33,3.19-10.54a1.56,1.56,0,0,1,1.76-1.22,1.59,1.59,0,0,1,1.76,1.22L223,74.57l2.77-12.3c0.23-1.09.73-1.53,1.48-1.53a1.52,1.52,0,0,1,1.5.75l-3.86,15.23c-0.18.78-.67,1.06-1.81,1.06a1.48,1.48,0,0,1-1.74-1.09l-3.24-10.83L214.68,76.7A1.41,1.41,0,0,1,213,77.79c-1.14,0-1.63-.26-1.81-1.06Z" transform="translate(-6.39 -25.04)"/>
    <path d="M231.77,62.35a1.38,1.38,0,0,1,1.42-1.5h9.71A1.06,1.06,0,0,1,244.16,62v0.15a1.05,1.05,0,0,1-1.24,1.11h-8.47v4.69H241A1,1,0,0,1,242.24,69v0.08A1.05,1.05,0,0,1,241,70.17h-6.55v5.08h8.63a1,1,0,0,1,1.22,1.06v0.13a1.06,1.06,0,0,1-1.22,1.17H233.2a1.36,1.36,0,0,1-1.42-1.48V62.35Z" transform="translate(-6.39 -25.04)"/>
    <path d="M247,62.35a1.38,1.38,0,0,1,1.42-1.5h4.77c4.09,0,6.27,1.71,6.27,5,0,2.85-1.76,4.66-5,4.92l4.9,5.83a1.44,1.44,0,0,1-1.55,1.09,2,2,0,0,1-1.74-1l-4.58-5.62h-1.84v5.44a1.09,1.09,0,0,1-1.17,1.22h-0.36A1.14,1.14,0,0,1,247,76.33v-14Zm6.14,6.6c2.46,0,3.63-1.14,3.63-3s-1.24-3-3.7-3h-3.44V69h3.52Z" transform="translate(-6.39 -25.04)"/>
  </g>
  <g class="free-power">
    <path d="M172.82,29.06a2,2,0,0,1,2.11-2.23h13.4c1.23,0,1.84.58,1.84,1.61v0.23a1.56,1.56,0,0,1-1.84,1.65h-11.6v7.91h8.6c1.27,0,1.84.58,1.84,1.58V40q0,1.61-1.84,1.61h-8.53V50a1.57,1.57,0,0,1-1.73,1.81h-0.61c-1.08,0-1.65-.73-1.65-2.07V29.06Z" transform="translate(-6.39 -25.04)"/>
    <path d="M193.68,29.06a2,2,0,0,1,2.11-2.23h7.07c6.07,0,9.29,2.53,9.29,7.45,0,4.22-2.61,6.91-7.41,7.3L212,50.22c0.19,0.23-.65,1.61-2.3,1.61a3,3,0,0,1-2.57-1.54L200.32,42H197.6V50a1.62,1.62,0,0,1-1.73,1.81h-0.54c-1.08,0-1.65-.73-1.65-2V29.06Zm9.1,9.79c3.65,0,5.38-1.69,5.38-4.38,0-2.88-1.84-4.38-5.49-4.38h-5.11v8.76h5.22Z" transform="translate(-6.39 -25.04)"/>
    <path d="M216.3,29.06a2,2,0,0,1,2.11-2.23h14.4a1.58,1.58,0,0,1,1.84,1.65v0.23a1.56,1.56,0,0,1-1.84,1.65H220.25v7H230c1.27,0,1.84.54,1.84,1.58V39A1.56,1.56,0,0,1,230,40.66h-9.72v7.53H233c1.23,0,1.81.54,1.81,1.58V50A1.57,1.57,0,0,1,233,51.68H218.41a2,2,0,0,1-2.11-2.19V29.06Z" transform="translate(-6.39 -25.04)"/>
    <path d="M238.84,29.06A2,2,0,0,1,241,26.84h14.4a1.58,1.58,0,0,1,1.84,1.65v0.23a1.56,1.56,0,0,1-1.84,1.65H242.8v7h9.72c1.27,0,1.84.54,1.84,1.58V39a1.56,1.56,0,0,1-1.84,1.65H242.8v7.53h12.79c1.23,0,1.81.54,1.81,1.58V50a1.57,1.57,0,0,1-1.81,1.73H241a2,2,0,0,1-2.11-2.19V29.06Z" transform="translate(-6.39 -25.04)"/>
    <path d="M172.82,60.3a1.38,1.38,0,0,1,1.42-1.5h4.33c4.14,0,6.5,1.89,6.5,5.34s-2.28,5.39-6.61,5.39h-3v4.92a1.09,1.09,0,0,1-1.17,1.22h-0.39a1,1,0,0,1-1.11-1.22V60.3Zm5.7,7.07c2.56,0,3.89-1.11,3.89-3.19S181.09,61,178.55,61h-3.08v6.37h3.06Z" transform="translate(-6.39 -25.04)"/>
    <path d="M195.38,58.46c5,0,8.47,3.58,8.47,8.7s-3.52,8.73-8.5,8.73-8.47-3.57-8.47-8.68S190.44,58.46,195.38,58.46Zm0,15.08c3.39,0,5.78-2.59,5.78-6.32s-2.41-6.4-5.8-6.4-5.78,2.59-5.78,6.35S192,73.54,195.38,73.54Z" transform="translate(-6.39 -25.04)"/>
    <path d="M205.23,59.45a1.66,1.66,0,0,1,1.58-.75,1.62,1.62,0,0,1,1.55,1.55l2.72,12.33L214.27,62A1.56,1.56,0,0,1,216,60.82,1.59,1.59,0,0,1,217.79,62l3.13,10.49,2.77-12.3c0.23-1.09.73-1.53,1.48-1.53a1.52,1.52,0,0,1,1.5.75l-3.86,15.23c-0.18.78-.67,1.06-1.81,1.06a1.48,1.48,0,0,1-1.74-1.09L216,63.82l-3.39,10.83a1.41,1.41,0,0,1-1.68,1.09c-1.14,0-1.63-.26-1.81-1.06Z" transform="translate(-6.39 -25.04)"/>
    <path d="M229.73,60.3a1.38,1.38,0,0,1,1.42-1.5h9.71a1.06,1.06,0,0,1,1.24,1.11v0.15a1.05,1.05,0,0,1-1.24,1.11H232.4v4.69h6.55a1,1,0,0,1,1.24,1.06V67a1.05,1.05,0,0,1-1.24,1.11H232.4V73.2H241a1,1,0,0,1,1.22,1.06v0.13A1.06,1.06,0,0,1,241,75.56h-9.87a1.36,1.36,0,0,1-1.42-1.48V60.3Z" transform="translate(-6.39 -25.04)"/>
    <path d="M244.93,60.3a1.38,1.38,0,0,1,1.42-1.5h4.77c4.09,0,6.27,1.71,6.27,5,0,2.85-1.76,4.66-5,4.92l4.9,5.83a1.44,1.44,0,0,1-1.55,1.09,2,2,0,0,1-1.74-1L249.41,69h-1.84v5.44a1.09,1.09,0,0,1-1.17,1.22H246a1.14,1.14,0,0,1-1.11-1.37v-14Zm6.14,6.6c2.46,0,3.63-1.14,3.63-3s-1.24-3-3.7-3h-3.44v5.91h3.52Z" transform="translate(-6.39 -25.04)"/>
  </g>
</svg>
