<svg class="green-beard" xmlns="http://www.w3.org/2000/svg" viewBox="0 0 644.18 591.45">
  <defs>
    <style>
      .cls-1 {
        fill: #fff;
      }

      .cls-2 {
        fill: #fa0e6a;
      }

      .cls-3 {
        fill: #a0175f;
      }

      .cls-4 {
        fill: none;
      }

      .cls-5 {
        fill: #f1eae6;
      }

      .cls-6 {
        fill: #d0d2d3;
      }

      .cls-7 {
        fill: #bbbdbf;
      }

      .cls-8 {
        fill: #353435;
      }

      .cls-9 {
        fill: #e6e7e8;
      }

      .cls-10 {
        fill: #eadbd2;
      }

      .cls-11 {
        fill: #56474d;
      }

      .cls-12 {
        fill: #ed1e79;
      }

      .cls-13 {
        fill: #9e005d;
      }

      .cls-14 {
        fill: #00b08a;
      }

      .cls-15 {
        fill: #009a7a;
      }

      .cls-16 {
        fill: #ddcbc1;
      }

      .cls-17 {
        fill: #968080;
      }
    </style>
  </defs>
  <title>green-beard</title>
  <g id="money">
    <path class="cls-1" d="M27.86,9.08C28,9.4,28.15,9.37,28.1,9L27.88,7.44q-0.35.22-.72,0.41Z"/>
    <path class="cls-2" d="M162.93,188.13L208.49,170l-0.72-24.32-45.56,18.12Zm22.86-30.62a7.23,7.23,0,0,1,2.48-.53l0.79-1.34c0.31-.53.43-0.48,0.27,0.11L189,157c2.88,0.28,5,2.73,5.07,6.49a13.9,13.9,0,0,1-6.56,11.78l-0.14.43a2.67,2.67,0,0,1-1.37,1.47l-3.5,1.39c-0.57.23-.87-0.06-0.67-0.64l0.59-1.68c-2.51-.58-4.27-2.92-4.38-6.38C177.9,164.81,181.37,159.28,185.79,157.52Z"/>
    <path class="cls-3" d="M187.78,164.94l2.41-1c0.57-.23.88,0.07,0.7,0.65l-3.37,10.64a13.9,13.9,0,0,0,6.56-11.78c-0.11-3.77-2.19-6.21-5.07-6.49l-2,7.27C186.87,164.87,187.21,165.17,187.78,164.94Z"/>
    <path class="cls-3" d="M182.43,176.25l1.89-5.38c0.2-.58-0.1-0.87-0.67-0.64l-3.09,1.23c-0.57.23-.78,0-0.47-0.55L188.28,157a7.23,7.23,0,0,0-2.48.53c-4.42,1.76-7.89,7.29-7.74,12.36C178.15,173.33,179.92,175.67,182.43,176.25Z"/>
    <path class="cls-1" d="M189.34,155.75c0.16-.59,0-0.64-0.27-0.11L188.28,157a5.85,5.85,0,0,1,.72,0Z"/>
    <path class="cls-1" d="M182.43,176.25l-0.59,1.68c-0.2.58,0.1,0.87,0.67,0.64l3.5-1.39a2.67,2.67,0,0,0,1.37-1.47l0.14-.43a9.43,9.43,0,0,1-1.18.58A6.54,6.54,0,0,1,182.43,176.25Z"/>
    <path class="cls-1" d="M180.57,171.46l3.09-1.23c0.57-.23.87,0.06,0.67,0.64l-1.89,5.38a6.54,6.54,0,0,0,3.91-.4,9.43,9.43,0,0,0,1.18-.58l3.37-10.64c0.19-.58-0.13-0.88-0.7-0.65l-2.41,1c-0.57.23-.9-0.07-0.74-0.66l2-7.27a5.85,5.85,0,0,0-.72,0l-8.18,13.93C179.78,171.44,180,171.69,180.57,171.46Z"/>
    <path class="cls-2" d="M91.7,507.75l19.94,19.85,46.48-18.09-19.94-19.85Zm40,8.6a9.92,9.92,0,0,1-2.89.61v1.22c0,0.42-.15.46-0.33,0.1L127.78,517A17.77,17.77,0,0,1,116,512.05c-3.77-3.76-3.86-8-.46-10.11l-0.24-.57a0.69,0.69,0,0,1,.34-0.93l4.42-1.72a0.71,0.71,0,0,1,.89.46l0.59,1.6a17.89,17.89,0,0,1,10.8,4.91C136.46,509.82,136.16,514.6,131.65,516.35Z"/>
    <path class="cls-3" d="M121.5,500.78l1.75,4.72a0.71,0.71,0,0,0,.89.46l4-1.56a0.46,0.46,0,0,1,.63.52l0,12a9.92,9.92,0,0,0,2.89-.61c4.51-1.76,4.81-6.53.66-10.67A17.89,17.89,0,0,0,121.5,500.78Z"/>
    <path class="cls-3" d="M123.64,510.26l-3.3,1.29a0.75,0.75,0,0,1-.93-0.44l-3.91-9.16c-3.4,2.07-3.31,6.35.46,10.11A17.77,17.77,0,0,0,127.78,517l-3.17-6.33A0.8,0.8,0,0,0,123.64,510.26Z"/>
    <path class="cls-1" d="M127.78,517l0.65,1.29c0.18,0.36.33,0.32,0.33-.1V517Q128.28,517,127.78,517Z"/>
    <path class="cls-1" d="M121.5,500.78l-0.59-1.6a0.71,0.71,0,0,0-.89-0.46l-4.42,1.72a0.69,0.69,0,0,0-.34.93l0.24,0.57a7.05,7.05,0,0,1,1.12-.56A11.18,11.18,0,0,1,121.5,500.78Z"/>
    <path class="cls-1" d="M128.15,504.4l-4,1.56a0.71,0.71,0,0,1-.89-0.46l-1.75-4.72a11.18,11.18,0,0,0-4.89.6,7.05,7.05,0,0,0-1.12.56l3.91,9.16a0.75,0.75,0,0,0,.93.44l3.3-1.29a0.8,0.8,0,0,1,1,.42l3.17,6.33q0.5,0,1,0l0-12A0.46,0.46,0,0,0,128.15,504.4Z"/>
    <path class="cls-2" d="M110.78,393.45l-5-12.74L79.07,358.88l5,12.74Zm-18.85-23v-0.2c0-.13.18-0.1,0.38,0.06l2.54,2.08a0.77,0.77,0,0,1,.33.52l-0.09.51a23.76,23.76,0,0,1,4.09,6.18c1.05,2.65-.2,3.08-2.79,1a19.89,19.89,0,0,1-1.53-1.42l-0.29.15c-0.1.05-.18,0-0.18-0.16v-0.49A24.54,24.54,0,0,1,89.81,372C88.85,369.54,89.8,369,91.93,370.48Z"/>
    <path class="cls-3" d="M94.38,378.67l-0.07-2.41a1,1,0,0,0-.37-0.55L92,374.15a0.87,0.87,0,0,1-.35-0.53l0.23-3.14c-2.12-1.51-3.07-.94-2.12,1.47A24.54,24.54,0,0,0,94.38,378.67Z"/>
    <path class="cls-3" d="M95.18,375.44l2.3,1.88c0.2,0.16.28,0.34,0.19,0.39l-2.79,1.46a19.89,19.89,0,0,0,1.53,1.42c2.59,2.12,3.84,1.69,2.79-1a23.76,23.76,0,0,0-4.09-6.18l-0.25,1.47A0.77,0.77,0,0,0,95.18,375.44Z"/>
    <path class="cls-1" d="M95.1,373.46l0.09-.51a0.77,0.77,0,0,0-.33-0.52l-2.54-2.08c-0.2-.16-0.37-0.19-0.38-0.06v0.2c0.21,0.15.43,0.32,0.67,0.51A22.43,22.43,0,0,1,95.1,373.46Z"/>
    <path class="cls-1" d="M94.39,379.16c0,0.14.09,0.21,0.18,0.16l0.29-.15-0.49-.5v0.49Z"/>
    <path class="cls-1" d="M92,374.15l1.89,1.55a1,1,0,0,1,.37.55l0.07,2.41,0.49,0.5,2.79-1.46c0.1-.05,0-0.23-0.19-0.39l-2.3-1.88a0.77,0.77,0,0,1-.33-0.52l0.25-1.47a22.43,22.43,0,0,0-2.5-2.47c-0.24-.19-0.46-0.36-0.67-0.51l-0.23,3.14A0.87,0.87,0,0,0,92,374.15Z"/>
    <path class="cls-2" d="M525.68,332.82L551.49,340l15.33-55.35L541,277.48Zm23.57-34.68a10.09,10.09,0,0,1,7.32,11l0.6,0.5a1.32,1.32,0,0,1,.39,1.26l-1.46,5.26a0.44,0.44,0,0,1-.79.23l-1.54-1.41a10.1,10.1,0,0,1-15.64-12.63l-1-1.56c-0.23-.37-0.13-0.45.22-0.2l1.32,1A10.1,10.1,0,0,1,549.25,298.15Z"/>
    <path class="cls-3" d="M548.57,311.14l-1.32,4.76c-0.11.41-.39,0.45-0.62,0.09l-8.5-13.68a10.1,10.1,0,0,0,15.64,12.63l-4.41-4A0.44,0.44,0,0,0,548.57,311.14Z"/>
    <path class="cls-3" d="M538.7,301.53l6.35,4.71a0.5,0.5,0,0,0,.84-0.29L547,302a0.47,0.47,0,0,1,.81-0.25l8.78,7.34A10.09,10.09,0,0,0,538.7,301.53Z"/>
    <path class="cls-1" d="M553.77,314.94l1.54,1.41a0.44,0.44,0,0,0,.79-0.23l1.46-5.26a1.32,1.32,0,0,0-.39-1.26l-0.6-.5A9.86,9.86,0,0,1,553.77,314.94Z"/>
    <path class="cls-1" d="M537.38,300.56c-0.35-.26-0.44-0.17-0.22.2l1,1.56q0.27-.4.57-0.78Z"/>
    <path class="cls-1" d="M547,302L545.89,306a0.5,0.5,0,0,1-.84.29l-6.35-4.71q-0.3.37-.57,0.78l8.5,13.68c0.23,0.37.51,0.33,0.62-.09l1.32-4.76a0.44,0.44,0,0,1,.79-0.23l4.41,4a9.86,9.86,0,0,0,2.8-5.84l-8.78-7.34A0.47,0.47,0,0,0,547,302Z"/>
    <path class="cls-2" d="M272.32,441.1l17.79,14.61,31.32-38.13L303.64,403Zm30.72-5.7a8.66,8.66,0,0,1-2,1.8l0.22,1.56c0.05,0.37-.06.4-0.24,0.08l-0.7-1.23a8.67,8.67,0,0,1-11.4-12.17l-0.3-.6a1.14,1.14,0,0,1,.13-1.12l3-3.63a0.38,0.38,0,0,1,.7.1l0.72,1.64A8.68,8.68,0,0,1,303,435.41Z"/>
    <path class="cls-3" d="M301.85,423.19a8.67,8.67,0,0,0-8.71-1.36l2.06,4.7a0.38,0.38,0,0,0,.7.1l2.7-3.28c0.23-.29.47-0.22,0.52,0.15L301,437.2A8.67,8.67,0,0,0,301.85,423.19Z"/>
    <path class="cls-3" d="M296.2,431.64L294,434.35a0.4,0.4,0,0,1-.72-0.08l-4.34-8.82a8.67,8.67,0,0,0,11.4,12.17L297,431.71A0.43,0.43,0,0,0,296.2,431.64Z"/>
    <path class="cls-1" d="M293.13,421.84l-0.72-1.64a0.38,0.38,0,0,0-.7-0.1l-3,3.63a1.14,1.14,0,0,0-.13,1.12l0.3,0.6A8.47,8.47,0,0,1,293.13,421.84Z"/>
    <path class="cls-1" d="M301,438.84c0.18,0.32.29,0.29,0.24-.08L301,437.2q-0.35.22-.72,0.41Z"/>
    <path class="cls-1" d="M298.59,423.35l-2.7,3.28a0.38,0.38,0,0,1-.7-0.1l-2.06-4.7a8.47,8.47,0,0,0-4.23,3.61l4.34,8.82a0.4,0.4,0,0,0,.72.08l2.22-2.71a0.43,0.43,0,0,1,.76.07l3.35,5.91q0.37-.19.72-0.41l-1.91-13.71C299.06,423.13,298.82,423.06,298.59,423.35Z"/>
    <path class="cls-2" d="M644.18,36.49L626.4,21.89,595.08,60l17.79,14.61Zm-32.82,7.27a1.14,1.14,0,0,1,.13-1.12l3-3.63a0.38,0.38,0,0,1,.7.1l0.72,1.64a8.67,8.67,0,0,1,7.89,15.37L624,57.68c0.05,0.37-.06.4-0.24,0.08l-0.7-1.23a8.67,8.67,0,0,1-11.4-12.17Z"/>
    <path class="cls-3" d="M618.65,45.55l2.7-3.28c0.23-.29.47-0.22,0.52,0.15l1.91,13.71a8.68,8.68,0,0,0-7.89-15.37l2.06,4.7A0.38,0.38,0,0,0,618.65,45.55Z"/>
    <path class="cls-3" d="M613.59,55.52a8.68,8.68,0,0,0,9.47,1l-3.35-5.91a0.43,0.43,0,0,0-.76-0.07l-2.22,2.71a0.4,0.4,0,0,1-.72-0.08l-4.34-8.82A8.67,8.67,0,0,0,613.59,55.52Z"/>
    <path class="cls-1" d="M623.76,57.76c0.18,0.32.29,0.29,0.24-.08l-0.22-1.56q-0.35.22-.72,0.41Z"/>
    <path class="cls-1" d="M615.89,40.76l-0.72-1.64a0.38,0.38,0,0,0-.7-0.1l-3,3.63a1.14,1.14,0,0,0-.13,1.12l0.3,0.6A8.47,8.47,0,0,1,615.89,40.76Z"/>
    <path class="cls-1" d="M616.73,53.27L619,50.56a0.43,0.43,0,0,1,.76.07l3.35,5.91q0.37-.19.72-0.41l-1.91-13.71c-0.05-.37-0.28-0.43-0.52-0.15l-2.7,3.28a0.38,0.38,0,0,1-.7-0.1l-2.06-4.7a8.47,8.47,0,0,0-4.23,3.61L616,53.19A0.4,0.4,0,0,0,616.73,53.27Z"/>
    <path class="cls-2" d="M634.34,166L611,158.61l-33.62,30.73,23.38,7.41Zm-38.67,10.16-0.39-.34a0.54,0.54,0,0,1,0-.82l3.2-2.92a0.68,0.68,0,0,1,.91,0l1,1a17.71,17.71,0,0,1,10.77-.35c4.87,1.54,6.17,5.21,2.9,8.2a10.32,10.32,0,0,1-2.26,1.53l0.39,0.91c0.14,0.31,0,.4-0.25.2l-1-.72a17.7,17.7,0,0,1-11.65.69C594.92,182.14,593.45,179,595.67,176.18Z"/>
    <path class="cls-3" d="M604.32,176l2.89-2.65a0.42,0.42,0,0,1,.7.15l3.89,9a10.32,10.32,0,0,0,2.26-1.53c3.27-3,2-6.65-2.9-8.2a17.71,17.71,0,0,0-10.77.35l3,2.87A0.68,0.68,0,0,0,604.32,176Z"/>
    <path class="cls-3" d="M611,182.85l-4.75-3.54a0.78,0.78,0,0,0-1,0l-2.39,2.18a0.72,0.72,0,0,1-.93,0l-6.29-5.38c-2.22,2.8-.76,6,3.67,7.36A17.7,17.7,0,0,0,611,182.85Z"/>
    <path class="cls-1" d="M600.4,173.08l-1-1a0.68,0.68,0,0,0-.91,0l-3.2,2.92a0.54,0.54,0,0,0,0,.82l0.39,0.34a7,7,0,0,1,.77-0.83A11.72,11.72,0,0,1,600.4,173.08Z"/>
    <path class="cls-1" d="M612,183.57c0.27,0.2.39,0.11,0.25-.2l-0.39-.91q-0.4.21-.82,0.39Z"/>
    <path class="cls-1" d="M602.9,181.54l2.39-2.18a0.78,0.78,0,0,1,1,0l4.75,3.54q0.42-.18.82-0.39l-3.89-9a0.42,0.42,0,0,0-.7-0.15L604.32,176a0.68,0.68,0,0,1-.91,0l-3-2.87a11.72,11.72,0,0,0-4,2.26,7,7,0,0,0-.77.83l6.29,5.38A0.72,0.72,0,0,0,602.9,181.54Z"/>
    <path class="cls-2" d="M272.7,48.26l-2.12-13.85L246.33,25l2.12,13.85ZM257.71,31l0.07-.29a0.31,0.31,0,0,1,.42-0.21l2.31,0.9a0.39,0.39,0,0,1,.22.47l-0.25.79a10.08,10.08,0,0,1,2.91,5.41c0.44,2.88-1.11,4.48-3.46,3.56a6,6,0,0,1-1.34-.78l-0.38.45c-0.13.15-.2,0.11-0.17-0.08l0.12-.68a10.11,10.11,0,0,1-3.3-5.79C254.47,32.14,255.71,30.6,257.71,31Z"/>
    <path class="cls-3" d="M260,35.4l2.09,0.81a0.24,0.24,0,0,1,.1.4l-3.61,4.26a6,6,0,0,0,1.34.78c2.35,0.92,3.9-.68,3.46-3.56a10.08,10.08,0,0,0-2.91-5.41l-0.7,2.26A0.39,0.39,0,0,0,260,35.4Z"/>
    <path class="cls-3" d="M258.17,40.55l0.61-3.33a0.45,0.45,0,0,0-.27-0.48l-1.72-.67a0.41,0.41,0,0,1-.24-0.47L257.71,31c-2-.43-3.24,1.12-2.84,3.74A10.11,10.11,0,0,0,258.17,40.55Z"/>
    <path class="cls-1" d="M260.49,32.68l0.25-.79a0.39,0.39,0,0,0-.22-0.47l-2.31-.9a0.31,0.31,0,0,0-.42.21l-0.07.29a4,4,0,0,1,.62.18A6.73,6.73,0,0,1,260.49,32.68Z"/>
    <path class="cls-1" d="M258,41.23c0,0.19,0,.23.17,0.08l0.38-.45c-0.14-.1-0.28-0.2-0.42-0.31Z"/>
    <path class="cls-1" d="M256.79,36.08l1.72,0.67a0.45,0.45,0,0,1,.27.48l-0.61,3.33c0.14,0.12.28,0.21,0.42,0.31l3.61-4.26a0.24,0.24,0,0,0-.1-0.4L260,35.4a0.39,0.39,0,0,1-.22-0.47l0.7-2.26a6.73,6.73,0,0,0-2.16-1.47,4,4,0,0,0-.62-0.18l-1.16,4.58A0.41,0.41,0,0,0,256.79,36.08Z"/>
    <path class="cls-2" d="M312.56,278.91l-19,27,18.25,3.66,19-27Zm4.79,18.5,0.44,0.67c0.15,0.23.09,0.31-.15,0.18l-0.83-.47a11.76,11.76,0,0,1-8.33,1.59c-3.45-.69-5.07-3-3.95-5.4l-0.34-.23a0.46,0.46,0,0,1-.15-0.64l1.81-2.56a0.47,0.47,0,0,1,.66-0.07l0.91,0.67a11.84,11.84,0,0,1,7.75-1.24c3.8,0.76,5.38,3.5,3.54,6.12A6.56,6.56,0,0,1,317.35,297.41Z"/>
    <path class="cls-3" d="M312.07,295.58l-1.35,1.92a0.49,0.49,0,0,1-.67.1l-5.5-3.62c-1.12,2.38.49,4.71,3.95,5.4a11.76,11.76,0,0,0,8.33-1.59l-4.06-2.33A0.53,0.53,0,0,0,312.07,295.58Z"/>
    <path class="cls-3" d="M315.18,289.89a11.84,11.84,0,0,0-7.75,1.24l2.69,2a0.47,0.47,0,0,0,.66-0.07l1.64-2.32a0.31,0.31,0,0,1,.54.05l4.39,6.65a6.56,6.56,0,0,0,1.37-1.39C320.57,293.39,319,290.65,315.18,289.89Z"/>
    <path class="cls-1" d="M307.43,291.13l-0.91-.67a0.47,0.47,0,0,0-.66.07L304,293.1a0.46,0.46,0,0,0,.15.64l0.34,0.23a4.67,4.67,0,0,1,.41-0.72A7.4,7.4,0,0,1,307.43,291.13Z"/>
    <path class="cls-1" d="M317.65,298.26c0.23,0.13.3,0.05,0.15-.18l-0.44-.67q-0.25.2-.53,0.38Z"/>
    <path class="cls-1" d="M312.42,290.7L310.78,293a0.47,0.47,0,0,1-.66.07l-2.69-2a7.4,7.4,0,0,0-2.48,2.12,4.67,4.67,0,0,0-.41.72l5.5,3.62a0.49,0.49,0,0,0,.67-0.1l1.35-1.92a0.53,0.53,0,0,1,.68-0.12l4.06,2.33q0.28-.18.53-0.38L313,290.76A0.31,0.31,0,0,0,312.42,290.7Z"/>
    <g>
      <path class="cls-4" d="M28.68,9.08C28.86,9.4,29,9.37,28.92,9L28.7,7.44q-0.35.22-.72,0.41Z"/>
      <path class="cls-4" d="M467.68,8.74c0,0.17.11,0.26,0.22,0.19l0.35-.19c-0.2-.2-0.4-0.4-0.6-0.61Z"/>
      <path class="cls-2" d="M30.72,5.64a8.66,8.66,0,0,1-2,1.8L28.92,9c0.05,0.37-.06.4-0.24,0.08L28,7.86a8.68,8.68,0,0,1-9.47-1A8.64,8.64,0,0,1,15.35,0h-6L0,11.34,17.79,25.95,39.09,0h-6.4A8.64,8.64,0,0,1,30.72,5.64Z"/>
      <path class="cls-3" d="M18.51,6.84a8.68,8.68,0,0,0,9.47,1L24.63,1.95a0.43,0.43,0,0,0-.76-0.07L21.65,4.59a0.4,0.4,0,0,1-.72-0.08L18.71,0H15.35A8.64,8.64,0,0,0,18.51,6.84Z"/>
      <path class="cls-3" d="M28.7,7.44a8.66,8.66,0,0,0,2-1.8,8.64,8.64,0,0,0,2-5.64h-5Z"/>
      <path class="cls-1" d="M18.71,0l2.22,4.51a0.4,0.4,0,0,0,.72.08l2.22-2.71a0.43,0.43,0,0,1,.76.07L28,7.86q0.37-.19.72-0.41L27.66,0h-9Z"/>
      <path class="cls-2" d="M355.22,0h-3.94l4.39,21.86L374.09,5.64,373,0h-13.2A4.34,4.34,0,0,1,355.22,0Z"/>
      <path class="cls-3" d="M359.75,0h-4.53A4.34,4.34,0,0,0,359.75,0Z"/>
      <path class="cls-2" d="M481.46,10.63L468.48,0h-0.92l0.68,0.56a0.93,0.93,0,0,1,.4.63l-0.1.62a28.86,28.86,0,0,1,5,7.5c1.28,3.22-.24,3.74-3.38,1.17a24.17,24.17,0,0,1-1.86-1.73l-0.35.19c-0.12.06-.22,0-0.22-0.19l0-.6A29.85,29.85,0,0,1,462.12,0h-6.4l31.86,26.1Z"/>
      <path class="cls-3" d="M467.13,4.54l-2.3-1.88A1.05,1.05,0,0,1,464.41,2l0.15-2h-2.43a29.85,29.85,0,0,0,5.54,8.14l-0.09-2.93A1.21,1.21,0,0,0,467.13,4.54Z"/>
      <path class="cls-3" d="M468.64,4.23l2.79,2.28c0.24,0.2.34,0.41,0.23,0.47l-3.39,1.77a24.17,24.17,0,0,0,1.86,1.73c3.15,2.58,4.66,2.05,3.38-1.17a28.86,28.86,0,0,0-5-7.5l-0.3,1.79A0.93,0.93,0,0,0,468.64,4.23Z"/>
      <path class="cls-1" d="M468.54,1.81l0.1-.62a0.93,0.93,0,0,0-.4-0.63L467.56,0h-0.75C467.39,0.56,468,1.17,468.54,1.81Z"/>
      <path class="cls-1" d="M466.81,0h-2.26l-0.15,2a1.05,1.05,0,0,0,.42.65l2.3,1.88a1.21,1.21,0,0,1,.45.67l0.09,2.93c0.2,0.21.4,0.41,0.6,0.61L471.65,7c0.12-.06,0-0.27-0.23-0.47l-2.79-2.28a0.93,0.93,0,0,1-.4-0.63l0.3-1.79C468,1.17,467.39.56,466.81,0Z"/>
    </g>
    <path class="cls-2" d="M635,456.9l-48.44-39.68,9.17,23.14L644.18,480Zm-17-.22a35.73,35.73,0,0,1-2.8-2.58l-0.51.27c-0.18.09-.33,0-0.34-0.29l0-.89c-3.55-3.81-6.88-8.62-8.3-12.21-1.74-4.38,0-5.41,3.85-2.67l0-.36c0-.24.33-0.18,0.69,0.11l4.61,3.77a1.4,1.4,0,0,1,.59.94l-0.15.91a43.19,43.19,0,0,1,7.43,11.24C625,459.75,622.76,460.53,618.06,456.68Z"/>
    <path class="cls-3" d="M613.59,447.8L610.14,445a1.57,1.57,0,0,1-.63-1l0.42-5.7c-3.86-2.74-5.58-1.71-3.85,2.67,1.42,3.58,4.75,8.39,8.3,12.21l-0.13-4.39A1.81,1.81,0,0,0,613.59,447.8Z"/>
    <path class="cls-3" d="M615.69,443.69l-0.45,2.69a1.4,1.4,0,0,0,.59.94l4.17,3.42c0.36,0.3.52,0.62,0.34,0.71l-5.08,2.65a35.73,35.73,0,0,0,2.8,2.58c4.7,3.85,7,3.07,5.06-1.75A43.19,43.19,0,0,0,615.69,443.69Z"/>
    <path class="cls-1" d="M615.69,443.69l0.15-.91a1.4,1.4,0,0,0-.59-0.94l-4.61-3.77c-0.36-.3-0.67-0.35-0.69-0.11l0,0.36c0.39,0.27.79,0.57,1.22,0.92A40.56,40.56,0,0,1,615.69,443.69Z"/>
    <path class="cls-1" d="M614.41,454.08c0,0.25.16,0.38,0.34,0.29l0.51-.27-0.88-.92Z"/>
    <path class="cls-1" d="M620,450.74l-4.17-3.42a1.4,1.4,0,0,1-.59-0.94l0.45-2.69a40.56,40.56,0,0,0-4.55-4.46c-0.43-.35-0.83-0.65-1.22-0.92l-0.42,5.7a1.57,1.57,0,0,0,.63,1l3.44,2.82a1.81,1.81,0,0,1,.67,1l0.13,4.39,0.88,0.92,5.08-2.65C620.52,451.35,620.37,451,620,450.74Z"/>
    <path class="cls-2" d="M178.43,46.6l-12.85,4.81L136.24,87.08l12.85-4.81ZM151.14,70.06c-0.11,0,0-.3.21-0.57l2.79-3.39a0.75,0.75,0,0,1,.57-0.38L155.1,66A25,25,0,0,1,162,61.13c2.68-1,2.53,1-.31,4.46-0.56.68-1.17,1.36-1.83,2v0.46a0.2,0.2,0,0,1-.21.24l-0.42-.09c-2.57,2.5-5.56,4.7-7.55,5.44-2.43.91-2.53-.66-0.39-3.56Z"/>
    <path class="cls-3" d="M156.83,66.29l2.53-3.07c0.22-.27.4-0.36,0.41-0.2l0.1,4.59c0.65-.67,1.27-1.35,1.83-2,2.85-3.46,3-5.46.31-4.46A25,25,0,0,0,155.1,66l1.16,0.71A0.75,0.75,0,0,0,156.83,66.29Z"/>
    <path class="cls-3" d="M151.69,73.68c2-.75,5-2.94,7.55-5.44l-2.08-.44a1,1,0,0,0-.62.44l-2.08,2.53a0.87,0.87,0,0,1-.59.41l-2.57-1.06C149.16,73,149.26,74.59,151.69,73.68Z"/>
    <path class="cls-1" d="M159.24,68.24l0.42,0.09a0.2,0.2,0,0,0,.21-0.24V67.62Z"/>
    <path class="cls-1" d="M155.1,66l-0.39-.24a0.75,0.75,0,0,0-.57.38l-2.79,3.39c-0.22.27-.31,0.52-0.21,0.57l0.16,0.07c0.21-.29.44-0.59,0.7-0.9A34,34,0,0,1,155.1,66Z"/>
    <path class="cls-1" d="M154.46,70.78l2.08-2.53a1,1,0,0,1,.62-0.44l2.08,0.44,0.62-.62L159.76,63c0-.16-0.19-0.07-0.41.2l-2.53,3.07a0.75,0.75,0,0,1-.57.38L155.1,66a34,34,0,0,0-3.1,3.26c-0.26.32-.49,0.61-0.7,0.9l2.57,1.06A0.87,0.87,0,0,0,154.46,70.78Z"/>
  </g>
  <g class="the-guy">
  <g>
    <path class="cls-4" d="M391.54,556.37a3.31,3.31,0,0,0-.38-0.45,3.33,3.33,0,0,1,.38.45h0Z"/>
    <path class="cls-5" d="M385.27,564.78c2.39-2.93,2.66-4.86,2.75-6.3l-4.3-2.79-5.76,9,3.61,2.34A7.17,7.17,0,0,0,385.27,564.78Z"/>
    <path class="cls-5" d="M570,520a7,7,0,0,0-.79-4.1c-2.18-3.88-4.14-4.52-5.51-5.18l-3.7,1.14,3.13,10.25Z"/>
    <path class="cls-6" d="M577,498.24l-0.57.27L563.67,507s-2.54.56-1.45,2.52a2.94,2.94,0,0,0,1.47,1.22c1.37,0.65,3.33,1.29,5.51,5.18A7,7,0,0,1,570,520c-0.1,1.64-.36,2.76,1.41,2.95,3,0.31,10.64,8.36,17.89,18.31,4.7,6.45,10.08,5.93,13.28,4.77a5.27,5.27,0,0,0,.79-0.37Z"/>
    <path class="cls-7" d="M605.13,544.12l-26.06-46.87-2.09,1,26.38,47.46A5.35,5.35,0,0,0,605.13,544.12Z"/>
    <path class="cls-8" d="M563.13,522.15L559.72,511c-106,33.34-93.8-80.63-93.8-80.63V397H465.8v7.27H387.61v12.43a45.56,45.56,0,0,1-2.6,14.69c-10.61,24.23-36,40.23-49.84,62.22A35.3,35.3,0,0,0,331.32,520c4.87,20.06,28.21,37.27,46,45.62l7-11-20-13c-16.5-11.1-28.42-31-14.48-49q1.88-2.26,3.85-4.44c18.6-20.72,71.68-68.06,94.12-26.09h0c2,4.52,2.28,7.67,3.63,11.9C471.38,558.16,563.39,523,563.39,523Z"/>
    <path class="cls-9" d="M453.76,427.81a0.33,0.33,0,1,0,.44-0.5c-0.44-.39-0.89-0.82-1.31-1.27a0.33,0.33,0,0,0-.48.46C452.84,427,453.3,427.41,453.76,427.81Z"/>
    <path class="cls-9" d="M451.61,425.64a0.33,0.33,0,0,0,.5-0.44c-0.39-.45-0.78-0.93-1.15-1.42a0.33,0.33,0,0,0-.53.4C450.81,424.69,451.21,425.18,451.61,425.64Z"/>
    <path class="cls-9" d="M456.2,429.66a0.33,0.33,0,0,0,.36-0.56,17.65,17.65,0,0,1-1.48-1.05,0.33,0.33,0,0,0-.41.52A18.38,18.38,0,0,0,456.2,429.66Z"/>
    <path class="cls-9" d="M445.56,412.83a0.33,0.33,0,0,0-.25.4c0.14,0.6.3,1.21,0.48,1.81a0.33,0.33,0,0,0,.32.24h0.1a0.33,0.33,0,0,0,.22-0.42c-0.18-.59-0.34-1.18-0.47-1.77A0.33,0.33,0,0,0,445.56,412.83Z"/>
    <path class="cls-9" d="M448.74,421.66c0.32,0.54.66,1.07,1,1.58a0.33,0.33,0,0,0,.55-0.38c-0.34-.5-0.67-1-1-1.54A0.33,0.33,0,0,0,448.74,421.66Z"/>
    <path class="cls-9" d="M446.16,416.15c0.2,0.58.43,1.17,0.67,1.75a0.33,0.33,0,0,0,.31.2l0.13,0a0.33,0.33,0,0,0,.18-0.44c-0.24-.56-0.46-1.14-0.66-1.71A0.33,0.33,0,1,0,446.16,416.15Z"/>
    <path class="cls-9" d="M447.31,419c0.26,0.56.55,1.13,0.85,1.67a0.33,0.33,0,1,0,.59-0.32c-0.29-.53-0.57-1.08-0.83-1.63A0.33,0.33,0,1,0,447.31,419Z"/>
    <path class="cls-9" d="M458,430.67a0.33,0.33,0,1,0,.28-0.61c-0.27-.12-0.53-0.25-0.79-0.39a0.33,0.33,0,1,0-.31.59C457.49,430.4,457.77,430.54,458,430.67Z"/>
    <polygon class="cls-6" points="404.13 565.09 404.59 565.52 406.28 567.1 406.28 567.1 404.13 565.09 391.54 556.37 391.54 556.37 404.13 565.09"/>
    <path class="cls-6" d="M388.66,555.94a1.52,1.52,0,0,1,2.5,0,1.52,1.52,0,0,0-2.5,0,4,4,0,0,0-.64,2.54h0A4,4,0,0,1,388.66,555.94Z"/>
    <path class="cls-6" d="M379.52,569.42c-0.46-1.66.58-1.87,2.06-2.34h0c-1.48.47-2.52,0.68-2.05,2.34,0.78,2.81-3.49,12.12-9.65,22h0C376,581.54,380.31,572.23,379.52,569.42Z"/>
    <path class="cls-6" d="M385.27,564.78c2.39-2.94,2.66-4.86,2.75-6.3h0c-0.09,1.44-.36,3.37-2.75,6.3a7.17,7.17,0,0,1-3.69,2.3h0A7.16,7.16,0,0,0,385.27,564.78Z"/>
    <path class="cls-6" d="M404.13,565.09l-12.59-8.72h0a3.33,3.33,0,0,0-.38-0.45,1.52,1.52,0,0,0-2.5,0,4,4,0,0,0-.64,2.54c-0.09,1.44-.36,3.37-2.75,6.3a7.17,7.17,0,0,1-3.69,2.3c-1.48.47-2.52,0.68-2.06,2.34,0.78,2.81-3.48,12.12-9.64,22h13.41l21.3-25.93Z"/>
    <polygon class="cls-7" points="386.28 591.45 406.28 567.11 406.28 567.1 386.27 591.45 386.28 591.45"/>
    <polygon class="cls-7" points="383.29 591.45 386.27 591.45 406.28 567.1 404.59 565.52 383.29 591.45"/>
  </g>
  <g id="arm_left" data-name="arm left">
    <path class="cls-10" d="M374.9,183l0.05-.07,1.2-1.55-0.12-.22a26.82,26.82,0,0,0-6.35,5.07l4.68-2.58Z"/>
    <path class="cls-10" d="M317.23,74.33a7.66,7.66,0,1,0-13.42,7.39L362.6,188.48c2.05-4.86,4.88-10.66,8.24-16.79Z"/>
  </g>
  <g id="arm_right" data-name="arm right">
    <path class="cls-10" d="M551.31,61.45a7.66,7.66,0,0,0-10.41,3l-3.77,6.81h0l-18.58,33.58,0,0-3.64,6.58-37.33,67.48,1.79,1,7.09,3.92,4.52,2.5,15.81-28.57h0l17.14-31,0.05-.1,26.57-48h0l3.77-6.81A7.66,7.66,0,0,0,551.31,61.45Z"/>
    <path class="cls-11" d="M527.54,102.14a19.88,19.88,0,0,1,.41-8.67l-0.32-.11a20,20,0,0,0-.42,8.85Z"/>
    <path class="cls-11" d="M526.34,110.29c-1.11-3.85-1.49-10.48-.3-14.23l-0.32-.1c-1.25,3.93-.82,10.55.3,14.43Z"/>
  </g>
  <path class="cls-12" d="M491,186.35l-16.07-8.89L471,184.55l1.2,0.66L452.9,220.05l5.12-3.3h0L415,241.65v0.11l-0.33.33-0.26-.16-10.53,4.26L404,246h-8.2l-3.26,1.79L394,246h-6.51V404.25H465.8V232.92l3.71-3.7,19.26-34.82,0.94,0.52,3.92-7.09L491,186.35h0Z"/>
  <g class="shirt-under-beard">
    <path class="cls-4" d="M376.52,180.9l-0.48.24,0.12,0.22Z"/>
    <path class="cls-12" d="M374.71,214l0,0h0l1.87,3.39a42.84,42.84,0,0,1,1.62-5.26Z"/>
    <path class="cls-13" d="M360.62,191.2l0.51,0.93c0.19-.5.39-1,0.6-1.54Z"/>
    <path class="cls-13" d="M363.49,193.58l-0.89,1.22,1.93,3.51,0.21-.11,0.64-1.2Z"/>
    <path class="cls-13" d="M369.69,186.21c-0.71.73-1.41,1.49-2.09,2.27l5.21-2.87q0.75-1,1.56-2Z"/>
    <path class="cls-13" d="M365.44,193.64l-0.84-1.52-1.11,1.46,1.88,3.42q0.51-.95,1.09-1.93A7.66,7.66,0,0,1,365.44,193.64Z"/>
    <path class="cls-13" d="M379,208.32c-1.58,1.95-3,3.81-4.33,5.59l0,0,3.46-1.91a39.39,39.39,0,0,1,3.12-6.34C380.49,206.59,379.72,207.47,379,208.32Z"/>
    <path class="cls-12" d="M418,226.14l-0.41-.08c-0.62.58-1.51,1.49-2.61,2.62V230a0.33,0.33,0,0,1-.67,0v-0.61l-0.63.64q-1.23,1.29-2.5,2.58c-1.3,1.32-2.63,2.62-4,3.89l-0.13.12h4.5c0.88-1.24,1.78-2.59,2.69-4l0,0v-1.44a0.33,0.33,0,0,1,.67,0v0.38C416,229.8,417,228,418,226.14Z"/>
    <path class="cls-12" d="M401.93,231.68l-1.12.91c-1.8,1.46-3.44,2.77-5.08,4h4.39c0.79-1.41,1.51-2.77,2.12-4,0.33-.67.63-1.31,0.89-1.9Z"/>
    <path class="cls-12" d="M397.7,219.1l-0.75.71a65.27,65.27,0,0,1-9.46,7.19,36.59,36.59,0,0,0-3.94,3l1.36,2.48a9.45,9.45,0,0,0,2.43,2.87l0.15-.2c0.63-.84,1.26-1.7,1.88-2.59,2.44-3.45,4.87-7.29,7.61-11.81l0.65-1.08,0.78-1.29Z"/>
    <g>
      <path class="cls-12" d="M367.59,188.48c-1.05,1.2-2.06,2.43-3,3.63l0.84,1.52a7.67,7.67,0,0,0,1,1.42,88.23,88.23,0,0,1,6.35-9.45Z"/>
      <path class="cls-12" d="M382.08,191.75l-1.32.84-2.21,1.55L377,195.23c-0.79.6-1.64,1.26-2.54,2-1.82,1.5-3.85,3.29-6,5.41l1.86,3.38h0l0.33-.54a65.57,65.57,0,0,1,11.42-13.73l0,0Z"/>
    </g>
  </g>
  <g id="stripes">
    <polygon class="cls-13" points="490.96 186.35 474.9 177.46 470.97 184.55 474.31 186.4 474.46 186.2 474.45 186.47 489.71 194.92 493.63 187.83 490.96 186.35 490.96 186.35"/>
    <polygon class="cls-13" points="475.64 197.71 475.64 197.71 467.69 193.31 463.16 201.52 469.81 205.19 469.81 205.19 479.75 210.7 484.29 202.5 475.64 197.71 475.64 197.71"/>
    <rect class="cls-13" x="387.49" y="372.59" width="78.31" height="9.37"/>
    <rect class="cls-13" x="387.49" y="338.59" width="78.31" height="9.37"/>
    <rect class="cls-13" x="387.49" y="304.6" width="78.31" height="9.37"/>
    <rect class="cls-13" x="387.49" y="270.6" width="78.31" height="9.37"/>
    <rect class="cls-13" x="387.49" y="236.6" width="78.31" height="9.37"/>
  </g>
  <g id="line_2" data-name="line 2" class="shirt-line-2">
    <path class="cls-9" d="M390.79,279.69v-1.81a0.33,0.33,0,0,0-.67,0v1.82a0.31,0.31,0,0,0,.19.27h0.28A0.31,0.31,0,0,0,390.79,279.69Z"/>
    <path class="cls-9" d="M406.23,279.13a0.33,0.33,0,0,0-.67,0v0.23c0,0.21,0,.41,0,0.62h0.67c0-.21,0-0.41,0-0.62v-0.23Z"/>
    <path class="cls-9" d="M405.89,278.33a0.33,0.33,0,0,0,.33-0.33v-1.81a0.33,0.33,0,0,0-.67,0V278A0.33,0.33,0,0,0,405.89,278.33Z"/>
    <path class="cls-9" d="M390.45,274.14a0.33,0.33,0,0,0,.33-0.33V272a0.33,0.33,0,0,0-.67,0v1.81A0.33,0.33,0,0,0,390.45,274.14Z"/>
    <path class="cls-9" d="M390.45,277.08a0.33,0.33,0,0,0,.33-0.33v-1.81a0.33,0.33,0,1,0-.67,0v1.81A0.33,0.33,0,0,0,390.45,277.08Z"/>
    <path class="cls-9" d="M405.56,272.1a0.33,0.33,0,1,0,.67,0v-1.5h-0.67v1.5Z"/>
    <path class="cls-9" d="M405.89,275.38a0.33,0.33,0,0,0,.33-0.33v-1.81a0.33,0.33,0,1,0-.67,0V275A0.33,0.33,0,0,0,405.89,275.38Z"/>
    <path class="cls-9" d="M405.89,270a0.33,0.33,0,0,0-.33.33v0.31h0.67v-0.31A0.33,0.33,0,0,0,405.89,270Z"/>
    <path class="cls-9" d="M390.45,268.72a0.33,0.33,0,0,0-.33.33v1.55h0.67V269A0.33,0.33,0,0,0,390.45,268.72Z"/>
    <path class="cls-9" d="M394.66,254.78h1.81a0.33,0.33,0,1,0,0-.67h-1.81A0.33,0.33,0,0,0,394.66,254.78Z"/>
    <path class="cls-9" d="M405.89,255.23a0.33,0.33,0,0,0-.33.33v1.81a0.33,0.33,0,0,0,.67,0v-1.81A0.33,0.33,0,0,0,405.89,255.23Z"/>
    <path class="cls-9" d="M404.06,254.78h1.81a0.33,0.33,0,0,0,0-.67h-1.81A0.33,0.33,0,0,0,404.06,254.78Z"/>
    <path class="cls-9" d="M401.12,254.78h1.81a0.33,0.33,0,0,0,0-.67h-1.81A0.33,0.33,0,0,0,401.12,254.78Z"/>
    <path class="cls-9" d="M391.71,254.78h1.81a0.33,0.33,0,1,0,0-.67h-1.81A0.33,0.33,0,0,0,391.71,254.78Z"/>
    <path class="cls-9" d="M405.89,261.12a0.33,0.33,0,0,0-.33.33v1.81a0.33,0.33,0,0,0,.67,0v-1.81A0.33,0.33,0,0,0,405.89,261.12Z"/>
    <path class="cls-9" d="M390.45,256.47a0.33,0.33,0,0,0,.33-0.33v-1.42a0.33,0.33,0,0,0-.21-0.59h-0.46v2A0.33,0.33,0,0,0,390.45,256.47Z"/>
    <path class="cls-9" d="M405.89,267a0.33,0.33,0,0,0-.33.33v1.81a0.33,0.33,0,0,0,.67,0v-1.81A0.33,0.33,0,0,0,405.89,267Z"/>
    <path class="cls-9" d="M405.89,258.18a0.33,0.33,0,0,0-.33.33v1.81a0.33,0.33,0,1,0,.67,0v-1.81A0.33,0.33,0,0,0,405.89,258.18Z"/>
    <path class="cls-9" d="M405.89,264.07a0.33,0.33,0,0,0-.33.33v1.81a0.33,0.33,0,1,0,.67,0V264.4A0.33,0.33,0,0,0,405.89,264.07Z"/>
    <path class="cls-9" d="M397.6,254.78H400a0.33,0.33,0,1,0,0-.67H397.6A0.33,0.33,0,0,0,397.6,254.78Z"/>
    <path class="cls-9" d="M390.45,262.36a0.33,0.33,0,0,0,.33-0.33v-1.81a0.33,0.33,0,1,0-.67,0V262A0.33,0.33,0,0,0,390.45,262.36Z"/>
    <path class="cls-9" d="M390.45,268.25a0.33,0.33,0,0,0,.33-0.33V266.1a0.33,0.33,0,0,0-.67,0v1.81A0.33,0.33,0,0,0,390.45,268.25Z"/>
    <path class="cls-9" d="M390.45,259.41a0.33,0.33,0,0,0,.33-0.33v-1.81a0.33,0.33,0,1,0-.67,0v1.81A0.33,0.33,0,0,0,390.45,259.41Z"/>
    <path class="cls-9" d="M390.45,265.3a0.33,0.33,0,0,0,.33-0.33v-1.81a0.33,0.33,0,0,0-.67,0V265A0.33,0.33,0,0,0,390.45,265.3Z"/>
    <path class="cls-9" d="M405.35,284.65a0.33,0.33,0,0,0-.4.25c-0.14.59-.29,1.17-0.47,1.72a0.33,0.33,0,0,0,.22.42l0.1,0a0.33,0.33,0,0,0,.32-0.23c0.18-.57.35-1.17,0.49-1.78A0.33,0.33,0,0,0,405.35,284.65Z"/>
    <path class="cls-9" d="M392.45,288.18a17.74,17.74,0,0,1-.62-1.67,0.33,0.33,0,1,0-.64.2,18.37,18.37,0,0,0,.64,1.73,0.33,0.33,0,0,0,.31.2l0.13,0A0.33,0.33,0,0,0,392.45,288.18Z"/>
    <path class="cls-9" d="M394.54,291.53a0.33,0.33,0,1,0-.49.45,7.39,7.39,0,0,0,1.44,1.22,0.33,0.33,0,1,0,.36-0.56A6.74,6.74,0,0,1,394.54,291.53Z"/>
    <path class="cls-9" d="M400.94,292.33a5.1,5.1,0,0,1-1.48.81,0.33,0.33,0,0,0,.11.65l0.11,0a5.75,5.75,0,0,0,1.68-.92A0.33,0.33,0,1,0,400.94,292.33Z"/>
    <path class="cls-9" d="M405.51,280.92a0.33,0.33,0,0,0,.31.35h0a0.33,0.33,0,0,0,.33-0.31c0-.32,0-0.66,0-1h-0.67C405.53,280.29,405.53,280.61,405.51,280.92Z"/>
    <path class="cls-9" d="M392.93,289.18a0.33,0.33,0,1,0-.59.31,12.73,12.73,0,0,0,1,1.58,0.33,0.33,0,0,0,.54-0.39A12.06,12.06,0,0,1,392.93,289.18Z"/>
    <path class="cls-9" d="M398.43,293.35a4,4,0,0,1-1.64-.24,0.33,0.33,0,0,0-.23.63,4.69,4.69,0,0,0,1.61.29h0.31a0.33,0.33,0,0,0,.31-0.35A0.33,0.33,0,0,0,398.43,293.35Z"/>
    <path class="cls-9" d="M404.54,287.48a0.33,0.33,0,0,0-.43.19,15.52,15.52,0,0,1-.74,1.61,0.33,0.33,0,1,0,.59.31,16.09,16.09,0,0,0,.77-1.68A0.33,0.33,0,0,0,404.54,287.48Z"/>
    <path class="cls-9" d="M402.81,290.23a9.67,9.67,0,0,1-1.08,1.38,0.33,0.33,0,1,0,.48.46,10.32,10.32,0,0,0,1.15-1.47A0.33,0.33,0,1,0,402.81,290.23Z"/>
    <path class="cls-9" d="M391.29,285.85a0.33,0.33,0,0,0,.24-0.41c-0.15-.56-0.27-1.15-0.37-1.75a0.33,0.33,0,0,0-.66.11c0.11,0.61.24,1.22,0.38,1.8a0.33,0.33,0,0,0,.32.25h0.08Z"/>
    <path class="cls-9" d="M405.79,281.74a0.33,0.33,0,0,0-.37.3c-0.06.6-.15,1.2-0.25,1.77a0.33,0.33,0,0,0,.27.39h0.06a0.33,0.33,0,0,0,.33-0.27c0.11-.59.19-1.2,0.25-1.82A0.33,0.33,0,0,0,405.79,281.74Z"/>
    <path class="cls-9" d="M390.7,283a0.33,0.33,0,0,0,.29-0.37c-0.07-.59-0.13-1.18-0.16-1.78a0.33,0.33,0,1,0-.67,0c0,0.61.09,1.23,0.16,1.83a0.33,0.33,0,0,0,.33.29h0Z"/>
  </g>
  <g id="line_1" data-name="line 1" class="shirt-line-1">
    <path class="cls-9" d="M414.62,277.43a0.33,0.33,0,0,0,.33-0.33v-1.81a0.33,0.33,0,0,0-.67,0v1.81A0.33,0.33,0,0,0,414.62,277.43Z"/>
    <path class="cls-9" d="M414.62,381a0.33,0.33,0,0,0-.33.33V382H415v-0.66A0.33,0.33,0,0,0,414.62,381Z"/>
    <path class="cls-9" d="M415,346a0.33,0.33,0,1,0-.67,0v1.81a0.32,0.32,0,0,0,.08.19h0.51a0.32,0.32,0,0,0,.08-0.19V346Z"/>
    <path class="cls-9" d="M414.62,309.83a0.33,0.33,0,0,0,.33-0.33v-1.81a0.33,0.33,0,1,0-.67,0v1.81A0.33,0.33,0,0,0,414.62,309.83Z"/>
    <path class="cls-9" d="M414.62,312.77a0.33,0.33,0,0,0,.33-0.33v-1.81a0.33,0.33,0,1,0-.67,0v1.81A0.33,0.33,0,0,0,414.62,312.77Z"/>
    <path class="cls-9" d="M414.62,274.49a0.33,0.33,0,0,0,.33-0.33v-1.81a0.33,0.33,0,1,0-.67,0v1.81A0.33,0.33,0,0,0,414.62,274.49Z"/>
    <path class="cls-9" d="M414.29,338.94a0.33,0.33,0,1,0,.67,0v-0.35h-0.67v0.35Z"/>
    <path class="cls-9" d="M414.29,374.28a0.33,0.33,0,1,0,.67,0v-1.69h-0.67v1.69Z"/>
    <path class="cls-9" d="M414.62,245.5a0.33,0.33,0,0,0-.33.33V246H415v-0.14A0.33,0.33,0,0,0,414.62,245.5Z"/>
    <path class="cls-9" d="M414.62,242.56a0.33,0.33,0,0,0-.33.33v1.81a0.33,0.33,0,1,0,.67,0v-1.81A0.33,0.33,0,0,0,414.62,242.56Z"/>
    <path class="cls-9" d="M414.36,241.93a0.31,0.31,0,0,0,.26.16,0.33,0.33,0,0,0,.33-0.33v-0.11l-0.37.17Z"/>
    <path class="cls-9" d="M414.62,345.17a0.33,0.33,0,0,0,.33-0.33V343a0.33,0.33,0,0,0-.67,0v1.81A0.33,0.33,0,0,0,414.62,345.17Z"/>
    <path class="cls-9" d="M414.62,380.51a0.33,0.33,0,0,0,.33-0.33v-1.81a0.33,0.33,0,1,0-.67,0v1.81A0.33,0.33,0,0,0,414.62,380.51Z"/>
    <path class="cls-9" d="M414.62,277.9a0.33,0.33,0,0,0-.33.33V280H415v-1.74A0.33,0.33,0,0,0,414.62,277.9Z"/>
    <path class="cls-9" d="M414.29,304.73v1.81a0.33,0.33,0,1,0,.67,0v-1.81a0.31,0.31,0,0,0-.06-0.14h-0.55A0.31,0.31,0,0,0,414.29,304.73Z"/>
    <path class="cls-9" d="M414.62,313.24a0.33,0.33,0,0,0-.33.33V314H415v-0.4A0.33,0.33,0,0,0,414.62,313.24Z"/>
    <path class="cls-9" d="M414.62,342.22a0.33,0.33,0,0,0,.33-0.33v-1.81a0.33,0.33,0,1,0-.67,0v1.81A0.33,0.33,0,0,0,414.62,342.22Z"/>
    <path class="cls-9" d="M414.29,271.21a0.33,0.33,0,1,0,.67,0V270.6h-0.67v0.61Z"/>
    <path class="cls-9" d="M414.62,377.56a0.33,0.33,0,0,0,.33-0.33v-1.81a0.33,0.33,0,0,0-.67,0v1.81A0.33,0.33,0,0,0,414.62,377.56Z"/>
    <path class="cls-9" d="M414.62,324.55a0.33,0.33,0,0,0,.33-0.33v-1.81a0.33,0.33,0,0,0-.67,0v1.81A0.33,0.33,0,0,0,414.62,324.55Z"/>
    <path class="cls-9" d="M414.62,321.61a0.33,0.33,0,0,0,.33-0.33v-1.81a0.33,0.33,0,0,0-.67,0v1.81A0.33,0.33,0,0,0,414.62,321.61Z"/>
    <path class="cls-9" d="M414.62,333.39a0.33,0.33,0,0,0,.33-0.33v-1.81a0.33,0.33,0,0,0-.67,0v1.81A0.33,0.33,0,0,0,414.62,333.39Z"/>
    <path class="cls-9" d="M414.62,318.66a0.33,0.33,0,0,0,.33-0.33v-1.81a0.33,0.33,0,1,0-.67,0v1.81A0.33,0.33,0,0,0,414.62,318.66Z"/>
    <path class="cls-9" d="M414.62,336.33A0.33,0.33,0,0,0,415,336v-1.81a0.33,0.33,0,1,0-.67,0V336A0.33,0.33,0,0,0,414.62,336.33Z"/>
    <path class="cls-9" d="M414.62,327.5a0.33,0.33,0,0,0,.33-0.33v-1.81a0.33,0.33,0,0,0-.67,0v1.81A0.33,0.33,0,0,0,414.62,327.5Z"/>
    <path class="cls-9" d="M414.29,315.38a0.33,0.33,0,1,0,.67,0V314h-0.67v1.41Z"/>
    <path class="cls-9" d="M414.62,336.8a0.33,0.33,0,0,0-.33.33v1.46H415v-1.46A0.33,0.33,0,0,0,414.62,336.8Z"/>
    <path class="cls-9" d="M414.62,330.44a0.33,0.33,0,0,0,.33-0.33V328.3a0.33,0.33,0,1,0-.67,0v1.81A0.33,0.33,0,0,0,414.62,330.44Z"/>
    <path class="cls-9" d="M414.29,230a0.33,0.33,0,0,0,.67,0v-1.3l-0.67.69V230Z"/>
    <path class="cls-9" d="M414.62,230.78a0.33,0.33,0,0,0-.33.33v1.44l0.67-1.06v-0.38A0.33,0.33,0,0,0,414.62,230.78Z"/>
    <path class="cls-9" d="M414.62,259.76a0.33,0.33,0,0,0,.33-0.33v-1.81a0.33,0.33,0,0,0-.67,0v1.81A0.33,0.33,0,0,0,414.62,259.76Z"/>
    <path class="cls-9" d="M414.29,247.65a0.33,0.33,0,1,0,.67,0V246h-0.67v1.67Z"/>
    <path class="cls-9" d="M414.62,250.92a0.33,0.33,0,0,0,.33-0.33v-1.81a0.33,0.33,0,1,0-.67,0v1.81A0.33,0.33,0,0,0,414.62,250.92Z"/>
    <path class="cls-9" d="M414.62,262.7a0.33,0.33,0,0,0,.33-0.33v-1.81a0.33,0.33,0,1,0-.67,0v1.81A0.33,0.33,0,0,0,414.62,262.7Z"/>
    <path class="cls-9" d="M414.62,269.06a0.33,0.33,0,0,0-.33.33v1.21H415v-1.21A0.33,0.33,0,0,0,414.62,269.06Z"/>
    <path class="cls-9" d="M414.62,253.87a0.33,0.33,0,0,0,.33-0.33v-1.81a0.33,0.33,0,1,0-.67,0v1.81A0.33,0.33,0,0,0,414.62,253.87Z"/>
    <path class="cls-9" d="M414.62,256.81a0.33,0.33,0,0,0,.33-0.33v-1.81a0.33,0.33,0,1,0-.67,0v1.81A0.33,0.33,0,0,0,414.62,256.81Z"/>
    <path class="cls-9" d="M414.62,268.59a0.33,0.33,0,0,0,.33-0.33v-1.81a0.33,0.33,0,1,0-.67,0v1.81A0.33,0.33,0,0,0,414.62,268.59Z"/>
    <path class="cls-9" d="M414.62,265.65a0.33,0.33,0,0,0,.33-0.33V263.5a0.33,0.33,0,0,0-.67,0v1.81A0.33,0.33,0,0,0,414.62,265.65Z"/>
    <path class="cls-9" d="M414.62,359.89a0.33,0.33,0,0,0,.33-0.33v-1.81a0.33,0.33,0,1,0-.67,0v1.81A0.33,0.33,0,0,0,414.62,359.89Z"/>
    <path class="cls-9" d="M414.62,354a0.33,0.33,0,0,0,.33-0.33v-1.81a0.33,0.33,0,1,0-.67,0v1.81A0.33,0.33,0,0,0,414.62,354Z"/>
    <path class="cls-9" d="M414.62,365.78a0.33,0.33,0,0,0,.33-0.33v-1.81a0.33,0.33,0,1,0-.67,0v1.81A0.33,0.33,0,0,0,414.62,365.78Z"/>
    <path class="cls-9" d="M414.62,356.95a0.33,0.33,0,0,0,.33-0.33V354.8a0.33,0.33,0,1,0-.67,0v1.81A0.33,0.33,0,0,0,414.62,356.95Z"/>
    <path class="cls-9" d="M414.62,362.84a0.33,0.33,0,0,0,.33-0.33v-1.81a0.33,0.33,0,1,0-.67,0v1.81A0.33,0.33,0,0,0,414.62,362.84Z"/>
    <path class="cls-9" d="M414.62,371.67a0.33,0.33,0,0,0,.33-0.33v-1.81a0.33,0.33,0,0,0-.67,0v1.81A0.33,0.33,0,0,0,414.62,371.67Z"/>
    <path class="cls-9" d="M414.62,348.11a0.31,0.31,0,0,0,.26-0.15h-0.51A0.31,0.31,0,0,0,414.62,348.11Z"/>
    <path class="cls-9" d="M414.62,368.73a0.33,0.33,0,0,0,.33-0.33v-1.81a0.33,0.33,0,1,0-.67,0v1.81A0.33,0.33,0,0,0,414.62,368.73Z"/>
    <path class="cls-9" d="M414.62,372.14a0.33,0.33,0,0,0-.33.33v0.12H415v-0.12A0.33,0.33,0,0,0,414.62,372.14Z"/>
    <path class="cls-9" d="M414.62,351.06a0.33,0.33,0,0,0,.33-0.33v-1.81a0.33,0.33,0,1,0-.67,0v1.81A0.33,0.33,0,0,0,414.62,351.06Z"/>
    <path class="cls-9" d="M414.62,392.29A0.33,0.33,0,0,0,415,392v-1.81a0.33,0.33,0,1,0-.67,0V392A0.33,0.33,0,0,0,414.62,392.29Z"/>
    <path class="cls-9" d="M414.62,389.34A0.33,0.33,0,0,0,415,389V387.2a0.33,0.33,0,0,0-.67,0V389A0.33,0.33,0,0,0,414.62,389.34Z"/>
    <path class="cls-9" d="M414.29,383.12a0.33,0.33,0,1,0,.67,0V382h-0.67v1.16Z"/>
    <path class="cls-9" d="M415,396a0.33,0.33,0,1,0-.67,0v1H415v-1Z"/>
    <path class="cls-9" d="M414.62,386.4a0.33,0.33,0,0,0,.33-0.33v-1.81a0.33,0.33,0,0,0-.67,0v1.81A0.33,0.33,0,0,0,414.62,386.4Z"/>
    <path class="cls-9" d="M414.62,395.23a0.33,0.33,0,0,0,.33-0.33v-1.81a0.33,0.33,0,0,0-.67,0v1.81A0.33,0.33,0,0,0,414.62,395.23Z"/>
    <path class="cls-9" d="M414.62,401.59a0.33,0.33,0,0,0-.33.33v1.81a0.33,0.33,0,0,0,.67,0v-1.81A0.33,0.33,0,0,0,414.62,401.59Z"/>
    <path class="cls-9" d="M414.62,398.18a0.33,0.33,0,0,0,.33-0.33V397h-0.67v0.86A0.33,0.33,0,0,0,414.62,398.18Z"/>
    <path class="cls-9" d="M414.62,398.64a0.33,0.33,0,0,0-.33.33v1.81a0.33,0.33,0,1,0,.67,0V399A0.33,0.33,0,0,0,414.62,398.64Z"/>
    <path class="cls-9" d="M414.62,295.1a0.33,0.33,0,0,0,.33-0.33V293a0.33,0.33,0,0,0-.67,0v1.81A0.33,0.33,0,0,0,414.62,295.1Z"/>
    <path class="cls-9" d="M414.62,283.32A0.33,0.33,0,0,0,415,283v-1.81a0.33,0.33,0,0,0-.67,0V283A0.33,0.33,0,0,0,414.62,283.32Z"/>
    <path class="cls-9" d="M414.62,289.21a0.33,0.33,0,0,0,.33-0.33v-1.81a0.33,0.33,0,0,0-.67,0v1.81A0.33,0.33,0,0,0,414.62,289.21Z"/>
    <path class="cls-9" d="M414.62,304.4a0.31,0.31,0,0,0-.28.19h0.55A0.31,0.31,0,0,0,414.62,304.4Z"/>
    <path class="cls-9" d="M414.29,280a0.33,0.33,0,0,0,.67,0V280h-0.67V280Z"/>
    <path class="cls-9" d="M414.62,286.27a0.33,0.33,0,0,0,.33-0.33v-1.81a0.33,0.33,0,1,0-.67,0v1.81A0.33,0.33,0,0,0,414.62,286.27Z"/>
    <path class="cls-9" d="M414.62,292.16a0.33,0.33,0,0,0,.33-0.33V290a0.33,0.33,0,1,0-.67,0v1.81A0.33,0.33,0,0,0,414.62,292.16Z"/>
    <path class="cls-9" d="M414.62,301a0.33,0.33,0,0,0,.33-0.33v-1.81a0.33,0.33,0,1,0-.67,0v1.81A0.33,0.33,0,0,0,414.62,301Z"/>
    <path class="cls-9" d="M414.62,303.94a0.33,0.33,0,0,0,.33-0.33v-1.81a0.33,0.33,0,1,0-.67,0v1.81A0.33,0.33,0,0,0,414.62,303.94Z"/>
    <path class="cls-9" d="M414.62,298a0.33,0.33,0,0,0,.33-0.33V295.9a0.33,0.33,0,1,0-.67,0v1.81A0.33,0.33,0,0,0,414.62,298Z"/>
  </g>
  <g id="head">
    <path class="cls-10" d="M501.58,85.17a53.86,53.86,0,0,0-9.1-5.71c-0.14.29-.29,0.59-0.46,0.89-2.3,4.13-5.41,5.73-12.77,1.68-6.12-3.37-8.3-6-8-8.41-12.91-1-24.65,2.64-30.07,9.6l-16.68,21.39a4.92,4.92,0,0,0,1.29.09c3-.2,2.75,3.48,2.48,5.14a4.22,4.22,0,0,1-.05.74l0,0.24,0-.24v0l0,0.08s-0.73-3.33-6.86-.41a15.82,15.82,0,0,1-1.68.69l-2.56,3.29a2.93,2.93,0,0,1,3.22.07,3.06,3.06,0,0,1,.71,3.58c-1.57.62-3.34,1.33-5.32,2.13a3,3,0,0,1-.77-3l-3.84,4.93-0.08,0c-2.32,1-11.89,2.3-7.41,8.73l0.32,0.44-0.3.39-2.09,2.68a13.68,13.68,0,0,1,5.39,2.78c12.68,9.88,22.49,50.19,58.51,53.84-2.27,6.14-7.44,14.07-13.76,21.74a69.67,69.67,0,0,0,11.44-11.74l1.62-2.08,3.65-6.61,3.82-6.9-1.2-.66,1.71-3.09,2.21-4,2.67,1.47,37.33-67.48a66,66,0,0,0-17.72-29.29,42.68,42.68,0,0,1,4.41,3"/>
    <g id="beard">
      <path class="cls-14" d="M406.89,137c-11.35-8.85-21.18,10.61-26.44,18.73-7.64,11.81-21,29.78-21.44,44.37,4.22-6.79,10.06-15.7,17.51-19.17-7.4,9.29-15.31,20.15-17.37,32.16,6.47-8.21,14-15.78,23-21.32-8.68,8-24,27.54-18.63,40.54,4.88-9.49,10.6-18.65,17.81-26.56-3.76,6.2-5.25,13.28-6.19,20.37-0.58,4.39,0,14.54-1.33,16.75,0,0.17-.08.33-0.11,0.5,6-11.58,15.92-16.13,24.76-24.92C391.47,230,384,240.87,373.82,250c10.89-4.54,20.25-11.88,29.32-19.27a71.3,71.3,0,0,1-10.57,17.07c5.77-2.46,10.47-7.28,14.89-11.56,1.69-1.64,7.95-10.15,10.11-10.15a5.24,5.24,0,0,1,.8-0.67,86.27,86.27,0,0,1-14.54,20.81c25.28-6.61,52.46-30.77,61.57-55.38-16.92-1.72-29.36-12.5-38.88-25.81-6.39-8.93-11-21.32-19.82-28.18L412,141l-5.15-4h0Zm-11.13,4.85a1.11,1.11,0,0,0-.15-0.26l0.15,0.26S395.84,141.63,395.76,141.81Zm-9.33,13.52,0.05-.11,0.06,0.06-0.12,0s0,0,0,0S386.48,155.31,386.43,155.34Z"/>
      <g>
        <path class="cls-15" d="M407.2,236.48a204.08,204.08,0,0,0,17.32-18.79,142.64,142.64,0,0,0,15.08-21.93c1.68-3.15,3.5-6.69,3.78-10.32-3.83,5.74-7.84,11.35-11.93,16.91-7.45,10.14-15.21,20.08-23.53,29.53a199.71,199.71,0,0,1-15.19,15.69c5.44-2.62,10.13-7,14.47-11.09C408,235.67,407.16,236.52,407.2,236.48Z"/>
        <path class="cls-15" d="M382.36,227.86c11.44-18.86,25.14-36.08,40.05-52.3,0.27-.3,4.11-4.11,3.77-4.49-2.93,1.73-5.72,3.75-8.46,5.76a156.29,156.29,0,0,0-13.19,10.71c-9.87,9-17.4,20.47-23.07,32.54a107.33,107.33,0,0,0-7.81,23.26q4.09-7.88,8.71-15.48h0Z"/>
        <path class="cls-15" d="M369.12,197c4.47-6.5,9.25-12.88,15.06-18.25a71,71,0,0,1,14.35-10.37c0.94-.51,1.89-1,2.87-1.42l-5.69-3.81a108,108,0,0,0-16.24,14.65c-7.45,8-13.91,17.15-17.92,27.4a41,41,0,0,0-2.39,7.89,173,173,0,0,1,10-16.08h0Z"/>
        <path class="cls-15" d="M363,192.69a142.5,142.5,0,0,1,12-17.8c4.47-5.6,9.64-11.21,16-14.61-2.23-2.66-3.52-4.06-4.06-4.63,3.66,2.9,7.37,5.74,11,8.62a4.77,4.77,0,0,0,6.69-.83l2.68-3.44a1.25,1.25,0,0,1-.47-0.12l-1.12,1.43a4.64,4.64,0,0,1-6.51.81l-7-5.44-3.91-3c-1.31-1-2.52-2-2.77-3.81a4.8,4.8,0,0,0,1,5.46c-0.78.17-1.66,1.41-2.16,1.93-2.23,2.33-4.32,4.8-6.41,7.27-6.38,7.54-11,16.17-14.93,25.21-1.47,3.4-2.85,6.86-4,10.37,1.24-2.5,2.6-5,4-7.37h0Z"/>
        <path class="cls-15" d="M395.46,236.81a147.26,147.26,0,0,0,19.34-18.53,115.47,115.47,0,0,0,15.14-21,32.78,32.78,0,0,0,2.13-4.64,6.77,6.77,0,0,0,.56-3c-5.35,7.06-11.14,13.81-17,20.42-8.17,9.14-16.73,18-25.77,26.24-5.16,4.74-10.48,9.31-16,13.63A93.19,93.19,0,0,0,395.46,236.81Z"/>
        <path class="cls-15" d="M374.69,213.92a118.74,118.74,0,0,1,13.37-15h0c6.42-6.17,13.28-12.2,18.35-19.59a64.11,64.11,0,0,0,9.43-21.44,39.36,39.36,0,0,0,.83-4.43,65.52,65.52,0,0,1-3.9,8.38,113.7,113.7,0,0,1-13.5,20c-6,7-13.81,12.29-20.44,18.67a53.4,53.4,0,0,0-13.74,21c-1.13,3.34-2.12,7.26-1.6,10.82,2.85-6.64,7.23-12.39,11.2-18.35C376,212.14,374.69,213.92,374.69,213.92Z"/>
        <path class="cls-15" d="M415.84,190.88c-3.58,4.38-6.63,9.15-10,13.7a135.77,135.77,0,0,1-11.63,13.79q-3.78,3.91-7.83,7.56a65.35,65.35,0,0,0,9.69-7.82c3.1-2.84,6.09-5.79,9-8.79q10.14-10.33,19.46-21.43c3.09-3.69,6.12-7.43,8.9-11.36-8.57,4.74-13.51,9.29-17.64,14.34h0Z"/>
        <path class="cls-15" d="M441.84,213.63a100.85,100.85,0,0,0-14.24,13.21c-2.26,2.47-4.47,5-7,7.23a83.48,83.48,0,0,1-7.72,6.05c-3,2.11-6,4.11-9.1,6.08a44.64,44.64,0,0,0,5.92-2.22q3.76-1.58,7.42-3.38a97.55,97.55,0,0,0,15.16-8.91,100.29,100.29,0,0,0,13.4-12.39,136.44,136.44,0,0,0,11.22-13.63,64.59,64.59,0,0,0,8.45-14.85c-15.67,18.53-17.86,18.62-23.56,22.82h0Z"/>
        <path class="cls-15" d="M431.81,214.05q-4.93,5.63-10.13,11a78.78,78.78,0,0,0,19-15.12A45.7,45.7,0,0,0,448,199.47a15.57,15.57,0,0,0,1.86-6.31,4.28,4.28,0,0,0-.42-2.23c-5.74,7.82-11.26,15.82-17.65,23.12h0Z"/>
        <path class="cls-15" d="M389.71,182.32a227.25,227.25,0,0,0-22.13,21.2,91.94,91.94,0,0,1,13.83-11.37c5.24-3.58,10.45-7,15-11.4,5.81-5.6,11.42-12.59,13.18-20.66a13.56,13.56,0,0,0,.4-3.76,71.89,71.89,0,0,1-6.61,11,78.36,78.36,0,0,1-13.72,15h0Z"/>
        <path class="cls-15" d="M408.87,157.29l-0.09.15,0.06,0c0-.06,0-0.12,0-0.19S408.86,157.35,408.87,157.29Z"/>
      </g>
    </g>
    <g id="eyebrow">
      <path class="cls-14" d="M425.84,104.71a4.92,4.92,0,0,1-1.29-.09c-2.94-.59-5.43-3.65-5.29-5.58-1.64,2.78-3.24,6.38-1.67,8.47a1.84,1.84,0,0,1-2-.88l-0.07.21,0-.08,0,0.13c-0.94,2.91-.31,5.57,4.13,4a15.82,15.82,0,0,0,1.68-.69c6.13-2.92,6.86.41,6.86,0.41l0-.08v0l0,0.24,0-.24a4.22,4.22,0,0,0,.05-0.74C428.58,108.19,428.83,104.51,425.84,104.71Zm2.35,4.68a2.94,2.94,0,0,1,0,.3h0C428.23,109.59,428.2,109.49,428.19,109.39Zm0,0.43a3.9,3.9,0,0,1,0,.56,3.91,3.91,0,0,0,0-.56h0Z"/>
      <path class="cls-14" d="M472.84,141.67c-4-1-16.37-8.68-20.41-15.61-3.77-6.46-11.59-8.53-13.54-9l-0.24-.1,0,0v0a13.09,13.09,0,0,1,3.23,2.37c2.47,2.43,4.07,5.66,5.52,8.62,0.35,0.72.7,1.41,1,2.09,0.07,0.24.15,0.46,0.22,0.71,2.82,10.4,10,13.85,14.75,13.53a11.69,11.69,0,0,1-2.61-2.13,14.37,14.37,0,0,0,5,1.57l0.32,0-0.31-.11a23.59,23.59,0,0,1-5.08-2.78l-0.06,0C465.93,144,470.05,143.1,472.84,141.67Z"/>
      <path class="cls-15" d="M465.73,143.76a23.59,23.59,0,0,1-5.08-2.78l-0.06,0a20.67,20.67,0,0,1-7.5-9.42,23.81,23.81,0,0,0-14.21-14.42l-0.24-.1,0,0v0a13.09,13.09,0,0,1,3.23,2.37c2.47,2.43,4.07,5.66,5.52,8.62,0.35,0.72.7,1.41,1,2.09a21.66,21.66,0,0,0,2.48,4,33.64,33.64,0,0,0,9.87,8.13,14.37,14.37,0,0,0,5,1.57l0.32,0Z"/>
      <path class="cls-15" d="M415.53,107.08a3.59,3.59,0,0,0,1.64,2.79,4.38,4.38,0,0,0,3.21.1,13.59,13.59,0,0,0,2-.7c2-.85,3.49-1,4.57-0.41a2.63,2.63,0,0,1,1.28,1.71v0l0,0.24,0-.24a4.22,4.22,0,0,0,.05-0.74,3,3,0,0,0-.63-1.82,4.64,4.64,0,0,0-3.33-1.51,4.73,4.73,0,0,0-1.44.17c-0.58.14-1.22,0.35-1.88,0.56-2.3.75-4.68,1.52-5.44-.21l-0.09-.21,0-.08,0,0.13Zm12.69,3.3a3.91,3.91,0,0,0,0-.56h0A3.9,3.9,0,0,1,428.22,110.38Zm0-.69c0-.1,0-0.2,0-0.3a2.94,2.94,0,0,1,0,.3h0Zm-0.31-1.15a2.8,2.8,0,0,0-.29-0.46A2.66,2.66,0,0,1,427.92,108.55Z"/>
    </g>
    <path id="hair" class="cls-14" d="M489.18,63.25s2.6,5.5-.84,9.53c1-2.76.13-5.95-2.51-10,0.59,3-.32,4.79-2.09,5.85,1.76-6.69-1.58-10.57-1.58-10.57s0.1,6.15-3.57,7.44-5.05,3.49-6.82,6.7a4.17,4.17,0,0,0-.49,1.44c-0.34,2.42,1.84,5,8,8.41,7.35,4,10.47,2.45,12.77-1.68,0.17-.3.32-0.59,0.46-0.89C497.18,69.77,489.18,63.25,489.18,63.25Z"/>
    <g id="shades">
      <path class="cls-16" d="M462.82,201.27A69.67,69.67,0,0,1,451.38,213l-1.09,1.31c-3.44,4.07-11.4,12.12-15.18,15.68,4.58-1.17,13.29-7.06,17.53-9.49h0l2.6-4.69,9.19-16.62Z"/>
      <path class="cls-16" d="M518.14,143.19a28.54,28.54,0,0,0,5.77-16.4l-17.14,31Z"/>
      <path class="cls-16" d="M501.58,85.17a42.68,42.68,0,0,0-4.41-3,66,66,0,0,1,17.72,29.29l3.64-6.58A62.44,62.44,0,0,0,501.58,85.17Z"/>
      <path class="cls-16" d="M420,126.58c-2.56,2.73-2.1,4.86-2.08,7.28,0,1.65-1.24,4-2,5.33-0.36.61-.63,1-0.63,1a6.07,6.07,0,0,0,2.2-.63,6.68,6.68,0,0,0,2.38-2,9.18,9.18,0,0,0,1.69-4.38,22,22,0,0,1,2.36-7.42c1.86-3.5,4.42-5.92,6.75-8.46,0.06-.13.13-0.26,0.19-0.39C428.74,118.69,422.14,124.29,420,126.58Z"/>
    </g>
    <g id="nose">
      <path class="cls-17" d="M403.89,131.12l-0.32-.44a1.05,1.05,0,0,0,0,.82,2.5,2.5,0,0,0,.81,1,2.42,2.42,0,0,0,1.28.53A18,18,0,0,1,403.89,131.12Z"/>
      <path class="cls-17" d="M413.39,136.71c-0.79-.62-1.75-0.72-2.13-0.24a0.86,0.86,0,0,0-.14.69,2.29,2.29,0,0,0,.89,1.31c0.79,0.62,1.75.72,2.13,0.24a0.7,0.7,0,0,0,.06-0.1A1.7,1.7,0,0,0,413.39,136.71Z"/>
    </g>
    <g id="eyes">
      <path class="cls-11" d="M420.28,114.3a2.93,2.93,0,0,0-3.22-.07A4.3,4.3,0,0,0,414.9,117a3,3,0,0,0,.77,3c2-.81,3.74-1.51,5.32-2.13A3.06,3.06,0,0,0,420.28,114.3Z"/>
      <ellipse class="cls-11" cx="442.54" cy="136.78" rx="3.68" ry="2.96" transform="translate(62.58 401.71) rotate(-52.06)"/>
    </g>
    <path id="face" class="cls-10" d="M395.76,141.84c0.05-.1-2.77-5.32-11.14,7.43-0.7,1.06,1.94,3.47,2.27,3.66l0,0.05c21.59,24,26.71-.17,22.67-1.75C404,149,399.86,145.58,395.76,141.84Z"/>
    <path class="cls-11" d="M409.06,157.79a0.76,0.76,0,0,0-.22-0.32l-0.06,0a0.83,0.83,0,0,0-.24-0.14,44.23,44.23,0,0,1-9.51-4.36,39.62,39.62,0,0,1-7.31-5.7l-0.22-.17,0,0c-0.5-.51-1-1-1.47-1.55a0.82,0.82,0,0,0-1.14-.08l-0.06,0-0.87.71a0.81,0.81,0,0,0-.3.55,0.79,0.79,0,0,0,0,.21,0.8,0.8,0,0,0,.17.4h0q0.94,1.09,2,2.11a43.77,43.77,0,0,0,13.64,9.13q0.79,0.34,1.61.66c0.59,0.23,1.19.46,1.79,0.67l0.2,0.08a0.94,0.94,0,0,0,.27,0h0a1,1,0,0,0,.78-0.39q0.38-.53.73-1.06l0.09-.17A0.75,0.75,0,0,0,409.06,157.79Z"/>
  </g>
  </g>
</svg>
