<?xml version="1.0" encoding="utf-8"?>
<!-- Generator: Adobe Illustrator 21.0.2, SVG Export Plug-In . SVG Version: 6.00 Build 0)  -->
<svg version="1.1" xmlns="http://www.w3.org/2000/svg" xmlns:xlink="http://www.w3.org/1999/xlink" x="0px" y="0px"
	 viewBox="0 0 608.6 320.6" style="enable-background:new 0 0 608.6 320.6;" xml:space="preserve">
<style type="text/css">
	.st0{fill:none;}
	.st1{fill:none;stroke:#632976;stroke-width:0.5;stroke-miterlimit:10;}
	.st2{fill:#D8D8D8;}
	.st3{fill:#EBEBEB;}
	.st4{clip-path:url(#SVGID_2_);}
	.st5{clip-path:url(#SVGID_6_);}
	.st6{fill:#FFFFFF;}
	.st7{fill:#70C6E8;}
	.st8{fill:#FA0E6A;}
	.st9{fill:url(#);}
	.st10{fill:#9F1F60;}
	.st11{fill:url(#SVGID_15_);}
	.st12{fill:url(#SVGID_16_);}
	.st13{fill:#501B60;}
	.st14{fill:url(#SVGID_17_);}
	.st15{fill:#632976;}
	.st16{fill:#BFE1F6;}
	.st17{fill:#ED1F6C;}
	.st18{fill:#782776;}
	.st19{fill:#410D4F;}
	.st20{fill:#461255;}
	.st21{fill:#EC1D6B;}
	.st22{fill:#80CBDC;}
	.st23{fill:#E61E75;}
	.st24{fill:#ED1D6B;}
	.st25{fill:#A2226B;}
	.st26{fill:#AA73B0;}
	.st27{fill:#B0DEF7;}
	.st28{fill:#451C57;}
	.st29{fill:none;stroke:#DDDDDD;stroke-miterlimit:10;}
	.st30{fill:#7D7D7D;}
	.st31{fill:#1890CD;}
	.st32{fill:#E2E2E2;}
	.st33{fill:url(#SVGID_20_);}
	.st34{fill:url(#SVGID_21_);}
	.st35{fill:url(#SVGID_22_);}
	.st36{fill:url(#SVGID_23_);}
	.st37{fill:url(#SVGID_24_);}
	.st38{fill:url(#SVGID_25_);}
	.st39{fill:url(#SVGID_26_);}
	.st40{fill:url(#SVGID_27_);}
	.st41{fill:url(#SVGID_28_);}
	.st42{fill:url(#SVGID_29_);}
	.st43{fill:url(#SVGID_30_);}
	.st44{fill:url(#SVGID_31_);}
	.st45{fill:url(#SVGID_32_);}
	.st46{fill:url(#SVGID_33_);}
	.st47{fill:url(#SVGID_34_);}
	.st48{clip-path:url(#SVGID_36_);}
	.st49{fill:url(#SVGID_37_);}
	.st50{fill:url(#SVGID_38_);}
	.st51{fill:url(#SVGID_39_);}
	.st52{clip-path:url(#SVGID_41_);fill:#FFFFFF;}
	.st53{clip-path:url(#SVGID_43_);}
	.st54{fill:url(#SVGID_44_);}
	.st55{fill:url(#SVGID_45_);}
	.st56{fill:url(#SVGID_46_);}
	.st57{fill:#793F91;}
	.st58{fill:#EADAD0;}
	.st59{fill:#54A9DD;}
	.st60{fill:url(#SVGID_47_);}
	.st61{fill:#83CBEA;}
	.st62{fill:url(#SVGID_48_);}
	.st63{fill:url(#SVGID_49_);}
	.st64{fill:#642A77;}
	.st65{fill:#D0D1D2;}
	.st66{fill:#353435;}
	.st67{fill:#BABCBE;}
	.st68{fill:#F0E9E4;}
	.st69{fill:#009A7A;}
	.st70{fill:#196ECC;}
	.st71{fill:#00B08A;}
	.st72{fill:#FFDD15;}
	.st73{fill:#EADBD2;}
	.st74{opacity:0.7;fill:#D6C1B5;}
	.st75{fill:#BBBDBF;}
	.st76{fill:#DDCBC1;}
	.st77{opacity:0.58;fill:#56474D;}
	.st78{fill:#EDA454;}
	.st79{fill:#F27138;}
	.st80{fill:#56474D;}
	.st81{fill:#662244;}
	.st82{fill:#A11F61;}
	.st83{fill:#5A4A42;}
	.st84{fill:#BEDFFB;}
	.st85{fill:#D6B79F;}
	.st86{fill:#D61664;}
	.st87{fill:#D0AF96;}
	.st88{fill:#F9B5BA;}
	.st89{fill:#D81966;}
	.st90{fill:url(#SVGID_50_);}
	.st91{fill:url(#SVGID_51_);}
	.st92{fill:url(#SVGID_52_);}
	.st93{fill:#F5F5F5;}
	.st94{fill:url(#SVGID_53_);}
	.st95{fill:url(#SVGID_54_);}
	.st96{fill:url(#SVGID_55_);}
	.st97{fill:url(#SVGID_56_);}
	.st98{fill:url(#SVGID_57_);}
	.st99{fill:url(#SVGID_58_);}
	.st100{fill:url(#SVGID_59_);}
	.st101{fill:url(#SVGID_60_);}
	.st102{fill:url(#SVGID_61_);}
	.st103{fill:#702B89;}
	.st104{fill:#CAECFC;}
	.st105{fill:#C6C6C6;}
	.st106{fill:#E50762;}
	.st107{fill:#0E91CF;}
	.st108{fill:#ECECEC;}
	.st109{opacity:5.000000e-02;}
	.st110{fill:#D8D9DB;}
	.st111{fill:url(#XMLID_219_);}
	.st112{fill:#7E7E7E;}
	.st113{fill:#CECECE;}
	.st114{fill:url(#XMLID_220_);}
	.st115{fill:url(#XMLID_221_);}
	.st116{fill:#F2F2F2;}
</style>
<pattern  x="4195.7" y="5906.2" width="35.7" height="35.7" patternUnits="userSpaceOnUse" id="New_Pattern_Swatch_4" viewBox="35.8 -48.1 35.7 35.7" style="overflow:visible;">
	<g>
		<rect x="35.8" y="-48.1" class="st0" width="35.7" height="35.7"/>
		<g>
			<polygon class="st1" points="106.9,-6.2 101,-0.4 89.2,-12.1 77.5,-0.4 71.6,-6.2 71.6,-6.3 77.5,-12.1 89.2,-0.4 101,-12.1 
				106.9,-6.3 			"/>
		</g>
		<g>
			<polygon class="st1" points="71.2,-6.2 65.4,-0.4 53.6,-12.1 41.8,-0.4 35.9,-6.2 36,-6.3 41.8,-12.1 53.6,-0.4 65.4,-12.1 
				71.3,-6.3 			"/>
		</g>
		<g>
			<polygon class="st1" points="35.6,-6.2 29.7,-0.4 17.9,-12.1 6.2,-0.4 0.3,-6.2 0.3,-6.3 6.2,-12.1 17.9,-0.4 29.7,-12.1 
				35.6,-6.3 			"/>
		</g>
		<g>
			<polygon class="st1" points="106.9,-18.4 101,-12.6 89.2,-24.3 77.5,-12.6 71.6,-18.4 71.6,-18.5 77.5,-24.3 89.2,-12.6 
				101,-24.3 106.9,-18.5 			"/>
			<polygon class="st1" points="106.9,-30.3 101,-24.4 89.2,-36.2 77.5,-24.4 71.6,-30.3 71.6,-30.3 77.5,-36.2 89.2,-24.4 
				101,-36.2 106.9,-30.3 			"/>
			<polygon class="st1" points="106.9,-42 101,-36.1 89.2,-47.9 77.5,-36.1 71.6,-42 71.6,-42 77.5,-47.9 89.2,-36.1 101,-47.9 
				106.9,-42 			"/>
		</g>
		<g>
			<polygon class="st1" points="71.2,-18.4 65.4,-12.6 53.6,-24.3 41.8,-12.6 35.9,-18.4 36,-18.5 41.8,-24.3 53.6,-12.6 
				65.4,-24.3 71.3,-18.5 			"/>
			<polygon class="st1" points="71.2,-30.3 65.4,-24.4 53.6,-36.2 41.8,-24.4 35.9,-30.3 36,-30.3 41.8,-36.2 53.6,-24.4 
				65.4,-36.2 71.3,-30.3 			"/>
			<polygon class="st1" points="71.2,-42 65.4,-36.1 53.6,-47.9 41.8,-36.1 35.9,-42 36,-42 41.8,-47.9 53.6,-36.1 65.4,-47.9 
				71.3,-42 			"/>
		</g>
		<g>
			<polygon class="st1" points="35.6,-18.4 29.7,-12.6 17.9,-24.3 6.2,-12.6 0.3,-18.4 0.3,-18.5 6.2,-24.3 17.9,-12.6 29.7,-24.3 
				35.6,-18.5 			"/>
			<polygon class="st1" points="35.6,-30.3 29.7,-24.4 17.9,-36.2 6.2,-24.4 0.3,-30.3 0.3,-30.3 6.2,-36.2 17.9,-24.4 29.7,-36.2 
				35.6,-30.3 			"/>
			<polygon class="st1" points="35.6,-42 29.7,-36.1 17.9,-47.9 6.2,-36.1 0.3,-42 0.3,-42 6.2,-47.9 17.9,-36.1 29.7,-47.9 
				35.6,-42 			"/>
		</g>
		<g>
			<polygon class="st1" points="106.9,-54.2 101,-48.3 89.2,-60.1 77.5,-48.3 71.6,-54.2 71.6,-54.2 77.5,-60.1 89.2,-48.3 
				101,-60.1 106.9,-54.2 			"/>
		</g>
		<g>
			<polygon class="st1" points="71.2,-54.2 65.4,-48.3 53.6,-60.1 41.8,-48.3 35.9,-54.2 36,-54.2 41.8,-60.1 53.6,-48.3 
				65.4,-60.1 71.3,-54.2 			"/>
		</g>
		<g>
			<polygon class="st1" points="35.6,-54.2 29.7,-48.3 17.9,-60.1 6.2,-48.3 0.3,-54.2 0.3,-54.2 6.2,-60.1 17.9,-48.3 29.7,-60.1 
				35.6,-54.2 			"/>
		</g>
	</g>
</pattern>
<g id="Screenshots">
</g>
<g id="Artwork_Background">
</g>
<g id="Bike__x2B__Offer">
	<g>
		<path class="st57" d="M516.2,34c0-1.4,1.2-2.6,2.6-2.6c0.2,0,0.4,0,0.6,0.1c-0.5-0.4-1-0.6-1.7-0.6c-1.4,0-2.6,1.2-2.6,2.6
			c0,1.2,0.8,2.2,2,2.5C516.6,35.5,516.2,34.8,516.2,34z"/>
		<path class="st58" d="M362.9,160.4c-1.1,0-2.1-0.5-2.8-1.5c-1.1-1.6-0.7-3.7,0.8-4.8c38.8-27.4,56.5-60.2,56.7-60.5
			c0.9-1.7,3-2.3,4.7-1.4c1.7,0.9,2.3,3,1.4,4.7c-0.7,1.4-18.6,34.6-58.8,62.9C364.3,160.2,363.6,160.4,362.9,160.4z"/>
		<polygon class="st25" points="120.1,105.9 91.8,80.8 80.1,94.2 108.1,119.1 		"/>
		<polygon class="st6" points="115.7,106.5 113.3,104.4 107,107.7 109.9,109.6 104.7,112.3 114.2,110.8 111.6,108.4 		"/>
		<polygon class="st6" points="91.9,85.7 94.3,87.9 91.6,94.5 89.5,91.8 87.4,97.2 87.8,87.6 90.4,90 		"/>
		
			<ellipse transform="matrix(0.999 -4.453134e-02 4.453134e-02 0.999 -4.3507 4.5567)" class="st8" cx="100.1" cy="99.9" rx="7.2" ry="7.2"/>
		<path class="st6" d="M97.7,95.7c1.8,1.5,2.1,3.4,0.8,4.9c-1.3,1.5-3.4,1.5-5.4-0.3c-1.9-1.7-2.3-3.3-1.7-4.1
			c0.6-0.6,1.8-0.4,1.8-0.3c0,1.1,0.5,2,1.3,2.7c0.8,0.7,1.6,0.8,2.1,0.2c0.5-0.6,0.4-1.2-0.5-2c-0.7-0.6-1.2-0.7-1.7-0.8
			c-0.9-0.8-1-1.5-0.2-2.5l1.8-2c0.7-0.9,1.4-1,2.2-0.3l3.5,3.1c0.8,0.7,0.9,1.3,0.3,1.9l-0.1,0.1c-0.5,0.6-1.1,0.6-1.9-0.1
			l-2.7-2.3l-1,1.1C96.8,95.1,97.2,95.4,97.7,95.7z"/>
		<path class="st6" d="M99.9,100.1l0.6-0.7c1.9-2.2,4.4-2.4,6.6-0.5c2.2,1.9,2.3,4.4,0.4,6.6l-0.6,0.7c-1.9,2.2-4.4,2.4-6.6,0.5
			C98.1,104.8,98,102.3,99.9,100.1z M104.4,104.4l1-1.1c0.9-1,0.9-1.9,0.2-2.5c-0.8-0.7-1.6-0.5-2.5,0.5l-1,1.1
			c-0.9,1-0.9,1.8-0.2,2.5C102.7,105.5,103.5,105.4,104.4,104.4z"/>
		<polygon class="st25" points="114.7,107.7 78.2,98 73.8,115.3 110,124.9 		"/>
		<polygon class="st6" points="111.1,110.2 108,109.4 103.9,115.2 107.3,115.6 103.9,120.3 111.7,114.7 108.3,113.8 		"/>
		<polygon class="st6" points="80.5,102.4 83.6,103.3 84.2,110.3 81.1,109 81.6,114.7 77.7,106 81.1,106.9 		"/>
		<ellipse transform="matrix(0.8717 -0.49 0.49 0.8717 -42.5061 60.4555)" class="st8" cx="94.2" cy="111.4" rx="7.2" ry="7.2"/>
		<path class="st6" d="M90.2,108.8c2.3,0.6,3.4,2.1,2.9,4c-0.5,2-2.4,2.9-5,2.2c-2.5-0.6-3.6-1.9-3.3-2.9c0.2-0.8,1.4-1.2,1.5-1.1
			c0.5,0.9,1.3,1.5,2.3,1.8c1,0.3,1.7,0,1.9-0.7c0.2-0.8-0.2-1.3-1.3-1.6c-0.8-0.2-1.4-0.1-1.8,0.1c-1.1-0.3-1.6-0.9-1.3-2.1
			l0.7-2.6c0.3-1.1,0.8-1.6,1.8-1.3l4.5,1.2c1,0.3,1.3,0.7,1.1,1.5l0,0.1c-0.2,0.8-0.7,1-1.7,0.8l-3.5-0.9l-0.4,1.4
			C89.1,108.6,89.6,108.6,90.2,108.8z"/>
		<path class="st6" d="M94.1,111.6l0.2-0.9c0.7-2.8,2.9-4.2,5.7-3.4c2.8,0.7,4,2.9,3.3,5.7l-0.2,0.9c-0.7,2.8-2.9,4.2-5.7,3.5
			C94.6,116.7,93.4,114.5,94.1,111.6z M100.1,113.5l0.4-1.5c0.3-1.3,0-2.1-1-2.3c-1-0.3-1.6,0.2-2,1.6l-0.4,1.5
			c-0.3,1.3,0,2.1,1,2.3C99.1,115.2,99.7,114.7,100.1,113.5z"/>
		<path class="st58" d="M90.6,160.4c-1.2,0-2.4-0.6-3-1.7c-0.9-1.7-0.4-3.8,1.3-4.7c42.1-24,56.1-59.6,56.2-59.9
			c0.7-1.8,2.7-2.7,4.5-2c1.8,0.7,2.7,2.7,2,4.5c-0.6,1.6-15.1,38.3-59.3,63.4C91.7,160.2,91.2,160.4,90.6,160.4z"/>
		<path class="st8" d="M152,95.5l-8.3,16.7l-6.8-3.4l8.3-16.7c0.9-1.9,3.2-2.6,5.1-1.7v0C152.1,91.3,152.9,93.6,152,95.5z"/>
		
			<rect x="142.1" y="99.5" transform="matrix(-0.4456 0.8952 -0.8952 -0.4456 300.4182 20.4291)" class="st25" width="3.6" height="7.5"/>
		
			<rect x="136.7" y="107.9" transform="matrix(-0.8952 -0.4456 0.4456 -0.8952 218.1693 270.2057)" class="st25" width="8.2" height="3.1"/>
		<path class="st25" d="M285.6,243.7c0.8,0,1.7,0.4,2.1,1.2l10.5,19.4c0.6,1.1,0.2,2.6-1,3.2c-1.1,0.6-2.6,0.2-3.2-1l-10.5-19.4
			c-0.6-1.1-0.2-2.6,1-3.2C284.9,243.7,285.3,243.7,285.6,243.7z"/>
		
			<rect x="410.7" y="231.1" transform="matrix(0.9672 -0.2541 0.2541 0.9672 -46.6656 112.6157)" class="st58" width="3.8" height="11.7"/>
		<path class="st13" d="M491.7,309.2c-12,0-23.4-4.7-31.9-13.2c-8.5-8.5-13.2-19.8-13.2-31.9c0-12,4.7-23.4,13.2-31.9
			c8.5-8.5,19.8-13.2,31.9-13.2s23.4,4.7,31.9,13.2c8.5,8.5,13.2,19.8,13.2,31.9c0,12-4.7,23.4-13.2,31.9
			C515.1,304.5,503.8,309.2,491.7,309.2z M491.7,226.2c-10.1,0-19.6,3.9-26.8,11.1c-7.2,7.2-11.1,16.7-11.1,26.8
			c0,10.1,3.9,19.6,11.1,26.8c7.2,7.2,16.7,11.1,26.8,11.1c10.1,0,19.6-3.9,26.8-11.1c7.2-7.2,11.1-16.7,11.1-26.8
			c0-10.1-3.9-19.6-11.1-26.8C511.4,230.2,501.8,226.2,491.7,226.2z"/>
		<g>
			<path class="st57" d="M466.4,231.8c11.9-9.3,26.8-11.9,39.7-8.2c-13.4-4.7-28.9-2.8-40.9,6.6c-12,9.4-17.7,23.9-16.4,38.1
				C448.4,254.8,454.5,241,466.4,231.8z"/>
			<path class="st57" d="M534.6,260.2c0.4,13.4-5.7,27.2-17.6,36.5c-11.9,9.3-26.8,11.9-39.7,8.2c13.4,4.7,28.9,2.8,40.9-6.6
				C530.3,288.8,535.9,274.3,534.6,260.2z"/>
		</g>
		<path class="st59" d="M362.3,193.2c-1.8,0-3.3-1.5-3.3-3.3v-26.5h-6.6c-1.8,0-3.3-1.5-3.3-3.3s1.5-3.3,3.3-3.3h9.8
			c1.8,0,3.3,1.5,3.3,3.3V190C365.6,191.8,364.1,193.2,362.3,193.2z"/>
		<path class="st59" d="M507.2,200.8l-31.1,0.1l8.6-10.2c0.3-0.5-0.1-1.1-0.6-1.1H448l4.1-17.1c0.4-1.7-0.4-3.5-2-4
			c-1.9-0.6-3.8,0.5-4.2,2.3l-4.4,18.6H337.7v6.5h102.1L424,262.1h-30.9c-1.4-0.1-32-1.8-39.8-20.6c-3-7.2-7.1-13.5-12.2-18.9
			c-1.1-1.1-2.2-2.2-3.3-3.2v9.2c3.9,4.5,7.1,9.6,9.5,15.4c2.3,5.5,6.1,10.1,11.5,14c2.2,1.5,4.6,2.9,7.2,4.2h-28.3v6.5h88.8
			c0,0,0,0,0,0l0,0H494c1.2,0,2.2-0.6,2.8-1.6c0.6-1,0.6-2.2,0-3.2L449.7,196h22.1l-8.5,10.1c-0.4,0.5,0.1,1.3,0.7,1.2l43.2-5.8
			C507.7,201.5,507.7,200.8,507.2,200.8z M488.4,262.1h-57.7l14.5-60.8L488.4,262.1z"/>
		<path class="st31" d="M379.8,177.3l3.7-5.3c0.3-0.5-0.1-1.1-0.6-1.1h-26l0,0h-7.3c-1.8,0-3.4-1.2-3.8-3c-0.5-2.4,1.3-4.4,3.6-4.4
			h3.1c1.6,0,3-1.1,3.3-2.6c0.4-2.1-1.2-3.9-3.2-3.9h-2.8c-5.4,0-10.2,4.1-10.6,9.5c-0.4,5.9,4.3,10.9,10.2,10.9h6.1h13.4h1.8
			l-3.5,5.2c-0.4,0.5,0.1,1.3,0.7,1.2l23.5-5.7c0.5-0.1,0.4-0.9-0.1-0.9L379.8,177.3z"/>
		<rect x="359.1" y="187.2" class="st31" width="6.5" height="2"/>
		<path class="st8" d="M457.2,166.1c-0.3,0-0.7,0-1,0.1v0l-23.8,3.5c-2.4,0.2-4.3,2.3-4.3,4.7c0,2.6,2.1,4.7,4.7,4.7l24.3,0
			c3.6,0,6.5-2.9,6.5-6.5C463.7,169,460.8,166.1,457.2,166.1z"/>
		<pattern  id="SVGID_2_" xlink:href="#New_Pattern_Swatch_4" patternTransform="matrix(0.4198 0 0 0.4198 -6908.5303 -7835.0088)">
		</pattern>
		<path style="fill:url(#SVGID_2_);" d="M457.2,166.1c-0.3,0-0.7,0-1,0.1v0l-23.8,3.5c-2.4,0.2-4.3,2.3-4.3,4.7
			c0,2.6,2.1,4.7,4.7,4.7h24.3c3.6,0,6.5-2.9,6.5-6.5C463.7,169,460.8,166.1,457.2,166.1z"/>
		<path class="st61" d="M300.3,262.1l11.8-49.5c2.7,0.7,6.9,2.2,11.7,4.8c4.7,2.6,9,5.9,12.6,9.7c0.5,0.5,0.9,1,1.4,1.5v-9.2
			c-3.3-2.9-6.9-5.5-10.8-7.7c-5.4-3-10.3-4.6-13.3-5.5l2.5-10.5h21.6v-6.5h-20.1l4-16.9c0.4-1.7-0.5-1.1-2.2-1.6
			c-1.9-0.6-3.8-1.4-4.3,0.5l-4.3,18.1H205.2v6.5h104.2l-15.8,66.4h-30.9c-1.4-0.1-32-1.8-39.8-20.6c-3-7.2-7.1-13.5-12.2-18.9
			c-1.7-1.8-3.5-3.4-5.4-5v8.8c0.2,0.2,0.5,0.5,0.7,0.7c4.6,4.8,8.2,10.5,10.9,16.9c2.3,5.5,6.1,10.1,11.5,14
			c2.2,1.5,4.6,2.9,7.2,4.2h-30.4v6.5h90.9l0,0l0,0h41.6v-6.5H300.3z"/>
		<path class="st8" d="M326.8,166.1c-0.3,0-0.7,0-1,0.1v0l-23.8,3.5c-2.4,0.2-4.3,2.3-4.3,4.7c0,2.6,2.1,4.7,4.7,4.7h24.3
			c3.6,0,6.5-2.9,6.5-6.5C333.3,169,330.4,166.1,326.8,166.1z"/>
		<circle class="st8" cx="296.1" cy="265.4" r="9.5"/>
		<path class="st13" d="M296.1,278.2c-7,0-12.8-5.7-12.8-12.8c0-7,5.7-12.8,12.8-12.8s12.8,5.7,12.8,12.8
			C308.9,272.4,303.2,278.2,296.1,278.2z M296.1,259.2c-3.4,0-6.2,2.8-6.2,6.2c0,3.4,2.8,6.2,6.2,6.2c3.4,0,6.2-2.8,6.2-6.2
			C302.4,262,299.6,259.2,296.1,259.2z"/>
		<path class="st25" d="M408.1,249.8c0.8-0.3,1.7-0.3,2.4,0.3l17.4,13.5c1,0.8,1.2,2.3,0.4,3.3c-0.8,1-2.3,1.2-3.3,0.4l-17.4-13.5
			c-1-0.8-1.2-2.3-0.4-3.3C407.5,250.1,407.8,249.9,408.1,249.8z"/>
		<circle class="st8" cx="426.5" cy="265.4" r="7.1"/>
		<path class="st13" d="M426.5,278.2c-7,0-12.8-5.7-12.8-12.8c0-7,5.7-12.8,12.8-12.8c7,0,12.8,5.7,12.8,12.8
			C439.3,272.4,433.6,278.2,426.5,278.2z M426.5,259.2c-3.4,0-6.2,2.8-6.2,6.2c0,3.4,2.8,6.2,6.2,6.2c3.4,0,6.2-2.8,6.2-6.2
			C432.8,262,430,259.2,426.5,259.2z"/>
		<path class="st25" d="M444.9,281c-0.8,0.3-1.7,0.3-2.4-0.3l-17.4-13.5c-1-0.8-1.2-2.3-0.4-3.3c0.8-1,2.3-1.2,3.3-0.4l17.4,13.5
			c1,0.8,1.2,2.3,0.4,3.3C445.6,280.7,445.3,280.9,444.9,281z"/>
		<path class="st25" d="M306.7,287.1c-0.8,0-1.7-0.4-2.1-1.2l-10.5-19.4c-0.6-1.1-0.2-2.6,1-3.2c1.1-0.6,2.6-0.2,3.2,1l10.5,19.4
			c0.6,1.1,0.2,2.6-1,3.2C307.4,287.1,307,287.1,306.7,287.1z"/>
		<path class="st13" d="M73.4,309.2c-12,0-23.4-4.7-31.9-13.2c-8.5-8.5-13.2-19.8-13.2-31.9c0-12,4.7-23.4,13.2-31.9
			c8.5-8.5,19.8-13.2,31.9-13.2s23.4,4.7,31.9,13.2c8.5,8.5,13.2,19.8,13.2,31.9c0,12-4.7,23.4-13.2,31.9
			C96.8,304.5,85.4,309.2,73.4,309.2z M73.4,226.2c-10.1,0-19.6,3.9-26.8,11.1c-7.2,7.2-11.1,16.7-11.1,26.8
			c0,10.1,3.9,19.6,11.1,26.8c7.2,7.2,16.7,11.1,26.8,11.1c10.1,0,19.6-3.9,26.8-11.1c7.2-7.2,11.1-16.7,11.1-26.8
			c0-10.1-3.9-19.6-11.1-26.8C93,230.2,83.5,226.2,73.4,226.2z"/>
		<g>
			<path class="st57" d="M48.1,231.8c11.9-9.3,26.8-11.9,39.7-8.2c-13.4-4.7-28.9-2.8-40.9,6.6c-12,9.4-17.7,23.9-16.4,38.1
				C30.1,254.8,36.2,241,48.1,231.8z"/>
			<path class="st57" d="M116.3,260.2c0.4,13.4-5.7,27.2-17.6,36.5s-26.8,11.9-39.7,8.2c13.4,4.7,28.9,2.8,40.9-6.6
				C111.9,288.8,117.6,274.3,116.3,260.2z"/>
		</g>
		<path class="st27" d="M88.1,193.2c-1.8,0-3.3-1.5-3.3-3.3v-26.5h-6.6c-1.8,0-3.3-1.5-3.3-3.3s1.5-3.3,3.3-3.3h9.8
			c1.8,0,3.3,1.5,3.3,3.3V190C91.4,191.8,89.9,193.2,88.1,193.2z"/>
		<path class="st27" d="M73.4,268.7c-1,0-2-0.5-2.6-1.3c-1.1-1.5-0.7-3.5,0.7-4.5c5.3-3.8,9.3-13.6,11.6-28.3
			c1.8-11.5,1.8-21.8,1.8-21.9c0-1.8,1.5-3.3,3.3-3.3s3.3,1.5,3.3,3.3c0,0.4,0,10.9-1.9,22.9c-2.6,16.7-7.4,27.6-14.2,32.6
			C74.7,268.5,74.1,268.7,73.4,268.7z"/>
		<path class="st0" d="M93.7,195.8v12.1c2.5,0.9,5.3,2.2,8.3,3.9c5.3,2.9,10,6.6,14.1,10.9c5.1,5.4,9.2,11.7,12.2,18.9
			c6,14.5,25.6,18.9,34.9,20.1l15.7-65.9H93.7z"/>
		<path class="st0" d="M183.2,206.3c3.1,0.8,7.9,2.5,13.3,5.5c3.1,1.7,6,3.7,8.7,5.9v-21.9h-19.5L183.2,206.3z"/>
		<path class="st0" d="M193.3,217.4c-4.8-2.7-9-4.1-11.7-4.8l-11.8,49.5h35.4v-35.7C201.7,222.9,197.8,219.9,193.3,217.4z"/>
		<path class="st27" d="M169.9,262.1l11.8-49.5c2.7,0.7,6.9,2.2,11.7,4.8c4.4,2.5,8.4,5.5,11.9,9v-8.8c-2.7-2.2-5.6-4.2-8.7-5.9
			c-5.4-3-10.3-4.6-13.3-5.5l2.5-10.5h19.5v-6.5h-18l4-16.9c0.4-1.7-0.4-3.5-2-4c-1.9-0.6-3.8,0.5-4.2,2.3l-4.4,18.6H84.8
			c-1.8,0-3.3,1.5-3.3,3.3v16.2c0,1.6,1.2,3,2.8,3.2c0.1,0,6.8,1.1,14.8,5.6c4.7,2.6,8.9,5.9,12.5,9.7c4.5,4.8,8.1,10.4,10.8,16.8
			c2.3,5.5,6.1,10.1,11.5,14c4.2,3,9.3,5.4,15.2,7.2c9.9,3.1,18.5,3.4,18.9,3.4c0,0,0.1,0,0.1,0h37.1v-6.5H169.9z M163.3,261.7
			c-9.3-1.2-28.9-5.6-34.9-20.1c-3-7.2-7.1-13.5-12.2-18.9c-4.1-4.3-8.9-8-14.1-10.9c-3-1.7-5.9-2.9-8.3-3.9v-12.1H179L163.3,261.7z
			"/>
		<path class="st8" d="M196.3,166.1c-0.3,0-0.7,0-1,0.1l0,0l-23.8,3.5c-2.4,0.2-4.3,2.3-4.3,4.7c0,2.6,2.1,4.7,4.7,4.7h24.3
			c3.6,0,6.5-2.9,6.5-6.5C202.9,169,199.9,166.1,196.3,166.1z"/>
		<pattern  id="SVGID_4_" xlink:href="#New_Pattern_Swatch_4" patternTransform="matrix(0.4198 0 0 0.4198 -6912.8516 -7835.0088)">
		</pattern>
		<path style="fill:url(#SVGID_4_);" d="M326.8,166.1c-0.3,0-0.7,0-1,0.1v0l-23.8,3.5c-2.4,0.2-4.3,2.3-4.3,4.7
			c0,2.6,2.1,4.7,4.7,4.7h24.3c3.6,0,6.5-2.9,6.5-6.5C333.3,169,330.4,166.1,326.8,166.1z"/>
		<pattern  id="SVGID_6_" xlink:href="#New_Pattern_Swatch_4" patternTransform="matrix(0.4198 0 0 0.4198 -6923.5283 -7835.0088)">
		</pattern>
		<path style="fill:url(#SVGID_6_);" d="M196.3,166.1c-0.3,0-0.7,0-1,0.1l0,0l-23.8,3.5c-2.4,0.2-4.3,2.3-4.3,4.7
			c0,2.6,2.1,4.7,4.7,4.7h24.3c3.6,0,6.5-2.9,6.5-6.5C202.9,169,199.9,166.1,196.3,166.1z"/>
		<rect x="80.3" y="194.8" class="st13" width="1.3" height="12"/>
		<path class="st13" d="M81.5,194.8v12c2,0,3.6-2.7,3.6-6C85.1,197.5,83.5,194.8,81.5,194.8z"/>
		<path class="st61" d="M105.6,177.3l3.7-5.3c0.3-0.5-0.1-1.1-0.6-1.1h-26l0,0h-7.3c-1.8,0-3.4-1.2-3.8-3c-0.5-2.4,1.3-4.4,3.6-4.4
			h3.1c1.6,0,3-1.1,3.3-2.6c0.4-2.1-1.2-3.9-3.2-3.9h-2.8c-5.4,0-10.2,4.1-10.6,9.5c-0.4,5.9,4.3,10.9,10.2,10.9h6.1h13.4h1.8
			l-3.5,5.2c-0.4,0.5,0.1,1.3,0.7,1.2l23.5-5.7c0.5-0.1,0.4-0.9-0.1-0.9L105.6,177.3z"/>
		<path class="st25" d="M80.8,153.9h3.4c0.7,0,1.3-0.6,1.3-1.3v-1.2c0-0.7-0.6-1.3-1.3-1.3l0,0c-0.7,0-1.3,0.6-1.3,1.3v0.9h-2.1"/>
		<g>
			<polygon class="st25" points="75.4,163.4 75.4,163.5 75.4,163.5 			"/>
			<polygon class="st25" points="75.4,156.9 75.4,156.9 75.4,156.9 			"/>
			<path class="st25" d="M77.4,156.9L77.4,156.9l-2,0c1.8,0,3.3,1.5,3.3,3.3c0,1.8-1.5,3.3-3.3,3.3h2c1.8,0,3.3-1.5,3.3-3.3
				C80.7,158.4,79.2,156.9,77.4,156.9z"/>
		</g>
		<path class="st64" d="M76.6,148.8c-2.8,0-5,2.2-5,5h10C81.7,151.1,79.4,148.8,76.6,148.8z"/>
		<path class="st25" d="M82.1,155.7h-11c-0.2,0-0.3-0.1-0.3-0.3v-1.2c0-0.2,0.1-0.3,0.3-0.3h11c0.2,0,0.3,0.1,0.3,0.3v1.2
			C82.4,155.5,82.3,155.7,82.1,155.7z"/>
		<rect x="75.6" y="155.7" class="st25" width="2" height="1.3"/>
		<g>
			<rect x="84.9" y="187.2" class="st61" width="6.5" height="2"/>
			<path class="st61" d="M84.9,212l0,2.1l6.5,1.9l0.1-2C88.4,212.9,84.9,212,84.9,212z"/>
		</g>
		<path class="st61" d="M93.7,195.8h-4v11.1c0,0,2,0.4,4,1.1"/>
		<path class="st65" d="M457.8,162c-0.1,0-0.1,0-0.2,0c-4.7-2.6-5.9-8-6-8.2c0-0.2,0.1-0.3,0.2-0.4c0.2,0,0.3,0.1,0.4,0.2
			c0,0.1,1.2,5.3,5.6,7.8c0.2,0.1,0.2,0.3,0.1,0.4C458.1,161.9,458,162,457.8,162z"/>
		<path class="st58" d="M455.8,267.4c-0.2-0.6-5.4-13.9-8.6-32.8c-3-17.5-4.7-43.1,4-65.9l3.5,1.3c-16,42.1,4.4,95.4,4.6,96
			L455.8,267.4z"/>
		<path class="st13" d="M403.5,249.4h12.4c0.4,0,0.8,0.3,0.8,0.8v3.1c0,0.4-0.3,0.8-0.8,0.8h-12.4c-0.4,0-0.8-0.3-0.8-0.8v-3.1
			C402.7,249.7,403,249.4,403.5,249.4z"/>
		<g>
			<path class="st66" d="M416.8,239.8c0,0-2.8,2.3-4.5,1.5s-2.8-1.3-2.8-1.3s-0.9,1.6-2.7,1.8c-1.8,0.2-11.2,1.3-12.8,2.9
				s-1.6,3.6-1.6,3.6l25.1-0.3C417.7,248,417.5,240.8,416.8,239.8z"/>
			<path class="st67" d="M417.7,248l-25.1,0.3c0,0-0.8,0,0.2,1l25,0.1L417.7,248z"/>
		</g>
		<path class="st13" d="M517.8,29.8c-2,0-3.6,1.6-3.6,3.6c0,0.8,0.3,1.6,0.8,2.2c-4.8,10.2-12.1,28.6-15.4,44.3
			c-3,13.7-5.3,29.3-7.1,46.6c-3,29.3-3.1,53.3-3.1,53.6c0,1.2-1,2.3-2.3,2.3h-33.2l0.1-0.6c0.1-0.5,0-1-0.3-1.3
			c-0.3-0.4-0.7-0.6-1.2-0.6h-9.3c-0.7,0-1.3,0.5-1.5,1.2l-1.2,5c-0.1,0.5,0,1,0.3,1.3c0.3,0.4,0.7,0.6,1.2,0.6h9.3
			c0.7,0,1.3-0.5,1.5-1.2l0.3-1.3h34c3,0,5.4-2.4,5.4-5.4c0-0.2,0.1-24.1,3-53.3c1.7-17.1,4.1-32.7,7-46.2
			C505.9,65.2,513,47,517.7,37c0,0,0,0,0,0c2,0,3.6-1.6,3.6-3.6S519.7,29.8,517.8,29.8z"/>
		
			<rect x="286.5" y="225.3" transform="matrix(0.9672 -0.2541 0.2541 0.9672 -49.2694 80.869)" class="st58" width="3.8" height="11.7"/>
		<path class="st68" d="M372.8,204.8l-2.9-3.5l8.9-3.5c0,0,3.3,1.9,3.1,4.2L372.8,204.8z"/>
		<path class="st25" d="M292.7,234c0,0-2.8,2.3-4.5,1.5c-1.8-0.8-2.8-1.3-2.8-1.3s-0.9,1.6-2.7,1.8c-1.8,0.2-11.2,1.3-12.8,2.9
			s-1.6,3.6-1.6,3.6l25.1-0.3C293.5,242.3,293.4,235,292.7,234z"/>
		<path class="st69" d="M451.9,210.8c0.6-10.2,3.1-20.1,5.7-30c2.7-10.1,4.1-22.1,4.3-31.1c-11.1,0-23.2,0.3-34.3,0.3
			c0.1,2.5-0.2,5.1-1,7.5c-0.7,2.4-1.9,4.6-3.4,6.6c-2.9,3.8-7,6.5-10.5,9.9c-3.9,3.8-6.9,8.4-8.6,13.5c-2.6,7.7-1.9,16.1-0.4,24.1
			c1.4,7.2,3.6,14.3,4.7,21.6c0.1,0.5,0,1.6,0.3,2c0.4,0.4,1.2,0.1,1.6,0.1c1.6-0.2,3.1-0.5,4.7-0.7c-1-6.8-2-13.5-3-20.3
			c-1.3-8.8-2.5-18.3,1.3-26.3c2.4-5,6.6-9,11.2-12.2c1.2-0.8,2.4-1.6,3.7-2.4c0.4-2,2.1-3.6,4.2-3.8l6.5-1v0
			c1.2-0.3,2.4-0.5,3.6-0.3c1.9,0.2,3.7,1.2,4.5,2.9c0.8,1.9,0.2,4-0.4,6c-4,13.4-4.8,27.6-3.6,41.5c1.2,13.9,4.4,27.6,8.5,41
			c2.2-0.7,4.5-1.5,6.7-2.2C454.6,242.3,450.9,226.6,451.9,210.8z"/>
		<path class="st67" d="M293.5,242.3l-25.1,0.3c0,0-0.8,0,0.2,1l25,0.1L293.5,242.3z"/>
		<path class="st13" d="M279.6,243.7H292c0.4,0,0.8,0.3,0.8,0.8v3.1c0,0.4-0.3,0.8-0.8,0.8h-12.4c-0.4,0-0.8-0.3-0.8-0.8v-3.1
			C278.8,244,279.2,243.7,279.6,243.7z"/>
		<path class="st13" d="M300.6,282.6h12.4c0.4,0,0.8,0.3,0.8,0.8v3.1c0,0.4-0.3,0.8-0.8,0.8h-12.4c-0.4,0-0.8-0.3-0.8-0.8v-3.1
			C299.9,282.9,300.2,282.6,300.6,282.6z"/>
		<path class="st13" d="M436.8,279.3l11.9-3.7c0.4-0.1,0.8,0.1,1,0.5l0.9,2.9c0.1,0.4-0.1,0.8-0.5,1l-11.9,3.7
			c-0.4,0.1-0.8-0.1-1-0.5l-0.9-2.9C436.1,279.9,436.4,279.4,436.8,279.3z"/>
		<g>
			<path class="st66" d="M459.4,262.3c0,0-2,3-3.9,2.8c-1.9-0.2-3-0.4-3-0.4s-0.4,1.8-2,2.6c-1.6,0.8-10.3,4.6-11.3,6.6
				c-1,1.9-0.4,3.9-0.4,3.9l23.9-7.8C462.6,269.9,460.3,263,459.4,262.3z"/>
			<path class="st67" d="M462.6,269.9l-23.9,7.8c0,0-0.7,0.3,0.5,0.9l23.9-7.3L462.6,269.9z"/>
		</g>
		<path class="st65" d="M454.6,163.8c-0.1,0-0.1,0-0.2,0c-4.7-2.6-5.9-8-6-8.2c0-0.2,0.1-0.3,0.2-0.4c0.2,0,0.3,0.1,0.4,0.2
			c0,0.1,1.2,5.3,5.6,7.8c0.2,0.1,0.2,0.3,0.1,0.4C454.8,163.8,454.7,163.8,454.6,163.8z"/>
		
			<rect x="428.7" y="135.5" transform="matrix(-0.6644 0.7474 -0.7474 -0.6644 820.507 -90.2308)" class="st70" width="3.6" height="7.3"/>
		
			<rect x="407.9" y="231.9" transform="matrix(0.9869 -0.1613 0.1613 0.9869 -32.3287 69.4836)" class="st71" width="7.5" height="3.8"/>
		
			<rect x="450.2" y="255.3" transform="matrix(0.9412 -0.338 0.338 0.9412 -60.1641 168.735)" class="st71" width="8.5" height="3.8"/>
		<path class="st72" d="M426.2,152.5l35.6-1.1c0.1-0.1,1.3-36-6.9-64.4c-0.9-3.3-4.3-5.2-7.6-4.4L422.7,89c-3.3,0.9-5.3,4.2-4.5,7.5
			C422.2,113.5,426.6,125.9,426.2,152.5z"/>
		<path class="st73" d="M425.8,88.3l11.9-3.3c0.2,0,0.2-0.2,0.2-0.4l-0.3-1.1c0-0.2-0.2-0.2-0.4-0.2l-11.9,3.3
			c-0.2,0-0.2,0.2-0.2,0.4l0.3,1.1C425.5,88.2,425.7,88.3,425.8,88.3z"/>
		<path class="st65" d="M427.8,95.6C427.8,95.6,427.8,95.6,427.8,95.6c-0.1,0-0.2-0.1-0.2-0.1c0-0.1,0-0.2,0.1-0.3
			c0.1-0.1,0.1-0.2,0.2-0.4c0-0.1,0.1-0.1,0.2-0.1c0.1,0,0.1,0.1,0.1,0.2c0,0.2-0.1,0.4-0.2,0.5c0,0,0,0,0,0.1
			C427.9,95.4,427.9,95.5,427.8,95.6C427.9,95.5,427.9,95.6,427.8,95.6z M427.8,95.3L427.8,95.3L427.8,95.3z M428.2,95.4
			c-0.1,0-0.1,0-0.1-0.1c0-0.1,0-0.1,0-0.2c0.1-0.1,0.3-0.2,0.6-0.4c0.1,0,0.1,0,0.2,0c0,0.1,0,0.1,0,0.2
			C428.6,95.1,428.4,95.3,428.2,95.4C428.2,95.4,428.2,95.4,428.2,95.4z M429.1,94.7c-0.1,0-0.1,0-0.1,0c0-0.1,0-0.1,0-0.2
			c0.2-0.1,0.4-0.3,0.6-0.4c0.1,0,0.1,0,0.2,0c0,0.1,0,0.1,0,0.2C429.6,94.5,429.4,94.6,429.1,94.7
			C429.2,94.7,429.2,94.7,429.1,94.7z M430.1,94.1c-0.1,0-0.1,0-0.1,0c0-0.1,0-0.1,0-0.2c0.2-0.1,0.4-0.3,0.6-0.4c0.1,0,0.1,0,0.2,0
			c0,0.1,0,0.1,0,0.2C430.5,93.8,430.3,93.9,430.1,94.1C430.1,94.1,430.1,94.1,430.1,94.1z M428.1,94.5
			C428.1,94.5,428.1,94.5,428.1,94.5c-0.1,0-0.2-0.1-0.2-0.1c0-0.2,0-0.4,0-0.7c0-0.1,0.1-0.1,0.1-0.1c0.1,0,0.1,0.1,0.1,0.1
			c0,0.3,0,0.5,0,0.7C428.2,94.4,428.2,94.5,428.1,94.5z M431,93.4c-0.1,0-0.1,0-0.1,0c0-0.1,0-0.1,0-0.2c0.2-0.1,0.4-0.3,0.6-0.4
			c0.1,0,0.1,0,0.2,0s0,0.1,0,0.2C431.4,93.1,431.2,93.3,431,93.4C431,93.4,431,93.4,431,93.4z M431.9,92.8c-0.1,0-0.1,0-0.1-0.1
			c0-0.1,0-0.1,0-0.2c0.2-0.1,0.4-0.3,0.6-0.4c0.1,0,0.1,0,0.2,0c0,0.1,0,0.1,0,0.2C432.3,92.5,432.1,92.6,431.9,92.8
			C431.9,92.8,431.9,92.8,431.9,92.8z M432.9,92.2c-0.1,0-0.1,0-0.1-0.1c0-0.1,0-0.1,0-0.2c0.2-0.1,0.4-0.3,0.6-0.4
			c0.1,0,0.1,0,0.2,0c0,0.1,0,0.1,0,0.2C433.3,91.9,433.1,92,432.9,92.2C432.9,92.1,432.9,92.1,432.9,92.2z M428.1,93.4
			C428.1,93.4,428.1,93.4,428.1,93.4c-0.1,0-0.2,0-0.2-0.1c0-0.2,0-0.4-0.1-0.7c0-0.1,0-0.1,0.1-0.1c0.1,0,0.1,0,0.1,0.1
			c0,0.2,0.1,0.5,0.1,0.7C428.2,93.3,428.1,93.4,428.1,93.4z M433.9,91.6c-0.1,0-0.1,0-0.1-0.1c0-0.1,0-0.1,0.1-0.2
			c0.2-0.1,0.4-0.2,0.6-0.2c0.1,0,0.1,0,0.2,0.1c0,0.1,0,0.1-0.1,0.2C434.3,91.4,434.1,91.5,433.9,91.6
			C433.9,91.6,433.9,91.6,433.9,91.6z M428,92.2L428,92.2c-0.1,0-0.2,0-0.2-0.1c0-0.2-0.1-0.5-0.1-0.7c0-0.1,0-0.1,0.1-0.1
			c0.1,0,0.1,0,0.1,0.1c0,0.2,0.1,0.5,0.1,0.7C428.1,92.2,428,92.2,428,92.2z M427.8,91.1C427.8,91.1,427.8,91.1,427.8,91.1
			c-0.1,0-0.1,0-0.2-0.1c0-0.2-0.1-0.5-0.1-0.7c0-0.1,0-0.1,0.1-0.2c0.1,0,0.1,0,0.2,0.1c0,0.2,0.1,0.4,0.1,0.7
			C427.9,91,427.8,91.1,427.8,91.1z M427.6,90L427.6,90c-0.1,0-0.1,0-0.2-0.1c-0.1-0.4-0.2-0.7-0.2-0.7c0-0.1,0-0.1,0.1-0.2
			c0.1,0,0.1,0,0.2,0.1c0,0,0.1,0.3,0.2,0.7C427.7,89.9,427.6,90,427.6,90z"/>
		<path class="st65" d="M442.3,91.6c0,0-0.1,0-0.1,0c0,0,0,0,0-0.1c0,0,0,0-0.1,0c-0.1-0.1-0.3-0.2-0.4-0.3c0-0.1,0-0.1,0-0.2
			c0.1,0,0.1,0,0.2,0c0.1,0.1,0.2,0.2,0.3,0.3c0.1,0.1,0.2,0.1,0.2,0.2C442.4,91.5,442.4,91.5,442.3,91.6
			C442.3,91.6,442.3,91.6,442.3,91.6z M442.2,91.5L442.2,91.5L442.2,91.5z M442.2,91.4L442.2,91.4L442.2,91.4z M441.9,91.6
			C441.8,91.7,441.8,91.7,441.9,91.6c-0.2,0-0.4,0-0.7,0c-0.1,0-0.1-0.1-0.1-0.1c0-0.1,0.1-0.1,0.1-0.1c0.3,0,0.5,0,0.7,0
			c0.1,0,0.1,0.1,0.1,0.1C441.9,91.6,441.9,91.6,441.9,91.6z M440.7,91.6C440.7,91.6,440.7,91.6,440.7,91.6c-0.3,0-0.5,0-0.7-0.1
			c-0.1,0-0.1-0.1-0.1-0.1c0-0.1,0.1-0.1,0.1-0.1c0.2,0,0.5,0,0.7,0.1c0.1,0,0.1,0.1,0.1,0.1C440.8,91.5,440.8,91.6,440.7,91.6z
			 M439.6,91.5C439.6,91.5,439.6,91.5,439.6,91.5c-0.3,0-0.5,0-0.7-0.1c-0.1,0-0.1-0.1-0.1-0.1s0.1-0.1,0.1-0.1c0.2,0,0.5,0,0.7,0.1
			c0.1,0,0.1,0.1,0.1,0.1C439.7,91.4,439.6,91.5,439.6,91.5z M441.5,90.8c-0.1,0-0.1,0-0.1-0.1c-0.1-0.2-0.2-0.4-0.4-0.6
			c0-0.1,0-0.1,0.1-0.2c0.1,0,0.1,0,0.2,0.1c0.1,0.2,0.2,0.4,0.4,0.6C441.6,90.7,441.6,90.8,441.5,90.8
			C441.5,90.8,441.5,90.8,441.5,90.8z M438.5,91.4C438.4,91.4,438.4,91.4,438.5,91.4c-0.3,0-0.5,0-0.7,0c-0.1,0-0.1-0.1-0.1-0.1
			c0-0.1,0.1-0.1,0.1-0.1c0.2,0,0.5,0,0.7,0.1c0.1,0,0.1,0.1,0.1,0.1C438.6,91.3,438.5,91.4,438.5,91.4z M437.3,91.3
			C437.3,91.3,437.3,91.3,437.3,91.3c-0.3,0-0.5,0-0.7,0c-0.1,0-0.1-0.1-0.1-0.1c0-0.1,0.1-0.1,0.1-0.1c0.2,0,0.5,0,0.7,0
			c0.1,0,0.1,0.1,0.1,0.1C437.4,91.2,437.4,91.3,437.3,91.3z M436.2,91.2C436.2,91.2,436.2,91.2,436.2,91.2c-0.3,0-0.5,0-0.7,0
			c-0.1,0-0.1-0.1-0.1-0.1s0.1-0.1,0.1-0.1c0.2,0,0.4,0,0.7,0c0.1,0,0.1,0.1,0.1,0.1C436.3,91.2,436.3,91.2,436.2,91.2z M440.9,89.9
			c-0.1,0-0.1,0-0.1-0.1c-0.1-0.2-0.2-0.4-0.3-0.6c0-0.1,0-0.1,0.1-0.2c0.1,0,0.1,0,0.2,0.1c0.1,0.2,0.2,0.4,0.3,0.6
			C441,89.7,441,89.8,440.9,89.9C440.9,89.8,440.9,89.8,440.9,89.9z M435.1,91.3C435.1,91.3,435.1,91.3,435.1,91.3
			c-0.3,0-0.5,0.1-0.6,0.1c-0.1,0-0.1,0-0.2-0.1c0-0.1,0-0.1,0.1-0.2l0,0c0.2,0,0.4-0.1,0.6-0.1c0.1,0,0.1,0,0.1,0.1
			C435.2,91.2,435.1,91.2,435.1,91.3z M440.5,88.8c-0.1,0-0.1,0-0.2-0.1c-0.1-0.2-0.2-0.4-0.3-0.6c0-0.1,0-0.1,0.1-0.2
			c0.1,0,0.1,0,0.2,0.1c0.1,0.2,0.2,0.4,0.3,0.6C440.6,88.7,440.5,88.8,440.5,88.8L440.5,88.8z M440,87.8c-0.1,0-0.1,0-0.2-0.1
			c-0.1-0.2-0.2-0.5-0.2-0.7c0-0.1,0-0.1,0.1-0.2c0.1,0,0.1,0,0.2,0.1c0.1,0.2,0.2,0.4,0.2,0.7C440.2,87.7,440.1,87.7,440,87.8
			C440.1,87.8,440.1,87.8,440,87.8z M439.7,86.7c-0.1,0-0.1,0-0.2-0.1c-0.1-0.4-0.2-0.7-0.2-0.7c0-0.1,0-0.1,0.1-0.2
			c0.1,0,0.1,0,0.2,0.1c0,0,0.1,0.3,0.2,0.7C439.8,86.6,439.7,86.7,439.7,86.7L439.7,86.7z"/>
		<path class="st72" d="M423.7,97.2l-10.3,15.6l-6.3-4.2L417.4,93c1.1-1.7,3.5-2.2,5.2-1.1v0C424.4,93.1,424.8,95.4,423.7,97.2z"/>
		
			<rect x="406.8" y="108.2" transform="matrix(-0.8342 -0.5515 0.5515 -0.8342 693.2156 427.8835)" class="st24" width="8.2" height="3.1"/>
		
			<rect x="412.9" y="100.3" transform="matrix(-0.5515 0.8342 -0.8342 -0.5515 730.1118 -184.7076)" class="st24" width="3.6" height="7.3"/>
		<path class="st72" d="M417,93.6c0,0,2-3.7,5.5-4.6l-0.3,5.5l-5,4.3"/>
		<path class="st59" d="M358.5,156.9h3.5c0,0,2.5-0.1,3.3,1.9c0.9,2.4-3.4,2.7-3.4,2.7"/>
		<rect x="433.4" y="81.3" class="st74" width="1.6" height="8"/>
		<path class="st65" d="M326.2,161.8c0,0-0.1,0-0.2,0c-5.3-0.9-8.3-5.5-8.4-5.7c-0.1-0.1,0-0.3,0.1-0.4c0.1-0.1,0.3,0,0.4,0.1
			c0,0,2.9,4.5,8,5.4c0.2,0,0.3,0.2,0.3,0.4C326.4,161.7,326.3,161.8,326.2,161.8z"/>
		<path class="st24" d="M434.7,105.5l-2.5,14.5c0,0.2,0.1,0.4,0.3,0.3l5.6-0.9c0.2,0,0.4,0.1,0.3,0.3l-1.1,12.6
			c0,0.3,0.3,0.4,0.5,0.1L449,111c0.1-0.2-0.1-0.5-0.3-0.4l-5.6,1.1c-0.2,0-0.4-0.1-0.3-0.3l1.3-7.1c0-0.2-0.1-0.4-0.3-0.3l-8.8,1.4
			C434.8,105.3,434.7,105.4,434.7,105.5z"/>
		
			<rect x="147.5" y="231.6" transform="matrix(0.946 -0.324 0.324 0.946 -68.8761 61.2243)" class="st58" width="3.8" height="11.7"/>
		<path class="st25" d="M145.9,250.5c0.7-0.4,1.7-0.4,2.4,0.1l18.4,12.2c1.1,0.7,1.4,2.2,0.6,3.2c-0.7,1.1-2.2,1.4-3.2,0.6
			l-18.4-12.2c-1.1-0.7-1.4-2.2-0.6-3.2C145.3,251,145.6,250.7,145.9,250.5z"/>
		<circle class="st8" cx="165.7" cy="265.4" r="7.1"/>
		<path class="st13" d="M165.7,278.2c-7,0-12.8-5.7-12.8-12.8c0-7,5.7-12.8,12.8-12.8c7,0,12.8,5.7,12.8,12.8
			C178.5,272.4,172.7,278.2,165.7,278.2z M165.7,259.2c-3.4,0-6.2,2.8-6.2,6.2c0,3.4,2.8,6.2,6.2,6.2s6.2-2.8,6.2-6.2
			C172,262,169.2,259.2,165.7,259.2z"/>
		<path class="st25" d="M184.9,279.1c-0.7,0.4-1.7,0.4-2.4-0.1l-18.4-12.2c-1.1-0.7-1.4-2.2-0.6-3.2c0.7-1.1,2.2-1.4,3.2-0.6
			l18.4,12.2c1.1,0.7,1.4,2.2,0.6,3.2C185.5,278.6,185.2,278.9,184.9,279.1z"/>
		<path class="st65" d="M189.1,159.4c-0.1,0-0.1,0-0.2,0c-4.9-2.3-6.5-7.5-6.5-7.7c0-0.2,0-0.3,0.2-0.4c0.2-0.1,0.3,0,0.4,0.2
			c0,0.1,1.6,5.2,6.2,7.3c0.2,0.1,0.2,0.3,0.2,0.4C189.3,159.3,189.2,159.4,189.1,159.4z"/>
		<path class="st58" d="M194.7,264.6c-0.3-0.5-6.4-13.5-10.9-32.1c-4.2-17.2-7.8-42.7-0.8-66l3.6,1.1
			c-12.9,43.2,11.3,94.8,11.6,95.4L194.7,264.6z"/>
		<path class="st13" d="M141.2,250.5l12.4-0.9c0.4,0,0.8,0.3,0.8,0.7l0.2,3.1c0,0.4-0.3,0.8-0.7,0.8l-12.4,0.9
			c-0.4,0-0.8-0.3-0.8-0.7l-0.2-3.1C140.5,250.9,140.8,250.5,141.2,250.5z"/>
		<path class="st25" d="M153.9,240c0,0-2.6,2.5-4.4,1.8c-1.8-0.7-2.8-1.1-2.8-1.1s-0.8,1.7-2.6,2c-1.8,0.4-11.1,2.1-12.5,3.8
			s-1.3,3.7-1.3,3.7l25-2.1C155.3,248.1,154.6,240.9,153.9,240z"/>
		<path class="st75" d="M155.3,248.1l-25,2.1c0,0-0.8,0.1,0.3,1l24.9-1.7L155.3,248.1z"/>
		<path class="st66" d="M157.6,157.3c-0.6,2.4-1.6,4.8-2.9,6.8c-2.6,4-6.5,7-9.7,10.6c-3.6,4-6.3,8.9-7.6,14.1
			c-2,7.9-0.7,16.2,1.4,24.1c1.9,7.1,4.6,14,6.3,21.2c0.1,0.5,0.1,1.6,0.5,1.9c0.4,0.4,1.2,0,1.6-0.1c1.5-0.3,3.1-0.7,4.6-1
			c-1.5-6.7-3-13.4-4.5-20c-2-8.7-3.9-18-0.6-26.3c2-5.2,5.9-9.4,10.2-13c3.6-3,7.6-5.6,12-7.5c1.7-0.7,3.5-1.4,5.4-1.3
			c1.9,0.1,3.8,1,4.7,2.6c1,1.8,0.5,4,0,6c-3,13.7-2.8,27.9-0.6,41.7s6.4,27.2,11.5,40.3c2.2-0.9,4.4-1.8,6.5-2.7
			c-4.8-15.1-9.5-30.4-9.8-46.2c-0.1-10.2,1.6-20.3,3.5-30.3c2-10.2,2.5-22.3,2.1-31.3c-11.1,0.8-23.1,1.9-34.2,2.8
			C158.4,152.2,158.2,154.8,157.6,157.3z"/>
		<rect x="133.5" y="189.2" class="st27" width="18.2" height="6.5"/>
		<path class="st25" d="M197.9,259.3c0,0-1.7,3.1-3.7,3c-1.9-0.1-3-0.2-3-0.2s-0.3,1.8-1.8,2.7s-9.9,5.4-10.8,7.4
			c-0.9,2-0.1,3.9-0.1,3.9l23.3-9.5C201.7,266.7,198.9,260,197.9,259.3z"/>
		<path class="st75" d="M201.7,266.7l-23.3,9.5c0,0-0.7,0.3,0.6,0.8l23.3-9.1L201.7,266.7z"/>
		<path class="st65" d="M188.3,159.3c-0.1,0-0.1,0-0.2,0c-5.2-1.3-7.8-6.1-7.9-6.3c-0.1-0.2,0-0.3,0.1-0.4c0.2-0.1,0.3,0,0.4,0.1
			c0,0,2.6,4.8,7.5,6c0.2,0,0.3,0.2,0.2,0.4C188.5,159.2,188.4,159.3,188.3,159.3z"/>
		
			<rect x="158.3" y="134.9" transform="matrix(-0.608 0.7939 -0.7939 -0.608 367.5057 95.6438)" class="st70" width="3.6" height="7.3"/>
		
			<rect x="144.5" y="232.5" transform="matrix(0.9725 -0.233 0.233 0.9725 -50.5245 40.9983)" class="st66" width="7.5" height="3.8"/>
		
			<rect x="188.4" y="252.6" transform="matrix(0.914 -0.4058 0.4058 0.914 -86.7084 100.0871)" class="st66" width="8.5" height="3.8"/>
		<path class="st8" d="M156.8,152.2l36-3.8c0.1-0.1-1.9-35.9-12.1-63.7c-1.2-3.2-4.7-4.9-7.9-3.8l-24.2,8.3c-3.2,1.1-5,4.6-3.9,7.8
			C150,113.6,155.3,125.7,156.8,152.2z"/>
		<path class="st65" d="M154.3,95.3C154.3,95.3,154.2,95.3,154.3,95.3c-0.1,0-0.2,0-0.2-0.1c0-0.1,0-0.2,0.1-0.3
			c0.1-0.1,0.1-0.2,0.1-0.4c0-0.1,0.1-0.1,0.1-0.1c0.1,0,0.1,0.1,0.1,0.1c0,0.2-0.1,0.4-0.2,0.5c0,0,0,0,0,0.1
			C154.4,95.2,154.4,95.2,154.3,95.3C154.4,95.3,154.3,95.3,154.3,95.3z M154.3,95.1L154.3,95.1L154.3,95.1z M154.7,95.1
			c-0.1,0-0.1,0-0.1,0c0-0.1,0-0.1,0-0.2c0.1-0.1,0.3-0.2,0.5-0.4c0.1,0,0.1,0,0.2,0c0,0.1,0,0.1,0,0.2
			C155,94.8,154.8,95,154.7,95.1C154.7,95.1,154.7,95.1,154.7,95.1z M155.5,94.4c0,0-0.1,0-0.1,0c0-0.1,0-0.1,0-0.2
			c0.2-0.1,0.3-0.3,0.5-0.4c0.1,0,0.1,0,0.2,0c0,0.1,0,0.1,0,0.2C155.9,94.1,155.7,94.2,155.5,94.4
			C155.6,94.4,155.6,94.4,155.5,94.4z M156.4,93.7c0,0-0.1,0-0.1,0c0-0.1,0-0.1,0-0.2c0.2-0.1,0.4-0.3,0.5-0.4c0.1,0,0.1,0,0.2,0
			c0,0.1,0,0.1,0,0.2C156.8,93.4,156.6,93.5,156.4,93.7C156.4,93.7,156.4,93.7,156.4,93.7z M154.5,94.2
			C154.5,94.2,154.5,94.2,154.5,94.2c-0.1,0-0.2,0-0.2-0.1c0-0.2,0-0.4,0-0.7c0-0.1,0-0.1,0.1-0.1c0.1,0,0.1,0,0.1,0.1
			c0,0.3,0,0.5,0,0.7C154.6,94.2,154.5,94.2,154.5,94.2z M157.3,92.9c0,0-0.1,0-0.1,0c0-0.1,0-0.1,0-0.2c0.2-0.1,0.4-0.3,0.5-0.4
			c0.1,0,0.1,0,0.2,0s0,0.1,0,0.2C157.7,92.6,157.5,92.8,157.3,92.9C157.3,92.9,157.3,92.9,157.3,92.9z M158.2,92.2
			c-0.1,0-0.1,0-0.1,0c0-0.1,0-0.1,0-0.2c0.2-0.1,0.4-0.3,0.6-0.4c0.1,0,0.1,0,0.2,0c0,0.1,0,0.1,0,0.2
			C158.6,91.9,158.4,92.1,158.2,92.2C158.2,92.2,158.2,92.2,158.2,92.2z M159.1,91.5c-0.1,0-0.1,0-0.1,0c0-0.1,0-0.1,0-0.2
			c0.2-0.2,0.4-0.3,0.6-0.4c0.1,0,0.1,0,0.2,0c0,0.1,0,0.1,0,0.2C159.5,91.2,159.3,91.4,159.1,91.5
			C159.1,91.5,159.1,91.5,159.1,91.5z M154.4,93.1C154.4,93.1,154.4,93.1,154.4,93.1c-0.1,0-0.2,0-0.2-0.1c0-0.2-0.1-0.4-0.1-0.7
			c0-0.1,0-0.1,0.1-0.1c0.1,0,0.1,0,0.1,0.1c0,0.2,0.1,0.5,0.1,0.7C154.5,93,154.4,93.1,154.4,93.1z M160,90.9c-0.1,0-0.1,0-0.2-0.1
			c0-0.1,0-0.1,0-0.2c0.2-0.1,0.4-0.2,0.6-0.3c0.1,0,0.1,0,0.2,0.1s0,0.1-0.1,0.2C160.4,90.7,160.2,90.8,160,90.9
			C160,90.9,160,90.9,160,90.9z M154.2,92L154.2,92c-0.1,0-0.2,0-0.2-0.1c0-0.2-0.1-0.4-0.2-0.7c0-0.1,0-0.1,0.1-0.2
			c0.1,0,0.1,0,0.2,0.1c0.1,0.2,0.1,0.5,0.2,0.7C154.3,91.9,154.2,92,154.2,92z M153.9,90.9L153.9,90.9c-0.1,0-0.1,0-0.2-0.1
			c-0.1-0.2-0.1-0.5-0.2-0.7c0-0.1,0-0.1,0.1-0.2c0.1,0,0.1,0,0.2,0.1c0.1,0.2,0.1,0.4,0.2,0.7C154,90.8,154,90.9,153.9,90.9z
			 M153.6,89.8L153.6,89.8c-0.1,0-0.1,0-0.2-0.1c-0.1-0.4-0.2-0.7-0.2-0.7c0-0.1,0-0.1,0.1-0.2c0.1,0,0.1,0,0.2,0.1
			c0,0,0.1,0.3,0.2,0.7C153.7,89.7,153.7,89.8,153.6,89.8z"/>
		<path class="st65" d="M168.4,90.3c0,0-0.1,0-0.1,0c0,0,0,0,0-0.1c0,0,0,0-0.1,0c-0.1-0.1-0.3-0.2-0.5-0.3c-0.1,0-0.1-0.1,0-0.2
			c0-0.1,0.1-0.1,0.2,0c0.1,0.1,0.3,0.2,0.4,0.3c0.1,0,0.2,0.1,0.2,0.2C168.5,90.2,168.5,90.2,168.4,90.3
			C168.5,90.3,168.4,90.3,168.4,90.3z M168.3,90.3L168.3,90.3L168.3,90.3z M168.3,90.1L168.3,90.1L168.3,90.1z M168,90.4
			C168,90.4,168,90.4,168,90.4c-0.2,0-0.4,0-0.7,0c-0.1,0-0.1-0.1-0.1-0.1c0-0.1,0.1-0.1,0.1-0.1c0.3,0,0.5,0,0.7,0
			c0.1,0,0.1,0.1,0.1,0.1C168.1,90.3,168,90.4,168,90.4z M166.9,90.4C166.8,90.4,166.8,90.4,166.9,90.4c-0.3,0-0.5,0-0.7,0
			c-0.1,0-0.1-0.1-0.1-0.1c0-0.1,0.1-0.1,0.1-0.1c0.2,0,0.5,0,0.7,0c0.1,0,0.1,0.1,0.1,0.1C166.9,90.3,166.9,90.4,166.9,90.4z
			 M165.7,90.4C165.7,90.4,165.7,90.4,165.7,90.4c-0.3,0-0.5,0-0.7,0c-0.1,0-0.1-0.1-0.1-0.1s0.1-0.1,0.1-0.1c0.2,0,0.5,0,0.7,0
			c0.1,0,0.1,0.1,0.1,0.1C165.8,90.3,165.8,90.4,165.7,90.4z M167.6,89.6c0,0-0.1,0-0.1,0c-0.1-0.2-0.3-0.4-0.4-0.6
			c0-0.1,0-0.1,0-0.2c0.1,0,0.1,0,0.2,0c0.1,0.2,0.3,0.4,0.4,0.6C167.7,89.5,167.7,89.5,167.6,89.6
			C167.6,89.6,167.6,89.6,167.6,89.6z M164.6,90.4C164.6,90.4,164.6,90.4,164.6,90.4c-0.3,0-0.5,0-0.7,0c-0.1,0-0.1-0.1-0.1-0.1
			c0-0.1,0.1-0.1,0.1-0.1c0.2,0,0.5,0,0.7,0c0.1,0,0.1,0.1,0.1,0.1C164.7,90.3,164.6,90.3,164.6,90.4z M163.5,90.4
			C163.4,90.4,163.4,90.4,163.5,90.4c-0.3,0-0.5,0-0.7,0c-0.1,0-0.1-0.1-0.1-0.1c0-0.1,0.1-0.1,0.1-0.1c0.2,0,0.5,0,0.7,0
			c0.1,0,0.1,0.1,0.1,0.1C163.5,90.3,163.5,90.3,163.5,90.4z M162.3,90.4C162.3,90.4,162.3,90.4,162.3,90.4c-0.3,0-0.5,0-0.7,0.1
			c-0.1,0-0.1,0-0.1-0.1c0-0.1,0-0.1,0.1-0.1c0.2,0,0.4,0,0.7-0.1c0.1,0,0.1,0.1,0.1,0.1C162.4,90.3,162.4,90.4,162.3,90.4z
			 M166.9,88.7c-0.1,0-0.1,0-0.2-0.1c-0.1-0.2-0.2-0.4-0.3-0.6c0-0.1,0-0.1,0.1-0.2c0.1,0,0.1,0,0.2,0.1c0.1,0.2,0.2,0.4,0.3,0.6
			C167,88.5,167,88.6,166.9,88.7C167,88.7,166.9,88.7,166.9,88.7z M161.2,90.5C161.2,90.5,161.2,90.5,161.2,90.5
			c-0.3,0-0.5,0.1-0.6,0.1c-0.1,0-0.1,0-0.2-0.1s0-0.1,0.1-0.2l0,0c0.2-0.1,0.4-0.1,0.6-0.1c0.1,0,0.1,0,0.1,0.1
			C161.3,90.4,161.2,90.5,161.2,90.5z M166.4,87.7c-0.1,0-0.1,0-0.2-0.1c-0.1-0.2-0.2-0.4-0.3-0.6c0-0.1,0-0.1,0.1-0.2
			c0.1,0,0.1,0,0.2,0.1c0.1,0.2,0.2,0.4,0.3,0.6C166.5,87.6,166.5,87.6,166.4,87.7C166.4,87.7,166.4,87.7,166.4,87.7z M165.9,86.6
			c-0.1,0-0.1,0-0.2-0.1c-0.1-0.2-0.2-0.4-0.3-0.6c0-0.1,0-0.1,0.1-0.2c0.1,0,0.1,0,0.2,0.1c0.1,0.2,0.2,0.4,0.3,0.6
			C166,86.5,166,86.6,165.9,86.6C165.9,86.6,165.9,86.6,165.9,86.6z M165.4,85.6c-0.1,0-0.1,0-0.2-0.1c-0.2-0.4-0.3-0.6-0.3-0.7
			c0-0.1,0-0.1,0.1-0.2c0.1,0,0.1,0,0.2,0.1c0,0,0.1,0.3,0.3,0.6C165.6,85.5,165.5,85.6,165.4,85.6
			C165.5,85.6,165.4,85.6,165.4,85.6z"/>
		<path class="st8" d="M144.1,94.3c0,0,1.5-4.3,4.4-5.1l0.1,5.5l-4.7,4.7"/>
		<path class="st25" d="M155.7,139.5c0.2,1.3,0.3,2.6,0.4,4l36-4.6c-0.1-1.2-0.3-2.9-0.4-4.3L155.7,139.5z"/>
		<path class="st25" d="M189.4,118.8l-36,7.4c0.3,1.3,0.5,2.6,0.8,3.9l35.8-7.4C189.9,121.5,189.6,120.1,189.4,118.8z"/>
		<path class="st25" d="M186.3,103.5l-36.4,9.5c0.4,1.3,0.8,2.6,1.2,3.9l36.1-9.4C186.9,106.2,186.6,104.8,186.3,103.5z"/>
		<g>
			<path class="st65" d="M171.2,100.9c-0.1,0-0.1,0-0.1-0.1l-0.1-0.3c0-0.1,0-0.1,0.1-0.1l0.3-0.1c0.1,0,0.1,0,0.1,0.1
				c0,0.1,0,0.1-0.1,0.1l-0.2,0.1l0.1,0.2C171.3,100.8,171.2,100.9,171.2,100.9z"/>
			<path class="st65" d="M175.6,99.4l-0.6,0.2c-0.1,0-0.1,0-0.1-0.1c0-0.1,0-0.1,0.1-0.1l0.6-0.2c0.1,0,0.1,0,0.1,0.1
				C175.7,99.4,175.7,99.4,175.6,99.4z M174.6,99.7l-0.6,0.2c-0.1,0-0.1,0-0.1-0.1c0-0.1,0-0.1,0.1-0.1l0.6-0.2c0.1,0,0.1,0,0.1,0.1
				C174.6,99.6,174.6,99.7,174.6,99.7z M173.5,100l-0.6,0.2c-0.1,0-0.1,0-0.1-0.1c0-0.1,0-0.1,0.1-0.1l0.6-0.2c0.1,0,0.1,0,0.1,0.1
				C173.6,99.9,173.6,100,173.5,100z M172.5,100.2l-0.6,0.2c-0.1,0-0.1,0-0.1-0.1c0-0.1,0-0.1,0.1-0.1l0.6-0.2c0.1,0,0.1,0,0.1,0.1
				C172.5,100.2,172.5,100.2,172.5,100.2z"/>
			<path class="st65" d="M176.4,99.6c-0.1,0-0.1,0-0.1-0.1l-0.1-0.2l-0.2,0.1c-0.1,0-0.1,0-0.1-0.1c0-0.1,0-0.1,0.1-0.1l0.3-0.1
				c0.1,0,0.1,0,0.1,0.1l0.1,0.3C176.5,99.5,176.5,99.5,176.4,99.6z"/>
			<path class="st65" d="M177.3,114c-0.1,0-0.2,0-0.3,0.1c-0.1,0-0.1,0-0.1-0.1c0-0.1,0-0.1,0.1-0.1c0.2,0,0.4-0.1,0.6-0.2
				c0.1,0,0.1,0,0.1,0.1c0,0.1,0,0.1-0.1,0.1C177.5,114,177.4,114,177.3,114z M176.5,114.1C176.5,114.1,176.5,114.1,176.5,114.1
				c-0.3,0-0.5,0-0.7-0.1c-0.1,0-0.1-0.1-0.1-0.1c0-0.1,0.1-0.1,0.1-0.1c0.2,0.1,0.4,0.1,0.6,0.1C176.5,113.9,176.6,114,176.5,114.1
				C176.6,114.1,176.5,114.1,176.5,114.1z M178.1,113.7c0,0-0.1,0-0.1,0c0,0,0-0.1,0-0.1c0.2-0.1,0.3-0.2,0.5-0.4c0,0,0.1,0,0.1,0
				c0,0,0,0.1,0,0.1C178.5,113.4,178.3,113.6,178.1,113.7C178.1,113.7,178.1,113.7,178.1,113.7z M175.4,113.8
				C175.4,113.8,175.3,113.8,175.4,113.8c-0.3-0.1-0.5-0.2-0.6-0.4c0,0,0-0.1,0-0.1c0,0,0.1,0,0.1,0c0.2,0.1,0.3,0.3,0.5,0.4
				C175.5,113.6,175.5,113.7,175.4,113.8C175.4,113.8,175.4,113.8,175.4,113.8z M178.9,112.9C178.9,112.9,178.8,112.9,178.9,112.9
				c-0.1,0-0.1-0.1-0.1-0.2c0.1-0.2,0.2-0.4,0.3-0.6c0-0.1,0.1-0.1,0.1-0.1c0.1,0,0.1,0.1,0.1,0.1
				C179.2,112.5,179.1,112.7,178.9,112.9C178.9,112.9,178.9,112.9,178.9,112.9z M174.5,113.1c0,0-0.1,0-0.1,0
				c-0.1-0.2-0.3-0.4-0.4-0.6c0-0.1,0-0.1,0.1-0.1c0.1,0,0.1,0,0.1,0.1c0.1,0.2,0.2,0.4,0.3,0.5C174.6,113,174.6,113,174.5,113.1
				C174.5,113.1,174.5,113.1,174.5,113.1z M179.3,111.9C179.3,111.9,179.3,111.9,179.3,111.9c-0.1,0-0.1-0.1-0.1-0.1
				c0-0.2,0-0.4,0-0.6c0-0.1,0-0.1,0.1-0.1c0.1,0,0.1,0,0.1,0.1C179.4,111.3,179.4,111.5,179.3,111.9
				C179.4,111.8,179.4,111.8,179.3,111.9z M174,112.1c-0.1,0-0.1,0-0.1-0.1l-0.2-0.6c0-0.1,0-0.1,0.1-0.1c0.1,0,0.1,0,0.1,0.1
				l0.2,0.6C174.1,112,174.1,112,174,112.1z M179.3,110.7c-0.1,0-0.1,0-0.1-0.1L179,110c0-0.1,0-0.1,0.1-0.1s0.1,0,0.1,0.1l0.2,0.6
				C179.4,110.6,179.3,110.7,179.3,110.7z M173.7,111c-0.1,0-0.1,0-0.1-0.1l-0.2-0.6c0-0.1,0-0.1,0.1-0.1c0.1,0,0.1,0,0.1,0.1
				l0.2,0.6C173.8,110.9,173.8,110.9,173.7,111z M179,109.6c-0.1,0-0.1,0-0.1-0.1l-0.2-0.6c0-0.1,0-0.1,0.1-0.1s0.1,0,0.1,0.1
				l0.2,0.6C179.1,109.5,179,109.6,179,109.6z M173.4,109.8c-0.1,0-0.1,0-0.1-0.1l-0.2-0.6c0-0.1,0-0.1,0.1-0.1c0.1,0,0.1,0,0.1,0.1
				l0.2,0.6C173.5,109.8,173.5,109.8,173.4,109.8z M178.7,108.5c-0.1,0-0.1,0-0.1-0.1l-0.2-0.6c0-0.1,0-0.1,0.1-0.1
				c0.1,0,0.1,0,0.1,0.1l0.2,0.6C178.8,108.4,178.8,108.5,178.7,108.5z M173.1,108.7c-0.1,0-0.1,0-0.1-0.1l-0.2-0.6
				c0-0.1,0-0.1,0.1-0.1s0.1,0,0.1,0.1l0.2,0.6C173.2,108.7,173.2,108.7,173.1,108.7z M178.4,107.4c-0.1,0-0.1,0-0.1-0.1l-0.2-0.6
				c0-0.1,0-0.1,0.1-0.1c0.1,0,0.1,0,0.1,0.1l0.2,0.6C178.5,107.3,178.5,107.4,178.4,107.4z M172.9,107.6c-0.1,0-0.1,0-0.1-0.1
				l-0.2-0.6c0-0.1,0-0.1,0.1-0.1c0.1,0,0.1,0,0.1,0.1l0.2,0.6C173,107.5,172.9,107.6,172.9,107.6z M178.1,106.3
				c-0.1,0-0.1,0-0.1-0.1l-0.2-0.6c0-0.1,0-0.1,0.1-0.1c0.1,0,0.1,0,0.1,0.1l0.2,0.6C178.2,106.2,178.2,106.2,178.1,106.3z
				 M172.6,106.5c-0.1,0-0.1,0-0.1-0.1l-0.2-0.6c0-0.1,0-0.1,0.1-0.1c0.1,0,0.1,0,0.1,0.1l0.2,0.6
				C172.7,106.4,172.6,106.5,172.6,106.5z M177.9,105.1c-0.1,0-0.1,0-0.1-0.1l-0.2-0.6c0-0.1,0-0.1,0.1-0.1s0.1,0,0.1,0.1l0.2,0.6
				C178,105.1,177.9,105.1,177.9,105.1z M172.3,105.4c-0.1,0-0.1,0-0.1-0.1l-0.2-0.6c0-0.1,0-0.1,0.1-0.1s0.1,0,0.1,0.1l0.2,0.6
				C172.4,105.3,172.4,105.4,172.3,105.4z M177.6,104c-0.1,0-0.1,0-0.1-0.1l-0.2-0.6c0-0.1,0-0.1,0.1-0.1c0.1,0,0.1,0,0.1,0.1
				l0.2,0.6C177.7,104,177.6,104,177.6,104z M172,104.3c-0.1,0-0.1,0-0.1-0.1l-0.2-0.6c0-0.1,0-0.1,0.1-0.1c0.1,0,0.1,0,0.1,0.1
				l0.2,0.6C172.1,104.2,172.1,104.2,172,104.3z M177.3,102.9c-0.1,0-0.1,0-0.1-0.1l-0.2-0.6c0-0.1,0-0.1,0.1-0.1
				c0.1,0,0.1,0,0.1,0.1l0.2,0.6C177.4,102.8,177.4,102.9,177.3,102.9z M171.7,103.1c-0.1,0-0.1,0-0.1-0.1l-0.2-0.6
				c0-0.1,0-0.1,0.1-0.1s0.1,0,0.1,0.1l0.2,0.6C171.8,103.1,171.8,103.1,171.7,103.1z M177,101.8c-0.1,0-0.1,0-0.1-0.1l-0.2-0.6
				c0-0.1,0-0.1,0.1-0.1s0.1,0,0.1,0.1l0.2,0.6C177.1,101.7,177.1,101.8,177,101.8z M171.5,102c-0.1,0-0.1,0-0.1-0.1l-0.2-0.6
				c0-0.1,0-0.1,0.1-0.1c0.1,0,0.1,0,0.1,0.1l0.2,0.6C171.5,102,171.5,102,171.5,102z M176.7,100.7c-0.1,0-0.1,0-0.1-0.1l-0.2-0.6
				c0-0.1,0-0.1,0.1-0.1c0.1,0,0.1,0,0.1,0.1l0.2,0.6C176.8,100.6,176.8,100.7,176.7,100.7z"/>
		</g>
		<path class="st25" d="M181.9,88l-36.3,11.6c0.4,1.3,0.8,2.6,1.3,3.8l36.3-11.6C182.7,90.6,182.3,89.3,181.9,88z"/>
		<path class="st13" d="M191.3,277.1l-11.6,4.6c-0.4,0.2-0.8,0-1-0.4l-1.1-2.9c-0.2-0.4,0-0.8,0.4-1l11.6-4.6c0.4-0.2,0.8,0,1,0.4
			l1.1,2.9C191.9,276.6,191.7,277,191.3,277.1z"/>
		<path class="st73" d="M435,89.3h-7.5v-11c0-0.7,0.6-1.2,1.2-1.2h5c0.7,0,1.2,0.6,1.2,1.2V89.3z"/>
		<path class="st73" d="M432.7,27.7c11.3,0.5,18.4,7.5,18.1,14.5l-0.6,13l-0.4,7.5l-0.5,10c-0.5,11.2-9.3,19.8-19.5,19.3l-0.4,0
			c-10.2-0.5-18.1-9.9-17.6-21.1l0.5-10l0.4-7.5l0.6-13C413.6,34.4,422.6,27.2,432.7,27.7z"/>
		<path class="st76" d="M446.2,72.6l0.5-10l0.4-7.5l0.6-13c0.3-6.1-7.2-12.8-17.1-14.4c0.7-0.1,1.4-0.1,2.1,0
			c11.3,0.5,18.4,7.6,18.1,14.5l-0.6,13l-0.4,7.5l-0.5,10c-0.5,11.2-9.3,19.8-19.5,19.3l-0.4,0c-0.7,0-1.3-0.1-2-0.2
			C436.8,91.2,445.6,86.4,446.2,72.6z"/>
		
			<ellipse transform="matrix(4.700149e-02 -0.9989 0.9989 4.700149e-02 325.7987 475.1545)" class="st77" cx="411.9" cy="66.8" rx="0.4" ry="0.7"/>
		<g>
			<path class="st78" d="M411.8,71.6c-0.3,10.3,3.6,25.3,5.7,27.8c-0.2-1.3-1-7.2,0.2-10c0.3,6.2,1.7,11.2,3.1,13.7
				c-0.3-6.3,0.8-10.5,1.2-12c-1,9,3,15.5,4.9,16.5c-1.4-5.6-2.1-10.1-1.6-12.3c0.9,5.1,3.9,8.1,7.3,13c-1.5-7.9,0.5-7.5,0.9-13.5
				c1.2,6.4,1.5,9.9,0.9,15.4c2.5-6.5,2.8-8.5,3.6-13c0.6,1.9,1.2,5.1,1.3,7.6c1.6-3.4,1.5-12.3,1.8-13c1.3,5,1.1,9.7,1.1,9.7
				s8.6-13.2,3.8-31.6c-11.4,8.1-24.4-1.1-30.6-0.8C411.6,69.2,411.8,71.6,411.8,71.6z"/>
			<path class="st79" d="M438.2,73.8c2.1,2.8,2.8,12.2,2.8,17.3c0,4.3-0.4,10.4-1.7,13.5C440.7,92.3,438.2,73.8,438.2,73.8z"/>
			<g>
				<path class="st79" d="M430.9,73.9c-0.6,1.5-3.2,10-2.9,15.8c0.3,6,1.3,12.1,4.6,18.5C428.8,89.5,431.3,73.9,430.9,73.9z"/>
			</g>
			<path class="st79" d="M444.5,85c-0.9,7.6,0.6,6.4-2.3,16.4c0.7-1.1,4-7.6,4.8-12.4c1-6.4,0.7-14.9-1-19.2
				C446.1,81.5,445.1,79.4,444.5,85z"/>
			<path class="st79" d="M418.8,77.3c0,0-1.2,6.9-1.1,13.1c0.2,8.2,3.1,12.7,3.1,12.7s-1.3-5.8-1.6-12.3c-0.3-6.9,2.5-14.2,2.5-14.2
				L418.8,77.3z"/>
			<path class="st79" d="M414,77.3c0,0-0.1,1.6,0,7.8c0.1,6.2,3.5,14.2,3.5,14.2s-3.3-14.6-0.7-21.5C415,77.6,414,77.3,414,77.3z"/>
			<path class="st79" d="M436.2,77.7c2,1.8,4.1,20.4-1.7,32.3C437.4,94.5,436.2,77.7,436.2,77.7z"/>
			<path class="st79" d="M423.3,97.6c0.5,7.4,3.7,10,3.7,10s-1.3-4-1.6-10.9c-0.2-4.4,2-11,1.3-15.8c-0.8-5.9-3.1-9.1-3.1-9.1
				s0.6,4.2,0.9,11.8C424.6,87.6,423,93.4,423.3,97.6z"/>
			<path class="st79" d="M433.1,73.7c0.7,6.8,0.3,21.7-1.1,26.2C433.6,85.8,429.6,83.5,433.1,73.7z"/>
			<path class="st79" d="M441.4,73.8c0,0,0.3,3.4,0.6,7c0.3,3.6,0,9.9,0,9.9s2.1-5.9,1.6-11.2S441.4,73.8,441.4,73.8z"/>
		</g>
		
			<ellipse transform="matrix(4.700149e-02 -0.9989 0.9989 4.700149e-02 336.1289 468.3743)" class="st80" cx="413.5" cy="58" rx="1.4" ry="1.1"/>
		<path class="st73" d="M416.9,54.8c-0.4,1.3-1.8,3-4.5,7.4c-0.6,1-4.2,4.2,1.4,4.8c2.2,0.2,3.8-0.3,4.7-0.7
			c0.4-0.2,0.6-0.5,0.3-0.8c-0.5-0.7-2-2.2-1.6-4.6C417.5,59.3,418.1,56.5,416.9,54.8z"/>
		<path class="st76" d="M417.6,55.9c0,0-1.1,4.3-1.3,5.8s0.4,2,1,2.7c0.5,0.8,0.6,2.6,0.6,2.6s1.6-1.2,0.4-3.6
			C416.6,60.4,417.3,58.2,417.6,55.9z"/>
		
			<ellipse transform="matrix(4.700149e-02 -0.9989 0.9989 4.700149e-02 330.1224 479.5563)" class="st77" cx="416.4" cy="66.8" rx="0.4" ry="0.7"/>
		
			<ellipse transform="matrix(4.700149e-02 -0.9989 0.9989 4.700149e-02 346.9021 481.0891)" class="st80" cx="425.6" cy="58.7" rx="1.4" ry="1.1"/>
		<g>
			<path class="st78" d="M419.9,53.4c0,0,3.4-1.6,6.4-0.3c2.8,1.3,8.4,0.9,9.9,0.4c-0.6,1.2-1.9,2.5-4.8,2.5
				c0.3,0.2,1.6,0.5,2.4,0.4c-1.4,1.2-4.4,1.7-7.6-1C423,52.9,419.9,53.4,419.9,53.4z"/>
			<path class="st78" d="M434.4,55.8c-1.7,1-4.6,0.8-6.8,0.2c-2.2-0.6-4.7-3.1-7.6-2.6c2.6-0.7,5.3-0.3,7.7,1.3
				C430.7,56.8,434.4,55.8,434.4,55.8z"/>
		</g>
		<g>
			<path class="st78" d="M415.3,53.7c0,0-0.9-2.3-2.1-1.4c-1,0.8-2.9,0.4-3.3-0.3c0.1,1.2,0.4,2.7,1.4,3c-0.1,0.2-0.6,0.4-0.8,0.2
				c0.4,1.3,1.3,2.1,2.6-0.1C414.3,52.8,415.3,53.7,415.3,53.7z"/>
			<path class="st78" d="M415.3,53.7c-0.4-0.9-1.3-0.9-2.1-0.4c-0.8,0.5-1.7,2.7-2.6,2.1c0.8,0.8,1.7,0.7,2.6-0.8
				C414.3,52.7,415.3,53.7,415.3,53.7z"/>
		</g>
		<polygon class="st81" points="448.8,66.1 446.7,63.8 447.1,54.7 449.4,54.8 		"/>
		<path class="st24" d="M452.2,43.4c0.5-10.4-7.5-19.1-17.9-19.6l-5.7-0.3c-6.3-0.3-12.1,2.6-15.7,7.2c0.4,0.3,0.7,0.8,0.8,1.3
			c0,0.1,0,0.3,0,0.4c-0.1,1.1-0.8,1.9-1.7,1.8c-0.4,0-0.7-0.2-1-0.5c-1.1,2.3-1.9,4.8-2,7.5l0,0.6c0,0,0,0.1,0,0.1c0,0,0,0.1,0,0.2
			c-0.1,1.9,1.4,3.6,3.3,3.6l4.3,0.2l1.2,0.1l26.4,1.2c3.3,0.2,3.2,3.4,3.2,3.4l-0.2,3.9c-0.1,1.2,0.8,2.3,1.9,2.4
			c1.3,0.2,2.5-0.8,2.6-2.1l0.5-10.7c0-0.1,0-0.1,0-0.2c0,0,0-0.1,0-0.1L452.2,43.4z"/>
		<path class="st81" d="M413.7,32.5c0-0.1,0-0.3,0-0.4c-0.1-0.6-0.4-1-0.8-1.3c-0.7,1-1.4,2-2,3.1c0.3,0.3,0.6,0.5,1,0.5
			C412.8,34.4,413.6,33.5,413.7,32.5z"/>
		<path class="st81" d="M419.7,31.2c0.3-0.2,0.6-0.4,1-0.3c0.8,0,1.4,0.7,1.5,1.6c0,0.1,0,0.3,0,0.4c-0.1,1.1-0.8,1.9-1.7,1.8
			c-0.9,0-1.6-0.9-1.5-2C419,32.1,419.3,31.6,419.7,31.2z"/>
		<path class="st73" d="M445,63.5c0,0,3.7,0,3.5,2.8c-0.2,2.8-3.7,2.5-3.7,2.5"/>
		<path class="st79" d="M412.2,76.2c0,0,3.6,5.1,10.6-0.3"/>
		<path class="st73" d="M417.3,76.9c-2.6,0-4.7-0.4-4.8-0.5c-0.9-0.2-1.5-1.1-1.3-2.1c0.2-0.9,1.1-1.5,2.1-1.3l0,0
			c0,0,4.6,1,8.2-0.2c0.9-0.3,1.9,0.2,2.2,1.1c0.3,0.9-0.2,1.9-1.1,2.2C420.7,76.7,418.9,76.9,417.3,76.9z"/>
		<path class="st80" d="M417.3,75.7c-2.5,0-4.4-0.4-4.6-0.5c-0.3-0.1-0.5-0.4-0.4-0.7s0.4-0.5,0.7-0.4c0,0,4.9,1,8.8-0.2
			c0.3-0.1,0.6,0.1,0.7,0.4c0.1,0.3-0.1,0.6-0.4,0.7C420.5,75.6,418.8,75.7,417.3,75.7z"/>
		<g>
			<polygon class="st8" points="455.3,126.5 429.6,147.1 439.4,159.1 464.9,138.7 			"/>
			<ellipse transform="matrix(0.5766 -0.817 0.817 0.5766 72.2885 425.6211)" class="st82" cx="446.8" cy="143.1" rx="6" ry="6"/>
			<polygon class="st6" points="445.2,136.3 442.4,138.4 444.4,146 447.1,143.4 448.7,149.5 449.5,139 446.3,141.3 			"/>
		</g>
		<path class="st72" d="M448.2,82.4c0,0,11.8-1.4,23.4,6.8c0,0,0.8,0.6,1.8,1.5l-5.3,6.9c-3.2-2.5-8.8-5.3-16.8-3.4l-2.3-1.7
			L448.2,82.4z"/>
		<path class="st58" d="M468.4,97.2c0,0,12.7,8.3,8.1,21.7c-4.1,11.9-18.7,14.2-18.7,14.2s-3.4,0.1-3.7,3.3
			c-0.3,3.5,3.7,3.4,3.7,3.4c3.5,0.2,21.4-3.6,25.3-19.3c3.7-14.9-4.5-24.3-10.4-28.9L468.4,97.2z"/>
		<path class="st24" d="M464.2,85.2l-4.6,8.7c1.6,0.2,3.1,0.8,3.8,1.1l0.1,0l4.6-7.9C468.1,87.1,466.2,85.9,464.2,85.2z"/>
		
			<rect x="464.9" y="91.9" transform="matrix(-0.603 0.7977 -0.7977 -0.603 827.4741 -224.8798)" class="st24" width="9.5" height="3.1"/>
		<path class="st80" d="M476.7,104.8c0.1,0,0.2,0,0.2-0.1l0.1-0.4c0.2,0.3,0.5,0.6,0.8,0.8c0.5,0.3,1.1,0.4,1.7,0.2
			c0.3-0.1,0.5-0.1,0.7-0.1c0.2,0,0.4,0.1,0.6,0.2c0,0,0,0,0,0c0,0,0,0,0,0l0,0c0,0,0,0,0,0l0,0c0,0,0.1,0,0.1,0c0,0,0.1,0,0.1-0.1
			c0,0,0,0,0,0c0,0,0,0,0,0c0,0,0,0,0,0c0,0,0,0,0,0c0,0,0,0,0,0c0-0.2,0.1-0.4,0.2-0.6c0.1-0.2,0.3-0.3,0.5-0.5
			c0.2-0.1,0.3-0.3,0.4-0.4l-0.2-0.4c-0.1,0.2-0.3,0.4-0.5,0.5c-0.2,0.2-0.4,0.3-0.6,0.6c0,0.1-0.1,0.2-0.1,0.2l-2-4l0.9-0.5
			c0.1,0,0.1-0.2,0.1-0.2l-0.1-0.3c0-0.1-0.2-0.1-0.2-0.1c-0.1,0-0.1,0.2-0.1,0.2l0,0.1l-0.8,0.4l-0.5-0.9c0.2-0.2,0.3-0.5,0.1-0.7
			c-0.2-0.3-0.5-0.4-0.8-0.3c-0.3,0.2-0.4,0.5-0.3,0.8c0.1,0.2,0.4,0.4,0.7,0.3l0.5,0.9l-0.8,0.4l0-0.1c0-0.1-0.2-0.1-0.2-0.1
			c-0.1,0-0.1,0.2-0.1,0.2l0.1,0.3c0,0.1,0.2,0.1,0.2,0.1l0.9-0.5l2,4c-0.1,0-0.2,0-0.2-0.1c-0.3,0-0.6,0-0.8,0.1
			c-0.5,0.2-1,0.1-1.4-0.1c-0.3-0.2-0.5-0.4-0.6-0.7l0.4,0.1c0,0,0.1,0,0.1,0c0,0,0.1-0.1,0.1-0.1c0-0.1,0-0.2-0.1-0.2l-0.8-0.3
			c0,0,0,0-0.1,0c0,0,0,0-0.1,0c0,0,0,0,0,0c0,0,0,0,0,0c0,0,0,0,0,0c0,0,0,0,0,0c0,0,0,0,0,0l-0.3,0.8
			C476.5,104.6,476.6,104.7,476.7,104.8z M477.5,99.1c-0.1-0.1,0-0.3,0.1-0.3c0.1-0.1,0.3,0,0.3,0.1c0.1,0.1,0,0.3-0.1,0.3
			C477.7,99.3,477.6,99.3,477.5,99.1z"/>
		<path class="st67" d="M381.8,193.4l12.7,21.7c0,0,0.4,0.7,0.8-0.7L383,192.6L381.8,193.4z"/>
		<path class="st25" d="M375.1,198.1c0,0,3.4,1.3,3.5,3.2c0.2,1.9,0.3,3,0.3,3s1.8,0,2.9,1.4c1.1,1.4,6.7,9.1,8.8,9.7
			c2.1,0.6,3.9-0.4,3.9-0.4l-12.7-21.7C381.8,193.4,375.6,197.1,375.1,198.1z"/>
		<path class="st65" d="M174.9,150.5c-0.1,0-0.1-0.1-0.2-0.1c0,0,0-0.4-0.1-1.2c0-0.1,0-0.1,0.1-0.2c0.1,0,0.1,0.1,0.2,0.1
			c0.1,0.8,0.1,1.2,0.1,1.2C175,150.4,175,150.4,174.9,150.5L174.9,150.5z M174.7,148.1c-0.1,0-0.1-0.1-0.2-0.1l-0.1-1.1
			c0-0.1,0-0.1,0.1-0.2c0.1,0,0.1,0,0.2,0.1l0.1,1.1C174.8,148.1,174.7,148.1,174.7,148.1L174.7,148.1z M174.4,145.9
			c-0.1,0-0.1-0.1-0.2-0.1c0-0.4-0.1-0.7-0.1-1.1c0-0.1,0-0.1,0.1-0.2l0,0c0.1,0,0.1,0.1,0.2,0.1c0,0.4,0.1,0.8,0.1,1.1
			C174.6,145.8,174.5,145.8,174.4,145.9L174.4,145.9z M174.2,143.6c-0.1,0-0.1-0.1-0.2-0.1l-0.1-1.1c0-0.1,0-0.2,0.1-0.2l0,0
			c0.1,0,0.1,0.1,0.2,0.1l0.1,1.1C174.3,143.5,174.2,143.6,174.2,143.6L174.2,143.6z M173.9,141.3c-0.1,0-0.1,0-0.2-0.1l-0.1-1.1
			c0-0.1,0-0.2,0.1-0.2c0.1,0,0.2,0,0.2,0.1l0.1,1.1C174,141.2,174,141.3,173.9,141.3L173.9,141.3z M173.6,139c-0.1,0-0.1,0-0.2-0.1
			l-0.1-1.1c0-0.1,0-0.2,0.1-0.2c0.1,0,0.2,0,0.2,0.1l0.1,1.1C173.8,138.9,173.7,139,173.6,139L173.6,139z M173.3,136.7
			c-0.1,0-0.1,0-0.2-0.1l-0.1-1.1c0-0.1,0-0.2,0.1-0.2l0,0c0.1,0,0.1,0,0.2,0.1l0.1,1.1C173.5,136.6,173.4,136.7,173.3,136.7
			L173.3,136.7z M173,134.4c-0.1,0-0.1,0-0.2-0.1l-0.2-1.1c0-0.1,0-0.2,0.1-0.2c0.1,0,0.2,0,0.2,0.1l0.2,1.1
			C173.2,134.3,173.1,134.4,173,134.4L173,134.4z M172.7,132.1c-0.1,0-0.1,0-0.2-0.1c-0.1-0.4-0.1-0.8-0.2-1.1c0-0.1,0-0.2,0.1-0.2
			l0,0c0.1,0,0.1,0,0.2,0.1c0.1,0.4,0.1,0.8,0.2,1.1C172.9,132.1,172.8,132.1,172.7,132.1L172.7,132.1z M172.4,129.9
			c-0.1,0-0.1,0-0.2-0.1l-0.2-1.1c0-0.1,0-0.2,0.1-0.2c0.1,0,0.2,0,0.2,0.1l0.2,1.1C172.6,129.8,172.5,129.9,172.4,129.9
			L172.4,129.9z M172.1,127.6c-0.1,0-0.1,0-0.2-0.1c-0.1-0.4-0.1-0.8-0.2-1.1c0-0.1,0-0.2,0.1-0.2c0.1,0,0.2,0,0.2,0.1
			c0.1,0.4,0.1,0.8,0.2,1.1C172.2,127.5,172.2,127.6,172.1,127.6L172.1,127.6z M171.7,125.3c-0.1,0-0.1,0-0.2-0.1
			c-0.1-0.4-0.1-0.8-0.2-1.1c0-0.1,0-0.2,0.1-0.2c0.1,0,0.2,0,0.2,0.1c0.1,0.4,0.1,0.8,0.2,1.1C171.9,125.2,171.8,125.3,171.7,125.3
			L171.7,125.3z M171.4,123c-0.1,0-0.1,0-0.2-0.1c-0.1-0.4-0.1-0.8-0.2-1.1c0-0.1,0-0.2,0.1-0.2c0.1,0,0.2,0,0.2,0.1
			c0.1,0.4,0.1,0.8,0.2,1.1C171.5,123,171.5,123,171.4,123L171.4,123z M171,120.8c-0.1,0-0.1,0-0.2-0.1c-0.1-0.4-0.1-0.8-0.2-1.1
			c0-0.1,0-0.2,0.1-0.2c0.1,0,0.2,0,0.2,0.1c0.1,0.4,0.1,0.8,0.2,1.1C171.2,120.7,171.1,120.8,171,120.8L171,120.8z M170.6,118.5
			c-0.1,0-0.1,0-0.2-0.1l-0.2-1.1c0-0.1,0-0.2,0.1-0.2c0.1,0,0.2,0,0.2,0.1l0.2,1.1C170.8,118.4,170.7,118.5,170.6,118.5
			L170.6,118.5z M170.2,116.2c-0.1,0-0.1,0-0.2-0.1c-0.1-0.4-0.1-0.8-0.2-1.1c0-0.1,0-0.2,0.1-0.2c0.1,0,0.2,0,0.2,0.1
			c0.1,0.4,0.1,0.8,0.2,1.1C170.4,116.2,170.3,116.2,170.2,116.2L170.2,116.2z M169.8,114c-0.1,0-0.1,0-0.2-0.1l-0.2-1.1
			c0-0.1,0-0.2,0.1-0.2c0.1,0,0.2,0,0.2,0.1l0.2,1.1C170,113.9,169.9,114,169.8,114C169.8,114,169.8,114,169.8,114z M169.4,111.7
			c-0.1,0-0.1,0-0.2-0.1l-0.2-1.1c0-0.1,0-0.2,0.1-0.2c0.1,0,0.2,0,0.2,0.1l0.2,1.1C169.5,111.6,169.5,111.7,169.4,111.7
			C169.4,111.7,169.4,111.7,169.4,111.7z M168.9,109.5c-0.1,0-0.1,0-0.2-0.1c-0.1-0.4-0.2-0.8-0.2-1.1c0-0.1,0-0.2,0.1-0.2
			c0.1,0,0.2,0,0.2,0.1c0.1,0.4,0.2,0.8,0.2,1.1C169.1,109.4,169,109.4,168.9,109.5C168.9,109.5,168.9,109.5,168.9,109.5z
			 M168.4,107.2c-0.1,0-0.1,0-0.2-0.1c-0.1-0.4-0.2-0.7-0.2-1.1c0-0.1,0-0.2,0.1-0.2c0.1,0,0.2,0,0.2,0.1c0.1,0.4,0.2,0.7,0.2,1.1
			C168.6,107.1,168.5,107.2,168.4,107.2L168.4,107.2z M168,105c-0.1,0-0.1,0-0.2-0.1c-0.1-0.4-0.2-0.7-0.3-1.1c0-0.1,0-0.2,0.1-0.2
			c0.1,0,0.2,0,0.2,0.1c0.1,0.4,0.2,0.7,0.3,1.1C168.1,104.9,168.1,104.9,168,105C168,105,168,105,168,105z M167.4,102.7
			c-0.1,0-0.1,0-0.2-0.1c-0.1-0.4-0.2-0.7-0.3-1.1c0-0.1,0-0.2,0.1-0.2c0.1,0,0.2,0,0.2,0.1c0.1,0.4,0.2,0.7,0.3,1.1
			C167.6,102.6,167.5,102.7,167.4,102.7C167.4,102.7,167.4,102.7,167.4,102.7z M166.9,100.5c-0.1,0-0.1,0-0.1-0.1
			c-0.1-0.4-0.2-0.7-0.3-1.1c0-0.1,0-0.2,0.1-0.2c0.1,0,0.2,0,0.2,0.1c0.1,0.4,0.2,0.7,0.3,1.1C167,100.4,167,100.5,166.9,100.5
			C166.9,100.5,166.9,100.5,166.9,100.5z M166.3,98.3c-0.1,0-0.1,0-0.1-0.1c-0.1-0.4-0.2-0.7-0.3-1.1c0-0.1,0-0.2,0.1-0.2
			c0.1,0,0.2,0,0.2,0.1c0.1,0.4,0.2,0.7,0.3,1.1C166.5,98.2,166.4,98.2,166.3,98.3L166.3,98.3z M165.7,96c-0.1,0-0.1,0-0.1-0.1
			c-0.1-0.4-0.2-0.7-0.3-1.1c0-0.1,0-0.2,0.1-0.2c0.1,0,0.2,0,0.2,0.1c0.1,0.4,0.2,0.7,0.3,1.1C165.8,95.9,165.8,96,165.7,96
			C165.7,96,165.7,96,165.7,96z M165,93.8c-0.1,0-0.1,0-0.1-0.1c-0.1-0.4-0.2-0.7-0.3-1.1c0-0.1,0-0.2,0.1-0.2c0.1,0,0.2,0,0.2,0.1
			c0.1,0.4,0.2,0.7,0.3,1.1C165.2,93.7,165.1,93.8,165,93.8C165.1,93.8,165,93.8,165,93.8z M164.3,91.6c-0.1,0-0.1,0-0.1-0.1
			c-0.1-0.4-0.2-0.7-0.4-1.1c0-0.1,0-0.2,0.1-0.2c0.1,0,0.2,0,0.2,0.1c0.1,0.4,0.2,0.7,0.4,1.1C164.5,91.5,164.4,91.6,164.3,91.6
			C164.4,91.6,164.3,91.6,164.3,91.6z"/>
		<path class="st27" d="M136.7,252c0,0-4.2-3.1-7.5-8.5l-0.6,7.1l3.4,4.1"/>
		<path class="st58" d="M137.8,123c-9,0-18.7-2.4-29.2-7.1c-1.7-0.8-2.5-2.8-1.7-4.6s2.8-2.5,4.6-1.7c16.1,7.4,30.2,8.5,41.8,3.4
			c17.2-7.6,23.5-26.4,23.6-26.6c0.6-1.8,2.5-2.8,4.3-2.2s2.8,2.5,2.2,4.3c-0.3,0.9-7.3,22-27.3,30.8
			C150.5,121.8,144.3,123,137.8,123z"/>
		<path class="st8" d="M184.6,87.9l-9,16.3l-6.6-3.6l9-16.3c1-1.8,3.3-2.5,5.1-1.5l0,0C184.9,83.8,185.6,86.1,184.6,87.9z"/>
		
			<rect x="174.3" y="91.6" transform="matrix(-0.4835 0.8754 -0.8754 -0.4835 344.7982 -12.7185)" class="st25" width="3.6" height="7.5"/>
		
			<rect x="168.7" y="99.9" transform="matrix(-0.8754 -0.4835 0.4835 -0.8754 275.1154 273.8326)" class="st25" width="8.2" height="3.1"/>
		<path class="st8" d="M183.7,83.2c0,0-2.4-2.1-8.4-2.5l4.7,6.8"/>
		<g>
			<path class="st28" d="M165.2,55.5c-0.2,0-0.3-0.1-0.3-0.3c0-0.2,0.1-0.3,0.3-0.3l6.4-0.5c0.2,0,0.3,0.1,0.3,0.3
				c0,0.2-0.1,0.3-0.3,0.3L165.2,55.5L165.2,55.5z"/>
			<path class="st28" d="M162.2,57.9c-0.2,0-0.3-0.1-0.3-0.3c0-0.2,0.1-0.3,0.3-0.3l6.9-0.5c0.2,0,0.3,0.1,0.3,0.3
				c0,0.2-0.1,0.3-0.3,0.3L162.2,57.9C162.2,57.9,162.2,57.9,162.2,57.9z"/>
			<path class="st28" d="M165.1,59.9c-0.2,0-0.3-0.1-0.3-0.3c0-0.2,0.1-0.3,0.3-0.3l8.9-0.7c0.2,0,0.3,0.1,0.3,0.3
				c0,0.2-0.1,0.3-0.3,0.3L165.1,59.9L165.1,59.9z"/>
		</g>
		<path class="st81" d="M141.2,75.6l1.9-1.3c-4.4-6.1-6.6-16.4-6.6-16.5l-2.3,0.5C134.3,58.6,136.5,69.1,141.2,75.6z"/>
		<path class="st81" d="M178.1,72.9c3.7-7.1,4.3-17.8,4.4-18.3l-2.3-0.1c0,0.1-0.6,10.6-4.1,17.3L178.1,72.9z"/>
		<path class="st73" d="M164.4,91.2l-7.2,0.5l-0.8-10.6c0-0.7,0.4-1.2,1.1-1.3l4.8-0.4c0.7,0,1.2,0.4,1.3,1.1L164.4,91.2z"/>
		<path class="st73" d="M155.9,26.9L155.9,26.9l0.4,0l0,0c11.1-0.8,20.7,7.5,21.5,18.6l0,0l0.5,7.4l0.7,10
			c0.8,11.1-7.5,20.8-18.6,21.6l-0.4,0c-11.1,0.8-20.8-7.5-21.6-18.6l-0.7-10l-0.5-7.4l0,0C136.5,37.4,144.8,27.7,155.9,26.9z"/>
		<path class="st76" d="M174.4,63.3l-0.7-10l-0.5-7.4l0,0c-0.8-10.4-9.2-18.3-19.4-18.6c0.7-0.1,1.4-0.2,2.1-0.3l0,0l0.4,0l0,0
			c11.1-0.8,20.7,7.5,21.5,18.6l0,0l0.5,7.4l0.7,10c0.8,11.1-7.5,20.8-18.6,21.6l-0.4,0c-0.7,0.1-1.5,0.1-2.2,0
			C168,82.7,175.2,73.6,174.4,63.3z"/>
		<path class="st73" d="M139.3,63.2c0,0-3.7,0.1-3.4,2.9c0.3,2.8,3.8,2.3,3.8,2.3"/>
		<path class="st76" d="M178,60.3c0,0,3.6-0.5,3.8,2.4s-3.4,2.9-3.4,2.9"/>
		<g>
			
				<ellipse transform="matrix(0.9973 -7.303672e-02 7.303672e-02 0.9973 -4.2031 11.8987)" class="st77" cx="160.6" cy="63.4" rx="0.7" ry="0.4"/>
			
				<ellipse transform="matrix(0.9973 -7.303672e-02 7.303672e-02 0.9973 -4.2317 11.6391)" class="st77" cx="157" cy="63.7" rx="0.7" ry="0.4"/>
		</g>
		<path class="st71" d="M138.9,68.4c-0.3,9.9,4.3,24.3,6.8,26.6c-0.3-1.2-1.2-6.9,0.2-9.6c0.4,6,2,10.7,3.7,13.1
			c-0.4-6.1,0.9-10.2,1.4-11.6c-1.1,8.7,3.5,14.8,5.8,15.7c-1.7-5.4-2.2-9.6-1.6-11.7c1,4.9,4.3,7.6,8.3,12.2c-1.8-7.6,0.6-7.3,1-13
			c1.4,6.1,1.8,9.5,1.1,14.8c2.9-6.4,3.3-8.3,4.2-12.6c0.7,1.8,1.5,4.8,1.5,7.3c1.9-3.3,1.8-11.9,2.1-12.6c1.6,4.8,1.3,9.3,1.3,9.3
			s1.9-3.1,2.3-9.3c0.3-4.6,2.7-11.7,2-21.3c-6.8,8.1-12.9-1.5-20.2-0.9C153,65.1,145.9,75.8,138.9,68.4z"/>
		<path class="st69" d="M168.2,69.1c4.5,0.3,5,13.2,5.3,17.3c0.2,4.1-0.9,10.7-2.1,13.1c1.8-8.9-1.1-26.2-3-27.7
			C166.6,70.3,168.2,69.1,168.2,69.1z"/>
		<g>
			<path class="st69" d="M161.6,72.7c-0.1,0.1-2.5-0.4-2.6-0.1c-1.5,2.7-1.9,7.7-1.3,13.2c0.7,5.8,2.6,12.2,5.8,17.3
				C163.5,102.8,158.9,78.9,161.6,72.7z"/>
		</g>
		<path class="st69" d="M175.9,68.4c0,0,0.5,4.8,0.2,10.3c-0.2,4.8-0.6,13.9-1.4,17.5c1.9-2.5,5.3-18.4,4.4-30.7
			C177.7,67.5,175.9,68.4,175.9,68.4z"/>
		<path class="st69" d="M145.7,95.1c0,0-2.2-8.3-3.2-13.1c-1.3-6.6-0.6-11.4-0.6-11.4s1.2,0.5,2.8,0.4c-1.7,2.4-1.2,8.6-1,11.1
			C143.9,86,145.7,95.1,145.7,95.1z"/>
		<path class="st69" d="M148.9,72.8c0,0-1.3,6.1-1.1,12c0.2,6,1.8,13.7,1.8,13.7s-1.3-10.8,0.3-17c1.7-6.6,2.7-7.3,2.7-7.3
			L148.9,72.8z"/>
		<path class="st69" d="M167.6,73.3c2.5,1.6,5.3,19.8-1.9,31.5c3.7-15.2,0.3-26.3-1.6-31.3C165.7,73,167.6,73.3,167.6,73.3z"/>
		<path class="st69" d="M154.4,74.5c0,0-2.8,4.7-1.7,16.5c0.7,7.1,4.1,11.7,4.1,11.7s-1.6-3.8-1.6-10.4c0-9.3,1.6-16.9,1.6-16.9
			L154.4,74.5z"/>
		<path class="st69" d="M161.1,72.8c0,0,2.3-1.2,2.7,1.9c0.9,6.5,0.7,14.8-1.3,20.1C164.4,85.2,161.1,72.8,161.1,72.8z"/>
		<g>
			<path class="st69" d="M149.2,75.6c7,0.9,14,0.4,20.7-1.4c0.5-0.1,0.8-0.6,0.7-1.1c-0.3-1.1-0.7-2.2-1-3.3
				c-0.1-0.5-0.6-0.7-1.1-0.6c-6,1.6-12.3,2.1-18.7,1.2c-0.5-0.1-0.9,0.3-1,0.7c-0.2,1.2-0.3,2.3-0.5,3.5
				C148.2,75.1,148.6,75.6,149.2,75.6z"/>
		</g>
		<g>
			<path class="st73" d="M149.1,74.5c7,0.9,14,0.4,20.7-1.4c0.5-0.1,0.8-0.6,0.7-1.1c-0.3-1.1-0.7-2.2-1-3.3
				c-0.1-0.5-0.6-0.7-1.1-0.6c-6,1.6-12.3,2.1-18.7,1.2c-0.5-0.1-0.9,0.3-1,0.7c-0.2,1.2-0.3,2.3-0.5,3.5
				C148.2,74,148.6,74.5,149.1,74.5z"/>
		</g>
		<g>
			<g>
				<path class="st83" d="M150.6,72.4c5.9,0.9,11.9,0.4,17.4-1.2c0.1,0,0.1-0.1,0.1-0.1c0-0.1-0.1-0.3-0.1-0.4
					c0-0.1-0.1-0.1-0.1-0.1c-5.5,1.6-11.3,2.1-17.2,1.2c-0.1,0-0.1,0-0.1,0.1c0,0.1,0,0.3-0.1,0.4C150.5,72.3,150.5,72.3,150.6,72.4
					z"/>
			</g>
			<path class="st80" d="M150.9,72.6c-0.1,0-0.2-0.1-0.2-0.1c-0.1-0.1-0.1-0.2-0.1-0.3l0.1-0.4c0-0.2,0.2-0.3,0.4-0.3
				c5.6,0.8,11.4,0.4,16.7-1.2c0.2-0.1,0.4,0,0.4,0.2l0.1,0.3c0,0.1,0,0.2,0,0.3c0,0.1-0.1,0.1-0.2,0.2c-2.8,0.8-5.6,1.3-8.5,1.6
				C156.6,73.1,153.7,73,150.9,72.6z M167.8,70.8c-5.4,1.6-11.2,2-16.8,1.2l0,0.2c5.6,0.8,11.4,0.4,16.9-1.2L167.8,70.8z"/>
		</g>
		
			<ellipse transform="matrix(0.9973 -7.303672e-02 7.303672e-02 0.9973 -3.6244 12.5046)" class="st80" cx="169.2" cy="55.8" rx="1" ry="1.3"/>
		
			<ellipse transform="matrix(0.9973 -7.303672e-02 7.303672e-02 0.9973 -3.7974 10.9333)" class="st80" cx="147.6" cy="57.4" rx="1" ry="1.3"/>
		<path class="st71" d="M151.8,29.9c-0.1-1.4-0.1-2.4,0.8-3.6c0.9-1.2-0.4-3.1-0.4-3.1s1.9,0.5,2.7,3.1c0.3-0.7,0.3-1.5-0.5-2.3
			c1.7,0.8,2.6,1.6,2.9,2.7c0.3-2-1.7-3.2-1.7-3.2s4.2,0.5,4.5,4.9c0.1,1.8-0.5,3-3.8,3.2S151.9,31.2,151.8,29.9z"/>
		<path class="st25" d="M131.5,44c-0.9-12.3,8.3-22.9,20.6-23.8l6.8-0.5c12.3-0.9,22.9,8.3,23.8,20.6l0.1,0.7c0,0,0,0.1,0,0.1
			c0,0.1,0,0.1,0,0.2l0.9,12.7c0.1,1.5-1,2.7-2.5,2.9c-1.5,0.1-2.7-1-2.9-2.5l-0.3-4.7c0,0-0.2-3.8-4.2-3.6l-32.7,2.4
			c-4,0.3-3.6,4.1-3.6,4.1l0.3,4.7c0.1,1.5-1,2.7-2.5,2.9c-1.5,0.1-2.7-1-2.9-2.5l-0.9-12.7c0-0.1,0-0.1,0-0.2c0-0.1,0-0.1,0-0.2
			L131.5,44z"/>
		<g>
			<path class="st81" d="M146.4,30.1c0-1.4,1-2.7,2.5-2.8c0.7,0,1.3,0.2,1.8,0.5c0.6,0.5,1,1.1,1.1,1.9c0.1,1.5-1,2.8-2.5,2.9
				c-1.5,0.1-2.8-1-2.9-2.5C146.4,30.2,146.4,30.1,146.4,30.1z"/>
			<path class="st81" d="M160.9,27c0.4-0.4,1-0.6,1.6-0.7c1.3-0.1,2.4,0.7,2.8,1.9c0.1,0.2,0.1,0.4,0.1,0.5c0.1,1.5-1,2.8-2.5,2.9
				c-1.5,0.1-2.8-1-2.9-2.5C160,28.3,160.3,27.5,160.9,27z"/>
		</g>
		<path class="st71" d="M164.3,51.2c0,0,3.1-2,6.1-1c2.8,0.9,8.1-0.1,9.5-0.8c-0.5,1.2-1.5,2.6-4.3,3c0.3,0.1,1.5,0.3,2.3,0.1
			c-1.2,1.3-4.1,2.1-7.4-0.1C167.2,50.4,164.3,51.2,164.3,51.2z"/>
		<path class="st71" d="M152.8,52.6c0,0-3.2-1.9-6.4-0.7c-2.9,1.1-8.6,1.2-10.1,0.6c0.6,1.1,1.8,2.5,4.7,2.5
			c-0.3,0.2-1.6,0.5-2.4,0.4c1.4,1.1,4.4,1.7,7.8-0.8S152.8,52.6,152.8,52.6z"/>
		<g>
			<path class="st13" d="M308.5,168.7c0.4-0.1,0.8-0.1,1.1-0.1c0.8-0.1,1.8-0.3,2.5-0.1c8.6,1.8,10.9,11.1,10.9,11.1
				s4.2,18.9,16.2,24.5c9.8,4.6,22,5.3,36,0.5l-1.8-5.5c0,0-9.2,3.9-19.2,2.9c-10-0.9-18.3-7.6-21.8-19.1c0,0-2.3-9.8-2.3-15v-17.9
				c0,0-34.7-1-35.4-0.6c0,1.6-0.4,5.7-0.5,6.2c-0.3,2.7-1.2,5.2-2.6,7.6c-3.5,5.8-9.1,10-13.4,15.1c-3.1,3.7-4.6,8.2-4.6,13
				c0,1.8,0.2,3.6,0.6,5.4c2.3,10.2,7.7,25,10.8,34.9c0,0,4.9-0.8,6.3-1c-0.2,0-6.3-20.1-6.7-21.5c-0.8-2.7-1.6-5.5-2.3-8.2
				c-0.7-2.7-1.6-5.5-1.6-8.3c0.1-5.5,4.3-9.6,8.1-12.9c2.7-2.3,5.7-4.4,8.8-6.3v0c0.4-2,2.1-3.5,4.1-3.7L308.5,168.7"/>
			<path class="st13" d="M297.8,173.8C297.8,173.9,297.8,173.9,297.8,173.8C297.8,173.9,297.8,173.9,297.8,173.8z"/>
		</g>
		<rect x="270.4" y="189.2" class="st61" width="18.2" height="6.5"/>
		<path class="st24" d="M337.9,82c0,0-3.2,0.2-6.8-3.9c-2.6-3-2.6-7.4-3-11.2c-0.3-2.4-1.1-4.7-1.4-7.1c-0.5-4.1,0.4-9.3-2.7-12.6
			c-0.6-0.7-3-2.2-4.8-2.5c-0.9-0.2-1.6,0-2,0.6c-0.5,0.8-0.2,2.3-0.2,3.2c0,1.3-0.1,2.6-0.3,3.9c-0.3,2.4-0.7,4.9-1.1,7.3
			c-1,5-1.5,10.6,0.6,15.4c1.8,4,5.3,7.1,9.1,9c1.3,0.6,2.7,1.1,4.1,1.4c1.3,0.3,2.7,0.2,3.9,0.5c-0.9-0.2-1.7-1-2-1.9
			c1.4,0.6,3,0.7,4.5,0.2c-0.6-0.3-1.2-0.7-1.7-1.1C334.9,83.1,336.4,82.8,337.9,82z"/>
		<g>
			<polygon class="st8" points="390.7,12.6 359.5,28.5 367.2,43.1 398,27.4 			"/>
			<ellipse transform="matrix(0.7307 -0.6827 0.6827 0.7307 82.769 265.7935)" class="st82" cx="378.3" cy="28" rx="6.4" ry="6.4"/>
			<polygon class="st6" points="378.1,20.7 374.7,22.2 375.2,30.5 378.5,28.4 378.9,35.1 381.9,24.3 378.2,26 			"/>
		</g>
		<path class="st84" d="M294.6,152.5l35.6-1.1c0.1-0.1,1.3-36-6.9-64.4c-0.9-3.3-4.3-5.2-7.6-4.4L291,89c-3.3,0.9-5.3,4.2-4.5,7.5
			C290.5,113.5,295,125.9,294.6,152.5z"/>
		<path class="st85" d="M231.3,160.1c-1,0-2-0.5-2.6-1.3c-1-1.4-0.7-3.4,0.8-4.4c38.8-27.3,56.6-60.3,56.8-60.6
			c0.8-1.5,2.7-2.1,4.3-1.3c1.5,0.8,2.1,2.7,1.3,4.3c-0.7,1.4-18.6,34.5-58.7,62.8C232.5,159.9,231.9,160.1,231.3,160.1z"/>
		<path class="st84" d="M292.2,97.2l-10.3,15.6l-6.3-4.2L285.9,93c1.1-1.7,3.5-2.2,5.2-1.1l0,0C292.9,93.1,293.3,95.4,292.2,97.2z"
			/>
		<path class="st84" d="M285.5,93.6c0,0,2-3.7,5.5-4.6l-0.3,5.5l-5,4.3"/>
		<path class="st61" d="M231.9,193.2c-1.8,0-3.3-1.5-3.3-3.3v-26.5h-6.6c-1.8,0-3.3-1.5-3.3-3.3s1.5-3.3,3.3-3.3h9.8
			c1.8,0,3.3,1.5,3.3,3.3V190C235.2,191.8,233.7,193.2,231.9,193.2z"/>
		<path class="st59" d="M249.4,177.3l3.7-5.3c0.3-0.5-0.1-1.1-0.6-1.1h-26l0,0H219c-1.8,0-3.4-1.2-3.8-3c-0.5-2.4,1.3-4.4,3.6-4.4
			h3.1c1.6,0,3-1.1,3.3-2.6c0.4-2.1-1.2-3.9-3.2-3.9h-2.8c-5.4,0-10.2,4.1-10.6,9.5c-0.4,5.9,4.3,10.9,10.2,10.9h6.1h13.4h1.8
			l-3.5,5.2c-0.4,0.5,0.1,1.3,0.7,1.2l23.5-5.7c0.5-0.1,0.4-0.9-0.1-0.9L249.4,177.3z"/>
		<rect x="228.7" y="187.2" class="st59" width="6.5" height="2"/>
		<path class="st85" d="M331.9,80.7c-0.9-0.1-1.8-0.6-2.3-1.5c-0.8-1.4-0.2-3.1,1.2-3.9l0,0c0.2-0.1,24.2-13.4,38.5-38.5
			c0.8-1.4,2.5-1.9,3.9-1.1c1.4,0.8,1.9,2.5,1.1,3.9c-15.1,26.5-39.7,40.1-40.8,40.7C333,80.6,332.4,80.7,331.9,80.7z"/>
		<path class="st84" d="M319.3,81.6l15.4-9.4l3.8,6.2l-15.4,9.4c-1.7,1-4,0.5-5-1.2v0C317,84.8,317.6,82.6,319.3,81.6z"/>
		<path class="st24" d="M315.7,88.5c0.4-3.1-2.3-2.2-2.3-2.2c-7,2.4-12.3,1.5-12.3,1.5l6.1-5.8l-12.9,5.1c-1-0.3-2.1,0.1-2.7,0.9
			c-0.6,0.8-0.6,2-0.1,2.9c0.5,0.8,1.5,1.3,2.5,1.5c1,0.2,2,0.3,2.9,0.7c1.3,0.5,2.5,1.5,3.8,1.9c0.8,0.2,1.7,0.2,2.6,0.2
			c1.7-0.1,3.3-0.2,5,0.2c0.9,0.2,1.8,0.6,2.7,0.9c3.2,1.1,6.8,1.4,10.1,0.8C316,96,315.3,91.6,315.7,88.5z"/>
		<path class="st86" d="M318.8,90.3c0.2-0.8,0.7-1.5,0.7-2.3c0-1-0.9-1.9-1.1-2.9c-0.2-1.1,0.2-2.3-0.4-3.2c-0.4-0.6-1.1-0.8-1.8-1
			c-2.2-0.5-4.5-0.5-6.6,0.1l-2.5,1l-6.1,5.8c0,0,5.3,0.8,12.3-1.5c0,0,2.7-0.9,2.3,2.2c-0.4,3.1,0.4,7.5,5.4,8.6
			c-0.7-0.8-1.2-1.6-1.7-2.6C318.7,93.3,318.3,91.7,318.8,90.3z"/>
		<path class="st31" d="M302.9,108.2l-1.6,14.6c0,0.2,0.2,0.4,0.4,0.3l5.5-1.2c0.2,0,0.4,0.1,0.4,0.3l-0.3,12.6
			c0,0.3,0.4,0.4,0.5,0.1l9.8-22.2c0.1-0.2-0.1-0.5-0.3-0.4l-5.5,1.4c-0.2,0.1-0.4-0.1-0.4-0.3l0.9-7.1c0-0.2-0.2-0.4-0.4-0.3
			l-8.7,2C303,108,302.9,108.1,302.9,108.2z"/>
		<path class="st85" d="M299.9,26.5c11.3,0.5,18.4,7.5,18.1,14.5l-0.6,13l-0.4,7.5l-0.5,10c-0.5,11.2-9.3,16.8-19.5,16.3l-0.4,0
			c-10.2-0.5-18.1-6.9-17.6-18.1l0.5-10l0.4-7.5l0.6-13C280.8,33.3,289.8,26.1,299.9,26.5z"/>
		<path class="st87" d="M313.5,71.4l0.5-10l0.4-7.5l0.6-13c0.3-6.1-7.2-12.8-17.1-14.4c0.7-0.1,1.4-0.1,2.1,0
			c11.3,0.5,18.4,7.6,18.1,14.5l-0.6,13l-0.4,7.5l-0.5,10c0,0.7-0.1,1.5-0.2,2.2c-0.1,0.7-0.2,1.3-0.4,2c-0.1,0.6-0.3,1.2-0.5,1.8
			c-0.2,0.6-0.4,1.1-0.6,1.7c-0.2,0.5-0.5,1-0.8,1.5c-0.3,0.5-0.6,0.9-0.9,1.3c-0.3,0.4-0.6,0.8-1,1.2c-0.3,0.4-0.7,0.7-1.1,1
			c-0.4,0.3-0.8,0.6-1.2,0.9c-0.4,0.3-0.8,0.5-1.3,0.7c-0.4,0.2-0.9,0.4-1.4,0.6c-0.5,0.2-1,0.4-1.4,0.5c-0.5,0.2-1,0.3-1.5,0.4
			c-0.5,0.1-1,0.2-1.6,0.3c-0.5,0.1-1.1,0.1-1.6,0.2c-0.6,0-1.1,0.1-1.7,0.1c-0.6,0-1.1,0-1.7,0c-0.5,0-0.9,0-1.4-0.1
			c-0.5,0-0.9-0.1-1.4-0.2c-0.1,0-0.2,0-0.3,0c-0.4-0.1-0.7-0.1-1.1-0.2c-0.3-0.1-0.6-0.1-0.8-0.2C302,86.7,312.8,85.3,313.5,71.4z"
			/>
		
			<ellipse transform="matrix(4.700149e-02 -0.9989 0.9989 4.700149e-02 197.5394 344.1661)" class="st77" cx="279.1" cy="68.6" rx="0.4" ry="0.7"/>
		
			<ellipse transform="matrix(4.700149e-02 -0.9989 0.9989 4.700149e-02 210.1656 335.1954)" class="st80" cx="280.8" cy="57.5" rx="1.4" ry="1.1"/>
		<path class="st85" d="M284.1,56.5c-0.4,1.3-1.8,3-4.5,7.4c-0.6,1-4.2,4.2,1.4,4.8c2.2,0.2,3.8-0.3,4.7-0.7
			c0.4-0.2,0.6-0.5,0.3-0.8c-0.5-0.7-2-2.2-1.6-4.6C284.7,61,285.3,58.2,284.1,56.5z"/>
		<path class="st87" d="M284.8,57.7c0,0-1.1,4.3-1.3,5.8c-0.2,1.4,0.4,2,1,2.7c0.5,0.8,0.6,2.6,0.6,2.6s1.6-1.2,0.4-3.6
			C283.8,62.1,284.6,59.9,284.8,57.7z"/>
		
			<ellipse transform="matrix(4.700149e-02 -0.9989 0.9989 4.700149e-02 201.8631 348.5679)" class="st77" cx="283.6" cy="68.5" rx="0.4" ry="0.7"/>
		
			<ellipse transform="matrix(4.700149e-02 -0.9989 0.9989 4.700149e-02 220.9388 347.9101)" class="st80" cx="292.8" cy="58.2" rx="1.4" ry="1.1"/>
		<path class="st24" d="M299.9,53.5c-0.1,0-0.2,0-0.3-0.1c-3.6-3-8.5-2.4-8.6-2.4c-0.3,0-0.5-0.2-0.5-0.4c0-0.3,0.1-0.5,0.4-0.5
			c0.2,0,5.4-0.6,9.3,2.6c0.2,0.2,0.2,0.5,0.1,0.7C300.2,53.4,300,53.5,299.9,53.5z"/>
		<path class="st24" d="M279.4,51.7c-0.2,0-0.3-0.1-0.4-0.2c-0.1-0.2-0.1-0.5,0.2-0.6c1.6-0.9,2.9-1,2.9-1c0.3,0,0.5,0.2,0.5,0.4
			c0,0.3-0.2,0.5-0.4,0.5c0,0-1.1,0.1-2.6,0.9C279.6,51.7,279.5,51.7,279.4,51.7z"/>
		<g>
			<path class="st88" d="M283.8,78.4c-1,0-1.7-0.1-1.7-0.1c-1-0.1-1.8-1-1.7-2c0.1-1,1-1.8,2-1.7c0.1,0,4.7,0.4,8-1.2
				c0.9-0.4,2.1,0,2.5,0.9c0.4,0.9,0,2.1-0.9,2.5C289.1,78.1,285.7,78.4,283.8,78.4z"/>
			<path class="st80" d="M283.8,77.1c-1,0-1.6-0.1-1.7-0.1c-0.3,0-0.6-0.3-0.6-0.7c0-0.3,0.3-0.6,0.7-0.6c0,0,5,0.4,8.7-1.3
				c0.3-0.1,0.7,0,0.8,0.3s0,0.7-0.3,0.8C288.8,76.9,285.7,77.1,283.8,77.1z"/>
		</g>
		<path class="st24" d="M277.4,47.5c0,0,13,0,33.8,3.8c0,0,0.1-4.3,0.5-7.5l-33.5-0.5C278.2,43.2,277.5,44.7,277.4,47.5z"/>
		<path class="st24" d="M316.6,70.8c0,0,0.6-2.4-0.9-4.9l1.9-1.3l1.7,3l-1.6,4.7"/>
		<path class="st24" d="M316.3,45.7c0,0,1,7.8,0.7,17.4l3.2-15.2l-1.1-3.2"/>
		<path class="st24" d="M313.7,51.2c0,0-4,13.7,3.4,15.2l2.3-9.2l-1.8-11.3l-3.2-0.2"/>
		<path class="st81" d="M315.3,51.2c0,0-0.1,6-1.6,11.7l2.1,1.8c0,0,1.8-6.9,2.1-13.2"/>
		<path class="st85" d="M312.8,62.3c0,0,3.7,0,3.5,2.8s-3.7,2.5-3.7,2.5"/>
		<path class="st24" d="M315.9,43.5c0,0-6.1,15.5,1.5,37c0,0-9-5.4-6.4-37.1"/>
		<path class="st13" d="M320.2,42.3c0.5-10.4-7.5-19.1-17.9-19.6l-6.4-0.3c-6.3-0.3-12.1,2.6-15.7,7.2c0.4,0.3,0.7,0.8,0.8,1.3
			c0,0.1,0,0.3,0,0.4c-0.1,1.1-0.8,1.9-1.7,1.8c-0.4,0-0.7-0.2-1-0.5c-1.1,2.3-1.9,4.8-2,7.5l0,0.6c0,0,0,0.1,0,0.1c0,0,0,0.1,0,0.2
			c-0.1,1.9,1.4,3.6,3.3,3.6l4.3,0.2l1.2,0.1l27.1,1.2c3.3,0.2,3.2,3.4,3.2,3.4l-0.2,3.9c-0.1,1.2,0.8,2.3,1.9,2.4
			c1.3,0.2,2.5-0.8,2.6-2.1l0.5-10.7c0-0.1,0-0.1,0-0.2c0,0,0-0.1,0-0.1L320.2,42.3z"/>
		<path class="st82" d="M281.1,31.3c0-0.1,0-0.3,0-0.4c-0.1-0.6-0.4-1-0.8-1.3c-0.7,1-1.4,2-2,3.1c0.3,0.3,0.6,0.5,1,0.5
			C280.2,33.2,281,32.4,281.1,31.3z"/>
		<path class="st82" d="M287.1,30.1c0.3-0.2,0.6-0.4,1-0.3c0.8,0,1.4,0.7,1.5,1.6c0,0.1,0,0.3,0,0.4c-0.1,1.1-0.8,1.9-1.7,1.8
			s-1.6-0.9-1.5-2C286.4,31,286.6,30.4,287.1,30.1z"/>
		<rect x="401.5" y="189.2" class="st59" width="18.2" height="6.5"/>
		<path class="st8" d="M597.6,83.4l-4.4-4.4l4.4-4.4l-4.4-4.4l4.4-4.4l-4.4-4.4l4.4-4.4l-4.4-4.4l4.4-4.4l-4.4-4.4l4.4-4.4h-84.7
			c-0.8,0-1.6,0.5-1.9,1.3c-9.5,24.4-13.7,43.9-14.8,49.7c-0.2,0.9,0.5,1.8,1.5,1.8h99.9l-4.4-4.4L597.6,83.4z"/>
		<path class="st89" d="M516.6,39.4c0,0-10.3,24.9-16.3,52.8h2.4c0,0,4.6-22.3,16.2-52.8H516.6z"/>
		<g id="XMLID_235_">
			<g>
				<path id="XMLID_169_" class="st6" d="M549.6,76.9c-3.1,4-8,6.6-13.4,6.6c-9.4,0-17-7.6-17-17c0-9.4,7.6-17,17-17
					c5.5,0,10.3,2.6,13.4,6.6c0.3-0.6,0.7-1.2,1.1-1.7c-2.7-3.2-6.4-5.5-10.7-6.4c0,0,0,0,0,0c-0.3-0.1-0.6-0.1-0.9-0.2
					c0,0-0.1,0-0.1,0c-0.3,0-0.6-0.1-0.9-0.1c-0.1,0-0.1,0-0.2,0c-0.3,0-0.5,0-0.8-0.1c-0.2,0-0.4,0-0.6,0c-0.1,0-0.3,0-0.4,0
					c-10.5,0-18.9,8.5-18.9,19c0,10.5,8.5,19,18.9,19c0.1,0,0.2,0,0.4,0c0.2,0,0.4,0,0.6,0c0.3,0,0.5,0,0.8-0.1c0.1,0,0.1,0,0.2,0
					c0.3,0,0.6-0.1,0.8-0.1c0,0,0.1,0,0.1,0c0.3,0,0.6-0.1,0.9-0.2c0,0,0,0,0,0c4.3-0.9,8-3.2,10.7-6.4
					C550.3,78.1,550,77.5,549.6,76.9z"/>
				<path id="XMLID_164_" class="st6" d="M546.8,66.5c0-3.1,0.7-6.1,2-8.8c-2.8-3.9-7.4-6.5-12.5-6.5c-8.5,0-15.3,6.9-15.3,15.3
					c0,8.5,6.9,15.3,15.3,15.3c5.2,0,9.8-2.6,12.5-6.5C547.5,72.6,546.8,69.6,546.8,66.5z M525.7,64.6c-0.3-0.3-0.3-0.8,0-1l5.9-5.6
					c0.3-0.3,0.8-0.3,1,0l1.3,1.4c0.3,0.3,0.3,0.8,0,1l-5.9,5.6c-0.3,0.3-0.8,0.3-1,0L525.7,64.6z M544.7,73.4c-1.9,2.5-5.1,4-8.5,4
					c-3.4,0-6.6-1.5-8.5-4.1c-0.9-1.2-0.4-1.6,0.2-2.1c0.6-0.5,1.4-0.5,2.1,0.2c1.5,1.8,3.7,3,6.3,3c2.5,0,4.8-1.2,6.2-3
					c0.6-0.8,1.5-0.7,2.1-0.2C545.1,71.8,545.6,72.2,544.7,73.4z M546.1,64.6l-1.3,1.4c-0.3,0.3-0.7,0.3-1,0l-5.9-5.6
					c-0.3-0.3-0.3-0.7,0-1l1.3-1.4c0.3-0.3,0.7-0.3,1,0l5.9,5.6C546.4,63.9,546.4,64.3,546.1,64.6z"/>
				<path id="XMLID_159_" class="st6" d="M567.6,51.1c-8.5,0-15.3,6.9-15.3,15.3c0,8.5,6.9,15.3,15.3,15.3c8.5,0,15.3-6.9,15.3-15.3
					C583,58,576.1,51.1,567.6,51.1z M557.2,64.6c-0.3-0.3-0.3-0.8,0-1l5.9-5.6c0.3-0.3,0.8-0.3,1,0l1.3,1.4c0.3,0.3,0.3,0.8,0,1
					l-5.9,5.6c-0.3,0.3-0.8,0.3-1,0L557.2,64.6z M576.2,73.4c-1.9,2.5-5.1,4-8.5,4c-3.4,0-6.6-1.5-8.5-4.1c-0.9-1.2-0.4-1.6,0.2-2.1
					c0.6-0.5,1.4-0.5,2.1,0.2c1.5,1.8,3.7,3,6.3,3c2.5,0,4.8-1.2,6.2-3c0.6-0.8,1.5-0.7,2.1-0.2C576.5,71.8,577.1,72.2,576.2,73.4z
					 M577.8,64.3l-8.1-0.1c-0.4,0-0.7-0.3-0.7-0.7l0-1.9c0-0.4,0.3-0.7,0.7-0.7l8.1,0.1c0.4,0,0.7,0.3,0.7,0.7l0,1.9
					C578.6,63.9,578.3,64.3,577.8,64.3z"/>
				<path id="XMLID_156_" class="st6" d="M548.7,66.5c0,10.5,8.5,19,18.9,19c0.1,0,0.2,0,0.4,0c0.2,0,0.4,0,0.6,0
					c0.3,0,0.5,0,0.8-0.1c0.1,0,0.1,0,0.2,0c0.3,0,0.6-0.1,0.8-0.1c0,0,0.1,0,0.1,0c0.3,0,0.6-0.1,0.9-0.2c0,0,0,0,0,0
					c8.6-1.8,15.1-9.4,15.1-18.6c0-9.2-6.5-16.8-15.1-18.6c0,0,0,0,0,0c-0.3-0.1-0.6-0.1-0.9-0.2c0,0-0.1,0-0.1,0
					c-0.3,0-0.6-0.1-0.9-0.1c-0.1,0-0.1,0-0.2,0c-0.3,0-0.5,0-0.8-0.1c-0.2,0-0.4,0-0.6,0c-0.1,0-0.3,0-0.4,0
					C557.2,47.5,548.7,56,548.7,66.5z M567.6,49.5c9.4,0,17,7.6,17,17c0,9.4-7.6,17-17,17c-9.4,0-17-7.6-17-17
					C550.6,57.1,558.3,49.5,567.6,49.5z"/>
			</g>
		</g>
	</g>
</g>
<g id="SYM_Offer">
</g>
<g id="Sign_Up_Offer">
</g>
<g id="Specs">
</g>
</svg>
