<svg version="1.1" id="Layer_1" xmlns="http://www.w3.org/2000/svg" xmlns:xlink="http://www.w3.org/1999/xlink" x="0px" y="0px"
	 viewBox="0 0 105 45" enable-background="new 0 0 105 45" xml:space="preserve">
	<path fill="#0E91CF" d="M96.8,40.4L9.3,43.6c-3.3,0.1-6-1.7-6.1-4.2L2.5,9.2C2.4,6.8,5,4.7,8.2,4.6l87.4-3.2c3.3-0.1,6,1.7,6.1,4.2
		l0.8,30.2C102.6,38.2,100,40.3,96.8,40.4z"/>
	<g>
		<g>
			<path fill="#FFFFFF" d="M43.4,28.2c2.3-0.1,3.2,0.7,3.2,2.3l0,0.3c0.1,1.7-0.7,2.6-3,2.7l-10.5,0.4c-3.1,0.1-4.1-0.3-4.2-3
				l-0.1-1.3c-0.2-3.8,3.5-6.1,6.3-7.5c2.5-1.3,4.4-1.9,4.3-3.3c-0.1-1.4-1-2-2.9-2c-2.2,0.1-3.5,1.8-3.8,3.5c0,0.1-4.3,0.4-4.4-2.8
				c-0.1-3.2,2.9-5.8,8.4-6c5.7-0.2,8.9,2.3,9.1,6.6c0.2,4.1-2.6,5.6-5.6,6.9c-2.6,1.1-4.4,1.9-5.2,3.4
				C38.1,28.4,41.5,28.2,43.4,28.2z"/>
			<path fill="#FFFFFF" d="M56.7,19.3c5-0.2,8.4,2.2,8.6,6.5c0.2,4.4-3.2,7.4-8.9,7.6c-5.5,0.2-8.6-1.7-8.6-3.8
				c-0.1-1.8,2.1-3.3,2.3-3.2c1.6,1.6,3.7,2.3,5.9,2.3c2.3-0.1,3.6-1.1,3.5-2.8c-0.1-1.7-1.3-2.5-3.7-2.4c-1.9,0.1-3,0.7-3.7,1.3
				c-2.5,0.1-3.9-0.8-4-3.6l-0.2-5.8c-0.1-2.4,0.7-3.8,3-3.9l10-0.4c2.2-0.1,3.2,0.7,3.3,2.4l0,0.2c0.1,1.8-0.9,2.6-3.1,2.7
				l-7.7,0.3l0.1,3.2C54.4,19.6,55.5,19.3,56.7,19.3z"/>
			<path fill="#FFFFFF" d="M66.8,22.7l-0.1-2C66.4,14.5,70,10.3,76.3,10c6.3-0.3,10.1,3.6,10.4,9.8l0.1,2.1
				c0.3,6.3-3.3,10.4-9.5,10.7C70.9,32.8,67,29,66.8,22.7z M80.1,22.8l-0.1-3.3c-0.1-2.9-1.3-4.3-3.5-4.2c-2.2,0.1-3.2,1.5-3.1,4.5
				l0.1,3.2c0.1,2.9,1.3,4.3,3.5,4.2C79.2,27.1,80.2,25.6,80.1,22.8z"/>
		</g>
	</g>
	<g>
		<path fill="#FFFFFF" d="M13.9,28.7c0-0.8,0.9-1.4,1-1.3c0.8,1,2.2,1.9,3.9,2.1l-0.3-5.1c-2.2-0.4-4.5-1.3-4.7-4.1
			c-0.1-2.3,1.6-4.1,4.2-4.6l-0.1-1.2c0-0.8,0.3-1.2,0.9-1.2l0.2,0c0.7,0,1,0.3,1,1.1l0.1,1.1c2.8,0.1,4.4,1.4,4.5,2.5
			c0,0.9-1,1.5-1,1.4c-0.8-1-2-1.7-3.5-1.8l0.2,4.9c2.3,0.4,4.9,1.3,5,4.2c0.1,2.4-1.7,4.3-4.5,4.8l0.1,1.2c0,0.8-0.3,1.2-0.9,1.2
			l-0.1,0c-0.7,0-1-0.3-1-1.1l-0.1-1.2C15.8,31.3,13.9,29.9,13.9,28.7z M16.2,20c0.1,1.2,0.9,1.7,2.2,2.1l-0.2-4.4
			C16.9,18,16.1,18.9,16.2,20z M22.9,26.9c-0.1-1.3-1.1-1.8-2.5-2.2l0.2,4.7C22.1,29,23,28.1,22.9,26.9z"/>
	</g>
</svg>
