<svg xmlns="http://www.w3.org/2000/svg" viewBox="0 0 105 45" enable-background="new 0 0 105 45"><path fill="#0E91CF" d="M96.8 40.4l-87.5 3.2c-3.3.1-6-1.7-6.1-4.2l-.7-30.2c-.1-2.4 2.5-4.5 5.7-4.6l87.4-3.2c3.3-.1 6 1.7 6.1 4.2l.8 30.2c.1 2.4-2.5 4.5-5.7 4.6z"/><g fill="#fff"><path d="M43.4 28.2c2.3-.1 3.2.7 3.2 2.3v.3c.1 1.7-.7 2.6-3 2.7l-10.5.4c-3.1.1-4.1-.3-4.2-3l-.1-1.3c-.2-3.8 3.5-6.1 6.3-7.5 2.5-1.3 4.4-1.9 4.3-3.3-.1-1.4-1-2-2.9-2-2.2.1-3.5 1.8-3.8 3.5 0 .1-4.3.4-4.4-2.8-.1-3.2 2.9-5.8 8.4-6 5.7-.2 8.9 2.3 9.1 6.6.2 4.1-2.6 5.6-5.6 6.9-2.6 1.1-4.4 1.9-5.2 3.4 3.1 0 6.5-.2 8.4-.2zM56.7 19.3c5-.2 8.4 2.2 8.6 6.5.2 4.4-3.2 7.4-8.9 7.6-5.5.2-8.6-1.7-8.6-3.8-.1-1.8 2.1-3.3 2.3-3.2 1.6 1.6 3.7 2.3 5.9 2.3 2.3-.1 3.6-1.1 3.5-2.8-.1-1.7-1.3-2.5-3.7-2.4-1.9.1-3 .7-3.7 1.3-2.5.1-3.9-.8-4-3.6l-.2-5.8c-.1-2.4.7-3.8 3-3.9l10-.4c2.2-.1 3.2.7 3.3 2.4v.2c.1 1.8-.9 2.6-3.1 2.7l-7.7.3.1 3.2c.9-.3 2-.6 3.2-.6zM66.8 22.7l-.1-2c-.3-6.2 3.3-10.4 9.6-10.7 6.3-.3 10.1 3.6 10.4 9.8l.1 2.1c.3 6.3-3.3 10.4-9.5 10.7-6.4.2-10.3-3.6-10.5-9.9zm13.3.1l-.1-3.3c-.1-2.9-1.3-4.3-3.5-4.2-2.2.1-3.2 1.5-3.1 4.5l.1 3.2c.1 2.9 1.3 4.3 3.5 4.2 2.2-.1 3.2-1.6 3.1-4.4z"/></g><path fill="#fff" d="M13.9 28.7c0-.8.9-1.4 1-1.3.8 1 2.2 1.9 3.9 2.1l-.3-5.1c-2.2-.4-4.5-1.3-4.7-4.1-.1-2.3 1.6-4.1 4.2-4.6l-.1-1.2c0-.8.3-1.2.9-1.2h.2c.7 0 1 .3 1 1.1l.1 1.1c2.8.1 4.4 1.4 4.5 2.5 0 .9-1 1.5-1 1.4-.8-1-2-1.7-3.5-1.8l.2 4.9c2.3.4 4.9 1.3 5 4.2.1 2.4-1.7 4.3-4.5 4.8l.1 1.2c0 .8-.3 1.2-.9 1.2h-.1c-.7 0-1-.3-1-1.1l-.1-1.2c-3-.3-4.9-1.7-4.9-2.9zm2.3-8.7c.1 1.2.9 1.7 2.2 2.1l-.2-4.4c-1.3.3-2.1 1.2-2 2.3zm6.7 6.9c-.1-1.3-1.1-1.8-2.5-2.2l.2 4.7c1.5-.4 2.4-1.3 2.3-2.5z"/></svg>