<?xml version="1.0" encoding="utf-8"?>
<!-- Generator: Adobe Illustrator 21.1.0, SVG Export Plug-In . SVG Version: 6.00 Build 0)  -->
<svg version="1.1" id="Layer_1" xmlns="http://www.w3.org/2000/svg" xmlns:xlink="http://www.w3.org/1999/xlink" x="0px" y="0px"
	 viewBox="0 0 560 146" style="enable-background:new 0 0 560 146;" xml:space="preserve">
<style type="text/css">
	.st0{fill:#FFFFFF;}
</style>
<g>
	<path class="st0" d="M205.3,143.8c-0.4,0.1-0.8,0-1.2-0.1c-0.4-0.1-0.7-0.3-1-0.6c-0.2-0.3-0.3-0.7-0.2-1.2l10.5-28.3
		c0.5-1.2,0.9-2,1.2-2.6c0.4-0.5,1.1-0.8,2.1-0.8h0.5c1.8,0,2.7,1,2.7,3v0.4c0,0.6-0.1,1.2-0.3,2c-0.2,0.7-0.6,1.5-1.2,2.5
		l-12.3,25.2C206,143.5,205.8,143.7,205.3,143.8L205.3,143.8z"/>
	<path class="st0" d="M320.2,35.7c-2.2-6.6-5.2-12.2-9-16.9c-3.8-4.6-8.5-8.3-13.9-10.8c-5.4-2.5-11.5-3.8-18.1-3.8
		c-6.7,0-12.9,1.3-18.3,3.8c-5.4,2.5-10.1,6.1-13.9,10.8c-3.9,4.7-6.9,10.4-9,17c-2.1,6.6-3.2,14-3.2,22.2v10.7
		c0,8.1,1,15.5,3.1,22.1c2.1,6.6,5,12.2,8.9,16.9c3.8,4.6,8.4,8.3,13.9,10.8c5.4,2.5,11.5,3.8,18.3,3.8h0c6.8,0,12.9-1.2,18.3-3.8
		c5.4-2.5,10-6.2,13.9-10.9c3.9-4.8,6.9-10.4,9-17c2.1-6.6,3.2-13.9,3.2-22.1V57.8C323.4,49.6,322.3,42.3,320.2,35.7z M317.4,68.4
		c0,7.5-0.9,14.2-2.7,20.2c-1.7,6-4.3,11.1-7.7,15.3c-3.4,4.2-7.4,7.5-12.1,9.8c-4.7,2.3-10,3.5-15.9,3.5l0,0h0h0
		c-5.8,0-11.1-1.2-15.8-3.4c-4.8-2.3-8.8-5.6-12.1-9.9c-3.3-4.3-5.9-9.4-7.7-15.4c-1.9-6-2.8-12.7-2.8-20.2V58
		c0-7.5,1-14.2,2.8-20.2c1.8-6,4.4-11.1,7.7-15.3c3.3-4.2,7.4-7.5,12.1-9.8c4.7-2.3,10-3.5,15.8-3.5s11.1,1.2,15.8,3.5
		c4.8,2.3,8.8,5.6,12.1,9.9c3.3,4.3,5.9,9.4,7.7,15.4c1.9,6,2.8,12.7,2.8,20.2V68.4z"/>
	<path class="st0" d="M430.7,35.7c-2.2-6.6-5.2-12.2-9-16.9c-3.8-4.6-8.5-8.3-13.9-10.8c-5.4-2.5-11.5-3.8-18.1-3.8
		c-6.7,0-12.9,1.3-18.3,3.8c-5.5,2.5-10.2,6.1-14,10.8c-3.9,4.7-6.9,10.4-9,17c-2.1,6.6-3.2,14-3.2,22.2v10.7c0,8.1,1,15.5,3.1,22.1
		c2.1,6.6,5,12.2,8.9,16.9c3.8,4.6,8.4,8.3,13.9,10.8c5.4,2.5,11.5,3.8,18.3,3.8c6.7,0,12.8-1.2,18.4-3.8c5.4-2.5,10-6.2,13.9-10.9
		c3.9-4.8,6.9-10.4,9-17c2.1-6.6,3.2-13.9,3.2-22.1V57.8C433.9,49.6,432.8,42.3,430.7,35.7z M427.8,68.4c0,7.5-0.9,14.2-2.7,20.2
		c-1.7,6-4.3,11.1-7.7,15.3c-3.4,4.2-7.4,7.5-12.1,9.8c-4.7,2.3-10,3.5-15.9,3.5s-11.1-1.2-15.8-3.4c-4.8-2.3-8.8-5.6-12.1-9.9
		c-3.3-4.3-5.9-9.4-7.7-15.4c-1.9-6-2.8-12.7-2.8-20.2V58c0-7.5,1-14.2,2.8-20.2s4.4-11.1,7.7-15.3s7.4-7.5,12.1-9.8
		c4.7-2.3,10-3.5,15.8-3.5s11.1,1.2,15.8,3.5c4.8,2.3,8.8,5.6,12.1,9.9S423.2,32,425,38c1.9,6,2.8,12.7,2.8,20.2V68.4z"/>
	<g>
		<polygon class="st0" points="499.7,122.3 499.7,122.3 499.7,122.3 		"/>
		<path class="st0" d="M541,35.7c-2.2-6.6-5.2-12.2-9-16.9c-3.8-4.6-8.5-8.3-13.9-10.8c-5.4-2.5-11.5-3.8-18.1-3.8
			c-6.7,0-12.9,1.3-18.3,3.8c-5.5,2.5-10.2,6.1-14,10.8c-3.9,4.7-6.9,10.4-9,17s-3.2,14-3.2,22.2v10.7c0,8.1,1,15.5,3.1,22.1
			c2.1,6.6,5,12.2,8.9,16.9c3.8,4.6,8.4,8.3,13.9,10.8c5.4,2.5,11.5,3.8,18.3,3.8c6.8,0,12.9-1.2,18.4-3.8c5.4-2.5,10-6.2,13.9-10.9
			c3.9-4.8,6.9-10.4,9-17c2.1-6.6,3.2-13.9,3.2-22.1V57.8C544.2,49.6,543.1,42.3,541,35.7z M538.1,68.4c0,7.5-0.9,14.2-2.7,20.2
			c-1.7,6-4.3,11.1-7.7,15.3c-3.4,4.2-7.4,7.5-12.1,9.8c-4.7,2.3-10,3.5-15.9,3.5l0,0h0h0c-5.8,0-11.1-1.2-15.8-3.4
			c-4.8-2.3-8.8-5.6-12.1-9.9c-3.3-4.3-5.9-9.4-7.7-15.4c-1.9-6-2.8-12.7-2.8-20.2V58c0-7.5,1-14.2,2.8-20.2s4.4-11.1,7.7-15.3
			s7.4-7.5,12.1-9.8c4.7-2.3,10-3.5,15.8-3.5s11.1,1.2,15.8,3.5c4.8,2.3,8.8,5.6,12.1,9.9s5.9,9.4,7.7,15.4c1.9,6,2.8,12.7,2.8,20.2
			V68.4z"/>
	</g>
	<path class="st0" d="M91.1,71.8c-1.8-4.1-4.4-7.6-7.8-10.6c-3.4-2.9-7.4-5.2-12.1-6.8c-4.7-1.6-9.9-2.4-15.7-2.4
		c-5,0-9.5,0.6-13.6,1.8c-4.1,1.2-7.7,2.7-10.9,4.7s-6,4.2-8.3,6.6c-2.3,2.4-4.1,4.9-5.3,7.5V57.7c0-15.5,3.3-27.4,10-35.6
		c6.7-8.3,16-12.4,27.8-12.4c4.1,0,7.8,0.5,11.1,1.5c3.2,1,6.2,2.4,8.7,4.1c2.6,1.7,4.7,3.7,6.5,5.8c1.8,2.2,3.2,4.4,4.1,6.6
		c0.3,0.1,0.9-0.1,1.9-0.7s1.5-1.4,1.5-2.5c0-0.9-0.4-2.3-1.2-4c-0.8-1.7-2.2-3.5-4.1-5.4c-2.9-2.9-6.7-5.3-11.4-7.4
		c-4.8-2.1-10.5-3.1-17.1-3.1c-13.6,0-24.3,4.7-32.1,13.9c-7.7,9.2-11.6,22.4-11.6,39.6v13c0,8.3,1.1,15.6,3.2,22.1
		s5.1,11.9,8.9,16.2c3.8,4.4,8.3,7.7,13.6,9.9c5.3,2.3,11.1,3.4,17.5,3.4c5.7,0,10.9-1,15.8-2.8c4.8-1.8,9-4.4,12.4-7.7
		S89,105,91,100.6c1.9-4.5,2.9-9.4,2.9-14.7v-0.5C93.9,80.4,92.9,75.9,91.1,71.8z M88,86.5c0,4.5-0.8,8.6-2.5,12.4
		c-1.6,3.8-3.9,7.1-6.9,9.9s-6.6,5-10.7,6.5c-4.2,1.5-8.7,2.3-13.7,2.3c-9.8,0-18-3.2-24.6-9.7c-6.6-6.5-10.5-16.2-11.8-29.1
		c1.1-3,2.9-5.9,5.2-8.5c2.4-2.6,5.1-4.9,8.4-6.9c3.2-2,6.9-3.6,10.9-4.7c4-1.1,8.3-1.7,12.8-1.7c10.2,0,18.2,2.6,24.1,7.8
		C85.1,70,88,77,88,85.8V86.5z"/>
	<path class="st0" d="M194.6,36.1c-2.2-6.6-5.2-12.2-9-16.9c-3.8-4.6-8.5-8.3-13.9-10.8c-5.4-2.5-11.5-3.8-18.1-3.8
		c-6.7,0-12.9,1.3-18.3,3.8c-5.4,2.5-10.1,6.1-13.9,10.8c-3.9,4.7-6.9,10.4-9,17c-2.1,6.6-3.2,14-3.2,22.2v10.7
		c0,8.1,1,15.5,3.1,22.1c2.1,6.6,5,12.2,8.9,16.9c3.8,4.6,8.4,8.3,13.9,10.8c5.4,2.5,11.5,3.8,18.3,3.8h0c6.8,0,12.9-1.2,18.3-3.8
		c5.4-2.5,10-6.2,13.9-10.9c3.9-4.8,6.9-10.4,9-17c2.1-6.6,3.2-13.9,3.2-22.1V58.2C197.8,50,196.7,42.7,194.6,36.1z M191.8,68.8
		c0,7.5-0.9,14.2-2.7,20.2c-1.7,6-4.3,11.1-7.7,15.3c-3.4,4.2-7.4,7.5-12.1,9.8c-4.7,2.3-10,3.5-15.9,3.5l0,0h0h0
		c-5.8,0-11.1-1.2-15.8-3.4c-4.8-2.3-8.8-5.6-12.1-9.9s-5.9-9.4-7.7-15.4c-1.9-6-2.8-12.7-2.8-20.2V58.4c0-7.5,1-14.2,2.8-20.2
		c1.8-6,4.4-11.1,7.7-15.3c3.3-4.2,7.4-7.5,12.1-9.8c4.7-2.3,10-3.5,15.8-3.5s11.1,1.2,15.8,3.5c4.8,2.3,8.8,5.6,12.1,9.9
		c3.3,4.3,5.9,9.4,7.7,15.4c1.9,6,2.8,12.7,2.8,20.2V68.8z"/>
</g>
</svg>
