<svg id="Layer_1" xmlns="http://www.w3.org/2000/svg" viewBox="224 6.2 900 140"><style>.st0{fill:#FFFFFF;} .st1{fill:#464646;} .st2{fill:#F5F5F5;}</style><path class="st0" d="M977.1 104.1V84.9c0-.1.1-.1.3-.1.2 0 .3.1.4.2.1.1.2.4.2.8v11.4l6.9-6c.2-.2.4-.3.5-.3h.4c.1 0 .2.1.2.2s.1.2 0 .2l-7 6 7.8 6.9s0 .1-.1.2-.1.2-.2.2-.2.1-.4 0c-.1 0-.3-.2-.5-.4l-7.7-6.8v6.7c0 .3-.1.5-.4.5h-.1c-.2 0-.3-.2-.3-.5zM993.9 104.7c-.3 0-.5 0-.6-.1-.1-.1-.2-.2-.2-.4l-4.7-18.4s.1-.1.2-.1.2-.1.3-.1c.1 0 .3 0 .4.1.1.1.2.3.3.6l4.3 17.4 5-14.1c.1-.2.2-.3.3-.4.1-.1.3-.1.6-.1s.5 0 .5.1c.1.1.2.2.2.5l5 14 4.3-17.3c.1-.3.1-.5.3-.6.1-.1.2-.1.4-.1.1 0 .2 0 .3.1.1 0 .1.1.1.1l-4.7 18.4c-.1.3-.3.5-.8.5-.3 0-.4 0-.5-.1-.1-.1-.2-.2-.2-.4l-5-14.2-5.1 14.2c-.1.2-.1.3-.2.4-.1-.1-.2 0-.5 0zM1014 104.1V84.9c0-.1.1-.1.3-.1.2 0 .3.1.4.2.1.1.2.4.2.8V94c.2-.5.4-1 .8-1.4s.7-.8 1.2-1.1c.4-.3.9-.5 1.5-.7s1.1-.2 1.7-.2c1.9 0 3.3.6 4.2 1.7.9 1.1 1.4 2.6 1.4 4.5v7.4c0 .3-.1.5-.4.5h-.1c-.3 0-.4-.2-.4-.5v-7.3c0-1.7-.4-3-1.2-3.9s-2-1.5-3.5-1.5c-.7 0-1.4.1-2 .4-.6.2-1.1.6-1.6 1s-.8 1-1.1 1.6c-.3.6-.4 1.3-.4 2v7.7c0 .3-.1.5-.4.5h-.1c-.3-.1-.5-.3-.5-.6zM1034 104.8c-1.2 0-2.2-.2-3-.5-.8-.3-1.4-.7-1.8-1.1-.5-.5-.7-.8-.7-1.1 0-.2.1-.3.2-.4s.3-.1.3-.1c.4.7 1 1.2 1.8 1.7.8.4 1.9.7 3.2.7 1.4 0 2.5-.3 3.2-.8s1.1-1.3 1.1-2.1c0-.5-.1-.9-.4-1.3s-.6-.6-1-.8c-.4-.2-.9-.4-1.4-.5-.5-.1-1.1-.3-1.8-.4-.6-.1-1.2-.2-1.8-.4s-1.1-.3-1.6-.6-.8-.6-1.1-1c-.3-.4-.4-1-.4-1.6 0-.5.1-1.1.4-1.5s.6-.9 1-1.2c.4-.3 1-.6 1.6-.8.6-.2 1.3-.3 2-.3 1.1 0 1.9.2 2.7.5.7.3 1.3.7 1.7 1.1.1.1.3.3.4.5.1.2.1.3.1.4 0 .2-.1.3-.2.4-.2.1-.3.1-.3.1-.3-.6-.9-1.1-1.6-1.5s-1.7-.6-2.7-.6c-1.3 0-2.3.3-3 .8-.7.6-1.1 1.2-1.1 2.1 0 .5.1.9.3 1.2s.5.6.9.8.9.4 1.4.5c.5.1 1.1.3 1.7.4.6.1 1.2.3 1.8.4.6.2 1.1.4 1.6.6.5.3.9.6 1.2 1 .3.4.4 1 .4 1.6 0 .6-.1 1.1-.4 1.6-.2.5-.6.9-1.1 1.2-.5.3-1 .6-1.7.8s-1.1.2-1.9.2z"/><path id="XMLID_23_" class="st1" d="M306 125.4c0 2.7-2.2 4.9-4.9 4.9h-63.3c-2.7 0-4.9-2.2-4.9-4.9V26.1c0-2.7 2.2-4.9 4.9-4.9h63.3c2.7 0 4.9 2.2 4.9 4.9v99.3z"/><path class="st0" d="M254.9 75.9c1.2-1.2 2.5-2.3 4.2-3.3 1.6-1 3.4-1.8 5.5-2.4 2.1-.6 4.3-.9 6.8-.9 2.9 0 5.5.4 7.9 1.2 2.3.8 4.4 1.9 6.1 3.4 1.7 1.5 3 3.3 3.9 5.3.9 2.1 1.4 4.3 1.4 6.8v.3c0 2.7-.5 5.1-1.5 7.4-1 2.2-2.3 4.2-4.1 5.8-1.7 1.7-3.8 3-6.2 3.9-2.4.9-5.1 1.4-7.9 1.4-3.2 0-6.1-.6-8.8-1.7-2.6-1.1-4.9-2.8-6.8-5-1.9-2.2-3.4-4.9-4.5-8.1-1.1-3.2-1.6-6.9-1.6-11.1v-6.6c0-8.6 1.9-15.3 5.8-19.9 3.9-4.6 9.3-7 16.1-7 3.3 0 6.2.5 8.6 1.6 2.4 1 4.3 2.3 5.7 3.7 1 1 1.6 1.9 2.1 2.7.4.9.6 1.5.6 2s-.3 1-.8 1.2c-.5.3-.8.4-.9.4-.5-1.1-1.2-2.2-2.1-3.3-.9-1.1-2-2-3.3-2.9-1.3-.9-2.7-1.5-4.4-2.1-1.6-.5-3.5-.8-5.6-.8-6 0-10.6 2.1-14 6.2-3.4 4.1-5 10.1-5 17.9v7.7c.7-1.3 1.7-2.6 2.8-3.8zm15.9 26.4c2.5 0 4.8-.4 6.9-1.2 2.1-.8 3.9-1.9 5.4-3.3 1.5-1.4 2.6-3 3.5-5 .8-1.9 1.2-4 1.2-6.2v-.4c0-4.4-1.5-7.9-4.4-10.5-2.9-2.6-7-3.9-12.1-3.9-2.3 0-4.4.3-6.4.8-2 .6-3.9 1.4-5.5 2.4s-3 2.2-4.2 3.5c-1.2 1.3-2 2.7-2.6 4.3.7 6.5 2.6 11.3 5.9 14.6 3.2 3.3 7.3 4.9 12.3 4.9z"/><path id="XMLID_22_" class="st1" d="M383 125.4c0 2.7-2.2 4.9-4.9 4.9h-63.3c-2.7 0-4.9-2.2-4.9-4.9V26.1c0-2.7 2.2-4.9 4.9-4.9h63.3c2.7 0 4.9 2.2 4.9 4.9v99.3z"/><path class="st0" d="M337.3 104.3c-.5 0-1-.2-1.2-.5-.3-.3-.4-.5-.4-.7l27.2-53.9h-34.4c-1 0-1.4-.4-1.4-1.2v-.3c0-.9.5-1.3 1.4-1.3h35.9c.7 0 1.1.1 1.4.4.3.3.4.6.4.9v.3c0 .4-.3 1.1-.9 2.3L339 103c-.5.8-1.1 1.3-1.7 1.3z"/><path id="XMLID_21_" class="st1" d="M461 125.4c0 2.7-2.2 4.9-4.9 4.9h-63.3c-2.7 0-4.9-2.2-4.9-4.9V26.1c0-2.7 2.2-4.9 4.9-4.9h63.3c2.7 0 4.9 2.2 4.9 4.9v99.3z"/><path class="st0" d="M423.4 104.9c-3.6 0-6.9-.6-9.7-1.8s-5.2-2.7-7.1-4.6c-.8-.8-1.5-1.7-2-2.5s-.7-1.5-.7-2c0-.7.3-1.1.8-1.4s.9-.3 1-.2c1.3 2.8 3.5 5.1 6.6 7 3.1 1.8 6.8 2.8 11.1 2.8 5.3 0 9.5-1.4 12.6-4.2 3.1-2.8 4.7-6.7 4.7-11.6 0-2.3-.4-4.3-1.2-6.1-.8-1.8-1.9-3.4-3.4-4.6-1.5-1.3-3.2-2.3-5.2-3-2-.7-4.3-1.1-6.8-1.1-2.7 0-5.4.3-8.1 1-2.7.7-5.2 1.8-7.5 3.5-1.4-.1-2.1-.8-2.1-2.2V48.4c0-1.4.7-2.1 2.1-2.1h30.7c1 0 1.4.4 1.4 1.2v.3c0 .8-.5 1.2-1.4 1.2h-29.9v23.7c2.3-1.5 4.8-2.5 7.4-3.1 2.6-.6 5.1-.8 7.6-.8 2.9 0 5.5.4 7.9 1.2 2.4.8 4.5 2 6.2 3.5s3 3.4 4 5.5c1 2.2 1.4 4.6 1.4 7.2 0 2.9-.5 5.4-1.4 7.7-1 2.3-2.3 4.2-4.1 5.8-1.8 1.6-3.9 2.8-6.4 3.7-2.5 1-5.4 1.5-8.5 1.5z"/><path id="XMLID_20_" class="st1" d="M557 125.4c0 2.7-2.2 4.9-4.9 4.9h-63.3c-2.7 0-4.9-2.2-4.9-4.9V26.1c0-2.7 2.2-4.9 4.9-4.9h63.3c2.7 0 4.9 2.2 4.9 4.9v99.3z"/><path class="st0" d="M520.7 104.9c-3.4 0-6.5-.6-9.2-1.9-2.7-1.3-5.1-3.1-7-5.4-1.9-2.3-3.4-5.2-4.5-8.5-1-3.3-1.6-7-1.6-11.1v-5.4c0-4.1.5-7.8 1.6-11.2 1.1-3.3 2.6-6.2 4.5-8.5s4.3-4.2 7-5.4c2.7-1.3 5.8-1.9 9.2-1.9 3.3 0 6.4.6 9.1 1.9 2.7 1.3 5.1 3.1 7 5.4 1.9 2.4 3.4 5.2 4.5 8.5s1.6 7 1.6 11.1v5.4c0 4.1-.5 7.8-1.6 11.1s-2.6 6.1-4.5 8.5c-1.9 2.4-4.3 4.2-7 5.5-2.6 1.2-5.7 1.9-9.1 1.9zm0-2.6c3 0 5.6-.6 8-1.7 2.3-1.2 4.4-2.8 6.1-4.9 1.7-2.1 3-4.7 3.9-7.7.9-3 1.3-6.4 1.3-10.1v-5.2c0-3.7-.5-7.1-1.4-10.1-.9-3-2.2-5.6-3.9-7.7-1.7-2.1-3.7-3.8-6.1-5-2.4-1.2-5-1.7-7.9-1.7-2.9 0-5.6.6-7.9 1.7-2.4 1.2-4.4 2.8-6.1 4.9-1.7 2.1-3 4.7-3.9 7.7-.9 3-1.4 6.4-1.4 10.1v5.2c0 3.7.5 7.1 1.4 10.1.9 3 2.2 5.6 3.9 7.7 1.7 2.1 3.7 3.8 6.1 5 2.4 1.1 5 1.7 7.9 1.7z"/><g><path id="XMLID_19_" class="st1" d="M634 125.4c0 2.7-2.2 4.9-4.9 4.9h-63.3c-2.7 0-4.9-2.2-4.9-4.9V26.1c0-2.7 2.2-4.9 4.9-4.9h63.3c2.7 0 4.9 2.2 4.9 4.9v99.3z"/><path class="st0" d="M598 104.9c-3.4 0-6.5-.6-9.2-1.9-2.7-1.3-5.1-3.1-7-5.4-1.9-2.3-3.4-5.2-4.5-8.5-1-3.3-1.6-7-1.6-11.1v-5.4c0-4.1.5-7.8 1.6-11.2 1.1-3.3 2.6-6.2 4.5-8.5s4.3-4.2 7-5.4c2.7-1.3 5.8-1.9 9.2-1.9 3.3 0 6.4.6 9.1 1.9 2.7 1.3 5.1 3.1 7 5.4 1.9 2.4 3.4 5.2 4.5 8.5s1.6 7 1.6 11.1v5.4c0 4.1-.5 7.8-1.6 11.1s-2.6 6.1-4.5 8.5c-1.9 2.4-4.3 4.2-7 5.5-2.7 1.2-5.8 1.9-9.1 1.9zm0-2.6c3 0 5.6-.6 8-1.7 2.3-1.2 4.4-2.8 6.1-4.9 1.7-2.1 3-4.7 3.9-7.7.9-3 1.3-6.4 1.3-10.1v-5.2c0-3.7-.5-7.1-1.4-10.1-.9-3-2.2-5.6-3.9-7.7-1.7-2.1-3.7-3.8-6.1-5-2.4-1.2-5-1.7-7.9-1.7-2.9 0-5.6.6-7.9 1.7-2.4 1.2-4.4 2.8-6.1 4.9-1.7 2.1-3 4.7-3.9 7.7-.9 3-1.4 6.4-1.4 10.1v5.2c0 3.7.5 7.1 1.4 10.1.9 3 2.2 5.6 3.9 7.7 1.7 2.1 3.7 3.8 6.1 5 2.3 1.1 4.9 1.7 7.9 1.7z"/></g><g><path id="XMLID_18_" class="st1" d="M712 125.4c0 2.7-2.2 4.9-4.9 4.9h-63.3c-2.7 0-4.9-2.2-4.9-4.9V26.1c0-2.7 2.2-4.9 4.9-4.9h63.3c2.7 0 4.9 2.2 4.9 4.9v99.3z"/><path class="st0" d="M675.2 104.9c-3.4 0-6.5-.6-9.2-1.9-2.7-1.3-5.1-3.1-7-5.4-1.9-2.3-3.4-5.2-4.5-8.5-1-3.3-1.6-7-1.6-11.1v-5.4c0-4.1.5-7.8 1.6-11.2 1.1-3.3 2.6-6.2 4.5-8.5s4.3-4.2 7-5.4c2.7-1.3 5.8-1.9 9.2-1.9 3.3 0 6.4.6 9.1 1.9 2.7 1.3 5.1 3.1 7 5.4 1.9 2.4 3.4 5.2 4.5 8.5s1.6 7 1.6 11.1v5.4c0 4.1-.5 7.8-1.6 11.1s-2.6 6.1-4.5 8.5c-1.9 2.4-4.3 4.2-7 5.5-2.7 1.2-5.7 1.9-9.1 1.9zm0-2.6c3 0 5.6-.6 8-1.7 2.3-1.2 4.4-2.8 6.1-4.9 1.7-2.1 3-4.7 3.9-7.7.9-3 1.3-6.4 1.3-10.1v-5.2c0-3.7-.5-7.1-1.4-10.1-.9-3-2.2-5.6-3.9-7.7-1.7-2.1-3.7-3.8-6.1-5-2.4-1.2-5-1.7-7.9-1.7-2.9 0-5.6.6-7.9 1.7-2.4 1.2-4.4 2.8-6.1 4.9-1.7 2.1-3 4.7-3.9 7.7-.9 3-1.4 6.4-1.4 10.1v5.2c0 3.7.5 7.1 1.4 10.1.9 3 2.2 5.6 3.9 7.7 1.7 2.1 3.7 3.8 6.1 5 2.3 1.1 5 1.7 7.9 1.7z"/></g><g><path id="XMLID_17_" class="st1" d="M809 125.4c0 2.7-2.2 4.9-4.9 4.9h-63.3c-2.7 0-4.9-2.2-4.9-4.9V26.1c0-2.7 2.2-4.9 4.9-4.9h63.3c2.7 0 4.9 2.2 4.9 4.9v99.3z"/><path class="st0" d="M772.2 104.9c-3.4 0-6.5-.6-9.2-1.9-2.7-1.3-5.1-3.1-7-5.4-1.9-2.3-3.4-5.2-4.5-8.5-1-3.3-1.6-7-1.6-11.1v-5.4c0-4.1.5-7.8 1.6-11.2 1.1-3.3 2.6-6.2 4.5-8.5s4.3-4.2 7-5.4c2.7-1.3 5.8-1.9 9.2-1.9 3.3 0 6.4.6 9.1 1.9 2.7 1.3 5.1 3.1 7 5.4 1.9 2.4 3.4 5.2 4.5 8.5s1.6 7 1.6 11.1v5.4c0 4.1-.5 7.8-1.6 11.1s-2.6 6.1-4.5 8.5c-1.9 2.4-4.3 4.2-7 5.5-2.7 1.2-5.7 1.9-9.1 1.9zm0-2.6c3 0 5.6-.6 8-1.7 2.3-1.2 4.4-2.8 6.1-4.9 1.7-2.1 3-4.7 3.9-7.7.9-3 1.3-6.4 1.3-10.1v-5.2c0-3.7-.5-7.1-1.4-10.1-.9-3-2.2-5.6-3.9-7.7-1.7-2.1-3.7-3.8-6.1-5-2.4-1.2-5-1.7-7.9-1.7-2.9 0-5.6.6-7.9 1.7-2.4 1.2-4.4 2.8-6.1 4.9-1.7 2.1-3 4.7-3.9 7.7-.9 3-1.4 6.4-1.4 10.1v5.2c0 3.7.5 7.1 1.4 10.1.9 3 2.2 5.6 3.9 7.7 1.7 2.1 3.7 3.8 6.1 5 2.3 1.1 4.9 1.7 7.9 1.7z"/></g><g><path id="XMLID_16_" class="st1" d="M887 125.4c0 2.7-2.2 4.9-4.9 4.9h-63.3c-2.7 0-4.9-2.2-4.9-4.9V26.1c0-2.7 2.2-4.9 4.9-4.9h63.3c2.7 0 4.9 2.2 4.9 4.9v99.3z"/><path class="st0" d="M849.4 104.9c-3.4 0-6.5-.6-9.2-1.9-2.7-1.3-5.1-3.1-7-5.4-1.9-2.3-3.4-5.2-4.5-8.5-1-3.3-1.6-7-1.6-11.1v-5.4c0-4.1.5-7.8 1.6-11.2 1.1-3.3 2.6-6.2 4.5-8.5s4.3-4.2 7-5.4c2.7-1.3 5.8-1.9 9.2-1.9 3.3 0 6.4.6 9.1 1.9 2.7 1.3 5.1 3.1 7 5.4 1.9 2.4 3.4 5.2 4.5 8.5s1.6 7 1.6 11.1v5.4c0 4.1-.5 7.8-1.6 11.1s-2.6 6.1-4.5 8.5c-1.9 2.4-4.3 4.2-7 5.5-2.6 1.2-5.7 1.9-9.1 1.9zm0-2.6c3 0 5.6-.6 8-1.7 2.3-1.2 4.4-2.8 6.1-4.9 1.7-2.1 3-4.7 3.9-7.7.9-3 1.3-6.4 1.3-10.1v-5.2c0-3.7-.5-7.1-1.4-10.1-.9-3-2.2-5.6-3.9-7.7-1.7-2.1-3.7-3.8-6.1-5-2.4-1.2-5-1.7-7.9-1.7-2.9 0-5.6.6-7.9 1.7-2.4 1.2-4.4 2.8-6.1 4.9-1.7 2.1-3 4.7-3.9 7.7-.9 3-1.4 6.4-1.4 10.1v5.2c0 3.7.5 7.1 1.4 10.1.9 3 2.2 5.6 3.9 7.7 1.7 2.1 3.7 3.8 6.1 5 2.3 1.1 5 1.7 7.9 1.7z"/></g><g><path id="XMLID_15_" class="st1" d="M964 125.4c0 2.7-2.2 4.9-4.9 4.9h-63.3c-2.7 0-4.9-2.2-4.9-4.9V26.1c0-2.7 2.2-4.9 4.9-4.9h63.3c2.7 0 4.9 2.2 4.9 4.9v99.3z"/><path class="st0" d="M926.6 104.9c-3.4 0-6.5-.6-9.2-1.9-2.7-1.3-5.1-3.1-7-5.4-1.9-2.3-3.4-5.2-4.5-8.5-1-3.3-1.6-7-1.6-11.1v-5.4c0-4.1.5-7.8 1.6-11.2 1.1-3.3 2.6-6.2 4.5-8.5s4.3-4.2 7-5.4c2.7-1.3 5.8-1.9 9.2-1.9 3.3 0 6.4.6 9.1 1.9 2.7 1.3 5.1 3.1 7 5.4 1.9 2.4 3.4 5.2 4.5 8.5s1.6 7 1.6 11.1v5.4c0 4.1-.5 7.8-1.6 11.1s-2.6 6.1-4.5 8.5c-1.9 2.4-4.3 4.2-7 5.5-2.6 1.2-5.7 1.9-9.1 1.9zm0-2.6c3 0 5.6-.6 8-1.7 2.3-1.2 4.4-2.8 6.1-4.9 1.7-2.1 3-4.7 3.9-7.7.9-3 1.3-6.4 1.3-10.1v-5.2c0-3.7-.5-7.1-1.4-10.1-.9-3-2.2-5.6-3.9-7.7-1.7-2.1-3.7-3.8-6.1-5-2.4-1.2-5-1.7-7.9-1.7-2.9 0-5.6.6-7.9 1.7-2.4 1.2-4.4 2.8-6.1 4.9-1.7 2.1-3 4.7-3.9 7.7-.9 3-1.4 6.4-1.4 10.1v5.2c0 3.7.5 7.1 1.4 10.1.9 3 2.2 5.6 3.9 7.7 1.7 2.1 3.7 3.8 6.1 5 2.4 1.1 5 1.7 7.9 1.7z"/></g><path class="st2" d="M1005.4 63.2l-3 7h4.4l-1.6 6.8 7.5-8.8h-5.1l2.3-5z"/></svg>