<?xml version="1.0" encoding="utf-8"?>
<!-- Generator: Adobe Illustrator 19.1.0, SVG Export Plug-In . SVG Version: 6.00 Build 0)  -->
<svg version="1.1" id="Layer_1" xmlns="http://www.w3.org/2000/svg" xmlns:xlink="http://www.w3.org/1999/xlink" x="0px" y="0px"
	 viewBox="224 6.2 900 140" style="enable-background:new 224 6.2 900 140;" xml:space="preserve">
<style type="text/css">
	.st0{fill:#FFFFFF;}
	.st1{fill:#464646;}
	.st2{fill:#F5F5F5;}
</style>
<g>
	<path class="st0" d="M977.1,104.1V84.9c0-0.1,0.1-0.1,0.3-0.1c0.2,0,0.3,0.1,0.4,0.2c0.1,0.1,0.2,0.4,0.2,0.8v11.4l6.9-6
		c0.2-0.2,0.4-0.3,0.5-0.3c0.1,0,0.3,0,0.4,0c0.1,0,0.2,0.1,0.2,0.2c0,0.1,0.1,0.2,0,0.2l-7,6l7.8,6.9c0,0,0,0.1-0.1,0.2
		s-0.1,0.2-0.2,0.2c-0.1,0-0.2,0.1-0.4,0c-0.1,0-0.3-0.2-0.5-0.4l-7.7-6.8v6.7c0,0.3-0.1,0.5-0.4,0.5h-0.1
		C977.2,104.6,977.1,104.4,977.1,104.1z"/>
	<path class="st0" d="M993.9,104.7c-0.3,0-0.5,0-0.6-0.1c-0.1-0.1-0.2-0.2-0.2-0.4l-4.7-18.4c0,0,0.1-0.1,0.2-0.1
		c0.1,0,0.2-0.1,0.3-0.1c0.1,0,0.3,0,0.4,0.1c0.1,0.1,0.2,0.3,0.3,0.6l4.3,17.4l5-14.1c0.1-0.2,0.2-0.3,0.3-0.4
		c0.1-0.1,0.3-0.1,0.6-0.1s0.5,0,0.5,0.1c0.1,0.1,0.2,0.2,0.2,0.5l5,14l4.3-17.3c0.1-0.3,0.1-0.5,0.3-0.6c0.1-0.1,0.2-0.1,0.4-0.1
		c0.1,0,0.2,0,0.3,0.1c0.1,0,0.1,0.1,0.1,0.1l-4.7,18.4c-0.1,0.3-0.3,0.5-0.8,0.5c-0.3,0-0.4,0-0.5-0.1c-0.1-0.1-0.2-0.2-0.2-0.4
		l-5-14.2l-5.1,14.2c-0.1,0.2-0.1,0.3-0.2,0.4C994.3,104.6,994.2,104.7,993.9,104.7z"/>
	<path class="st0" d="M1014,104.1V84.9c0-0.1,0.1-0.1,0.3-0.1c0.2,0,0.3,0.1,0.4,0.2c0.1,0.1,0.2,0.4,0.2,0.8V94
		c0.2-0.5,0.4-1,0.8-1.4s0.7-0.8,1.2-1.1c0.4-0.3,0.9-0.5,1.5-0.7s1.1-0.2,1.7-0.2c1.9,0,3.3,0.6,4.2,1.7c0.9,1.1,1.4,2.6,1.4,4.5
		v7.4c0,0.3-0.1,0.5-0.4,0.5h-0.1c-0.3,0-0.4-0.2-0.4-0.5v-7.3c0-1.7-0.4-3-1.2-3.9s-2-1.5-3.5-1.5c-0.7,0-1.4,0.1-2,0.4
		c-0.6,0.2-1.1,0.6-1.6,1s-0.8,1-1.1,1.6c-0.3,0.6-0.4,1.3-0.4,2v7.7c0,0.3-0.1,0.5-0.4,0.5h-0.1
		C1014.2,104.6,1014,104.4,1014,104.1z"/>
	<path class="st0" d="M1034,104.8c-1.2,0-2.2-0.2-3-0.5c-0.8-0.3-1.4-0.7-1.8-1.1c-0.5-0.5-0.7-0.8-0.7-1.1c0-0.2,0.1-0.3,0.2-0.4
		s0.3-0.1,0.3-0.1c0.4,0.7,1,1.2,1.8,1.7c0.8,0.4,1.9,0.7,3.2,0.7c1.4,0,2.5-0.3,3.2-0.8s1.1-1.3,1.1-2.1c0-0.5-0.1-0.9-0.4-1.3
		s-0.6-0.6-1-0.8c-0.4-0.2-0.9-0.4-1.4-0.5c-0.5-0.1-1.1-0.3-1.8-0.4c-0.6-0.1-1.2-0.2-1.8-0.4s-1.1-0.3-1.6-0.6s-0.8-0.6-1.1-1
		c-0.3-0.4-0.4-1-0.4-1.6c0-0.5,0.1-1.1,0.4-1.5s0.6-0.9,1-1.2c0.4-0.3,1-0.6,1.6-0.8c0.6-0.2,1.3-0.3,2-0.3c1.1,0,1.9,0.2,2.7,0.5
		c0.7,0.3,1.3,0.7,1.7,1.1c0.1,0.1,0.3,0.3,0.4,0.5c0.1,0.2,0.1,0.3,0.1,0.4c0,0.2-0.1,0.3-0.2,0.4c-0.2,0.1-0.3,0.1-0.3,0.1
		c-0.3-0.6-0.9-1.1-1.6-1.5s-1.7-0.6-2.7-0.6c-1.3,0-2.3,0.3-3,0.8c-0.7,0.6-1.1,1.2-1.1,2.1c0,0.5,0.1,0.9,0.3,1.2s0.5,0.6,0.9,0.8
		s0.9,0.4,1.4,0.5c0.5,0.1,1.1,0.3,1.7,0.4c0.6,0.1,1.2,0.3,1.8,0.4c0.6,0.2,1.1,0.4,1.6,0.6c0.5,0.3,0.9,0.6,1.2,1
		c0.3,0.4,0.4,1,0.4,1.6c0,0.6-0.1,1.1-0.4,1.6c-0.2,0.5-0.6,0.9-1.1,1.2c-0.5,0.3-1,0.6-1.7,0.8S1034.8,104.8,1034,104.8z"/>
</g>
<g>
	<path id="XMLID_23_" class="st1" d="M306,125.4c0,2.7-2.2,4.9-4.9,4.9h-63.3c-2.7,0-4.9-2.2-4.9-4.9V26.1c0-2.7,2.2-4.9,4.9-4.9
		h63.3c2.7,0,4.9,2.2,4.9,4.9V125.4z"/>
	<g>
		<path class="st0" d="M254.9,75.9c1.2-1.2,2.5-2.3,4.2-3.3c1.6-1,3.4-1.8,5.5-2.4c2.1-0.6,4.3-0.9,6.8-0.9c2.9,0,5.5,0.4,7.9,1.2
			c2.3,0.8,4.4,1.9,6.1,3.4c1.7,1.5,3,3.3,3.9,5.3c0.9,2.1,1.4,4.3,1.4,6.8v0.3c0,2.7-0.5,5.1-1.5,7.4c-1,2.2-2.3,4.2-4.1,5.8
			c-1.7,1.7-3.8,3-6.2,3.9c-2.4,0.9-5.1,1.4-7.9,1.4c-3.2,0-6.1-0.6-8.8-1.7c-2.6-1.1-4.9-2.8-6.8-5c-1.9-2.2-3.4-4.9-4.5-8.1
			c-1.1-3.2-1.6-6.9-1.6-11.1v-6.6c0-8.6,1.9-15.3,5.8-19.9c3.9-4.6,9.3-7,16.1-7c3.3,0,6.2,0.5,8.6,1.6c2.4,1,4.3,2.3,5.7,3.7
			c1,1,1.6,1.9,2.1,2.7c0.4,0.9,0.6,1.5,0.6,2c0,0.5-0.3,1-0.8,1.2c-0.5,0.3-0.8,0.4-0.9,0.4c-0.5-1.1-1.2-2.2-2.1-3.3
			c-0.9-1.1-2-2-3.3-2.9c-1.3-0.9-2.7-1.5-4.4-2.1c-1.6-0.5-3.5-0.8-5.6-0.8c-6,0-10.6,2.1-14,6.2c-3.4,4.1-5,10.1-5,17.9V79v0.7
			C252.8,78.4,253.8,77.1,254.9,75.9z M270.8,102.3c2.5,0,4.8-0.4,6.9-1.2c2.1-0.8,3.9-1.9,5.4-3.3c1.5-1.4,2.6-3,3.5-5
			c0.8-1.9,1.2-4,1.2-6.2v-0.4c0-4.4-1.5-7.9-4.4-10.5c-2.9-2.6-7-3.9-12.1-3.9c-2.3,0-4.4,0.3-6.4,0.8c-2,0.6-3.9,1.4-5.5,2.4
			c-1.6,1-3,2.2-4.2,3.5c-1.2,1.3-2,2.7-2.6,4.3c0.7,6.5,2.6,11.3,5.9,14.6C261.7,100.7,265.8,102.3,270.8,102.3z"/>
	</g>
</g>
<g>
	<path id="XMLID_22_" class="st1" d="M383,125.4c0,2.7-2.2,4.9-4.9,4.9h-63.3c-2.7,0-4.9-2.2-4.9-4.9V26.1c0-2.7,2.2-4.9,4.9-4.9
		h63.3c2.7,0,4.9,2.2,4.9,4.9V125.4z"/>
	<g>
		<path class="st0" d="M337.3,104.3c-0.5,0-1-0.2-1.2-0.5c-0.3-0.3-0.4-0.5-0.4-0.7l27.2-53.9h-34.4c-1,0-1.4-0.4-1.4-1.2v-0.3
			c0-0.9,0.5-1.3,1.4-1.3h35.9c0.7,0,1.1,0.1,1.4,0.4c0.3,0.3,0.4,0.6,0.4,0.9V48c0,0.4-0.3,1.1-0.9,2.3L339,103
			C338.5,103.8,337.9,104.3,337.3,104.3z"/>
	</g>
</g>
<g>
	<path id="XMLID_21_" class="st1" d="M461,125.4c0,2.7-2.2,4.9-4.9,4.9h-63.3c-2.7,0-4.9-2.2-4.9-4.9V26.1c0-2.7,2.2-4.9,4.9-4.9
		h63.3c2.7,0,4.9,2.2,4.9,4.9V125.4z"/>
	<g>
		<path class="st0" d="M423.4,104.9c-3.6,0-6.9-0.6-9.7-1.8s-5.2-2.7-7.1-4.6c-0.8-0.8-1.5-1.7-2-2.5c-0.5-0.8-0.7-1.5-0.7-2
			c0-0.7,0.3-1.1,0.8-1.4s0.9-0.3,1-0.2c1.3,2.8,3.5,5.1,6.6,7c3.1,1.8,6.8,2.8,11.1,2.8c5.3,0,9.5-1.4,12.6-4.2
			c3.1-2.8,4.7-6.7,4.7-11.6c0-2.3-0.4-4.3-1.2-6.1c-0.8-1.8-1.9-3.4-3.4-4.6c-1.5-1.3-3.2-2.3-5.2-3c-2-0.7-4.3-1.1-6.8-1.1
			c-2.7,0-5.4,0.3-8.1,1c-2.7,0.7-5.2,1.8-7.5,3.5c-1.4-0.1-2.1-0.8-2.1-2.2V48.4c0-1.4,0.7-2.1,2.1-2.1h30.7c1,0,1.4,0.4,1.4,1.2
			v0.3c0,0.8-0.5,1.2-1.4,1.2h-29.9v23.7c2.3-1.5,4.8-2.5,7.4-3.1c2.6-0.6,5.1-0.8,7.6-0.8c2.9,0,5.5,0.4,7.9,1.2
			c2.4,0.8,4.5,2,6.2,3.5s3,3.4,4,5.5c1,2.2,1.4,4.6,1.4,7.2c0,2.9-0.5,5.4-1.4,7.7c-1,2.3-2.3,4.2-4.1,5.8
			c-1.8,1.6-3.9,2.8-6.4,3.7C429.4,104.4,426.5,104.9,423.4,104.9z"/>
	</g>
</g>
<g>
	<path id="XMLID_20_" class="st1" d="M557,125.4c0,2.7-2.2,4.9-4.9,4.9h-63.3c-2.7,0-4.9-2.2-4.9-4.9V26.1c0-2.7,2.2-4.9,4.9-4.9
		h63.3c2.7,0,4.9,2.2,4.9,4.9V125.4z"/>
	<g>
		<path class="st0" d="M520.7,104.9c-3.4,0-6.5-0.6-9.2-1.9c-2.7-1.3-5.1-3.1-7-5.4c-1.9-2.3-3.4-5.2-4.5-8.5c-1-3.3-1.6-7-1.6-11.1
			v-5.4c0-4.1,0.5-7.8,1.6-11.2c1.1-3.3,2.6-6.2,4.5-8.5c1.9-2.3,4.3-4.2,7-5.4c2.7-1.3,5.8-1.9,9.2-1.9c3.3,0,6.4,0.6,9.1,1.9
			c2.7,1.3,5.1,3.1,7,5.4c1.9,2.4,3.4,5.2,4.5,8.5c1.1,3.3,1.6,7,1.6,11.1v5.4c0,4.1-0.5,7.8-1.6,11.1c-1.1,3.3-2.6,6.1-4.5,8.5
			c-1.9,2.4-4.3,4.2-7,5.5C527.2,104.2,524.1,104.9,520.7,104.9z M520.7,102.3c3,0,5.6-0.6,8-1.7c2.3-1.2,4.4-2.8,6.1-4.9
			c1.7-2.1,3-4.7,3.9-7.7c0.9-3,1.3-6.4,1.3-10.1v-5.2c0-3.7-0.5-7.1-1.4-10.1c-0.9-3-2.2-5.6-3.9-7.7c-1.7-2.1-3.7-3.8-6.1-5
			c-2.4-1.2-5-1.7-7.9-1.7c-2.9,0-5.6,0.6-7.9,1.7c-2.4,1.2-4.4,2.8-6.1,4.9c-1.7,2.1-3,4.7-3.9,7.7c-0.9,3-1.4,6.4-1.4,10.1v5.2
			c0,3.7,0.5,7.1,1.4,10.1c0.9,3,2.2,5.6,3.9,7.7c1.7,2.1,3.7,3.8,6.1,5C515.2,101.7,517.8,102.3,520.7,102.3z"/>
	</g>
</g>
<g>
	<path id="XMLID_19_" class="st1" d="M634,125.4c0,2.7-2.2,4.9-4.9,4.9h-63.3c-2.7,0-4.9-2.2-4.9-4.9V26.1c0-2.7,2.2-4.9,4.9-4.9
		h63.3c2.7,0,4.9,2.2,4.9,4.9V125.4z"/>
	<g>
		<path class="st0" d="M598,104.9c-3.4,0-6.5-0.6-9.2-1.9c-2.7-1.3-5.1-3.1-7-5.4c-1.9-2.3-3.4-5.2-4.5-8.5c-1-3.3-1.6-7-1.6-11.1
			v-5.4c0-4.1,0.5-7.8,1.6-11.2c1.1-3.3,2.6-6.2,4.5-8.5c1.9-2.3,4.3-4.2,7-5.4c2.7-1.3,5.8-1.9,9.2-1.9c3.3,0,6.4,0.6,9.1,1.9
			c2.7,1.3,5.1,3.1,7,5.4c1.9,2.4,3.4,5.2,4.5,8.5c1.1,3.3,1.6,7,1.6,11.1v5.4c0,4.1-0.5,7.8-1.6,11.1c-1.1,3.3-2.6,6.1-4.5,8.5
			c-1.9,2.4-4.3,4.2-7,5.5C604.4,104.2,601.3,104.9,598,104.9z M598,102.3c3,0,5.6-0.6,8-1.7c2.3-1.2,4.4-2.8,6.1-4.9
			c1.7-2.1,3-4.7,3.9-7.7c0.9-3,1.3-6.4,1.3-10.1v-5.2c0-3.7-0.5-7.1-1.4-10.1c-0.9-3-2.2-5.6-3.9-7.7c-1.7-2.1-3.7-3.8-6.1-5
			c-2.4-1.2-5-1.7-7.9-1.7c-2.9,0-5.6,0.6-7.9,1.7c-2.4,1.2-4.4,2.8-6.1,4.9c-1.7,2.1-3,4.7-3.9,7.7c-0.9,3-1.4,6.4-1.4,10.1v5.2
			c0,3.7,0.5,7.1,1.4,10.1c0.9,3,2.2,5.6,3.9,7.7c1.7,2.1,3.7,3.8,6.1,5C592.4,101.7,595,102.3,598,102.3z"/>
	</g>
</g>
<g>
	<path id="XMLID_18_" class="st1" d="M712,125.4c0,2.7-2.2,4.9-4.9,4.9h-63.3c-2.7,0-4.9-2.2-4.9-4.9V26.1c0-2.7,2.2-4.9,4.9-4.9
		h63.3c2.7,0,4.9,2.2,4.9,4.9V125.4z"/>
	<g>
		<path class="st0" d="M675.2,104.9c-3.4,0-6.5-0.6-9.2-1.9c-2.7-1.3-5.1-3.1-7-5.4c-1.9-2.3-3.4-5.2-4.5-8.5c-1-3.3-1.6-7-1.6-11.1
			v-5.4c0-4.1,0.5-7.8,1.6-11.2c1.1-3.3,2.6-6.2,4.5-8.5c1.9-2.3,4.3-4.2,7-5.4c2.7-1.3,5.8-1.9,9.2-1.9c3.3,0,6.4,0.6,9.1,1.9
			c2.7,1.3,5.1,3.1,7,5.4c1.9,2.4,3.4,5.2,4.5,8.5c1.1,3.3,1.6,7,1.6,11.1v5.4c0,4.1-0.5,7.8-1.6,11.1c-1.1,3.3-2.6,6.1-4.5,8.5
			c-1.9,2.4-4.3,4.2-7,5.5C681.6,104.2,678.6,104.9,675.2,104.9z M675.2,102.3c3,0,5.6-0.6,8-1.7c2.3-1.2,4.4-2.8,6.1-4.9
			c1.7-2.1,3-4.7,3.9-7.7c0.9-3,1.3-6.4,1.3-10.1v-5.2c0-3.7-0.5-7.1-1.4-10.1c-0.9-3-2.2-5.6-3.9-7.7c-1.7-2.1-3.7-3.8-6.1-5
			c-2.4-1.2-5-1.7-7.9-1.7c-2.9,0-5.6,0.6-7.9,1.7c-2.4,1.2-4.4,2.8-6.1,4.9c-1.7,2.1-3,4.7-3.9,7.7c-0.9,3-1.4,6.4-1.4,10.1v5.2
			c0,3.7,0.5,7.1,1.4,10.1c0.9,3,2.2,5.6,3.9,7.7c1.7,2.1,3.7,3.8,6.1,5C669.6,101.7,672.3,102.3,675.2,102.3z"/>
	</g>
</g>
<g>
	<path id="XMLID_17_" class="st1" d="M809,125.4c0,2.7-2.2,4.9-4.9,4.9h-63.3c-2.7,0-4.9-2.2-4.9-4.9V26.1c0-2.7,2.2-4.9,4.9-4.9
		h63.3c2.7,0,4.9,2.2,4.9,4.9V125.4z"/>
	<g>
		<path class="st0" d="M772.2,104.9c-3.4,0-6.5-0.6-9.2-1.9c-2.7-1.3-5.1-3.1-7-5.4c-1.9-2.3-3.4-5.2-4.5-8.5c-1-3.3-1.6-7-1.6-11.1
			v-5.4c0-4.1,0.5-7.8,1.6-11.2c1.1-3.3,2.6-6.2,4.5-8.5c1.9-2.3,4.3-4.2,7-5.4c2.7-1.3,5.8-1.9,9.2-1.9c3.3,0,6.4,0.6,9.1,1.9
			c2.7,1.3,5.1,3.1,7,5.4c1.9,2.4,3.4,5.2,4.5,8.5c1.1,3.3,1.6,7,1.6,11.1v5.4c0,4.1-0.5,7.8-1.6,11.1c-1.1,3.3-2.6,6.1-4.5,8.5
			c-1.9,2.4-4.3,4.2-7,5.5C778.6,104.2,775.6,104.9,772.2,104.9z M772.2,102.3c3,0,5.6-0.6,8-1.7c2.3-1.2,4.4-2.8,6.1-4.9
			c1.7-2.1,3-4.7,3.9-7.7c0.9-3,1.3-6.4,1.3-10.1v-5.2c0-3.7-0.5-7.1-1.4-10.1c-0.9-3-2.2-5.6-3.9-7.7c-1.7-2.1-3.7-3.8-6.1-5
			c-2.4-1.2-5-1.7-7.9-1.7c-2.9,0-5.6,0.6-7.9,1.7c-2.4,1.2-4.4,2.8-6.1,4.9c-1.7,2.1-3,4.7-3.9,7.7c-0.9,3-1.4,6.4-1.4,10.1v5.2
			c0,3.7,0.5,7.1,1.4,10.1c0.9,3,2.2,5.6,3.9,7.7c1.7,2.1,3.7,3.8,6.1,5C766.6,101.7,769.2,102.3,772.2,102.3z"/>
	</g>
</g>
<g>
	<path id="XMLID_16_" class="st1" d="M887,125.4c0,2.7-2.2,4.9-4.9,4.9h-63.3c-2.7,0-4.9-2.2-4.9-4.9V26.1c0-2.7,2.2-4.9,4.9-4.9
		h63.3c2.7,0,4.9,2.2,4.9,4.9V125.4z"/>
	<g>
		<path class="st0" d="M849.4,104.9c-3.4,0-6.5-0.6-9.2-1.9c-2.7-1.3-5.1-3.1-7-5.4c-1.9-2.3-3.4-5.2-4.5-8.5c-1-3.3-1.6-7-1.6-11.1
			v-5.4c0-4.1,0.5-7.8,1.6-11.2c1.1-3.3,2.6-6.2,4.5-8.5c1.9-2.3,4.3-4.2,7-5.4c2.7-1.3,5.8-1.9,9.2-1.9c3.3,0,6.4,0.6,9.1,1.9
			c2.7,1.3,5.1,3.1,7,5.4c1.9,2.4,3.4,5.2,4.5,8.5c1.1,3.3,1.6,7,1.6,11.1v5.4c0,4.1-0.5,7.8-1.6,11.1c-1.1,3.3-2.6,6.1-4.5,8.5
			c-1.9,2.4-4.3,4.2-7,5.5C855.9,104.2,852.8,104.9,849.4,104.9z M849.4,102.3c3,0,5.6-0.6,8-1.7c2.3-1.2,4.4-2.8,6.1-4.9
			c1.7-2.1,3-4.7,3.9-7.7c0.9-3,1.3-6.4,1.3-10.1v-5.2c0-3.7-0.5-7.1-1.4-10.1c-0.9-3-2.2-5.6-3.9-7.7c-1.7-2.1-3.7-3.8-6.1-5
			c-2.4-1.2-5-1.7-7.9-1.7c-2.9,0-5.6,0.6-7.9,1.7c-2.4,1.2-4.4,2.8-6.1,4.9c-1.7,2.1-3,4.7-3.9,7.7c-0.9,3-1.4,6.4-1.4,10.1v5.2
			c0,3.7,0.5,7.1,1.4,10.1c0.9,3,2.2,5.6,3.9,7.7c1.7,2.1,3.7,3.8,6.1,5C843.8,101.7,846.5,102.3,849.4,102.3z"/>
	</g>
</g>
<g>
	<path id="XMLID_15_" class="st1" d="M964,125.4c0,2.7-2.2,4.9-4.9,4.9h-63.3c-2.7,0-4.9-2.2-4.9-4.9V26.1c0-2.7,2.2-4.9,4.9-4.9
		h63.3c2.7,0,4.9,2.2,4.9,4.9V125.4z"/>
	<g>
		<path class="st0" d="M926.6,104.9c-3.4,0-6.5-0.6-9.2-1.9c-2.7-1.3-5.1-3.1-7-5.4c-1.9-2.3-3.4-5.2-4.5-8.5c-1-3.3-1.6-7-1.6-11.1
			v-5.4c0-4.1,0.5-7.8,1.6-11.2c1.1-3.3,2.6-6.2,4.5-8.5c1.9-2.3,4.3-4.2,7-5.4c2.7-1.3,5.8-1.9,9.2-1.9c3.3,0,6.4,0.6,9.1,1.9
			c2.7,1.3,5.1,3.1,7,5.4c1.9,2.4,3.4,5.2,4.5,8.5c1.1,3.3,1.6,7,1.6,11.1v5.4c0,4.1-0.5,7.8-1.6,11.1c-1.1,3.3-2.6,6.1-4.5,8.5
			c-1.9,2.4-4.3,4.2-7,5.5C933.1,104.2,930,104.9,926.6,104.9z M926.6,102.3c3,0,5.6-0.6,8-1.7c2.3-1.2,4.4-2.8,6.1-4.9
			c1.7-2.1,3-4.7,3.9-7.7c0.9-3,1.3-6.4,1.3-10.1v-5.2c0-3.7-0.5-7.1-1.4-10.1c-0.9-3-2.2-5.6-3.9-7.7c-1.7-2.1-3.7-3.8-6.1-5
			c-2.4-1.2-5-1.7-7.9-1.7c-2.9,0-5.6,0.6-7.9,1.7c-2.4,1.2-4.4,2.8-6.1,4.9c-1.7,2.1-3,4.7-3.9,7.7c-0.9,3-1.4,6.4-1.4,10.1v5.2
			c0,3.7,0.5,7.1,1.4,10.1c0.9,3,2.2,5.6,3.9,7.7c1.7,2.1,3.7,3.8,6.1,5C921.1,101.7,923.7,102.3,926.6,102.3z"/>
	</g>
</g>
<polygon class="st2" points="1005.4,63.2 1002.4,70.2 1006.8,70.2 1005.2,77 1012.7,68.2 1007.6,68.2 1009.9,63.2 "/>
</svg>
