<svg xmlns="http://www.w3.org/2000/svg" viewBox="0 0 838 746" enable-background="new 0 0 838 746"><path d="M177.1 392.9v.8c.1-6.1 1.1-12.3 2.6-18.3s3.6-12 5.9-17.8c4.6-11.6 10.2-22.7 15.6-33.5 3.1-6.1 3.7-6.6 5.8-10.2l.5-1.4 3.7-6.1c5-8.7 7.9-15.6 14.2-26.7l-.6 1.5c1-2 2.7-5.2 4.1-7.9 1.3-2.6 2.3-4.7 2-4.4.2-.4.8-1.3 1.5-2.9l-.1-.2c1.6-3.4 3.2-6.8 4.7-10.2 1.5-4.1 1.2-3.8 1.2-4 0-.1 0-.3.2-1.2.3-.9.8-2.6 1.7-5.6.7-2.2 1.5-5.5 1.9-8 .5-2.5.6-4.2.6-3.3-.1 1.9-.5 4.8-.4 5 .3-1.4.5-2.8.6-4.3l.1-.1v-.1h-.1v.2c-.1.1-.1.2-.2.2l.1-.4c-.2 0-.2-.1 0-.1l.1-.5v.5h.1v-.5h.3c.1-.2.2-.3.3-.1v.1c3.5-.5 22.7-2.9 50.2-5.9h-.5l1.5-.1 6.6-.7c-.2 0-.8 0-2.1.1 4.8-.7 4.2-.3 8.3-.9.4-.1.2-.1-.2 0l4.7-.4c-.9 0 .7-.3-2.1 0 8.4-1.1 13.5-1 16.7-1.6h-.7c8.7-.7 5-.3 6.3-.2 1.8-.2 3.6-.3 5.5-.5l4-.8 1.2.2c1.2-.1 3.6-.3 3.1-.4 4.5-.2-.8.2 1.9.1 5.8-.8 16-1.2 17.2-1.7 2.1.1-5.5.6.7.3 1.7-.6 7.1-.5 12.4-1.1-1.6-.1-6.6.4-1.4-.2 3.2.2 10.3-.8 14.8-1 .2.3 9.7-.5 17.2-.8-.5-.1 14.1-.9 21.1-1.3h-.2c1.4.3 8.6-.1 13.8-.1-.2-.2-1.2-.3-4-.2l4.9-.2c1.2.1 2.7.1 5.9 0l-1.2-.2c6.6-.1 13.2 0 21.7-.2.3.2-2.9.4-2.2.6h4.6c-.2-.1-.6-.2-1.9-.2.8 0 2.7.1 4.3.1l-3.6-.2c3.8-.1 2 .2 5.1.2-.1-.2 2.3-.1 1.8-.3-.8 0-2.7.1-3.9 0 3.5 0 7.7-.1 9.1-.2-.3.1 0 .2 2.5.3 6.6.1 2.3-.2 6.1-.2 1.6.2 5.8.2 5.9.5 1.9.1 2.3 0 3-.1l8.7.6c3.1.2 5.2.4 3.3.4h-.9.6c11.1 1 23.1 1.9 33.9 4.3v-.1c3.2.7 6.8 1.6 10.1 2.7s6.3 2.3 8.3 3.4c1.8.8 4.1 2.1 3.5 1.6 2.1 1.4 3.2 2.4 4.4 3.6.6.6 1.2 1.3 1.9 2.3.7 1 1.4 2.2 1.9 4.1-.3-1.3-.5-1.8-.6-2l.1.1c0 .1.1.1-.1-.3-.1-.2-.3-.6-.7-1.2 1.3 2.1 1.7 3.9 1.8 5.6.1 1.1 0 2.2-.2 3.4-.2 1.2-.4 2.6-.7 4.4.3-1.2.2.1-.1 2-.3 1.9-.7 4.5-1.1 6 .2-1.5.5-3 .7-4.6-.6 3.5-1.2 6.5-1.8 9.5l.7-1.6c-2.5 13.2-6.4 23.4-8.5 33.3-1.2 3.4 1.9-7 .7-4.1-1.6 5.9-3 12.2-3.6 14.1-2.3 8.1-2.7 7.4-5.2 15.9.2-1.1.3-2.2-1.8 4.1-1.8 5.9-1.8 7.4-.6 3.7.5-1.4.6-2.1.6-2.1.6-1.9 1.5-4.4.8-2l-.3.7c-.8 3-3.4 11-2.6 9.2-1.3 3.8-.9 2.4-.2-.1-2 6.8-3.5 10.9-5.7 18.3.3-1.3.6-2.4.2-1.2-3.5 11.4-1.8 4.9-4.3 12.6-1.2 4.4.9-1.4-1.7 6.3-1.4 4.8 0 1.1.6-.8-2.4 7-4.1 13.3-5.3 17.3l1.3-3.7c-.7 2.2-1.3 4-1.9 5.9l.5-2.2c-.6 2.2-1.2 4.1-1.1 4-.8 2.2.2-1.8-1.4 2.6-.8 3-2.8 8.9-2.9 10 2.4-8.3.4-.7 1.8-4.9-.3 1.1-.7 2.3-1.1 3.7-.1.3.2-.3.3-.9-2.4 8.9-1.5 4-4.2 13.1.5-1.1-.3 2.2-.8 3.7 1.1-3.7.2-1.8-.8 1.5-1.5 5.9-1.9 6.4-2.7 9.5l.9-3.5c-.5 1.2-1.3 4.1-2.4 8.2 0 .4 1.1-3.7.7-2.2-1.5 4.5-2.4 10.4-4 16.8-.5 3 .2.4-.3 3-.9 3.6-1.2 5.6-1.5 7.6l-1.2 7.9c0-1.1.1-1.8 0-1.5-.1.3-.3 1.5-.7 4.2.4-4.2 1.2-8.4 2-12.6-.6 2.7-1.2 5.3-1.6 8 .5-3.8 1.4-8 1.8-10.3-.9 3.8-.8 3.4-.6 1.6-.6 5.2-2 10.3-2.2 16.4l.6-.2c-.1 2.3-.1 4.4.1 6.5.2 2.1.5 4.1 1.3 5.9.9 1.9 2.1 3.8 3.8 5.5 1.6 1.7 3.7 3.3 6.4 4.3-1.1-.4-2.2-1-3.3-1.6.6.5 2.1 1.5 4.1 2.1 1.9.7 4.3 1.1 6.1 1.2-.3-.2 2-.1 3.6-.4-.1.1 2 0 4.3-.4s4.6-1 5.2-1c1.7-.6 3.3-1.2 4.9-1.9 2.9-1.2 5-2.2 6.8-3l.7-.3.8-.4c.6-.3 1.2-.6 1.7-.9l3.3-1.9c.3-.1-.2.8-.4 1.3l-.8 1.9c-.3.7-.6 1.4-1 2.1l-1 2c.7-1.2.6-.8.7-.9 0 0 .1 0 .1-.1.1-.1.1-.2.3-.6.4-.7 1.1-2 1.9-4l-1.3 3-.7 1.4-.4.8c-.5 1-.9 1.6-.9 1.6-.4.8-1.5 2.7-2.8 4.6-1.3 1.9-2.7 3.8-3.5 5-.9 1-1.2 1.2-3.5 3.9-.1.2-.1.2 0 .1l-1.6 1.6c-.7.7-1.2 1.1-.2-.1-3.1 3.7-8.3 8.1-14.2 11-2.9 1.5-6 2.5-8.9 3.2-2.9.7-5.5 1.1-7.6 1.3-3.4.2-7.2-.1-10.8-.8-3.6-.7-7.1-1.7-10-2.7.3.1.1.1.7.3-3.7-1.2-4.8-1.9-6-2.5-1.3-.7-2.7-1.4-6.9-3.8-2.2-1.2-1.1-.4.2.3 1.3.8 2.8 1.6 1.5.9-.7-.1-3.3-1.5-6.2-3.6-2.9-2.1-6.1-4.9-8.5-7.1l1.1 1.1c-3.8-3.3-8.3-9.1-12.3-16.2 0 0 .1.4-.1.1-.8-1.7-1.9-3.9-3-6.5-.3-.6-.5-1.3-.8-2l-.4-1-.3-.8c-.3-1-.7-2.1-1-3.3l-.2-.8c0-.3-.1 0-.1.1l-.1.4-.3 1.5-.5 3 .4-1.7c.1-.2.1-.1.1.6-.2 1-.2.8-.3.9 0 0-.1.1-.1.2 0 0 0 .1-.1.2l-.1.4c-.1.6-.3 1.6-.4 3.3-.1 2.3-.2 7.3 0 7.9.1-2.2.2-4.3.4-6.5 0 3.3-.5 8.4-.3 11.9l.1-.4c.1 2.5.2 4.4.3 5.9.1 1.6.2 2.8.4 4.1.2 1.3.5 2.6 1 4.2s1.2 3.5 2.5 5.8l-.6-.9c1.2 2.7 1.9 3.7 2.6 4.7.7 1 1.4 2 3.1 4.4l1.4 1.2c.6.8 1.5 2 2.6 3.3l.9 1 .6.6.6.7c.9.9 1.9 1.9 2.9 2.8.2.3-.7.1-1.2.1l-1.7-.2-1.7-.2-1.6-.3c-1.8-.3-3.5-.7-5.1-1.1 1.2.4 2.8.8 4.7 1.1l.7.1.9.2c.6.1 1.3.2 2 .3l2 .2 1 .1h.5l.1-.1c-1.3-1.2-2.6-2.4-3.7-3.6l-.8-.8-.5-.6-.9-1.1.9 1 1.2 1.3c.6.6 1.2 1.3 1.9 1.9l2.3 2.1c-.1.2-1 0-1.6 0l-1.9-.1-1.9-.2-.9-.1-.8-.1c-1.5-.3-2.8-.5-3.3-.7.8.2 1.6.4 2.5.5l.7.1.8.1c.6.1 1.2.2 1.7.2l-1.3-.2-1.2-.2-2-.4c-1.3-.3-2.8-.6-4.3-1-3-.8-6.4-1.8-10-3 .5.5-4.3-1-9.6-3.5-2.7-1.2-5.5-2.7-7.9-4.1-2.4-1.4-4.5-2.6-5.7-3.3-2.8-2-5.5-4-8.2-6.3-2.6-2.3-5-4.9-7.1-7.9-2-3-3.7-6.3-4.7-10-1.1-3.7-1.5-7.6-1.4-11.7.2 2.9.2 1.7.3-.1.1-1.8.4-4.1.6-3.6.3-1.9.5-3.1.7-4l.2-.9c0-.2 0-.2.1-.3l-.1.6.1-.6c.2-1.1.5-2.1.7-2.8.1-.5.3-.8.4-1.2l.1-.1v-.1s0 .1-.1.1l-.3.4-.6.8c-.5.8-.3.6-.1.4l.3-.3-.3.6.1-.2-.1.2-.2.3c-.1.2-.3.3-.3.5-.2.3-.3.4-.3.6l-.4.9c0-.2 0-.3-.2 0-.8 1.1-2 2.9-3.1 4.8l1.5-2.8.8-1.4.4-.7.1-.2v-.1l.1-.1-.1.1-.2.3-.5.8c-.3.5-.7 1-.9 1.4-.6.9-1 1.7-1.4 2.4-.8 1.4-1.2 2.5-1.7 3.6-.4 1.1-.8 2.2-1.2 3.7-.4 1.5-.8 3.3-.9 6.1.1-1.1.2-2.3.4-3.4-.2 1.3-.4 3.4-.3 5.6.1 2.3.5 4.9 1 7.5 1.1 5.1 3.1 10.1 4 12.7.5.9 1.2 2.1.2-.3.7 1.5 1.5 3.1 2.3 4.7l.7 1.2c.3.6.8 1.3 1.2 2 .8 1.4 1.9 2.9 2.8 4.3l-.6-.1-.8-.3-1.6-.5c-1.1-.3-2.2-.7-3.3-1.2-1.3-.5-1.7-.7-2.4-1-.7-.3-1.3-.6-1.9-.9-2.6-1.2-5.1-2.5-7.4-3.9-4.7-2.8-8.7-5.9-11.8-8.7l.7.8c-1.9-1.9-3.1-3.4-5.3-6 .1.2.5.9-.2 0-.4-.6-1.4-2.1-2.4-3.9-1-1.8-1.9-3.9-2.6-5.5.3.9.7 1.9 1.1 2.8-1.5-3.1-2.6-6-3.5-8.6-.9-2.7-1.5-5.1-2.1-7.6-1.2-4.9-2-9.5-3-15.1-.2.1-.8-2.5-1.4-5.8-.3-1.6-.6-3.5-.8-5.2l-.2-1.2-.1-.3-.1-.4v.1c-.2.2-3.1 3.9-4.6 6.2-1.9 2.8-3.6 5.7-4.9 8.6-1.3 2.9-2.3 5.9-2.5 9.1-.1.8-.1 1.6 0 2.4l.1 2.6.3 5.3c.3 2.4.7 5.8 1 9.7l1.5 15.3c-1.3-.9-2.7-1.8-4-2.8l-2.8-2c-1.6-1.2-3.2-2.4-4.7-3.6-3.1-2.4-6-4.9-8.6-7.1 1.7 1.4-.1-.5-2-2.3-1.3-1.1-3-2.9-4.3-4.2-1.3-1.4-2.2-2.4-2.2-2.1l.9.9c-2.1-1.6-6.9-7-9.7-12v-1.1c-.8-1.3-1.4-2.7-2.2-4.1-.8-1.4-1.6-2.9-2.6-4.4-1.8-3-3.9-6-6-8.9-2.1-2.9-4.4-5.7-6.5-8.2-1.1-1.3-2.1-2.4-3.1-3.6l-1.5-1.6-.4-.4-.3-.3c-.1.2-.3.4-.4.5l-.7 1.1c-.5.8-.9 1.5-1.2 2.1-2 2.8-4.2 6.5-5.8 9.5h.3c-1 2.1-1.9 4-2.5 5.9-.6 1.8-1.1 3.6-1.3 5.4-.1.9-.2 1.8-.1 2.8.1.9.2 1.9.5 2.9.6 2.1 1.6 4.3 3.1 6.7-.4-.7-.7-1.4-1-2.1 1.6 2.8 2.7 4.6 3.8 6.3 1.1 1.7 2.2 3.3 4.4 5.6l1.6 1 .7.6 1 .9 2.4 2.1c-.1.1-.4.2-.6.3l-.7.3c-.5.2-.9.4-1.4.5l-1.5.5-1 .3c-1.3.4-2.6.7-3.9.9-2.6.5-5.3.8-8 .8-5.4.1-10.8-.8-15.7-2.9.2.1.4.4 2.3 1-1.4-.4-3.3-1.1-5.4-2.1-2.1-1-4.2-2.3-6.1-3.6-3.4-2.5-5.6-5-5.2-4.9-.6-.4-2.5-2.4-4.5-5.2-2.4-3.1-4.8-7-6.2-9.9l.3 1c-1.2-2.4-1.7-3.7-2.3-5.3-.6-1.5-1.4-3.3-2.6-6.9-.6-1.7-.7-1.4.1.8-1.1-2.8-1.3-3.9-1.6-5.2-.3-1.3-.7-2.7-1.4-6.2.1.9.2 1.8.4 2.7-.7-3-.9-4.4-1-5.5-.1-1.1-.2-1.8-.2-3.5-.2-1.9-.4-4.8-.5-7.3l-.1-5.2c.1-.3.2-.8.3-1.6l.1-.6.1-.4.2-1v-.1h-.1l-.3.1c-.2 0-.4.1-.5.1l-.6.2-.8.3c-.4.3.9-.2 1.1-.2l-.6.2-.8.3c-.5.2-1.1.4-1.6.7-1 .5-1.9.9-2.7 1.4-1.7 1-3.1 2.1-4.3 3.2-2.4 2.2-4.2 4.6-5.5 7.8 0 .2-.1.6-.3 1.1 1.4-3.7 3.6-6.5 5.4-8.3 1.4-1.5 2.5-2.2 2.7-2.4 0 .1-1.1 1.1-1.8 1.8-.3.4-.5.6-.4.6.1 0 .5-.4 1.5-1.1-2 1.5-4.4 3.9-6.1 7-1.8 3.1-2.7 6.7-3.2 9.8 0 .3-.1.6-.1.8l.1-.6-.6 3.9c-.2 2-.2 3.3-.3 5.2.1.4 0 2.2 0 4.4s-.1 4.6 0 6.3c-.3-.3-.1 3.9-.4.1v-4.3.2c0-2.1.1-4.9.3-8-.3 2.5-.5 5.2-.4 8.8-.2 1.7-.3 3.5-.4 4.5l.8 8.2.3 2.7c.1 1 .2 1.9.3 2.8.2 1.8.4 3.3.6 4.1l-.2-.2-.2-.3-.5-.6-.9-1.2c-.6-.8-1.2-1.6-1.9-2.5l-1-1.3-.9-1.3-1.2-1.7c-1.6-2.3-3.1-4.6-4.5-6.9-2.9-4.6-5.2-8.9-6.5-11.8-1.3-2.5-1.7-2.8-2.2-3.7.7 1.5 1.7 3.2 2 4-1.3-2.5-3.3-6.2-4.8-9.5-1.6-3.3-2.8-6.2-2.9-6.9-2.9-6.5 1.2 3.8-2.5-5.2l.4 1.3c-3.9-8.8-6-16.5-7.5-24.4-.7-4-1.3-8.1-1.7-12.5-.5-4.2-.7-8.4-.7-13.1zm132.4-167.2c-.3 0-.5.1-.6.1l2.7-.3c-.7.1-1.3.2-2.1.2zm-96.1 239.6v.3c.1-.2.1-.4.1-.8.1-2.1.1-2.9 0-3.2 0 1-.1 2.2-.1 3.7z"/><path fill="#E6685D" d="M315.7 409.8s-109-103.6-141.8-158.1c-32.8-54.5-62.9-133-62.9-133l-26.4 12.3s33.7 84.6 66.3 138.3c31.8 52.5 139.3 172.2 139.3 172.2l25.5-31.7z"/><path fill="#FF9F9F" d="M111 118.7c-1.5-8.8 8.4-20.6 10.5-35.7 2.1-15 .4-29.9-6.6-33.9s-15.2-1.8-15.2-1.8-.6-17.1-11.4-17c-10 .1-10.6 12.1-10.6 12.1s-5.2-12.6-14.9-9c-8.8 3.3-5.6 14.6-5.6 14.6s-8.1-8.4-14.8.3c-5.6 7.2 4.7 20 4.7 20s-7.4-5.5-11.4 2.2 6 24.1 19.2 34.3c13.2 10.2 26.4 17.9 29.7 26 0 0 18.7 46.8 41.6 92.9l24.9-14c-22.7-45.5-40.1-91-40.1-91z"/><g fill="#fff"><path d="M265.2 359.6c-.2-.2-.7-.7-.9-1-1.1.4-3.6 1.2-4.6 1.7-3.3 1.6-5.7 3.5-5.7 3.5-3.1 2.3-5.5 4.9-7.5 7.6-2 2.7-3.6 5.4-4.9 8.1-.6 1.3-1.2 3-1.7 4.3l1.3 1.6c.5-1.3.9-3.1 1.4-4.2 1.2-2.6 2.5-4.8 4-6.9 4-6.2 8.5-10 12.3-12.2 1.8-1.1 4.9-1.9 6.3-2.5zM170.3 275.5c2.4-2.1-2 2 1.6-1.1.2 0-1.7 1.5-.6.8 3.6-3 6.1-4.7 10.5-8.5h.3c.3-.3.6-.9 1-1.1-.3-.5-.7-1-1.1-1.5-2.5 2.1-5.1 4.5-7.8 6.8-3.4 2.7-7.7 6.2-12.3 10l-2.3 1.9 1 1.5c3.1-3.1 6.2-6.1 9.7-8.8zM179.6 297.5c5.3-4.7 10.6-9.4 15.7-13.8l1-.8-1.5-1.8c-5.8 5.1-12.1 11.1-19.8 17.6-.6.6-1.5 1.4-2.4 2.3l1.2 1.6 5.8-5.1zM160.7 228.4l-.9-1.7-7.4 4.7-10.5 6.7-6.3 4 .9 1.7c7.4-4.6 12.7-8 18.3-11.9.8-.2 3.4-1.9 5.9-3.5zM160.5 254.4l10.1-8.2-1.1-1.9c-7.8 6.5-16.2 13.5-20.5 17.4l.4-.4c-.8.7-1.5 1.3-2.1 1.9.3.5.6 1 .8 1.4 4-3.4 8.2-6.8 12.4-10.2zM218.1 348.1l-.8.8c6.1-6.4 7.8-8.2 12.4-12.9 2-2.2 3.3-3.7 6.5-7l-1.5-1.7c-3.9 4.2-10.8 11.3-14.8 15.7l-1.9 1.8c-1.5 1.7-3.4 3.6-5 5.2l.1-.1c-.3.4-.7.4-1 .7.4.5 1.1 1.4 1.6 1.9 2.4-2.3 2.9-2.9 4.4-4.4zM202.6 303.3l.3-.1c4.1-4.3 4-3.8 5.6-5.3-.5-.6-1-1.1-1.4-1.7-.2.2-1 1.1-1.3 1.3l.2.1c-5.3 5.2-8.6 8.1-13.9 13.1l-7 7 1.3 1.7c4.1-3.9 9.4-9.1 13.9-13.6-.5.4.9-1.1 2.3-2.5zM242.1 347c-3 2.9-6 6-9 9.5-.4.5-.7 1-1.1 1.6l-.3.4c.1 0-1.1 1.7-1.8 2.9-.8 1-.3-.3-2.6 3.6-.4.7-.9 1.5-1.4 2.4l1.5 1.8c.5-.8.9-1.7 1.4-2.4 2.2-3.8 4.4-6.9 6.9-9.8 2.5-2.9 5.2-5.7 8.5-8.7 1.4-1.3 4-3.2 5.6-4.5-.5-.5-1.1-1.1-1.6-1.7l-1.4 1"/><path d="M206 330.5l-.1.1c5.9-6.5 11.3-11.8 16.4-17-.5-.6-.9-1.1-1.5-1.6-1.5 1.6-3.8 3.9-4.4 4.6 1.3-1.5-2.5 2.3-1.6 1.1-1.7 1.9-6.8 7.4-9 9.4l.4-.4c-2.8 2.8-5.1 5.1-7.4 7.6l1.5 1.8 5.7-5.6zM278.9 373.6c-.3-.2-.7-.6-1.1-.8-1.3.6-2.3 1.3-3.4 2-3.7 2.2-6.2 4.5-6.2 4.5-3.3 2.9-5.8 5.9-7.8 8.9s-3.5 6-4.6 9c-.5 1.4-.9 2.3-1.3 3.7.6.4 1 1.5 1.6 1.8.4-1.4.8-2.9 1.3-4.1 1-2.8 2.2-5.2 3.7-7.6 3.8-6.9 8.6-11.5 12.8-14.4 2-1.4 3.4-2.2 5-3zM295.5 390.1l-.8-.8c-1.3.6-3 1.3-4.2 2-3.7 2.2-6.2 4.5-6.2 4.5-3.3 2.9-5.8 5.9-7.8 8.9s-3.5 6-4.6 9c-.5 1.4-1 2.7-1.4 4.1.6.4 1.2.8 1.7 1.2.4-1.4.8-2.7 1.2-3.9 1-2.8 2.2-5.2 3.7-7.6 3.8-6.9 8.6-11.5 12.8-14.4 1.9-1.4 4-2.2 5.6-3z"/></g><path fill="#E6685D" d="M704.5 305.1s-91.8 54.8-173 83.4c-63.1 22.2-148.8 26.1-148.8 26.1 9.3-36.6 17.1-61.7 17.1-61.7l-57.7-23.3s-23.3 29.7-45.8 81c-1.2-.5-2.4-.9-3.7-1.3-15-4-30.3 5-34.3 19.9-3.8 14.4 4.3 29.2 18.4 33.8-2.8 9.1-5.5 18.6-8 28.5-23.2 94.2-10 224.4-10 224.4h83.6s2.7-102.7 16.5-189c2.7-16.7 5.8-33.4 9.2-49.5 2.6-12.8 12.6-27.1 21.8-29.2 9.3-2.2 69.7-3.6 150.6-29 74-23.3 180.1-88.3 180.1-88.3l-16-25.8z"/><path fill="#FF9F9F" d="M247.4 151.6c-41.8 95.9 0 169 95.9 210.8 95.9 41.8 177.9 22.6 219.7-73.3 41.8-95.9 0-169-95.9-210.8-95.8-41.8-177.9-22.6-219.7 73.3z"/><path d="M359.3 118h.2c-.1 0-.1-.1-.2 0zM392.3 130.9zM366.2 118v.1zM360.1 121.8c.7-.6 1.3-.9 1.9-1.2.6-.3 1.1-.6 1.8-1.2l2.4-1.4c.3-.5 1.1-.4 1.5-.8l.2.2c.1-.2.3-.3.5-.2v.1c.2-.2.5-.2.6-.3v.1l.3-.1v.1c.4-.2.9-.3 1.3-.2v-.3c.9.3 1.2-.3 2 .1v.1c.5-.3.9-.1 1.3.1s.8.4 1.4.2c-.1.1 0 .1 0 .2.5 0 1 .2 1.2-.3.4.1.2.2.2.5.1-.2.4-.2.7-.1h-.2l.8.2v-.5c.4.3-.1.5.3.6l.1-.3c.5.3.7 1 1.1 1.4l3.3 1.7c1.1.6 2.1 1.4 2.6 2.4l-.1.3c-.3.3.8 0 .6.4l.3.1c0 .1 0 .3-.1.2.1.2.2.2.4.2v.3c.4.8 1.2 1.2 1.5 2.2 0 .6.3 1.4.6 2.2.3.8.6 1.6.8 2.2.4.9.2 1.9-.1 2.9-.3 1-.7 1.9-.5 2.9-.1 0 0 .2.1.2-.1.6-.3 1.1-.5 1.7 0 0-.7 2-.9 3.3-.1.7-.1 1.2.4 1.3.4.1 1.3-.2 2.8-1.5l.1.1c.6-.9.9-1.6.7-2.4.5 0 .3-.8.5-1l.4-2s.2.1.2.2c0-.5 0-1.1.3-1.1.1-1.1.3-2.7-.2-3.4h.1c-.3-.4-.1-.5-.3-1l.1-.1c-.4-.4-.2-1.3-.4-1.6l.2-.1-.2-.9v.3c-.6 0 .2-.7-.3-1.3-.1-.6-1.5-.8-1.5-1.4-.4-.2.5.1.1-.3.3-.1.2.1.4-.1-.3-.3 0-.8-.5-1.2l.2-.1c-.7-.4-.4-1.3-1-1.5-.6-.5.3-.8-.6-1.1v-.4c-.2-.3-.4.1-.6-.3.2-.1-.2-.4.1-.4-.4-.8-1.5-.9-2-2-.4.1-.7-.4-1-.3.1-.2-.9-.7-.2-.6.1 0 .1.1.1.1l.2-.1c-.3-.7-1.1-.5-1.5-.8.1.2.3.3.1.3l-.5-.3.2-.1-.7-.5v.3c-.3-.3-.2-.7-.8-.7-.3.1.2.5-.2.3-.4-.4-1-1-1.6-1.3 0 .3-.2.2-.4.2l.1-.2c-.8 0-.1-.6-.8-.6l.1-.1-.4.4c-.8.2-.2-.6-1.1-.2.3.1 0 .5-.3.3l.2-.2c-.2 0-.3.1-.4 0 .1-.1.2-.3-.1-.3l.3-.2c-.2.1-.4.1-.7.2-.3-.4-1.1-.2-1.2-.6 0 0-.9-.3-1.2 0 .2-.2-.3-.3-.1-.6-.3.2-1 .3-1.3 0h.1c-1.1-.4-1.9.2-2.8 0 .1.3-.5.2-.3.5-.9.4-1.9-.5-2.1.6-.4.1-.6-.1-.8-.1l.1-.1c-.8.3-1 .4-1.6.5-.3.2-.1.7-.7.7.1-.2-.1-.1-.3-.1.1-.1.1-.2-.2-.2l-.1.2c-.3.2-.2.2-.1.2 0 0 0 .1.1.1-.4-.1-.9.4-1.1.1-.9.5-1.3 1.2-2 1.7-.2-.1-.1-.3.1-.5l-.5.4c-.1-.2.2-.3.3-.4-.8.1-1 1.1-1.9 1.4v.3h-.1c.1.1 0 .3-.1.4-.2-.1-.3-.4-.6-.1-.4.1-.6.7-.9 1.1.2-.1.2 0 .2.1-.1.1-.4.1-.4.2l-.2-.2c.2.1-.2.6-.1.7-.2-.1.1-.4 0-.5-.6.6-.3.3-.8.9-.1.5.3.1.3.5-.2.3-.3.7-.7.9l.3.1c-.3.7-.6 1-1.1 1.2-.7 2.8 0 3.3.5 3.2.5 0 1.2-.7 1.2-.7 1.6-1.5 1.6-2.7 3.1-4.4zM431.5 147.2h.2c0-.1-.1-.1-.2 0zM464.6 160.1zM438.4 147.2v.1zM432.3 150.9c.8-.6 1.3-.9 1.9-1.2.6-.3 1.1-.6 1.8-1.2l2.4-1.4c.3-.5 1.1-.4 1.5-.8l.2.2c.1-.2.3-.3.5-.2v.1c.2-.2.5-.2.6-.3v.1l.3-.1v.1c.4-.2.9-.3 1.3-.2v-.3c.9.3 1.2-.3 2 .1v.1c.5-.3.9-.1 1.3.1s.8.4 1.4.2c-.2.1 0 .1 0 .2.5 0 1 .2 1.2-.3.4.1.2.2.2.5.1-.2.4-.2.7-.1h-.2l.8.2v-.5c.4.3-.1.5.3.6l.1-.3c.5.3.7 1 1.1 1.5l3.3 1.7c1.1.6 2.1 1.4 2.6 2.4l-.1.3c-.3.3.8 0 .6.4l.3.1c0 .1 0 .3-.1.2.1.2.2.2.4.2v.3c.4.8 1.2 1.2 1.5 2.2 0 .6.3 1.4.6 2.2.3.8.6 1.6.8 2.2.4.9.2 1.9-.1 2.9-.3 1-.7 1.9-.5 2.9-.1 0 0 .2.1.2-.1.6-.3 1.1-.5 1.7 0 0-.7 2-.9 3.3-.1.7-.1 1.2.4 1.3.4.1 1.3-.2 2.8-1.5l.1.1c.6-.9.9-1.6.7-2.4.5 0 .3-.8.5-1l.4-2s.2.1.2.2c0-.5 0-1.1.3-1.1.1-1.1.3-2.7-.2-3.4h.1c-.3-.4-.1-.5-.3-1l.1-.1c-.4-.4-.2-1.3-.4-1.6l.2-.1-.2-.9v.3c-.6 0 .2-.7-.3-1.3-.1-.6-1.5-.8-1.5-1.4-.4-.2.5.1.1-.3.3-.1.3.1.4-.1-.3-.3 0-.8-.5-1.2l.2-.1c-.7-.4-.4-1.3-1-1.5-.6-.5.3-.8-.6-1.1v-.4c-.2-.3-.4.1-.6-.3.2-.1-.2-.4.1-.4-.4-.8-1.5-.9-2-2-.4.1-.7-.4-1-.3.1-.2-.9-.7-.2-.6.1 0 .1.1.1.1l.2-.1c-.3-.7-1.1-.5-1.5-.8.1.2.3.3.1.3l-.5-.3.2-.1-.7-.5v.3c-.3-.3-.2-.7-.8-.7-.3.1.2.5-.2.3-.4-.4-1-1-1.6-1.3-.1.3-.2.2-.4.2l.1-.2-.8-.6.1-.1-.4.4c-.8.2-.2-.6-1.1-.2.3.1 0 .5-.3.3l.2-.2c-.2 0-.3.1-.4 0 .1-.1.2-.3-.1-.3l.3-.2c-.2.1-.4.1-.7.2-.3-.4-1.1-.2-1.2-.6 0 0-.9-.3-1.2 0 .2-.2-.3-.3-.1-.6-.3.2-1 .3-1.3 0h.1c-1.1-.4-1.9.2-2.8 0 .1.3-.5.2-.3.5-.9.4-1.9-.5-2.1.6-.4.1-.6-.1-.8-.1l.1-.1c-.8.3-1 .4-1.6.5-.3.2-.1.7-.7.7.1-.2-.1-.1-.3-.1.1-.1.1-.2-.2-.2l-.1.2c-.3.2-.2.2-.1.2 0 0 0 .1.1.1-.4-.1-.9.4-1.1.1-.9.5-1.3 1.2-2 1.8-.2-.1-.1-.3.1-.5l-.5.4c-.1-.2.2-.3.3-.4-.8.1-1 1.1-1.9 1.4v.3h-.1c.1.1 0 .3-.1.4-.2-.1-.3-.4-.6-.1-.4.1-.6.7-.9 1.1.2-.1.2 0 .2.1-.1.1-.4.1-.4.2l-.2-.2c.2.1-.2.6-.1.7-.2-.1.1-.4 0-.5-.6.6-.3.3-.8.9-.1.5.3.1.3.5-.2.3-.3.7-.7.9l.3.1c-.3.7-.6 1-1.1 1.2-.7 2.8 0 3.3.5 3.2.5 0 1.2-.7 1.2-.7 1.6-1.6 1.6-2.8 3.1-4.6zM306.5 138l174.5 78.3s-54.4 61.7-127.4 23.6c-67.5-35.2-47.1-101.9-47.1-101.9z"/><path fill="#AD272D" d="M481 216.3l-55.1-24.7c-8.7 1-18.1 2.7-28.1 5.5-27.8 7.6-46.2 22.9-57.1 35.1 3.9 2.7 8.2 5.4 12.9 7.8 73 38 127.4-23.7 127.4-23.7z"/><path fill="#fff" d="M370.9 203.8c35.3 16.2 68.7 8 85.9 1.5l-132.5-59.3c2.4 13.3 11.8 41.9 46.6 57.8zM325.4 218.8c7 7.7 16.2 14.9 28.2 21.2 25.8 13.4 49.2 14.4 68.7 10.1-7.4-10-20.7-22-44.3-29-24.9-7.5-42.5-5.3-52.6-2.3z"/><g fill="#AD272D"><path d="M85.2 54.6h-.3c.1.1.1.1.3 0zM74.3 56.1v-.1zM100.1 65c-.4-.8-1.4-1.2-2.2-.8l-.4.2h-.1l-.2-.3-.4.3c-.1-.1-.3.1-.4.4-.5.4-1.1.8-1.9.9-.1.5-1 .7-1.1 1-.1-.1-1.5.7-.8 0 .1-.1.2-.1.2-.1v-.2c-1 0-1.4.9-2.3 1.2.3 0 .6-.2.4 0l-.8.3.1-.2-1.2.3.2.2c-.6.1-.9-.2-1.5.3-.2.3.6.1.1.4l-3 .3c.1.2-.1.3-.4.4l-.1-.2c-1 .5-.5-.4-1.4-.1l.1-.2v.5c-.9.5-.5-.4-1.5.2.4 0 .2.5-.3.4l.1-.2c-.3 0-.4.1-.5.1.2-.1.1-.3-.3-.3l.3-.2-.7.3c-.4-.3-1.4-.3-1.5-.7 0 0-1-.6-1.4-.4l.1-.6c-.4.1-1.2-.3-1.3-.7h.1c-.4-.5-.7-.8-1.1-1.2-.3-.3-.6-.8-.6-1.3-.3.1-.2-.4-.5-.2-.3-.5-.1-1.1 0-1.4.1-.4.2-.7-.2-1 .1-.5.5-.5.6-.7v.1c.4-.8.6-1.1 1.2-1.6.2-.3 0-.8.7-1.2-.1.3.1.1.4-.1-.1.1-.1.2.2.1 0-.1.1-.2.1-.2.4-.3.3-.3.1-.2 0 0 0-.1-.1-.1.6-.1 1.2-.8 1.4-.5 1.3-.8 2.1-1.6 3.3-2.2.2.1 0 .4-.3.6l.8-.4c.1.2-.4.3-.7.5 1.1-.1 1.9-1.3 3.2-1.4l.2-.3h.1c0-.1.2-.3.3-.4.2.1.2.5.8.2.5 0 1.3-.6 1.9-.9-.3.1-.3-.1-.2-.2l.8-.1.1.3c-.2-.2.7-.5.8-.7.2.1-.4.3-.4.5l1.8-.6c.6-.4-.2-.2 0-.6.6-.2 1.1-.6 1.8-.6l-.3-.2c1-.5 1.7-.7 2.5-.6 3.9-2.1 4.2-2.8 3.5-3.1-.7-.3-2.4-.1-2.4-.1-3.5.3-5 1.5-8.8 2.9-1.7.5-2.9.7-4 1.1-1.1.3-2.3.7-4 1.6-1.7.7-3.4 1.8-4.9 3-.3.4-.8.8-1.3 1.3s-1 1-1.3 1.6l-.5.3c-.1.4-.3.9-.6 1.3v-.1c-.1.7-.4 1.3-.4 1.7h-.1l-.1.8-.1-.1c0 1.2.2 2.3.4 3.3l.2-.2c.2 1.1.6 1.7 1 2.2.4.5.8 1 1.4 1.8l.2-.2c1.1.6 1.7 1.1 2.4 1.7.7.5 1.5 1 2.7 1.1-.3 0 .1.2 0 .2.5.1 1 .2 1.5.2.4 0 .7-.1.8-.4.7.1.6.2.7.4 0-.2.7-.3 1.2-.3l-.3.2c.5 0 1.1-.1 1.6-.2l-.3-.4c.8 0 .3.5 1 .3l-.1-.4c1.1-.1 1.9.3 3 .3l2.1-.6c-.4.6-.8 1.3-1.2 2-.8 1.5-1.2 3.2-1.5 4.5-.2 1.8-.9 3.5-1.2 5.5-.4 1.9-.5 3.9.1 5.6 0 .1.1.4.2.4l.6 3.2s.2 1 .7 2.2c.4 1.2 1.1 2.7 1.7 3.7.7 1 1.3 1.7 1.6 1.3.3-.4.2-1.7 0-4.6h.1c-.4-1.6-.6-2.6-1.3-3.6.5-.3-.3-1.3-.2-1.7-.6-.9 0-2-.5-2.9 0 0 .2 0 .2.3-.1-.7-.3-1.6 0-1.7-.2-1.6.2-3.8 0-4.9l.1.1c-.2-.6.1-.8.1-1.4l.1-.1c-.1-.7.5-1.8.6-2.3h.2c.1-.4.3-.8.5-1.2v.5l.9-1.7c.5-.7 0-2.2.8-2.8.1-.5.1.6.3-.1.2.2 0 .4.3.4.3-.6.9-.7 1.3-1.4l.2.1c.4-1.1 1.5-1.2 1.8-2 .7-.9 1 0 1.5-1h.5c.4-.2 0-.5.5-.7.1.2.6-.2.5.1.2-.1.5-.2.6-.3l-.2-.3h.1c.8-.5 1.2-1.4.8-2.3zM56.3 96.3l.1.1c0-.1 0-.1-.1-.1zM62.3 93.9l.1.1zM74.2 75.1c-.1-.6-.3-1.2-.5-1.7 0 0-.7-2.1-1.6-3.1-.4-.5-.9-.8-1.3-.5-.3.3-.5 1.2-.7 2.8h-.1c.1.9.3 1.4.9 1.8-.5.3.2.7.1.9.5.4 0 1.1.4 1.5 0 0-.2 0-.2-.1.1.3.3.8 0 .9.2.8.1 1.9.6 2.5h-.1c.3.3 0 .4.2.7h-.1c.3.4-.1.9-.1 1.2h-.2c0 .2-.1.4-.2.6l.1-.2c.5.3-.5.3-.4.8-.1.1 0 .5.1.8.1.3.1.7-.2.8 0 .4-.1-.5-.3-.1l-.2-.4c-.1.3-.6.1-.8.5l-.1-.2c-.2.6-.9.2-1.1.7-.4.4-.5-.5-.9 0l-.3-.3c-.2 0-.1.4-.3.3 0-.2-.3-.1-.2-.3-.3-.1-.5 0-.8.1-.3.1-.6.1-.9-.2-.2.4-.5 0-.7.3 0-.1-.2-.1-.3-.2l-.2-.1c0-.1.1-.1.2-.1 0 0 .1 0 .1.1l.1-.2c0-.2-.6-.4-1-.4-.4-.1-.8-.1-1.2-.4.3.2.6.4.4.4-.2-.1-.5-.3-.8-.5l.1-.1c-.4-.3-.8-.6-1.3-1.1l.3.5c-.3-.2-.5-.6-.8-.9-.2-.1-.4-.1-.5.3 0 .3.5.4.2.6-.5-.1-1.2-.3-1.5-.3.2.2.1.2 0 .2l-.1-.2-.4-.1v-.1l.1.2c0 .1-.1 0-.1 0h-.1s.1.1 0 .1c0 0-.1-.1-.1 0v.1-.1c0 .1 0 .2.1.3-.1.1 0 .5-.2.4 0 0-.3.2-.1.6-.1-.3-.3-.1-.5-.4.1.3.1.9-.4.8v-.1c-.1 0-.2.1-.3.2.3.7.7 1.4 1 2 .3.6.5 1.1.5 1.7.3 0 .3.7.6.5.2.3.2.6.2.9 0 .3 0 .4-.1.5 0 .3 0 .5.5.6.1.3-.2.4-.3.6l-.1-.1c.1.6.1.8.1 1.2.1.2.6.3.4.7-.2-.2-.2 0-.2.1 0-.1-.1-.1-.2 0 .1 0 .1.1.1.1 0 .2.1.2.1.1h.1c-.3.2-.2.6-.5.5-.2.6-.1 1.1-.5 1.6-.2-.1-.1-.3-.1-.4l-.3.3c-.2-.2.1-.3.1-.4-.3 0-.4.2-.5.4-.1.2-.3.4-.6.4v.2c0 .1 0 .3-.1.3-.1-.2-.1-.5-.4-.4-.2-.2-.5.2-.8.3.1 0 .1.2 0 .2s-.2-.2-.3-.1v-.3c0 .3-.4.2-.5.3l.3-.3c-.5-.1-.3 0-.8-.2-.4.1 0 .3-.3.5-.3 0-.7 0-.9-.3v.3c-.6-.1-.9-.3-1.1-.7-1.2-.2-2-.3-2.5-.3s-.7.3-.7.5c0 .7.7 1.5.7 1.5.7.9 1.5 1.3 2.4 1.6.9.3 1.9.4 3.4.4 1.3.1 2.2.1 3.1-.2.4-.1.9-.3 1.3-.6.5-.3.9-.6 1.4-1.2 1.1-1.1 1.5-2.6 1.6-3.8-.3-.6.2-1.5-.2-2.1l.2-.2c-.1-.2-.2-.4-.1-.7h.1c-.2-.3-.1-.6-.2-.8h.1l-.1-.4h.1c-.1-.1-.1-.2-.2-.4 0-.1-.1-.1-.1-.1v-.2h-.3c.1-.1 0-.2 0-.3-.1-.1-.2-.3-.1-.3l.1.1c-.5-.5-.4-.6-.3-.5.1 0 .3.2-.3-.6l.3.3c-.2-.3-.3-.5-1.2-1.6-.1-.2.2.2.6.7l-.3-.4c-.1-.1-.1-.1-.1-.2l.1.1.2.1-.7-.9c.4.4.8 1.1.9 1l-.5-.7c.4.4 1.2 1.4 1.6 2 .3.4.4.4.6.4h1l.4.1 3.2.5.1.3.8-.3.3-.2c.1 0 .3.1.2.2.3-.1.3-.1.4-.3l.4.1c.6-.1 1.1-.4 1.5-.7.4-.3.8-.7 1.3-1 .7-.3 1.6-1.1 2-2.1.5-1 .6-2.1.6-2.9-.1-1.1.1-2.1.3-3.2.1-1.1.2-2.2-.4-3.1 0-.1-.2-.3-.2-.3z"/></g><path fill="#FF9F9F" d="M805.4 289.1c-.3-11.4-12.2-9.4-12.2-9.4s9.7-7.4 4.4-15.7c-5.8-9.1-18-1.7-18-1.7s7-10.4-1.3-16.7c-8.9-6.8-20.1 7.1-20.1 7.1s-5.5-7-13.8-8-19 10.3-26.5 24.2c-7.6 13.9-6.7 29.8-13.4 36.3 0 0-40.5 24.2-91.4 48.8l13.1 29c50.6-25.2 94-51.8 94.3-52 8.2-3.7 23.1-2.1 39.4-2.4 17.4-.3 35.9-7.8 37.3-16.7 1.5-8.9-8.1-8.9-8.1-8.9s16.5-4.4 16.3-13.9zM333.7 402.2c15.5 3.9 39.9 4 51.2 3.7 8.3-31.8 14.9-53 14.9-53l-57.7-23.3s-16.3 20.8-34.8 57.6c4.4 4.6 13.1 11.6 26.4 15z"/><g fill="#fff"><path d="M464 409.5l-.5-4.1-2.3.4.2 1.8c.4 3.3.9 6.6 1.1 8.1l.1 3c.6 3.6 2.1 14.5 2.5 18.8l-.1-.8.2 1.3 2.4-.4c-1-6.7-1.7-12.5-2.4-18.2l-1.2-9.9zM450.4 440.1c-1.5-14.5-2-26.6-3-32.1-.7.1-1.4.2-2 .3.3 3.2.5 6.1.7 7.7l-.1-.2.6 6-.1-1c.7 6.8 1.3 13.8 1.9 20.3.8-.1 1.5-.2 2.3-.4-.2-.9-.3-1.3-.3-.6zM497.6 398.3l.3 1.3c-.1-.4-.2-.8-.3-1.3zM430 425.5c-.3-3-.5-6.8-.7-10.9l-.2-4.2-2.2.3v.1c.3 4.7.7 5.5 1.1 13.9-.3-2.7-.1.7.1 3.9-.1-2-.2-2.7-.1 1.5.1.6.1 1.5.2 2.3v.1c.3 5.3.3 4.4.2 1.9v-.8c.1 2.8.3 6.8.5 10.1.7-.1 1.4-.2 2.2-.3l-1.1-17.9zM487.1 433.5c-.1-.6-.2-1.3-.3-2l-.5-2c-1.7-10.2-.5-5.6-2.5-16.9.7 4.5 0 2.2-.7-3.4l.3 1.4c-.5-3.1-.7-4.1-.9-6.1.3 1.7.3 1-.2-2.7l-2 .4c.1.3.1.5.2.5.9 6.6.7 5.3.7 6.2.1-.1 1 5.6 1.7 10.7l-.4-2.3 2.1 14.6-.1-2.9c.5 4 .5 4.4.5 4.9.7-.1 1.4-.2 2.1-.4zM413.5 445c0-.7 0-.4.2.5h.1c-.2-1.5-.4-3-.5-4.5.1 0 .3 2.2.6 4.5h.1c-.5-4.4-1-8.8-1.3-13.5-.2-3-.1-6-.1-9.2 0-3.1.1-6.3.3-9.6v-1.1l-2.2.2-.1 2.9c-.1 3.8-.2 7.6-.3 11.7 0 2 0 4.2.1 6.4s.3 4.5.5 6.9c.2 1.7.4 3.6.6 5.4l2-.2v-.4zM380.6 448.4c-1.2-5.2-1.9-10-2-14.2-.1-4.2.3-7.9.9-11 .8-4 2.1-7.1 3.3-9.4l.6-2.4c-.5.7-1 1.5-1.5 2.3-1.3 2.2-2.4 4.8-3.1 7.3-1.5 5-1.6 9.4-1.6 9.4-.4 5.2.1 10 .9 14.5.6 3.3 1.3 6.4 2.1 9.5.5-.5 1-1 1.5-1.4-.4-1.6-.8-3.1-1.1-4.6zM395.5 433c0-3.5.4-7.3 1.1-11.2.5-2.9 1.2-5.6 1.9-8.1 0-.1 0-.2.1-.2l-2.1.2c-.5 2-1 3.9-1.3 5.6.8-3.6.6-2.4.3-.9-.7 3.2-1.1 5.1-1.4 7.6l-.2.2c0 .3-.2 2.1-.2 4-.1 2.5 0 5.2.1 5.8 0 .9-.1-.3-.2-1.9-.1-1.6 0-3.6 0-4-.2 3.3 0 5.4 0 6.8.1 1.4.2 2.3.3 3.1.1.8.2 1.6.4 3.1.2 1 .4 2.4.8 4.3l2.1-.2c-.3-1.3-.6-2.7-.8-4.1-.6-3.2-.9-6.5-.9-10.1zM596.6 390.4l.2.3c-3.2-8.2-6.1-16.9-9.1-25l-2 .9 4 10.7c.3 1.1 1.4 3.7 1.4 3.7l5.7 15.8 1.8-.8c-.8-2.3-1.5-4.4-2-5.6zM576 387.7l-5.6-14.4-1.9.8 3.8 9.6c2.6 6.6 5 12.4 6.7 16.4l-.3-.7c.8 1.8 1.4 3.3 1.9 4.6l1.5-.6-1.2-3.1-4.9-12.6zM482.8 404l-.4-2.2h-.1l.5 2.2zM601.9 359.2l-1 .5c2.4 6 5.6 13.8 9.7 23.9l-.4-.7 2.7 6.4c.6-.3 1.1-.6 1.7-.8l-7-16.2c-2-4.7-3.9-9.1-5.7-13.1zM561.8 401.1l1.8 4.8c-.9-1.6-3.5-9.9-7.2-19.2-.8-2.2-1.7-4.4-2.6-6.6-.6.2-1.1.4-1.7.7l5.6 14.8 5.8 15.4c.6-.2 1.2-.4 1.7-.7l-3.4-9.2zM537.5 388.8l-.7-2.2-1.6.6.2.5v.4c3.6 10.4 6.2 19.7 8.6 26.6.4 1.2.7 2.2 1 3.1l1.8-.6c-1.9-5.8-3.7-11.4-5.5-17l-3.8-11.4zM499.7 397.8l-2 .5 1.3 5.9-.5-1.7 2.8 12.7-.3-1.8c1.4 6.2 1.6 8.5 3.4 15.4.1.2.1.4.1.5h.1c-.1-.9-.9-4.6.1 0l2-.5-2.7-11.9-4.3-19.1zM525.6 418.2c-1.4-6.5-2.8-13.4-4.2-21.2-.3-1.2-.7-3-1.1-4.9l-1.9.6 3.2 15.9c1 5.2 2 10.2 3 15.2.7-.2 1.4-.4 2-.6l-1-5z"/></g><path fill="#fff" d="M258.2 557.1l-.2 2.3c12.7 3.4 25.5 6 38.6 7.3 6.8.6 13.5 1 20.3 1.4 6.7.3 13.5.6 20.2.8 5.4.2 10.7.3 16 .4.1-.6.2-1.3.2-1.9-3.6-.1-6.6-.1-8.5-.1l-18-.7c-7.2-.3-11.5-.6 0-.2 2 .1 5.5.2 5.2.2h2.8c-11.6-.5-22.1-1-32.6-1.7-10.4-.7-20.8-2.2-31.9-4.7 6.6 1.6 15.5 3 9.5 2.1-7-1.3-13.9-2.9-20.7-4.7l4.3 1c-1.8-.6-3.5-1-5.2-1.5zM356.8 526.4c-1.8 0-6.7-.2-13.4-.6l3.5.1c-7.5-.4-10-.6-15-1 4.5.2 2.4 0-8.7-.9l7.4.5c-7-.5-13.9-1-20.9-1.8-8-1-18.3-2.6-27.4-4.5-7.7-1.6-14.5-3.2-18.4-4.3l-.4 2.2c4.8 1.2 9.8 2.3 15.1 3.4-5.9-1.2 2.5.6 2 .5 10.9 2.3 22.3 4 31 4.9 8.7.9 14.7 1.3 14.9 1.2l12.9 1c1.5.1 1.3.2 2.3.3-.1-.1 7.6.3 16.7.7l.2-1.2.1-.7-7.1-.3c5.7.4 7 .5 5.2.5zM285.4 480.6c7.9 1.9 17.2 4 25.2 5.5l-.5-.1c12 2.1 25.7 3.1 31.7 3.4h-.5c4.9.3 9.8.5 14.7.7h-2.5c3.9.1 7.9.2 11.9.3l.4-2.2c-5.8-.1-11.2-.3-16.2-.5-12.2-.6-21.8-1.5-27.9-1.9-8.3-1-13.1-2-16.9-2.8-3.8-.8-6.7-1.5-10.9-2.5l3.9.8c-7.6-1.7-13.8-3.3-19.2-4.7-1.9-.5-3.8-1-5.6-1.5l-.6 2.1c1.4.4 2.8.8 4.1 1.1 3.1.7 6 1.5 8.9 2.3zM290.1 607.6c4.9.4 9.9.8 14.9 1 5 .2 10.1.3 15.2.3 9.3 0 18.8-.4 28.7-.9l.2-1.7-2 .1c-7.3.3-15.1.6-25.3.7l-.8-.1c-6.7.1-13.2 0-19.4-.4-6.2-.4-12.3-.9-18-1.5-10.4-1.1-19.9-2.5-28.1-3.7 0 .7 0 1.3-.1 2l5.2.8c9.8 1.4 19.6 2.6 29.5 3.4zM316.1 626.8c10.3.4 20.7.3 31.1.1l.1-1.7c-10 .1-20.4 0-31-.3-13.1-.4-26.5-1.6-39.6-2.7-6.6-.6-13-1.2-19.4-1.9l-2.3-.3v1.9l23.8 2.4-12.6-1.2c2.2 0 8.5.7 17.4 1.6 8.9.7 20.3 1.8 32.5 2.1zM342.8 700.6c0-.6.1-1.2.1-1.9l-52 1.1c-12.5.3-24 .5-33.5.8 0 .3 0 .6.1.9 16.7-.1 42.3-.4 79.2-.8l-1.9.1 8-.2zM301 661.9h-45.5c0 .7 0 1.4.1 2.1h.2l16.6-.1c-.9 0-1.4.1-5.9.1 17.7 0 41.1-.1 42.4.1h35.9l.1-2.1-43.9-.1zM333 452.4c-2.2-.2-4.4-.5-6.6-.8l-1.9-.3c.1.1-7-1.1-11.6-2.3-2.2-.6-2.1-.7-3.3-1.1l-3.4-1.1c-1.8-.6-4.3-1.4-8-2.8-5.8-2.2-14.1-5.6-22.4-9.9-5.5-2.8-11.1-6-16-9.3-.3.6-.5 1.2-.8 1.9 3.1 2.1 6.2 4 9.2 5.7 6.9 3.9 13.5 7.1 19.9 9.8 3.2 1.4 6.3 2.6 9.4 3.8 3.1 1.2 6.1 2.2 9.2 3.1 6.1 1.8 12 3.1 17.9 4.2 11.7 2 23.3 2.9 35.6 3.1 5.9.1 12-.1 18.4-.4.8-.9 1.5-1.7 2.3-2.5-4.3.3-8.7.5-13.1.6-11.2.3-22.8-.1-34.8-1.7zM348.4 589.9c-15.5-.9-30.7-1.9-45.5-3.2l-4.3-.6c-.9-.2-7.7-.9-14.7-2.1-7-1.1-14.1-2.5-16-3l-11.3-2.4h-.1c0 .7-.1 1.4-.1 2l1.1.3c6 1.4 8.2 1.8 10.5 2.3l11.5 2.2c-.4 0 3.8.8 7.2 1.3 3.4.6 5.9.9 1.9.4 3.8.6 7.7 1.1 11.6 1.5 3.9.4 7.8.7 11.8 1 7.9.6 16.1 1.1 24.5 1.6l13.9.8.2-2-2.2-.1zM311.1 642.5h1.9c-15.6-.2-20.1-.4-37.5-.7-.9 0-2.2-.1-2-.1l-16.1-.3-2.4-.1v1.6l3.3.1 52.5 1.1 35 .9.1-1.9-11.1-.2-23.7-.4zM307.5 682.1c-4.5-.5-34.2-1.3-43.9-1.8h.9l-8.3-.3.1 1.9 57.2 2.2 30 1.1.1-2-9.4-.4-26.7-.7zM345.2 506.6c-6.7-.6-13.3-1.2-20.5-2-3.6-.4-7.3-.8-11.3-1.3-4-.5-8.2-1.1-12.7-2.1l.5.1c-11.5-2.1-21.7-4.7-31.2-7.3-.6-.2-1.2-.3-1.7-.5-.2.7-.4 1.5-.5 2.2.5.1.9.2 1.4.4 8.8 2.4 17.9 4.6 23.1 5.9l-2-.4c4.8 1.1 9.5 2.1 14.1 2.9 4.6.8 9 1.3 13.4 1.8 8.7 1 17 1.8 25.1 2.5 6.3.6 12.5 1.1 18.8 1.6l.4-2.3-16.9-1.5zM346.4 469.8c-10.9-.3-21.9-1.1-32.6-2.9-10.8-1.7-21.3-4.7-31.3-8.6-8.3-3.3-16.3-7.4-23.5-12.4.5 1.3 1.1 2.6 1.7 3.9.6.4 1.3.8 2 1.3 1.3.7 3.2 1.8 5 2.8.1 0 .4.3.2.2 5.8 3 8.3 4 8.6 4.1.3.1-1.6-.7-4.3-2.1.3.1-.2-.1-1.8-1 3 1.6 6.7 3.3 10.5 4.9 3.9 1.6 8 3 11.8 4.2 7.6 2.4 13.9 3.6 14.7 3.9 9.6 1.9 18.7 2.9 27.3 3.4 8.6.5 16.8.7 24.7.6 3.4 0 6.7-.1 10.1-.3l.8-2.1c-7.8.3-15.8.3-23.9.1zM303.4 542.9c-10.8-1.1-21.5-2.9-32.2-5.1-3.5-.7-7-1.6-10.6-2.4l-.3 2.1c9.8 2.4 21.7 4.9 34.5 6.7 6.8 1 13.8 1.6 20.8 2.2 7 .6 13.9 1.1 20.5 1.5-2.5-.3 4.7.1 12 .5l.8.2c2.5.1 4.7.2 6.5.3.1-.6.2-1.2.2-1.8-6.7-.4-12.9-.8-19-1.2-10.2-.9-20.4-1.7-33.2-3z"/><g fill="#fff"><path d="M330.3 418c6 1.5 11.7 2.4 15.8 2.9 4.1.5 6.7.8 6.7.8 8.5.9 16.6 1.4 24.4 1.7.6 0 1.1 0 1.6.1.2-.6.3-1.2.5-1.7-6.2-.2-11.9-.5-17.3-.8-10.3-.7-19.3-1.7-26.9-3.2-15.3-3.1-25.4-7.4-31.5-10.7-1.5-.9-2.9-1.6-3.9-2.4-.2-.1-.4-.3-.5-.4l-.2.4c3.2 2.5 7.9 5 13.4 7.4 5.5 2.4 11.9 4.4 17.9 5.9zM377.8 437.7v-1.7c-11.7 0-23.4-.4-35.4-1.7-6-.7-12.1-1.6-18.2-3.1s-12.3-3.5-18.5-6.1c-6.2-2.6-12.5-5.7-18.8-9.4-3.2-1.8-6.3-3.8-9.5-6l-.3-.2c-.7.2-1.5.5-2.2.8 1.2.9 2.2 1.5 2.6 1.7 1.6 1.1-.1 0-2.7-1.7h-.1c1.9 1.3 3.5 2.3 4.8 3.2 2.8 1.8 4.5 2.8 6.2 3.8 1.7 1 3.5 2 6.5 3.6 3.1 1.6 7.5 3.9 14.9 6.9 16.1 5.8-2.9-1.2 4.9 1.5 7.1 2.5 14.4 4.3 22 5.5 7.6 1.2 15.6 2 24.2 2.5l-5.4-.5c9.4.8 17.6 1 25 .9z"/></g><g fill="#AD272D"><path d="M321.5 424.9c.2.1 0 .1-.2.1l.2-.1zM321.4 425.1l-.1.1c0-.1 0-.1.1-.1zM320.3 425.9c.3 0 .5-.4.8-.3-.2.3-.6.5-.8.3zM320.6 425.5l.1.1h-.3zM320.7 425.3v.1l-.5.1zM320.2 426.1c.1.2-.6.4-.4.6-.3.3-.1-.1-.3-.1l.3-.1c.1-.3-.3-.1-.2-.3l.6-.1zM307.5 440.9zM306.3 446.2v.2l-.1-.1.1-.1zM309.2 437.8v.2c-.1-.1-.1-.2 0-.2zM315.7 468.3zM305.9 452.2v.2-.2zM316.2 429.8c0 .1-.1.1-.2.1l.2-.1zM314.9 431.1zM314.2 432zM316 430c0 .2.2.5-.2.3v-.1c0 .1-.2.2-.3.3v-.1c0-.1.1-.1.2-.2-.1-.2.1-.2.3-.2zM307.6 440.9c-.1 0 0-.1 0 0zM308.4 439.5v.2-.2zM310.9 433.9zM308.3 439.8v-.1.1zM337.5 475.3l-.3.1.1-.2c.1 0 .2 0 .3.1l-.1.3c-.3-.2.1-.2 0-.3zM317.1 468.9c.1-.1.1-.1.2 0 0 .2-.4.3-.3.6 0-.1-.1-.1-.2-.1.3-.1.3-.3.3-.5zM316.9 469.3h-.2.2zM333.7 475.4h-.1.1zM309 451.5c0-.1 0-.1.1-.2 0 .2-.1.2-.1.2zM315 467.1s-.1 0-.1-.1v-.1l.1.2zM321 475h.3l.1.2c-.2 0-.3-.2-.4-.2zM337.6 475.2zM316 468.6l-.5-.5.2.1c0 .2.4.3.3.4zM306.2 443.2l.4.1.3-.5c-.1.1-.2-.1-.2-.3 0 .1 0 .2.1.1.1-.4.4-.4.6-.8l.1.9c.3 0 .1-.2.2-.5 0 0-.1.1-.1 0l.2-.2-.4-.5c-.1-.3.2-.3.2-.6v.1-.1c.1-.2.2-.5.4-.5-.1-.1.1-.2.2-.3.1-.1.4-.4.2-.7.1-.3.1-.6 0-.6l.1-.5h-.2c.2-.4.4-.3.7-.5 0-.4.4-.9.5-1 0 0 0-.1.1-.2v.2c.1-.3.2-.2.4-.5v-.30000000000000004.1s0 .1-.1.1l-.1-.1c-.1-.4.3-.3.4-.7l-.1.1c0-.2-.2-.6.1-.5 0-.1.1-.1.1-.1v-.1.1c.1 0 .2-.1.2-.1l.2-.4c0-.1.1-.2.2-.2v-.1c.1-.1.1-.2 0-.2 0-.7.6-.7.7-1.4.2 0 .1.3.2.3.2 0 .5-.2.6-.3 0-.4.3-1.2 0-1.3.3-.4.1.3.3.1v-.1c-.1.2-.1.3 0 .5.1.1.4-.2.5-.3l-.3-.1c.4-.3.6 0 1-.1.2-.4-.2-.3-.3-.5l.3-.3-.1-.1c.2-.2.4-.1.6-.4-.3.1.2-.5-.2-.4l.3-.2c.2 0 0 .2-.1.3.2.3.4-.2.6-.3-.1-.1-.2 0-.1-.3.1 0 .3 0 .3-.2.1.1.3-.2.4-.3-.1.1-.2.4 0 .5.2 0 .3-.1.5-.3l-.1.2c.4 0 .2-.5.5-.6l-.5.1c.2-.1.5-.2.8-.3l.1-.4.4-.1c.2-.4-.4 0-.5-.1.3-.4.5 0 .7-.5h-.2c.1-.1.4-.2.4-.3 0 .1 0 .1-.1.1.3.2.7-.2.9.1l-.2.2c.3-.1.7-.1.8-.3.1-.2-.3-.1-.4-.2h.7c-.1.2 0 .3.2.3-.2.1-.5.5-.5.3v-.1c-.1-.1-.2 0-.3 0-.2.2 0 .2 0 .3h-.6v.1c-.2 0-.5.3-.7.1l-.5.5c.3.5.5-.5.9-.4-.1.2.3.1.4.2l-.7.3c0 .1 0 .5-.2.4-.3.1-.4-.1-.5.1 0 .1.1.1.2.1-.1.2-.2 0-.4.1l.1.3c-.3 0-.3.3-.4.5-.2-.3-1 .3-.8-.2l-.6.2c0 .2.6 0 .7.3l.3-.3c.2.3-.8.5-.7 1-.1.2-.1.1-.3.6l-.2-.3c-.1.2 0 .4.1.5-.1.1-.2.2-.2.3h.2c0 .3 0 .2-.2.2-.1 0-.2.1-.3.2h.2c-.1.1-.2.1-.2.1l-.1.1c0-.1-.1-.3-.1-.5-.2.5-.5.8-.6 1.3.1.1.3 0 .3 0-.1.2-.4.3-.5.2l-.1.1.1.3v.2c-.3-.1-.4.3-.6.3 0-.1.1-.2.2-.3-.3 0-.5.1-.5.3.3-.2 0 .5.4.1.1.5-.3 0-.4.4v.3c.2.1.3-.3.3-.2l-.1.1c.2-.1.5-.7.9-.8l-.3.7c-.8.7-1.1 1.9-1.9 2.4h-.1v.1l-.3-.4c.1.3 0 .6 0 .9 0-.2 0-.2-.2-.3-.2-.1-.3-.1-.3.2.1.1.2-.1.2.1 0-.1-.2-.1-.2 0 0 .2-.1.4.1.5.1-.1 0-.1 0-.2.1-.1 0 .3.2.2l-.1.2c.1.2.2 0 .3.1-.3.4-.7.5-.9.9.1 0 .4.1.3.1 0 .3-.6.5-.7.9.1 0 .1-.2.2-.3-.2 1.1-.5 2.1-.4 3.2l-.4.2.2.3c0 1.1-.3 2-.5 3 0 .3.2.2.3.4 0 .7-.4.9-.5 1.6.1-.1.4-.3.4 0-.1.1-.3.1-.2.3l.1-.1c.2.2 0 .3.1.7 0 .6-.2 1.2-.5 1.8.1.6.4-.1.4 0-.2-.4 0-.3.1-.4-.1.2-.1.5.1.6 0 .3 0 .4-.1.7.1-.2-.1-.3-.2-.1.1.2.1.8.4.8.2 1.4.6 2.8 1.1 4.2-.1.3-.1-.2-.2 0l.1.6.1-.2c.2.4.1.9.1 1.4.1-.1.3.3.2-.1.1.2.9.1.8.3l-.8.1v.3c.2.1.5.2.5.3.2 0 0-.3 0-.4l.6.1-.2.3.2.3-.2-.2c0 .3-.2.5.2.7l-.1.5c.3-.1.2.2.3.4l.1-.2c.1.2.2.3.4.4v-.3l.2.2c-.1.1-.1.3-.3.2-.1.4-.2.6.1 1.1.4.1 0-.4.3-.4.4.5-.1 1 .1 1.4.4.4.2.5.4.9 0-.2.4.2.6.2v-.3c0 .2.2.2.3.1-.2.1.2.7.4 1l-.2.1c.1.3.3.6.5.8.2.4 0 .4.1.8.3 0 .4-.1.5-.3-.2 0-.2-.2-.4-.3-.2-.5-.2-1.1-.6-1.5.2-.5.2.3.5.4v-.1h.1c-.1-.2-.2-.5-.1-.7.2.3-.2.5.2.7.1.3.5.3.7.4 0 .3-.3.5.1.8l.1-.3c.4.4-.1.5.2.8-.1-.1-.1.3-.3.1 0 .2.3.5.5.7l-.1.2c-.4-.1-.2-.5-.6-.5l.1-.4c-.3-.1-.5 0-.4.2 0-.1-.1-.2-.1-.2-.4.3.4.2.2.5l-.1-.2c-.3.1.2.5.4.7.3.1.5.3.7.2l-.2-.3c.3 0 .3.4.5.6h.30000000000000004-.1l.5.5-.1.1v-.1c-.1-.1-.4-.2-.4 0 .2.4.5.2.7.1.1-.3-.3-.3-.4-.5l.8.4-.3-.6c.3.2.2.4.6.6l-.1-.5.2.1c-.4-.4.3-.2 0-.6.2 0 .1.4.4.4-.1.1-.5.1-.3.4l.3.1c.2 0-.1-.5.2-.4l.2.3c-.1.1-.2 0-.2.2.2 0 0 .5.1.7.2.1.3.2.4.1l.9 1.3c-.2-.3.2-.3.4-.3-.3-.2-.1-.5 0-.6.2.1.1.5 0 .5.4.1.1.3.5.3.2 0 .1-.3.2-.3.3.2-.1.4.3.5v-.1c.2.1.4.3.3.4h.7c.4.3-.2.1-.1.3.1.2.5.3.7.3-.1-.1-.2-.2-.3-.2l.2-.2.8.8c-.2-.3 0-.2-.1-.4.1.1.5.2.2.3.2.1.4.1.6.1.2.2.3.3.4.5.3.1.6 0 .8 0l1.9.7h-.1c.6.1-.3.2.2.4 0-.3.4-.1.6-.2l1.9.5c0-.1 0-.1-.1-.2.5 0 .9.1 1.4.2.8-.1 1.4.2 2.1.3-.1 0-.1-.2-.1-.2.4 0 1-.1 1.3.2.5-.3.3.1.9-.2l-.1-.1c.3-.1.5-.1.8-.1.6.2.8.6 1.6.4 0-.4-.5-.1-.5-.4.2.1.3.1.5 0l-.1-.2c.1-.1.7.4.7.3 0 .1 0 .1-.2.1.2.2.7-.1 1.1 0-.1 0-.5.2-.3.3.5-.2.7.2 1.1.3.4-.3-.4-.3-.4-.6.1-.1.2-.4 0-.5.4-.1.7.1 1.1.1v-.1c.5-.1 1.1.2 1.5-.1l-.2.2c.1 0 .3-.1.5.1 0-.1.2-.3.1-.4.3.4 1.2-.1 1.6.2.1-.1-.1-.3-.1-.4-.3.1-.4.3-.6.1.3-.1.4-.2.3-.3.3.2 1 .1 1.2.3.1-.2.3-.3.1-.5.8-.2-.1.8.8.5.3-.4-.5-.1 0-.4h-.1c.2-.7.4.3.9.1-.1-.3-.4-.1-.2-.4.4-.1.8.2 1.2-.1l-.1-.1 1-.5h-.1l.5-.4.2.1c-.1.2-.4.6-.7.5.3 0-.2.6.1.7l-.1-.1c-.4.8-1.3 1.2-2.1 1.7-.7-.1-.9.5-1.6.5-.2-.3-.1 0-.7.1.3 0 .1.3 0 .4-.1-.1-.3-.1-.4-.1-.1.2-.7.6-1 .5-.3.2.1.1.2.2l-.4.1h.1l-1.3.4c-.1-.4-.5 0-.8-.1.1.1-.3.2-.4.3l-.3-.2c-.3-.2-.4.2-.8.1l.1-.1c-.3-.1-1 .2-1.2.4-1.3-.3-2.2-.1-3.2 0s-2 .3-3.3 0v-.3c-.3-.1-.3-.1-.6-.1l.2-.1.4.2v-.1c.1.1.3.1.4.1-.2-.1-.2-.4-.6-.3l.1.1c-.3 0-.3-.2-.5-.1-.2 0-.2-.1-.2.1h-.8c-.3-.4-.8-.2-.9-.2 0 .3.5.2.6.5l-.3.1v-.2h-.4c0-.1-.1-.2-.2-.1 0 0-.1.1 0 .1l-.2-.2-.3.2c-.9-.1-1-.6-1.9-.5.2-.1-.1-.4-.4-.5-.2 0-.2 0-.1.2l-.3-.2c-.5.2-.8-.1-1.4-.3v.1c-.2-.2-.3-.4-.6-.5v.2c-.4 0-.1-.5-.6-.6l.5-.4c-.2.2-.6 0-.5-.1-.4-.3-.3-.1-.3-.1l-.2-.2c-.3-.1-.2.2-.2.4-.2-.3-.5-.3-.8-.5l.1.2-.4-.2c-.2-.3-.5-.5-.8-.6l.1.4c-.3 0-.1-.2-.1-.2-.3-.3-.4-.2-.7-.2-.4-.6-1.3-.3-1.6-1l-.2.1c-.4-.7-1.4-.9-1.5-1.6-1.1-.1-.1-.8-1.1-1h.1c-2.1-1.8-4.2-3.9-5.3-6.3l-.1.1c-2.4-3.5-3.5-7.5-4.2-11.6.1-.4.4-.2.5-.5 0-.1 0-.5-.2-.4-.1.3-.2.1-.2.2 0-.5-.3-1.1-.1-1.5l.2.3c.1-.2 0-.4 0-.6h-.4c.4-.9-.2-.7-.1-1.4.4-.2.7-1.1 1.1-1.6l-.1-.3c0 .4-.3 0-.3.5-.1-.4.1-.8.1-1.2.1.1.2.1.3-.1l-.2-.6-.2.3c-.1-.2.1-.3.1-.5-.2-.1-.1-.5-.3-.5.3-.4.2-.5.4-.9.1.5.2-.1.4 0l-.1.5c0-.7-.1.2-.3.1.1.3.5-.4.4.2.2-.6.1-.8.5-1.4-.1.4.2 0 .2.2.1-.5-.1-.1-.2-.3.1-.3-.1-.4.2-.6 0-.4-.2 0-.3-.2-.2.1 0 1.3-.6 1 0 .2-.3.5-.4.8-.6-.5-.7-.9-.5-1.3zm8.4-11.6zm-3.6 2.5zm-1.9 3.9c.3 0 .3-1.1.4-.9.3-.3.1-.3 0-.3-.1.4-.3.6-.3.9l-.1-.2c-.1.3-.1.4 0 .5zM318.2 426.6l.2-.4h-.1l.1-.2c.4-.1.5 0 .7.1-.4.1-.5.3-.9.5zM319 427.4v.3l-.1-.1.1-.2zM316.3 430.4c.2 0 0 .4-.2.3l.2-.3zM315.7 428.4c.2-.1 0-.1.1-.2h.2c0 .1-.2.3-.3.2zM315.1 431.7c.1 0 .2-.4.4-.2-.2-.1-.1.3-.4.2zM314 429.8c-.1-.2.2-.3.3-.5-.1.2-.1.5-.3.5zM314.3 432.1c-.1.2-.2.6 0 .7-.2 0-.5.1-.5-.2.1.1.2 0 .3-.2h-.2c.2-.2.2-.2.4-.3zM314 430.2c-.1.3-.1-.2-.4 0 .1-.2 0-.4.2-.6.1.1.1.3-.1.5l.3.1zM313.5 433.6v-.1c.3-.1.4-.4.7-.4-.2.2-.5.5-.7.5zM313 431.1c.1-.2.1.1.2 0 0-.1.1-.2.2-.2l-.1.3-.3-.1zM312.2 432l-.1-.4c.3-.3.1.1.4.2l-.3.2zM312.4 432.3l-.6.2c.3-.2.2-.2.6-.2zM310.7 438.4c.1 0 .1.4.1.2-.1-.1-.1-.4-.1-.2zM309.3 436.5c0 .2-.4.6-.5.7.2-.2.4-.8.5-.7zM305.9 446c0-.2.1-.5.2-.5-.1.2-.1.4-.3.7 0 0-.1-.2.1-.2zM305.8 448.2c.1-.1 0-.3.2-.2 0 .1-.1.3-.2.2zM312 461.2c-.1-.2 0-.1 0-.3.2.2.2.3 0 .3zM312.2 461.4l.2.1h-.3zM313 462.4v.1-.1zM312.9 462.3c0-.1.1 0 0 0zM313.2 462.5v.3l-.3-.1c-.1-.3.2.2.3-.2zM313.8 465c-.6-.5.3-.6-.2-1.1.3.2 0-.3 0-.4.2.1 0 .7.4.6.2.7-.6.2-.2.9zM313.1 463.7c.1-.1.3.1.3.3-.1-.1-.4-.1-.3-.3zM314.2 464.7l.2.1v.1zM314.7 465c0 .1.2.3 0 .3v-.3zM315.3 466.1c.1 0 .3.1.2-.1.2 0 0 .4-.2.1zM316.7 467.9l.2.3h-.1c-.1-.1-.2-.2-.1-.3zM315.6 468.5c.2.2.2.1.5.4-.3.1-.3-.3-.5-.4zM317.1 468c.1-.1.3.1.2.2 0-.1-.1-.2-.2-.2zM317.9 469.4c-.2-.3-.1-.8-.5-.7l.1-.5c.3.2 0 .4.1.5.2 0 .1-.1.2-.1.3.1.4.3.5.5-.1 0-.4.1-.4.3zM316.5 468.7h.3c-.1.1 0 .2 0 .3-.3.3-.2-.2-.3-.3zM319.4 470.5l-.2-.3.3.4zM319.5 470.3h.1l.2.3zM319.7 470.3l.3.2h-.1zM320.4 470.8c0 .1.3.2.4.2l-.1.1c-.2-.1-.4-.1-.3-.3zM322 475.4v.3s-.1-.1-.2-.1c0-.1.1-.1.2-.2zM322.6 475.6l.2.4c-.4-.1-.4-.4-.7-.6l.5.3v-.1zM329.4 477.5c.3.2.7.2 1.1.3-.1.1.2.3 0 .3l-.5-.2v.1c-.4.1-.2-.2-.5-.2.1-.2.2-.2-.1-.3zM347.5 473.6c.2 0 .1.2 0 .2v-.2zM347.6 473.8z"/></g><path d="M275.5 109.4c-1.1 0-3.7 0-4.2-.2.1-.1.2-.1.2-.2l-.2.2c.3 0 .7.1 1.2.1-.3-.1-.6-.2-.9-.2 1-1 1.8-1.9 2.6-3-.1 0-.1-.1-.1-.2s.2-.3.2-.5c.2-.3.6-.8 1-1.3.8-1 1.7-2 1.9-2.7 2.1-2 3.7-4.3 6.1-6.6-.4 1.2.7-.7 1-.1.6-.5.8-.7.8-.8l-.1.1.1-.1 1.5-1.9c.3-.5-.6.4-.7.3 1.2-1.2.4-.7 1.1-1.5 0 .3.6-.2 1.3-.9l-.8 1.1 3.2-3.1-.7.4c1-.7 3.5-3 4.7-3.4.1-.2.3-.5-.2-.2 2.3-1.9 5.5-3.6 7.2-5.2h-.3c.5-.3.9-.3 1.4-.8-.1 0-.3 0-.1-.1.3-.1 1.3-.6 1.9-1.1l-.6.2c2.3-1.7 3.9-2.1 6-3.2-.2-.3 1.7-1.6 2.6-2.2h-.1c2.9-1.7 5.2-2.4 8.1-3.5 1.6-1.2 5.9-2.8 8.7-4.1-.4.2.2.3.7.1.7-.3 2-.4 1.7-.7l-.2.1c.4-.5 1.8-.9 2.9-1.3l.3.4c2.7-1.6 7.7-2 9.2-3 .7-.1 1.6-.3 2.4-.3l-.1-.2c2-.5 3-.7 5.5-1.1l-.5-.1c1.4-.3 1.9.4 3.2.2l.3-.4c2.4-.4 4.9-1 7.4-.9 0-.1-.1-.2-.5-.1 1.2-.2 4.5-.7 4.1-.1 0-.4 2.5-.2 3.9-.1l-.2-.2c1.1.3 1.2.4 2.8.4.4 0 .3-.2-.2-.1 1.2-.2 1 .2 2.5 0l-.6-.2c1.3-.1 1.2 0 1.9.2.8.1 2.4-.1 2.6-.3.2.1.9.3 1.6.3.1-.1-.2-.1-.3-.2 2.1-.2 3.2.4 4.6.2 0-.1.1-.1.3-.1-1.7-.1-3.1-.1-2.9-.1 0-.2 1.4-.2.3-.6 1.1.2 3 .7 4.3.6.1 0 .1 0 .2-.1h-.1c.3 0 .6 0 .8.1h1.1c.2-.2 1.6 0 2.3 0-.1.3.8.3 0 .4.1 0-.1 0-.6-.1h-.3l-1.7-.1c.5.2 1.1.3 1.8.2.3.2.7.4.9.5 1-.3 2.8-.3 3-.5 2.1.3 4.9.6 6.1 1.3.6.1.7-.1.9-.1-.3-.1-.7-.1-.9-.2 1.2.3 3.5.5 3.7.9 1.5.1-.8-.4 1.2-.1l-.3-.1c4.1.1 6.3 1.9 10.8 2.1h-.5c5.1.7 10.2 2.6 15.1 3.4 1.4.3 1.5.5 2.3.9l.4-.2 1.3.7c2 .8 3.7.4 6.1 1.6l-.4.1c.9.3 2.9 1 2.8.8.1.1.2.3.6.3l.1-.1 2.2 1c1.8.5-.1-.6 2.5.2l.3.1-.1-.2s.2 0 .2.1l1 .3c1.2.4 2.4.7 3.4 1.1l-1.9-.8c1.1.5 2 .8 2.9 1.1l-1-.2.7.2.3.1.2.1c.2.1.3.1.3 0 .6.4-.6.2.5.8.8.2 2.4 1 2.7.9-2.5-.9.4-.2-1.7-1 .4.2.9.4 1.5.6.1 0-.1-.1-.2-.2 2.5.7 1 .7 3.4 1.7-.3-.3.7-.1 1.1.1-1-.4-.6.1.3.5 1.6.5 1.7.8 2.5 1.1l-1-.3c.3.3 1 .6 2.1 1.1l-.5-.4c1.1.8 2.8.9 4.4 1.8.8.2.2-.2.9 0 1.8 1 2.1.7 4 1.8-.7-.1-.7-.2.6.7l-3.1-1.6 1.9 1.2c-1-.4-2-1.1-2.6-1.3.9.6.8.5.3.5 1.5.3 2.6 1.4 4.2 1.9l.2-.5c2.4.9 4 2.2 7 3.5l-1-.4c.3.4 1.8.9 2.7 1.5 0-.2.6 0 1.1.1-.1.1 2.1 1.1 2.2 1.6l1.4.5c2.4 1.2 2.4 1.9 4.7 3.1-.6-.5.5-.1-.9-1.1.8.4 1.4.8 1.4.9.5.1 1.9 1.4 2.7 1.6.3.2.3.5 1.1.9.1 0 0-.1 0-.1 0 .1 1.2.9.4.6 2.6.8 6.3 3.8 8.4 4.7l4.8 3.3c-.1-.1 0-.1-.2-.2 2 1.2.9 1.2 3.2 2.6 1.3.5-1.1-.9-.3-.5.6-.3 2.6 1.9 4.2 2.7l-.3-.3c1.2.6 2.5 2.2 4.3 3.5 0 0-.1-.1 0-.1 1 1.2 3.2 3.1 4.8 4.5-.4-.6-.7-.7-.2-.6.7.6-.5.1 1 1.4.6.3 1.7 1.1 2 1l-1.4-1.2c.9.4 1.8 1.5 2.5 2.1v-.2c2.1 1.9 1.8 2.2 4 4.2l-.3-.1c.9 1.4 1.1.8 2.1 2.1l.6.1c.7.8 2.4 2.9 3.7 4.3-.6-1-2.1-2.7-2.9-3.8.8.7 2.6 2.6 2.8 3.1-.3-.3-.6-.8-.9-1 .7 1.1 1.8 2.5 3.3 4 .3-.8 3.9 4 5.2 4.8 2.2 3.1 4.8 5.7 7.4 9.4-1.4-.9.7 1.1.1 1.2.5.8.8 1.2.9 1.2l-.1-.2.1.2 2 2.4c.5.5-.4-.9-.3-.9 1.3 1.9.7.7 1.7 1.8-.3-.2.2.8.9 1.9l-1.2-1.4 3.2 4.9-.4-1c.7 1.4 3 5.2 3.3 6.9.2.2.5.5.2-.2 1.8 3.4 3.3 8 4.6 10.7v-.3c.2.7.2 1.3.7 2.1 0-.1 0-.3.2 0 .1.4.5 1.9.8 2.8l-.1-.8c1.4 3.5 1.5 5.6 2.3 8.7.4-.1 1.3 2.7 1.7 4.2v-.1c1.1 4.3 1.3 7.4 1.7 11.5.8 2.4 1.3 8.5 1.7 12.5-.1-.6-.3.1-.3.8.1 1-.2 2.6.2 2.5v-.3c.4.7.3 2.7.3 4.2l-.5.3c.3 2 .2 4.6 0 7-.2 2.4-.5 4.5-.3 5.7-.2 1-.3 2.1-.6 3.1h.3c-.2 2.7-.4 4-1 7.3l.3-.6c-.3 1.9-1.1 2.2-1.4 3.9l.3.6c-.6 3.2-1 6.5-2.1 9.5.1 0 .2-.1.3-.6-.3 1.5-1.2 5.8-1.6 5.1.3.1-.9 3.2-1.5 4.9l.3-.2c-.7 1.3-.8 1.3-1.5 3.3-.1.4 0 .5.1.1-.2.6-.4 1.1-.5 1.4-.2.4-.4.8-.8 2.2l.4-.7-.3.8-.1.3v.1l-.1-.1-.1-.1c-.3-.3-.4-.5-.6-.6-.3-.4-.5-.7-.9-1.2-.2-.3-.5-.6-.8-.9l-.8-.7c-.5-.5-1-.8-1.2-.8-.1-.3-.6-1.1-1.3-1.7-.2 0 .1.3.2.4-2.1-1.9-2.7-3.2-4.2-4.5-.1 0-.2 0-.3-.1 1.5 1.6 2.8 2.9 2.7 2.8-.2.2-1.4-1.1-.7.1-.9-1.2-2.3-3.2-3.5-4.5l-.2-.1.1.2c-.3-.3-.5-.6-.7-.8-.4-.4-.7-.6-1-1-.3 0-1.5-1.5-2.1-2.1.2-.1-.6-1 .3-.3-.1-.1.1.1.5.6.1.1.2.2.2.3v-.1l1.5 1.7c-.4-.6-.8-1.2-1.6-1.9-.2-.5-.4-.9-.5-1.2-1.1-.7-2.8-2.3-3.2-2.4-1.7-2.2-4.1-5-4.8-6.6-.4-.6-.7-.6-.9-.8.2.4.6.8.7 1-.9-1.3-2.9-3.6-2.9-4.1-1.3-1.4.4 1.1-1.2-1.1l.1.3c-3.7-3.8-4.7-7.3-8.7-11.6.3.3.4.5.5.5-4.3-5.2-7.9-11.3-12-16.5-1.1-1.5-1.1-1.8-1.6-2.8l-.5-.2-.8-1.8c-1.3-2.4-3.2-3.6-4.8-6.9l.4.3c-.7-1-2.1-3.4-2.1-3.1 0-.1-.1-.5-.4-.8h-.1l-1.4-2.8c-1.4-2-.3.6-2.2-2.4-.6-1.1-1.6-3.4-1.2-3 .3.4.8 1.1.9 1.1l-.6-1.1v-.1l-.1-.2c-2.4-4-4.8-8.1-7.1-12.2v.2l-.2-.4-.9-1.6c0 .1 0 .2.2.6-.8-1.1-.5-1.1-1.2-2-.1-.1-.1 0 0 .1l-.5-1.2c.1.3-.3-.1.1.6-1.3-1.9-1.6-3.4-2.3-4l.1.2c-1.1-2.2-.5-1.3-.5-1.7l-.7-1.3-1-.8.1-.4c-.2-.3-.5-.9-.5-.7-.4-1.2.2.1 0-.6-1-1.3-2-3.9-2.6-4-.1-.6.9 1.3.2-.3-.7-.2-.9-1.8-1.7-3 0 .5.8 1.7-.1.5 0-1-1.4-2.5-1.9-3.6.3-.2-1.1-2.4-2-4.3 0 .2-2-3.4-2.9-5v.1c.1-.5-.8-2.2-1.4-3.6-.2.1-.1.4.2 1.2l-.6-1.2c0-.3-.2-.7-.5-1.5l-.1.4c-.8-1.6-1.4-3.4-2.5-5.4.1-.1.7.5.8.3-.2-.4-.4-.8-.6-1.1-.1.1-.1.2.1.5-.1-.2-.2-.7-.5-1.1l.2 1c-.6-.9-.1-.6-.5-1.3-.2.1-.4-.5-.5-.3.1.2.4.6.5 1-.5-.8-1.1-1.8-1.3-2.1.1 0 .2-.1-.1-.7-.8-1.6-.5-.5-1-1.4-.1-.4-.7-1.4-.5-1.6-.2-.5-.4-.5-.5-.7-.3-.9-1.9-4-1.1-3.1l.1.2-.1-.1c-1.1-2.9-2.9-5.7-4.1-8.5h-.1c-.7-1.7-1.6-3.7-2-5-.2-.5-.7-1.1-.7-.8-.5-1.3-.5-1.5-1.5-3.2.4 1.3-.3-.4.5 1.4-.8-1.6-1.1-1.9-1.7-3.8.1.7-.8-1.1-1.1-1.9l.7 1.1c-.4-.9-.7-1.7-1.1-2.4l-.1.5c-1.9-3.2-2.1-6.4-3.8-8.7-.2-1 .9 1.8.8.9-.7-1.5-1.8-3-2-3.5-1.1-2.1-.5-2.2-1.5-4.4.2.2.6.4 0-1.3-.7-1.5-1.2-1.7-.9-.7.2.4.3.5.3.5.2.5.4 1.2 0 .6v-.2c-.4-.7-1.3-2.9-1.3-2.3-.4-1.2 0-.6.4.3-1-2-1.3-3.1-2.3-5.2.2.3.4.6.3.2-1.4-3-.4-1.4-1.2-3.5-.8-1.5-.2.7-1.2-2.3-.1-.2-.2-.3-.2-.5h-.3c0 .2.1.4.2.6l-.2-.6c-.1 0-.3 0-.4-.1-1.5.7-4.5 2-8.5 3.7h.1l-.3.1c-.4.2-.8.3-1.3.5.1 0 .2 0 .5-.1-.9.6-.9.2-1.6.7-.1.1 0 .1.1 0l-1 .3c.2 0-.1.3.5 0-1.6.9-2.7.8-3.3 1.3h.1c-1.7.6-1.1.2-1.4.1-.3.1-.7.3-1.1.4l-.6.7-.3-.2c-.2.1-.7.3-.6.4-.9.2.1-.2-.5-.1-1 .7-3.2 1.1-3.3 1.6-.5 0 1-.6-.2-.2-.2.6-1.4.4-2.4 1 .4.1 1.3-.4.4.2-.8-.2-2 .8-2.9 1.1-.2-.3-2 .6-3.5 1 .1.1-2.7 1.1-4.1 1.7h.1c-.4-.2-1.8.3-2.8.6.1.2.3.2.9.1l-1 .3c-.3 0-.6 0-1.2.2l.3.2c-1.3.4-2.7.6-4.4 1.3l.3-.7-.9.3c.1.1.2.1.4.1-.2 0-.6.1-.9.2h.8c-.7.3-.5 0-1.1.2.1.2-.4.3-.3.4.2 0 .5-.2.8-.2-.7.3-1.5.6-1.7.8 0-.1-.1-.2-.6-.1-1.3.4-.4.3-1.1.7-.4 0-1.2.4-1.3.1-.4.1-.4.3-.5.4-.7.1-3.2.9-2.5.4l.2-.1h-.1c-2.3.4-4.6 1.5-6.9 2v.1c-1.4.3-3 .8-4 .8-.4.1-.9.4-.7.5-1 .2-1.2.1-2.6.7 1.1-.1-.3.2 1.1-.2-1.3.4-1.6.6-3.1.8.5.1-.9.5-1.6.6l.9-.4c-.7.1-1.3.3-2 .5l.4.2c-2.6 1-5.1.6-7 1.7-.8 0 1.5-.5.7-.6-1.2.3-2.5 1.1-2.9 1.2-1.7.6-1.7-.1-3.5.4.2-.2.4-.5-1-.3-1.3.3-1.5.8-.6.7.3-.1.4-.1.4-.2.4 0 1-.1.5.1l-.2-.1c-.6.2-2.3.6-1.9.7-1 .1-.4-.1.3-.3-1.6.5-2.5.5-4.2 1 .3-.1.5-.3.2-.2-2.4.6-1.1 0-2.8.3-.9.3.4.3-1.3.5-1 .3-.2.3.3.3-1.6.1-2.8.7-3.7.9l.8-.1c-.5 0-.9.1-1.3.2l.4-.3c-.5.1-.9.2-.8.3-.5-.1.3-.4-.7-.4-.6.2-1.9.2-2.1.5 2-.4-.2.3 1.5.1-.3 0-.7.1-1.2.2h.2c-1.9.6-.9-.2-2.9.2.3.1-.4.4-.7.4.8-.1.3-.3-.4-.3-1.2.3-1.4.1-2.1.2l.7-.2c-.3-.1-.9 0-1.8.1l.5.1c-1-.1-2.2.6-3.6.6l-.6.5c-1.6 0-1.6.5-3.3.5.4-.3.5-.2-.6-.3l2.7-.2-1.7-.1c.8-.1 1.7-.1 2.2-.2-.8-.1-.7 0-.4-.3-1.1.5-2.2.1-3.4.5l.1.5c-1.9.5-3.4.2-5.9.6l.8-.2c-.4-.2-1.5.2-2.3.2.1.2-.4.3-.7.4 0-.1-1.8.2-2.1-.1l-1.1.4h-4.3c.6.1-.3.4 1 .4-.6.1-1.2.2-1.2 0-.4.2-1.8-.1-2.4.2-.3-.1-.4-.2-1.1-.2-.1 0 0 .1 0 .1 0-.1-1.1 0-.5-.3-1.9.7-5.6.4-7.2 1-1.4 0-3.1.1-4.4.2.1 0 0 .1.3.1-1.8.3-1.1-.5-3.1-.2-1 .3 1.1.1.4.2-.2.6-2.4 0-3.8.5h.3c-1 .3-2.5-.1-4.2 0 0 0 .1 0 0 .1-1.2-.3-3.4-.3-5-.3.5.2.7.1.4.4-.7 0 .2-.4-1.3-.4-.5.1-1.5.3-1.7.5h1.4c-.7.3-1.8 0-2.5.1l.1.1c-2.1 0-2.1-.4-4.4-.3l.2-.1c-1.2-.4-1 .2-2.3-.1l-.4.4-4.4-.4.5-.6c-.2.2-.5.4-.7.7 1.4-.6 3.1-.5 4.3-.3zm113.7-52.6s0-.1-.1-.1c-.5-.1-.6 0-.7 0l.8.1zm166.9 200.8v.2c.4.5.5.6.6.6l-.6-.8zm-56.9-83l.1.1c-.1-.2-.2-.4-.4-.6.1.2.2.4.3.5zm-62.2-97.7c-.1 0-.2.1-.4.1.1 0 .2 0 .4-.1z"/><g fill="#AD272D"><path d="M765.8 267.6l.2.2s-.1 0-.2-.2zM774.1 275.6v-.1zM746.9 267c.8-.5 1.9-.2 2.4.7l.2.4v.1l.3-.1c.1.1.1.3.1.5.2 0 .2.3.1.6.2.7.5 1.3 1 2-.2.5.4 1.1.3 1.5.2 0 .8 1.5.7.5 0-.1-.1-.2-.1-.2l.2-.2c.8.6.6 1.6 1.1 2.4-.2-.2-.4-.5-.4-.2l.5.7.1-.3.8 1h-.3c.4.5.9.4 1 1.2 0 .4-.6-.3-.3.3l2.3 2.1c-.3.1-.1.3.1.6l.2-.1c.5 1 .6-.1 1.2.8v-.2l-.1.6c.4 1 .7-.1 1.1 1.1-.3-.3-.5.3 0 .5v-.3c.2.2.2.3.4.4-.1-.2.1-.3.4-.1l-.1-.4.4.7c.6 0 1.4.6 1.7.3 0 0 1.2.1 1.5.5l.3-.5c.3.3 1.2.5 1.5.2h-.1c.6-.2 1.1-.2 1.6-.3.5-.1 1-.3 1.3-.7l.6.1c.6-.3.7-.8.9-1.2.1-.4.2-.7.8-.7.2-.5-.1-.7-.1-1l-.1.1c.2-.9.2-1.3 0-2.1 0-.4.5-.6.2-1.4-.1.3-.2 0-.3-.3 0 .2 0 .3-.3-.1l.1-.3h-.1c-.1-.5 0-.4.1-.2h.1c-.4-.4-.5-1.4-.9-1.3-.6-1.5-.8-2.6-1.3-3.9-.2 0-.2.3-.1.7l-.4-.9c-.2.1.1.5.2.8-.9-.8-.8-2.2-1.9-3.2v-.3h-.1c.1-.1.1-.4 0-.6-.3 0-.4.3-.8-.3-.5-.3-.7-1.3-1-1.9.2.3.3.1.3-.1-.2-.3-.5-.3-.5-.6l-.3.1c.3-.1-.3-.9-.2-1.1-.3 0 .1.5.1.7l-1.1-1.6c-.2-.7.3-.1.3-.5-.3-.5-.5-1.2-1.1-1.6h.4c-.6-1.1-1-1.6-1.7-2.1-1.9-4.1-1.8-5-1-4.8.8.2 2.1 1.4 2.1 1.4 2.7 2.4 3.3 4.3 5.6 7.9 1.1 1.5 1.9 2.4 2.7 3.4.7 1 1.5 2 2.3 3.8.9 1.7 1.7 3.6 2.3 5.5-.1.5.1 1.2.3 1.9.1.7.2 1.5 0 2.1l.2.5c-.2.5-.3.9-.3 1.4h.1c-.3.6-.5 1.4-.8 1.6h.1l-.4.7.2-.1c-.8.9-1.6 1.8-2.4 2.5l-.1-.3c-.8.8-1.5 1.1-2.2 1.3-.7.2-1.3.3-2.2.7v.1c-1.2-.2-2.1-.1-3.1-.1-.9 0-1.9-.1-2.9-.8.2.2-.2.1-.2.2-.5-.2-1-.4-1.4-.7-.4-.3-.5-.5-.4-.8-.7-.4-.6-.2-.8-.1.1-.2-.4-.6-.8-1l.2.2-1.2-1.1.5-.1c-.7-.5-.5.3-1.1-.4l.3-.3c-.9-.8-1.8-.9-2.7-1.6-.5-.6-.9-1.2-1.3-1.8 0 .8-.1 1.6-.3 2.4-.3 1.8-1 3.5-1.6 4.6-.9 1.6-1.5 3.5-2.4 5.3-.9 1.8-2.1 3.6-3.6 4.6 0 .1-.4.3-.4.2-.8.8-1.6 1.6-2.5 2.3 0 0-.8.7-1.9 1.4-1.1.7-2.5 1.6-3.7 2-1.2.5-2.1.6-2.1 0 0-.5.9-1.6 2.8-3.9h-.1c1.3-1.1 2.1-1.8 3.3-2.2-.2-.5 1-.9 1.2-1.3h-.1c1.1-.4 1.3-1.7 2.2-2.2-.1 0-.2-.1-.3.1.5-.5 1.2-1.1 1-1.4 1.1-1.2 2.1-3.3 3-4.1h-.1c.6-.4.4-.7.8-1.3v-.1c.6-.5.7-1.9.9-2.3l-.2-.1.3-1.3-.1.5c.6-.1-.2-1.1.3-2 0-.9 1.4-1.8 1.1-2.8.3-.5-.4.4-.2-.3-.3 0-.2.3-.4.1.1-.7-.3-1.1-.2-1.9h-.2c.3-1.1-.5-2-.3-2.7 0-1.1-.8-.6-.6-1.8l-.4-.3c-.2-.4.3-.4 0-.9l-.4-.2c-.1-.2-.3-.5-.3-.7l.3-.1v-.1c-.7-.5-.4-1.5.4-2zM764.1 320.3h-.2.2zM760.5 314.6l-.1.1zM762.3 291.6l1.5-1.2s1.9-1.3 3.3-1.6c.7-.2 1.3-.1 1.4.4.1.5-.3 1.3-1.2 2.8l.1.1c-.7.7-1.1 1-1.9 1 .2.5-.6.5-.6.7-.7 0-.7 1-1.3 1l.2.1c-.3.2-.8.5-.6.7-.7.5-1.3 1.5-2 1.7h.1c-.5.1-.3.3-.6.5 0 0 0 .1.1.1-.5.1-.5.8-.7 1l.2.1c-.1.2-.2.4-.2.6v-.2l-.2.9c0 .2-.3.4-.6.6-.3.2-.5.5-.3.8-.2.3.4-.3.3.1l.4-.2c-.1.4.4.4.3.9l.2-.1c-.2.7.7.7.5 1.2.1.6.8-.1.7.6l.4-.1c.2.1-.2.4.1.4.1-.1.3.1.4-.1.3.1.4.3.6.5.2.2.4.5.9.4 0 .4.4.4.4.7 0-.1.2 0 .4 0h.2c.1 0-.1-.1-.1-.3 0 0-.1-.1-.1 0v-.2c.2-.2.7.1 1.1.3.4.2.7.4 1.2.4-.4 0-.7 0-.6.1l.9.1v-.2c.5 0 1.1 0 1.7-.1l-.5.2c.4 0 .8-.2 1.2-.3.3.1.4.2.3.6l-.5.3c.5.2 1.2.5 1.4.7-.3.1-.2.1-.2.2l.2-.1.4.2h.1l-.2.1c0 .1.1.1.1.1h.2-.1l-.1.1.1-.1-.2.2c0 .1-.3.4-.1.4 0 0 .1.4-.3.6.3-.1.3.1.7 0-.3.2-.6.7-.2.9l.2.4c-.7.4-1.5.8-2.1 1.1-.6.3-1.1.6-1.5 1.1-.2-.2-.7.4-.8 0-.3.2-.6.4-.8.6-.2.2-.2.3-.3.5-.1.3-.3.4-.8.1-.3.2-.1.5-.1.6h.1c-.5.4-.6.6-.8.9-.2.1-.7-.1-.8.3.2 0 .1.1.1.2.1-.1.1-.1.2.2h-.2c-.2.2-.2.1-.2 0 0 0-.1 0-.1-.1.1.3-.2.6.1.8-.2.6-.6 1-.6 1.7.2 0 .3-.2.4-.3v.4c.2-.1.1-.3.1-.4.2.2.2.4.2.7 0 .3 0 .6.3.7l-.1.2c-.1.1-.1.2-.1.3.2-.1.4-.3.6-.1.3 0 .3.5.5.7-.1-.1-.2.1-.2.2.1.1.3-.1.4.1l.2-.3c-.2.2.2.4.2.6.2-.2-.1-.3-.1-.4.5.3.2.1.8.4.2.3-.1.3-.1.6.3.2.5.4.9.3l-.2.2c.6.3 1 .3 1.4.1 1.1.6 1.9 1 2.2 1.3.4.3.4.6.3.9-.4.5-1.5.8-1.5.8-1.1.3-2 .2-2.9-.2-.9-.4-1.9-.8-3.1-1.7-1.2-.7-1.9-1.3-2.5-2.1-.3-.4-.6-.8-.8-1.3-.2-.5-.4-1-.4-1.9-.2-1.6.4-3.1 1-4.2.6-.3.8-1.4 1.5-1.7v-.3c.2-.1.5-.2.5-.5h-.1l.7-.5h-.1l.3-.2h-.1l.4-.2.2-.1c.1 0 .1-.1.1-.2l.3.1c0-.2.1-.2.3-.3.1 0 .3-.1.2-.2h-.1c.7-.1.7-.2.6-.3-.1-.1-.4 0 .6-.3-.2.1-.3.1-.5.1.3-.1.6-.2 2.1-.6.2-.1-.3 0-.9.2l.5-.1c.1 0 .2-.1.2-.1l-.2.1h-.2l1.2-.3c-.6.1-1.4.4-1.4.3l.8-.3c-.6.1-1.9.4-2.6.6-.2 0-.4 0-.5-.1-.1-.1-.2-.1-.4-.2l-.2-.2h-.1l-.2-.1-.4-.2c-1-.5-2-1-2.9-1.6l-.3.1c-.3.3-.2-1-.5-.8l-.1-.4c-.1 0-.3-.1-.3.1-.2-.2-.2-.3-.2-.5l-.4-.1c-.4-.4-.6-1-.8-1.5-.2-.6-.2-1.1-.5-1.7-.5-.7-.6-1.9-.4-3.1.2-1.2.8-2.1 1.3-2.8.8-.8 1.2-1.9 1.8-2.9.6-1 1.3-2 2.3-2.3.3.5.5.5.5.5z"/></g></svg>