<svg version="1.1" id="Layer_1" xmlns="http://www.w3.org/2000/svg" xmlns:xlink="http://www.w3.org/1999/xlink" x="0px" y="0px"
	 viewBox="0 0 838 746" enable-background="new 0 0 838 746" xml:space="preserve">
<g>
	<path d="M177.1,392.9c0,0.4,0,0.7,0,0.8c0.1-6.1,1.1-12.3,2.6-18.3c1.5-6,3.6-12,5.9-17.8c4.6-11.6,10.2-22.7,15.6-33.5
		c3.1-6.1,3.7-6.6,5.8-10.2l0.5-1.4l3.7-6.1c5-8.7,7.9-15.6,14.2-26.7l-0.6,1.5c1-2,2.7-5.2,4.1-7.9c1.3-2.6,2.3-4.7,2-4.4
		c0.2-0.4,0.8-1.3,1.5-2.9l-0.1-0.2c1.6-3.4,3.2-6.8,4.7-10.2c1.5-4.1,1.2-3.8,1.2-4c0-0.1,0-0.3,0.2-1.2c0.3-0.9,0.8-2.6,1.7-5.6
		c0.7-2.2,1.5-5.5,1.9-8c0.5-2.5,0.6-4.2,0.6-3.3c-0.1,1.9-0.5,4.8-0.4,5c0.3-1.4,0.5-2.8,0.6-4.3c0,0,0.1-0.1,0.1-0.1
		c0,0,0-0.1,0-0.1c0,0,0,0-0.1,0l0,0.2c-0.1,0.1-0.1,0.2-0.2,0.2l0.1-0.4c-0.2,0-0.2-0.1,0-0.1l0.1-0.5l0,0.5c0,0,0,0,0.1,0
		c0-0.2,0-0.3,0-0.5c0,0,0.1,0,0.3,0c0.1-0.2,0.2-0.3,0.3-0.1c0,0,0,0,0,0.1c3.5-0.5,22.7-2.9,50.2-5.9l-0.5,0l1.5-0.1
		c2.2-0.2,4.4-0.5,6.6-0.7c-0.2,0-0.8,0-2.1,0.1c4.8-0.7,4.2-0.3,8.3-0.9c0.4-0.1,0.2-0.1-0.2,0l4.7-0.4c-0.9,0,0.7-0.3-2.1,0
		c8.4-1.1,13.5-1,16.7-1.6l-0.7,0c8.7-0.7,5-0.3,6.3-0.2c1.8-0.2,3.6-0.3,5.5-0.5l4-0.8l1.2,0.2c1.2-0.1,3.6-0.3,3.1-0.4
		c4.5-0.2-0.8,0.2,1.9,0.1c5.8-0.8,16-1.2,17.2-1.7c2.1,0.1-5.5,0.6,0.7,0.3c1.7-0.6,7.1-0.5,12.4-1.1c-1.6-0.1-6.6,0.4-1.4-0.2
		c3.2,0.2,10.3-0.8,14.8-1c0.2,0.3,9.7-0.5,17.2-0.8c-0.5-0.1,14.1-0.9,21.1-1.3l-0.2,0c1.4,0.3,8.6-0.1,13.8-0.1
		c-0.2-0.2-1.2-0.3-4-0.2l4.9-0.2c1.2,0.1,2.7,0.1,5.9,0l-1.2-0.2c6.6-0.1,13.2,0,21.7-0.2c0.3,0.2-2.9,0.4-2.2,0.6
		c1.5,0,3.1,0,4.6,0c-0.2-0.1-0.6-0.2-1.9-0.2c0.8,0,2.7,0.1,4.3,0.1l-3.6-0.2c3.8-0.1,2,0.2,5.1,0.2c-0.1-0.2,2.3-0.1,1.8-0.3
		c-0.8,0-2.7,0.1-3.9,0c3.5,0,7.7-0.1,9.1-0.2c-0.3,0.1,0,0.2,2.5,0.3c6.6,0.1,2.3-0.2,6.1-0.2c1.6,0.2,5.8,0.2,5.9,0.5
		c1.9,0.1,2.3,0,3-0.1l8.7,0.6c3.1,0.2,5.2,0.4,3.3,0.4l-0.9,0l0.6,0c11.1,1,23.1,1.9,33.9,4.3v-0.1c3.2,0.7,6.8,1.6,10.1,2.7
		c3.3,1.1,6.3,2.3,8.3,3.4c1.8,0.8,4.1,2.1,3.5,1.6c2.1,1.4,3.2,2.4,4.4,3.6c0.6,0.6,1.2,1.3,1.9,2.3c0.7,1,1.4,2.2,1.9,4.1
		c-0.3-1.3-0.5-1.8-0.6-2c-0.1-0.2,0,0,0.1,0.1c0,0.1,0.1,0.1-0.1-0.3c-0.1-0.2-0.3-0.6-0.7-1.2c1.3,2.1,1.7,3.9,1.8,5.6
		c0.1,1.1,0,2.2-0.2,3.4c-0.2,1.2-0.4,2.6-0.7,4.4c0.3-1.2,0.2,0.1-0.1,2c-0.3,1.9-0.7,4.5-1.1,6c0.2-1.5,0.5-3,0.7-4.6
		c-0.6,3.5-1.2,6.5-1.8,9.5l0.7-1.6c-2.5,13.2-6.4,23.4-8.5,33.3c-1.2,3.4,1.9-7,0.7-4.1c-1.6,5.9-3,12.2-3.6,14.1
		c-2.3,8.1-2.7,7.4-5.2,15.9c0.2-1.1,0.3-2.2-1.8,4.1c-1.8,5.9-1.8,7.4-0.6,3.7c0.5-1.4,0.6-2.1,0.6-2.1c0.6-1.9,1.5-4.4,0.8-2
		l-0.3,0.7c-0.8,3-3.4,11-2.6,9.2c-1.3,3.8-0.9,2.4-0.2-0.1c-2,6.8-3.5,10.9-5.7,18.3c0.3-1.3,0.6-2.4,0.2-1.2
		c-3.5,11.4-1.8,4.9-4.3,12.6c-1.2,4.4,0.9-1.4-1.7,6.3c-1.4,4.8,0,1.1,0.6-0.8c-2.4,7-4.1,13.3-5.3,17.3l1.3-3.7
		c-0.7,2.2-1.3,4-1.9,5.9l0.5-2.2c-0.6,2.2-1.2,4.1-1.1,4c-0.8,2.2,0.2-1.8-1.4,2.6c-0.8,3-2.8,8.9-2.9,10c2.4-8.3,0.4-0.7,1.8-4.9
		c-0.3,1.1-0.7,2.3-1.1,3.7c-0.1,0.3,0.2-0.3,0.3-0.9c-2.4,8.9-1.5,4-4.2,13.1c0.5-1.1-0.3,2.2-0.8,3.7c1.1-3.7,0.2-1.8-0.8,1.5
		c-1.5,5.9-1.9,6.4-2.7,9.5l0.9-3.5c-0.5,1.2-1.3,4.1-2.4,8.2c0,0.4,1.1-3.7,0.7-2.2c-1.5,4.5-2.4,10.4-4,16.8c-0.5,3,0.2,0.4-0.3,3
		c-0.9,3.6-1.2,5.6-1.5,7.6l-1.2,7.9c0-1.1,0.1-1.8,0-1.5c-0.1,0.3-0.3,1.5-0.7,4.2c0.4-4.2,1.2-8.4,2-12.6c-0.6,2.7-1.2,5.3-1.6,8
		c0.5-3.8,1.4-8,1.8-10.3c-0.9,3.8-0.8,3.4-0.6,1.6c-0.6,5.2-2,10.3-2.2,16.4l0.6-0.2c-0.1,2.3-0.1,4.4,0.1,6.5
		c0.2,2.1,0.5,4.1,1.3,5.9c0.9,1.9,2.1,3.8,3.8,5.5c1.6,1.7,3.7,3.3,6.4,4.3c-1.1-0.4-2.2-1-3.3-1.6c0.6,0.5,2.1,1.5,4.1,2.1
		c1.9,0.7,4.3,1.1,6.1,1.2c-0.3-0.2,2-0.1,3.6-0.4c-0.1,0.1,2,0,4.3-0.4c2.3-0.4,4.6-1,5.2-1c1.7-0.6,3.3-1.2,4.9-1.9
		c2.9-1.2,5-2.2,6.8-3l0.7-0.3l0.8-0.4c0.6-0.3,1.2-0.6,1.7-0.9c1.1-0.6,2.2-1.3,3.3-1.9c0.3-0.1-0.2,0.8-0.4,1.3l-0.8,1.9
		c-0.3,0.7-0.6,1.4-1,2.1l-1,2c0.7-1.2,0.6-0.8,0.7-0.9c0,0,0.1,0,0.1-0.1c0.1-0.1,0.1-0.2,0.3-0.6c0.4-0.7,1.1-2,1.9-4
		c-0.4,1-0.9,2-1.3,3l-0.7,1.4l-0.4,0.8c-0.5,1-0.9,1.6-0.9,1.6c-0.4,0.8-1.5,2.7-2.8,4.6c-1.3,1.9-2.7,3.8-3.5,5
		c-0.9,1-1.2,1.2-3.5,3.9c-0.1,0.2-0.1,0.2,0,0.1c-0.2,0.2-1,1-1.6,1.6c-0.7,0.7-1.2,1.1-0.2-0.1c-3.1,3.7-8.3,8.1-14.2,11
		c-2.9,1.5-6,2.5-8.9,3.2c-2.9,0.7-5.5,1.1-7.6,1.3c-3.4,0.2-7.2-0.1-10.8-0.8c-3.6-0.7-7.1-1.7-10-2.7c0.3,0.1,0.1,0.1,0.7,0.3
		c-3.7-1.2-4.8-1.9-6-2.5c-1.3-0.7-2.7-1.4-6.9-3.8c-2.2-1.2-1.1-0.4,0.2,0.3c1.3,0.8,2.8,1.6,1.5,0.9c-0.7-0.1-3.3-1.5-6.2-3.6
		c-2.9-2.1-6.1-4.9-8.5-7.1l1.1,1.1c-3.8-3.3-8.3-9.1-12.3-16.2c0,0,0.1,0.4-0.1,0.1c-0.8-1.7-1.9-3.9-3-6.5c-0.3-0.6-0.5-1.3-0.8-2
		l-0.4-1l-0.3-0.8c-0.3-1-0.7-2.1-1-3.3l-0.2-0.8c0-0.3-0.1,0-0.1,0.1l-0.1,0.4l-0.3,1.5c-0.2,1-0.3,2-0.5,3l0.4-1.7
		c0.1-0.2,0.1-0.1,0.1,0.6c-0.2,1-0.2,0.8-0.3,0.9c0,0-0.1,0.1-0.1,0.2c0,0,0,0.1-0.1,0.2l-0.1,0.4c-0.1,0.6-0.3,1.6-0.4,3.3
		c-0.1,2.3-0.2,7.3,0,7.9c0.1-2.2,0.2-4.3,0.4-6.5c0,3.3-0.5,8.4-0.3,11.9l0.1-0.4c0.1,2.5,0.2,4.4,0.3,5.9c0.1,1.6,0.2,2.8,0.4,4.1
		c0.2,1.3,0.5,2.6,1,4.2c0.5,1.6,1.2,3.5,2.5,5.8l-0.6-0.9c1.2,2.7,1.9,3.7,2.6,4.7c0.7,1,1.4,2,3.1,4.4l1.4,1.2
		c0.6,0.8,1.5,2,2.6,3.3l0.9,1l0.6,0.6l0.6,0.7c0.9,0.9,1.9,1.9,2.9,2.8c0.2,0.3-0.7,0.1-1.2,0.1l-1.7-0.2c-0.6-0.1-1.1-0.1-1.7-0.2
		l-1.6-0.3c-1.8-0.3-3.5-0.7-5.1-1.1c1.2,0.4,2.8,0.8,4.7,1.1l0.7,0.1l0.9,0.2c0.6,0.1,1.3,0.2,2,0.3c0.7,0.1,1.3,0.1,2,0.2l1,0.1
		l0.3,0c0.1,0,0.2,0,0.2,0c0,0,0.1-0.1,0.1-0.1c-1.3-1.2-2.6-2.4-3.7-3.6l-0.8-0.8l-0.5-0.6l-0.9-1.1l0.9,1l1.2,1.3
		c0.6,0.6,1.2,1.3,1.9,1.9l2.3,2.1c-0.1,0.2-1,0-1.6,0l-1.9-0.1c-0.6-0.1-1.3-0.1-1.9-0.2l-0.9-0.1l-0.8-0.1
		c-1.5-0.3-2.8-0.5-3.3-0.7c0.8,0.2,1.6,0.4,2.5,0.5l0.7,0.1l0.8,0.1c0.6,0.1,1.2,0.2,1.7,0.2l-1.3-0.2l-1.2-0.2l-2-0.4
		c-1.3-0.3-2.8-0.6-4.3-1c-3-0.8-6.4-1.8-10-3c0.5,0.5-4.3-1-9.6-3.5c-2.7-1.2-5.5-2.7-7.9-4.1c-2.4-1.4-4.5-2.6-5.7-3.3
		c-2.8-2-5.5-4-8.2-6.3c-2.6-2.3-5-4.9-7.1-7.9c-2-3-3.7-6.3-4.7-10c-1.1-3.7-1.5-7.6-1.4-11.7c0.2,2.9,0.2,1.7,0.3-0.1
		c0.1-1.8,0.4-4.1,0.6-3.6c0.3-1.9,0.5-3.1,0.7-4l0.2-0.9c0-0.2,0-0.2,0.1-0.3l-0.1,0.6l0.1-0.6h0c0.2-1.1,0.5-2.1,0.7-2.8
		c0.1-0.5,0.3-0.8,0.4-1.2l0.1-0.1l0-0.1c0,0,0,0.1-0.1,0.1l-0.3,0.4l-0.6,0.8c-0.5,0.8-0.3,0.6-0.1,0.4c0.1-0.1,0.2-0.2,0.3-0.3
		l-0.3,0.6l0.1-0.2l-0.1,0.2l-0.2,0.3c-0.1,0.2-0.3,0.3-0.3,0.5c-0.2,0.3-0.3,0.4-0.3,0.6c-0.1,0.3-0.3,0.6-0.4,0.9
		c0-0.2,0-0.3-0.2,0c-0.8,1.1-2,2.9-3.1,4.8c0.5-0.9,1-1.9,1.5-2.8l0.8-1.4l0.4-0.7l0.1-0.2l0-0.1l0.1-0.1l-0.1,0.1l-0.2,0.3
		l-0.5,0.8c-0.3,0.5-0.7,1-0.9,1.4c-0.6,0.9-1,1.7-1.4,2.4c-0.8,1.4-1.2,2.5-1.7,3.6c-0.4,1.1-0.8,2.2-1.2,3.7
		c-0.4,1.5-0.8,3.3-0.9,6.1c0.1-1.1,0.2-2.3,0.4-3.4c-0.2,1.3-0.4,3.4-0.3,5.6c0.1,2.3,0.5,4.9,1,7.5c1.1,5.1,3.1,10.1,4,12.7
		c0.5,0.9,1.2,2.1,0.2-0.3c0.7,1.5,1.5,3.1,2.3,4.7l0.7,1.2c0.3,0.6,0.8,1.3,1.2,2c0.8,1.4,1.9,2.9,2.8,4.3c-0.2-0.1-0.3,0-0.6-0.1
		l-0.8-0.3l-1.6-0.5c-1.1-0.3-2.2-0.7-3.3-1.2c-1.3-0.5-1.7-0.7-2.4-1c-0.7-0.3-1.3-0.6-1.9-0.9c-2.6-1.2-5.1-2.5-7.4-3.9
		c-4.7-2.8-8.7-5.9-11.8-8.7l0.7,0.8c-1.9-1.9-3.1-3.4-5.3-6c0.1,0.2,0.5,0.9-0.2,0c-0.4-0.6-1.4-2.1-2.4-3.9
		c-1-1.8-1.9-3.9-2.6-5.5c0.3,0.9,0.7,1.9,1.1,2.8c-1.5-3.1-2.6-6-3.5-8.6c-0.9-2.7-1.5-5.1-2.1-7.6c-1.2-4.9-2-9.5-3-15.1
		c-0.2,0.1-0.8-2.5-1.4-5.8c-0.3-1.6-0.6-3.5-0.8-5.2l-0.2-1.2l-0.1-0.3l-0.1-0.4l0,0l0,0.1l0,0c-0.2,0.2-3.1,3.9-4.6,6.2
		c-1.9,2.8-3.6,5.7-4.9,8.6c-1.3,2.9-2.3,5.9-2.5,9.1c-0.1,0.8-0.1,1.6,0,2.4l0.1,2.6l0.3,5.3c0.3,2.4,0.7,5.8,1,9.7l1.5,15.3
		c-1.3-0.9-2.7-1.8-4-2.8l-2.8-2c-1.6-1.2-3.2-2.4-4.7-3.6c-3.1-2.4-6-4.9-8.6-7.1c1.7,1.4-0.1-0.5-2-2.3c-1.3-1.1-3-2.9-4.3-4.2
		c-1.3-1.4-2.2-2.4-2.2-2.1l0.9,0.9c-2.1-1.6-6.9-7-9.7-12l0-1.1c-0.8-1.3-1.4-2.7-2.2-4.1c-0.8-1.4-1.6-2.9-2.6-4.4
		c-1.8-3-3.9-6-6-8.9c-2.1-2.9-4.4-5.7-6.5-8.2c-1.1-1.3-2.1-2.4-3.1-3.6l-1.5-1.6l-0.4-0.4l-0.3-0.3c-0.1,0.2-0.3,0.4-0.4,0.5
		l-0.7,1.1c-0.5,0.8-0.9,1.5-1.2,2.1c-2,2.8-4.2,6.5-5.8,9.5l0.3,0c-1,2.1-1.9,4-2.5,5.9c-0.6,1.8-1.1,3.6-1.3,5.4
		c-0.1,0.9-0.2,1.8-0.1,2.8c0.1,0.9,0.2,1.9,0.5,2.9c0.6,2.1,1.6,4.3,3.1,6.7c-0.4-0.7-0.7-1.4-1-2.1c1.6,2.8,2.7,4.6,3.8,6.3
		c1.1,1.7,2.2,3.3,4.4,5.6l1.6,1l0.7,0.6l1,0.9c0.8,0.7,1.6,1.4,2.4,2.1c-0.1,0.1-0.4,0.2-0.6,0.3l-0.7,0.3
		c-0.5,0.2-0.9,0.4-1.4,0.5c-0.5,0.2-1,0.3-1.5,0.5l-1,0.3c-1.3,0.4-2.6,0.7-3.9,0.9c-2.6,0.5-5.3,0.8-8,0.8
		c-5.4,0.1-10.8-0.8-15.7-2.9c0.2,0.1,0.4,0.4,2.3,1c-1.4-0.4-3.3-1.1-5.4-2.1c-2.1-1-4.2-2.3-6.1-3.6c-3.4-2.5-5.6-5-5.2-4.9
		c-0.6-0.4-2.5-2.4-4.5-5.2c-2.4-3.1-4.8-7-6.2-9.9l0.3,1c-1.2-2.4-1.7-3.7-2.3-5.3c-0.6-1.5-1.4-3.3-2.6-6.9
		c-0.6-1.7-0.7-1.4,0.1,0.8c-1.1-2.8-1.3-3.9-1.6-5.2c-0.3-1.3-0.7-2.7-1.4-6.2c0.1,0.9,0.2,1.8,0.4,2.7c-0.7-3-0.9-4.4-1-5.5
		c-0.1-1.1-0.2-1.8-0.2-3.5c-0.2-1.9-0.4-4.8-0.5-7.3c-0.1-2.5,0-4.7-0.1-5.2c0.1-0.3,0.2-0.8,0.3-1.6l0.1-0.6l0.1-0.4l0.2-1
		c0,0,0-0.1,0-0.1l-0.1,0l-0.3,0.1c-0.2,0-0.4,0.1-0.5,0.1c-0.2,0.1-0.4,0.1-0.6,0.2l-0.8,0.3c-0.4,0.3,0.9-0.2,1.1-0.2l-0.6,0.2
		l-0.8,0.3c-0.5,0.2-1.1,0.4-1.6,0.7c-1,0.5-1.9,0.9-2.7,1.4c-1.7,1-3.1,2.1-4.3,3.2c-2.4,2.2-4.2,4.6-5.5,7.8
		c0,0.2-0.1,0.6-0.3,1.1c1.4-3.7,3.6-6.5,5.4-8.3c1.4-1.5,2.5-2.2,2.7-2.4c0,0.1-1.1,1.1-1.8,1.8c-0.3,0.4-0.5,0.6-0.4,0.6
		c0.1,0,0.5-0.4,1.5-1.1c-2,1.5-4.4,3.9-6.1,7c-1.8,3.1-2.7,6.7-3.2,9.8c0,0.3-0.1,0.6-0.1,0.8l0.1-0.6l-0.6,3.9
		c-0.2,2-0.2,3.3-0.3,5.2c0.1,0.4,0,2.2,0,4.4c0,2.2-0.1,4.6,0,6.3c-0.3-0.3-0.1,3.9-0.4,0.1c0,0.1,0-1,0-2.9c0-0.5,0-1.1,0-1.4
		l0,0.2c0-2.1,0.1-4.9,0.3-8c-0.3,2.5-0.5,5.2-0.4,8.8c-0.2,1.7-0.3,3.5-0.4,4.5l0.8,8.2l0.3,2.7c0.1,1,0.2,1.9,0.3,2.8
		c0.2,1.8,0.4,3.3,0.6,4.1l0,0c-0.1-0.1-0.1-0.1-0.2-0.2l-0.2-0.3l-0.5-0.6l-0.9-1.2c-0.6-0.8-1.2-1.6-1.9-2.5l-1-1.3l-0.9-1.3
		l-1.2-1.7c-1.6-2.3-3.1-4.6-4.5-6.9c-2.9-4.6-5.2-8.9-6.5-11.8c-1.3-2.5-1.7-2.8-2.2-3.7c0.7,1.5,1.7,3.2,2,4
		c-1.3-2.5-3.3-6.2-4.8-9.5c-1.6-3.3-2.8-6.2-2.9-6.9c-2.9-6.5,1.2,3.8-2.5-5.2l0.4,1.3c-3.9-8.8-6-16.5-7.5-24.4
		c-0.7-4-1.3-8.1-1.7-12.5C177.3,401.8,177.1,397.6,177.1,392.9z M309.5,225.7c-0.3,0-0.5,0.1-0.6,0.1c0.9-0.1,1.8-0.2,2.7-0.3
		C310.9,225.6,310.3,225.7,309.5,225.7z M213.4,465.3l0,0.3c0.1-0.2,0.1-0.4,0.1-0.8c0.1-2.1,0.1-2.9,0-3.2
		C213.5,462.6,213.4,463.8,213.4,465.3z"/>
	<path fill="#E6685D" d="M315.7,409.8c0,0-109-103.6-141.8-158.1c-32.8-54.5-62.9-133-62.9-133L84.6,131c0,0,33.7,84.6,66.3,138.3
		c31.8,52.5,139.3,172.2,139.3,172.2L315.7,409.8z"/>
	<path fill="#FF9F9F" d="M111,118.7c-1.5-8.8,8.4-20.6,10.5-35.7c2.1-15,0.4-29.9-6.6-33.9c-7-4-15.2-1.8-15.2-1.8
		s-0.6-17.1-11.4-17c-10,0.1-10.6,12.1-10.6,12.1s-5.2-12.6-14.9-9c-8.8,3.3-5.6,14.6-5.6,14.6s-8.1-8.4-14.8,0.3
		c-5.6,7.2,4.7,20,4.7,20s-7.4-5.5-11.4,2.2c-4,7.7,6,24.1,19.2,34.3c13.2,10.2,26.4,17.9,29.7,26c0,0,18.7,46.8,41.6,92.9l24.9-14
		C128.4,164.2,111,118.7,111,118.7z"/>
	<g>
		<g>
			<path fill="#FFFFFF" d="M265.2,359.6c-0.2-0.2-0.7-0.7-0.9-1c-1.1,0.4-3.6,1.2-4.6,1.7c-3.3,1.6-5.7,3.5-5.7,3.5
				c-3.1,2.3-5.5,4.9-7.5,7.6c-2,2.7-3.6,5.4-4.9,8.1c-0.6,1.3-1.2,3-1.7,4.3c0.4,0.5,0.9,1.1,1.3,1.6c0.5-1.3,0.9-3.1,1.4-4.2
				c1.2-2.6,2.5-4.8,4-6.9c4-6.2,8.5-10,12.3-12.2C260.7,361,263.8,360.2,265.2,359.6z"/>
			<path fill="#FFFFFF" d="M170.3,275.5c2.4-2.1-2,2,1.6-1.1c0.2,0-1.7,1.5-0.6,0.8c3.6-3,6.1-4.7,10.5-8.5l0.3,0
				c0.3-0.3,0.6-0.9,1-1.1c-0.3-0.5-0.7-1-1.1-1.5c-2.5,2.1-5.1,4.5-7.8,6.8c-3.4,2.7-7.7,6.2-12.3,10l-2.3,1.9c0.3,0.5,0.7,1,1,1.5
				C163.7,281.2,166.8,278.2,170.3,275.5z"/>
			<path fill="#FFFFFF" d="M179.6,297.5c5.3-4.7,10.6-9.4,15.7-13.8l1-0.8c-0.5-0.6-1-1.2-1.5-1.8c-5.8,5.1-12.1,11.1-19.8,17.6
				c-0.6,0.6-1.5,1.4-2.4,2.3c0.4,0.5,0.8,1.1,1.2,1.6L179.6,297.5z"/>
			<path fill="#FFFFFF" d="M160.7,228.4c-0.3-0.6-0.6-1.1-0.9-1.7l-7.4,4.7l-10.5,6.7l-6.3,4c0.3,0.6,0.6,1.1,0.9,1.7
				c7.4-4.6,12.7-8,18.3-11.9C155.6,231.7,158.2,230,160.7,228.4z"/>
			<path fill="#FFFFFF" d="M160.5,254.4l10.1-8.2c-0.4-0.6-0.7-1.3-1.1-1.9c-7.8,6.5-16.2,13.5-20.5,17.4l0.4-0.4
				c-0.8,0.7-1.5,1.3-2.1,1.9c0.3,0.5,0.6,1,0.8,1.4C152.1,261.2,156.3,257.8,160.5,254.4z"/>
			<path fill="#FFFFFF" d="M218.1,348.1l-0.8,0.8c6.1-6.4,7.8-8.2,12.4-12.9c2-2.2,3.3-3.7,6.5-7c-0.4-0.5-1.1-1.2-1.5-1.7
				c-3.9,4.2-10.8,11.3-14.8,15.7l-1.9,1.8c-1.5,1.7-3.4,3.6-5,5.2l0.1-0.1c-0.3,0.4-0.7,0.4-1,0.7c0.4,0.5,1.1,1.4,1.6,1.9
				C216.1,350.2,216.6,349.6,218.1,348.1z"/>
			<path fill="#FFFFFF" d="M202.6,303.3l0.3-0.1c4.1-4.3,4-3.8,5.6-5.3c-0.5-0.6-1-1.1-1.4-1.7c-0.2,0.2-1,1.1-1.3,1.3l0.2,0.1
				c-5.3,5.2-8.6,8.1-13.9,13.1l-7,7c0.4,0.6,0.9,1.1,1.3,1.7c4.1-3.9,9.4-9.1,13.9-13.6C199.8,306.2,201.2,304.7,202.6,303.3z"/>
			<path fill="#FFFFFF" d="M242.1,347c-3,2.9-6,6-9,9.5c-0.4,0.5-0.7,1-1.1,1.6l-0.3,0.4c0.1,0-1.1,1.7-1.8,2.9
				c-0.8,1-0.3-0.3-2.6,3.6c-0.4,0.7-0.9,1.5-1.4,2.4c0.5,0.6,1,1.2,1.5,1.8c0.5-0.8,0.9-1.7,1.4-2.4c2.2-3.8,4.4-6.9,6.9-9.8
				c2.5-2.9,5.2-5.7,8.5-8.7c1.4-1.3,4-3.2,5.6-4.5c-0.5-0.5-1.1-1.1-1.6-1.7c-0.1,0.1-1.3,0.9-1.4,1"/>
			<path fill="#FFFFFF" d="M206,330.5l-0.1,0.1c5.9-6.5,11.3-11.8,16.4-17c-0.5-0.6-0.9-1.1-1.5-1.6c-1.5,1.6-3.8,3.9-4.4,4.6
				c1.3-1.5-2.5,2.3-1.6,1.1c-1.7,1.9-6.8,7.4-9,9.4l0.4-0.4c-2.8,2.8-5.1,5.1-7.4,7.6c0.5,0.6,1,1.2,1.5,1.8
				C202,334.5,203.6,332.8,206,330.5z"/>
		</g>
		<path fill="#FFFFFF" d="M278.9,373.6c-0.3-0.2-0.7-0.6-1.1-0.8c-1.3,0.6-2.3,1.3-3.4,2c-3.7,2.2-6.2,4.5-6.2,4.5
			c-3.3,2.9-5.8,5.9-7.8,8.9c-2,3-3.5,6-4.6,9c-0.5,1.4-0.9,2.3-1.3,3.7c0.6,0.4,1,1.5,1.6,1.8c0.4-1.4,0.8-2.9,1.3-4.1
			c1-2.8,2.2-5.2,3.7-7.6c3.8-6.9,8.6-11.5,12.8-14.4C275.9,375.2,277.3,374.4,278.9,373.6z"/>
		<path fill="#FFFFFF" d="M295.5,390.1c-0.3-0.2-0.5-0.6-0.8-0.8c-1.3,0.6-3,1.3-4.2,2c-3.7,2.2-6.2,4.5-6.2,4.5
			c-3.3,2.9-5.8,5.9-7.8,8.9c-2,3-3.5,6-4.6,9c-0.5,1.4-1,2.7-1.4,4.1c0.6,0.4,1.2,0.8,1.7,1.2c0.4-1.4,0.8-2.7,1.2-3.9
			c1-2.8,2.2-5.2,3.7-7.6c3.8-6.9,8.6-11.5,12.8-14.4C291.8,391.7,293.9,390.9,295.5,390.1z"/>
	</g>
	<path fill="#E6685D" d="M704.5,305.1c0,0-91.8,54.8-173,83.4c-63.1,22.2-148.8,26.1-148.8,26.1c9.3-36.6,17.1-61.7,17.1-61.7
		l-57.7-23.3c0,0-23.3,29.7-45.8,81c-1.2-0.5-2.4-0.9-3.7-1.3c-15-4-30.3,5-34.3,19.9c-3.8,14.4,4.3,29.2,18.4,33.8
		c-2.8,9.1-5.5,18.6-8,28.5c-23.2,94.2-10,224.4-10,224.4h83.6c0,0,2.7-102.7,16.5-189c2.7-16.7,5.8-33.4,9.2-49.5
		c2.6-12.8,12.6-27.1,21.8-29.2c9.3-2.2,69.7-3.6,150.6-29c74-23.3,180.1-88.3,180.1-88.3L704.5,305.1z"/>
	<path fill="#FF9F9F" d="M247.4,151.6c-41.8,95.9,0,169,95.9,210.8c95.9,41.8,177.9,22.6,219.7-73.3c41.8-95.9,0-169-95.9-210.8
		C371.3,36.5,289.2,55.7,247.4,151.6z"/>
	<g>
		<path d="M359.3,118l0.2,0C359.4,118,359.4,117.9,359.3,118z"/>
		<path d="M392.3,130.9C392.4,130.9,392.4,130.9,392.3,130.9C392.4,130.9,392.4,130.9,392.3,130.9z"/>
		<polygon points="366.2,118 366.2,118 366.2,118.1 		"/>
		<path d="M360.1,121.8c0.7-0.6,1.3-0.9,1.9-1.2c0.6-0.3,1.1-0.6,1.8-1.2c0.8-0.4,1.6-1,2.4-1.4c0.3-0.5,1.1-0.4,1.5-0.8l0.2,0.2
			c0.1-0.2,0.3-0.3,0.5-0.2l0,0.1c0.2-0.2,0.5-0.2,0.6-0.3v0.1l0.3-0.1l0,0.1c0.4-0.2,0.9-0.3,1.3-0.2l0-0.3c0.9,0.3,1.2-0.3,2,0.1
			l0,0.1c0.5-0.3,0.9-0.1,1.3,0.1c0.4,0.2,0.8,0.4,1.4,0.2c-0.1,0.1,0,0.1,0,0.2c0.5,0,1,0.2,1.2-0.3c0.4,0.1,0.2,0.2,0.2,0.5
			c0.1-0.2,0.4-0.2,0.7-0.1l-0.2,0c0.3,0.1,0.5,0.1,0.8,0.2l0-0.5c0.4,0.3-0.1,0.5,0.3,0.6l0.1-0.3c0.5,0.3,0.7,1,1.1,1.4
			c1.1,0.6,2.2,1.1,3.3,1.7c1.1,0.6,2.1,1.4,2.6,2.4l-0.1,0.3c-0.3,0.3,0.8,0,0.6,0.4l0.3,0.1c0,0.1,0,0.3-0.1,0.2
			c0.1,0.2,0.2,0.2,0.4,0.2l0,0.3c0.4,0.8,1.2,1.2,1.5,2.2c0,0.6,0.3,1.4,0.6,2.2c0.3,0.8,0.6,1.6,0.8,2.2c0.4,0.9,0.2,1.9-0.1,2.9
			c-0.3,1-0.7,1.9-0.5,2.9c-0.1,0,0,0.2,0.1,0.2c-0.1,0.6-0.3,1.1-0.5,1.7c0,0-0.7,2-0.9,3.3c-0.1,0.7-0.1,1.2,0.4,1.3
			c0.4,0.1,1.3-0.2,2.8-1.5l0.1,0.1c0.6-0.9,0.9-1.6,0.7-2.4c0.5,0,0.3-0.8,0.5-1l0,0c-0.2-0.7,0.6-1.3,0.4-2c0,0,0.2,0.1,0.2,0.2
			c0-0.5,0-1.1,0.3-1.1c0.1-1.1,0.3-2.7-0.2-3.4l0.1,0c-0.3-0.4-0.1-0.5-0.3-1c0,0,0.1-0.1,0.1-0.1c-0.4-0.4-0.2-1.3-0.4-1.6
			l0.2-0.1c-0.1-0.3-0.1-0.6-0.2-0.9l0,0.3c-0.6,0,0.2-0.7-0.3-1.3c-0.1-0.6-1.5-0.8-1.5-1.4c-0.4-0.2,0.5,0.1,0.1-0.3
			c0.3-0.1,0.2,0.1,0.4-0.1c-0.3-0.3,0-0.8-0.5-1.2l0.2-0.1c-0.7-0.4-0.4-1.3-1-1.5c-0.6-0.5,0.3-0.8-0.6-1.1l0-0.4
			c-0.2-0.3-0.4,0.1-0.6-0.3c0.2-0.1-0.2-0.4,0.1-0.4c-0.4-0.8-1.5-0.9-2-2c-0.4,0.1-0.7-0.4-1-0.3c0.1-0.2-0.9-0.7-0.2-0.6
			c0.1,0,0.1,0.1,0.1,0.1l0.2-0.1c-0.3-0.7-1.1-0.5-1.5-0.8c0.1,0.2,0.3,0.3,0.1,0.3l-0.5-0.3l0.2-0.1l-0.7-0.5l0,0.3
			c-0.3-0.3-0.2-0.7-0.8-0.7c-0.3,0.1,0.2,0.5-0.2,0.3c-0.4-0.4-1-1-1.6-1.3c0,0.3-0.2,0.2-0.4,0.2l0.1-0.2c-0.8,0-0.1-0.6-0.8-0.6
			l0.1-0.1l-0.4,0.4c-0.8,0.2-0.2-0.6-1.1-0.2c0.3,0.1,0,0.5-0.3,0.3l0.2-0.2c-0.2,0-0.3,0.1-0.4,0c0.1-0.1,0.2-0.3-0.1-0.3l0.3-0.2
			c-0.2,0.1-0.4,0.1-0.7,0.2c-0.3-0.4-1.1-0.2-1.2-0.6c0,0-0.9-0.3-1.2,0c0.2-0.2-0.3-0.3-0.1-0.6c-0.3,0.2-1,0.3-1.3,0l0.1,0
			c-1.1-0.4-1.9,0.2-2.8,0c0.1,0.3-0.5,0.2-0.3,0.5c-0.9,0.4-1.9-0.5-2.1,0.6c-0.4,0.1-0.6-0.1-0.8-0.1l0.1-0.1
			c-0.8,0.3-1,0.4-1.6,0.5c-0.3,0.2-0.1,0.7-0.7,0.7c0.1-0.2-0.1-0.1-0.3-0.1c0.1-0.1,0.1-0.2-0.2-0.2c0,0.1-0.1,0.1-0.1,0.2
			c0,0,0,0,0,0c-0.3,0.2-0.2,0.2-0.1,0.2c0,0,0,0.1,0.1,0.1c-0.4-0.1-0.9,0.4-1.1,0.1c-0.9,0.5-1.3,1.2-2,1.7
			c-0.2-0.1-0.1-0.3,0.1-0.5l-0.5,0.4c-0.1-0.2,0.2-0.3,0.3-0.4c-0.8,0.1-1,1.1-1.9,1.4l0,0.3l-0.1,0c0.1,0.1,0,0.3-0.1,0.4
			c-0.2-0.1-0.3-0.4-0.6-0.1c-0.4,0.1-0.6,0.7-0.9,1.1c0.2-0.1,0.2,0,0.2,0.1c-0.1,0.1-0.4,0.1-0.4,0.2l-0.2-0.2
			c0.2,0.1-0.2,0.6-0.1,0.7c-0.2-0.1,0.1-0.4,0-0.5c-0.6,0.6-0.3,0.3-0.8,0.9c-0.1,0.5,0.3,0.1,0.3,0.5c-0.2,0.3-0.3,0.7-0.7,0.9
			l0.3,0.1c-0.3,0.7-0.6,1-1.1,1.2c-0.7,2.8,0,3.3,0.5,3.2c0.5,0,1.2-0.7,1.2-0.7C358.6,124.7,358.6,123.5,360.1,121.8z"/>
	</g>
	<g>
		<path d="M431.5,147.2l0.2,0C431.7,147.1,431.6,147.1,431.5,147.2z"/>
		<path d="M464.6,160.1C464.6,160.1,464.6,160.1,464.6,160.1C464.6,160.1,464.6,160.1,464.6,160.1z"/>
		<polygon points="438.4,147.2 438.4,147.2 438.4,147.3 		"/>
		<path d="M432.3,150.9c0.8-0.6,1.3-0.9,1.9-1.2c0.6-0.3,1.1-0.6,1.8-1.2c0.8-0.4,1.6-1,2.4-1.4c0.3-0.5,1.1-0.4,1.5-0.8l0.2,0.2
			c0.1-0.2,0.3-0.3,0.5-0.2l0,0.1c0.2-0.2,0.5-0.2,0.6-0.3v0.1l0.3-0.1l0,0.1c0.4-0.2,0.9-0.3,1.3-0.2l0-0.3c0.9,0.3,1.2-0.3,2,0.1
			l0,0.1c0.5-0.3,0.9-0.1,1.3,0.1c0.4,0.2,0.8,0.4,1.4,0.2c-0.2,0.1,0,0.1,0,0.2c0.5,0,1,0.2,1.2-0.3c0.4,0.1,0.2,0.2,0.2,0.5
			c0.1-0.2,0.4-0.2,0.7-0.1l-0.2,0c0.3,0.1,0.5,0.1,0.8,0.2l0-0.5c0.4,0.3-0.1,0.5,0.3,0.6l0.1-0.3c0.5,0.3,0.7,1,1.1,1.5
			c1.1,0.6,2.2,1.1,3.3,1.7c1.1,0.6,2.1,1.4,2.6,2.4l-0.1,0.3c-0.3,0.3,0.8,0,0.6,0.4l0.3,0.1c0,0.1,0,0.3-0.1,0.2
			c0.1,0.2,0.2,0.2,0.4,0.2l0,0.3c0.4,0.8,1.2,1.2,1.5,2.2c0,0.6,0.3,1.4,0.6,2.2c0.3,0.8,0.6,1.6,0.8,2.2c0.4,0.9,0.2,1.9-0.1,2.9
			c-0.3,1-0.7,1.9-0.5,2.9c-0.1,0,0,0.2,0.1,0.2c-0.1,0.6-0.3,1.1-0.5,1.7c0,0-0.7,2-0.9,3.3c-0.1,0.7-0.1,1.2,0.4,1.3
			c0.4,0.1,1.3-0.2,2.8-1.5l0.1,0.1c0.6-0.9,0.9-1.6,0.7-2.4c0.5,0,0.3-0.8,0.5-1l0,0c-0.2-0.7,0.6-1.3,0.4-2c0,0,0.2,0.1,0.2,0.2
			c0-0.5,0-1.1,0.3-1.1c0.1-1.1,0.3-2.7-0.2-3.4l0.1,0c-0.3-0.4-0.1-0.5-0.3-1c0,0,0.1-0.1,0.1-0.1c-0.4-0.4-0.2-1.3-0.4-1.6
			l0.2-0.1c-0.1-0.3-0.1-0.6-0.2-0.9l0,0.3c-0.6,0,0.2-0.7-0.3-1.3c-0.1-0.6-1.5-0.8-1.5-1.4c-0.4-0.2,0.5,0.1,0.1-0.3
			c0.3-0.1,0.3,0.1,0.4-0.1c-0.3-0.3,0-0.8-0.5-1.2l0.2-0.1c-0.7-0.4-0.4-1.3-1-1.5c-0.6-0.5,0.3-0.8-0.6-1.1l0-0.4
			c-0.2-0.3-0.4,0.1-0.6-0.3c0.2-0.1-0.2-0.4,0.1-0.4c-0.4-0.8-1.5-0.9-2-2c-0.4,0.1-0.7-0.4-1-0.3c0.1-0.2-0.9-0.7-0.2-0.6
			c0.1,0,0.1,0.1,0.1,0.1l0.2-0.1c-0.3-0.7-1.1-0.5-1.5-0.8c0.1,0.2,0.3,0.3,0.1,0.3l-0.5-0.3l0.2-0.1l-0.7-0.5l0,0.3
			c-0.3-0.3-0.2-0.7-0.8-0.7c-0.3,0.1,0.2,0.5-0.2,0.3c-0.4-0.4-1-1-1.6-1.3c-0.1,0.3-0.2,0.2-0.4,0.2l0.1-0.2c-0.8,0,0-0.6-0.8-0.6
			l0.1-0.1l-0.4,0.4c-0.8,0.2-0.2-0.6-1.1-0.2c0.3,0.1,0,0.5-0.3,0.3l0.2-0.2c-0.2,0-0.3,0.1-0.4,0c0.1-0.1,0.2-0.3-0.1-0.3l0.3-0.2
			c-0.2,0.1-0.4,0.1-0.7,0.2c-0.3-0.4-1.1-0.2-1.2-0.6c0,0-0.9-0.3-1.2,0c0.2-0.2-0.3-0.3-0.1-0.6c-0.3,0.2-1,0.3-1.3,0l0.1,0
			c-1.1-0.4-1.9,0.2-2.8,0c0.1,0.3-0.5,0.2-0.3,0.5c-0.9,0.4-1.9-0.5-2.1,0.6c-0.4,0.1-0.6-0.1-0.8-0.1l0.1-0.1
			c-0.8,0.3-1,0.4-1.6,0.5c-0.3,0.2-0.1,0.7-0.7,0.7c0.1-0.2-0.1-0.1-0.3-0.1c0.1-0.1,0.1-0.2-0.2-0.2c0,0.1-0.1,0.1-0.1,0.2
			c0,0,0,0,0,0c-0.3,0.2-0.2,0.2-0.1,0.2c0,0,0,0.1,0.1,0.1c-0.4-0.1-0.9,0.4-1.1,0.1c-0.9,0.5-1.3,1.2-2,1.8
			c-0.2-0.1-0.1-0.3,0.1-0.5l-0.5,0.4c-0.1-0.2,0.2-0.3,0.3-0.4c-0.8,0.1-1,1.1-1.9,1.4l0,0.3l-0.1,0c0.1,0.1,0,0.3-0.1,0.4
			c-0.2-0.1-0.3-0.4-0.6-0.1c-0.4,0.1-0.6,0.7-0.9,1.1c0.2-0.1,0.2,0,0.2,0.1c-0.1,0.1-0.4,0.1-0.4,0.2l-0.2-0.2
			c0.2,0.1-0.2,0.6-0.1,0.7c-0.2-0.1,0.1-0.4,0-0.5c-0.6,0.6-0.3,0.3-0.8,0.9c-0.1,0.5,0.3,0.1,0.3,0.5c-0.2,0.3-0.3,0.7-0.7,0.9
			l0.3,0.1c-0.3,0.7-0.6,1-1.1,1.2c-0.7,2.8,0,3.3,0.5,3.2c0.5,0,1.2-0.7,1.2-0.7C430.8,153.9,430.8,152.7,432.3,150.9z"/>
	</g>
	<path d="M306.5,138L481,216.3c0,0-54.4,61.7-127.4,23.6C286.1,204.7,306.5,138,306.5,138z"/>
	<path fill="#AD272D" d="M481,216.3l-55.1-24.7c-8.7,1-18.1,2.7-28.1,5.5c-27.8,7.6-46.2,22.9-57.1,35.1c3.9,2.7,8.2,5.4,12.9,7.8
		C426.6,278,481,216.3,481,216.3z"/>
	<path fill="#FFFFFF" d="M370.9,203.8c35.3,16.2,68.7,8,85.9,1.5L324.3,146C326.7,159.3,336.1,187.9,370.9,203.8z"/>
	<path fill="#FFFFFF" d="M325.4,218.8c7,7.7,16.2,14.9,28.2,21.2c25.8,13.4,49.2,14.4,68.7,10.1c-7.4-10-20.7-22-44.3-29
		C353.1,213.6,335.5,215.8,325.4,218.8z"/>
	<g>
		<path fill="#AD272D" d="M85.2,54.6l-0.3,0C85,54.7,85,54.7,85.2,54.6z"/>
		<polygon fill="#AD272D" points="74.3,56.1 74.3,56.1 74.3,56 		"/>
		<path fill="#AD272D" d="M100.1,65c-0.4-0.8-1.4-1.2-2.2-0.8l0,0l-0.4,0.2l-0.1,0l-0.2-0.3c-0.1,0.1-0.3,0.2-0.4,0.3l0,0
			c-0.1-0.1-0.3,0.1-0.4,0.4c-0.5,0.4-1.1,0.8-1.9,0.9c-0.1,0.5-1,0.7-1.1,1c-0.1-0.1-1.5,0.7-0.8,0c0.1-0.1,0.2-0.1,0.2-0.1v-0.2
			c-1,0-1.4,0.9-2.3,1.2c0.3,0,0.6-0.2,0.4,0l-0.8,0.3l0.1-0.2c-0.4,0.1-0.8,0.2-1.2,0.3l0.2,0.2c-0.6,0.1-0.9-0.2-1.5,0.3
			c-0.2,0.3,0.6,0.1,0.1,0.4l-3,0.3c0.1,0.2-0.1,0.3-0.4,0.4l-0.1-0.2c-1,0.5-0.5-0.4-1.4-0.1l0.1-0.2L83,69.6
			c-0.9,0.5-0.5-0.4-1.5,0.2c0.4,0,0.2,0.5-0.3,0.4l0.1-0.2c-0.3,0-0.4,0.1-0.5,0.1c0.2-0.1,0.1-0.3-0.3-0.3l0.3-0.2
			c-0.2,0.1-0.5,0.2-0.7,0.3c-0.4-0.3-1.4-0.3-1.5-0.7c0,0-1-0.6-1.4-0.4c0.3-0.1-0.2-0.5,0.1-0.6c-0.4,0.1-1.2-0.3-1.3-0.7l0.1,0
			c-0.4-0.5-0.7-0.8-1.1-1.2c-0.3-0.3-0.6-0.8-0.6-1.3c-0.3,0.1-0.2-0.4-0.5-0.2c-0.3-0.5-0.1-1.1,0-1.4c0.1-0.4,0.2-0.7-0.2-1
			c0.1-0.5,0.5-0.5,0.6-0.7l0,0.1c0.4-0.8,0.6-1.1,1.2-1.6c0.2-0.3,0-0.8,0.7-1.2c-0.1,0.3,0.1,0.1,0.4-0.1
			c-0.1,0.1-0.1,0.2,0.2,0.1c0-0.1,0.1-0.2,0.1-0.2c0,0,0,0,0,0c0.4-0.3,0.3-0.3,0.1-0.2c0,0,0-0.1-0.1-0.1c0.6-0.1,1.2-0.8,1.4-0.5
			c1.3-0.8,2.1-1.6,3.3-2.2c0.2,0.1,0,0.4-0.3,0.6l0.8-0.4c0.1,0.2-0.4,0.3-0.7,0.5c1.1-0.1,1.9-1.3,3.2-1.4l0.2-0.3l0.1,0
			c0-0.1,0.2-0.3,0.3-0.4c0.2,0.1,0.2,0.5,0.8,0.2c0.5,0,1.3-0.6,1.9-0.9c-0.3,0.1-0.3-0.1-0.2-0.2c0.3-0.1,0.5,0,0.8-0.1l0.1,0.3
			c-0.2-0.2,0.7-0.5,0.8-0.7c0.2,0.1-0.4,0.3-0.4,0.5l1.8-0.6c0.6-0.4-0.2-0.2,0-0.6c0.6-0.2,1.1-0.6,1.8-0.6l-0.3-0.2
			c1-0.5,1.7-0.7,2.5-0.6c3.9-2.1,4.2-2.8,3.5-3.1c-0.7-0.3-2.4-0.1-2.4-0.1c-3.5,0.3-5,1.5-8.8,2.9c-1.7,0.5-2.9,0.7-4,1.1
			c-1.1,0.3-2.3,0.7-4,1.6c-1.7,0.7-3.4,1.8-4.9,3c-0.3,0.4-0.8,0.8-1.3,1.3c-0.5,0.5-1,1-1.3,1.6c-0.2,0.1-0.3,0.2-0.5,0.3
			c-0.1,0.4-0.3,0.9-0.6,1.3l0-0.1c-0.1,0.7-0.4,1.3-0.4,1.7l-0.1,0c0,0.3-0.1,0.5-0.1,0.8l-0.1-0.1c0,1.2,0.2,2.3,0.4,3.3l0.2-0.2
			c0.2,1.1,0.6,1.7,1,2.2c0.4,0.5,0.8,1,1.4,1.8L73,70c1.1,0.6,1.7,1.1,2.4,1.7c0.7,0.5,1.5,1,2.7,1.1c-0.3,0,0.1,0.2,0,0.2
			c0.5,0.1,1,0.2,1.5,0.2c0.4,0,0.7-0.1,0.8-0.4c0.7,0.1,0.6,0.2,0.7,0.4c0-0.2,0.7-0.3,1.2-0.3L82,73.1c0.5,0,1.1-0.1,1.6-0.2
			l-0.3-0.4c0.8,0,0.3,0.5,1,0.3l-0.1-0.4c1.1-0.1,1.9,0.3,3,0.3c0.7-0.2,1.4-0.4,2.1-0.6c-0.4,0.6-0.8,1.3-1.2,2
			c-0.8,1.5-1.2,3.2-1.5,4.5c-0.2,1.8-0.9,3.5-1.2,5.5C85,86,84.9,88,85.5,89.7c0,0.1,0.1,0.4,0.2,0.4c0.2,1.1,0.4,2.1,0.6,3.2
			c0,0,0.2,1,0.7,2.2c0.4,1.2,1.1,2.7,1.7,3.7c0.7,1,1.3,1.7,1.6,1.3c0.3-0.4,0.2-1.7,0-4.6l0.1,0c-0.4-1.6-0.6-2.6-1.3-3.6
			c0.5-0.3-0.3-1.3-0.2-1.7l0,0c-0.6-0.9,0-2-0.5-2.9c0,0,0.2,0,0.2,0.3c-0.1-0.7-0.3-1.6,0-1.7c-0.2-1.6,0.2-3.8,0-4.9l0.1,0.1
			c-0.2-0.6,0.1-0.8,0.1-1.4c0,0,0.1-0.1,0.1-0.1c-0.1-0.7,0.5-1.8,0.6-2.3l0.2,0c0.1-0.4,0.3-0.8,0.5-1.2L90.2,77
			c-0.4-0.4,0.7-0.7,0.9-1.7c0.5-0.7,0-2.2,0.8-2.8c0.1-0.5,0.1,0.6,0.3-0.1c0.2,0.2,0,0.4,0.3,0.4c0.3-0.6,0.9-0.7,1.3-1.4l0.2,0.1
			c0.4-1.1,1.5-1.2,1.8-2c0.7-0.9,1,0,1.5-1l0.5,0c0.4-0.2,0-0.5,0.5-0.7c0.1,0.2,0.6-0.2,0.5,0.1c0.2-0.1,0.5-0.2,0.6-0.3l-0.2-0.3
			c0,0,0,0,0.1,0C100.1,66.8,100.5,65.9,100.1,65z"/>
		<path fill="#AD272D" d="M56.3,96.3l0.1,0.1C56.4,96.3,56.4,96.3,56.3,96.3z"/>
		<polygon fill="#AD272D" points="62.3,93.9 62.3,93.9 62.4,94 		"/>
		<path fill="#AD272D" d="M74.2,75.1c-0.1-0.6-0.3-1.2-0.5-1.7c0,0-0.7-2.1-1.6-3.1c-0.4-0.5-0.9-0.8-1.3-0.5
			c-0.3,0.3-0.5,1.2-0.7,2.8l-0.1,0c0.1,0.9,0.3,1.4,0.9,1.8c-0.5,0.3,0.2,0.7,0.1,0.9l0,0c0.5,0.4,0,1.1,0.4,1.5c0,0-0.2,0-0.2-0.1
			c0.1,0.3,0.3,0.8,0,0.9c0.2,0.8,0.1,1.9,0.6,2.5l-0.1,0c0.3,0.3,0,0.4,0.2,0.7c0,0-0.1,0-0.1,0c0.3,0.4-0.1,0.9-0.1,1.2l-0.2,0
			c0,0.2-0.1,0.4-0.2,0.6l0.1-0.2c0.5,0.3-0.5,0.3-0.4,0.8c-0.1,0.1,0,0.5,0.1,0.8c0.1,0.3,0.1,0.7-0.2,0.8c0,0.4-0.1-0.5-0.3-0.1
			c-0.2-0.2,0-0.2-0.2-0.4c-0.1,0.3-0.6,0.1-0.8,0.5l-0.1-0.2c-0.2,0.6-0.9,0.2-1.1,0.7c-0.4,0.4-0.5-0.5-0.9,0l-0.3-0.3
			c-0.2,0-0.1,0.4-0.3,0.3c0-0.2-0.3-0.1-0.2-0.3c-0.3-0.1-0.5,0-0.8,0.1c-0.3,0.1-0.6,0.1-0.9-0.2c-0.2,0.4-0.5,0-0.7,0.3
			c0-0.1-0.2-0.1-0.3-0.2c0,0-0.2-0.1-0.2-0.1c0-0.1,0.1-0.1,0.2-0.1c0,0,0.1,0,0.1,0.1l0.1-0.2c0-0.2-0.6-0.4-1-0.4
			c-0.4-0.1-0.8-0.1-1.2-0.4c0.3,0.2,0.6,0.4,0.4,0.4c-0.2-0.1-0.5-0.3-0.8-0.5c0,0,0.1-0.1,0.1-0.1c-0.4-0.3-0.8-0.6-1.3-1.1
			l0.3,0.5c-0.3-0.2-0.5-0.6-0.8-0.9c-0.2-0.1-0.4-0.1-0.5,0.3c0,0.3,0.5,0.4,0.2,0.6c-0.5-0.1-1.2-0.3-1.5-0.3
			c0.2,0.2,0.1,0.2,0,0.2l-0.1-0.2c-0.1,0.2-0.3-0.3-0.4-0.1l0-0.1l0.1,0.2c0,0.1-0.1,0-0.1,0c-0.1,0-0.1-0.1-0.1,0h0l0,0
			c0,0,0.1,0.1,0,0.1c0,0-0.1-0.1-0.1,0c0,0,0,0,0,0c0,0,0,0.1,0,0.1c0-0.1,0-0.1,0,0l0-0.1c0,0.1,0,0.2,0.1,0.3
			c-0.1,0.1,0,0.5-0.2,0.4c0,0-0.3,0.2-0.1,0.6c-0.1-0.3-0.3-0.1-0.5-0.4c0.1,0.3,0.1,0.9-0.4,0.8l0-0.1c-0.1,0-0.2,0.1-0.3,0.2
			c0.3,0.7,0.7,1.4,1,2c0.3,0.6,0.5,1.1,0.5,1.7c0.3,0,0.3,0.7,0.6,0.5c0.2,0.3,0.2,0.6,0.2,0.9c0,0.3,0,0.4-0.1,0.5
			c0,0.3,0,0.5,0.5,0.6c0.1,0.3-0.2,0.4-0.3,0.6l-0.1-0.1c0.1,0.6,0.1,0.8,0.1,1.2c0.1,0.2,0.6,0.3,0.4,0.7c-0.2-0.2-0.2,0-0.2,0.1
			c0-0.1-0.1-0.1-0.2,0c0.1,0,0.1,0.1,0.1,0.1c0,0,0,0,0,0c0,0.2,0.1,0.2,0.1,0.1c0,0,0.1,0,0.1,0c-0.3,0.2-0.2,0.6-0.5,0.5
			c-0.2,0.6-0.1,1.1-0.5,1.6c-0.2-0.1-0.1-0.3-0.1-0.4c-0.1,0.1-0.2,0.2-0.3,0.3c-0.2-0.2,0.1-0.3,0.1-0.4c-0.3,0-0.4,0.2-0.5,0.4
			c-0.1,0.2-0.3,0.4-0.6,0.4l0,0.2l0,0c0,0.1,0,0.3-0.1,0.3c-0.1-0.2-0.1-0.5-0.4-0.4c-0.2-0.2-0.5,0.2-0.8,0.3c0.1,0,0.1,0.2,0,0.2
			c-0.1,0-0.2-0.2-0.3-0.1l0-0.3c0,0.3-0.4,0.2-0.5,0.3c0-0.2,0.3-0.1,0.3-0.3c-0.5-0.1-0.3,0-0.8-0.2c-0.4,0.1,0,0.3-0.3,0.5
			c-0.3,0-0.7,0-0.9-0.3l0,0.3c-0.6-0.1-0.9-0.3-1.1-0.7c-1.2-0.2-2-0.3-2.5-0.3c-0.5,0-0.7,0.3-0.7,0.5c0,0.7,0.7,1.5,0.7,1.5
			c0.7,0.9,1.5,1.3,2.4,1.6c0.9,0.3,1.9,0.4,3.4,0.4c1.3,0.1,2.2,0.1,3.1-0.2c0.4-0.1,0.9-0.3,1.3-0.6c0.5-0.3,0.9-0.6,1.4-1.2
			c1.1-1.1,1.5-2.6,1.6-3.8c-0.3-0.6,0.2-1.5-0.2-2.1l0.2-0.2c-0.1-0.2-0.2-0.4-0.1-0.7l0.1,0c-0.2-0.3-0.1-0.6-0.2-0.8l0.1,0
			l-0.1-0.4l0.1,0c-0.1-0.1-0.1-0.2-0.2-0.4c0-0.1-0.1-0.1-0.1-0.1c0-0.1,0-0.1,0-0.2l-0.3,0c0.1-0.1,0-0.2,0-0.3
			c-0.1-0.1-0.2-0.3-0.1-0.3c0,0,0,0,0,0l0.1,0.1c-0.5-0.5-0.4-0.6-0.3-0.5c0.1,0,0.3,0.2-0.3-0.6c0.2,0.2,0.2,0.2,0.3,0.3
			c-0.2-0.3-0.3-0.5-1.2-1.6c-0.1-0.2,0.2,0.2,0.6,0.7l-0.3-0.4c-0.1-0.1-0.1-0.1-0.1-0.2c0,0,0,0,0,0l0.1,0.1l0.2,0.1l-0.7-0.9
			c0.4,0.4,0.8,1.1,0.9,1l-0.5-0.7c0.4,0.4,1.2,1.4,1.6,2C62,88,62.1,88,62.3,88c0.1,0,0.3,0,0.4,0l0.3,0l0.1,0l0.2,0l0.4,0.1
			c1.1,0.2,2.1,0.3,3.2,0.5l0.1,0.3c0.1,0.4,0.7-0.7,0.8-0.3l0.3-0.2c0.1,0,0.3,0.1,0.2,0.2c0.3-0.1,0.3-0.1,0.4-0.3l0.4,0.1
			c0.6-0.1,1.1-0.4,1.5-0.7c0.4-0.3,0.8-0.7,1.3-1c0.7-0.3,1.6-1.1,2-2.1c0.5-1,0.6-2.1,0.6-2.9c-0.1-1.1,0.1-2.1,0.3-3.2
			c0.1-1.1,0.2-2.2-0.4-3.1C74.4,75.3,74.2,75.1,74.2,75.1z"/>
	</g>
	<path fill="#FF9F9F" d="M805.4,289.1c-0.3-11.4-12.2-9.4-12.2-9.4s9.7-7.4,4.4-15.7c-5.8-9.1-18-1.7-18-1.7s7-10.4-1.3-16.7
		c-8.9-6.8-20.1,7.1-20.1,7.1s-5.5-7-13.8-8c-8.3-1-19,10.3-26.5,24.2c-7.6,13.9-6.7,29.8-13.4,36.3c0,0-40.5,24.2-91.4,48.8
		l13.1,29c50.6-25.2,94-51.8,94.3-52c8.2-3.7,23.1-2.1,39.4-2.4c17.4-0.3,35.9-7.8,37.3-16.7c1.5-8.9-8.1-8.9-8.1-8.9
		S805.6,298.6,805.4,289.1z"/>
	<path fill="#FF9F9F" d="M333.7,402.2c15.5,3.9,39.9,4,51.2,3.7c8.3-31.8,14.9-53,14.9-53l-57.7-23.3c0,0-16.3,20.8-34.8,57.6
		C311.7,391.8,320.4,398.8,333.7,402.2z"/>
	<g>
		<path fill="#FFFFFF" d="M464,409.5l-0.5-4.1c-0.8,0.1-1.5,0.3-2.3,0.4l0.2,1.8c0.4,3.3,0.9,6.6,1.1,8.1c-0.4-2.1,0.5,5.1,0.1,3
			c0.6,3.6,2.1,14.5,2.5,18.8l-0.1-0.8l0.2,1.3c0.8-0.1,1.6-0.3,2.4-0.4c-1-6.7-1.7-12.5-2.4-18.2L464,409.5z"/>
		<path fill="#FFFFFF" d="M450.4,440.1c-1.5-14.5-2-26.6-3-32.1c-0.7,0.1-1.4,0.2-2,0.3c0.3,3.2,0.5,6.1,0.7,7.7l-0.1-0.2l0.6,6
			l-0.1-1c0.7,6.8,1.3,13.8,1.9,20.3c0.8-0.1,1.5-0.2,2.3-0.4C450.5,439.8,450.4,439.4,450.4,440.1z"/>
		<path fill="#FFFFFF" d="M497.6,398.3C497.6,398.3,497.6,398.3,497.6,398.3l0.3,1.3C497.8,399.2,497.7,398.8,497.6,398.3z"/>
		<path fill="#FFFFFF" d="M430,425.5c-0.3-3-0.5-6.8-0.7-10.9l-0.2-4.2c-0.7,0.1-1.5,0.2-2.2,0.3l0,0.1c0.3,4.7,0.7,5.5,1.1,13.9
			c-0.3-2.7-0.1,0.7,0.1,3.9c-0.1-2-0.2-2.7-0.1,1.5c0.1,0.6,0.1,1.5,0.2,2.3c0,0,0,0.2,0,0.1c0.3,5.3,0.3,4.4,0.2,1.9
			c0,0.1,0-0.1,0-0.8c0.1,2.8,0.3,6.8,0.5,10.1c0.7-0.1,1.4-0.2,2.2-0.3L430,425.5z"/>
		<path fill="#FFFFFF" d="M487.1,433.5c-0.1-0.6-0.2-1.3-0.3-2l-0.5-2c-1.7-10.2-0.5-5.6-2.5-16.9c0.7,4.5,0,2.2-0.7-3.4l0.3,1.4
			c-0.5-3.1-0.7-4.1-0.9-6.1c0.3,1.7,0.3,1-0.2-2.7c-0.7,0.1-1.3,0.3-2,0.4c0.1,0.3,0.1,0.5,0.2,0.5c0.9,6.6,0.7,5.3,0.7,6.2
			c0.1-0.1,1,5.6,1.7,10.7l-0.4-2.3l2.1,14.6l-0.1-2.9c0.5,4,0.5,4.4,0.5,4.9C485.7,433.8,486.4,433.7,487.1,433.5z"/>
		<path fill="#FFFFFF" d="M413.5,445c0-0.7,0-0.4,0.2,0.5c0,0,0.1,0,0.1,0c-0.2-1.5-0.4-3-0.5-4.5c0.1,0,0.3,2.2,0.6,4.5
			c0,0,0,0,0.1,0c-0.5-4.4-1-8.8-1.3-13.5c-0.2-3-0.1-6-0.1-9.2c0-3.1,0.1-6.3,0.3-9.6l0-1.1c-0.7,0.1-1.5,0.1-2.2,0.2l-0.1,2.9
			c-0.1,3.8-0.2,7.6-0.3,11.7c0,2,0,4.2,0.1,6.4c0.1,2.2,0.3,4.5,0.5,6.9c0.2,1.7,0.4,3.6,0.6,5.4c0.7-0.1,1.3-0.1,2-0.2
			C413.5,445.4,413.5,445.2,413.5,445z"/>
		<path fill="#FFFFFF" d="M380.6,448.4c-1.2-5.2-1.9-10-2-14.2c-0.1-4.2,0.3-7.9,0.9-11c0.8-4,2.1-7.1,3.3-9.4
			c0.2-0.8,0.4-1.6,0.6-2.4c-0.5,0.7-1,1.5-1.5,2.3c-1.3,2.2-2.4,4.8-3.1,7.3c-1.5,5-1.6,9.4-1.6,9.4c-0.4,5.2,0.1,10,0.9,14.5
			c0.6,3.3,1.3,6.4,2.1,9.5c0.5-0.5,1-1,1.5-1.4C381.3,451.4,380.9,449.9,380.6,448.4z"/>
		<path fill="#FFFFFF" d="M395.5,433c0-3.5,0.4-7.3,1.1-11.2c0.5-2.9,1.2-5.6,1.9-8.1c0-0.1,0-0.2,0.1-0.2c-0.7,0.1-1.4,0.1-2.1,0.2
			c-0.5,2-1,3.9-1.3,5.6c0.8-3.6,0.6-2.4,0.3-0.9c-0.7,3.2-1.1,5.1-1.4,7.6l-0.2,0.2c0,0.3-0.2,2.1-0.2,4c-0.1,2.5,0,5.2,0.1,5.8
			c0,0.9-0.1-0.3-0.2-1.9c-0.1-1.6,0-3.6,0-4c-0.2,3.3,0,5.4,0,6.8c0.1,1.4,0.2,2.3,0.3,3.1c0.1,0.8,0.2,1.6,0.4,3.1
			c0.2,1,0.4,2.4,0.8,4.3c0.7-0.1,1.4-0.1,2.1-0.2c-0.3-1.3-0.6-2.7-0.8-4.1C395.8,439.9,395.5,436.6,395.5,433z"/>
		<path fill="#FFFFFF" d="M596.6,390.4l0.2,0.3c-3.2-8.2-6.1-16.9-9.1-25c-0.7,0.3-1.3,0.6-2,0.9l4,10.7c0.3,1.1,1.4,3.7,1.4,3.7
			l5.7,15.8c0.6-0.3,1.2-0.5,1.8-0.8C597.8,393.7,597.1,391.6,596.6,390.4z"/>
		<path fill="#FFFFFF" d="M576,387.7l-5.6-14.4c-0.6,0.3-1.3,0.5-1.9,0.8l3.8,9.6c2.6,6.6,5,12.4,6.7,16.4l-0.3-0.7
			c0.8,1.8,1.4,3.3,1.9,4.6c0.5-0.2,1-0.4,1.5-0.6l-1.2-3.1L576,387.7z"/>
		<path fill="#FFFFFF" d="M482.8,404l-0.4-2.2c0,0,0,0-0.1,0L482.8,404z"/>
		<path fill="#FFFFFF" d="M601.9,359.2c-0.3,0.2-0.7,0.3-1,0.5c2.4,6,5.6,13.8,9.7,23.9l-0.4-0.7l2.7,6.4c0.6-0.3,1.1-0.6,1.7-0.8
			l-7-16.2C605.6,367.6,603.7,363.2,601.9,359.2z"/>
		<path fill="#FFFFFF" d="M561.8,401.1l1.8,4.8c-0.9-1.6-3.5-9.9-7.2-19.2c-0.8-2.2-1.7-4.4-2.6-6.6c-0.6,0.2-1.1,0.4-1.7,0.7
			l5.6,14.8l5.8,15.4c0.6-0.2,1.2-0.4,1.7-0.7L561.8,401.1z"/>
		<path fill="#FFFFFF" d="M537.5,388.8l-0.7-2.2c-0.5,0.2-1.1,0.4-1.6,0.6c0.1,0.2,0.1,0.3,0.2,0.5l0,0.4
			c3.6,10.4,6.2,19.7,8.6,26.6c0.4,1.2,0.7,2.2,1,3.1c0.6-0.2,1.2-0.4,1.8-0.6c-1.9-5.8-3.7-11.4-5.5-17L537.5,388.8z"/>
		<path fill="#FFFFFF" d="M499.7,397.8c-0.7,0.2-1.3,0.3-2,0.5l1.3,5.9l-0.5-1.7l2.8,12.7l-0.3-1.8c1.4,6.2,1.6,8.5,3.4,15.4
			c0.1,0.2,0.1,0.4,0.1,0.5c0,0,0,0,0.1,0c-0.1-0.9-0.9-4.6,0.1,0c0.7-0.2,1.3-0.3,2-0.5l-2.7-11.9L499.7,397.8z"/>
		<path fill="#FFFFFF" d="M525.6,418.2c-1.4-6.5-2.8-13.4-4.2-21.2c-0.3-1.2-0.7-3-1.1-4.9c-0.6,0.2-1.3,0.4-1.9,0.6l3.2,15.9
			c1,5.2,2,10.2,3,15.2c0.7-0.2,1.4-0.4,2-0.6L525.6,418.2z"/>
	</g>
	<path fill="#FFFFFF" d="M258.2,557.1c-0.1,0.8-0.1,1.5-0.2,2.3c12.7,3.4,25.5,6,38.6,7.3c6.8,0.6,13.5,1,20.3,1.4
		c6.7,0.3,13.5,0.6,20.2,0.8c5.4,0.2,10.7,0.3,16,0.4c0.1-0.6,0.2-1.3,0.2-1.9c-3.6-0.1-6.6-0.1-8.5-0.1l-18-0.7
		c-7.2-0.3-11.5-0.6,0-0.2c2,0.1,5.5,0.2,5.2,0.2l2.8,0c-11.6-0.5-22.1-1-32.6-1.7c-10.4-0.7-20.8-2.2-31.9-4.7
		c6.6,1.6,15.5,3,9.5,2.1c-7-1.3-13.9-2.9-20.7-4.7l4.3,1C261.6,558,259.9,557.6,258.2,557.1z"/>
	<path fill="#FFFFFF" d="M356.8,526.4c-1.8,0-6.7-0.2-13.4-0.6l3.5,0.1c-7.5-0.4-10-0.6-15-1c4.5,0.2,2.4,0-8.7-0.9l7.4,0.5
		c-7-0.5-13.9-1-20.9-1.8c-8-1-18.3-2.6-27.4-4.5c-7.7-1.6-14.5-3.2-18.4-4.3c-0.1,0.7-0.3,1.5-0.4,2.2c4.8,1.2,9.8,2.3,15.1,3.4
		c-5.9-1.2,2.5,0.6,2,0.5c10.9,2.3,22.3,4,31,4.9c8.7,0.9,14.7,1.3,14.9,1.2l12.9,1c1.5,0.1,1.3,0.2,2.3,0.3
		c-0.1-0.1,7.6,0.3,16.7,0.7c0.1-0.4,0.1-0.8,0.2-1.2c0-0.2,0.1-0.5,0.1-0.7l-7.1-0.3C357.3,526.3,358.6,526.4,356.8,526.4z"/>
	<path fill="#FFFFFF" d="M285.4,480.6c7.9,1.9,17.2,4,25.2,5.5l-0.5-0.1c12,2.1,25.7,3.1,31.7,3.4l-0.5,0c4.9,0.3,9.8,0.5,14.7,0.7
		l-2.5,0c3.9,0.1,7.9,0.2,11.9,0.3c0.1-0.7,0.3-1.5,0.4-2.2c-5.8-0.1-11.2-0.3-16.2-0.5c-12.2-0.6-21.8-1.5-27.9-1.9
		c-8.3-1-13.1-2-16.9-2.8c-3.8-0.8-6.7-1.5-10.9-2.5l3.9,0.8c-7.6-1.7-13.8-3.3-19.2-4.7c-1.9-0.5-3.8-1-5.6-1.5
		c-0.2,0.7-0.4,1.4-0.6,2.1c1.4,0.4,2.8,0.8,4.1,1.1C279.6,479,282.5,479.8,285.4,480.6z"/>
	<path fill="#FFFFFF" d="M290.1,607.6c4.9,0.4,9.9,0.8,14.9,1c5,0.2,10.1,0.3,15.2,0.3c9.3,0,18.8-0.4,28.7-0.9
		c0.1-0.6,0.1-1.1,0.2-1.7c-0.7,0-1.3,0.1-2,0.1c-7.3,0.3-15.1,0.6-25.3,0.7l-0.8-0.1c-6.7,0.1-13.2,0-19.4-0.4
		c-6.2-0.4-12.3-0.9-18-1.5c-10.4-1.1-19.9-2.5-28.1-3.7c0,0.7,0,1.3-0.1,2c1.7,0.3,3.5,0.5,5.2,0.8
		C270.4,605.6,280.2,606.8,290.1,607.6z"/>
	<path fill="#FFFFFF" d="M316.1,626.8c10.3,0.4,20.7,0.3,31.1,0.1c0-0.6,0.1-1.1,0.1-1.7c-10,0.1-20.4,0-31-0.3
		c-13.1-0.4-26.5-1.6-39.6-2.7c-6.6-0.6-13-1.2-19.4-1.9L255,620c0,0.6,0,1.2,0,1.9c7.9,0.8,15.9,1.6,23.8,2.4l-12.6-1.2
		c2.2,0,8.5,0.7,17.4,1.6C292.5,625.4,303.9,626.5,316.1,626.8z"/>
	<path fill="#FFFFFF" d="M342.8,700.6c0-0.6,0.1-1.2,0.1-1.9l-52,1.1c-12.5,0.3-24,0.5-33.5,0.8c0,0.3,0,0.6,0.1,0.9
		c16.7-0.1,42.3-0.4,79.2-0.8l-1.9,0.1L342.8,700.6z"/>
	<path fill="#FFFFFF" d="M301,661.9l-31.5,0l-14,0c0,0.7,0,1.4,0.1,2.1h0.2l16.6-0.1c-0.9,0-1.4,0.1-5.9,0.1
		c17.7,0,41.1-0.1,42.4,0.1l35.9,0c0-0.7,0.1-1.4,0.1-2.1L301,661.9z"/>
	<path fill="#FFFFFF" d="M333,452.4c-2.2-0.2-4.4-0.5-6.6-0.8l-1.9-0.3c0.1,0.1-7-1.1-11.6-2.3c-2.2-0.6-2.1-0.7-3.3-1.1l-3.4-1.1
		c-1.8-0.6-4.3-1.4-8-2.8c-5.8-2.2-14.1-5.6-22.4-9.9c-5.5-2.8-11.1-6-16-9.3c-0.3,0.6-0.5,1.2-0.8,1.9c3.1,2.1,6.2,4,9.2,5.7
		c6.9,3.9,13.5,7.1,19.9,9.8c3.2,1.4,6.3,2.6,9.4,3.8c3.1,1.2,6.1,2.2,9.2,3.1c6.1,1.8,12,3.1,17.9,4.2c11.7,2,23.3,2.9,35.6,3.1
		c5.9,0.1,12-0.1,18.4-0.4c0.8-0.9,1.5-1.7,2.3-2.5c-4.3,0.3-8.7,0.5-13.1,0.6C356.6,454.4,345,454,333,452.4z"/>
	<path fill="#FFFFFF" d="M348.4,589.9c-15.5-0.9-30.7-1.9-45.5-3.2c-1.4-0.2-2.9-0.4-4.3-0.6c-0.9-0.2-7.7-0.9-14.7-2.1
		c-7-1.1-14.1-2.5-16-3c-3.8-0.8-7.5-1.6-11.3-2.4c0,0-0.1,0-0.1,0c0,0.7-0.1,1.4-0.1,2c0.4,0.1,0.7,0.2,1.1,0.3
		c6,1.4,8.2,1.8,10.5,2.3l11.5,2.2c-0.4,0,3.8,0.8,7.2,1.3c3.4,0.6,5.9,0.9,1.9,0.4c3.8,0.6,7.7,1.1,11.6,1.5
		c3.9,0.4,7.8,0.7,11.8,1c7.9,0.6,16.1,1.1,24.5,1.6l13.9,0.8c0.1-0.7,0.1-1.3,0.2-2L348.4,589.9z"/>
	<path fill="#FFFFFF" d="M311.1,642.5l1.9,0c-15.6-0.2-20.1-0.4-37.5-0.7c-0.9,0-2.2-0.1-2-0.1l-16.1-0.3l-2.4-0.1
		c0,0.5,0,1.1,0,1.6l3.3,0.1l52.5,1.1l35,0.9c0-0.6,0.1-1.3,0.1-1.9l-11.1-0.2L311.1,642.5z"/>
	<path fill="#FFFFFF" d="M307.5,682.1c-4.5-0.5-34.2-1.3-43.9-1.8l0.9,0l-8.3-0.3c0,0.6,0.1,1.3,0.1,1.9l57.2,2.2l30,1.1
		c0-0.7,0.1-1.3,0.1-2l-9.4-0.4L307.5,682.1z"/>
	<path fill="#FFFFFF" d="M345.2,506.6c-6.7-0.6-13.3-1.2-20.5-2c-3.6-0.4-7.3-0.8-11.3-1.3c-4-0.5-8.2-1.1-12.7-2.1l0.5,0.1
		c-11.5-2.1-21.7-4.7-31.2-7.3c-0.6-0.2-1.2-0.3-1.7-0.5c-0.2,0.7-0.4,1.5-0.5,2.2c0.5,0.1,0.9,0.2,1.4,0.4
		c8.8,2.4,17.9,4.6,23.1,5.9l-2-0.4c4.8,1.1,9.5,2.1,14.1,2.9c4.6,0.8,9,1.3,13.4,1.8c8.7,1,17,1.8,25.1,2.5
		c6.3,0.6,12.5,1.1,18.8,1.6c0.1-0.8,0.3-1.5,0.4-2.3L345.2,506.6z"/>
	<path fill="#FFFFFF" d="M346.4,469.8c-10.9-0.3-21.9-1.1-32.6-2.9c-10.8-1.7-21.3-4.7-31.3-8.6c-8.3-3.3-16.3-7.4-23.5-12.4
		c0.5,1.3,1.1,2.6,1.7,3.9c0.6,0.4,1.3,0.8,2,1.3c1.3,0.7,3.2,1.8,5,2.8c0.1,0,0.4,0.3,0.2,0.2c5.8,3,8.3,4,8.6,4.1
		c0.3,0.1-1.6-0.7-4.3-2.1c0.3,0.1-0.2-0.1-1.8-1c3,1.6,6.7,3.3,10.5,4.9c3.9,1.6,8,3,11.8,4.2c7.6,2.4,13.9,3.6,14.7,3.9
		c9.6,1.9,18.7,2.9,27.3,3.4c8.6,0.5,16.8,0.7,24.7,0.6c3.4,0,6.7-0.1,10.1-0.3c0.3-0.7,0.5-1.4,0.8-2.1
		C362.5,470,354.5,470,346.4,469.8z"/>
	<path fill="#FFFFFF" d="M303.4,542.9c-10.8-1.1-21.5-2.9-32.2-5.1c-3.5-0.7-7-1.6-10.6-2.4c-0.1,0.7-0.2,1.4-0.3,2.1
		c9.8,2.4,21.7,4.9,34.5,6.7c6.8,1,13.8,1.6,20.8,2.2c7,0.6,13.9,1.1,20.5,1.5c-2.5-0.3,4.7,0.1,12,0.5l0.8,0.2
		c2.5,0.1,4.7,0.2,6.5,0.3c0.1-0.6,0.2-1.2,0.2-1.8c-6.7-0.4-12.9-0.8-19-1.2C326.4,545,316.2,544.2,303.4,542.9z"/>
	<g>
		<path fill="#FFFFFF" d="M330.3,418c6,1.5,11.7,2.4,15.8,2.9c4.1,0.5,6.7,0.8,6.7,0.8c8.5,0.9,16.6,1.4,24.4,1.7
			c0.6,0,1.1,0,1.6,0.1c0.2-0.6,0.3-1.2,0.5-1.7c-6.2-0.2-11.9-0.5-17.3-0.8c-10.3-0.7-19.3-1.7-26.9-3.2
			c-15.3-3.1-25.4-7.4-31.5-10.7c-1.5-0.9-2.9-1.6-3.9-2.4c-0.2-0.1-0.4-0.3-0.5-0.4c-0.1,0.1-0.1,0.3-0.2,0.4
			c3.2,2.5,7.9,5,13.4,7.4C317.9,414.5,324.3,416.5,330.3,418z"/>
		<path fill="#FFFFFF" d="M377.8,437.7c0-0.5,0-1.1,0-1.7c-11.7,0-23.4-0.4-35.4-1.7c-6-0.7-12.1-1.6-18.2-3.1
			c-6.1-1.5-12.3-3.5-18.5-6.1c-6.2-2.6-12.5-5.7-18.8-9.4c-3.2-1.8-6.3-3.8-9.5-6c-0.1-0.1-0.2-0.1-0.3-0.2
			c-0.7,0.2-1.5,0.5-2.2,0.8c1.2,0.9,2.2,1.5,2.6,1.7c1.6,1.1-0.1,0-2.7-1.7c0,0-0.1,0-0.1,0c1.9,1.3,3.5,2.3,4.8,3.2
			c2.8,1.8,4.5,2.8,6.2,3.8c1.7,1,3.5,2,6.5,3.6c3.1,1.6,7.5,3.9,14.9,6.9c16.1,5.8-2.9-1.2,4.9,1.5c7.1,2.5,14.4,4.3,22,5.5
			c7.6,1.2,15.6,2,24.2,2.5c-1.8-0.2-3.6-0.3-5.4-0.5C362.2,437.6,370.4,437.8,377.8,437.7z"/>
	</g>
	<g>
		<path fill="#AD272D" d="M321.5,424.9c0.2,0.1,0,0.1-0.2,0.1L321.5,424.9z"/>
		<path fill="#AD272D" d="M321.4,425.1l-0.1,0.1C321.3,425.1,321.3,425.1,321.4,425.1z"/>
		<path fill="#AD272D" d="M320.3,425.9c0.3,0,0.5-0.4,0.8-0.3C320.9,425.9,320.5,426.1,320.3,425.9z"/>
		<polygon fill="#AD272D" points="320.6,425.5 320.7,425.6 320.4,425.6 		"/>
		<polygon fill="#AD272D" points="320.7,425.3 320.7,425.4 320.2,425.5 		"/>
		<path fill="#AD272D" d="M320.2,426.1c0.1,0.2-0.6,0.4-0.4,0.6c-0.3,0.3-0.1-0.1-0.3-0.1l0.3-0.1c0.1-0.3-0.3-0.1-0.2-0.3
			C319.9,425.9,319.9,426.4,320.2,426.1z"/>
		<path fill="#AD272D" d="M307.5,440.9C307.5,441,307.5,441,307.5,440.9C307.5,441,307.5,440.9,307.5,440.9z"/>
		<path fill="#AD272D" d="M306.3,446.2c0,0.1,0,0.2,0,0.2c0,0-0.1-0.1-0.1-0.1L306.3,446.2z"/>
		<path fill="#AD272D" d="M309.2,437.8c0,0.1,0,0.1,0,0.2C309.1,437.9,309.1,437.8,309.2,437.8z"/>
		<path fill="#AD272D" d="M315.7,468.3C315.7,468.2,315.7,468.2,315.7,468.3L315.7,468.3L315.7,468.3L315.7,468.3z"/>
		<path fill="#AD272D" d="M305.9,452.2c0,0.1,0,0.2,0,0.2C305.9,452.3,305.9,452.2,305.9,452.2z"/>
		<path fill="#AD272D" d="M316.2,429.8c0,0.1-0.1,0.1-0.2,0.1C316,429.9,316,429.9,316.2,429.8z"/>
		<path fill="#AD272D" d="M314.9,431.1L314.9,431.1C314.9,431.2,314.9,431.2,314.9,431.1z"/>
		<path fill="#AD272D" d="M314.2,432L314.2,432C314.2,432,314.2,432,314.2,432z"/>
		<path fill="#AD272D" d="M316,430c0,0.2,0.2,0.5-0.2,0.3l0-0.1c0,0.1-0.2,0.2-0.3,0.3c0,0,0-0.1,0-0.1c0-0.1,0.1-0.1,0.2-0.2
			C315.6,430,315.8,430,316,430z"/>
		<path fill="#AD272D" d="M307.6,440.9C307.5,440.9,307.6,440.8,307.6,440.9L307.6,440.9z"/>
		<path fill="#AD272D" d="M308.4,439.5l0,0.2C308.4,439.6,308.4,439.5,308.4,439.5z"/>
		<path fill="#AD272D" d="M310.9,433.9L310.9,433.9C310.9,433.9,310.9,433.9,310.9,433.9z"/>
		<path fill="#AD272D" d="M308.3,439.8l0-0.1C308.3,439.7,308.3,439.7,308.3,439.8z"/>
		<path fill="#AD272D" d="M337.5,475.3c-0.1,0-0.2,0.1-0.3,0.1c-0.3-0.2,0.5,0,0.1-0.2c0.1,0,0.2,0,0.3,0.1l-0.1,0.3
			C337.2,475.4,337.6,475.4,337.5,475.3z"/>
		<path fill="#AD272D" d="M317.1,468.9L317.1,468.9c0.1-0.1,0.1-0.1,0.2,0c0,0.2-0.4,0.3-0.3,0.6c0-0.1-0.1-0.1-0.2-0.1
			C317.1,469.3,317.1,469.1,317.1,468.9z"/>
		<path fill="#AD272D" d="M316.9,469.3C316.9,469.3,316.9,469.3,316.9,469.3C316.9,469.3,316.8,469.3,316.9,469.3
			c-0.1,0-0.2,0-0.2,0C316.8,469.3,316.8,469.3,316.9,469.3z"/>
		<path fill="#AD272D" d="M333.7,475.4l-0.1,0C333.7,475.4,333.7,475.4,333.7,475.4z"/>
		<path fill="#AD272D" d="M309,451.5c0-0.1,0-0.1,0.1-0.2C309.1,451.5,309,451.5,309,451.5z"/>
		<path fill="#AD272D" d="M315,467.1c0,0-0.1,0-0.1-0.1l0-0.1L315,467.1z"/>
		<path fill="#AD272D" d="M321,475c0-0.3,0.1,0.1,0.3,0l0.1,0.2C321.2,475.2,321.1,475,321,475z"/>
		<path fill="#AD272D" d="M337.6,475.2C337.6,475.2,337.6,475.2,337.6,475.2L337.6,475.2L337.6,475.2z"/>
		<path fill="#AD272D" d="M316,468.6c-0.2-0.2-0.3-0.3-0.5-0.5l0.2,0.1C315.7,468.4,316.1,468.5,316,468.6z"/>
		<path fill="#AD272D" d="M306.2,443.2l0.4,0.1c0.1-0.3,0.3-0.3,0.3-0.5c-0.1,0.1-0.2-0.1-0.2-0.3c0,0.1,0,0.2,0.1,0.1
			c0.1-0.4,0.4-0.4,0.6-0.8c0,0.4,0.1,0.5,0.1,0.9c0.3,0,0.1-0.2,0.2-0.5c0,0-0.1,0.1-0.1,0l0.2-0.2c0-0.5-0.4,0-0.4-0.5
			c-0.1-0.3,0.2-0.3,0.2-0.6l0,0.1c0,0,0-0.1,0-0.1c0,0,0,0,0,0c0.1-0.2,0.2-0.5,0.4-0.5c-0.1-0.1,0.1-0.2,0.2-0.3
			c0.1-0.1,0.4-0.4,0.2-0.7c0,0,0,0,0,0c0.1-0.3,0.1-0.6,0-0.6l0.1-0.5l-0.2,0c0.2-0.4,0.4-0.3,0.7-0.5c0-0.4,0.4-0.9,0.5-1
			c0,0,0-0.1,0.1-0.2l0,0.2c0.1-0.3,0.2-0.2,0.4-0.5c0,0.1,0,0.1,0-0.1l0,0.1c0,0,0-0.1,0-0.1l0,0l0-0.1c0,0,0,0.1-0.1,0.1l-0.1-0.1
			c-0.1-0.4,0.3-0.3,0.4-0.7c0,0-0.1,0.1-0.1,0.1c0-0.2-0.2-0.6,0.1-0.5c0-0.1,0.1-0.1,0.1-0.1l0-0.1c0,0.1,0,0.1,0,0.1
			c0.1,0,0.2-0.1,0.2-0.1l0.2-0.4c0-0.1,0.1-0.2,0.2-0.2l0-0.1c0.1-0.1,0.1-0.2,0-0.2c0-0.7,0.6-0.7,0.7-1.4c0.2,0,0.1,0.3,0.2,0.3
			c0.2,0,0.5-0.2,0.6-0.3c0-0.4,0.3-1.2,0-1.3c0.3-0.4,0.1,0.3,0.3,0.1l0-0.1c-0.1,0.2-0.1,0.3,0,0.5c0.1,0.1,0.4-0.2,0.5-0.3
			l-0.3-0.1c0.4-0.3,0.6,0,1-0.1c0.2-0.4-0.2-0.3-0.3-0.5l0.3-0.3l-0.1-0.1c0.2-0.2,0.4-0.1,0.6-0.4c-0.3,0.1,0.2-0.5-0.2-0.4
			c0.1-0.2,0.4,0,0.3-0.2c0.2,0,0,0.2-0.1,0.3c0.2,0.3,0.4-0.2,0.6-0.3c-0.1-0.1-0.2,0-0.1-0.3c0.1,0,0.3,0,0.3-0.2
			c0.1,0.1,0.3-0.2,0.4-0.3c-0.1,0.1-0.2,0.4,0,0.5c0.2,0,0.3-0.1,0.5-0.3l-0.1,0.2c0.4,0,0.2-0.5,0.5-0.6c-0.2,0-0.3,0.1-0.5,0.1
			c0.2-0.1,0.5-0.2,0.8-0.3l0.1-0.4c0.1,0.1,0.3-0.2,0.4-0.1c0.2-0.4-0.4,0-0.5-0.1c0.3-0.4,0.5,0,0.7-0.5l-0.2,0
			c0.1-0.1,0.4-0.2,0.4-0.3c0,0.1,0,0.1-0.1,0.1c0.3,0.2,0.7-0.2,0.9,0.1l-0.2,0.2c0.3-0.1,0.7-0.1,0.8-0.3c0.1-0.2-0.3-0.1-0.4-0.2
			c0.2-0.2,0.5,0.2,0.7,0c-0.1,0.2,0,0.3,0.2,0.3c-0.2,0.1-0.5,0.5-0.5,0.3l0-0.1c-0.1-0.1-0.2,0-0.3,0c-0.2,0.2,0,0.2,0,0.3
			c-0.3,0.3-0.3-0.3-0.6,0l0,0.1c-0.2,0-0.5,0.3-0.7,0.1c0,0.3-0.5,0.2-0.5,0.5c0.3,0.5,0.5-0.5,0.9-0.4c-0.1,0.2,0.3,0.1,0.4,0.2
			l-0.7,0.3c0,0.1,0,0.5-0.2,0.4l0,0c-0.3,0.1-0.4-0.1-0.5,0.1c0,0.1,0.1,0.1,0.2,0.1c-0.1,0.2-0.2,0-0.4,0.1
			c-0.1,0.2,0.2,0.1,0.1,0.3c-0.3,0-0.3,0.3-0.4,0.5c-0.2-0.3-1,0.3-0.8-0.2l-0.6,0.2c0,0.2,0.6,0,0.7,0.3l0.3-0.3
			c0.2,0.3-0.8,0.5-0.7,1c-0.1,0.2-0.1,0.1-0.3,0.6l-0.2-0.3c-0.1,0.2,0,0.4,0.1,0.5c-0.1,0.1-0.2,0.2-0.2,0.3c0.1,0,0.1,0,0.2,0
			c0,0.3,0,0.2-0.2,0.2c-0.1,0-0.2,0.1-0.3,0.2l0.2,0c-0.1,0.1-0.2,0.1-0.2,0.1c0,0-0.1,0.1-0.1,0.1c0-0.1-0.1-0.3-0.1-0.5
			c-0.2,0.5-0.5,0.8-0.6,1.3c0.1,0.1,0.3,0,0.3,0c-0.1,0.2-0.4,0.3-0.5,0.2c0,0-0.1,0.1-0.1,0.1c0,0.1,0.1,0.2,0.1,0.3
			c0,0,0,0.1,0,0.2c-0.3-0.1-0.4,0.3-0.6,0.3c0-0.1,0.1-0.2,0.2-0.3c-0.3,0-0.5,0.1-0.5,0.3c0.3-0.2,0,0.5,0.4,0.1
			c0.1,0.5-0.3,0-0.4,0.4l0,0.3c0.2,0.1,0.3-0.3,0.3-0.2l-0.1,0.1c0.2-0.1,0.5-0.7,0.9-0.8c-0.1,0.2-0.2,0.5-0.3,0.7
			c-0.8,0.7-1.1,1.9-1.9,2.4l0,0c0,0-0.1,0-0.1,0l0,0.1L311,437c0.1,0.3,0,0.6,0,0.9c0-0.2,0-0.2-0.2-0.3c-0.2-0.1-0.3-0.1-0.3,0.2
			c0.1,0.1,0.2-0.1,0.2,0.1c0-0.1-0.2-0.1-0.2,0c0,0.2-0.1,0.4,0.1,0.5c0.1-0.1,0-0.1,0-0.2c0.1-0.1,0,0.3,0.2,0.2l-0.1,0.2
			c0.1,0.2,0.2,0,0.3,0.1c-0.3,0.4-0.7,0.5-0.9,0.9c0.1,0,0.4,0.1,0.3,0.1c0,0.3-0.6,0.5-0.7,0.9c0.1,0,0.1-0.2,0.2-0.3
			c-0.2,1.1-0.5,2.1-0.4,3.2l-0.4,0.2l0.2,0.3c0,1.1-0.3,2-0.5,3c0,0.3,0.2,0.2,0.3,0.4c0,0.7-0.4,0.9-0.5,1.6
			c0.1-0.1,0.4-0.3,0.4,0c-0.1,0.1-0.3,0.1-0.2,0.3l0.1-0.1c0.2,0.2,0,0.3,0.1,0.7c0,0.6-0.2,1.2-0.5,1.8c0.1,0.6,0.4-0.1,0.4,0
			c-0.2-0.4,0-0.3,0.1-0.4c-0.1,0.2-0.1,0.5,0.1,0.6c0,0.3,0,0.4-0.1,0.7c0.1-0.2-0.1-0.3-0.2-0.1c0.1,0.2,0.1,0.8,0.4,0.8
			c0.2,1.4,0.6,2.8,1.1,4.2c-0.1,0.3-0.1-0.2-0.2,0c-0.1,0.4,0.2,0.2,0.1,0.6l0.1-0.2c0.2,0.4,0.1,0.9,0.1,1.4
			c0.1-0.1,0.3,0.3,0.2-0.1c0.1,0.2,0.9,0.1,0.8,0.3l-0.8,0.1c-0.1,0,0.1,0.3,0,0.3c0.2,0.1,0.5,0.2,0.5,0.3c0.2,0,0-0.3,0-0.4
			c0.3-0.2,0.4,0.4,0.6,0.1c0.1,0.3-0.2,0-0.2,0.3l0.2,0.3l-0.2-0.2c0,0.3-0.2,0.5,0.2,0.7l-0.1,0.5c0.3-0.1,0.2,0.2,0.3,0.4
			l0.1-0.2c0.1,0.2,0.2,0.3,0.4,0.4c0.1-0.2-0.2-0.2,0-0.3l0.2,0.2c-0.1,0.1-0.1,0.3-0.3,0.2c-0.1,0.4-0.2,0.6,0.1,1.1
			c0.4,0.1,0-0.4,0.3-0.4c0.4,0.5-0.1,1,0.1,1.4c0.4,0.4,0.2,0.5,0.4,0.9c0-0.2,0.4,0.2,0.6,0.2l0-0.3c0,0.2,0.2,0.2,0.3,0.1
			c-0.2,0.1,0.2,0.7,0.4,1l-0.2,0.1c0.1,0.3,0.3,0.6,0.5,0.8c0.2,0.4,0,0.4,0.1,0.8c0.3,0,0.4-0.1,0.5-0.3c-0.2,0-0.2-0.2-0.4-0.3
			c-0.2-0.5-0.2-1.1-0.6-1.5c0.2-0.5,0.2,0.3,0.5,0.4c0,0,0,0,0-0.1c0,0,0,0,0.1,0c-0.1-0.2-0.2-0.5-0.1-0.7
			c0.2,0.3-0.2,0.5,0.2,0.7c0.1,0.3,0.5,0.3,0.7,0.4c0,0.3-0.3,0.5,0.1,0.8l0.1-0.3c0.4,0.4-0.1,0.5,0.2,0.8
			c-0.1-0.1-0.1,0.3-0.3,0.1c0,0.2,0.3,0.5,0.5,0.7c0,0.1-0.1,0.1-0.1,0.2c-0.4-0.1-0.2-0.5-0.6-0.5l0.1-0.4c-0.3-0.1-0.5,0-0.4,0.2
			c0-0.1-0.1-0.2-0.1-0.2c-0.4,0.3,0.4,0.2,0.2,0.5l-0.1-0.2c-0.3,0.1,0.2,0.5,0.4,0.7c0.3,0.1,0.5,0.3,0.7,0.2l-0.2-0.3
			c0.3,0,0.3,0.4,0.5,0.6c0,0,0.1,0,0.1,0c0,0,0,0-0.1,0c0,0,0.1,0,0.2,0c0.2,0.1,0.3,0.4,0.5,0.5l-0.1,0.1l0-0.1
			c-0.1-0.1-0.4-0.2-0.4,0c0.2,0.4,0.5,0.2,0.7,0.1c0.1-0.3-0.3-0.3-0.4-0.5c0.3-0.1,0.3,0.3,0.8,0.4c0.1-0.3-0.4-0.3-0.3-0.6
			c0.3,0.2,0.2,0.4,0.6,0.6c0.1-0.1-0.2-0.4-0.1-0.5l0.2,0.1c-0.4-0.4,0.3-0.2,0-0.6c0.2,0,0.1,0.4,0.4,0.4
			c-0.1,0.1-0.5,0.1-0.3,0.4l0.3,0.1c0.2,0-0.1-0.5,0.2-0.4l0.2,0.3c-0.1,0.1-0.2,0-0.2,0.2c0.2,0,0,0.5,0.1,0.7
			c0.2,0.1,0.3,0.2,0.4,0.1c0.2,0.5,0.7,0.8,0.9,1.3c-0.2-0.3,0.2-0.3,0.4-0.3c-0.3-0.2-0.1-0.5,0-0.6c0.2,0.1,0.1,0.5,0,0.5
			c0.4,0.1,0.1,0.3,0.5,0.3c0.2,0,0.1-0.3,0.2-0.3c0.3,0.2-0.1,0.4,0.3,0.5c0,0,0-0.1,0-0.1c0.2,0.1,0.4,0.3,0.3,0.4
			c0.4-0.2,0.6,0.4,0.7,0c0.4,0.3-0.2,0.1-0.1,0.3c0.1,0.2,0.5,0.3,0.7,0.3c-0.1-0.1-0.2-0.2-0.3-0.2l0.2-0.2
			c0.7,0.1,0.1,0.7,0.8,0.8c-0.2-0.3,0-0.2-0.1-0.4c0.1,0.1,0.5,0.2,0.2,0.3c0.2,0.1,0.4,0.1,0.6,0.1c0.2,0.2,0.3,0.3,0.4,0.5
			c0.3,0.1,0.6,0,0.8,0c0.6,0.4,1.3,0.3,1.9,0.7l-0.1,0c0.6,0.1-0.3,0.2,0.2,0.4c0-0.3,0.4-0.1,0.6-0.2c0.7,0,1.2,0.5,1.9,0.5
			c0-0.1,0-0.1-0.1-0.2c0.5,0,0.9,0.1,1.4,0.2l0,0c0.8-0.1,1.4,0.2,2.1,0.3c-0.1,0-0.1-0.2-0.1-0.2c0.4,0,1-0.1,1.3,0.2
			c0.5-0.3,0.3,0.1,0.9-0.2c0-0.1-0.1,0-0.1-0.1c0.3-0.1,0.5-0.1,0.8-0.1c0.6,0.2,0.8,0.6,1.6,0.4c0-0.4-0.5-0.1-0.5-0.4
			c0.2,0.1,0.3,0.1,0.5,0c-0.1-0.2,0-0.1-0.1-0.2c0.1-0.1,0.7,0.4,0.7,0.3c0,0.1,0,0.1-0.2,0.1c0.2,0.2,0.7-0.1,1.1,0
			c-0.1,0-0.5,0.2-0.3,0.3c0.5-0.2,0.7,0.2,1.1,0.3c0.4-0.3-0.4-0.3-0.4-0.6c0.1-0.1,0.2-0.4,0-0.5c0.4-0.1,0.7,0.1,1.1,0.1l0-0.1
			c0.5-0.1,1.1,0.2,1.5-0.1l-0.2,0.2c0.1,0,0.3-0.1,0.5,0.1c0-0.1,0.2-0.3,0.1-0.4c0.3,0.4,1.2-0.1,1.6,0.2c0.1-0.1-0.1-0.3-0.1-0.4
			c-0.3,0.1-0.4,0.3-0.6,0.1c0.3-0.1,0.4-0.2,0.3-0.3c0.3,0.2,1,0.1,1.2,0.3c0.1-0.2,0.3-0.3,0.1-0.5c0.8-0.2-0.1,0.8,0.8,0.5
			c0.3-0.4-0.5-0.1,0-0.4l-0.1,0c0.2-0.7,0.4,0.3,0.9,0.1c-0.1-0.3-0.4-0.1-0.2-0.4c0.4-0.1,0.8,0.2,1.2-0.1l-0.1-0.1
			c0.3-0.1,0.7-0.4,1-0.5c0-0.1,0,0-0.1,0c0.4-0.4,0.3,0,0.5-0.4l0.2,0.1c-0.1,0.2-0.4,0.6-0.7,0.5c0.3,0-0.2,0.6,0.1,0.7l-0.1-0.1
			c-0.4,0.8-1.3,1.2-2.1,1.7c-0.7-0.1-0.9,0.5-1.6,0.5c-0.2-0.3-0.1,0-0.7,0.1c0.3,0,0.1,0.3,0,0.4c-0.1-0.1-0.3-0.1-0.4-0.1
			c-0.1,0.2-0.7,0.6-1,0.5c-0.3,0.2,0.1,0.1,0.2,0.2c-0.1,0.2-0.3-0.1-0.4,0.1c0,0,0,0,0.1,0c-0.5,0.1-0.8,0.3-1.3,0.4
			c-0.1-0.4-0.5,0-0.8-0.1c0.1,0.1-0.3,0.2-0.4,0.3l-0.3-0.2c-0.3-0.2-0.4,0.2-0.8,0.1l0.1-0.1c-0.3-0.1-1,0.2-1.2,0.4
			c-1.3-0.3-2.2-0.1-3.2,0c-1,0.1-2,0.3-3.3,0c-0.2-0.1,0.2-0.2,0-0.3c-0.3-0.1-0.3-0.1-0.6-0.1c0.2-0.1,0.2,0.1,0.2-0.1l0.4,0.2
			c0,0,0,0,0-0.1c0.1,0.1,0.3,0.1,0.4,0.1c-0.2-0.1-0.2-0.4-0.6-0.3c0,0,0.1,0.1,0.1,0.1c-0.3,0-0.3-0.2-0.5-0.1
			c-0.2,0-0.2-0.1-0.2,0.1l-0.8,0c-0.3-0.4-0.8-0.2-0.9-0.2c0,0.3,0.5,0.2,0.6,0.5l-0.3,0.1l0-0.2l-0.4,0l0,0c0-0.1-0.1-0.2-0.2-0.1
			c0,0-0.1,0.1,0,0.1l-0.2-0.2c0.1,0.2-0.2,0-0.3,0.2c-0.9-0.1-1-0.6-1.9-0.5c0.2-0.1-0.1-0.4-0.4-0.5c-0.2,0-0.2,0-0.1,0.2
			l-0.3-0.2c-0.5,0.2-0.8-0.1-1.4-0.3l0,0.1c-0.2-0.2-0.3-0.4-0.6-0.5l0,0.2c-0.4,0-0.1-0.5-0.6-0.6c0.1-0.2,0.4-0.2,0.5-0.4
			c-0.2,0.2-0.6,0-0.5-0.1c-0.4-0.3-0.3-0.1-0.3-0.1l-0.2-0.2c-0.3-0.1-0.2,0.2-0.2,0.4c-0.2-0.3-0.5-0.3-0.8-0.5l0.1,0.2l-0.4-0.2
			c-0.2-0.3-0.5-0.5-0.8-0.6l0.1,0.4c-0.3,0-0.1-0.2-0.1-0.2c-0.3-0.3-0.4-0.2-0.7-0.2c-0.4-0.6-1.3-0.3-1.6-1l-0.2,0.1
			c-0.4-0.7-1.4-0.9-1.5-1.6c-1.1-0.1-0.1-0.8-1.1-1l0.1,0c-2.1-1.8-4.2-3.9-5.3-6.3l-0.1,0.1c-2.4-3.5-3.5-7.5-4.2-11.6
			c0.1-0.4,0.4-0.2,0.5-0.5c0-0.1,0-0.5-0.2-0.4c-0.1,0.3-0.2,0.1-0.2,0.2c0-0.5-0.3-1.1-0.1-1.5l0.2,0.3c0.1-0.2,0-0.4,0-0.6
			c-0.1,0.1-0.3-0.1-0.4,0c0.4-0.9-0.2-0.7-0.1-1.4c0.4-0.2,0.7-1.1,1.1-1.6l-0.1-0.3c0,0.4-0.3,0-0.3,0.5c-0.1-0.4,0.1-0.8,0.1-1.2
			c0.1,0.1,0.2,0.1,0.3-0.1c0-0.3-0.2-0.3-0.2-0.6l-0.2,0.3c-0.1-0.2,0.1-0.3,0.1-0.5c-0.2-0.1-0.1-0.5-0.3-0.5
			c0.3-0.4,0.2-0.5,0.4-0.9c0.1,0.5,0.2-0.1,0.4,0c0,0.2-0.1,0.3-0.1,0.5c0-0.7-0.1,0.2-0.3,0.1c0.1,0.3,0.5-0.4,0.4,0.2
			c0.2-0.6,0.1-0.8,0.5-1.4c-0.1,0.4,0.2,0,0.2,0.2c0.1-0.5-0.1-0.1-0.2-0.3c0.1-0.3-0.1-0.4,0.2-0.6c0-0.4-0.2,0-0.3-0.2
			c-0.2,0.1,0,1.3-0.6,1c0,0.2-0.3,0.5-0.4,0.8C306.1,444,306,443.6,306.2,443.2z M314.6,431.6C314.6,431.6,314.6,431.6,314.6,431.6
			L314.6,431.6L314.6,431.6z M311,434.1L311,434.1C311.1,434.1,311.2,434.1,311,434.1z M309.1,438c0.3,0,0.3-1.1,0.4-0.9
			c0.3-0.3,0.1-0.3,0-0.3c-0.1,0.4-0.3,0.6-0.3,0.9c0-0.1-0.1-0.1-0.1-0.2C309,437.8,309,437.9,309.1,438z"/>
		<path fill="#AD272D" d="M318.2,426.6l0.2-0.4l-0.1,0l0.1-0.2c0.4-0.1,0.5,0,0.7,0.1C318.7,426.2,318.6,426.4,318.2,426.6z"/>
		<path fill="#AD272D" d="M319,427.4c0,0.1,0,0.2,0,0.3l-0.1-0.1L319,427.4z"/>
		<path fill="#AD272D" d="M316.3,430.4c0.2,0,0,0.4-0.2,0.3L316.3,430.4z"/>
		<path fill="#AD272D" d="M315.7,428.4c0.2-0.1,0-0.1,0.1-0.2l0.2,0C316,428.3,315.8,428.5,315.7,428.4z"/>
		<path fill="#AD272D" d="M315.1,431.7c0.1,0,0.2-0.4,0.4-0.2C315.3,431.4,315.4,431.8,315.1,431.7z"/>
		<path fill="#AD272D" d="M314,429.8c-0.1-0.2,0.2-0.3,0.3-0.5C314.2,429.5,314.2,429.8,314,429.8z"/>
		<path fill="#AD272D" d="M314.3,432.1c-0.1,0.2-0.2,0.6,0,0.7c-0.2,0-0.5,0.1-0.5-0.2c0.1,0.1,0.2,0,0.3-0.2c-0.1,0-0.2,0-0.2,0
			C314.1,432.2,314.1,432.2,314.3,432.1z"/>
		<path fill="#AD272D" d="M314,430.2c-0.1,0.3-0.1-0.2-0.4,0c0.1-0.2,0-0.4,0.2-0.6c0.1,0.1,0.1,0.3-0.1,0.5L314,430.2z"/>
		<path fill="#AD272D" d="M313.5,433.6l0-0.1c0.3-0.1,0.4-0.4,0.7-0.4C314,433.3,313.7,433.6,313.5,433.6z"/>
		<path fill="#AD272D" d="M313,431.1c0.1-0.2,0.1,0.1,0.2,0c0-0.1,0.1-0.2,0.2-0.2c-0.2,0.2,0.2,0.2-0.1,0.3L313,431.1z"/>
		<path fill="#AD272D" d="M312.2,432l-0.1-0.4c0.3-0.3,0.1,0.1,0.4,0.2L312.2,432z"/>
		<path fill="#AD272D" d="M312.4,432.3l-0.6,0.2C312.1,432.3,312,432.3,312.4,432.3L312.4,432.3z"/>
		<path fill="#AD272D" d="M310.7,438.4c0.1,0,0.1,0.4,0.1,0.2C310.7,438.5,310.7,438.2,310.7,438.4z"/>
		<path fill="#AD272D" d="M309.3,436.5c0,0.2-0.4,0.6-0.5,0.7C309,437,309.2,436.4,309.3,436.5z"/>
		<path fill="#AD272D" d="M305.9,446c0-0.2,0.1-0.5,0.2-0.5c-0.1,0.2-0.1,0.4-0.3,0.7C305.8,446.2,305.7,446,305.9,446z"/>
		<path fill="#AD272D" d="M305.8,448.2c0.1-0.1,0-0.3,0.2-0.2C306,448.1,305.9,448.3,305.8,448.2z"/>
		<path fill="#AD272D" d="M312,461.2c-0.1-0.2,0-0.1,0-0.3C312.2,461.1,312.2,461.2,312,461.2z"/>
		<polygon fill="#AD272D" points="312.2,461.4 312.4,461.5 312.1,461.5 		"/>
		<path fill="#AD272D" d="M313,462.4c0,0.1,0,0.1,0,0.1C313,462.4,313,462.4,313,462.4z"/>
		<path fill="#AD272D" d="M312.9,462.3L312.9,462.3C312.9,462.2,313,462.3,312.9,462.3C312.9,462.3,312.9,462.3,312.9,462.3z"/>
		<path fill="#AD272D" d="M313.2,462.5l0,0.3l-0.3-0.1C312.8,462.4,313.1,462.9,313.2,462.5z"/>
		<path fill="#AD272D" d="M313.8,465c-0.6-0.5,0.3-0.6-0.2-1.1c0.3,0.2,0-0.3,0-0.4c0.2,0.1,0,0.7,0.4,0.6
			C314.2,464.8,313.4,464.3,313.8,465z"/>
		<path fill="#AD272D" d="M313.1,463.7c0.1-0.1,0.3,0.1,0.3,0.3C313.3,463.9,313,463.9,313.1,463.7z"/>
		<polygon fill="#AD272D" points="314.2,464.7 314.4,464.8 314.4,464.9 		"/>
		<path fill="#AD272D" d="M314.7,465c0,0.1,0.2,0.3,0,0.3L314.7,465z"/>
		<path fill="#AD272D" d="M315.3,466.1L315.3,466.1c0.1,0,0.3,0.1,0.2-0.1C315.7,466,315.5,466.4,315.3,466.1z"/>
		<path fill="#AD272D" d="M316.7,467.9l0.2,0.3l-0.1,0C316.7,468.1,316.6,468,316.7,467.9z"/>
		<path fill="#AD272D" d="M315.6,468.5c0.2,0.2,0.2,0.1,0.5,0.4C315.8,469,315.8,468.6,315.6,468.5z"/>
		<path fill="#AD272D" d="M317.1,468c0.1-0.1,0.3,0.1,0.2,0.2C317.3,468.1,317.2,468,317.1,468z"/>
		<path fill="#AD272D" d="M317.9,469.4c-0.2-0.3-0.1-0.8-0.5-0.7l0.1-0.5c0.3,0.2,0,0.4,0.1,0.5c0.2,0,0.1-0.1,0.2-0.1
			c0.3,0.1,0.4,0.3,0.5,0.5C318.2,469.1,317.9,469.2,317.9,469.4z"/>
		<path fill="#AD272D" d="M316.5,468.7l0.3,0c-0.1,0.1,0,0.2,0,0.3C316.5,469.3,316.6,468.8,316.5,468.7z"/>
		<polygon fill="#AD272D" points="319.4,470.5 319.2,470.2 319.5,470.6 		"/>
		<polygon fill="#AD272D" points="319.5,470.3 319.6,470.3 319.8,470.6 		"/>
		<polygon fill="#AD272D" points="319.7,470.3 320,470.5 319.9,470.5 		"/>
		<path fill="#AD272D" d="M320.4,470.8c0,0.1,0.3,0.2,0.4,0.2l-0.1,0.1C320.5,471,320.3,471,320.4,470.8z"/>
		<path fill="#AD272D" d="M322,475.4l0,0.3c0,0-0.1-0.1-0.2-0.1C321.8,475.5,321.9,475.5,322,475.4z"/>
		<path fill="#AD272D" d="M322.6,475.6l0.2,0.4c-0.4-0.1-0.4-0.4-0.7-0.6c0.2,0,0.3,0.3,0.5,0.3L322.6,475.6z"/>
		<path fill="#AD272D" d="M329.4,477.5c0.3,0.2,0.7,0.2,1.1,0.3c-0.1,0.1,0.2,0.3,0,0.3l-0.5-0.2l0,0.1c-0.4,0.1-0.2-0.2-0.5-0.2
			C329.6,477.6,329.7,477.6,329.4,477.5z"/>
		<path fill="#AD272D" d="M347.5,473.6c0.2,0,0.1,0.2,0,0.2C347.5,473.7,347.5,473.6,347.5,473.6z"/>
		<path fill="#AD272D" d="M347.6,473.8C347.6,473.8,347.6,473.8,347.6,473.8C347.6,473.8,347.6,473.8,347.6,473.8z"/>
	</g>
	<path d="M275.5,109.4c-1.1,0-3.7,0-4.2-0.2c0.1-0.1,0.2-0.1,0.2-0.2l-0.2,0.2c0.3,0,0.7,0.1,1.2,0.1c-0.3-0.1-0.6-0.2-0.9-0.2
		c1-1,1.8-1.9,2.6-3c-0.1,0-0.1-0.1-0.1-0.2c0-0.1,0.2-0.3,0.2-0.5c0.2-0.3,0.6-0.8,1-1.3c0.8-1,1.7-2,1.9-2.7
		c2.1-2,3.7-4.3,6.1-6.6c-0.4,1.2,0.7-0.7,1-0.1c0.6-0.5,0.8-0.7,0.8-0.8l-0.1,0.1l0.1-0.1l0,0l1.5-1.9c0.3-0.5-0.6,0.4-0.7,0.3
		c1.2-1.2,0.4-0.7,1.1-1.5c0,0.3,0.6-0.2,1.3-0.9l-0.8,1.1c2-1.4,1.2-1.7,3.2-3.1l-0.7,0.4c1-0.7,3.5-3,4.7-3.4
		c0.1-0.2,0.3-0.5-0.2-0.2c2.3-1.9,5.5-3.6,7.2-5.2l-0.3,0c0.5-0.3,0.9-0.3,1.4-0.8c-0.1,0-0.3,0-0.1-0.1c0.3-0.1,1.3-0.6,1.9-1.1
		l-0.6,0.2c2.3-1.7,3.9-2.1,6-3.2c-0.2-0.3,1.7-1.6,2.6-2.2l-0.1,0c2.9-1.7,5.2-2.4,8.1-3.5c1.6-1.2,5.9-2.8,8.7-4.1
		c-0.4,0.2,0.2,0.3,0.7,0.1c0.7-0.3,2-0.4,1.7-0.7l-0.2,0.1c0.4-0.5,1.8-0.9,2.9-1.3l0.3,0.4c2.7-1.6,7.7-2,9.2-3
		c0.7-0.1,1.6-0.3,2.4-0.3l-0.1-0.2c2-0.5,3-0.7,5.5-1.1l-0.5-0.1c1.4-0.3,1.9,0.4,3.2,0.2l0.3-0.4c2.4-0.4,4.9-1,7.4-0.9
		c0-0.1-0.1-0.2-0.5-0.1c1.2-0.2,4.5-0.7,4.1-0.1c0-0.4,2.5-0.2,3.9-0.1l-0.2-0.2c1.1,0.3,1.2,0.4,2.8,0.4c0.4,0,0.3-0.2-0.2-0.1
		c1.2-0.2,1,0.2,2.5,0l-0.6-0.2c1.3-0.1,1.2,0,1.9,0.2c0.8,0.1,2.4-0.1,2.6-0.3c0.2,0.1,0.9,0.3,1.6,0.3c0.1-0.1-0.2-0.1-0.3-0.2
		c2.1-0.2,3.2,0.4,4.6,0.2c0-0.1,0.1-0.1,0.3-0.1c-1.7-0.1-3.1-0.1-2.9-0.1c0-0.2,1.4-0.2,0.3-0.6c1.1,0.2,3,0.7,4.3,0.6
		c0.1,0,0.1,0,0.2-0.1l-0.1,0c0.3,0,0.6,0,0.8,0.1c0.4,0,0.7,0,1.1,0c0.2-0.2,1.6,0,2.3,0c-0.1,0.3,0.8,0.3,0,0.4
		c0.1,0-0.1,0-0.6-0.1c-0.1,0-0.2,0-0.3,0l0,0l-1.7-0.1c0.5,0.2,1.1,0.3,1.8,0.2c0.3,0.2,0.7,0.4,0.9,0.5c1-0.3,2.8-0.3,3-0.5
		c2.1,0.3,4.9,0.6,6.1,1.3c0.6,0.1,0.7-0.1,0.9-0.1c-0.3-0.1-0.7-0.1-0.9-0.2c1.2,0.3,3.5,0.5,3.7,0.9c1.5,0.1-0.8-0.4,1.2-0.1
		l-0.3-0.1c4.1,0.1,6.3,1.9,10.8,2.1c-0.3,0-0.5,0-0.5,0c5.1,0.7,10.2,2.6,15.1,3.4c1.4,0.3,1.5,0.5,2.3,0.9l0.4-0.2l1.3,0.7
		c2,0.8,3.7,0.4,6.1,1.6l-0.4,0.1c0.9,0.3,2.9,1,2.8,0.8c0.1,0.1,0.2,0.3,0.6,0.3l0.1-0.1l2.2,1c1.8,0.5-0.1-0.6,2.5,0.2
		c0.1,0,0.2,0.1,0.3,0.1l-0.1-0.2c0,0,0.2,0,0.2,0.1l1,0.3c1.2,0.4,2.4,0.7,3.4,1.1l-1.9-0.8c1.1,0.5,2,0.8,2.9,1.1l-1-0.2l0.7,0.2
		l0.3,0.1l0.2,0.1c0.2,0.1,0.3,0.1,0.3,0c0.6,0.4-0.6,0.2,0.5,0.8c0.8,0.2,2.4,1,2.7,0.9c-2.5-0.9,0.4-0.2-1.7-1
		c0.4,0.2,0.9,0.4,1.5,0.6c0.1,0-0.1-0.1-0.2-0.2c2.5,0.7,1,0.7,3.4,1.7c-0.3-0.3,0.7-0.1,1.1,0.1c-1-0.4-0.6,0.1,0.3,0.5
		c1.6,0.5,1.7,0.8,2.5,1.1l-1-0.3c0.3,0.3,1,0.6,2.1,1.1c0.1-0.1-1-0.5-0.5-0.4c1.1,0.8,2.8,0.9,4.4,1.8c0.8,0.2,0.2-0.2,0.9,0
		c1.8,1,2.1,0.7,4,1.8c-0.7-0.1-0.7-0.2,0.6,0.7l-3.1-1.6l1.9,1.2c-1-0.4-2-1.1-2.6-1.3c0.9,0.6,0.8,0.5,0.3,0.5
		c1.5,0.3,2.6,1.4,4.2,1.9l0.2-0.5c2.4,0.9,4,2.2,7,3.5l-1-0.4c0.3,0.4,1.8,0.9,2.7,1.5c0-0.2,0.6,0,1.1,0.1
		c-0.1,0.1,2.1,1.1,2.2,1.6l1.4,0.5c2.4,1.2,2.4,1.9,4.7,3.1c-0.6-0.5,0.5-0.1-0.9-1.1c0.8,0.4,1.4,0.8,1.4,0.9
		c0.5,0.1,1.9,1.4,2.7,1.6c0.3,0.2,0.3,0.5,1.1,0.9c0.1,0,0-0.1,0-0.1c0,0.1,1.2,0.9,0.4,0.6c2.6,0.8,6.3,3.8,8.4,4.7l4.8,3.3
		c-0.1-0.1,0-0.1-0.2-0.2c2,1.2,0.9,1.2,3.2,2.6c1.3,0.5-1.1-0.9-0.3-0.5c0.6-0.3,2.6,1.9,4.2,2.7l-0.3-0.3c1.2,0.6,2.5,2.2,4.3,3.5
		c0,0-0.1-0.1,0-0.1c1,1.2,3.2,3.1,4.8,4.5c-0.4-0.6-0.7-0.7-0.2-0.6c0.7,0.6-0.5,0.1,1,1.4c0.6,0.3,1.7,1.1,2,1l-1.4-1.2
		c0.9,0.4,1.8,1.5,2.5,2.1l0-0.2c2.1,1.9,1.8,2.2,4,4.2l-0.3-0.1c0.9,1.4,1.1,0.8,2.1,2.1l0.6,0.1c0.7,0.8,2.4,2.9,3.7,4.3
		c-0.6-1-2.1-2.7-2.9-3.8c0.8,0.7,2.6,2.6,2.8,3.1c-0.3-0.3-0.6-0.8-0.9-1c0.7,1.1,1.8,2.5,3.3,4c0.3-0.8,3.9,4,5.2,4.8
		c2.2,3.1,4.8,5.7,7.4,9.4c-1.4-0.9,0.7,1.1,0.1,1.2c0.5,0.8,0.8,1.2,0.9,1.2l-0.1-0.2l0.1,0.2l0,0c0.7,0.8,1.3,1.6,2,2.4
		c0.5,0.5-0.4-0.9-0.3-0.9c1.3,1.9,0.7,0.7,1.7,1.8c-0.3-0.2,0.2,0.8,0.9,1.9l-1.2-1.4c1.4,2.8,1.8,2.1,3.2,4.9l-0.4-1
		c0.7,1.4,3,5.2,3.3,6.9c0.2,0.2,0.5,0.5,0.2-0.2c1.8,3.4,3.3,8,4.6,10.7l0-0.3c0.2,0.7,0.2,1.3,0.7,2.1c0-0.1,0-0.3,0.2,0
		c0.1,0.4,0.5,1.9,0.8,2.8l-0.1-0.8c1.4,3.5,1.5,5.6,2.3,8.7c0.4-0.1,1.3,2.7,1.7,4.2l0-0.1c1.1,4.3,1.3,7.4,1.7,11.5
		c0.8,2.4,1.3,8.5,1.7,12.5c-0.1-0.6-0.3,0.1-0.3,0.8c0.1,1-0.2,2.6,0.2,2.5l0-0.3c0.4,0.7,0.3,2.7,0.3,4.2l-0.5,0.3
		c0.3,2,0.2,4.6,0,7c-0.2,2.4-0.5,4.5-0.3,5.7c-0.2,1-0.3,2.1-0.6,3.1l0.3,0c-0.2,2.7-0.4,4-1,7.3l0.3-0.6c-0.3,1.9-1.1,2.2-1.4,3.9
		l0.3,0.6c-0.6,3.2-1,6.5-2.1,9.5c0.1,0,0.2-0.1,0.3-0.6c-0.3,1.5-1.2,5.8-1.6,5.1c0.3,0.1-0.9,3.2-1.5,4.9l0.3-0.2
		c-0.7,1.3-0.8,1.3-1.5,3.3c-0.1,0.4,0,0.5,0.1,0.1c-0.2,0.6-0.4,1.1-0.5,1.4c-0.2,0.4-0.4,0.8-0.8,2.2l0.4-0.7l-0.3,0.8l-0.1,0.3
		c0,0,0,0.1,0,0.1l-0.1-0.1l-0.1-0.1c-0.3-0.3-0.4-0.5-0.6-0.6c-0.3-0.4-0.5-0.7-0.9-1.2c-0.2-0.3-0.5-0.6-0.8-0.9
		c-0.3-0.2-0.5-0.5-0.8-0.7c-0.5-0.5-1-0.8-1.2-0.8c-0.1-0.3-0.6-1.1-1.3-1.7c-0.2,0,0.1,0.3,0.2,0.4c-2.1-1.9-2.7-3.2-4.2-4.5
		c-0.1,0-0.2,0-0.3-0.1c1.5,1.6,2.8,2.9,2.7,2.8c-0.2,0.2-1.4-1.1-0.7,0.1c-0.9-1.2-2.3-3.2-3.5-4.5c-0.1,0-0.1-0.1-0.2-0.1l0.1,0.2
		c-0.3-0.3-0.5-0.6-0.7-0.8c-0.4-0.4-0.7-0.6-1-1c-0.3,0-1.5-1.5-2.1-2.1c0.2-0.1-0.6-1,0.3-0.3c-0.1-0.1,0.1,0.1,0.5,0.6
		c0.1,0.1,0.2,0.2,0.2,0.3l0-0.1l1.5,1.7c-0.4-0.6-0.8-1.2-1.6-1.9c-0.2-0.5-0.4-0.9-0.5-1.2c-1.1-0.7-2.8-2.3-3.2-2.4
		c-1.7-2.2-4.1-5-4.8-6.6c-0.4-0.6-0.7-0.6-0.9-0.8c0.2,0.4,0.6,0.8,0.7,1c-0.9-1.3-2.9-3.6-2.9-4.1c-1.3-1.4,0.4,1.1-1.2-1.1
		l0.1,0.3c-3.7-3.8-4.7-7.3-8.7-11.6c0.3,0.3,0.4,0.5,0.5,0.5c-4.3-5.2-7.9-11.3-12-16.5c-1.1-1.5-1.1-1.8-1.6-2.8l-0.5-0.2
		l-0.8-1.8c-1.3-2.4-3.2-3.6-4.8-6.9l0.4,0.3c-0.7-1-2.1-3.4-2.1-3.1c0-0.1-0.1-0.5-0.4-0.8l-0.1,0l-1.4-2.8c-1.4-2-0.3,0.6-2.2-2.4
		c-0.6-1.1-1.6-3.4-1.2-3c0.3,0.4,0.8,1.1,0.9,1.1l-0.6-1.1c0,0,0-0.1,0-0.1c0-0.1-0.1-0.1-0.1-0.2c-2.4-4-4.8-8.1-7.1-12.2l0,0.2
		l-0.2-0.4c-0.3-0.5-0.6-1.1-0.9-1.6c0,0.1,0,0.2,0.2,0.6c-0.8-1.1-0.5-1.1-1.2-2c-0.1-0.1-0.1,0,0,0.1l-0.5-1.2
		c0.1,0.3-0.3-0.1,0.1,0.6c-1.3-1.9-1.6-3.4-2.3-4l0.1,0.2c-1.1-2.2-0.5-1.3-0.5-1.7c-0.2-0.4-0.5-0.9-0.7-1.3l-1-0.8l0.1-0.4
		c-0.2-0.3-0.5-0.9-0.5-0.7c-0.4-1.2,0.2,0.1,0-0.6c-1-1.3-2-3.9-2.6-4c-0.1-0.6,0.9,1.3,0.2-0.3c-0.7-0.2-0.9-1.8-1.7-3
		c0,0.5,0.8,1.7-0.1,0.5c0-1-1.4-2.5-1.9-3.6c0.3-0.2-1.1-2.4-2-4.3c0,0.2-2-3.4-2.9-5l0,0.1c0.1-0.5-0.8-2.2-1.4-3.6
		c-0.2,0.1-0.1,0.4,0.2,1.2l-0.6-1.2c0-0.3-0.2-0.7-0.5-1.5l-0.1,0.4c-0.8-1.6-1.4-3.4-2.5-5.4c0.1-0.1,0.7,0.5,0.8,0.3
		c-0.2-0.4-0.4-0.8-0.6-1.1c-0.1,0.1-0.1,0.2,0.1,0.5c-0.1-0.2-0.2-0.7-0.5-1.1l0.2,1c-0.6-0.9-0.1-0.6-0.5-1.3
		c-0.2,0.1-0.4-0.5-0.5-0.3c0.1,0.2,0.4,0.6,0.5,1c-0.5-0.8-1.1-1.8-1.3-2.1c0.1,0,0.2-0.1-0.1-0.7c-0.8-1.6-0.5-0.5-1-1.4
		c-0.1-0.4-0.7-1.4-0.5-1.6c-0.2-0.5-0.4-0.5-0.5-0.7c-0.3-0.9-1.9-4-1.1-3.1l0.1,0.2l-0.1-0.1c-1.1-2.9-2.9-5.7-4.1-8.5l-0.1,0
		c-0.7-1.7-1.6-3.7-2-5c-0.2-0.5-0.7-1.1-0.7-0.8c-0.5-1.3-0.5-1.5-1.5-3.2c0.4,1.3-0.3-0.4,0.5,1.4c-0.8-1.6-1.1-1.9-1.7-3.8
		c0.1,0.7-0.8-1.1-1.1-1.9l0.7,1.1c-0.4-0.9-0.7-1.7-1.1-2.4l-0.1,0.5c-1.9-3.2-2.1-6.4-3.8-8.7c-0.2-1,0.9,1.8,0.8,0.9
		c-0.7-1.5-1.8-3-2-3.5c-1.1-2.1-0.5-2.2-1.5-4.4c0.2,0.2,0.6,0.4,0-1.3c-0.7-1.5-1.2-1.7-0.9-0.7c0.2,0.4,0.3,0.5,0.3,0.5
		c0.2,0.5,0.4,1.2,0,0.6l0-0.2c-0.4-0.7-1.3-2.9-1.3-2.3c-0.4-1.2,0-0.6,0.4,0.3c-1-2-1.3-3.1-2.3-5.2c0.2,0.3,0.4,0.6,0.3,0.2
		c-1.4-3-0.4-1.4-1.2-3.5c-0.8-1.5-0.2,0.7-1.2-2.3c-0.1-0.2-0.2-0.3-0.2-0.5c-0.1,0-0.2,0-0.3,0c0,0.2,0.1,0.4,0.2,0.6
		c-0.1-0.2-0.1-0.4-0.2-0.6c-0.1,0-0.3,0-0.4-0.1c-1.5,0.7-4.5,2-8.5,3.7l0.1,0l-0.3,0.1c-0.4,0.2-0.8,0.3-1.3,0.5
		c0.1,0,0.2,0,0.5-0.1c-0.9,0.6-0.9,0.2-1.6,0.7c-0.1,0.1,0,0.1,0.1,0l-1,0.3c0.2,0-0.1,0.3,0.5,0c-1.6,0.9-2.7,0.8-3.3,1.3l0.1,0
		c-1.7,0.6-1.1,0.2-1.4,0.1c-0.3,0.1-0.7,0.3-1.1,0.4l-0.6,0.7l-0.3-0.2c-0.2,0.1-0.7,0.3-0.6,0.4c-0.9,0.2,0.1-0.2-0.5-0.1
		c-1,0.7-3.2,1.1-3.3,1.6c-0.5,0,1-0.6-0.2-0.2c-0.2,0.6-1.4,0.4-2.4,1c0.4,0.1,1.3-0.4,0.4,0.2c-0.8-0.2-2,0.8-2.9,1.1
		c-0.2-0.3-2,0.6-3.5,1c0.1,0.1-2.7,1.1-4.1,1.7l0.1,0c-0.4-0.2-1.8,0.3-2.8,0.6c0.1,0.2,0.3,0.2,0.9,0.1l-1,0.3
		c-0.3,0-0.6,0-1.2,0.2l0.3,0.2c-1.3,0.4-2.7,0.6-4.4,1.3c-0.1-0.1,0.4-0.6,0.3-0.7c-0.3,0.1-0.6,0.2-0.9,0.3
		c0.1,0.1,0.2,0.1,0.4,0.1c-0.2,0-0.6,0.1-0.9,0.2l0.8,0c-0.7,0.3-0.5,0-1.1,0.2c0.1,0.2-0.4,0.3-0.3,0.4c0.2,0,0.5-0.2,0.8-0.2
		c-0.7,0.3-1.5,0.6-1.7,0.8c0-0.1-0.1-0.2-0.6-0.1c-1.3,0.4-0.4,0.3-1.1,0.7c-0.4,0-1.2,0.4-1.3,0.1c-0.4,0.1-0.4,0.3-0.5,0.4
		c-0.7,0.1-3.2,0.9-2.5,0.4l0.2-0.1l-0.1,0c-2.3,0.4-4.6,1.5-6.9,2l0,0.1c-1.4,0.3-3,0.8-4,0.8c-0.4,0.1-0.9,0.4-0.7,0.5
		c-1,0.2-1.2,0.1-2.6,0.7c1.1-0.1-0.3,0.2,1.1-0.2c-1.3,0.4-1.6,0.6-3.1,0.8c0.5,0.1-0.9,0.5-1.6,0.6l0.9-0.4
		c-0.7,0.1-1.3,0.3-2,0.5l0.4,0.2c-2.6,1-5.1,0.6-7,1.7c-0.8,0,1.5-0.5,0.7-0.6c-1.2,0.3-2.5,1.1-2.9,1.2c-1.7,0.6-1.7-0.1-3.5,0.4
		c0.2-0.2,0.4-0.5-1-0.3c-1.3,0.3-1.5,0.8-0.6,0.7c0.3-0.1,0.4-0.1,0.4-0.2c0.4,0,1-0.1,0.5,0.1l-0.2-0.1c-0.6,0.2-2.3,0.6-1.9,0.7
		c-1,0.1-0.4-0.1,0.3-0.3c-1.6,0.5-2.5,0.5-4.2,1c0.3-0.1,0.5-0.3,0.2-0.2c-2.4,0.6-1.1,0-2.8,0.3c-0.9,0.3,0.4,0.3-1.3,0.5
		c-1,0.3-0.2,0.3,0.3,0.3c-1.6,0.1-2.8,0.7-3.7,0.9l0.8-0.1c-0.5,0-0.9,0.1-1.3,0.2l0.4-0.3c-0.5,0.1-0.9,0.2-0.8,0.3
		c-0.5-0.1,0.3-0.4-0.7-0.4c-0.6,0.2-1.9,0.2-2.1,0.5c2-0.4-0.2,0.3,1.5,0.1c-0.3,0-0.7,0.1-1.2,0.2c-0.1,0,0.1,0,0.2,0
		c-1.9,0.6-0.9-0.2-2.9,0.2c0.3,0.1-0.4,0.4-0.7,0.4c0.8-0.1,0.3-0.3-0.4-0.3c-1.2,0.3-1.4,0.1-2.1,0.2l0.7-0.2
		c-0.3-0.1-0.9,0-1.8,0.1c-0.1,0.1,0.8,0,0.5,0.1c-1-0.1-2.2,0.6-3.6,0.6c-0.6,0.2,0,0.3-0.6,0.5c-1.6,0-1.6,0.5-3.3,0.5
		c0.4-0.3,0.5-0.2-0.6-0.3l2.7-0.2l-1.7-0.1c0.8-0.1,1.7-0.1,2.2-0.2c-0.8-0.1-0.7,0-0.4-0.3c-1.1,0.5-2.2,0.1-3.4,0.5l0.1,0.5
		c-1.9,0.5-3.4,0.2-5.9,0.6l0.8-0.2c-0.4-0.2-1.5,0.2-2.3,0.2c0.1,0.2-0.4,0.3-0.7,0.4c0-0.1-1.8,0.2-2.1-0.1l-1.1,0.4
		c-2,0.3-2.3-0.3-4.3,0c0.6,0.1-0.3,0.4,1,0.4c-0.6,0.1-1.2,0.2-1.2,0c-0.4,0.2-1.8-0.1-2.4,0.2c-0.3-0.1-0.4-0.2-1.1-0.2
		c-0.1,0,0,0.1,0,0.1c0-0.1-1.1,0-0.5-0.3c-1.9,0.7-5.6,0.4-7.2,1c-1.4,0-3.1,0.1-4.4,0.2c0.1,0,0,0.1,0.3,0.1
		c-1.8,0.3-1.1-0.5-3.1-0.2c-1,0.3,1.1,0.1,0.4,0.2c-0.2,0.6-2.4,0-3.8,0.5l0.3,0c-1,0.3-2.5-0.1-4.2,0c0,0,0.1,0,0,0.1
		c-1.2-0.3-3.4-0.3-5-0.3c0.5,0.2,0.7,0.1,0.4,0.4c-0.7,0,0.2-0.4-1.3-0.4c-0.5,0.1-1.5,0.3-1.7,0.5l1.4,0c-0.7,0.3-1.8,0-2.5,0.1
		l0.1,0.1c-2.1,0-2.1-0.4-4.4-0.3l0.2-0.1c-1.2-0.4-1,0.2-2.3-0.1l-0.4,0.4l-4.4-0.4l0.5-0.6c-0.2,0.2-0.5,0.4-0.7,0.7
		C272.6,109.1,274.3,109.2,275.5,109.4z M389.2,56.8L389.2,56.8c0,0,0-0.1-0.1-0.1c-0.5-0.1-0.6,0-0.7,0L389.2,56.8z M556.1,257.6
		L556.1,257.6c0,0,0,0.1,0,0.2c0.4,0.5,0.5,0.6,0.6,0.6L556.1,257.6z M499.2,174.6c0.1,0.1,0.1,0.1,0.1,0.1
		c-0.1-0.2-0.2-0.4-0.4-0.6C499,174.3,499.1,174.5,499.2,174.6z M437,76.9C437,76.9,437,76.9,437,76.9c-0.1,0-0.2,0.1-0.4,0.1
		C436.7,77,436.8,77,437,76.9z"/>
	<g>
		<path fill="#AD272D" d="M765.8,267.6l0.2,0.2C766,267.8,765.9,267.8,765.8,267.6z"/>
		<polygon fill="#AD272D" points="774.1,275.6 774.1,275.6 774.1,275.5 		"/>
		<path fill="#AD272D" d="M746.9,267c0.8-0.5,1.9-0.2,2.4,0.7l0,0l0.2,0.4l0,0.1l0.3-0.1c0.1,0.1,0.1,0.3,0.1,0.5l0,0
			c0.2,0,0.2,0.3,0.1,0.6c0.2,0.7,0.5,1.3,1,2c-0.2,0.5,0.4,1.1,0.3,1.5c0.2,0,0.8,1.5,0.7,0.5c0-0.1-0.1-0.2-0.1-0.2l0.2-0.2
			c0.8,0.6,0.6,1.6,1.1,2.4c-0.2-0.2-0.4-0.5-0.4-0.2l0.5,0.7l0.1-0.3c0.3,0.3,0.5,0.7,0.8,1l-0.3,0c0.4,0.5,0.9,0.4,1,1.2
			c0,0.4-0.6-0.3-0.3,0.3l2.3,2.1c-0.3,0.1-0.1,0.3,0.1,0.6l0.2-0.1c0.5,1,0.6-0.1,1.2,0.8l0-0.2l-0.1,0.6c0.4,1,0.7-0.1,1.1,1.1
			c-0.3-0.3-0.5,0.3,0,0.5l0-0.3c0.2,0.2,0.2,0.3,0.4,0.4c-0.1-0.2,0.1-0.3,0.4-0.1l-0.1-0.4c0.1,0.2,0.3,0.5,0.4,0.7
			c0.6,0,1.4,0.6,1.7,0.3c0,0,1.2,0.1,1.5,0.5c-0.2-0.2,0.5-0.3,0.3-0.5c0.3,0.3,1.2,0.5,1.5,0.2l-0.1,0c0.6-0.2,1.1-0.2,1.6-0.3
			c0.5-0.1,1-0.3,1.3-0.7c0.1,0.3,0.5-0.2,0.6,0.1c0.6-0.3,0.7-0.8,0.9-1.2c0.1-0.4,0.2-0.7,0.8-0.7c0.2-0.5-0.1-0.7-0.1-1l-0.1,0.1
			c0.2-0.9,0.2-1.3,0-2.1c0-0.4,0.5-0.6,0.2-1.4c-0.1,0.3-0.2,0-0.3-0.3c0,0.2,0,0.3-0.3-0.1c0-0.1,0.1-0.2,0.1-0.3c0,0,0,0-0.1,0
			c-0.1-0.5,0-0.4,0.1-0.2c0,0,0.1,0,0.1,0c-0.4-0.4-0.5-1.4-0.9-1.3c-0.6-1.5-0.8-2.6-1.3-3.9c-0.2,0-0.2,0.3-0.1,0.7l-0.4-0.9
			c-0.2,0.1,0.1,0.5,0.2,0.8c-0.9-0.8-0.8-2.2-1.9-3.2l0-0.3l-0.1,0c0.1-0.1,0.1-0.4,0-0.6c-0.3,0-0.4,0.3-0.8-0.3
			c-0.5-0.3-0.7-1.3-1-1.9c0.2,0.3,0.3,0.1,0.3-0.1c-0.2-0.3-0.5-0.3-0.5-0.6l-0.3,0.1c0.3-0.1-0.3-0.9-0.2-1.1
			c-0.3,0,0.1,0.5,0.1,0.7l-1.1-1.6c-0.2-0.7,0.3-0.1,0.3-0.5c-0.3-0.5-0.5-1.2-1.1-1.6l0.4,0c-0.6-1.1-1-1.6-1.7-2.1
			c-1.9-4.1-1.8-5-1-4.8c0.8,0.2,2.1,1.4,2.1,1.4c2.7,2.4,3.3,4.3,5.6,7.9c1.1,1.5,1.9,2.4,2.7,3.4c0.7,1,1.5,2,2.3,3.8
			c0.9,1.7,1.7,3.6,2.3,5.5c-0.1,0.5,0.1,1.2,0.3,1.9c0.1,0.7,0.2,1.5,0,2.1c0.1,0.2,0.1,0.3,0.2,0.5c-0.2,0.5-0.3,0.9-0.3,1.4
			l0.1,0c-0.3,0.6-0.5,1.4-0.8,1.6l0.1,0c-0.1,0.2-0.3,0.5-0.4,0.7l0.2-0.1c-0.8,0.9-1.6,1.8-2.4,2.5l-0.1-0.3
			c-0.8,0.8-1.5,1.1-2.2,1.3c-0.7,0.2-1.3,0.3-2.2,0.7l0,0.1c-1.2-0.2-2.1-0.1-3.1-0.1c-0.9,0-1.9-0.1-2.9-0.8
			c0.2,0.2-0.2,0.1-0.2,0.2c-0.5-0.2-1-0.4-1.4-0.7c-0.4-0.3-0.5-0.5-0.4-0.8c-0.7-0.4-0.6-0.2-0.8-0.1c0.1-0.2-0.4-0.6-0.8-1
			l0.2,0.2c-0.4-0.4-0.8-0.7-1.2-1.1l0.5-0.1c-0.7-0.5-0.5,0.3-1.1-0.4l0.3-0.3c-0.9-0.8-1.8-0.9-2.7-1.6c-0.5-0.6-0.9-1.2-1.3-1.8
			c0,0.8-0.1,1.6-0.3,2.4c-0.3,1.8-1,3.5-1.6,4.6c-0.9,1.6-1.5,3.5-2.4,5.3c-0.9,1.8-2.1,3.6-3.6,4.6c0,0.1-0.4,0.3-0.4,0.2
			c-0.8,0.8-1.6,1.6-2.5,2.3c0,0-0.8,0.7-1.9,1.4c-1.1,0.7-2.5,1.6-3.7,2c-1.2,0.5-2.1,0.6-2.1,0c0-0.5,0.9-1.6,2.8-3.9l-0.1,0
			c1.3-1.1,2.1-1.8,3.3-2.2c-0.2-0.5,1-0.9,1.2-1.3l-0.1,0c1.1-0.4,1.3-1.7,2.2-2.2c-0.1,0-0.2-0.1-0.3,0.1c0.5-0.5,1.2-1.1,1-1.4
			c1.1-1.2,2.1-3.3,3-4.1l-0.1,0c0.6-0.4,0.4-0.7,0.8-1.3c0-0.1,0-0.1,0-0.1c0.6-0.5,0.7-1.9,0.9-2.3l-0.2-0.1
			c0.1-0.4,0.2-0.9,0.3-1.3l-0.1,0.5c0.6-0.1-0.2-1.1,0.3-2c0-0.9,1.4-1.8,1.1-2.8c0.3-0.5-0.4,0.4-0.2-0.3c-0.3,0-0.2,0.3-0.4,0.1
			c0.1-0.7-0.3-1.1-0.2-1.9l-0.2,0c0.3-1.1-0.5-2-0.3-2.7c0-1.1-0.8-0.6-0.6-1.8l-0.4-0.3c-0.2-0.4,0.3-0.4,0-0.9
			c-0.2,0.1-0.4-0.6-0.4-0.2c-0.1-0.2-0.3-0.5-0.3-0.7l0.3-0.1c0,0,0,0,0-0.1C745.8,268.5,746.1,267.5,746.9,267z"/>
		<path fill="#AD272D" d="M764.1,320.3l-0.2,0C764,320.3,764,320.3,764.1,320.3z"/>
		<polygon fill="#AD272D" points="760.5,314.6 760.5,314.6 760.4,314.7 		"/>
		<path fill="#AD272D" d="M762.3,291.6c0.5-0.4,1-0.8,1.5-1.2c0,0,1.9-1.3,3.3-1.6c0.7-0.2,1.3-0.1,1.4,0.4c0.1,0.5-0.3,1.3-1.2,2.8
			l0.1,0.1c-0.7,0.7-1.1,1-1.9,1c0.2,0.5-0.6,0.5-0.6,0.7l0,0c-0.7,0-0.7,1-1.3,1c0,0,0.2,0.1,0.2,0.1c-0.3,0.2-0.8,0.5-0.6,0.7
			c-0.7,0.5-1.3,1.5-2,1.7l0.1,0c-0.5,0.1-0.3,0.3-0.6,0.5c0,0,0,0.1,0.1,0.1c-0.5,0.1-0.5,0.8-0.7,1l0.2,0.1
			c-0.1,0.2-0.2,0.4-0.2,0.6l0-0.2c-0.6-0.1,0.2,0.5-0.2,0.9c0,0.2-0.3,0.4-0.6,0.6c-0.3,0.2-0.5,0.5-0.3,0.8
			c-0.2,0.3,0.4-0.3,0.3,0.1c0.3-0.1,0.2-0.2,0.4-0.2c-0.1,0.4,0.4,0.4,0.3,0.9l0.2-0.1c-0.2,0.7,0.7,0.7,0.5,1.2
			c0.1,0.6,0.8-0.1,0.7,0.6l0.4-0.1c0.2,0.1-0.2,0.4,0.1,0.4c0.1-0.1,0.3,0.1,0.4-0.1c0.3,0.1,0.4,0.3,0.6,0.5
			c0.2,0.2,0.4,0.5,0.9,0.4c0,0.4,0.4,0.4,0.4,0.7c0-0.1,0.2,0,0.4,0c0,0,0.2,0,0.2,0c0.1,0-0.1-0.1-0.1-0.3c0,0-0.1-0.1-0.1,0
			l0-0.2c0.2-0.2,0.7,0.1,1.1,0.3c0.4,0.2,0.7,0.4,1.2,0.4c-0.4,0-0.7,0-0.6,0.1c0.3,0,0.6,0.1,0.9,0.1c0-0.1,0-0.1,0-0.2
			c0.5,0,1.1,0,1.7-0.1l-0.5,0.2c0.4,0,0.8-0.2,1.2-0.3c0.3,0.1,0.4,0.2,0.3,0.6c-0.2,0.3-0.7,0-0.5,0.3c0.5,0.2,1.2,0.5,1.4,0.7
			c-0.3,0.1-0.2,0.1-0.2,0.2l0.2-0.1c0,0.2,0.5,0,0.4,0.2l0.1,0l-0.2,0.1c0,0.1,0.1,0.1,0.1,0.1c0.1,0,0.1,0,0.1,0l0,0l0,0
			c0,0-0.1,0-0.1,0c0,0,0.1,0,0.1,0c0,0,0,0,0,0c0,0-0.1,0.1-0.1,0.1c0.1,0,0.1,0,0,0l0.1-0.1c-0.1,0.1-0.1,0.1-0.2,0.2
			c0,0.1-0.3,0.4-0.1,0.4c0,0,0.1,0.4-0.3,0.6c0.3-0.1,0.3,0.1,0.7,0c-0.3,0.2-0.6,0.7-0.2,0.9l0,0c0.1,0.1,0.1,0.3,0.2,0.4
			c-0.7,0.4-1.5,0.8-2.1,1.1c-0.6,0.3-1.1,0.6-1.5,1.1c-0.2-0.2-0.7,0.4-0.8,0c-0.3,0.2-0.6,0.4-0.8,0.6c-0.2,0.2-0.2,0.3-0.3,0.5
			c-0.1,0.3-0.3,0.4-0.8,0.1c-0.3,0.2-0.1,0.5-0.1,0.6l0.1,0c-0.5,0.4-0.6,0.6-0.8,0.9c-0.2,0.1-0.7-0.1-0.8,0.3
			c0.2,0,0.1,0.1,0.1,0.2c0.1-0.1,0.1-0.1,0.2,0.2c-0.1,0-0.1,0-0.2,0c0,0,0,0,0,0c-0.2,0.2-0.2,0.1-0.2,0c0,0-0.1,0-0.1-0.1
			c0.1,0.3-0.2,0.6,0.1,0.8c-0.2,0.6-0.6,1-0.6,1.7c0.2,0,0.3-0.2,0.4-0.3c0,0.1,0,0.3,0,0.4c0.2-0.1,0.1-0.3,0.1-0.4
			c0.2,0.2,0.2,0.4,0.2,0.7c0,0.3,0,0.6,0.3,0.7l-0.1,0.2l0,0c-0.1,0.1-0.1,0.2-0.1,0.3c0.2-0.1,0.4-0.3,0.6-0.1
			c0.3,0,0.3,0.5,0.5,0.7c-0.1-0.1-0.2,0.1-0.2,0.2c0.1,0.1,0.3-0.1,0.4,0.1l0.2-0.3c-0.2,0.2,0.2,0.4,0.2,0.6
			c0.2-0.2-0.1-0.3-0.1-0.4c0.5,0.3,0.2,0.1,0.8,0.4c0.2,0.3-0.1,0.3-0.1,0.6c0.3,0.2,0.5,0.4,0.9,0.3l-0.2,0.2
			c0.6,0.3,1,0.3,1.4,0.1c1.1,0.6,1.9,1,2.2,1.3c0.4,0.3,0.4,0.6,0.3,0.9c-0.4,0.5-1.5,0.8-1.5,0.8c-1.1,0.3-2,0.2-2.9-0.2
			c-0.9-0.4-1.9-0.8-3.1-1.7c-1.2-0.7-1.9-1.3-2.5-2.1c-0.3-0.4-0.6-0.8-0.8-1.3c-0.2-0.5-0.4-1-0.4-1.9c-0.2-1.6,0.4-3.1,1-4.2
			c0.6-0.3,0.8-1.4,1.5-1.7l0-0.3c0.2-0.1,0.5-0.2,0.5-0.5l-0.1,0c0.3-0.1,0.5-0.5,0.7-0.5l-0.1,0l0.3-0.2l-0.1,0
			c0.1-0.1,0.3-0.1,0.4-0.2c0.1-0.1,0.1,0,0.2-0.1c0.1,0,0.1-0.1,0.1-0.2l0.3,0.1c0-0.2,0.1-0.2,0.3-0.3c0.1,0,0.3-0.1,0.2-0.2
			c0,0,0,0,0,0h-0.1c0.7-0.1,0.7-0.2,0.6-0.3c-0.1-0.1-0.4,0,0.6-0.3c-0.2,0.1-0.3,0.1-0.5,0.1c0.3-0.1,0.6-0.2,2.1-0.6
			c0.2-0.1-0.3,0-0.9,0.2l0.5-0.1c0.1,0,0.2-0.1,0.2-0.1c0.1,0,0,0,0,0l-0.2,0.1l-0.2,0l1.2-0.3c-0.6,0.1-1.4,0.4-1.4,0.3l0.8-0.3
			c-0.6,0.1-1.9,0.4-2.6,0.6c-0.2,0-0.4,0-0.5-0.1c-0.1-0.1-0.2-0.1-0.4-0.2l-0.2-0.2l-0.1,0l-0.2-0.1l-0.4-0.2c-1-0.5-2-1-2.9-1.6
			l-0.3,0.1c-0.3,0.3-0.2-1-0.5-0.8l-0.1-0.4c-0.1,0-0.3-0.1-0.3,0.1c-0.2-0.2-0.2-0.3-0.2-0.5l-0.4-0.1c-0.4-0.4-0.6-1-0.8-1.5
			c-0.2-0.6-0.2-1.1-0.5-1.7c-0.5-0.7-0.6-1.9-0.4-3.1c0.2-1.2,0.8-2.1,1.3-2.8c0.8-0.8,1.2-1.9,1.8-2.9c0.6-1,1.3-2,2.3-2.3
			C762.1,291.6,762.3,291.6,762.3,291.6z"/>
	</g>
</g>
</svg>
