<svg version="1.1" id="Layer_1" xmlns="http://www.w3.org/2000/svg" xmlns:xlink="http://www.w3.org/1999/xlink" x="0px" y="0px"
	 viewBox="0 0 24 36" enable-background="new 0 0 24 36" xml:space="preserve">
<g>
	<polygon fill="#FFFFFF" points="3.9,34.1 3.6,34 3.2,34 2.8,34.1 2.8,34.2 3,34.3 3.3,34.3 3.3,34.5 3.1,34.9 3.3,35.1 3.5,34.9 
		3.8,34.9 3.9,34.7 3.9,34.5 4,34.3 4.1,34.1 4.1,34 4.1,34 	"/>
	<polygon fill="#FFFFFF" points="22.8,9.7 22.6,9.6 22.3,9.4 22,9.4 21.8,9.5 21.6,9.6 21.4,9.8 21.2,9.9 21,10 20.9,10.2 
		20.7,10.5 20.6,10.4 20.4,10.7 20.2,10.7 20,10.6 19.7,10.5 19.2,10.4 18.7,10.3 18.2,10 17.9,10 17.6,9.8 17.5,9.4 17.4,9.2 
		17.2,9.1 17.1,8.8 17.1,8.7 17.1,8.5 17,8.3 17,8 16.9,7.9 16.8,7.6 16.6,7.5 16.3,7.5 16.1,7.2 16,7.3 16.2,7.6 16.3,7.8 
		16.4,8.3 16.4,8.7 16.3,8.9 16,8.9 15.9,8.6 15.8,8.3 15.6,8.2 15.4,8.3 15.3,8.4 15,8.3 15,8.3 14.8,8.2 14.7,8.2 14.6,8.1 
		14.7,8 14.8,8 14.8,7.7 14.7,7.7 14.7,7.6 14.7,7.3 14.9,7.1 14.8,7 14.6,6.8 14.3,6.4 14,6.1 13.9,5.9 13.7,5.8 13.6,5.8 
		13.5,5.7 13.4,5.5 13.6,5.5 14,5.6 14.1,5.7 14,5.4 13.9,5.2 13.9,5.1 13.7,4.9 13.5,4.8 13.3,4.6 13.3,4.4 13.1,4.2 13,4.4 
		12.5,4.1 12.8,4 12.8,4 12.7,3.9 12.4,3.7 12.2,3.7 11.9,3.7 11.7,3.6 11.5,3.6 11.2,3.6 11.2,3.4 11.1,3.3 11,3.6 10.8,3.7 
		10.6,3.4 10.5,3.3 10.5,3.2 10.4,3.1 10.2,2.8 10.2,2.5 10.2,2.4 10,2.4 10,2.4 9.9,2.4 9.8,2.5 9.6,2.5 9.7,2.7 10,2.9 10.6,3.6 
		10.8,4 10.8,4.1 10.8,4.2 11,4.6 11.3,4.9 11.6,4.6 11.6,4.4 11.7,4.5 11.6,4.8 11.5,5 11.5,5.1 11.8,5.5 12.6,6.3 13.2,7 
		13.2,6.9 13.1,6.7 13.1,6.5 13.4,6.6 13.5,6.4 13.6,6.5 13.6,6.7 13.7,6.9 13.6,7 13.8,7.1 13.9,7.1 13.9,7.5 13.8,7.7 13.7,7.5 
		13.5,7.3 13.8,7.7 14,8.1 14.3,8.5 14.7,8.4 14.9,8.4 14.9,8.5 14.9,8.7 14.8,8.8 14.5,8.9 14.6,9.1 15,9.4 15.2,9.3 15.1,9.7 
		15.3,10.2 15.4,10.4 15.2,10.5 15.3,10.8 15.4,11.2 15.3,11.3 15,11.3 14.9,11.7 15,12.1 15,12.5 14.9,13 14.6,13.4 14.1,13.5 
		13.7,13.8 13.4,14.1 13.4,14.6 13.8,14.9 14.3,15 15,15.5 15.4,15.7 15.9,15.7 16.2,16 16.5,16.3 16.6,16.5 16.6,16.8 16.6,17.1 
		16.5,17.6 16.4,18.1 16.1,18.3 16,18.7 15.9,18.8 15.7,19 15.7,18.9 15.7,19.2 15.9,19.5 16.6,19.4 16.8,19.7 17.1,19.9 17.4,19.7 
		18,19.3 18.4,18.7 18.8,17.9 19.1,17.4 19.3,17.1 19.5,16.8 19.5,16.6 19.7,16.3 19.8,16 20,15.7 20.1,15.3 20.2,15 20,14.8 
		19.9,14.5 19.8,14.6 19.7,14.5 19.9,14.2 20.1,14 20.3,13.7 20.5,13.5 20.7,13.4 21,13.4 21.3,13.3 21.6,13.3 21.7,13.3 21.8,13.8 
		22,13.5 22,13.3 21.9,13.3 21.8,13 21.9,12.8 22,12.6 22,12.3 22.3,12.2 22.6,12 22.7,11.7 22.6,11.4 22.7,11.3 22.6,10.7 
		22.7,10.4 22.8,10.2 22.8,9.9 	"/>
	<polygon fill="#FFFFFF" points="14.6,19.9 14.6,19.7 14.7,19.5 14.6,19.3 14.4,19.3 14.5,19.2 14.6,19 14.7,18.9 14.7,18.8 
		14.6,18.7 14.5,18.6 14.4,18.6 14.3,18.7 14.3,18.8 14.2,18.9 14.2,19 14.3,19.1 14.3,19.2 14.1,19.3 13.9,19.4 14,19 14,18.8 
		13.9,18.7 14.1,18.5 14,18.5 13.9,18.5 13.8,18.6 13.5,18.8 13.5,18.8 13.4,19 13.2,19.1 13.1,19.2 13.1,19.3 12.9,19.4 12.7,19.5 
		12.5,19.4 12.4,19.2 12.3,18.6 12.1,18.4 11.9,18.4 11.7,18.4 11.5,18.2 11.5,17.8 11.4,17.7 11.3,17.8 11.2,17.9 11.1,17.9 
		10.8,18.3 10.7,18.4 10.5,18.5 10.6,18.8 10.6,19 10.5,19 10.5,19.2 10.4,19.6 10.4,19.9 10.2,20.3 10.1,20.5 9.9,20.6 9.7,20.8 
		9.5,21 9.3,21.1 9.2,21.5 9.2,21.8 9.1,22.1 9.1,22.3 9.1,22.6 9,22.7 9,22.9 8.8,23.2 8.7,23.4 8.5,23.6 8.3,23.8 8,24.1 
		7.8,24.1 7.6,24.3 7.4,24.5 7.2,24.6 7.2,24.9 6.8,25.2 6.4,25.5 6.2,25.8 5.7,26.1 5.5,26.3 5.3,26.6 5,26.8 4.7,26.9 4.5,26.9 
		4.2,27.1 4,27.1 3.8,27.3 3.6,27.3 3.6,27.8 3.3,27.9 3.2,28.2 3.2,28.5 3,28.7 2.7,28.8 2.7,29.1 2.5,29.2 2.6,29.3 2.7,29.6 
		2.6,29.8 2.5,29.8 2.4,29.7 2.4,29.5 2.3,29.4 2.2,29.5 2,29.6 1.9,29.7 1.9,29.9 1.9,30.1 1.9,30.3 2,30.4 2.2,30.4 2.2,30.5 
		2.1,30.5 2,30.5 1.8,30.6 1.8,30.5 1.6,30.6 1.6,30.7 1.7,30.8 1.6,30.9 1.4,30.9 1.5,31.1 1.7,31.2 1.8,31.1 1.8,31.4 1.6,31.5 
		1.7,31.6 1.8,31.6 1.6,31.8 1.3,31.9 1.1,31.9 1.1,32.1 1.2,32.3 1.4,32.2 1.5,32.1 1.5,32.2 1.5,32.3 1.5,32.5 1.5,32.5 1.8,32.2 
		1.9,32.1 1.8,32.3 1.6,32.5 1.6,32.8 1.8,32.9 2.2,32.9 2.5,32.9 2.8,32.8 2.9,32.7 3,32.6 3.3,32.6 3.5,32.7 3.7,33.1 4.1,33.1 
		4.3,33.1 4.6,33.1 4.6,33.1 4.7,33.1 4.7,33.3 4.8,33.5 5,33.4 5,33.4 5.1,33.4 5.3,33.4 5.5,33.2 5.6,33.3 5.8,33.5 6,33.6 
		6.2,33.5 6.3,33.4 6.4,33.4 6.9,33.2 7.1,33.1 7.2,33.1 7.2,32.9 7.3,32.8 7.5,32.8 7.5,32.6 7.6,32.6 7.8,32.5 8.1,32.3 8.2,32.1 
		8.4,31.8 8.7,31.6 8.9,31.6 9,31.4 8.8,31.4 8.9,31.3 8.9,31.2 8.9,31.1 8.9,31 9,30.9 9.1,30.6 9.2,30.5 9.3,30.3 9.3,30 
		9.3,29.8 9.3,29.6 9.5,29.4 9.6,29.2 9.6,29 9.6,28.8 9.8,28.7 9.7,28.1 9.8,27.7 10,27.3 10,26.9 10,26.7 10,26.5 10.1,26.5 
		10.2,26.6 10.3,26.7 10.4,26.7 10.6,26.6 10.7,26.5 11,26.4 11.3,26.2 11.3,26 11.4,26.1 11.6,26.2 11.7,26 11.7,25.8 11.8,25.7 
		12,25.8 12.4,25.9 12.8,26.1 12.8,25.8 13,26 13,25.9 12.9,25.6 12.7,25.5 12.4,25.5 12.3,25.4 12.3,25.3 12.4,25.1 12.3,24.9 
		12.3,24.6 12.4,24.4 12.4,24.2 12.4,24.2 12.5,24.1 12.5,24.1 12.6,24.1 12.6,24 12.7,23.9 12.9,23.8 12.9,23.7 13,23.6 13,23.6 
		13.1,23.6 13.2,23.4 13.3,23.4 13.6,22.8 13.7,22.4 13.9,22.2 14,22 14,21.8 14.3,21.8 14.5,21.4 14.5,21.2 14.7,20.9 14.8,20.7 
		14.9,20.5 14.7,20.1 	"/>
</g>
</svg>
