<svg xmlns="http://www.w3.org/2000/svg" viewBox="0 0 24 36" enable-background="new 0 0 24 36"><g fill="#fff"><path d="M3.9 34.1l-.3-.1h-.4l-.4.1v.1l.2.1h.3v.2l-.2.4.2.2.2-.2h.3l.1-.2v-.2l.1-.2.1-.2v-.1zM22.8 9.7l-.2-.1-.3-.2h-.3l-.2.1-.2.1-.2.2-.2.1-.2.1-.1.2-.2.3-.1-.1-.2.3h-.2l-.2-.1-.3-.1-.5-.1-.5-.1-.5-.3h-.3l-.3-.2-.1-.4-.1-.2-.2-.1-.1-.3v-.30000000000000004l-.1-.2v-.3l-.1-.1-.1-.3-.2-.1h-.3l-.2-.3-.1.1.2.3.1.2.1.5v.4l-.1.2h-.3l-.1-.3-.1-.3-.2-.1-.2.1-.1.1-.3-.1-.2-.1h-.1l-.1-.1.1-.1h.1v-.3h-.1v-.4l.2-.2-.1-.1-.2-.2-.3-.4-.3-.3-.1-.2-.2-.1h-.1l-.1-.1-.1-.2h.2l.4.1.1.1-.1-.3-.1-.2v-.1l-.2-.2-.2-.1-.2-.2v-.2l-.2-.2-.1.2-.5-.3.3-.1-.1-.1-.3-.2h-.5l-.2-.1h-.5v-.2l-.1-.1-.1.3-.2.1-.2-.3-.1-.1v-.1l-.1-.1-.2-.3v-.4h-.30000000000000004l-.1.1h-.2l.1.2.3.2.6.7.2.4v.2l.2.4.3.3.3-.3v-.2l.1.1-.1.3-.1.2v.1l.3.4.8.8.6.7v-.1l-.1-.2v-.2l.3.1.1-.2.1.1v.2l.1.2-.1.1.2.1h.1v.4l-.1.2-.1-.2-.2-.2.3.4.2.4.3.4.4-.1h.2v.30000000000000004l-.1.1-.3.1.1.2.4.3.2-.1-.1.4.2.5.1.2-.2.1.1.3.1.4-.1.1h-.3l-.1.4.1.4v.4l-.1.5-.3.4-.5.1-.4.3-.3.3v.5l.4.3.5.1.7.5.4.2h.5l.3.3.3.3.1.2v.6l-.1.5-.1.5-.3.2-.1.4-.1.1-.2.2v-.1.3l.2.3.7-.1.2.3.3.2.3-.2.6-.4.4-.6.4-.8.3-.5.2-.3.2-.3v-.2l.2-.3.1-.3.2-.3.1-.4.1-.3-.2-.2-.1-.3-.1.1-.1-.1.2-.3.2-.2.2-.3.2-.2.2-.1h.3l.3-.1h.4l.1.5.2-.3v-.2h-.1l-.1-.3.1-.2.1-.2v-.3l.3-.1.3-.2.1-.3-.1-.3.1-.1-.1-.6.1-.3.1-.2v-.3zM14.6 19.9v-.2l.1-.2-.1-.2h-.2l.1-.1.1-.2.1-.1v-.1l-.1-.1-.1-.1h-.1l-.1.1v.1l-.1.1v.1l.1.1v.1l-.2.1-.2.1.1-.4v-.2l-.1-.1.2-.2h-.2l-.1.1-.3.2-.1.2-.2.1-.1.1v.1l-.2.1-.2.1-.2-.1-.1-.2-.1-.6-.2-.2h-.4l-.2-.2v-.4l-.1-.1-.1.1-.1.1h-.1l-.3.4-.1.1-.2.1.1.3v.2h-.1v.2l-.1.4v.3l-.2.4-.1.2-.2.1-.2.2-.2.2-.2.1-.1.4v.3l-.1.3v.5l-.1.1v.2l-.2.3-.1.2-.2.2-.2.2-.3.3h-.2l-.2.2-.2.2-.2.1v.3l-.4.3-.4.3-.2.3-.5.3-.2.2-.2.3-.3.2-.3.1h-.2l-.3.2h-.2l-.2.2h-.2v.5l-.3.1-.1.3v.3l-.2.2-.3.1v.3l-.2.1.1.1.1.3-.1.2h-.1l-.1-.1v-.2l-.1-.1-.1.1-.2.1-.1.1v.6000000000000001l.1.1h.2v.1h-.2l-.2.1v-.1l-.2.1v.1l.1.1-.1.1h-.2l.1.2.2.1.1-.1v.3l-.2.1.1.1h.1l-.2.2-.3.1h-.2v.2l.1.2.2-.1.1-.1v.4l.3-.3.1-.1-.1.2-.2.2v.3l.2.1h.7l.3-.1.1-.1.1-.1h.3l.2.1.2.4h1.0000000000000002v.2l.1.2.2-.1h.30000000000000004l.2-.2.1.1.2.2.2.1.2-.1.1-.1h.1l.5-.2.2-.1h.1v-.2l.1-.1h.2v-.2h.1l.2-.1.3-.2.1-.2.2-.3.3-.2h.2l.1-.2h-.2l.1-.1v-.30000000000000004l.1-.1.1-.3.1-.1.1-.2v-.7l.2-.2.1-.2v-.4l.2-.1-.1-.6.1-.4.2-.4v-.8h.1l.1.1.1.1h.1l.2-.1.1-.1.3-.1.3-.2v-.2l.1.1.2.1.1-.2v-.2l.1-.1.2.1.4.1.4.2v-.3l.2.2v-.1l-.1-.3-.2-.1h-.3l-.1-.1v-.1l.1-.2-.1-.2v-.3l.1-.2v-.2l.1-.1h.1v-.1l.1-.1.2-.1v-.1l.1-.1h.1l.1-.2h.1l.3-.6.1-.4.2-.2.1-.2v-.2h.3l.2-.4v-.2l.2-.3.1-.2.1-.2-.2-.4z"/></g></svg>