<svg xmlns="http://www.w3.org/2000/svg" viewBox="0 0 96 96" enable-background="new 0 0 96 96"><path fill="#fff" d="M62.5 78c.6.4-.2 1.2-1 1.2h-10c-.8 0-1.4-.9-.9-1.3 0 0 1.7-1.6 2.5-1.6h6.9c.7.1 2.5 1.7 2.5 1.7zm-32-11c0 1.2-1 2.2-2.2 2.2h-13.7c-1.2 0-2.2-1-2.2-2.2v-3.6c0-1.2 1-2.2 2.2-2.2h13.7c1.2 0 2.2 1 2.2 2.2v3.6zm-15.9.7h6.5v-5.1h-6.5c-.4 0-.7.6-.7 1v3.6c0 .4.3.5.7.5zm13.7-5.1h-6.5v5.1h6.5c.4 0 .7-.1.7-.5v-3.6c0-.4-.3-1-.7-1zm19.5 4.4c0 1.2-1 2.2-2.2 2.2h-2.9c-1.2 0-2.2-1-2.2-2.2v-3.6c0-1.2 1-2.2 2.2-2.2h2.9c1.2 0 2.2 1 2.2 2.2v3.6zm-1.4-3.7c0-.4-.3-.7-.7-.7h-2.9c-.4 0-.7.3-.7.7v3.6c0 .4.3.7.7.7h2.9c.4 0 .7-.3.7-.7v-3.6zm47.7-8v2.9c0 .6-.5.8-1.1.8h-5.4v15.8c0 .6-.5.8-1.1.8h-78.1c-.6 0-1.1-.2-1.1-.8v-16.8l-.9.7c-.4.4-1 .3-1.4-.1l-2.8-2.8c-.2-.2-.3-.5-.3-.8s.2-.6.4-.8l18.3-13.7c.1-.1.1-.2.2-.2.2-.4.5-.7 1-.7h41.2v-4.8c0-1.2 1-2.4 2.2-2.4h1.4c1.2 0 2.2 1.2 2.2 2.4v4.8h4.3c.2 0 .4.2.6.3l19.7 14.2c.2.1.3.4.4.6.2.1.3.3.3.6zm-21.3-13.6h-5.6l-.2.1-1.8.1-.4-.1-.1-.1h-40.9l15.8 12.3h50.4l-17.2-12.3zm-8.3-2.2h2.9v-4.8c0-.4-.3-1-.7-1h-1.4c-.4 0-.7.6-.7 1v4.8h-.1zm-43.8 5.9c.1-.1.2-.1.3-.1 0 0 .1 0 .1-.1h.4s.1-.1.2-.1l.1.1.2.1 14.7 11.3.8-1.2-16.2-12.7-16.7 12.5 1.2 1.2 14.9-11zm12.7 11.5l-12.1-9.3-11.8 8.9v17h23.9v-16.6zm47.7 6.7c0-.4-.3-1-.7-1h-6.5v10.8h7.2v-9.8zm-8-1h-6.5c-.4 0-.7.6-.7 1v9.9h7.2v-10.9zm12.3-3.6h-48.4c-.4 0-.7-.1-.9-.3l-.5-.3v15.1h17.4v-10.6c0-.8.6-1.7 1.4-1.7h4.3c.8 0 1.4.9 1.4 1.7v10.6h4.3v-9.9c0-1.2 1-2.4 2.2-2.4h13.7c1.2 0 2.2 1.2 2.2 2.4v9.9h2.9v-14.5zm6.5-2.9h-52.3l-.5.7h52.9l-.1-.7zm-37.8-37.7c1.6 2.2 1.2 5.4 1.2 5.4s3.3-1.6 5.8-.3c2.5 1.2 2.2 5.4 2.2 5.4s1.2-.9 2.4-.4c1.5.7.7 2.2.7 2.2s1.5-2.1.1-3.3c-1.2-1.1-2.4-.6-2.4-.6s.7-2.8-1.8-4.4c-2.7-1.9-5.6-.5-5.6-.5s.5-2.3-1.2-4.1c-2.8-3-7.4-1.1-7.4-1.1s4.1-1 6 1.7zm7.1 11.8s-1.6 1.2-3.6 1.2c-2.1 0-3.5-2.1-3.5-2.1s.4 3.1 3 3.4c2.5.3 3.2-.9 3.2-.9s.5 1.1 1.6 1.2c1.3.1 1.9-.9 1.9-.9s-1.4-.1-1.8-.5c-.4-.4-.8-1.4-.8-1.4z"/></svg>