<svg version="1.1" id="Layer_1" xmlns="http://www.w3.org/2000/svg" xmlns:xlink="http://www.w3.org/1999/xlink" x="0px" y="0px"
	 viewBox="0 0 255 26" enable-background="new 0 0 255 26" xml:space="preserve">
<g>
	<g>
		<g>
			<path fill="#ffffff" d="M34.6,14.2v-2.3C34.6,5.2,38.1,1,43.7,1c5.6,0,9.1,4.2,9.1,10.8v2.3c0,6.7-3.6,10.9-9.2,10.9
				C38.1,25,34.6,20.8,34.6,14.2z M51,14.1v-2.2c0-5.8-2.8-9.4-7.4-9.4c-4.5,0-7.3,3.6-7.3,9.4v2.2c0,5.8,2.8,9.4,7.3,9.4
				C48.3,23.5,51,19.9,51,14.1z"/>
			<path fill="#ffffff" d="M56.5,18.5c0-2.7,1.9-5.1,5.4-5.9c-3.1-0.7-4.6-2.8-4.6-5.3c0-3.6,3.1-6.2,7.9-6.2C70,1,73,3.5,73,7.2
				c0,2.5-1.5,4.6-4.6,5.4c3.6,0.8,5.4,3.1,5.4,5.9c0,3.8-3.4,6.5-8.6,6.5C59.8,25,56.5,22.4,56.5,18.5z M72,18.4
				c0-3-2.5-5.1-6.8-5.1c-4.4,0-6.8,2.1-6.8,5.1c0,3,2.5,5.1,6.8,5.1C69.6,23.5,72,21.5,72,18.4z M71.2,7.3c0-2.8-2.2-4.8-6.1-4.8
				c-4,0-6,1.9-6,4.8c0,2.7,2.3,4.5,6.1,4.5C69,11.8,71.2,10.1,71.2,7.3z"/>
			<path fill="#ffffff" d="M77.5,14.2v-2.3C77.5,5.2,81,1,86.6,1c5.6,0,9.1,4.2,9.1,10.8v2.3c0,6.7-3.6,10.9-9.2,10.9
				C81,25,77.5,20.8,77.5,14.2z M93.9,14.1v-2.2c0-5.8-2.8-9.4-7.4-9.4c-4.5,0-7.3,3.6-7.3,9.4v2.2c0,5.8,2.8,9.4,7.3,9.4
				C91.1,23.5,93.9,19.9,93.9,14.1z"/>
			<path fill="#ffffff" d="M100,14.2v-2.3c0-6.7,3.5-10.9,9.1-10.9c5.6,0,9.1,4.2,9.1,10.8v2.3c0,6.7-3.6,10.9-9.2,10.9
				C103.5,25,100,20.8,100,14.2z M116.4,14.1v-2.2c0-5.8-2.8-9.4-7.4-9.4c-4.5,0-7.3,3.6-7.3,9.4v2.2c0,5.8,2.8,9.4,7.3,9.4
				C113.6,23.5,116.4,19.9,116.4,14.1z"/>
			<path fill="#ffffff" d="M132.8,23.9V4.3c-0.6,0.9-1.6,1.5-2.9,1.5c-0.9,0-1.6-0.3-2.1-0.7c-0.3-0.3-0.4-0.6-0.4-1
				c0-0.6,0.5-1,0.6-1c0.4,0.5,1.1,0.9,2.1,0.9c1.6,0,2.9-1.3,3-2.8h0.8c0.5,0,0.8,0.3,0.8,0.9v21.8c0,0.6-0.3,0.8-0.8,0.8h-0.3
				C133.1,24.8,132.8,24.5,132.8,23.9z"/>
			<path fill="#ffffff" d="M140.9,14.2v-2.3c0-6.7,3.5-10.9,9.1-10.9c5.6,0,9.1,4.2,9.1,10.8v2.3c0,6.7-3.6,10.9-9.2,10.9
				C144.4,25,140.9,20.8,140.9,14.2z M157.3,14.1v-2.2c0-5.8-2.8-9.4-7.4-9.4c-4.5,0-7.3,3.6-7.3,9.4v2.2c0,5.8,2.8,9.4,7.3,9.4
				C154.6,23.5,157.3,19.9,157.3,14.1z"/>
			<path fill="#ffffff" d="M163.4,14.2v-2.3c0-6.7,3.5-10.9,9.1-10.9c5.6,0,9.1,4.2,9.1,10.8v2.3c0,6.7-3.6,10.9-9.2,10.9
				C166.9,25,163.4,20.8,163.4,14.2z M179.8,14.1v-2.2c0-5.8-2.8-9.4-7.4-9.4c-4.5,0-7.3,3.6-7.3,9.4v2.2c0,5.8,2.8,9.4,7.3,9.4
				C177.1,23.5,179.8,19.9,179.8,14.1z"/>
			<path fill="#ffffff" d="M185.9,14.2v-2.3c0-6.7,3.5-10.9,9.1-10.9c5.6,0,9.1,4.2,9.1,10.8v2.3c0,6.7-3.6,10.9-9.2,10.9
				C189.4,25,185.9,20.8,185.9,14.2z M202.3,14.1v-2.2c0-5.8-2.8-9.4-7.4-9.4c-4.5,0-7.3,3.6-7.3,9.4v2.2c0,5.8,2.8,9.4,7.3,9.4
				C199.6,23.5,202.3,19.9,202.3,14.1z"/>
			<path fill="#ffffff" d="M223.8,10.4c4.7,0,7.8,2.8,7.8,6.9v0.1c0,4.4-3.4,7.6-8.1,7.6c-5.6,0-8.9-4-8.9-10.5v-2.6
				c0-6.9,3.5-10.9,9-10.9c2.8,0,4.8,1,5.9,2.1c0.7,0.7,1,1.4,1,1.9c0,0.6-0.9,1-1,1c-1-1.8-2.9-3.4-5.9-3.4c-4.5,0-7.3,3.3-7.3,9.3
				v2.1C217.9,12,220.5,10.4,223.8,10.4z M229.9,17.6v-0.2c0-3.5-2.3-5.5-6.3-5.5c-3.1,0-5.9,1.7-7.1,3.9c0.4,5,3,7.8,6.9,7.8
				C227.3,23.5,229.9,21,229.9,17.6z"/>
			<path fill="#ffffff" d="M235.4,14.2v-2.3c0-6.7,3.5-10.9,9.1-10.9c5.6,0,9.1,4.2,9.1,10.8v2.3c0,6.7-3.6,10.9-9.2,10.9
				C238.9,25,235.4,20.8,235.4,14.2z M251.8,14.1v-2.2c0-5.8-2.8-9.4-7.4-9.4c-4.5,0-7.3,3.6-7.3,9.4v2.2c0,5.8,2.8,9.4,7.3,9.4
				C249,23.5,251.8,19.9,251.8,14.1z"/>
		</g>
	</g>
	<g>
		<path fill="#ffffff" d="M1.8,9.7c0.3-1,0.7-2,1.2-2.8C3.5,6,4.2,5.2,4.9,4.5s1.5-1.4,2.4-1.9s1.8-0.9,2.9-1.2
			c1-0.3,2.1-0.4,3.2-0.4s2.1,0.1,3.2,0.4c1,0.3,2,0.7,2.9,1.2s1.7,1.1,2.4,1.9s1.4,1.5,1.9,2.4c0.5,0.9,0.9,1.8,1.2,2.8
			c0.3,1,0.4,2.1,0.4,3.2c0,1.1-0.1,2.2-0.4,3.2c-0.3,1-0.7,2-1.2,2.9c-0.5,0.9-1.1,1.7-1.9,2.5c-0.7,0.8-1.5,1.4-2.4,1.9
			c-0.9,0.5-1.8,0.9-2.9,1.2c-1,0.3-2.1,0.4-3.2,0.4c-1.1,0-2.1-0.1-3.2-0.4c-1-0.3-2-0.7-2.9-1.2c-0.9-0.5-1.7-1.2-2.4-1.9
			C4.2,20.7,3.5,19.9,3,19c-0.5-0.9-0.9-1.9-1.2-2.9S1.4,14,1.4,12.9C1.4,11.8,1.5,10.7,1.8,9.7z M2.8,16.5c0.4,1.1,0.9,2.2,1.6,3.1
			c0.7,0.9,1.5,1.7,2.4,2.4s1.9,1.2,3.1,1.6s2.3,0.6,3.5,0.6s2.4-0.2,3.5-0.6s2.2-0.9,3.1-1.6s1.7-1.5,2.4-2.4
			c0.7-0.9,1.2-1.9,1.6-3.1s0.6-2.3,0.6-3.5c0-1-0.1-2-0.4-3S23.5,8.2,23,7.4S22,5.8,21.3,5.1S19.8,3.8,19,3.4s-1.7-0.9-2.7-1.1
			s-2-0.4-3-0.4s-2,0.1-3,0.4S8.6,2.9,7.7,3.4C6.9,3.8,6.2,4.4,5.5,5.1S4.2,6.6,3.7,7.4S2.9,9.1,2.6,10S2.2,12,2.2,13
			C2.2,14.2,2.4,15.4,2.8,16.5z M7.6,9.8c0-0.3,0-0.6,0.2-0.9c0.1-0.3,0.3-0.6,0.6-0.9c0.2-0.2,0.3-0.3,0.5-0.4
			C9,7.6,9.1,7.5,9.2,7.5c0.1,0,0.2-0.1,0.3-0.1c0.1,0,0.1,0,0.2,0c0.1,0,0.1,0,0.1,0c0,0,0.1,0,0.1,0c0.1,0,0.2,0.1,0.3,0.2
			c0.1,0.1,0.2,0.3,0.5,0.6c0.2,0.3,0.5,0.7,0.8,1.1s0.4,0.6,0.5,0.7c0.1,0.1,0.1,0.3,0.1,0.3c0,0.1-0.1,0.2-0.3,0.3
			c-0.3,0.2-0.6,0.3-0.8,0.5c-0.2,0.1-0.3,0.3-0.3,0.4c0,0,0,0.1,0,0.1c0.2,0.3,0.8,1,2,2.1l0.4,0.5c0.3,0.3,0.6,0.6,1,0.9
			c0.4,0.3,0.6,0.5,0.7,0.6c0,0,0.1,0,0.1,0c0.2,0,0.5-0.3,1-1c0.1-0.2,0.2-0.3,0.4-0.3c0.1,0,0.2,0,0.3,0.1
			c0.2,0.1,0.6,0.4,1.3,0.9c0.6,0.4,1,0.7,1.1,0.8c0.1,0.1,0.2,0.2,0.2,0.3c0,0.1,0,0.2-0.1,0.4c-0.1,0.2-0.1,0.3-0.1,0.3
			c0,0.1-0.1,0.2-0.2,0.3c-0.1,0.2-0.2,0.3-0.4,0.5c-0.5,0.6-1.1,0.9-1.8,0.9c-0.5,0-1-0.1-1.7-0.4c-0.3-0.1-0.7-0.3-1.1-0.6
			s-0.7-0.5-1-0.7s-0.6-0.5-0.9-0.7c-0.3-0.3-0.5-0.4-0.6-0.5c-0.1-0.1-0.2-0.2-0.2-0.2l-0.5-0.6C10,14.5,9.6,14,9.1,13.4
			c-0.5-0.6-0.8-1.2-1.1-1.8c-0.2-0.6-0.4-1.1-0.4-1.5C7.6,10,7.6,9.9,7.6,9.8z"/>
	</g>
</g>
</svg>
