<svg xmlns="http://www.w3.org/2000/svg" viewBox="0 0 255 26" enable-background="new 0 0 255 26"><g fill="#fa0e6a"><path d="M34.6 14.2v-2.3c0-6.7 3.5-10.9 9.1-10.9s9.1 4.2 9.1 10.8v2.3c0 6.7-3.6 10.9-9.2 10.9-5.5 0-9-4.2-9-10.8zm16.4-.1v-2.2c0-5.8-2.8-9.4-7.4-9.4-4.5 0-7.3 3.6-7.3 9.4v2.2c0 5.8 2.8 9.4 7.3 9.4 4.7 0 7.4-3.6 7.4-9.4zM56.5 18.5c0-2.7 1.9-5.1 5.4-5.9-3.1-.7-4.6-2.8-4.6-5.3 0-3.6 3.1-6.2 7.9-6.2 4.8-.1 7.8 2.4 7.8 6.1 0 2.5-1.5 4.6-4.6 5.4 3.6.8 5.4 3.1 5.4 5.9 0 3.8-3.4 6.5-8.6 6.5-5.4 0-8.7-2.6-8.7-6.5zm15.5-.1c0-3-2.5-5.1-6.8-5.1-4.4 0-6.8 2.1-6.8 5.1 0 3 2.5 5.1 6.8 5.1 4.4 0 6.8-2 6.8-5.1zm-.8-11.1c0-2.8-2.2-4.8-6.1-4.8-4 0-6 1.9-6 4.8 0 2.7 2.3 4.5 6.1 4.5s6-1.7 6-4.5zM77.5 14.2v-2.3c0-6.7 3.5-10.9 9.1-10.9s9.1 4.2 9.1 10.8v2.3c0 6.7-3.6 10.9-9.2 10.9-5.5 0-9-4.2-9-10.8zm16.4-.1v-2.2c0-5.8-2.8-9.4-7.4-9.4-4.5 0-7.3 3.6-7.3 9.4v2.2c0 5.8 2.8 9.4 7.3 9.4 4.6 0 7.4-3.6 7.4-9.4zM100 14.2v-2.3c0-6.7 3.5-10.9 9.1-10.9s9.1 4.2 9.1 10.8v2.3c0 6.7-3.6 10.9-9.2 10.9-5.5 0-9-4.2-9-10.8zm16.4-.1v-2.2c0-5.8-2.8-9.4-7.4-9.4-4.5 0-7.3 3.6-7.3 9.4v2.2c0 5.8 2.8 9.4 7.3 9.4 4.6 0 7.4-3.6 7.4-9.4zM132.8 23.9v-19.6c-.6.9-1.6 1.5-2.9 1.5-.9 0-1.6-.3-2.1-.7-.3-.3-.4-.6-.4-1 0-.6.5-1 .6-1 .4.5 1.1.9 2.1.9 1.6 0 2.9-1.3 3-2.8h.8c.5 0 .8.3.8.9v21.8c0 .6-.3.8-.8.8h-.3c-.5.1-.8-.2-.8-.8zM140.9 14.2v-2.3c0-6.7 3.5-10.9 9.1-10.9s9.1 4.2 9.1 10.8v2.3c0 6.7-3.6 10.9-9.2 10.9-5.5 0-9-4.2-9-10.8zm16.4-.1v-2.2c0-5.8-2.8-9.4-7.4-9.4-4.5 0-7.3 3.6-7.3 9.4v2.2c0 5.8 2.8 9.4 7.3 9.4 4.7 0 7.4-3.6 7.4-9.4zM163.4 14.2v-2.3c0-6.7 3.5-10.9 9.1-10.9s9.1 4.2 9.1 10.8v2.3c0 6.7-3.6 10.9-9.2 10.9-5.5 0-9-4.2-9-10.8zm16.4-.1v-2.2c0-5.8-2.8-9.4-7.4-9.4-4.5 0-7.3 3.6-7.3 9.4v2.2c0 5.8 2.8 9.4 7.3 9.4 4.7 0 7.4-3.6 7.4-9.4zM185.9 14.2v-2.3c0-6.7 3.5-10.9 9.1-10.9s9.1 4.2 9.1 10.8v2.3c0 6.7-3.6 10.9-9.2 10.9-5.5 0-9-4.2-9-10.8zm16.4-.1v-2.2c0-5.8-2.8-9.4-7.4-9.4-4.5 0-7.3 3.6-7.3 9.4v2.2c0 5.8 2.8 9.4 7.3 9.4 4.7 0 7.4-3.6 7.4-9.4zM223.8 10.4c4.7 0 7.8 2.8 7.8 6.9v.1c0 4.4-3.4 7.6-8.1 7.6-5.6 0-8.9-4-8.9-10.5v-2.6c0-6.9 3.5-10.9 9-10.9 2.8 0 4.8 1 5.9 2.1.7.7 1 1.4 1 1.9 0 .6-.9 1-1 1-1-1.8-2.9-3.4-5.9-3.4-4.5 0-7.3 3.3-7.3 9.3v2.1c1.6-2 4.2-3.6 7.5-3.6zm6.1 7.2v-.2c0-3.5-2.3-5.5-6.3-5.5-3.1 0-5.9 1.7-7.1 3.9.4 5 3 7.8 6.9 7.8 3.9-.1 6.5-2.6 6.5-6zM235.4 14.2v-2.3c0-6.7 3.5-10.9 9.1-10.9s9.1 4.2 9.1 10.8v2.3c0 6.7-3.6 10.9-9.2 10.9-5.5 0-9-4.2-9-10.8zm16.4-.1v-2.2c0-5.8-2.8-9.4-7.4-9.4-4.5 0-7.3 3.6-7.3 9.4v2.2c0 5.8 2.8 9.4 7.3 9.4 4.6 0 7.4-3.6 7.4-9.4z"/></g><path fill="#fa0e6a" d="M1.8 9.7c.3-1 .7-2 1.2-2.8.5-.9 1.2-1.7 1.9-2.4s1.5-1.4 2.4-1.9 1.8-.9 2.9-1.2c1-.3 2.1-.4 3.2-.4s2.1.1 3.2.4c1 .3 2 .7 2.9 1.2s1.7 1.1 2.4 1.9 1.4 1.5 1.9 2.4c.5.9.9 1.8 1.2 2.8.3 1 .4 2.1.4 3.2s-.1 2.2-.4 3.2c-.3 1-.7 2-1.2 2.9-.5.9-1.1 1.7-1.9 2.5-.7.8-1.5 1.4-2.4 1.9-.9.5-1.8.9-2.9 1.2-1 .3-2.1.4-3.2.4s-2.1-.1-3.2-.4c-1-.3-2-.7-2.9-1.2-.9-.5-1.7-1.2-2.4-1.9-.7-.8-1.4-1.6-1.9-2.5-.5-.9-.9-1.9-1.2-2.9s-.4-2.1-.4-3.2.1-2.2.4-3.2zm1 6.8c.4 1.1.9 2.2 1.6 3.1.7.9 1.5 1.7 2.4 2.4s1.9 1.2 3.1 1.6 2.3.6 3.5.6 2.4-.2 3.5-.6 2.2-.9 3.1-1.6 1.7-1.5 2.4-2.4c.7-.9 1.2-1.9 1.6-3.1s.6-2.3.6-3.5c0-1-.1-2-.4-3s-.7-1.8-1.2-2.6-1-1.6-1.7-2.3-1.5-1.3-2.3-1.7-1.7-.9-2.7-1.1-2-.4-3-.4-2 .1-3 .4-1.7.6-2.6 1.1c-.8.4-1.5 1-2.2 1.7s-1.3 1.5-1.8 2.3-.8 1.7-1.1 2.6-.4 2-.4 3c0 1.2.2 2.4.6 3.5zm4.8-6.7c0-.3 0-.6.2-.9.1-.3.3-.6.6-.9.2-.2.3-.3.5-.4l.3-.1.3-.1h.4c.1 0 .2.1.3.2.1.1.2.3.5.6.2.3.5.7.8 1.1s.4.6.5.7c.1.1.1.3.1.3 0 .1-.1.2-.3.3-.3.2-.6.3-.8.5-.2.1-.3.3-.3.4v.1c.2.3.8 1 2 2.1l.4.5c.3.3.6.6 1 .9.4.3.6.5.7.6h.1c.2 0 .5-.3 1-1 .1-.2.2-.3.4-.3.1 0 .2 0 .3.1.2.1.6.4 1.3.9.6.4 1 .7 1.1.8.1.1.2.2.2.3 0 .1 0 .2-.1.4s-.1.3-.1.3c0 .1-.1.2-.2.3-.1.2-.2.3-.4.5-.5.6-1.1.9-1.8.9-.5 0-1-.1-1.7-.4-.3-.1-.7-.3-1.1-.6s-.7-.5-1-.7-.6-.5-.9-.7c-.3-.3-.5-.4-.6-.5l-.2-.2-.5-.6c-.6-.7-1-1.2-1.5-1.8-.5-.6-.8-1.2-1.1-1.8-.2-.6-.4-1.1-.4-1.5v-.3z"/></svg>