<svg version="1.1" id="Layer_1" xmlns="http://www.w3.org/2000/svg" xmlns:xlink="http://www.w3.org/1999/xlink" x="0px" y="0px"
	 viewBox="0 0 96 96" enable-background="new 0 0 96 96" xml:space="preserve">
<g>
	<path fill="#FFFFFF" d="M57.7,76.4c0,0-1.1-0.9-1.6-1.5c-0.6-0.6-0.7-0.7-0.7-0.7L55,69.9H42.2l-0.5,4.3c0,0-0.2,0.5-0.7,1
		c-0.6,0.6-1.6,1.3-1.6,1.3s-1,0.8,0.5,1c0.8,0.1,4.5,0.3,7.4,0.3h2.8c3,0,6.6-0.3,7.4-0.4C58.7,77.3,57.7,76.4,57.7,76.4z"/>
	<g>
		<path fill="#FFFFFF" d="M76.8,29.1H19.2c-1.1,0-2,0.9-2,2v33.8c0,1.1,0.9,2,2,2H60v8.9c0,1.4-0.2,2.9,1.6,3c0.5,0,0.3,0.1,1.3,0.1
			l0,0c1,0.1,2.3,0.1,3.4,0.1c1.5,0,2.6,0,4.6-0.2l0,0c0,0,0.2,0,0.3,0c1.8-0.1,1.7-1.6,1.7-3v-8.9h4c1.1,0,2-0.9,2-2V31.1
			C78.8,30,77.9,29.1,76.8,29.1z M72.2,76.2H60.9V57.3h11.2V76.2z M75.8,62.9h-3v-5.7c0-1.4-0.1-2.6-1.7-2.7c-0.1,0-0.3,0-0.3,0l0,0
			c-2-0.1-3.1-0.2-4.6-0.2c-1.1,0-2.4,0-3.4,0.1l0,0c-1,0-0.8,0.1-1.3,0.1c-1.7,0.1-1.7,1.3-1.6,2.7v5.7H20.2V33.1h55.7V62.9z"/>
	</g>
</g>
</svg>
