<svg xmlns="http://www.w3.org/2000/svg" viewBox="0 0 96 96" enable-background="new 0 0 96 96"><path fill="#fff" d="M57.7 76.4s-1.1-.9-1.6-1.5l-.7-.7-.4-4.3h-12.8l-.5 4.3s-.2.5-.7 1c-.6.6-1.6 1.3-1.6 1.3s-1 .8.5 1c.8.1 4.5.3 7.4.3h2.8c3 0 6.6-.3 7.4-.4 1.2-.1.2-1 .2-1zM76.8 29.1h-57.6c-1.1 0-2 .9-2 2v33.8c0 1.1.9 2 2 2h40.8v8.9c0 1.4-.2 2.9 1.6 3 .5 0 .3.1 1.3.1 1 .1 2.3.1 3.4.1 1.5 0 2.6 0 4.6-.2h.3c1.8-.1 1.7-1.6 1.7-3v-8.9h4c1.1 0 2-.9 2-2v-33.8c-.1-1.1-1-2-2.1-2zm-4.6 47.1h-11.3v-18.9h11.2v18.9zm3.6-13.3h-3v-5.7c0-1.4-.1-2.6-1.7-2.7h-.3c-2-.1-3.1-.2-4.6-.2-1.1 0-2.4 0-3.4.1-1 0-.8.1-1.3.1-1.7.1-1.7 1.3-1.6 2.7v5.7h-39.7v-29.8h55.7v29.8z"/></svg>