<svg version="1.1" id="Layer_1" xmlns="http://www.w3.org/2000/svg" xmlns:xlink="http://www.w3.org/1999/xlink" x="0px" y="0px"
	 viewBox="0 0 96 96" enable-background="new 0 0 96 96" xml:space="preserve">
<g>
	<path fill="#FFFFFF" d="M48,33.6c-10.3,0-18.8,8.4-18.8,18.8c0,9.1,6.4,16.6,14.9,18.4c-0.2-0.4-0.3-0.9-0.3-1.4
		c0.1-1.3,1.2-2.8,3-2.6c0,0,0.8,0.1,2.2,0.1c1.1,0,1.8,0.4,2.3,1.1h0.7c0.8,0,1.3,0.4,1.6,1c0.8,0,1.5-0.1,2.3-0.1
		c0.5,0,0.9-0.1,1.4-0.2c5.5-3.3,9.3-9.3,9.3-16.2C66.7,42.1,58.3,33.6,48,33.6z M35.2,50.2c-0.3-0.3-0.3-0.9,0.1-1.3l7.2-6.8
		c0.3-0.3,0.9-0.3,1.3,0.1l1.6,1.8c0.3,0.3,0.3,0.9-0.1,1.3L38,52c-0.3,0.3-0.9,0.3-1.3-0.1L35.2,50.2z M58.4,60.9
		c-2.3,3.1-6.2,5-10.4,5s-8.1-1.8-10.4-5c-1.1-1.5-0.4-1.9,0.3-2.5c0.7-0.6,1.8-0.7,2.5,0.3c1.8,2.3,4.5,3.6,7.6,3.6
		s5.8-1.4,7.6-3.6c0.8-0.9,1.8-0.8,2.5-0.3C58.8,59,59.5,59.5,58.4,60.9z M60.1,50.2l-1.6,1.8c-0.3,0.3-0.9,0.4-1.3,0.1L50,45.2
		c-0.3-0.3-0.4-0.9-0.1-1.3l1.6-1.8c0.3-0.3,0.9-0.4,1.3-0.1l7.2,6.8C60.3,49.3,60.4,49.8,60.1,50.2z"/>
	<g>
		<path fill="#FFFFFF" d="M56,69.4c-1,0.1-2,0.1-2.9,0.1c-0.1-0.5-0.4-1-1.1-1c-0.3,0-0.7,0-1,0c-0.3-0.7-1-1.2-2-1.1
			c-1.3,0-2.2-0.1-2.2-0.1c-2.2-0.2-2.9,2.3-2,3.6c0.3,0.5,0.9,0.8,1.7,0.9c0,0,1,0.1,2.6,0.1c0.8,0,1.4-0.4,1.8-0.9
			c0.1-0.1,0.1-0.1,0.2-0.2c0.3,0,0.6,0,0.9,0c0.3-0.1,0.4-0.1,0.7-0.2c0.3-0.2,0.4-0.3,0.5-0.6c0.4,0,0.9,0,1.4,0
			c0.5,0,1-0.1,1.5-0.1c1.3-0.1,2.6-0.3,4-0.6c0.3-0.3,0.8-0.5,1.1-0.8c-1.8,0.4-3.5,0.7-5,0.8C56.1,69.4,56.1,69.4,56,69.4z"/>
		<path fill="#FFFFFF" d="M74.1,49.6v-1.1c0-1.3-1-2.3-2.3-2.3c-0.5,0-1,0.2-1.3,0.5c-1.7-6.7-6.3-12.3-12.4-15.2
			c-3-1.4-6.5-2.3-10-2.3c-12.9,0-23.3,10.3-23.3,23.2s10.4,23.2,23.2,23.2c3.6,0,7-0.8,10-2.3c0.6-0.3,1.1-0.6,1.7-0.9
			c0.2-0.1,0.3-0.2,0.5-0.3l0,0l0,0c0.4-0.3,0.8-0.5,1.1-0.8c0.1,0,0.1-0.1,0.2-0.1c0.3-0.3,0.7-0.5,1-0.8c0,0,0,0,0.1-0.1
			c0.3-0.3,0.7-0.6,1-0.8c0.1-0.1,0.3-0.2,0.3-0.3c0.3-0.2,0.4-0.4,0.7-0.6l0.1-0.1c-1.9,0.8-3.9,1.2-5.7,1.5
			c-0.3,0.2-0.6,0.3-0.9,0.5c-2.9,1.7-6.4,2.6-10,2.6c-11.5,0-20.8-9.3-20.8-20.8s9.3-20.8,20.8-20.8c3.6,0,7,0.9,10,2.6
			c6.5,3.5,10.8,10.4,10.8,18.2c0,4.2-1.3,8.1-3.4,11.3C65.2,64,65,64.2,65,64.4l0,0c0,0.1-0.1,0.1-0.1,0.2l0,0
			c-0.2,0.3-0.4,0.5-0.6,0.8l0,0c-0.2,0.3-0.4,0.5-0.6,0.7l0,0l0,0l0,0c-0.3,0.3-0.5,0.6-0.8,0.8l0,0l0,0l0,0
			c-0.3,0.3-0.5,0.5-0.8,0.8l0,0c1.7-0.5,3.4-1.2,5-2.1c0.3-0.4,0.6-0.9,0.9-1.4c0,0,0-0.1,0.1-0.1c0.2-0.3,0.3-0.5,0.4-0.7l0,0
			c0.9-1.7,1.6-3.4,2-5.2c0.4,0.3,0.8,0.5,1.3,0.5c0.1,0,0.2,0,0.2,0c-0.2,0.8-0.3,1.4-0.6,2.1c-0.2,0.5,0,0.9,0.3,1.2
			c-0.8,1.3-2.2,2.9-3.4,3.7c-0.7,0.4-1.3,0.8-2,1.1c-1.7,0.8-3.4,1.4-5.1,1.8c-0.3,0.3-0.8,0.6-1.1,0.8c1.8-0.3,3.6-0.8,5.4-1.7
			c1.1-0.5,2.1-1,3.1-1.7c1.3-0.8,2.8-2.6,3.6-3.9c0.5,0.2,1.2,0,1.4-0.7c0.6-1.7,0.8-3.3,0.9-4.4c0.1-0.9,0.1-1.6,0.1-1.8
			c0.7-0.3,1.1-1.3,1.1-2.5v-0.3C75.8,50.8,75,49.6,74.1,49.6z"/>
	</g>
</g>
</svg>
