<svg xmlns="http://www.w3.org/2000/svg" viewBox="0 0 900 841.9">
  <path d="M594,342.68H129.88c-30.21,0-52.18,24.72-52.18,52.18V740.91c0,30.21,24.72,52.18,52.18,52.18H591.29c30.21,0,52.18-24.72,52.18-52.18V397.6C646.22,367.39,621.5,342.68,594,342.68Zm-230.7,390c-90.63,0-162-71.41-162-162s71.41-162,162-162,162,71.41,162,162C522.63,658.52,451.22,732.68,363.33,732.68ZM305.66,469l162,93.38c8.24,5.49,8.24,16.48,0,22l-162,93.38c-8.24,5.49-19.23,0-19.23-11V480C286.43,469,297.42,463.52,305.66,469Zm491.62-38.45L676.43,499.22V636.55l120.85,68.66c11,5.49,24.72-2.75,24.72-13.73V444.3C824.74,433.31,808.26,425.07,797.28,430.56ZM508.9,48.8c-74.15,0-134.58,60.42-134.58,134.58S434.74,318,508.9,318s134.58-60.42,134.58-134.58C646.22,109.22,583.05,48.8,508.9,48.8Zm0,164.79a30.21,30.21,0,1,1,30.21-30.21A30.48,30.48,0,0,1,508.9,213.59ZM215,48.8c-74.15,0-134.58,60.42-134.58,134.58S140.87,318,215,318,349.6,257.53,349.6,183.38,289.18,48.8,215,48.8Zm0,164.79a30.21,30.21,0,1,1,30.21-30.21A30.48,30.48,0,0,1,215,213.59Z"/>
</svg>
