<svg class="green-beard" xmlns="http://www.w3.org/2000/svg" viewBox="0 0 644.18 591.45"><defs><style>.cls-1 { fill: #fff; } .cls-2 { fill: #fa0e6a; } .cls-3 { fill: #a0175f; } .cls-4 { fill: none; } .cls-5 { fill: #f1eae6; } .cls-6 { fill: #d0d2d3; } .cls-7 { fill: #bbbdbf; } .cls-8 { fill: #353435; } .cls-9 { fill: #e6e7e8; } .cls-10 { fill: #eadbd2; } .cls-11 { fill: #56474d; } .cls-12 { fill: #ed1e79; } .cls-13 { fill: #9e005d; } .cls-14 { fill: #00b08a; } .cls-15 { fill: #009a7a; } .cls-16 { fill: #ddcbc1; } .cls-17 { fill: #968080; }</style></defs><title>green-beard</title><g id="money"><path class="cls-1" d="M27.86 9.08c.14.32.29.29.24-.08l-.22-1.56q-.35.22-.72.41z"/><path class="cls-2" d="M162.93 188.13L208.49 170l-.72-24.32-45.56 18.12zm22.86-30.62a7.23 7.23 0 0 1 2.48-.53l.79-1.34c.31-.53.43-.48.27.11L189 157c2.88.28 5 2.73 5.07 6.49a13.9 13.9 0 0 1-6.56 11.78l-.14.43a2.67 2.67 0 0 1-1.37 1.47l-3.5 1.39c-.57.23-.87-.06-.67-.64l.59-1.68c-2.51-.58-4.27-2.92-4.38-6.38-.14-5.05 3.33-10.58 7.75-12.34z"/><path class="cls-3" d="M187.78 164.94l2.41-1c.57-.23.88.07.7.65l-3.37 10.64a13.9 13.9 0 0 0 6.56-11.78c-.11-3.77-2.19-6.21-5.07-6.49l-2 7.27c-.14.64.2.94.77.71zM182.43 176.25l1.89-5.38c.2-.58-.1-.87-.67-.64l-3.09 1.23c-.57.23-.78 0-.47-.55l8.19-13.91a7.23 7.23 0 0 0-2.48.53c-4.42 1.76-7.89 7.29-7.74 12.36.09 3.44 1.86 5.78 4.37 6.36z"/><path class="cls-1" d="M189.34 155.75c.16-.59 0-.64-.27-.11l-.79 1.36a5.85 5.85 0 0 1 .72 0zM182.43 176.25l-.59 1.68c-.2.58.1.87.67.64l3.5-1.39a2.67 2.67 0 0 0 1.37-1.47l.14-.43a9.43 9.43 0 0 1-1.18.58 6.54 6.54 0 0 1-3.91.39z"/><path class="cls-1" d="M180.57 171.46l3.09-1.23c.57-.23.87.06.67.64l-1.89 5.38a6.54 6.54 0 0 0 3.91-.4 9.43 9.43 0 0 0 1.18-.58l3.37-10.64c.19-.58-.13-.88-.7-.65l-2.41 1c-.57.23-.9-.07-.74-.66l2-7.27a5.85 5.85 0 0 0-.72 0l-8.18 13.93c-.37.46-.15.71.42.48z"/><path class="cls-2" d="M91.7 507.75l19.94 19.85 46.48-18.09-19.94-19.85zm40 8.6a9.92 9.92 0 0 1-2.89.61v1.22c0 .42-.15.46-.33.1l-.7-1.28a17.77 17.77 0 0 1-11.78-4.95c-3.77-3.76-3.86-8-.46-10.11l-.24-.57a.69.69 0 0 1 .34-.93l4.42-1.72a.71.71 0 0 1 .89.46l.59 1.6a17.89 17.89 0 0 1 10.8 4.91c4.12 4.13 3.82 8.91-.69 10.66z"/><path class="cls-3" d="M121.5 500.78l1.75 4.72a.71.71 0 0 0 .89.46l4-1.56a.46.46 0 0 1 .63.52v12a9.92 9.92 0 0 0 2.89-.61c4.51-1.76 4.81-6.53.66-10.67a17.89 17.89 0 0 0-10.82-4.86zM123.64 510.26l-3.3 1.29a.75.75 0 0 1-.93-.44l-3.91-9.16c-3.4 2.07-3.31 6.35.46 10.11a17.77 17.77 0 0 0 11.82 4.94l-3.17-6.33a.8.8 0 0 0-.97-.41z"/><path class="cls-1" d="M127.78 517l.65 1.29c.18.36.33.32.33-.1V517h-.98zM121.5 500.78l-.59-1.6a.71.71 0 0 0-.89-.46l-4.42 1.72a.69.69 0 0 0-.34.93l.24.57a7.05 7.05 0 0 1 1.12-.56 11.18 11.18 0 0 1 4.88-.6z"/><path class="cls-1" d="M128.15 504.4l-4 1.56a.71.71 0 0 1-.89-.46l-1.75-4.72a11.18 11.18 0 0 0-4.89.6 7.05 7.05 0 0 0-1.12.56l3.91 9.16a.75.75 0 0 0 .93.44l3.3-1.29a.8.8 0 0 1 1 .42l3.17 6.33h1v-12a.46.46 0 0 0-.66-.6z"/><path class="cls-2" d="M110.78 393.45l-5-12.74-26.71-21.83 5 12.74zm-18.85-23v-.2c0-.13.18-.1.38.06l2.54 2.08a.77.77 0 0 1 .33.52l-.09.51a23.76 23.76 0 0 1 4.09 6.18c1.05 2.65-.2 3.08-2.79 1a19.89 19.89 0 0 1-1.53-1.42l-.29.15c-.1.05-.18 0-.18-.16v-.49a24.54 24.54 0 0 1-4.58-6.68c-.96-2.46-.01-3 2.12-1.52z"/><path class="cls-3" d="M94.38 378.67l-.07-2.41a1 1 0 0 0-.37-.55L92 374.15a.87.87 0 0 1-.35-.53l.23-3.14c-2.12-1.51-3.07-.94-2.12 1.47a24.54 24.54 0 0 0 4.62 6.72zM95.18 375.44l2.3 1.88c.2.16.28.34.19.39l-2.79 1.46a19.89 19.89 0 0 0 1.53 1.42c2.59 2.12 3.84 1.69 2.79-1a23.76 23.76 0 0 0-4.09-6.18l-.25 1.47a.77.77 0 0 0 .32.56z"/><path class="cls-1" d="M95.1 373.46l.09-.51a.77.77 0 0 0-.33-.52l-2.54-2.08c-.2-.16-.37-.19-.38-.06v.2c.21.15.43.32.67.51a22.43 22.43 0 0 1 2.49 2.46zM94.39 379.16c0 .14.09.21.18.16l.29-.15-.49-.5v.49z"/><path class="cls-1" d="M92 374.15l1.89 1.55a1 1 0 0 1 .37.55l.07 2.41.49.5 2.79-1.46c.1-.05 0-.23-.19-.39l-2.3-1.88a.77.77 0 0 1-.33-.52l.25-1.47a22.43 22.43 0 0 0-2.5-2.47c-.24-.19-.46-.36-.67-.51l-.23 3.14a.87.87 0 0 0 .36.55z"/><path class="cls-2" d="M525.68 332.82l25.81 7.18 15.33-55.35-25.82-7.17zm23.57-34.68a10.09 10.09 0 0 1 7.32 11l.6.5a1.32 1.32 0 0 1 .39 1.26l-1.46 5.26a.44.44 0 0 1-.79.23l-1.54-1.41a10.1 10.1 0 0 1-15.64-12.63l-1-1.56c-.23-.37-.13-.45.22-.2l1.32 1a10.1 10.1 0 0 1 10.58-3.44z"/><path class="cls-3" d="M548.57 311.14l-1.32 4.76c-.11.41-.39.45-.62.09l-8.5-13.68a10.1 10.1 0 0 0 15.64 12.63l-4.41-4a.44.44 0 0 0-.79.2zM538.7 301.53l6.35 4.71a.5.5 0 0 0 .84-.29L547 302a.47.47 0 0 1 .81-.25l8.78 7.34a10.09 10.09 0 0 0-17.89-7.56z"/><path class="cls-1" d="M553.77 314.94l1.54 1.41a.44.44 0 0 0 .79-.23l1.46-5.26a1.32 1.32 0 0 0-.39-1.26l-.6-.5a9.86 9.86 0 0 1-2.8 5.84zM537.38 300.56c-.35-.26-.44-.17-.22.2l1 1.56q.27-.4.57-.78z"/><path class="cls-1" d="M547 302l-1.11 4a.5.5 0 0 1-.84.29l-6.35-4.71q-.3.37-.57.78l8.5 13.68c.23.37.51.33.62-.09l1.32-4.76a.44.44 0 0 1 .79-.23l4.41 4a9.86 9.86 0 0 0 2.8-5.84l-8.78-7.34a.47.47 0 0 0-.79.22z"/><path class="cls-2" d="M272.32 441.1l17.79 14.61 31.32-38.13L303.64 403zm30.72-5.7a8.66 8.66 0 0 1-2 1.8l.22 1.56c.05.37-.06.4-.24.08l-.7-1.23a8.67 8.67 0 0 1-11.4-12.17l-.3-.6a1.14 1.14 0 0 1 .13-1.12l3-3.63a.38.38 0 0 1 .7.1l.72 1.64a8.68 8.68 0 0 1 9.83 13.58z"/><path class="cls-3" d="M301.85 423.19a8.67 8.67 0 0 0-8.71-1.36l2.06 4.7a.38.38 0 0 0 .7.1l2.7-3.28c.23-.29.47-.22.52.15l1.88 13.7a8.67 8.67 0 0 0 .85-14.01zM296.2 431.64l-2.2 2.71a.4.4 0 0 1-.72-.08l-4.34-8.82a8.67 8.67 0 0 0 11.4 12.17l-3.34-5.91a.43.43 0 0 0-.8-.07z"/><path class="cls-1" d="M293.13 421.84l-.72-1.64a.38.38 0 0 0-.7-.1l-3 3.63a1.14 1.14 0 0 0-.13 1.12l.3.6a8.47 8.47 0 0 1 4.25-3.61zM301 438.84c.18.32.29.29.24-.08l-.24-1.56q-.35.22-.72.41z"/><path class="cls-1" d="M298.59 423.35l-2.7 3.28a.38.38 0 0 1-.7-.1l-2.06-4.7a8.47 8.47 0 0 0-4.23 3.61l4.34 8.82a.4.4 0 0 0 .72.08l2.22-2.71a.43.43 0 0 1 .76.07l3.35 5.91q.37-.19.72-.41l-1.91-13.71c-.04-.36-.28-.43-.51-.14z"/><path class="cls-2" d="M644.18 36.49l-17.78-14.6L595.08 60l17.79 14.61zm-32.82 7.27a1.14 1.14 0 0 1 .13-1.12l3-3.63a.38.38 0 0 1 .7.1l.72 1.64a8.67 8.67 0 0 1 7.89 15.37l.2 1.56c.05.37-.06.4-.24.08l-.7-1.23a8.67 8.67 0 0 1-11.4-12.17z"/><path class="cls-3" d="M618.65 45.55l2.7-3.28c.23-.29.47-.22.52.15l1.91 13.71a8.68 8.68 0 0 0-7.89-15.37l2.06 4.7a.38.38 0 0 0 .7.09zM613.59 55.52a8.68 8.68 0 0 0 9.47 1l-3.35-5.91a.43.43 0 0 0-.76-.07l-2.22 2.71a.4.4 0 0 1-.72-.08l-4.34-8.82a8.67 8.67 0 0 0 1.92 11.17z"/><path class="cls-1" d="M623.76 57.76c.18.32.29.29.24-.08l-.22-1.56q-.35.22-.72.41zM615.89 40.76l-.72-1.64a.38.38 0 0 0-.7-.1l-3 3.63a1.14 1.14 0 0 0-.13 1.12l.3.6a8.47 8.47 0 0 1 4.25-3.61z"/><path class="cls-1" d="M616.73 53.27l2.27-2.71a.43.43 0 0 1 .76.07l3.35 5.91q.37-.19.72-.41l-1.91-13.71c-.05-.37-.28-.43-.52-.15l-2.7 3.28a.38.38 0 0 1-.7-.1l-2.06-4.7a8.47 8.47 0 0 0-4.23 3.61l4.29 8.83a.4.4 0 0 0 .73.08z"/><path class="cls-2" d="M634.34 166L611 158.61l-33.62 30.73 23.38 7.41zm-38.67 10.16l-.39-.34a.54.54 0 0 1 0-.82l3.2-2.92a.68.68 0 0 1 .91 0l1 1a17.71 17.71 0 0 1 10.77-.35c4.87 1.54 6.17 5.21 2.9 8.2a10.32 10.32 0 0 1-2.26 1.53l.39.91c.14.31 0 .4-.25.2l-1-.72a17.7 17.7 0 0 1-11.65.69c-4.37-1.4-5.84-4.54-3.62-7.36z"/><path class="cls-3" d="M604.32 176l2.89-2.65a.42.42 0 0 1 .7.15l3.89 9a10.32 10.32 0 0 0 2.26-1.53c3.27-3 2-6.65-2.9-8.2a17.71 17.71 0 0 0-10.77.35l3 2.87a.68.68 0 0 0 .93.01zM611 182.85l-4.75-3.54a.78.78 0 0 0-1 0l-2.39 2.18a.72.72 0 0 1-.93 0l-6.29-5.38c-2.22 2.8-.76 6 3.67 7.36a17.7 17.7 0 0 0 11.69-.62z"/><path class="cls-1" d="M600.4 173.08l-1-1a.68.68 0 0 0-.91 0l-3.2 2.92a.54.54 0 0 0 0 .82l.39.34a7 7 0 0 1 .77-.83 11.72 11.72 0 0 1 3.95-2.25zM612 183.57c.27.2.39.11.25-.2l-.39-.91q-.4.21-.82.39z"/><path class="cls-1" d="M602.9 181.54l2.39-2.18a.78.78 0 0 1 1 0l4.75 3.54q.42-.18.82-.39l-3.89-9a.42.42 0 0 0-.7-.15l-2.95 2.64a.68.68 0 0 1-.91 0l-3-2.87a11.72 11.72 0 0 0-4 2.26 7 7 0 0 0-.77.83l6.29 5.38a.72.72 0 0 0 .97-.06z"/><path class="cls-2" d="M272.7 48.26l-2.12-13.85L246.33 25l2.12 13.85zM257.71 31l.07-.29a.31.31 0 0 1 .42-.21l2.31.9a.39.39 0 0 1 .22.47l-.25.79a10.08 10.08 0 0 1 2.91 5.41c.44 2.88-1.11 4.48-3.46 3.56a6 6 0 0 1-1.34-.78l-.38.45c-.13.15-.2.11-.17-.08l.12-.68a10.11 10.11 0 0 1-3.3-5.79c-.39-2.61.85-4.15 2.85-3.75z"/><path class="cls-3" d="M260 35.4l2.09.81a.24.24 0 0 1 .1.4l-3.61 4.26a6 6 0 0 0 1.34.78c2.35.92 3.9-.68 3.46-3.56a10.08 10.08 0 0 0-2.91-5.41l-.7 2.26a.39.39 0 0 0 .23.46zM258.17 40.55l.61-3.33a.45.45 0 0 0-.27-.48l-1.72-.67a.41.41 0 0 1-.24-.47l1.16-4.6c-2-.43-3.24 1.12-2.84 3.74a10.11 10.11 0 0 0 3.3 5.81z"/><path class="cls-1" d="M260.49 32.68l.25-.79a.39.39 0 0 0-.22-.47l-2.31-.9a.31.31 0 0 0-.42.21l-.07.29a4 4 0 0 1 .62.18 6.73 6.73 0 0 1 2.15 1.48zM258 41.23c0 .19 0 .23.17.08l.38-.45c-.14-.1-.28-.2-.42-.31z"/><path class="cls-1" d="M256.79 36.08l1.72.67a.45.45 0 0 1 .27.48l-.61 3.33c.14.12.28.21.42.31l3.61-4.26a.24.24 0 0 0-.1-.4l-2.1-.81a.39.39 0 0 1-.22-.47l.7-2.26a6.73 6.73 0 0 0-2.16-1.47 4 4 0 0 0-.62-.18l-1.16 4.58a.41.41 0 0 0 .25.48z"/><path class="cls-2" d="M312.56 278.91l-19 27 18.25 3.66 19-27zm4.79 18.5l.44.67c.15.23.09.31-.15.18l-.83-.47a11.76 11.76 0 0 1-8.33 1.59c-3.45-.69-5.07-3-3.95-5.4l-.34-.23a.46.46 0 0 1-.15-.64l1.81-2.56a.47.47 0 0 1 .66-.07l.91.67a11.84 11.84 0 0 1 7.75-1.24c3.8.76 5.38 3.5 3.54 6.12a6.56 6.56 0 0 1-1.36 1.38z"/><path class="cls-3" d="M312.07 295.58l-1.35 1.92a.49.49 0 0 1-.67.1l-5.5-3.62c-1.12 2.38.49 4.71 3.95 5.4a11.76 11.76 0 0 0 8.33-1.59l-4.06-2.33a.53.53 0 0 0-.7.12zM315.18 289.89a11.84 11.84 0 0 0-7.75 1.24l2.69 2a.47.47 0 0 0 .66-.07l1.64-2.32a.31.31 0 0 1 .54.05l4.39 6.65a6.56 6.56 0 0 0 1.37-1.39c1.85-2.66.28-5.4-3.54-6.16z"/><path class="cls-1" d="M307.43 291.13l-.91-.67a.47.47 0 0 0-.66.07L304 293.1a.46.46 0 0 0 .15.64l.34.23a4.67 4.67 0 0 1 .41-.72 7.4 7.4 0 0 1 2.53-2.12zM317.65 298.26c.23.13.3.05.15-.18l-.44-.67q-.25.2-.53.38z"/><path class="cls-1" d="M312.42 290.7l-1.64 2.3a.47.47 0 0 1-.66.07l-2.69-2a7.4 7.4 0 0 0-2.48 2.12 4.67 4.67 0 0 0-.41.72l5.5 3.62a.49.49 0 0 0 .67-.1l1.35-1.92a.53.53 0 0 1 .68-.12l4.06 2.33q.28-.18.53-.38l-4.33-6.58a.31.31 0 0 0-.58-.06z"/><path class="cls-4" d="M28.68 9.08c.18.32.32.29.24-.08l-.22-1.56q-.35.22-.72.41zM467.68 8.74c0 .17.11.26.22.19l.35-.19c-.2-.2-.4-.4-.6-.61z"/><path class="cls-2" d="M30.72 5.64a8.66 8.66 0 0 1-2 1.8l.2 1.56c.05.37-.06.4-.24.08L28 7.86a8.68 8.68 0 0 1-9.47-1A8.64 8.64 0 0 1 15.35 0h-6L0 11.34l17.79 14.61L39.09 0h-6.4a8.64 8.64 0 0 1-1.97 5.64z"/><path class="cls-3" d="M18.51 6.84a8.68 8.68 0 0 0 9.47 1l-3.35-5.89a.43.43 0 0 0-.76-.07l-2.22 2.71a.4.4 0 0 1-.72-.08L18.71 0h-3.36a8.64 8.64 0 0 0 3.16 6.84zM28.7 7.44a8.66 8.66 0 0 0 2-1.8 8.64 8.64 0 0 0 2-5.64h-5z"/><path class="cls-1" d="M18.71 0l2.22 4.51a.4.4 0 0 0 .72.08l2.22-2.71a.43.43 0 0 1 .76.07L28 7.86q.37-.19.72-.41L27.66 0h-9z"/><path class="cls-2" d="M355.22 0h-3.94l4.39 21.86 18.42-16.22L373 0h-13.2a4.34 4.34 0 0 1-4.58 0z"/><path class="cls-3" d="M359.75 0h-4.53a4.34 4.34 0 0 0 4.53 0z"/><path class="cls-2" d="M481.46 10.63L468.48 0h-.92l.68.56a.93.93 0 0 1 .4.63l-.1.62a28.86 28.86 0 0 1 5 7.5c1.28 3.22-.24 3.74-3.38 1.17a24.17 24.17 0 0 1-1.86-1.73l-.35.19c-.12.06-.22 0-.22-.19v-.6A29.85 29.85 0 0 1 462.12 0h-6.4l31.86 26.1z"/><path class="cls-3" d="M467.13 4.54l-2.3-1.88a1.05 1.05 0 0 1-.42-.66l.15-2h-2.43a29.85 29.85 0 0 0 5.54 8.14l-.09-2.93a1.21 1.21 0 0 0-.45-.67zM468.64 4.23l2.79 2.28c.24.2.34.41.23.47l-3.39 1.77a24.17 24.17 0 0 0 1.86 1.73c3.15 2.58 4.66 2.05 3.38-1.17a28.86 28.86 0 0 0-5-7.5l-.3 1.79a.93.93 0 0 0 .43.63z"/><path class="cls-1" d="M468.54 1.81l.1-.62a.93.93 0 0 0-.4-.63l-.68-.56h-.75c.58.56 1.19 1.17 1.73 1.81z"/><path class="cls-1" d="M466.81 0h-2.26l-.15 2a1.05 1.05 0 0 0 .42.65l2.3 1.88a1.21 1.21 0 0 1 .45.67l.09 2.93c.2.21.4.41.6.61L471.65 7c.12-.06 0-.27-.23-.47l-2.79-2.28a.93.93 0 0 1-.4-.63l.3-1.79C468 1.17 467.39.56 466.81 0z"/><path class="cls-2" d="M635 456.9l-48.44-39.68 9.17 23.14L644.18 480zm-17-.22a35.73 35.73 0 0 1-2.8-2.58l-.51.27c-.18.09-.33 0-.34-.29v-.89c-3.55-3.81-6.88-8.62-8.3-12.21-1.74-4.38 0-5.41 3.85-2.67v-.36c0-.24.33-.18.69.11l4.61 3.77a1.4 1.4 0 0 1 .59.94l-.15.91a43.19 43.19 0 0 1 7.43 11.24c1.93 4.83-.31 5.61-5.01 1.76z"/><path class="cls-3" d="M613.59 447.8l-3.45-2.8a1.57 1.57 0 0 1-.63-1l.42-5.7c-3.86-2.74-5.58-1.71-3.85 2.67 1.42 3.58 4.75 8.39 8.3 12.21l-.13-4.39a1.81 1.81 0 0 0-.66-.99zM615.69 443.69l-.45 2.69a1.4 1.4 0 0 0 .59.94l4.17 3.42c.36.3.52.62.34.71l-5.08 2.65a35.73 35.73 0 0 0 2.8 2.58c4.7 3.85 7 3.07 5.06-1.75a43.19 43.19 0 0 0-7.43-11.24z"/><path class="cls-1" d="M615.69 443.69l.15-.91a1.4 1.4 0 0 0-.59-.94l-4.61-3.77c-.36-.3-.67-.35-.69-.11v.36c.39.27.79.57 1.22.92a40.56 40.56 0 0 1 4.52 4.45zM614.41 454.08c0 .25.16.38.34.29l.51-.27-.88-.92z"/><path class="cls-1" d="M620 450.74l-4.17-3.42a1.4 1.4 0 0 1-.59-.94l.45-2.69a40.56 40.56 0 0 0-4.55-4.46c-.43-.35-.83-.65-1.22-.92l-.42 5.7a1.57 1.57 0 0 0 .63 1l3.44 2.82a1.81 1.81 0 0 1 .67 1l.13 4.39.88.92 5.08-2.65c.19-.14.04-.49-.33-.75z"/><path class="cls-2" d="M178.43 46.6l-12.85 4.81-29.34 35.67 12.85-4.81zm-27.29 23.46c-.11 0 0-.3.21-.57l2.79-3.39a.75.75 0 0 1 .57-.38l.39.28a25 25 0 0 1 6.9-4.87c2.68-1 2.53 1-.31 4.46-.56.68-1.17 1.36-1.83 2v.46a.2.2 0 0 1-.21.24l-.42-.09c-2.57 2.5-5.56 4.7-7.55 5.44-2.43.91-2.53-.66-.39-3.56z"/><path class="cls-3" d="M156.83 66.29l2.53-3.07c.22-.27.4-.36.41-.2l.1 4.59c.65-.67 1.27-1.35 1.83-2 2.85-3.46 3-5.46.31-4.46A25 25 0 0 0 155.1 66l1.16.71a.75.75 0 0 0 .57-.42zM151.69 73.68c2-.75 5-2.94 7.55-5.44l-2.08-.44a1 1 0 0 0-.62.44l-2.08 2.53a.87.87 0 0 1-.59.41l-2.57-1.06c-2.14 2.88-2.04 4.47.39 3.56z"/><path class="cls-1" d="M159.24 68.24l.42.09a.2.2 0 0 0 .21-.24v-.47zM155.1 66l-.39-.24a.75.75 0 0 0-.57.38l-2.79 3.39c-.22.27-.31.52-.21.57l.16.07c.21-.29.44-.59.7-.9a34 34 0 0 1 3.1-3.27z"/><path class="cls-1" d="M154.46 70.78l2.08-2.53a1 1 0 0 1 .62-.44l2.08.44.62-.62-.1-4.63c0-.16-.19-.07-.41.2l-2.53 3.07a.75.75 0 0 1-.57.38L155.1 66a34 34 0 0 0-3.1 3.26c-.26.32-.49.61-.7.9l2.57 1.06a.87.87 0 0 0 .59-.44z"/></g><g class="the-guy"><path class="cls-4" d="M391.54 556.37a3.31 3.31 0 0 0-.38-.45 3.33 3.33 0 0 1 .38.45z"/><path class="cls-5" d="M385.27 564.78c2.39-2.93 2.66-4.86 2.75-6.3l-4.3-2.79-5.76 9 3.61 2.34a7.17 7.17 0 0 0 3.7-2.25zM570 520a7 7 0 0 0-.79-4.1c-2.18-3.88-4.14-4.52-5.51-5.18l-3.7 1.14 3.13 10.25z"/><path class="cls-6" d="M577 498.24l-.57.27-12.76 8.49s-2.54.56-1.45 2.52a2.94 2.94 0 0 0 1.47 1.22c1.37.65 3.33 1.29 5.51 5.18a7 7 0 0 1 .8 4.08c-.1 1.64-.36 2.76 1.41 2.95 3 .31 10.64 8.36 17.89 18.31 4.7 6.45 10.08 5.93 13.28 4.77a5.27 5.27 0 0 0 .79-.37z"/><path class="cls-7" d="M605.13 544.12l-26.06-46.87-2.09 1 26.38 47.46a5.35 5.35 0 0 0 1.77-1.59z"/><path class="cls-8" d="M563.13 522.15L559.72 511c-106 33.34-93.8-80.63-93.8-80.63V397h-.12v7.27h-78.19v12.43a45.56 45.56 0 0 1-2.6 14.69c-10.61 24.23-36 40.23-49.84 62.22a35.3 35.3 0 0 0-3.85 26.39c4.87 20.06 28.21 37.27 46 45.62l7-11-20-13c-16.5-11.1-28.42-31-14.48-49q1.88-2.26 3.85-4.44c18.6-20.72 71.68-68.06 94.12-26.09 2 4.52 2.28 7.67 3.63 11.9C471.38 558.16 563.39 523 563.39 523z"/><path class="cls-9" d="M453.76 427.81a.33.33 0 1 0 .44-.5c-.44-.39-.89-.82-1.31-1.27a.33.33 0 0 0-.48.46c.43.5.89.91 1.35 1.31zM451.61 425.64a.33.33 0 0 0 .5-.44c-.39-.45-.78-.93-1.15-1.42a.33.33 0 0 0-.53.4c.38.51.78 1 1.18 1.46zM456.2 429.66a.33.33 0 0 0 .36-.56 17.65 17.65 0 0 1-1.48-1.05.33.33 0 0 0-.41.52 18.38 18.38 0 0 0 1.53 1.09zM445.56 412.83a.33.33 0 0 0-.25.4c.14.6.3 1.21.48 1.81a.33.33 0 0 0 .32.24h.1a.33.33 0 0 0 .22-.42c-.18-.59-.34-1.18-.47-1.77a.33.33 0 0 0-.4-.26zM448.74 421.66c.32.54.66 1.07 1 1.58a.33.33 0 0 0 .55-.38c-.34-.5-.67-1-1-1.54a.33.33 0 0 0-.55.34zM446.16 416.15c.2.58.43 1.17.67 1.75a.33.33 0 0 0 .31.2h.13a.33.33 0 0 0 .18-.44c-.24-.56-.46-1.14-.66-1.71a.33.33 0 1 0-.63.2zM447.31 419c.26.56.55 1.13.85 1.67a.33.33 0 1 0 .59-.32c-.29-.53-.57-1.08-.83-1.63a.33.33 0 1 0-.61.28zM458 430.67a.33.33 0 1 0 .28-.61c-.27-.12-.53-.25-.79-.39a.33.33 0 1 0-.31.59c.31.14.59.28.82.41z"/><path class="cls-6" d="M404.13 565.09l.46.43 1.69 1.58-2.15-2.01-12.59-8.72 12.59 8.72M388.66 555.94a1.52 1.52 0 0 1 2.5 0 1.52 1.52 0 0 0-2.5 0 4 4 0 0 0-.64 2.54 4 4 0 0 1 .64-2.54zM379.52 569.42c-.46-1.66.58-1.87 2.06-2.34-1.48.47-2.52.68-2.05 2.34.78 2.81-3.49 12.12-9.65 22 6.12-9.88 10.43-19.19 9.64-22zM385.27 564.78c2.39-2.94 2.66-4.86 2.75-6.3-.09 1.44-.36 3.37-2.75 6.3a7.17 7.17 0 0 1-3.69 2.3 7.16 7.16 0 0 0 3.69-2.3z"/><path class="cls-6" d="M404.13 565.09l-12.59-8.72a3.33 3.33 0 0 0-.38-.45 1.52 1.52 0 0 0-2.5 0 4 4 0 0 0-.64 2.54c-.09 1.44-.36 3.37-2.75 6.3a7.17 7.17 0 0 1-3.69 2.3c-1.48.47-2.52.68-2.06 2.34.78 2.81-3.48 12.12-9.64 22h13.41l21.3-25.93z"/><path class="cls-7" d="M386.28 591.45l20-24.34v-.01l-20.01 24.35h.01"/><path class="cls-7" d="M383.29 591.45h2.98l20.01-24.35-1.69-1.58-21.3 25.93"/><g id="arm_left" data-name="arm left"><path class="cls-10" d="M374.9 183l.05-.07 1.2-1.55-.12-.22a26.82 26.82 0 0 0-6.35 5.07l4.68-2.58zM317.23 74.33a7.66 7.66 0 1 0-13.42 7.39l58.79 106.76c2.05-4.86 4.88-10.66 8.24-16.79z"/></g><g id="arm_right" data-name="arm right"><path class="cls-10" d="M551.31 61.45a7.66 7.66 0 0 0-10.41 3l-3.77 6.81-18.58 33.58-3.64 6.58-37.33 67.48 1.79 1 7.09 3.92 4.52 2.5 15.81-28.57 17.14-31 .05-.1 26.57-48 3.77-6.81a7.66 7.66 0 0 0-3.01-10.39z"/><path class="cls-11" d="M527.54 102.14a19.88 19.88 0 0 1 .41-8.67l-.32-.11a20 20 0 0 0-.42 8.85zM526.34 110.29c-1.11-3.85-1.49-10.48-.3-14.23l-.32-.1c-1.25 3.93-.82 10.55.3 14.43z"/></g><path class="cls-12" d="M491 186.35l-16.07-8.89-3.93 7.09 1.2.66-19.3 34.84 5.12-3.3-43.02 24.9v.11l-.33.33-.26-.16-10.53 4.26.12-.19h-8.2l-3.26 1.79L394 246h-6.51v158.25h78.31V232.92l3.71-3.7 19.26-34.82.94.52 3.92-7.09-2.63-1.48z"/><g class="shirt-under-beard"><path class="cls-4" d="M376.52 180.9l-.48.24.12.22z"/><path class="cls-12" d="M374.71 214l1.87 3.39a42.84 42.84 0 0 1 1.62-5.26z"/><path class="cls-13" d="M360.62 191.2l.51.93c.19-.5.39-1 .6-1.54zM363.49 193.58l-.89 1.22 1.93 3.51.21-.11.64-1.2zM369.69 186.21c-.71.73-1.41 1.49-2.09 2.27l5.21-2.87q.75-1 1.56-2z"/><path class="cls-13" d="M365.44 193.64l-.84-1.52-1.11 1.46 1.88 3.42q.51-.95 1.09-1.93a7.66 7.66 0 0 1-1.02-1.43zM379 208.32c-1.58 1.95-3 3.81-4.33 5.59l3.46-1.91a39.39 39.39 0 0 1 3.12-6.34c-.76.93-1.53 1.81-2.25 2.66z"/><path class="cls-12" d="M418 226.14l-.41-.08c-.62.58-1.51 1.49-2.61 2.62V230a.33.33 0 0 1-.67 0v-.61l-.63.64q-1.23 1.29-2.5 2.58c-1.3 1.32-2.63 2.62-4 3.89l-.13.12h4.5c.88-1.24 1.78-2.59 2.69-4v-1.44a.33.33 0 0 1 .67 0v.38C416 229.8 417 228 418 226.14zM401.93 231.68l-1.12.91c-1.8 1.46-3.44 2.77-5.08 4h4.39c.79-1.41 1.51-2.77 2.12-4 .33-.67.63-1.31.89-1.9zM397.7 219.1l-.75.71a65.27 65.27 0 0 1-9.46 7.19 36.59 36.59 0 0 0-3.94 3l1.36 2.48a9.45 9.45 0 0 0 2.43 2.87l.15-.2c.63-.84 1.26-1.7 1.88-2.59 2.44-3.45 4.87-7.29 7.61-11.81l.65-1.08.78-1.29zM367.59 188.48c-1.05 1.2-2.06 2.43-3 3.63l.84 1.52a7.67 7.67 0 0 0 1 1.42 88.23 88.23 0 0 1 6.35-9.45zM382.08 191.75l-1.32.84-2.21 1.55-1.55 1.09c-.79.6-1.64 1.26-2.54 2-1.82 1.5-3.85 3.29-6 5.41l1.86 3.38.33-.54a65.57 65.57 0 0 1 11.42-13.73z"/></g><g id="stripes"><path class="cls-13" d="M490.96 186.35l-16.06-8.89-3.93 7.09 3.34 1.85.15-.2-.01.27 15.26 8.45 3.92-7.09-2.67-1.48zM475.64 197.71l-7.95-4.4-4.53 8.21 6.65 3.67 9.94 5.51 4.54-8.2-8.65-4.79zM387.49 372.59h78.31v9.37h-78.31zM387.49 338.59h78.31v9.37h-78.31zM387.49 304.6h78.31v9.37h-78.31zM387.49 270.6h78.31v9.37h-78.31zM387.49 236.6h78.31v9.37h-78.31z"/></g><g id="line_2" data-name="line 2" class="shirt-line-2"><path class="cls-9" d="M390.79 279.69v-1.81a.33.33 0 0 0-.67 0v1.82a.31.31 0 0 0 .19.27h.28a.31.31 0 0 0 .2-.28zM406.23 279.13a.33.33 0 0 0-.67 0v.85h.67v-.85zM405.89 278.33a.33.33 0 0 0 .33-.33v-1.81a.33.33 0 0 0-.67 0V278a.33.33 0 0 0 .34.33zM390.45 274.14a.33.33 0 0 0 .33-.33V272a.33.33 0 0 0-.67 0v1.81a.33.33 0 0 0 .34.33zM390.45 277.08a.33.33 0 0 0 .33-.33v-1.81a.33.33 0 1 0-.67 0v1.81a.33.33 0 0 0 .34.33zM405.56 272.1a.33.33 0 1 0 .67 0v-1.5h-.67v1.5zM405.89 275.38a.33.33 0 0 0 .33-.33v-1.81a.33.33 0 1 0-.67 0V275a.33.33 0 0 0 .34.38z"/><path class="cls-9" d="M405.89 270a.33.33 0 0 0-.33.33v.31h.67v-.31a.33.33 0 0 0-.34-.33zM390.45 268.72a.33.33 0 0 0-.33.33v1.55h.67V269a.33.33 0 0 0-.34-.28zM394.66 254.78h1.81a.33.33 0 1 0 0-.67h-1.81a.33.33 0 0 0 0 .67zM405.89 255.23a.33.33 0 0 0-.33.33v1.81a.33.33 0 0 0 .67 0v-1.81a.33.33 0 0 0-.34-.33zM404.06 254.78h1.81a.33.33 0 0 0 0-.67h-1.81a.33.33 0 0 0 0 .67zM401.12 254.78h1.81a.33.33 0 0 0 0-.67h-1.81a.33.33 0 0 0 0 .67zM391.71 254.78h1.81a.33.33 0 1 0 0-.67h-1.81a.33.33 0 0 0 0 .67zM405.89 261.12a.33.33 0 0 0-.33.33v1.81a.33.33 0 0 0 .67 0v-1.81a.33.33 0 0 0-.34-.33zM390.45 256.47a.33.33 0 0 0 .33-.33v-1.42a.33.33 0 0 0-.21-.59h-.46v2a.33.33 0 0 0 .34.34zM405.89 267a.33.33 0 0 0-.33.33v1.81a.33.33 0 0 0 .67 0v-1.81a.33.33 0 0 0-.34-.33zM405.89 258.18a.33.33 0 0 0-.33.33v1.81a.33.33 0 1 0 .67 0v-1.81a.33.33 0 0 0-.34-.33zM405.89 264.07a.33.33 0 0 0-.33.33v1.81a.33.33 0 1 0 .67 0v-1.81a.33.33 0 0 0-.34-.33zM397.6 254.78h2.4a.33.33 0 1 0 0-.67h-2.4a.33.33 0 0 0 0 .67zM390.45 262.36a.33.33 0 0 0 .33-.33v-1.81a.33.33 0 1 0-.67 0V262a.33.33 0 0 0 .34.36zM390.45 268.25a.33.33 0 0 0 .33-.33v-1.82a.33.33 0 0 0-.67 0v1.81a.33.33 0 0 0 .34.34zM390.45 259.41a.33.33 0 0 0 .33-.33v-1.81a.33.33 0 1 0-.67 0v1.81a.33.33 0 0 0 .34.33zM390.45 265.3a.33.33 0 0 0 .33-.33v-1.81a.33.33 0 0 0-.67 0V265a.33.33 0 0 0 .34.3zM405.35 284.65a.33.33 0 0 0-.4.25c-.14.59-.29 1.17-.47 1.72a.33.33 0 0 0 .22.42h.1a.33.33 0 0 0 .32-.23c.18-.57.35-1.17.49-1.78a.33.33 0 0 0-.26-.38zM392.45 288.18a17.74 17.74 0 0 1-.62-1.67.33.33 0 1 0-.64.2 18.37 18.37 0 0 0 .64 1.73.33.33 0 0 0 .31.2h.13a.33.33 0 0 0 .18-.46zM394.54 291.53a.33.33 0 1 0-.49.45 7.39 7.39 0 0 0 1.44 1.22.33.33 0 1 0 .36-.56 6.74 6.74 0 0 1-1.31-1.11zM400.94 292.33a5.1 5.1 0 0 1-1.48.81.33.33 0 0 0 .11.65h.11a5.75 5.75 0 0 0 1.68-.92.33.33 0 1 0-.42-.54zM405.51 280.92a.33.33 0 0 0 .31.35.33.33 0 0 0 .33-.31v-1h-.67c.05.33.05.65.03.96zM392.93 289.18a.33.33 0 1 0-.59.31 12.73 12.73 0 0 0 1 1.58.33.33 0 0 0 .54-.39 12.06 12.06 0 0 1-.95-1.5zM398.43 293.35a4 4 0 0 1-1.64-.24.33.33 0 0 0-.23.63 4.69 4.69 0 0 0 1.61.29h.31a.33.33 0 0 0 .31-.35.33.33 0 0 0-.36-.33zM404.54 287.48a.33.33 0 0 0-.43.19 15.52 15.52 0 0 1-.74 1.61.33.33 0 1 0 .59.31 16.09 16.09 0 0 0 .77-1.68.33.33 0 0 0-.19-.43zM402.81 290.23a9.67 9.67 0 0 1-1.08 1.38.33.33 0 1 0 .48.46 10.32 10.32 0 0 0 1.15-1.47.33.33 0 1 0-.55-.37zM391.29 285.85a.33.33 0 0 0 .24-.41c-.15-.56-.27-1.15-.37-1.75a.33.33 0 0 0-.66.11c.11.61.24 1.22.38 1.8a.33.33 0 0 0 .32.25h.08zM405.79 281.74a.33.33 0 0 0-.37.3c-.06.6-.15 1.2-.25 1.77a.33.33 0 0 0 .27.39h.06a.33.33 0 0 0 .33-.27c.11-.59.19-1.2.25-1.82a.33.33 0 0 0-.29-.37zM390.7 283a.33.33 0 0 0 .29-.37c-.07-.59-.13-1.18-.16-1.78a.33.33 0 1 0-.67 0c0 .61.09 1.23.16 1.83a.33.33 0 0 0 .33.29z"/></g><g id="line_1" data-name="line 1" class="shirt-line-1"><path class="cls-9" d="M414.62 277.43a.33.33 0 0 0 .33-.33v-1.81a.33.33 0 0 0-.67 0v1.81a.33.33 0 0 0 .34.33zM414.62 381a.33.33 0 0 0-.33.33v.67h.71v-.66a.33.33 0 0 0-.38-.34zM415 346a.33.33 0 1 0-.67 0v1.81a.32.32 0 0 0 .08.19h.51a.32.32 0 0 0 .08-.19V346zM414.62 309.83a.33.33 0 0 0 .33-.33v-1.81a.33.33 0 1 0-.67 0v1.81a.33.33 0 0 0 .34.33zM414.62 312.77a.33.33 0 0 0 .33-.33v-1.81a.33.33 0 1 0-.67 0v1.81a.33.33 0 0 0 .34.33zM414.62 274.49a.33.33 0 0 0 .33-.33v-1.81a.33.33 0 1 0-.67 0v1.81a.33.33 0 0 0 .34.33zM414.29 338.94a.33.33 0 1 0 .67 0v-.35h-.67v.35zM414.29 374.28a.33.33 0 1 0 .67 0v-1.69h-.67v1.69zM414.62 245.5a.33.33 0 0 0-.33.33v.17h.71v-.14a.33.33 0 0 0-.38-.36zM414.62 242.56a.33.33 0 0 0-.33.33v1.81a.33.33 0 1 0 .67 0v-1.81a.33.33 0 0 0-.34-.33zM414.36 241.93a.31.31 0 0 0 .26.16.33.33 0 0 0 .33-.33v-.11l-.37.17zM414.62 345.17a.33.33 0 0 0 .33-.33V343a.33.33 0 0 0-.67 0v1.81a.33.33 0 0 0 .34.36zM414.62 380.51a.33.33 0 0 0 .33-.33v-1.81a.33.33 0 1 0-.67 0v1.81a.33.33 0 0 0 .34.33zM414.62 277.9a.33.33 0 0 0-.33.33V280h.71v-1.74a.33.33 0 0 0-.38-.36zM414.29 304.73v1.81a.33.33 0 1 0 .67 0v-1.81a.31.31 0 0 0-.06-.14h-.55a.31.31 0 0 0-.06.14zM414.62 313.24a.33.33 0 0 0-.33.33v.43h.71v-.4a.33.33 0 0 0-.38-.36zM414.62 342.22a.33.33 0 0 0 .33-.33v-1.81a.33.33 0 1 0-.67 0v1.81a.33.33 0 0 0 .34.33zM414.29 271.21a.33.33 0 1 0 .67 0v-.61h-.67v.61zM414.62 377.56a.33.33 0 0 0 .33-.33v-1.81a.33.33 0 0 0-.67 0v1.81a.33.33 0 0 0 .34.33zM414.62 324.55a.33.33 0 0 0 .33-.33v-1.81a.33.33 0 0 0-.67 0v1.81a.33.33 0 0 0 .34.33zM414.62 321.61a.33.33 0 0 0 .33-.33v-1.81a.33.33 0 0 0-.67 0v1.81a.33.33 0 0 0 .34.33zM414.62 333.39a.33.33 0 0 0 .33-.33v-1.81a.33.33 0 0 0-.67 0v1.81a.33.33 0 0 0 .34.33zM414.62 318.66a.33.33 0 0 0 .33-.33v-1.81a.33.33 0 1 0-.67 0v1.81a.33.33 0 0 0 .34.33zM414.62 336.33a.33.33 0 0 0 .38-.33v-1.81a.33.33 0 1 0-.67 0V336a.33.33 0 0 0 .29.33zM414.62 327.5a.33.33 0 0 0 .33-.33v-1.81a.33.33 0 0 0-.67 0v1.81a.33.33 0 0 0 .34.33zM414.29 315.38a.33.33 0 1 0 .67 0V314h-.67v1.41zM414.62 336.8a.33.33 0 0 0-.33.33v1.46h.71v-1.46a.33.33 0 0 0-.38-.33zM414.62 330.44a.33.33 0 0 0 .33-.33v-1.81a.33.33 0 1 0-.67 0v1.81a.33.33 0 0 0 .34.33zM414.29 230a.33.33 0 0 0 .67 0v-1.3l-.67.69v.61zM414.62 230.78a.33.33 0 0 0-.33.33v1.44l.67-1.06v-.38a.33.33 0 0 0-.34-.33zM414.62 259.76a.33.33 0 0 0 .33-.33v-1.81a.33.33 0 0 0-.67 0v1.81a.33.33 0 0 0 .34.33zM414.29 247.65a.33.33 0 1 0 .67 0V246h-.67v1.67zM414.62 250.92a.33.33 0 0 0 .33-.33v-1.81a.33.33 0 1 0-.67 0v1.81a.33.33 0 0 0 .34.33zM414.62 262.7a.33.33 0 0 0 .33-.33v-1.81a.33.33 0 1 0-.67 0v1.81a.33.33 0 0 0 .34.33zM414.62 269.06a.33.33 0 0 0-.33.33v1.21h.71v-1.21a.33.33 0 0 0-.38-.33zM414.62 253.87a.33.33 0 0 0 .33-.33v-1.81a.33.33 0 1 0-.67 0v1.81a.33.33 0 0 0 .34.33zM414.62 256.81a.33.33 0 0 0 .33-.33v-1.81a.33.33 0 1 0-.67 0v1.81a.33.33 0 0 0 .34.33zM414.62 268.59a.33.33 0 0 0 .33-.33v-1.81a.33.33 0 1 0-.67 0v1.81a.33.33 0 0 0 .34.33zM414.62 265.65a.33.33 0 0 0 .33-.33v-1.82a.33.33 0 0 0-.67 0v1.81a.33.33 0 0 0 .34.34zM414.62 359.89a.33.33 0 0 0 .33-.33v-1.81a.33.33 0 1 0-.67 0v1.81a.33.33 0 0 0 .34.33zM414.62 354a.33.33 0 0 0 .33-.33v-1.81a.33.33 0 1 0-.67 0v1.81a.33.33 0 0 0 .34.33zM414.62 365.78a.33.33 0 0 0 .33-.33v-1.81a.33.33 0 1 0-.67 0v1.81a.33.33 0 0 0 .34.33zM414.62 356.95a.33.33 0 0 0 .33-.33v-1.82a.33.33 0 1 0-.67 0v1.81a.33.33 0 0 0 .34.34zM414.62 362.84a.33.33 0 0 0 .33-.33v-1.81a.33.33 0 1 0-.67 0v1.81a.33.33 0 0 0 .34.33zM414.62 371.67a.33.33 0 0 0 .33-.33v-1.81a.33.33 0 0 0-.67 0v1.81a.33.33 0 0 0 .34.33z"/><path class="cls-9" d="M414.62 348.11a.31.31 0 0 0 .26-.15h-.51a.31.31 0 0 0 .25.15zM414.62 368.73a.33.33 0 0 0 .33-.33v-1.81a.33.33 0 1 0-.67 0v1.81a.33.33 0 0 0 .34.33zM414.62 372.14a.33.33 0 0 0-.33.33v.12h.71v-.12a.33.33 0 0 0-.38-.33zM414.62 351.06a.33.33 0 0 0 .33-.33v-1.81a.33.33 0 1 0-.67 0v1.81a.33.33 0 0 0 .34.33zM414.62 392.29a.33.33 0 0 0 .38-.29v-1.81a.33.33 0 1 0-.67 0V392a.33.33 0 0 0 .29.29zM414.62 389.34a.33.33 0 0 0 .38-.34v-1.8a.33.33 0 0 0-.67 0v1.8a.33.33 0 0 0 .29.34zM414.29 383.12a.33.33 0 1 0 .67 0V382h-.67v1.16zM415 396a.33.33 0 1 0-.67 0v1h.67v-1zM414.62 386.4a.33.33 0 0 0 .33-.33v-1.81a.33.33 0 0 0-.67 0v1.81a.33.33 0 0 0 .34.33zM414.62 395.23a.33.33 0 0 0 .33-.33v-1.81a.33.33 0 0 0-.67 0v1.81a.33.33 0 0 0 .34.33zM414.62 401.59a.33.33 0 0 0-.33.33v1.81a.33.33 0 0 0 .67 0v-1.81a.33.33 0 0 0-.34-.33zM414.62 398.18a.33.33 0 0 0 .33-.33V397h-.67v.86a.33.33 0 0 0 .34.32zM414.62 398.64a.33.33 0 0 0-.33.33v1.81a.33.33 0 1 0 .67 0V399a.33.33 0 0 0-.34-.36zM414.62 295.1a.33.33 0 0 0 .33-.33V293a.33.33 0 0 0-.67 0v1.81a.33.33 0 0 0 .34.29zM414.62 283.32a.33.33 0 0 0 .38-.32v-1.81a.33.33 0 0 0-.67 0V283a.33.33 0 0 0 .29.32zM414.62 289.21a.33.33 0 0 0 .33-.33v-1.81a.33.33 0 0 0-.67 0v1.81a.33.33 0 0 0 .34.33zM414.62 304.4a.31.31 0 0 0-.28.19h.55a.31.31 0 0 0-.27-.19zM414.29 280a.33.33 0 0 0 .67 0h-.67zM414.62 286.27a.33.33 0 0 0 .33-.33v-1.81a.33.33 0 1 0-.67 0v1.81a.33.33 0 0 0 .34.33zM414.62 292.16a.33.33 0 0 0 .33-.33V290a.33.33 0 1 0-.67 0v1.81a.33.33 0 0 0 .34.35zM414.62 301a.33.33 0 0 0 .33-.33v-1.81a.33.33 0 1 0-.67 0v1.81a.33.33 0 0 0 .34.33zM414.62 303.94a.33.33 0 0 0 .33-.33v-1.81a.33.33 0 1 0-.67 0v1.81a.33.33 0 0 0 .34.33zM414.62 298a.33.33 0 0 0 .33-.33v-1.77a.33.33 0 1 0-.67 0v1.81a.33.33 0 0 0 .34.29z"/></g><g id="head"><path class="cls-10" d="M501.58 85.17a53.86 53.86 0 0 0-9.1-5.71c-.14.29-.29.59-.46.89-2.3 4.13-5.41 5.73-12.77 1.68-6.12-3.37-8.3-6-8-8.41-12.91-1-24.65 2.64-30.07 9.6l-16.68 21.39a4.92 4.92 0 0 0 1.29.09c3-.2 2.75 3.48 2.48 5.14a4.22 4.22 0 0 1-.05.74v.24-.24.08s-.73-3.33-6.86-.41a15.82 15.82 0 0 1-1.68.69l-2.56 3.29a2.93 2.93 0 0 1 3.22.07 3.06 3.06 0 0 1 .71 3.58c-1.57.62-3.34 1.33-5.32 2.13a3 3 0 0 1-.77-3l-3.84 4.93h-.08c-2.32 1-11.89 2.3-7.41 8.73l.32.44-.3.39-2.09 2.68a13.68 13.68 0 0 1 5.39 2.78c12.68 9.88 22.49 50.19 58.51 53.84-2.27 6.14-7.44 14.07-13.76 21.74a69.67 69.67 0 0 0 11.44-11.74l1.62-2.08 3.65-6.61 3.82-6.9-1.2-.66 1.71-3.09 2.21-4 2.67 1.47 37.33-67.48a66 66 0 0 0-17.72-29.29 42.68 42.68 0 0 1 4.41 3"/><g id="beard"><path class="cls-14" d="M406.89 137c-11.35-8.85-21.18 10.61-26.44 18.73-7.64 11.81-21 29.78-21.44 44.37 4.22-6.79 10.06-15.7 17.51-19.17-7.4 9.29-15.31 20.15-17.37 32.16 6.47-8.21 14-15.78 23-21.32-8.68 8-24 27.54-18.63 40.54 4.88-9.49 10.6-18.65 17.81-26.56-3.76 6.2-5.25 13.28-6.19 20.37-.58 4.39 0 14.54-1.33 16.75 0 .17-.08.33-.11.5 6-11.58 15.92-16.13 24.76-24.92C391.47 230 384 240.87 373.82 250c10.89-4.54 20.25-11.88 29.32-19.27a71.3 71.3 0 0 1-10.57 17.07c5.77-2.46 10.47-7.28 14.89-11.56 1.69-1.64 7.95-10.15 10.11-10.15a5.24 5.24 0 0 1 .8-.67 86.27 86.27 0 0 1-14.54 20.81c25.28-6.61 52.46-30.77 61.57-55.38-16.92-1.72-29.36-12.5-38.88-25.81-6.39-8.93-11-21.32-19.82-28.18L412 141l-5.15-4zm-11.13 4.85a1.11 1.11 0 0 0-.15-.26l.15.26s.08-.22 0-.04zm-9.33 13.52l.05-.11.06.06h-.12s.06-.01.01.02z"/><path class="cls-15" d="M407.2 236.48a204.08 204.08 0 0 0 17.32-18.79 142.64 142.64 0 0 0 15.08-21.93c1.68-3.15 3.5-6.69 3.78-10.32-3.83 5.74-7.84 11.35-11.93 16.91-7.45 10.14-15.21 20.08-23.53 29.53a199.71 199.71 0 0 1-15.19 15.69c5.44-2.62 10.13-7 14.47-11.09.8-.81-.04.04 0 0zM382.36 227.86c11.44-18.86 25.14-36.08 40.05-52.3.27-.3 4.11-4.11 3.77-4.49-2.93 1.73-5.72 3.75-8.46 5.76a156.29 156.29 0 0 0-13.19 10.71c-9.87 9-17.4 20.47-23.07 32.54a107.33 107.33 0 0 0-7.81 23.26q4.09-7.88 8.71-15.48zM369.12 197c4.47-6.5 9.25-12.88 15.06-18.25a71 71 0 0 1 14.35-10.37c.94-.51 1.89-1 2.87-1.42l-5.69-3.81a108 108 0 0 0-16.24 14.65c-7.45 8-13.91 17.15-17.92 27.4a41 41 0 0 0-2.39 7.89 173 173 0 0 1 10-16.08z"/><path class="cls-15" d="M363 192.69a142.5 142.5 0 0 1 12-17.8c4.47-5.6 9.64-11.21 16-14.61-2.23-2.66-3.52-4.06-4.06-4.63 3.66 2.9 7.37 5.74 11 8.62a4.77 4.77 0 0 0 6.69-.83l2.68-3.44a1.25 1.25 0 0 1-.47-.12l-1.12 1.43a4.64 4.64 0 0 1-6.51.81l-7-5.44-3.91-3c-1.31-1-2.52-2-2.77-3.81a4.8 4.8 0 0 0 1 5.46c-.78.17-1.66 1.41-2.16 1.93-2.23 2.33-4.32 4.8-6.41 7.27-6.38 7.54-11 16.17-14.93 25.21-1.47 3.4-2.85 6.86-4 10.37 1.24-2.5 2.6-5 4-7.37zM395.46 236.81a147.26 147.26 0 0 0 19.34-18.53 115.47 115.47 0 0 0 15.14-21 32.78 32.78 0 0 0 2.13-4.64 6.77 6.77 0 0 0 .56-3c-5.35 7.06-11.14 13.81-17 20.42-8.17 9.14-16.73 18-25.77 26.24-5.16 4.74-10.48 9.31-16 13.63a93.19 93.19 0 0 0 21.6-13.12zM374.69 213.92a118.74 118.74 0 0 1 13.37-15c6.42-6.17 13.28-12.2 18.35-19.59a64.11 64.11 0 0 0 9.43-21.44 39.36 39.36 0 0 0 .83-4.43 65.52 65.52 0 0 1-3.9 8.38 113.7 113.7 0 0 1-13.5 20c-6 7-13.81 12.29-20.44 18.67a53.4 53.4 0 0 0-13.74 21c-1.13 3.34-2.12 7.26-1.6 10.82 2.85-6.64 7.23-12.39 11.2-18.35 1.31-1.84 0-.06 0-.06zM415.84 190.88c-3.58 4.38-6.63 9.15-10 13.7a135.77 135.77 0 0 1-11.63 13.79q-3.78 3.91-7.83 7.56a65.35 65.35 0 0 0 9.69-7.82c3.1-2.84 6.09-5.79 9-8.79q10.14-10.33 19.46-21.43c3.09-3.69 6.12-7.43 8.9-11.36-8.57 4.74-13.51 9.29-17.64 14.34zM441.84 213.63a100.85 100.85 0 0 0-14.24 13.21c-2.26 2.47-4.47 5-7 7.23a83.48 83.48 0 0 1-7.72 6.05c-3 2.11-6 4.11-9.1 6.08a44.64 44.64 0 0 0 5.92-2.22q3.76-1.58 7.42-3.38a97.55 97.55 0 0 0 15.16-8.91 100.29 100.29 0 0 0 13.4-12.39 136.44 136.44 0 0 0 11.22-13.63 64.59 64.59 0 0 0 8.45-14.85c-15.67 18.53-17.86 18.62-23.56 22.82zM431.81 214.05q-4.93 5.63-10.13 11a78.78 78.78 0 0 0 19-15.12 45.7 45.7 0 0 0 7.32-10.46 15.57 15.57 0 0 0 1.86-6.31 4.28 4.28 0 0 0-.42-2.23c-5.74 7.82-11.26 15.82-17.65 23.12z"/><path class="cls-15" d="M389.71 182.32a227.25 227.25 0 0 0-22.13 21.2 91.94 91.94 0 0 1 13.83-11.37c5.24-3.58 10.45-7 15-11.4 5.81-5.6 11.42-12.59 13.18-20.66a13.56 13.56 0 0 0 .4-3.76 71.89 71.89 0 0 1-6.61 11 78.36 78.36 0 0 1-13.72 15zM408.87 157.29l-.09.15h.06v-.19s.02.1.03.04z"/></g><g id="eyebrow"><path class="cls-14" d="M425.84 104.71a4.92 4.92 0 0 1-1.29-.09c-2.94-.59-5.43-3.65-5.29-5.58-1.64 2.78-3.24 6.38-1.67 8.47a1.84 1.84 0 0 1-2-.88l-.07.21v-.08.13c-.94 2.91-.31 5.57 4.13 4a15.82 15.82 0 0 0 1.68-.69c6.13-2.92 6.86.41 6.86.41v-.08.24-.24a4.22 4.22 0 0 0 .05-.74c.34-1.6.59-5.28-2.4-5.08zm2.35 4.68a2.94 2.94 0 0 1 0 .3c.04-.1.01-.2 0-.3zm0 .43a3.9 3.9 0 0 1 0 .56 3.91 3.91 0 0 0 0-.56zM472.84 141.67c-4-1-16.37-8.68-20.41-15.61-3.77-6.46-11.59-8.53-13.54-9l-.24-.1a13.09 13.09 0 0 1 3.23 2.37c2.47 2.43 4.07 5.66 5.52 8.62.35.72.7 1.41 1 2.09.07.24.15.46.22.71 2.82 10.4 10 13.85 14.75 13.53a11.69 11.69 0 0 1-2.61-2.13 14.37 14.37 0 0 0 5 1.57h.32l-.31-.11a23.59 23.59 0 0 1-5.08-2.78h-.06c5.3 3.17 9.42 2.27 12.21.84z"/><path class="cls-15" d="M465.73 143.76a23.59 23.59 0 0 1-5.08-2.78h-.06a20.67 20.67 0 0 1-7.5-9.42 23.81 23.81 0 0 0-14.21-14.42l-.24-.1a13.09 13.09 0 0 1 3.23 2.37c2.47 2.43 4.07 5.66 5.52 8.62.35.72.7 1.41 1 2.09a21.66 21.66 0 0 0 2.48 4 33.64 33.64 0 0 0 9.87 8.13 14.37 14.37 0 0 0 5 1.57h.32zM415.53 107.08a3.59 3.59 0 0 0 1.64 2.79 4.38 4.38 0 0 0 3.21.1 13.59 13.59 0 0 0 2-.7c2-.85 3.49-1 4.57-.41a2.63 2.63 0 0 1 1.28 1.71v.24-.24a4.22 4.22 0 0 0 .05-.74 3 3 0 0 0-.63-1.82 4.64 4.64 0 0 0-3.33-1.51 4.73 4.73 0 0 0-1.44.17c-.58.14-1.22.35-1.88.56-2.3.75-4.68 1.52-5.44-.21l-.09-.21v-.08.13zm12.69 3.3a3.91 3.91 0 0 0 0-.56 3.9 3.9 0 0 1 0 .56zm0-.69v-.3a2.94 2.94 0 0 1 0 .3zm-.31-1.15a2.8 2.8 0 0 0-.29-.46 2.66 2.66 0 0 1 .3.47z"/></g><path id="hair" class="cls-14" d="M489.18 63.25s2.6 5.5-.84 9.53c1-2.76.13-5.95-2.51-10 .59 3-.32 4.79-2.09 5.85 1.76-6.69-1.58-10.57-1.58-10.57s.1 6.15-3.57 7.44-5.05 3.49-6.82 6.7a4.17 4.17 0 0 0-.49 1.44c-.34 2.42 1.84 5 8 8.41 7.35 4 10.47 2.45 12.77-1.68.17-.3.32-.59.46-.89 4.67-9.71-3.33-16.23-3.33-16.23z"/><g id="shades"><path class="cls-16" d="M462.82 201.27A69.67 69.67 0 0 1 451.38 213l-1.09 1.31c-3.44 4.07-11.4 12.12-15.18 15.68 4.58-1.17 13.29-7.06 17.53-9.49l2.6-4.69 9.19-16.62zM518.14 143.19a28.54 28.54 0 0 0 5.77-16.4l-17.14 31zM501.58 85.17a42.68 42.68 0 0 0-4.41-3 66 66 0 0 1 17.72 29.29l3.64-6.58a62.44 62.44 0 0 0-16.95-19.71zM420 126.58c-2.56 2.73-2.1 4.86-2.08 7.28 0 1.65-1.24 4-2 5.33-.36.61-.63 1-.63 1a6.07 6.07 0 0 0 2.2-.63 6.68 6.68 0 0 0 2.38-2 9.18 9.18 0 0 0 1.69-4.38 22 22 0 0 1 2.36-7.42c1.86-3.5 4.42-5.92 6.75-8.46.06-.13.13-.26.19-.39-2.12 1.78-8.72 7.38-10.86 9.67z"/></g><g id="nose"><path class="cls-17" d="M403.89 131.12l-.32-.44a1.05 1.05 0 0 0 0 .82 2.5 2.5 0 0 0 .81 1 2.42 2.42 0 0 0 1.28.53 18 18 0 0 1-1.77-1.91zM413.39 136.71c-.79-.62-1.75-.72-2.13-.24a.86.86 0 0 0-.14.69 2.29 2.29 0 0 0 .89 1.31c.79.62 1.75.72 2.13.24a.7.7 0 0 0 .06-.1 1.7 1.7 0 0 0-.81-1.9z"/></g><g id="eyes"><path class="cls-11" d="M420.28 114.3a2.93 2.93 0 0 0-3.22-.07 4.3 4.3 0 0 0-2.16 2.77 3 3 0 0 0 .77 3c2-.81 3.74-1.51 5.32-2.13a3.06 3.06 0 0 0-.71-3.57z"/><ellipse class="cls-11" cx="442.54" cy="136.78" rx="3.68" ry="2.96" transform="rotate(-52.06 442.557 136.786)"/></g><path id="face" class="cls-10" d="M395.76 141.84c.05-.1-2.77-5.32-11.14 7.43-.7 1.06 1.94 3.47 2.27 3.66v.05c21.59 24 26.71-.17 22.67-1.75-5.56-2.23-9.7-5.65-13.8-9.39z"/><path class="cls-11" d="M409.06 157.79a.76.76 0 0 0-.22-.32h-.06a.83.83 0 0 0-.24-.14 44.23 44.23 0 0 1-9.51-4.36 39.62 39.62 0 0 1-7.31-5.7l-.22-.17c-.5-.51-1-1-1.47-1.55a.82.82 0 0 0-1.14-.08h-.06l-.87.71a.81.81 0 0 0-.3.55.79.79 0 0 0 0 .21.8.8 0 0 0 .17.4q.94 1.09 2 2.11a43.77 43.77 0 0 0 13.64 9.13q.79.34 1.61.66c.59.23 1.19.46 1.79.67l.2.08a.94.94 0 0 0 .27 0 1 1 0 0 0 .78-.39q.38-.53.73-1.06l.09-.17a.75.75 0 0 0 .12-.58z"/></g></g></svg>