<svg xmlns="http://www.w3.org/2000/svg" viewBox="0 0 900 841.9"><path d="M352.86 426.42l90.3 109.46c2.74 2.74 5.47 2.74 8.21 2.74s5.47 0 8.21-2.74l90.3-109.46c5.47-5.47 2.74-19.15-8.21-19.15h-43.78V243.09c0-5.47-5.47-10.95-10.95-10.95h-73.88c-5.47 0-10.95 5.47-10.95 10.95v164.18h-43.78c-8.21 0-10.94 10.94-5.47 19.15zM552.61 607H350.12q-8.21 0-8.21-8.21v-19.13q0-8.21 8.21-8.21h202.49q8.21 0 8.21 8.21v19.15q0 8.19-8.21 8.19zm52-558.22H298.13c-24.63 0-46.52 19.15-46.52 46.52v651.28c0 24.63 19.15 46.52 46.52 46.52h303.74c24.63 0 46.52-19.15 46.52-46.52v-654a43.22 43.22 0 0 0-43.78-43.78zM451.37 765.73a30.1 30.1 0 1 1 30.1-30.1 30.37 30.37 0 0 1-30.1 30.1zM621 683.64H281.71V155.52h342v528.12H621z"/></svg>