<svg class="credit-badge75" xmlns="http://www.w3.org/2000/svg" xmlns:xlink="http://www.w3.org/1999/xlink" viewBox="0 0 380 145" enable-background="new 0 0 380 145"><linearGradient id="a" gradientUnits="userSpaceOnUse" x1="34.494" y1="132.925" x2="382.037" y2="13.257" gradientTransform="matrix(.995 -.097 .097 .995 -24.5 19.902)"><stop offset="0" stop-color="#EC9127"/><stop offset=".084" stop-color="#ED6F3C"/><stop offset=".163" stop-color="#EF564C"/><stop offset=".21" stop-color="#EF4D52"/><stop offset=".324" stop-color="#EB3460"/><stop offset=".438" stop-color="#E8206C"/><stop offset=".659" stop-color="#E81E6D"/><stop offset=".782" stop-color="#BE1C60"/><stop offset=".927" stop-color="#911A52"/><stop offset="1" stop-color="#80194D"/></linearGradient><path fill="url(#a)" d="M355.2 8l-148.7 14.5-42.8 4.2-148.6 14.4c-5.6.6-9.2 4.9-8.7 10.4l7.5 76.6c.5 5.5 5 9.5 10.5 8.9l148.7-14.5 42.8-4.2 148.7-14.5c5.5-.5 9.2-5.3 8.6-10.8l-7.5-76.6c-.5-5.4-4.9-8.9-10.5-8.4z"/><circle opacity=".5" fill="#A9AAAA" cx="25.9" cy="123.5" r="3.6"/><circle opacity=".5" fill="#A9AAAA" cx="24.2" cy="106.5" r="3.6"/><circle opacity=".5" fill="#A9AAAA" cx="22.6" cy="89.5" r="3.6"/><circle opacity=".5" fill="#A9AAAA" cx="20.9" cy="72.6" r="3.6"/><circle opacity=".5" fill="#A9AAAA" cx="19.3" cy="55.6" r="3.6"/><circle opacity=".5" fill="#A9AAAA" cx="86.2" cy="49.1" r="3.6"/><circle opacity=".5" fill="#A9AAAA" cx="69.5" cy="50.7" r="3.6"/><circle opacity=".5" fill="#A9AAAA" cx="53.2" cy="52.3" r="3.6"/><circle opacity=".5" fill="#A9AAAA" cx="36.2" cy="53.9" r="3.6"/><circle opacity=".5" fill="#A9AAAA" cx="186.7" cy="39.3" r="3.6"/><circle opacity=".5" fill="#A9AAAA" cx="169.9" cy="40.9" r="3.6"/><circle opacity=".5" fill="#A9AAAA" cx="153.2" cy="42.5" r="3.6"/><circle opacity=".5" fill="#A9AAAA" cx="136.4" cy="44.2" r="3.6"/><circle opacity=".5" fill="#A9AAAA" cx="119.7" cy="45.8" r="3.6"/><circle opacity=".5" fill="#A9AAAA" cx="103" cy="47.4" r="3.6"/><circle opacity=".5" fill="#A9AAAA" cx="92.8" cy="117" r="3.6"/><circle opacity=".5" fill="#A9AAAA" cx="76.1" cy="118.6" r="3.6"/><circle opacity=".5" fill="#A9AAAA" cx="59.8" cy="120.2" r="3.6"/><circle opacity=".5" fill="#A9AAAA" cx="42.9" cy="121.8" r="3.6"/><circle opacity=".5" fill="#A9AAAA" cx="193.3" cy="107.2" r="3.6"/><circle opacity=".5" fill="#A9AAAA" cx="176.5" cy="108.8" r="3.6"/><circle opacity=".5" fill="#A9AAAA" cx="159.8" cy="110.4" r="3.6"/><circle opacity=".5" fill="#A9AAAA" cx="143.1" cy="112.1" r="3.6"/><circle opacity=".5" fill="#A9AAAA" cx="126.3" cy="113.7" r="3.6"/><circle opacity=".5" fill="#A9AAAA" cx="109.6" cy="115.3" r="3.6"/><circle fill="#fff" cx="25.7" cy="121.7" r="3.6"/><circle fill="#fff" cx="24" cy="104.7" r="3.6"/><circle fill="#fff" cx="22.4" cy="87.7" r="3.6"/><circle fill="#fff" cx="20.7" cy="70.8" r="3.6"/><circle fill="#fff" cx="19.1" cy="53.8" r="3.6"/><circle fill="#fff" cx="86" cy="47.3" r="3.6"/><circle fill="#fff" cx="69.3" cy="48.9" r="3.6"/><circle fill="#fff" cx="52.6" cy="50.5" r="3.6"/><circle fill="#fff" cx="35.8" cy="52.2" r="3.6"/><circle fill="#fff" cx="186.5" cy="37.5" r="3.6"/><circle fill="#fff" cx="169.7" cy="39.1" r="3.6"/><circle fill="#fff" cx="153" cy="40.7" r="3.6"/><circle fill="#fff" cx="136.3" cy="42.4" r="3.6"/><circle fill="#fff" cx="119.5" cy="44" r="3.6"/><circle fill="#fff" cx="102.8" cy="45.6" r="3.6"/><circle fill="#fff" cx="92.7" cy="115.2" r="3.6"/><circle fill="#fff" cx="75.9" cy="116.8" r="3.6"/><circle fill="#fff" cx="59.2" cy="118.4" r="3.6"/><circle fill="#fff" cx="42.4" cy="120.1" r="3.6"/><circle fill="#fff" cx="193.1" cy="105.4" r="3.6"/><circle fill="#fff" cx="176.4" cy="107" r="3.6"/><circle fill="#fff" cx="159.6" cy="108.7" r="3.6"/><circle fill="#fff" cx="142.9" cy="110.3" r="3.6"/><circle fill="#fff" cx="126.1" cy="111.9" r="3.6"/><circle fill="#fff" cx="109.4" cy="113.5" r="3.6"/><path fill="#DCDCDB" d="M24.2 106c-1.3.1-2.4-.4-2.9-1.2v.2c.1 1.5 1.5 2.7 3.1 2.5 1.5-.1 2.7-1.5 2.5-3.1v-.2c-.4.9-1.4 1.7-2.7 1.8zM25.8 122.8c-1.3.1-2.4-.4-2.9-1.2v.2c.1 1.5 1.5 2.7 3.1 2.5 1.5-.1 2.7-1.5 2.5-3.1v-.2c-.4 1-1.4 1.7-2.7 1.8zM19.2 54.9c-1.3.1-2.4-.4-2.9-1.2v.2c.1 1.5 1.5 2.7 3.1 2.5s2.7-1.5 2.5-3.1v-.2c-.4 1-1.4 1.7-2.7 1.8zM20.8 71.8c-1.3.1-2.4-.4-2.9-1.2v.2c.1 1.5 1.5 2.7 3.1 2.5 1.5-.1 2.7-1.5 2.5-3.1v-.2c-.4.9-1.4 1.6-2.7 1.8zM22.5 88.8c-1.3.1-2.4-.4-2.9-1.2v.2c.1 1.5 1.5 2.7 3.1 2.5 1.5-.1 2.7-1.5 2.5-3.1v-.2c-.4.9-1.4 1.6-2.7 1.8zM186.6 38.6c-1.3.1-2.4-.4-2.9-1.2v.2c.1 1.5 1.5 2.7 3.1 2.5s2.7-1.5 2.5-3.1v-.2c-.4 1-1.4 1.7-2.7 1.8zM169.9 40.3c-1.3.1-2.4-.4-2.9-1.2v.2c.1 1.5 1.5 2.7 3.1 2.5 1.5-.1 2.7-1.5 2.5-3.1v-.2c-.4.9-1.5 1.6-2.7 1.8zM153.1 41.9c-1.3.1-2.4-.4-2.9-1.2v.2c.1 1.5 1.5 2.7 3.1 2.5 1.5-.1 2.7-1.5 2.5-3.1v-.2c-.4.9-1.4 1.7-2.7 1.8zM136.4 43.5c-1.3.1-2.4-.4-2.9-1.2v.2c.1 1.5 1.5 2.7 3.1 2.5 1.5-.1 2.7-1.5 2.5-3.1v-.2c-.4 1-1.4 1.7-2.7 1.8zM119.6 45.2c-1.3.1-2.4-.4-2.9-1.2v.2c.1 1.5 1.5 2.7 3.1 2.5 1.5-.1 2.7-1.5 2.5-3.1v-.2c-.4.9-1.4 1.6-2.7 1.8zM102.9 46.8c-1.3.1-2.4-.4-2.9-1.2v.2c.1 1.5 1.5 2.7 3.1 2.5 1.5-.1 2.7-1.5 2.5-3.1v-.2c-.4.9-1.4 1.7-2.7 1.8zM86.2 48.4c-1.3.1-2.4-.4-2.9-1.2v.2c.1 1.5 1.5 2.7 3.1 2.5s2.7-1.5 2.5-3.1v-.2c-.4 1-1.5 1.7-2.7 1.8zM69.4 50.1c-1.3.1-2.4-.4-2.9-1.2v.2c.1 1.5 1.5 2.7 3.1 2.5 1.5-.1 2.7-1.5 2.5-3.1v-.2c-.4.9-1.4 1.6-2.7 1.8zM52.7 51.7c-1.3.1-2.4-.4-2.9-1.2v.2c.1 1.5 1.5 2.7 3.1 2.5 1.5-.1 2.7-1.5 2.5-3.1v-.2c-.4.9-1.4 1.7-2.7 1.8zM35.9 53.3c-1.3.1-2.4-.4-2.9-1.2v.2c.1 1.5 1.5 2.7 3.1 2.5 1.5-.1 2.7-1.5 2.5-3.1v-.2c-.4 1-1.4 1.7-2.7 1.8z"/><circle opacity=".5" fill="#A9AAAA" cx="236.2" cy="34.5" r="3.6"/><circle opacity=".5" fill="#A9AAAA" cx="219.5" cy="36.1" r="3.6"/><circle opacity=".5" fill="#A9AAAA" cx="203.2" cy="37.7" r="3.6"/><circle opacity=".5" fill="#A9AAAA" cx="336.6" cy="24.7" r="3.6"/><circle opacity=".5" fill="#A9AAAA" cx="319.9" cy="26.3" r="3.6"/><circle opacity=".5" fill="#A9AAAA" cx="303.2" cy="27.9" r="3.6"/><circle opacity=".5" fill="#A9AAAA" cx="286.4" cy="29.6" r="3.6"/><circle opacity=".5" fill="#A9AAAA" cx="269.7" cy="31.2" r="3.6"/><circle opacity=".5" fill="#A9AAAA" cx="252.9" cy="32.8" r="3.6"/><circle fill="#fff" cx="236" cy="32.7" r="3.6"/><circle fill="#fff" cx="219.3" cy="34.3" r="3.6"/><circle fill="#fff" cx="202.5" cy="35.9" r="3.6"/><circle fill="#fff" cx="336.5" cy="22.9" r="3.6"/><circle fill="#fff" cx="319.7" cy="24.5" r="3.6"/><circle fill="#fff" cx="303" cy="26.1" r="3.6"/><circle fill="#fff" cx="286.2" cy="27.8" r="3.6"/><circle fill="#fff" cx="269.5" cy="29.4" r="3.6"/><circle fill="#fff" cx="252.8" cy="31" r="3.6"/><path fill="#DCDCDB" d="M336.6 24c-1.3.1-2.4-.4-2.9-1.2v.2c.1 1.5 1.5 2.7 3.1 2.5 1.5-.1 2.7-1.5 2.5-3.1v-.2c-.4 1-1.4 1.7-2.7 1.8zM319.8 25.7c-1.3.1-2.4-.4-2.9-1.2v.2c.1 1.5 1.5 2.7 3.1 2.5 1.5-.1 2.7-1.5 2.5-3.1v-.2c-.4.9-1.4 1.6-2.7 1.8zM303.1 27.3c-1.3.1-2.4-.4-2.9-1.2v.2c.1 1.5 1.5 2.7 3.1 2.5 1.5-.1 2.7-1.5 2.5-3.1v-.2c-.4.9-1.4 1.7-2.7 1.8zM286.4 28.9c-1.3.1-2.4-.4-2.9-1.2v.2c.1 1.5 1.5 2.7 3.1 2.5 1.5-.1 2.7-1.5 2.5-3.1v-.2c-.4 1-1.5 1.7-2.7 1.8zM269.6 30.6c-1.3.1-2.4-.4-2.9-1.2v.2c.1 1.5 1.5 2.7 3.1 2.5 1.5-.1 2.7-1.5 2.5-3.1v-.2c-.4.9-1.4 1.6-2.7 1.8zM252.9 32.2c-1.3.1-2.4-.4-2.9-1.2v.2c.1 1.5 1.5 2.7 3.1 2.5s2.7-1.5 2.5-3.1v-.2c-.4.9-1.4 1.7-2.7 1.8zM236.1 33.8c-1.3.1-2.4-.4-2.9-1.2v.2c.1 1.5 1.5 2.7 3.1 2.5 1.5-.1 2.7-1.5 2.5-3.1v-.2c-.4 1-1.4 1.7-2.7 1.8zM219.4 35.4c-1.3.1-2.4-.4-2.9-1.2v.2c.1 1.5 1.5 2.7 3.1 2.5 1.5-.1 2.7-1.5 2.5-3.1v-.2c-.4 1-1.4 1.7-2.7 1.8zM202.7 37.1c-1.3.1-2.4-.4-2.9-1.2v.2c.1 1.5 1.5 2.7 3.1 2.5 1.5-.1 2.7-1.5 2.5-3.1v-.2c-.4.9-1.5 1.6-2.7 1.8z"/><circle opacity=".5" fill="#A9AAAA" cx="242.8" cy="102.4" r="3.6"/><circle opacity=".5" fill="#A9AAAA" cx="226.1" cy="104" r="3.6"/><circle opacity=".5" fill="#A9AAAA" cx="209.8" cy="105.6" r="3.6"/><circle opacity=".5" fill="#A9AAAA" cx="343.3" cy="92.6" r="3.6"/><circle opacity=".5" fill="#A9AAAA" cx="326.5" cy="94.2" r="3.6"/><circle opacity=".5" fill="#A9AAAA" cx="309.8" cy="95.8" r="3.6"/><circle opacity=".5" fill="#A9AAAA" cx="293" cy="97.5" r="3.6"/><circle opacity=".5" fill="#A9AAAA" cx="276.3" cy="99.1" r="3.6"/><circle opacity=".5" fill="#A9AAAA" cx="259.6" cy="100.7" r="3.6"/><circle fill="#fff" cx="242.6" cy="100.6" r="3.6"/><circle fill="#fff" cx="225.9" cy="102.2" r="3.6"/><circle fill="#fff" cx="209.2" cy="103.8" r="3.6"/><circle fill="#fff" cx="343.1" cy="90.8" r="3.6"/><circle fill="#fff" cx="326.3" cy="92.4" r="3.6"/><circle fill="#fff" cx="309.6" cy="94" r="3.6"/><circle fill="#fff" cx="292.9" cy="95.7" r="3.6"/><circle fill="#fff" cx="276.1" cy="97.3" r="3.6"/><circle fill="#fff" cx="259.4" cy="98.9" r="3.6"/><path fill="#DCDCDB" d="M343.2 91.9c-1.3.1-2.4-.4-2.9-1.2v.2c.1 1.5 1.5 2.7 3.1 2.5s2.7-1.5 2.5-3.1v-.2c-.4 1-1.4 1.7-2.7 1.8zM326.4 93.6c-1.3.1-2.4-.4-2.9-1.2v.2c.1 1.5 1.5 2.7 3.1 2.5s2.7-1.5 2.5-3.1v-.2c-.3.9-1.4 1.6-2.7 1.8zM309.7 95.2c-1.3.1-2.4-.4-2.9-1.2v.2c.1 1.5 1.5 2.7 3.1 2.5 1.5-.1 2.7-1.5 2.5-3.1v-.2c-.4.9-1.4 1.7-2.7 1.8zM293 96.8c-1.3.1-2.4-.4-2.9-1.2v.2c.1 1.5 1.5 2.7 3.1 2.5 1.5-.1 2.7-1.5 2.5-3.1v-.2c-.4 1-1.4 1.7-2.7 1.8zM276.2 98.5c-1.3.1-2.4-.4-2.9-1.2v.2c.1 1.5 1.5 2.7 3.1 2.5 1.5-.1 2.7-1.5 2.5-3.1v-.2c-.4.9-1.4 1.6-2.7 1.8zM259.5 100.1c-1.3.1-2.4-.4-2.9-1.2v.2c.1 1.5 1.5 2.7 3.1 2.5 1.5-.1 2.7-1.5 2.5-3.1v-.2c-.4.9-1.4 1.7-2.7 1.8zM242.7 101.7c-1.3.1-2.4-.4-2.9-1.2v.2c.1 1.5 1.5 2.7 3.1 2.5 1.5-.1 2.7-1.5 2.5-3.1v-.2c-.3 1-1.4 1.7-2.7 1.8zM226 103.3c-1.3.1-2.4-.4-2.9-1.2v.2c.1 1.5 1.5 2.7 3.1 2.5s2.7-1.5 2.5-3.1v-.2c-.4 1-1.4 1.7-2.7 1.8zM209.3 105c-1.3.1-2.4-.4-2.9-1.2v.2c.1 1.5 1.5 2.7 3.1 2.5 1.5-.1 2.7-1.5 2.5-3.1v-.2c-.4.9-1.4 1.7-2.7 1.8z"/><circle opacity=".5" fill="#A9AAAA" cx="359.5" cy="91" r="3.6"/><circle opacity=".5" fill="#A9AAAA" cx="357.9" cy="74" r="3.6"/><circle opacity=".5" fill="#A9AAAA" cx="356.2" cy="57" r="3.6"/><circle opacity=".5" fill="#A9AAAA" cx="354.6" cy="40.1" r="3.6"/><circle opacity=".5" fill="#A9AAAA" cx="352.9" cy="23.1" r="3.6"/><circle fill="#fff" cx="359.4" cy="89.2" r="3.6"/><circle fill="#fff" cx="357.7" cy="72.2" r="3.6"/><circle fill="#fff" cx="356.1" cy="55.2" r="3.6"/><circle fill="#fff" cx="354.4" cy="38.3" r="3.6"/><circle fill="#fff" cx="352.8" cy="21.3" r="3.6"/><path fill="#DCDCDB" d="M357.8 73.5c-1.3.1-2.4-.4-2.9-1.2v.2c.1 1.5 1.5 2.7 3.1 2.5 1.5-.1 2.7-1.5 2.5-3.1v-.2c-.3.9-1.4 1.7-2.7 1.8zM359.5 90.3c-1.3.1-2.4-.4-2.9-1.2v.2c.1 1.5 1.5 2.7 3.1 2.5s2.7-1.5 2.5-3.1v-.2c-.4.9-1.4 1.7-2.7 1.8zM352.9 22.4c-1.3.1-2.4-.4-2.9-1.2v.2c.1 1.5 1.5 2.7 3.1 2.5 1.5-.1 2.7-1.5 2.5-3.1v-.2c-.4 1-1.4 1.7-2.7 1.8zM354.5 39.3c-1.3.1-2.4-.4-2.9-1.2v.2c.1 1.5 1.5 2.7 3.1 2.5s2.7-1.5 2.5-3.1v-.2c-.4.9-1.4 1.6-2.7 1.8zM356.2 56.3c-1.3.1-2.4-.4-2.9-1.2v.2c.1 1.5 1.5 2.7 3.1 2.5 1.5-.1 2.7-1.5 2.5-3.1v-.2c-.4.9-1.4 1.6-2.7 1.8zM359.5 90.3c-1.3.1-2.4-.4-2.9-1.2v.2c.1 1.5 1.5 2.7 3.1 2.5 1.5-.1 2.7-1.5 2.5-3.1v-.2c-.4.9-1.4 1.7-2.7 1.8zM193.2 106.5c-1.3.1-2.4-.4-2.9-1.2v.2c.1 1.5 1.5 2.7 3.1 2.5 1.5-.1 2.7-1.5 2.5-3.1v-.2c-.4.9-1.4 1.7-2.7 1.8zM176.5 108.1c-1.3.1-2.4-.4-2.9-1.2v.2c.1 1.5 1.5 2.7 3.1 2.5 1.5-.1 2.7-1.5 2.5-3.1v-.2c-.4 1-1.4 1.7-2.7 1.8zM159.7 109.8c-1.3.1-2.4-.4-2.9-1.2v.2c.1 1.5 1.5 2.7 3.1 2.5 1.5-.1 2.7-1.5 2.5-3.1v-.2c-.4.9-1.4 1.6-2.7 1.8zM143 111.4c-1.3.1-2.4-.4-2.9-1.2v.2c.1 1.5 1.5 2.7 3.1 2.5 1.5-.1 2.7-1.5 2.5-3.1v-.2c-.4.9-1.4 1.7-2.7 1.8zM126.3 113c-1.3.1-2.4-.4-2.9-1.2v.2c.1 1.5 1.5 2.7 3.1 2.5 1.5-.1 2.7-1.5 2.5-3.1v-.2c-.4 1-1.5 1.7-2.7 1.8zM109.5 114.7c-1.3.1-2.4-.4-2.9-1.2v.2c.1 1.5 1.5 2.7 3.1 2.5 1.5-.1 2.7-1.5 2.5-3.1v-.2c-.4.9-1.4 1.6-2.7 1.8zM92.8 116.3c-1.3.1-2.4-.4-2.9-1.2v.2c.1 1.5 1.5 2.7 3.1 2.5 1.5-.1 2.7-1.5 2.5-3.1v-.2c-.4.9-1.4 1.7-2.7 1.8zM76 117.9c-1.3.1-2.4-.4-2.9-1.2v.2c.1 1.5 1.5 2.7 3.1 2.5 1.5-.1 2.7-1.5 2.5-3.1v-.2c-.4 1-1.4 1.7-2.7 1.8zM59.3 119.6c-1.3.1-2.4-.4-2.9-1.2v.2c.1 1.5 1.5 2.7 3.1 2.5 1.5-.1 2.7-1.5 2.5-3.1v-.2c-.4.9-1.4 1.6-2.7 1.8zM42.6 121.2c-1.3.1-2.4-.4-2.9-1.2v.2c.1 1.5 1.5 2.7 3.1 2.5 1.5-.1 2.7-1.5 2.5-3.1v-.2c-.4.9-1.5 1.7-2.7 1.8z"/><path fill="#801C57" d="M46 93.9l-.7.1.2 1.7-3.9.3-.2-1.7-5.1.5-.3-.2-.6-6.6 5.7-.6.2 1.6 2.7-.3-.4-4.3-4.9.6c-3.3.3-4-1.3-4.2-3.5l-.6-6.5c-.3-2.7.5-4.8 4.3-5.1l1.1-.1-.2-1.6 3.9-.4.2 1.6 4.7-.5.3.2.7 6.8-5.5.5-.2-1.7-2.8.3.4 4.3 4.7-.5c2.7-.3 4.2.2 4.5 3.3l.6 6.3c.4 3.4-.5 5.1-4.6 5.5zM63.5 102l-9.5.9 8.1-28.5-4.5.4.3 2.9-6.8.7-.9-9.7 19.7-1.9.7 7.6-7.1 27.6zM87.8 99.8l-12.8 1.3-.4-.3-.9-9.5 7.1-.7.3 3 3.8-.4-.7-7.1-10.3 1-2-20.5 17.8-1.7.7 6.9-10.1 1 .6 6.4 6.2-.6c4.3-.4 5.3 1.8 5.6 4.7l.9 9.6c.4 3.6-.2 6.4-5.8 6.9zM266 57.6l-.3-2.8-4.2.4.7 6.8 2.7-.3-.2-2.1 5.6-.5 1 10.8-5.6.5-.2-2.1-2.7.3.7 7.2 2.4-.2.6 6.6-12.4 1.2-.6-6.6 1.3-.1-2-21-1.3.1-.6-6.6 20.9-2 1 9.8-6.8.6zM289.8 80l-1.1-11.6-3.3.3.5 5 1.3-.1.6 6.6-11.3 1.1-.6-6.6 1.3-.1-2-21-1.3.1-.6-6.6 15.9-1.5c4.6-.4 6.8 2 7 4.5l.9 9.5c.2 2.5-1.1 4-3.6 4.7v.2c2.5.4 3.8 1.8 4.1 4.7l.3 3.5 1.2-.1.6 6.6-9.9.8zm-2.4-27.5l-3.7.4.9 8.9 3.7-.4-.9-8.9zM301 78.9l-.6-6.6 1.3-.1-2-21-1.3.1-.6-6.6 20.9-2 1 9.8-6.7.7-.3-2.8-4.2.4.7 6.8 2.7-.3-.2-2.1 5.6-.5 1 10.8-5.6.5-.2-2.1-2.7.3.7 6.9 4.2-.4-.2-2.3 6.7-.7.9 9.3-21.1 1.9zM323.4 76.7l-.6-6.6 1.3-.1-2-21-1.3.1-.6-6.6 20.9-2 1 9.8-6.7.7-.3-2.8-4.2.4.7 6.8 2.7-.3-.2-2.1 5.6-.5 1 10.8-5.6.5-.2-2.1-2.7.3.7 6.9 4.2-.4-.2-2.3 6.7-.7.9 9.3-21.1 1.9z"/><path fill="#fff" d="M45.8 92l-.7.1.2 1.7-3.9.4-.2-1.7-5 .5-.3-.2-.6-6.6 5.7-.6.2 1.6 2.7-.3-.4-4.3-4.8.5c-3.3.3-4-1.3-4.2-3.5l-.6-6.5c-.3-2.7.5-4.8 4.3-5.1l1.1-.1-.2-1.6 3.9-.4.2 1.6 4.7-.5.3.2.7 6.8-5.5.5-.4-1.7-2.7.2.4 4.3 4.7-.5c2.7-.3 4.2.2 4.5 3.3l.6 6.3c.3 3.5-.6 5.2-4.7 5.6zM63.3 100.1l-9.5.9 8.2-28.5-4.5.4.3 2.9-6.8.7-.9-9.7 19.7-1.9.7 7.6-7.2 27.6zM87.6 97.9l-12.8 1.2-.4-.3-.9-9.5 7.1-.7.3 3 3.8-.4-.7-7-10.3 1-2-20.5 17.8-1.7.7 6.9-10.1 1 .6 6.4 6.2-.6c4.3-.4 5.3 1.8 5.6 4.7l.9 9.6c.4 3.6-.2 6.4-5.8 6.9zM265.9 55.7l-.3-2.8-4.2.4.7 6.8 2.7-.3-.2-2.1 5.6-.5 1 10.8-5.6.5-.2-2.1-2.7.3.7 7.2 2.4-.2.6 6.6-12.4 1.2-.6-6.6 1.3-.1-2-21-1.3.1-.6-6.6 20.9-2 1 9.8-6.8.6zM289.6 78.1l-1.1-11.6-3.3.3.5 5 1.3-.1.6 6.6-11.3 1.1-.6-6.6 1.3-.1-2-21-1.3.1-.6-6.6 15.9-1.5c4.6-.4 6.8 2 7 4.5l.9 9.5c.2 2.5-1.1 4-3.6 4.7v.2c2.5.4 3.8 1.8 4.1 4.7l.3 3.5 1.2-.1.6 6.6-9.9.8zm-2.3-27.5l-3.7.4.9 8.9 3.7-.4-.9-8.9zM300.8 77l-.6-6.6 1.3-.1-2-21-1.3.1-.6-6.6 20.9-2 1 9.8-6.7.7-.3-2.8-4.2.4.7 6.8 2.7-.3-.2-2.1 5.6-.5 1 10.8-5.6.5-.2-2.1-2.7.3.7 6.9 4.2-.4-.2-2.3 6.7-.7.9 9.3-21.1 1.9zM323.2 74.8l-.6-6.6 1.3-.1-2-21-1.3.1-.6-6.6 20.9-2 1 9.8-6.7.7-.3-2.8-4.2.4.7 6.8 2.7-.3-.2-2.1 5.6-.5 1 10.8-5.6.5-.2-2.1-2.7.3.7 6.9 4.2-.4-.2-2.3 6.7-.7.9 9.3-21.1 1.9z"/><defs><path id="b" d="M45.8 92l-.7.1.2 1.7-3.9.4-.2-1.7-5 .5-.3-.2-.6-6.6 5.7-.6.2 1.6 2.7-.3-.4-4.3-4.8.5c-3.3.3-4-1.3-4.2-3.5l-.6-6.5c-.3-2.7.5-4.8 4.3-5.1l1.1-.1-.2-1.6 3.9-.4.2 1.6 4.7-.5.3.2.7 6.8-5.5.5-.4-1.7-2.7.2.4 4.3 4.7-.5c2.7-.3 4.2.2 4.5 3.3l.6 6.3c.3 3.5-.6 5.2-4.7 5.6z"/></defs><clipPath id="c"><use xlink:href="#b" overflow="visible"/></clipPath><path clip-path="url(#c)" fill="#DCDCDB" d="M58.056 99.229l-29.361 2.861-2.007-20.603 29.361-2.861z"/><defs><path id="d" d="M63.3 100.1l-9.5.9 8.2-28.5-4.5.4.3 2.9-6.8.7-.9-9.7 19.7-1.9.7 7.6-7.2 27.6z"/></defs><clipPath id="e"><use xlink:href="#d" overflow="visible"/></clipPath><path clip-path="url(#e)" fill="#DCDCDB" d="M80.446 101.966l-29.361 2.861-2.007-20.603 29.361-2.861z"/><defs><path id="f" d="M265.9 55.7l-.3-2.8-4.2.4.7 6.8 2.7-.3-.2-2.1 5.6-.5 1 10.8-5.6.5-.2-2.1-2.7.3.7 7.2 2.4-.2.6 6.6-12.4 1.2-.6-6.6 1.3-.1-2-21-1.3.1-.6-6.6 20.9-2 1 9.8-6.8.6z"/></defs><clipPath id="g"><use xlink:href="#f" overflow="visible"/></clipPath><path clip-path="url(#g)" fill="#DCDCDB" d="M277.777 82.719l-29.361 2.861-2.007-20.603 29.361-2.861z"/><defs><path id="h" d="M289.6 78.1l-1.1-11.6-3.3.3.5 5 1.3-.1.6 6.6-11.3 1.1-.6-6.6 1.3-.1-2-21-1.3.1-.6-6.6 15.9-1.5c4.6-.4 6.8 2 7 4.5l.9 9.5c.2 2.5-1.1 4-3.6 4.7v.2c2.5.4 3.8 1.8 4.1 4.7l.3 3.5 1.2-.1.6 6.6-9.9.8zm-2.3-27.5l-3.7.4.9 8.9 3.7-.4-.9-8.9z"/></defs><clipPath id="i"><use xlink:href="#h" overflow="visible"/></clipPath><path clip-path="url(#i)" fill="#DCDCDB" d="M301.804 80.333l-29.361 2.861-2.007-20.603 29.361-2.861z"/><defs><path id="j" d="M300.8 77l-.6-6.6 1.3-.1-2-21-1.3.1-.6-6.6 20.9-2 1 9.8-6.7.7-.3-2.8-4.2.4.7 6.8 2.7-.3-.2-2.1 5.6-.5 1 10.8-5.6.5-.2-2.1-2.7.3.7 6.9 4.2-.4-.2-2.3 6.7-.7.9 9.3-21.1 1.9z"/></defs><clipPath id="k"><use xlink:href="#j" overflow="visible"/></clipPath><path clip-path="url(#k)" fill="#DCDCDB" d="M325.461 78.021l-29.361 2.861-2.007-20.603 29.361-2.861z"/><defs><path id="l" d="M323.2 74.8l-.6-6.6 1.3-.1-2-21-1.3.1-.6-6.6 20.9-2 1 9.8-6.7.7-.3-2.8-4.2.4.7 6.8 2.7-.3-.2-2.1 5.6-.5 1 10.8-5.6.5-.2-2.1-2.7.3.7 6.9 4.2-.4-.2-2.3 6.7-.7.9 9.3-21.1 1.9z"/></defs><clipPath id="m"><use xlink:href="#l" overflow="visible"/></clipPath><path clip-path="url(#m)" fill="#DCDCDB" d="M347.026 75.917l-29.361 2.861-2.007-20.603 29.361-2.861z"/><defs><path id="n" d="M87.6 97.9l-12.8 1.2-.4-.3-.9-9.5 7.1-.7.3 3 3.8-.4-.7-7-10.3 1-2-20.5 17.8-1.7.7 6.9-10.1 1 .6 6.4 6.2-.6c4.3-.4 5.3 1.8 5.6 4.7l.9 9.6c.4 3.6-.2 6.4-5.8 6.9z"/></defs><clipPath id="o"><use xlink:href="#n" overflow="visible"/></clipPath><path clip-path="url(#o)" fill="#DCDCDB" d="M100.663 99.926l-29.361 2.861-2.007-20.603 29.361-2.861z"/><path fill="#DCDCDB" d="M68.227 80.875l-7.962.776-.145-1.493 7.962-.776zM60.886 77.875l7.664-.747.058.597-7.664.747zM61.609 76.073l7.763-.756.019.199-7.763.756zM34.5 78l5.7-.6 7.6.6-13.2 1.3zM34.285 76.168l5.375-.524.048.498-5.375.524zM34.208 74.761l5.375-.524.019.199-5.375.524zM269.804 61.172l-15.825 1.542-.145-1.493 15.825-1.542zM253.788 59.074l7.664-.747.058.597-7.664.747zM253.612 57.373l7.763-.756.019.199-7.763.756zM284.029 59.808l-7.863.766-.145-1.493 7.863-.766zM275.995 56.98l7.664-.747.058.597-7.664.747zM275.81 55.18l7.763-.756.019.199-7.763.756zM296.408 58.604l-7.863.766-.145-1.493 7.863-.766zM288.295 55.779l7.664-.747.058.597-7.664.747zM288.109 53.979l7.763-.756.019.199-7.763.756zM316.714 56.642l-15.925 1.552-.145-1.493 15.925-1.552zM300.494 54.579l7.664-.747.058.597-7.664.747zM300.309 52.78l7.763-.756.019.199-7.763.756zM339.023 54.49l-15.925 1.552-.145-1.493 15.925-1.552zM322.892 52.375l7.664-.747.058.597-7.664.747zM322.707 50.575l7.763-.756.019.199-7.763.756zM73.4 78.8l16.2-1.6 1.4 1.4-17.4 1.7zM73.382 76.636l6.768-.659.058.597-6.768.659zM73.206 74.935l6.768-.659.019.199-6.768.659z"/><path fill="#fff" d="M41.9 67.2v.4l.1 1.2 1.2-.1 3.8-.4.5 4.7-3.2.3-.1-.6-.1-1.2-1.2.1-2.8.3-1.1.1.1 1.2.4 4.3.1 1.2 1.2-.1 4.7-.5c2.2-.2 3-.1 3.2 2.3l.6 6.3c.3 2.8-.2 3.9-3.6 4.2h-.7l-1.2.1.1 1.2v.5l-1.5.2v-.5l-.1-1.2-1.2.1-4.1.4-.4-4.6 3.4-.3v.5l.1 1.2 1.2-.1 2.7-.3 1.2-.1-.2-1.2-.4-4.3-.1-1.2-1.2.1-4.8.5c-2.3.2-2.7-.5-2.9-2.5l-.7-6.4c-.2-2.2.3-3.6 3.3-3.9l1.1-.1 1.2-.1-.1-1.2v-.4l1.5-.1m1-1.3l-3.9.4.2 1.6-1.1.1c-3.9.4-4.6 2.5-4.3 5.1l.6 6.5c.2 2.2.9 3.8 4.2 3.5l4.8-.5.4 4.3-2.7.3-.1-1.7-5.7.6.6 6.6.3.2 5.1-.5.2 1.7 3.9-.4-.2-1.7.7-.1c4.1-.4 5-2.1 4.6-5.5l-.6-6.3c-.3-3.2-1.8-3.6-4.5-3.3l-4.7.5-.4-4.3 2.8-.3.2 1.7 5.5-.5-.7-6.8-.3-.1-4.7.5-.2-1.6zM68.7 66.2l.6 6.3-6.9 26.5-6.9.7 7.7-26.9.5-1.7-1.7.2-4.5.4-1.2.1.1 1.2.2 1.7-4.5.4-.7-7.3 17.3-1.6m1.1-1.3l-19.7 1.9.9 9.7 6.8-.7-.3-2.9 4.5-.4-8.1 28.5 9.5-.9 7.2-27.6-.8-7.6zM88.5 64.2l.4 4.6-8.9.9-1.2.1.1 1.2.6 6.4.1 1.2 1.2-.1 6.2-.6c3.3-.3 4.1 1 4.3 3.6l.9 9.6c.3 3.5-.3 5.3-4.8 5.7l-12 1.2-.7-7.5 4.8-.5.2 1.8.1 1.2 1.2-.1 3.8-.4 1.2-.1-.1-1.2-.7-7.2-.2-1.1-1.1.1-9.1.9-1.8-18.1 15.5-1.6m1-1.2l-17.8 1.7 2 20.5 10.3-1 .7 7.1-3.8.4-.3-3-7.1.7.9 9.5.4.3 12.8-1.2c5.6-.5 6.2-3.4 5.9-7l-.9-9.6c-.3-2.9-1.3-5.1-5.6-4.7l-6.2.6-.6-6.4 10.1-1-.8-6.9zM270.6 46.5l.7 7.5-4.4.4-.2-1.7-.1-1.2-1.2.1-4.2.4-1.2.1.1 1.2.7 6.8.1 1.2 1.2-.1 2.7-.3 1.2-.1-.1-1.2-.1-.9 3.3-.3.8 8.4-3.3.3-.1-.9-.1-1.2-1.2.1-2.7.3-1.2.1.1 1.2.7 7.2.1 1.2 1.2-.1 1.3-.1.4 4.3-10.1 1-.4-4.3h.1l1.2-.1-.1-1.2-2-21-.1-1.2-1.2.1h-.1l-.4-4.3 18.6-1.7m1-1.3l-20.9 2 .6 6.6 1.3-.1 2 21-1.3.1.6 6.6 12.4-1.2-.6-6.6-2.4.2-.7-7.2 2.7-.3.2 2.1 5.6-.5-1-10.8-5.6.5.2 2.1-2.7.3-.7-6.8 4.2-.4.3 2.8 6.7-.7-.9-9.7zM288.9 44.7c3.7-.4 5.5 1.5 5.7 3.4l.9 9.5c.1 1.1-.1 2.7-2.7 3.4l-1 .3.1 1v.2l.1.9.9.1c1.7.3 2.9 1 3.1 3.7l.3 3.5.1 1.2 1.2-.1.4 4.3-7.5.7-1-10.4-.1-1.2-1.2.1-3.3.3-1.2.1.1 1.2.5 5 .1 1.2 1.2-.1h.1l.4 4.3-9 .9-.4-4.3h.1l1.2-.1-.1-1.2-2-21-.1-1.2-1.2.1h-.1l-.4-4.3 14.8-1.5m-5.5 16.4l1.2-.1 3.7-.4 1.2-.1-.1-1.2-.9-8.9-.1-1.2-1.2.1-3.7.4-1.2.1.1 1.2.9 8.9.1 1.2m5.4-17.5l-15.9 1.5.6 6.6 1.3-.1 2 21-1.3.1.6 6.6 11.3-1.1-.6-6.6-1.3.1-.5-5 3.3-.3 1.1 11.6 9.8-1-.6-6.6-1.2.1-.3-3.5c-.3-2.9-1.6-4.3-4.1-4.7v-.2c2.5-.6 3.8-2.2 3.6-4.7l-.9-9.5c-.2-2.3-2.4-4.8-6.9-4.3zm-4.3 16.2l-.9-8.9 3.7-.4.9 8.9-3.7.4zM317.3 41.9l.7 7.5-4.4.4-.2-1.7-.1-1.2-1.2.1-4.2.4-1.2.1.1 1.2.7 6.8.1 1.2 1.2-.1 2.7-.3 1.2-.1-.1-1.2-.1-.9 3.3-.3.8 8.4-3.3.3-.1-.9-.1-1.2-1.2.1-2.7.3-1.2.1.1 1.2.7 6.9.1 1.2 1.2-.1 4.2-.4 1.2-.1-.1-1.2-.1-1.2 4.4-.4.7 7-18.6 1.8-.4-4.3h.1l1.2-.1-.1-1.2-2-21-.1-1.2-1.2.1h-.1l-.4-4.3 18.5-1.7m1.1-1.2l-20.9 2 .6 6.6 1.3-.1 2 21-1.3.1.6 6.6 20.9-2-.9-9.3-6.7.7.2 2.3-4.2.4-.7-6.9 2.7-.3.2 2.1 5.6-.5-1-10.8-5.6.5.2 2.1-2.7.3-.7-6.8 4.2-.4.3 2.8 6.7-.7-.8-9.7zM339.7 39.8l.7 7.5-4.4.4-.2-1.7-.1-1.2-1.2.1-4.2.4-1.2.1.1 1.2.7 6.8.1 1.2 1.2-.1 2.7-.3 1.2-.1-.1-1.2-.1-.9 3.3-.3.8 8.4-3.3.3-.1-.9-.1-1.2-1.2.1-2.7.3-1.2.1.1 1.2.7 6.9.1 1.2 1.2-.1 4.2-.4 1.2-.1-.1-1.2-.1-1.2 4.4-.4.7 7-18.6 1.8-.4-4.3h.1l1.2-.1-.1-1.2-2-21-.1-1.2-1.2.1h-.1l-.4-4.3 18.5-1.7m1.1-1.3l-20.9 2 .6 6.6 1.3-.1 2 21-1.3.1.6 6.6 20.9-2-.9-9.3-6.7.7.2 2.3-4.2.4-.7-6.9 2.7-.3.2 2.1 5.6-.5-1-10.8-5.6.5.2 2.1-2.7.3-.7-6.8 4.2-.4.3 2.8 6.7-.7-.8-9.7z"/><g fill="#801C57"><path d="M118.4 86.6l-4.7.5.4 3.7 1.9-.2.6 6.7-12 1.2-.6-6.7 1.3-.1-2.1-21.1-1.3.1-.6-6.7 15.1-1.5c5.5-.5 7.6 1.9 8.1 6.6l.9 9.4c.5 4.7-1.5 7.5-7 8.1zm-2.8-17.1l-3.6.4 1 10.3 3.6-.4-1-10.3zM139.9 95.5c-6.4.6-10.7-.6-11.4-7.6l-1.8-18.2c-.7-7.1 3.4-9.1 9.8-9.7s10.8.7 11.4 7.6l1.8 18c.7 7.1-3.4 9.3-9.8 9.9zm-.8-28.5l-3.7.4 2.1 21.1 3.7-.4-2.1-21.1zM184.9 62.6l1.9 19.7c.7 7.1-3.5 9-9.9 9.6-2.4.2-4.6.2-6.3-.3-1.7.9-3.8 1.3-6.3 1.6-6.3.6-10.9-.7-11.5-7.5l-1.9-19.7-1.3.1-.6-6.7 11.3-1.1.6 6.7-1.3.1 2.1 21.2 3.9-.4-2.1-21.2-1.3.1-.6-6.7 11.3-1.1.6 6.7-1.3.1 2.1 21.2 3.9-.4-2.1-21.2-1.3.1-.6-6.7 11.3-1.1.6 6.7-1.2.2zM190.2 90.1l-.6-6.7 1.3-.1-2.1-21.1-1.3.1-.6-6.7 21-2 1 9.9-6.8.7-.3-2.8-4.2.4.7 6.9 2.7-.3-.2-2.1 5.6-.5 1.1 10.8-5.6.5-.2-2.1-2.7.3.7 6.9 4.2-.4-.2-2.3 6.8-.7.9 9.4-21.2 1.9zM227.2 86.5l-.8-2.6-3.9-9.1-.9.1.5 5.4 1.3-.1.6 6.7-11.4 1.1-.6-6.7 1.3-.1-2-21.2-1.3.1-.6-6.7 15.3-1.5c5.4-.5 7.3 1.5 7.7 5.7l.9 8.9c.3 3.2-.8 5.1-3.1 5.9l3.6 6.6 1.9-.2.6 6.7-9.1 1zm-3.5-27.5l-3.6.4.9 8.8 3.6-.4-.9-8.8zM242.8 87.5l-3.9.4-.3-9.1 5.4-.5-1.2 9.2z"/></g><path opacity=".5" fill="#A9AAAA" d="M364.1 10.5l-3.9-2.9-5.8-.6-69.2 6.6-20.6 2v.3l-158.3 15.5v-.3l-16.7 1.6-4.4.4-69.3 6.9-5.6 1.7-3.3 3.6-2.2 4.5 1.4 4.8s.1-10.9 9.7-11.9l14-1.4 57.2-5.6 2.5-.2 16.1-1.6 5.1-.5 148.9-14.4 5.3-.5 75.8-7.4 14-1.4c9.7-.9 11.9 9.8 11.9 9.8l.5-5-3.1-4z"/><path fill="#DCDCDB" d="M354.9 4.7l-93.1 9.1-3.3.3-148.7 14.4-.7.1-94.3 9.2c-7 .7-12.3 7-11.7 14l7.5 76.6c.7 7 7.2 12.6 14.2 11.9l90.7-8.8 4.3-.4 148.7-14.5 3.9-.4 92.6-9c7-.7 12.3-7.4 11.6-14.5l-7.5-76.6c-.7-6.9-7.2-12.1-14.2-11.4zm18.3 88.4c.5 5.5-3.1 10.3-8.6 10.8l-92.6 9-3.9.4-148.7 14.5-4.3.4-90.7 8.8c-5.5.5-10-3.4-10.5-8.9l-7.5-76.6c-.5-5.5 3.1-9.8 8.6-10.4l94.3-9.2.7-.1 148.7-14.5 3.3-.3 93.2-9c5.5-.5 10 3 10.5 8.5l7.5 76.6z"/><path fill="#fff" d="M118.2 84.4l-4.7.5.4 3.7 1.9-.2.6 6.7-12 1.2-.6-6.7 1.3-.1-2.1-21.2-1.3.1-.6-6.7 15.1-1.5c5.5-.5 7.6 1.9 8.1 6.6l.9 9.4c.5 4.8-1.5 7.7-7 8.2zm-2.8-17.1l-3.6.4 1 10.3 3.6-.4-1-10.3zM139.7 93.3c-6.4.6-10.7-.6-11.4-7.6l-1.8-18.2c-.7-7.1 3.4-9.1 9.8-9.7s10.8.7 11.4 7.6l1.8 18c.7 7.1-3.4 9.3-9.8 9.9zm-.8-28.5l-3.7.4 2.1 21.1 3.7-.4-2.1-21.1zM184.7 60.4l1.9 19.7c.7 7.1-3.5 9-9.9 9.6-2.4.2-4.6.2-6.3-.3-1.7.9-3.8 1.3-6.3 1.6-6.3.6-10.9-.7-11.5-7.5l-1.9-19.7-1.3.1-.6-6.7 11.3-1.1.6 6.7-1.3.1 2.1 21.2 3.9-.4-2.1-21.2-1.3.1-.6-6.7 11.3-1.1.6 6.7-1.3.1 2.1 21.2 3.9-.4-2.1-21.2-1.3.1-.6-6.7 11.3-1.1.6 6.7-1.2.2zM190 87.9l-.6-6.7 1.3-.1-2.1-21.1-1.3.1-.6-6.7 21-2 1 9.9-6.8.7-.3-2.8-4.2.4.7 6.9 2.7-.3-.2-2.1 5.6-.5 1.1 10.8-5.6.5-.2-2.1-2.7.3.7 6.9 4.2-.4-.2-2.3 6.8-.7.9 9.4-21.2 1.9zM227 84.3l-.8-2.6-3.9-9.1-.9.1.5 5.4 1.3-.1.6 6.7-11.4 1.1-.6-6.7 1.3-.1-2.1-21.1-1.3.1-.6-6.7 15.3-1.5c5.4-.5 7.3 1.5 7.7 5.7l.9 8.9c.3 3.2-.8 5.1-3.1 5.9l3.6 6.6 1.9-.2.6 6.7-9 .9zm-3.5-27.5l-3.6.4.9 8.8 3.6-.4-.9-8.8zM242.6 85.3l-3.9.4-.3-9.1 5.4-.5-1.2 9.2z"/><defs><path id="p" d="M118.2 84.4l-4.7.5.4 3.7 1.9-.2.6 6.7-12 1.2-.6-6.7 1.3-.1-2.1-21.2-1.3.1-.6-6.7 15.1-1.5c5.5-.5 7.6 1.9 8.1 6.6l.9 9.4c.5 4.8-1.5 7.7-7 8.2zm-2.8-17.1l-3.6.4 1 10.3 3.6-.4-1-10.3z"/></defs><clipPath id="q"><use xlink:href="#p" overflow="visible"/></clipPath><path clip-path="url(#q)" fill="#DCDCDB" d="M99.037 79.376l27.271-2.657 1.852 19.01-27.271 2.657z"/><defs><path id="r" d="M139.7 93.3c-6.4.6-10.7-.6-11.4-7.6l-1.8-18.2c-.7-7.1 3.4-9.1 9.8-9.7s10.8.7 11.4 7.6l1.8 18c.7 7.1-3.4 9.3-9.8 9.9zm-.8-28.5l-3.7.4 2.1 21.1 3.7-.4-2.1-21.1z"/></defs><clipPath id="s"><use xlink:href="#r" overflow="visible"/></clipPath><path clip-path="url(#s)" fill="#DCDCDB" d="M123.042 77.077l27.271-2.657 1.852 19.01-27.271 2.657z"/><defs><path id="t" d="M184.7 60.4l1.9 19.7c.7 7.1-3.5 9-9.9 9.6-2.4.2-4.6.2-6.3-.3-1.7.9-3.8 1.3-6.3 1.6-6.3.6-10.9-.7-11.5-7.5l-1.9-19.7-1.3.1-.6-6.7 11.3-1.1.6 6.7-1.3.1 2.1 21.2 3.9-.4-2.1-21.2-1.3.1-.6-6.7 11.3-1.1.6 6.7-1.3.1 2.1 21.2 3.9-.4-2.1-21.2-1.3.1-.6-6.7 11.3-1.1.6 6.7-1.2.2z"/></defs><clipPath id="u"><use xlink:href="#t" overflow="visible"/></clipPath><path clip-path="url(#u)" fill="#DCDCDB" d="M147.969 74.647l39.016-3.801 1.852 19.01-39.016 3.801z"/><defs><path id="v" d="M190 87.9l-.6-6.7 1.3-.1-2.1-21.1-1.3.1-.6-6.7 21-2 1 9.9-6.8.7-.3-2.8-4.2.4.7 6.9 2.7-.3-.2-2.1 5.6-.5 1.1 10.8-5.6.5-.2-2.1-2.7.3.7 6.9 4.2-.4-.2-2.3 6.8-.7.9 9.4-21.2 1.9z"/></defs><clipPath id="w"><use xlink:href="#v" overflow="visible"/></clipPath><path clip-path="url(#w)" fill="#DCDCDB" d="M185.035 71.002l25.778-2.512 1.852 19.01-25.778 2.512z"/><defs><path id="x" d="M227 84.3l-.8-2.6-3.9-9.1-.9.1.5 5.4 1.3-.1.6 6.7-11.4 1.1-.6-6.7 1.3-.1-2.1-21.1-1.3.1-.6-6.7 15.3-1.5c5.4-.5 7.3 1.5 7.7 5.7l.9 8.9c.3 3.2-.8 5.1-3.1 5.9l3.6 6.6 1.9-.2.6 6.7-9 .9zm-3.5-27.5l-3.6.4.9 8.8 3.6-.4-.9-8.8z"/></defs><clipPath id="y"><use xlink:href="#x" overflow="visible"/></clipPath><path clip-path="url(#y)" fill="#DCDCDB" d="M208.544 68.768l27.072-2.638 1.852 19.01-27.072 2.638z"/><defs><path id="z" d="M242.6 85.3l-3.9.4-.3-9.1 5.4-.5-1.2 9.2z"/></defs><clipPath id="A"><use xlink:href="#z" overflow="visible"/></clipPath><path clip-path="url(#A)" fill="#DCDCDB" d="M237.184 81.292l11.844-1.154.698 7.166-11.844 1.154z"/><path fill="#DCDCDB" d="M232.723 64.805l-7.863.766-.145-1.493 7.863-.766zM224.695 61.98l7.664-.747.058.597-7.664.747zM224.509 60.18l7.763-.756.019.199-7.763.756zM220.387 66.017l-7.863.766-.145-1.493 7.863-.766zM212.294 63.178l7.664-.747.058.597-7.664.747zM212.108 61.378l7.763-.756.019.199-7.763.756zM185.175 69.474l-7.863.766-.145-1.493 7.863-.766zM177.091 66.582l7.664-.747.058.597-7.664.747zM176.905 64.782l7.763-.756.019.199-7.763.756zM172.45 70.656l-7.863.766-.145-1.493 7.863-.766zM164.386 67.777l7.664-.747.058.597-7.664.747zM164.21 66.076l7.763-.756.019.199-7.763.756zM159.788 71.921l-7.863.766-.145-1.493 7.863-.766zM151.793 69.073l7.664-.747.058.597-7.664.747zM151.607 67.273l7.763-.756.019.199-7.763.756zM148.182 73.083l-7.863.766-.145-1.493 7.863-.766zM140.09 70.182l7.664-.747.058.597-7.664.747zM140.004 68.373l7.763-.756.019.199-7.763.756zM135.69 74.322l-7.863.766-.145-1.493 7.863-.766zM127.587 71.378l7.664-.747.058.597-7.664.747zM127.411 69.678l7.763-.756.019.199-7.763.756zM124.591 75.38l-7.863.766-.145-1.493 7.863-.766zM116.49 72.483l7.664-.747.058.597-7.664.747zM116.404 70.674l7.763-.756.019.199-7.763.756zM112.155 76.602l-7.863.766-.145-1.493 7.863-.766zM104.089 73.681l7.664-.747.058.597-7.664.747zM103.913 71.981l7.763-.756.019.199-7.763.756zM206.024 67.412l-16.024 1.561-.145-1.493 16.024-1.561zM189.693 65.377l7.664-.747.058.597-7.664.747zM189.507 63.577l7.763-.756.019.199-7.763.756zM243.138 79.78l-3.882.378-.058-.597 3.882-.378zM239.201 78.689l3.782-.368.019.199-3.782.368zM239.109 77.992l3.782-.368.01.1-3.782.368z"/><g fill="#fff"><path d="M116.3 61.5c4.5-.4 6.4 1.1 6.8 5.6l.9 9.4c.4 4.3-1.4 6.3-6 6.7l-4.7.5-1.2.1.1 1.2.4 3.7.1 1.2 1.2-.1.8-.1.4 4.3-9.7.9-.4-4.3h.1l1.2-.1-.1-1.2-2.1-21.1-.1-1.2-1.2.1h-.1l-.4-4.3 14-1.3m-4.5 17.8l1.2-.1 3.6-.4 1.2-.1-.1-1.2-1-10.3-.1-1.2-1.2.1-3.6.4-1.2.1.1 1.2 1 10.3.1 1.2m4.4-19l-15.1 1.5.6 6.7 1.3-.1 2.1 21.1-1.3.1.6 6.7 12-1.2-.6-6.7-1.9.2-.4-3.7 4.7-.5c5.6-.5 7.5-3.4 7.1-8l-.9-9.4c-.6-4.8-2.7-7.2-8.2-6.7zm-3.4 17.7l-1-10.3 3.6-.4 1 10.3-3.6.4zM136.4 59c6.8-.7 9.6 1.2 10.2 6.6l1.8 18c.5 5.5-1.9 7.9-8.7 8.6-6.8.7-9.6-1.1-10.1-6.5l-1.8-18.2c-.6-5.6 1.7-7.8 8.6-8.5m-.2 28.6l1.2-.1 3.7-.4 1.2-.1-.1-1.2-2.2-21.1-.1-1.2-1.2.1-3.7.4-1.2.1.1 1.2 2.1 21.1.2 1.2m.1-29.7c-6.4.6-10.5 2.6-9.8 9.7l1.8 18.2c.7 7 5 8.2 11.4 7.6 6.4-.6 10.5-2.8 9.8-9.8l-1.8-18c-.6-7-5-8.4-11.4-7.7zm.9 28.4l-2.1-21.1 3.7-.4 2.1 21.1-3.7.4zM184.3 54.9l.4 4.3h-.1l-1.2.1.1 1.2 1.9 19.7c.5 5.5-1.8 7.6-8.8 8.3-2.5.2-4.4.1-5.9-.3l-.5-.1-.4.2c-1.3.7-3.1 1.2-5.9 1.4-6.9.7-9.7-1.1-10.3-6.5l-1.9-19.7-.1-1.2-1.2.1h-.1l-.4-4.3 9-.9.4 4.3h-.1l-1.2.1.1 1.2 2.1 21.2.1 1.2 1.2-.1 3.9-.4 1.2-.1-.1-1.2-2.1-21.2-.1-1.2-1.2.1h-.1l-.4-4.3 9-.9.4 4.3h-.1l-1.2.1.1 1.2 2.1 21.2.1 1.2 1.2-.1 3.9-.4 1.2-.1-.1-1.2-2.1-21.2-.1-.9-1.2.1h-.1l-.4-4.3 9-.9m1-1.3l-11.3 1.1.6 6.7 1.3-.1 2.1 21.2-3.9.4-2.1-21.3 1.3-.1-.6-6.7-11.3 1.1.6 6.7 1.3-.1 2.1 21.2-3.9.4-2.1-21.2 1.3-.1-.6-6.7-11.3 1.1.6 6.7 1.3-.1 1.9 19.7c.7 6.9 5.3 8.1 11.5 7.5 2.5-.2 4.7-.7 6.3-1.6 1.8.5 3.9.6 6.3.3 6.4-.6 10.6-2.5 9.9-9.6l-1.9-19.7 1.3-.1-.7-6.7zM206.6 52.7l.7 7.5-4.4.4-.2-1.7-.1-1.2-1.2.1-4.2.4-1.2.1.1 1.2.7 6.9.1 1.2 1.2-.1 2.7-.3 1.2-.1-.1-1.2-.1-.9 3.3-.3.8 8.5-3.3.3-.1-.9-.1-1.2-1.2.1-2.7.3-1.2.1.1 1.2.7 6.9.1 1.2 1.2-.1 4.2-.4 1.2-.1-.1-1.2-.1-1.2 4.4-.4.7 7-18.7 1.8-.4-4.3h.1l1.2-.1-.1-1.2-2.1-21.1-.1-1.2-1.2.1h-.1l-.4-4.3 18.7-1.8m1-1.3l-21 2 .6 6.7 1.3-.1 2.1 21.1-1.3.1.6 6.7 21-2-.9-9.4-6.8.7.2 2.3-4.2.4-.7-6.9 2.7-.3.2 2.1 5.6-.5-1.1-10.8-5.6.5.2 2.1-2.7.3-.7-6.9 4.2-.4.3 2.8 6.8-.7-.8-9.8zM224.6 50.9c5-.5 6.1 1.3 6.5 4.7l.9 8.9c.3 3.3-1.1 4.3-2.3 4.7l-1.3.5.6 1.2 3.6 6.6.4.7.8-.1.7-.1.4 4.3-7 .7-.5-1.7v-.2l-3.9-9.1-.3-.8-.9.1-.9.1-1.2.1.1 1.2.5 5.4.1 1.2 1.2-.1h.2l.4 4.3-9.1.9-.4-4.3h.1l1.2-.1-.1-1.2-2.1-21.1-.1-1.2-1.2.1h-.1l-.4-4.3 14.1-1.4m-4.9 16.3l1.2-.1 3.6-.4 1.2-.1-.1-1.2-.9-8.8-.1-1.2-1.2.1-3.6.4-1.2.1.1 1.2.9 8.8.1 1.2m4.8-17.4l-15.3 1.5.6 6.7 1.3-.1 2.1 21.1-1.3.1.6 6.7 11.4-1.1-.6-6.7-1.3.1-.5-5.4.9-.1 3.9 9.1.8 2.6 9.1-.9-.6-6.7-1.9.2-3.6-6.6c2.3-.8 3.4-2.7 3.1-5.9l-.9-8.9c-.5-4.2-2.4-6.3-7.8-5.7zm-3.8 16.1l-.9-8.8 3.6-.4.9 8.8-3.6.4zM242.5 77.4l-.9 6.8-1.7.2-.2-6.7 2.8-.3m1.4-1.3l-5.4.5.3 9.1 3.9-.4 1.2-9.2z"/></g></svg>