<svg version="1.1" id="Layer_1" xmlns="http://www.w3.org/2000/svg" xmlns:xlink="http://www.w3.org/1999/xlink" x="0px" y="0px"
	 viewBox="0 0 241 125" enable-background="new 0 0 241 125" xml:space="preserve">
<g>
	<g>
		
			<image overflow="visible" opacity="0.17" width="886" height="290" xlink:href="955D650774FA91C.png"  transform="matrix(0.24 0 0 0.24 18.2244 6.279)">
		</image>
		<g>
			<rect x="26.2" y="14.3" fill="#383838" width="188.6" height="45.6"/>
		</g>
	</g>
	<g>
		
			<image overflow="visible" opacity="0.17" width="886" height="290" xlink:href="955D650774FA91D.png"  transform="matrix(0.24 0 0 0.24 18.2244 57.1691)">
		</image>
		<g>
			<rect x="26.2" y="65.2" fill="#383838" width="188.6" height="45.6"/>
		</g>
	</g>
	<g>
		<g>
			<path fill="#FFFFFF" d="M48.6,42.3l2.8-13.2c0.4-2,1.6-2.9,3.5-2.9h4.3c4.8,0,7.5,1.9,7.5,5.7c0,4.4-2.7,7.7-8.8,7.7H55l-0.6,2.7
				c-0.4,1.8-1.2,2.7-2.9,2.7h-0.8C49.1,45.1,48.2,44.1,48.6,42.3z M58.2,35.5c1.8,0,2.9-1,2.9-2.9c0-1.2-0.8-1.9-2.5-1.9h-1.8
				l-1,4.8H58.2z"/>
			<path fill="#FFFFFF" d="M71.8,45.3c-3.1,0-5.2-2.2-5.2-5.7c0-4.7,3.1-9.3,7.7-9.3c1.8,0,3.5,0.8,4.4,2.5c0.7-1.6,1.9-2.2,3.7-2.2
				c1.1,0,1.9,0.5,1.9,0.7l-2.1,9.9c-0.4,1.7-0.1,2.4,0.9,2.7c0,0-0.4,1.6-2.9,1.6c-2.3,0-3.3-1.2-3.4-2.9
				C75.8,44.1,74,45.3,71.8,45.3z M75.3,34.5c-2.1,0-3.4,2-3.4,4.1c0,1.4,0.9,2.4,2.2,2.4c1.6,0,2.9-1.2,3.2-3l0.4-1.8
				C77.3,35.2,76.5,34.5,75.3,34.5z"/>
			<path fill="#FFFFFF" d="M84.1,49.8c-0.5-0.5-0.7-1.1-0.7-1.8c0-1,0.8-1.9,0.8-1.9c0.3,0.3,1,0.5,1.6,0.5c1,0,1.9-0.5,3.1-2.3
				l0.3-0.4c-0.7-0.2-1.1-0.7-1.2-1.7l-0.9-6.5c-0.3-2.1-1-2.7-2-2.9c-0.1,0,0.4-2.5,3.3-2.5c2.1,0,3.4,1.5,3.7,4.9l0.3,3.7l4.9-8.6
				c0.1-0.1,3.8,0.2,3.8,2.7c0,0.8-0.3,1.4-1,2.6l-6.7,10.6c-1.7,2.7-3.3,4.5-6.1,4.5C85.8,50.7,84.8,50.4,84.1,49.8z"/>
			<path fill="#FFFFFF" d="M101.6,40.8l1.6-7.7c0.4-2,1.1-2.7,2.5-2.7h0.6c1.5,0,2.9,0.6,2.4,2.7l-1.7,7.9c-0.4,1.7-0.1,2.4,1,2.7
				c0,0-0.4,1.6-3,1.6C101.8,45.3,101.1,43.3,101.6,40.8z M104.5,26.8c0-1.8,1.3-2.9,3.1-2.9c1.8,0,2.9,1,2.9,2.3
				c0,1.8-1.3,2.9-3.1,2.9C105.6,29,104.5,28.1,104.5,26.8z"/>
			<path fill="#FFFFFF" d="M122,30.3c2.8,0,4.4,1.8,4.4,4.5c0,1-0.3,2.3-0.8,4.1c-0.4,1.4-0.7,2.5-0.7,3.1c0,0.8,0.4,1.2,1.1,1.4
				c0.1,0-0.5,2-3.3,2c-2.4,0-3.4-1.1-3.4-2.8c0-0.8,0.2-1.7,0.7-3.3c0.3-1.2,0.5-2.2,0.5-2.6c0-1.1-0.6-1.7-1.7-1.7
				c-1,0-1.6,0.4-2.2,1.2l-1.4,6.4c-0.4,2-1.1,2.7-2.5,2.7h-0.6c-1.5,0-2.9-0.6-2.4-2.7l2.5-11.5c0-0.1,0.7-0.3,1.6-0.3
				c1.4,0,2.8,0.7,3,2.7C118,31.4,119.7,30.3,122,30.3z"/>
			<path fill="#FFFFFF" d="M143.6,30.5c1.1,0,1.9,0.5,1.9,0.7l-2.6,12.1c-1.1,5-3.5,7.4-9.4,7.4c-3.1,0-4.6-0.9-5.5-1.8
				c-0.6-0.6-0.9-1.4-0.9-2.2c0-1.9,2.2-2.9,2.4-2.7c0.9,1.4,2.1,2.3,4.2,2.3c2.3,0,3.3-1,3.8-3l0.2-1.1c-1.1,1.3-2.5,2-4.4,2
				c-3.1,0-5.3-2.3-5.3-5.8c0-4,2.7-8,7.4-8c1.8,0,3.6,0.8,4.5,2.4C140.6,31.1,141.8,30.5,143.6,30.5z M136.4,34.6
				c-2.1,0-3.3,1.6-3.3,3.2c0,1.3,1,2.2,2.3,2.2c1.6,0,2.8-1,3.1-2.4l0.3-1.5C138.5,35.2,137.7,34.6,136.4,34.6z"/>
			<path fill="#FFFFFF" d="M151.9,42.4l1.6-7.6H153c-1.2,0-2-0.6-2-1.5c0-0.5,0.2-1.6,0.8-2.2c0.3-0.3,0.8-0.5,1.9-0.5h0.7l0.1-0.5
				c0.9-4.4,3.4-5.6,6.2-5.6c1.6,0,2.7,0.4,3.3,1c0.4,0.4,0.6,0.9,0.6,1.5c0,1.4-1.2,2.4-1.3,2.3c-0.4-0.4-1-0.7-1.8-0.7
				c-0.9,0-1.4,0.4-1.7,1.5l-0.1,0.5h1.3c1.3,0,2,0.6,2,1.5c0,0.5-0.2,1.6-0.8,2.1c-0.3,0.3-0.8,0.5-1.9,0.5H159l-1.6,7.6
				c-0.4,2-1.2,2.7-2.6,2.7h-0.6C152.8,45.1,151.4,44.5,151.9,42.4z"/>
			<path fill="#FFFFFF" d="M162.8,38.8c0-4.3,2.9-8.5,8.1-8.5c4.7,0,7,2.9,7,6.5c0,4.3-2.9,8.5-8.1,8.5
				C165.1,45.3,162.8,42.3,162.8,38.8z M173.2,37c0-1.5-1-2.7-2.5-2.7c-2,0-3.4,2.1-3.4,4.2c0,1.6,1,2.7,2.5,2.7
				C171.9,41.3,173.2,39.2,173.2,37z"/>
			<path fill="#FFFFFF" d="M189.7,30.3c1.6,0,2.8,1,2.8,2.5c0,2.7-2.4,3.5-2.5,3.5c-0.4-0.5-1-0.9-2-0.9c-1.6,0-2.5,1.5-3,3.8
				l-0.7,3.3c-0.4,2-1.1,2.7-2.5,2.7h-0.6c-1.5,0-2.9-0.6-2.4-2.7l2.5-11.5c0-0.1,0.7-0.3,1.6-0.3c1.4,0,2.8,0.7,3,2.7
				C186.5,31.5,188,30.3,189.7,30.3z"/>
			<path fill="#FFFFFF" d="M48.8,92.5l2.6-12.1c0.4-2,1.6-2.9,3.5-2.9h9.8c1.6,0,2.4,0.7,2.4,1.8c0,0.6-0.3,1.9-0.9,2.6
				c-0.4,0.4-1,0.6-2.2,0.6h-7.2l-0.4,1.9h5.1c1.4,0,2.2,0.7,2.2,1.7c0,0.5-0.2,1.8-0.8,2.4c-0.4,0.4-0.9,0.6-2.1,0.6h-5.4l-0.5,2.2
				H62c1.6,0,2.4,0.7,2.4,1.8c0,0.6-0.3,1.9-0.9,2.6c-0.4,0.4-1,0.6-2.2,0.6h-9.6C49.4,96.2,48.3,95,48.8,92.5z"/>
			<path fill="#FFFFFF" d="M66.8,92.1l2.9-13.5c0.4-2,1.1-2.7,2.5-2.7h0.6c1.5,0,2.9,0.6,2.4,2.7l-2.9,13.7c-0.4,1.7-0.1,2.4,1,2.7
				c0,0-0.4,1.6-3,1.6C66.9,96.5,66.3,94.6,66.8,92.1z"/>
			<path fill="#FFFFFF" d="M82.6,92.8c1.7,0,3-0.9,3.8-1.9c0,0,2.2,0.3,2.2,2c0,1-0.3,1.5-0.9,2.1c-0.9,0.9-2.7,1.6-5.2,1.6
				c-5.1,0-7.4-2.7-7.4-6.3c0-5.2,4-8.7,9-8.7c3.9,0,6,1.8,6,4.5c0,3-1.9,4.7-8.2,4.7c-0.7,0-1.5,0-2.3-0.1
				C79.8,92,80.8,92.8,82.6,92.8z M81.5,87.6c3.2,0,4.2-0.6,4.2-1.4c0-0.6-0.6-1.2-1.8-1.2c-1.6,0-2.9,1.1-3.7,2.6
				C80.7,87.6,81.1,87.6,81.5,87.6z"/>
			<path fill="#FFFFFF" d="M90.8,90c0-4.6,3.6-8.5,8.2-8.5c2.5,0,4.2,0.7,5.2,1.8c0.7,0.7,1,1.5,1,2.2c0,2.7-3.3,2.8-3.4,2.5
				c-0.2-1.2-1.1-2.2-2.7-2.2c-2,0-3.4,1.8-3.4,3.7c0,1.5,1,2.7,2.7,2.7c1.2,0,2.1-0.5,2.7-1.6c0.1-0.1,2.5,0.3,2.5,2.2
				c0,0.7-0.3,1.4-1,2.1c-1,1-2.6,1.6-4.7,1.6C93.7,96.6,90.8,94.2,90.8,90z"/>
			<path fill="#FFFFFF" d="M107.2,91l1-4.9H108c-1.2,0-1.9-0.6-1.9-1.5c0-0.5,0.2-1.6,0.7-2.2c0.4-0.3,0.8-0.5,1.9-0.5h0.5l0.1-0.4
				c0.5-2.5,1.6-3.6,4-3.6c1.2,0,2.1,0.5,2,0.7l-0.7,3.4h1.6c1.3,0,2,0.6,2,1.5c0,0.5-0.2,1.6-0.7,2.1c-0.4,0.3-0.8,0.5-1.9,0.5h-2
				l-1,4.7c-0.3,1.2,0.2,1.8,1,1.8c0.6,0,1.2-0.3,1.6-0.6c0.1-0.1,0.8,0.4,0.8,1.5c0,0.8-0.3,1.5-0.9,2.1c-0.7,0.8-2,1.2-3.5,1.2
				C108,96.6,106.5,94.5,107.2,91z"/>
			<path fill="#FFFFFF" d="M128.8,81.5c1.6,0,2.8,1,2.8,2.5c0,2.7-2.4,3.5-2.5,3.5c-0.4-0.5-1-0.9-2-0.9c-1.6,0-2.5,1.5-3,3.8
				l-0.7,3.3c-0.4,2-1.1,2.7-2.5,2.7h-0.6c-1.5,0-2.9-0.6-2.4-2.7l2.5-11.5c0-0.1,0.7-0.3,1.6-0.3c1.4,0,2.8,0.7,3,2.7
				C125.6,82.7,127,81.5,128.8,81.5z"/>
			<path fill="#FFFFFF" d="M131.7,92.1l1.6-7.7c0.4-2,1.1-2.7,2.5-2.7h0.6c1.5,0,2.9,0.6,2.4,2.7l-1.7,7.9c-0.4,1.7-0.1,2.4,1,2.7
				c0,0-0.4,1.6-3,1.6C131.8,96.5,131.2,94.6,131.7,92.1z M134.6,78c0-1.8,1.3-2.9,3.1-2.9c1.8,0,2.9,1,2.9,2.3
				c0,1.8-1.3,2.9-3.1,2.9C135.6,80.3,134.6,79.3,134.6,78z"/>
			<path fill="#FFFFFF" d="M140,90c0-4.6,3.6-8.5,8.2-8.5c2.5,0,4.2,0.7,5.2,1.8c0.7,0.7,1,1.5,1,2.2c0,2.7-3.3,2.8-3.4,2.5
				c-0.2-1.2-1.1-2.2-2.7-2.2c-2,0-3.4,1.8-3.4,3.7c0,1.5,1,2.7,2.7,2.7c1.2,0,2.1-0.5,2.7-1.6c0.1-0.1,2.5,0.3,2.5,2.2
				c0,0.7-0.3,1.4-1,2.1c-1,1-2.6,1.6-4.7,1.6C142.9,96.6,140,94.2,140,90z"/>
			<path fill="#FFFFFF" d="M155,92.1l1.6-7.7c0.4-2,1.1-2.7,2.5-2.7h0.6c1.5,0,2.9,0.6,2.4,2.7l-1.7,7.9c-0.4,1.7-0.1,2.4,1,2.7
				c0,0-0.4,1.6-3,1.6C155.2,96.5,154.5,94.6,155,92.1z M157.9,78c0-1.8,1.3-2.9,3.1-2.9c1.8,0,2.9,1,2.9,2.3c0,1.8-1.3,2.9-3.1,2.9
				C159,80.3,157.9,79.3,157.9,78z"/>
			<path fill="#FFFFFF" d="M165.1,91l1-4.9h-0.3c-1.2,0-1.9-0.6-1.9-1.5c0-0.5,0.2-1.6,0.7-2.2c0.4-0.3,0.8-0.5,1.9-0.5h0.5l0.1-0.4
				c0.5-2.5,1.6-3.6,4-3.6c1.2,0,2.1,0.5,2,0.7l-0.7,3.4h1.6c1.3,0,2,0.6,2,1.5c0,0.5-0.2,1.6-0.7,2.1c-0.4,0.3-0.8,0.5-1.9,0.5h-2
				l-1,4.7c-0.3,1.2,0.2,1.8,1,1.8c0.6,0,1.2-0.3,1.6-0.6c0.1-0.1,0.8,0.4,0.8,1.5c0,0.8-0.3,1.5-0.9,2.1c-0.7,0.8-2,1.2-3.5,1.2
				C165.8,96.6,164.3,94.5,165.1,91z"/>
			<path fill="#FFFFFF" d="M175.1,101c-0.5-0.5-0.7-1.1-0.7-1.8c0-1,0.8-1.9,0.8-1.9c0.3,0.3,1,0.5,1.6,0.5c1,0,1.9-0.5,3.1-2.3
				l0.3-0.4c-0.7-0.2-1.1-0.7-1.2-1.7l-0.9-6.5c-0.3-2.1-1-2.7-2-2.9c-0.1,0,0.4-2.5,3.3-2.5c2.1,0,3.4,1.5,3.7,4.9l0.3,3.7l4.9-8.6
				c0.1-0.1,3.8,0.2,3.8,2.7c0,0.8-0.3,1.4-1,2.6l-6.7,10.6c-1.7,2.7-3.3,4.5-6.1,4.5C176.7,102,175.7,101.6,175.1,101z"/>
		</g>
	</g>
</g>
</svg>
