<svg version="1.1" id="Layer_1" xmlns="http://www.w3.org/2000/svg" xmlns:xlink="http://www.w3.org/1999/xlink" x="0px" y="0px"
	 viewBox="0 0 241 125" enable-background="new 0 0 241 125" xml:space="preserve">
<g>
	<g>
		
			<image overflow="visible" opacity="0.15" width="1008" height="290" xlink:href="DF1C5320E6D7C8FA.png"  transform="matrix(0.24 0 0 0.24 3.5664 6.279)">
		</image>
		<g>
			<rect x="11.6" y="14.3" fill="#EC1D6B" width="217.9" height="45.6"/>
		</g>
	</g>
	<g>
		
			<image overflow="visible" opacity="0.15" width="659" height="290" xlink:href="DF1C5320E6D7C8FE.png"  transform="matrix(0.24 0 0 0.24 45.4906 57.1691)">
		</image>
		<g>
			<rect x="53.5" y="65.2" fill="#EC1D6B" width="134" height="45.6"/>
		</g>
	</g>
	<g>
		<g>
			<path fill="#FFFFFF" d="M32.3,43.3c-0.7-0.7-1.1-1.5-1.1-2.4c0-1.8,2-2.9,2.1-2.8c1.2,1.5,3.6,2.8,5.7,2.8c1.5,0,2.2-0.5,2.2-1.5
				c0-0.8-1.2-1.1-2.8-1.7c-2.2-0.8-4.7-2.1-4.7-5.3c0-3.3,2.4-6.5,8-6.5c3.1,0,5.3,0.8,6.5,2c0.6,0.6,0.9,1.4,0.9,2.1
				c0,2-2.2,3.2-2.3,3c-1.2-1.6-3.2-2.7-5.1-2.7c-1.5,0-2.2,0.6-2.2,1.5c0,0.9,1.4,1.2,3.1,1.9c2.5,0.9,5,2.2,5,5.2
				c0,3.7-2.6,6.5-8.5,6.5C35.8,45.3,33.6,44.5,32.3,43.3z"/>
			<path fill="#FFFFFF" d="M58.2,42.5c0-0.8,0.2-1.7,0.7-3.3c0.3-1.2,0.5-2.2,0.5-2.6c0-1.1-0.6-1.7-1.7-1.7c-1,0-1.6,0.4-2.2,1.2
				l-1.4,6.4c-0.4,2-1.1,2.7-2.5,2.7H51c-1.5,0-2.8-0.6-2.4-2.7l3.2-15.1c0.4-2,1.2-2.7,2.6-2.7H55c1.5,0,2.9,0.6,2.4,2.7l-1.2,5.8
				c1-1.6,2.8-2.8,4.8-2.8c2.7,0,4.2,1.8,4.2,4.5c0,1-0.3,2.3-0.8,4.1c-0.4,1.4-0.7,2.5-0.7,3.1c0,0.8,0.4,1.2,1.1,1.4
				c0.1,0-0.5,2-3.3,2C59.1,45.3,58.2,44.2,58.2,42.5z"/>
			<path fill="#FFFFFF" d="M66.6,38.8c0-4.3,2.9-8.5,8.1-8.5c4.7,0,7,2.9,7,6.5c0,4.3-2.9,8.5-8.1,8.5
				C68.9,45.3,66.6,42.3,66.6,38.8z M77.1,37c0-1.5-1-2.7-2.5-2.7c-2,0-3.4,2.1-3.4,4.2c0,1.6,1,2.7,2.5,2.7
				C75.8,41.3,77.1,39.2,77.1,37z"/>
			<path fill="#FFFFFF" d="M94.3,30.3c3.1,0,5.5,2.2,5.5,6c0,4.6-2.8,9-7.3,9c-2,0-3.6-0.9-4.5-2.4l-1.1,5c-0.4,2-1.1,2.7-2.5,2.7
				h-0.6c-1.5,0-2.9-0.6-2.4-2.7l3.6-17c0-0.1,0.7-0.3,1.6-0.3c1.4,0,2.8,0.7,3,2.8C90.5,31.5,92.1,30.3,94.3,30.3z M89.1,37.6
				c-0.4,2,0.5,3.5,2.4,3.5c1.9,0,3-1.9,3-3.9c0-1.6-0.9-2.6-2.3-2.6c-1,0-2,0.5-2.7,1.4L89.1,37.6z"/>
			<path fill="#FFFFFF" d="M112.4,30.3c3.1,0,5.5,2.2,5.5,6c0,4.6-2.8,9-7.3,9c-2,0-3.6-0.9-4.5-2.4l-1.1,5c-0.4,2-1.1,2.7-2.5,2.7
				h-0.6c-1.5,0-2.9-0.6-2.4-2.7l3.6-17c0-0.1,0.7-0.3,1.6-0.3c1.4,0,2.8,0.7,3,2.8C108.6,31.5,110.2,30.3,112.4,30.3z M107.2,37.6
				c-0.4,2,0.5,3.5,2.4,3.5c1.9,0,3-1.9,3-3.9c0-1.6-0.9-2.6-2.3-2.6c-1,0-2,0.5-2.7,1.4L107.2,37.6z"/>
			<path fill="#FFFFFF" d="M119.2,40.8l1.6-7.7c0.4-2,1.1-2.7,2.5-2.7h0.6c1.5,0,2.9,0.6,2.4,2.7l-1.7,7.9c-0.4,1.7-0.1,2.4,1,2.7
				c0,0-0.4,1.6-3,1.6C119.4,45.3,118.7,43.3,119.2,40.8z M122.1,26.8c0-1.8,1.3-2.9,3.1-2.9c1.8,0,2.9,1,2.9,2.3
				c0,1.8-1.3,2.9-3.1,2.9C123.2,29,122.1,28.1,122.1,26.8z"/>
			<path fill="#FFFFFF" d="M139.6,30.3c2.8,0,4.4,1.8,4.4,4.5c0,1-0.3,2.3-0.8,4.1c-0.4,1.4-0.7,2.5-0.7,3.1c0,0.8,0.4,1.2,1.1,1.4
				c0.1,0-0.5,2-3.3,2c-2.4,0-3.4-1.1-3.4-2.8c0-0.8,0.2-1.7,0.7-3.3c0.3-1.2,0.5-2.2,0.5-2.6c0-1.1-0.6-1.7-1.7-1.7
				c-1,0-1.6,0.4-2.2,1.2l-1.4,6.4c-0.4,2-1.1,2.7-2.5,2.7h-0.6c-1.5,0-2.9-0.6-2.4-2.7l2.5-11.5c0-0.1,0.7-0.3,1.6-0.3
				c1.4,0,2.8,0.7,3,2.7C135.6,31.4,137.3,30.3,139.6,30.3z"/>
			<path fill="#FFFFFF" d="M161.1,30.5c1.1,0,1.9,0.5,1.9,0.7l-2.6,12.1c-1.1,5-3.5,7.4-9.4,7.4c-3.1,0-4.6-0.9-5.5-1.8
				c-0.6-0.6-0.9-1.4-0.9-2.2c0-1.9,2.2-2.9,2.4-2.7c0.9,1.4,2.1,2.3,4.2,2.3c2.3,0,3.3-1,3.8-3l0.2-1.1c-1.1,1.3-2.5,2-4.4,2
				c-3.1,0-5.3-2.3-5.3-5.8c0-4,2.7-8,7.4-8c1.8,0,3.6,0.8,4.5,2.4C158.2,31.1,159.4,30.5,161.1,30.5z M154,34.6
				c-2.1,0-3.3,1.6-3.3,3.2c0,1.3,1,2.2,2.3,2.2c1.6,0,2.8-1,3.1-2.4l0.3-1.5C156.1,35.2,155.2,34.6,154,34.6z"/>
			<path fill="#FFFFFF" d="M169.5,42.4l1.6-7.6h-0.5c-1.2,0-2-0.6-2-1.5c0-0.5,0.2-1.6,0.8-2.2c0.3-0.3,0.8-0.5,1.9-0.5h0.7l0.1-0.5
				c0.9-4.4,3.4-5.6,6.2-5.6c1.6,0,2.7,0.4,3.3,1c0.4,0.4,0.6,0.9,0.6,1.5c0,1.4-1.2,2.4-1.3,2.3c-0.4-0.4-1-0.7-1.8-0.7
				c-0.9,0-1.4,0.4-1.7,1.5l-0.1,0.5h1.3c1.3,0,2,0.6,2,1.5c0,0.5-0.2,1.6-0.8,2.1c-0.3,0.3-0.8,0.5-1.9,0.5h-1.3l-1.6,7.6
				c-0.4,2-1.2,2.7-2.6,2.7h-0.6C170.4,45.1,169,44.5,169.5,42.4z"/>
			<path fill="#FFFFFF" d="M180.3,38.8c0-4.3,2.9-8.5,8.1-8.5c4.7,0,7,2.9,7,6.5c0,4.3-2.9,8.5-8.1,8.5
				C182.6,45.3,180.3,42.3,180.3,38.8z M190.8,37c0-1.5-1-2.7-2.5-2.7c-2,0-3.4,2.1-3.4,4.2c0,1.6,1,2.7,2.5,2.7
				C189.5,41.3,190.8,39.2,190.8,37z"/>
			<path fill="#FFFFFF" d="M207.3,30.3c1.6,0,2.8,1,2.8,2.5c0,2.7-2.5,3.5-2.5,3.5c-0.4-0.5-1-0.9-2-0.9c-1.6,0-2.5,1.5-3,3.8
				l-0.7,3.3c-0.4,2-1.1,2.7-2.5,2.7h-0.6c-1.5,0-2.9-0.6-2.4-2.7l2.5-11.5c0-0.1,0.7-0.3,1.6-0.3c1.4,0,2.8,0.7,3,2.7
				C204.1,31.5,205.5,30.3,207.3,30.3z"/>
			<path fill="#FFFFFF" d="M77.7,93.6l2.8-13.2c0.4-2,1.6-2.9,3.5-2.9h4.3c4.8,0,7.5,1.9,7.5,5.7c0,4.4-2.7,7.7-8.8,7.7h-2.9
				l-0.6,2.7c-0.4,1.8-1.2,2.7-2.9,2.7h-0.8C78.2,96.3,77.3,95.4,77.7,93.6z M87.3,86.7c1.8,0,2.9-1,2.9-2.9c0-1.2-0.8-1.9-2.5-1.9
				h-1.8l-1,4.8H87.3z"/>
			<path fill="#FFFFFF" d="M95.7,90c0-4.3,2.9-8.5,8.1-8.5c4.7,0,7,2.9,7,6.5c0,4.3-2.9,8.5-8.1,8.5C98,96.6,95.7,93.6,95.7,90z
				 M106.2,88.3c0-1.5-1-2.7-2.5-2.7c-2,0-3.4,2.1-3.4,4.2c0,1.6,1,2.7,2.5,2.7C104.8,92.5,106.2,90.4,106.2,88.3z"/>
			<path fill="#FFFFFF" d="M114.6,94.5l-0.5-7.8c-0.1-1.9-0.9-2.5-1.9-2.7c-0.1,0,0.3-2.4,3.1-2.4c1,0,1.8,0.3,2.4,0.8
				c0.8,0.8,1.1,2.1,1.1,4l0,3.9l2.8-5.9c0.6-1.2,1.3-1.6,2.6-1.6c1.7,0,2.7,0.5,2.8,2.1l0.3,5.4l4-8.8c0.1-0.1,3.7,0,3.7,2.5
				c0,0.7-0.2,1.2-0.8,2.3l-4.9,8.6c-0.5,1-1.4,1.3-2.7,1.3c-1.8,0-2.4-0.5-2.6-1.8l-0.6-5.3l-3.3,5.8c-0.5,1-1.4,1.3-2.5,1.3
				C115.2,96.4,114.6,95.7,114.6,94.5z"/>
			<path fill="#FFFFFF" d="M142.5,92.8c1.7,0,3-0.9,3.8-1.9c0,0,2.2,0.3,2.2,2c0,1-0.3,1.5-0.9,2.1c-0.9,0.9-2.7,1.6-5.2,1.6
				c-5.1,0-7.4-2.7-7.4-6.3c0-5.2,4-8.7,9-8.7c3.9,0,6,1.8,6,4.5c0,3-1.9,4.7-8.2,4.7c-0.7,0-1.5,0-2.3-0.1
				C139.8,92,140.8,92.8,142.5,92.8z M141.4,87.6c3.2,0,4.2-0.6,4.2-1.4c0-0.6-0.6-1.2-1.8-1.2c-1.6,0-2.9,1.1-3.7,2.6
				C140.6,87.6,141.1,87.6,141.4,87.6z"/>
			<path fill="#FFFFFF" d="M161.5,81.5c1.6,0,2.8,1,2.8,2.5c0,2.7-2.5,3.5-2.5,3.5c-0.4-0.5-1-0.9-2-0.9c-1.6,0-2.5,1.5-3,3.8
				l-0.7,3.3c-0.4,2-1.1,2.7-2.5,2.7h-0.6c-1.5,0-2.9-0.6-2.4-2.7l2.5-11.5c0-0.1,0.7-0.3,1.6-0.3c1.4,0,2.8,0.7,3,2.7
				C158.3,82.7,159.7,81.5,161.5,81.5z"/>
		</g>
	</g>
</g>
</svg>
