<?xml version="1.0" encoding="utf-8"?>
<!-- Generator: Adobe Illustrator 21.0.2, SVG Export Plug-In . SVG Version: 6.00 Build 0)  -->
<svg version="1.1" id="Layer_1" xmlns="http://www.w3.org/2000/svg" xmlns:xlink="http://www.w3.org/1999/xlink" x="0px" y="0px"
	 viewBox="0 0 380 165" style="enable-background:new 0 0 380 165;" xml:space="preserve">
<style type="text/css">
	.st0{fill:none;}
	.st1{fill:none;stroke:#632976;stroke-width:0.5;stroke-miterlimit:10;}
	.st2{fill:#FFFFFF;}
	.st3{fill:#793F91;}
	.st4{fill:#EADAD0;}
	.st5{fill:#A2226B;}
	.st6{fill:#FA0E6A;}
	.st7{fill:#501B60;}
	.st8{fill:#54A9DD;}
	.st9{fill:#1890CD;}
	.st10{fill:url(#SVGID_1_);}
	.st11{fill:#83CBEA;}
	.st12{fill:#B0DEF7;}
	.st13{fill:url(#SVGID_2_);}
	.st14{fill:url(#SVGID_3_);}
	.st15{fill:#642A77;}
	.st16{fill:#D0D1D2;}
	.st17{fill:#353435;}
	.st18{fill:#BABCBE;}
	.st19{fill:#F0E9E4;}
	.st20{fill:#009A7A;}
	.st21{fill:#196ECC;}
	.st22{fill:#00B08A;}
	.st23{fill:#FFDD15;}
	.st24{fill:#EADBD2;}
	.st25{fill:#ED1D6B;}
	.st26{opacity:0.7;fill:#D6C1B5;}
	.st27{fill:#BBBDBF;}
	.st28{fill:#DDCBC1;}
	.st29{opacity:0.58;fill:#56474D;}
	.st30{fill:#EDA454;}
	.st31{fill:#F27138;}
	.st32{fill:#56474D;}
	.st33{fill:#662244;}
	.st34{fill:#A11F61;}
	.st35{fill:#451C57;}
	.st36{fill:#5A4A42;}
	.st37{fill:#BEDFFB;}
	.st38{fill:#D6B79F;}
	.st39{fill:#D61664;}
	.st40{fill:#D0AF96;}
	.st41{fill:#F9B5BA;}
	.st42{fill:#D81966;}
</style>
<pattern  y="165" width="35.7" height="35.7" patternUnits="userSpaceOnUse" id="New_Pattern_Swatch_4" viewBox="35.8 -48.1 35.7 35.7" style="overflow:visible;">
	<g>
		<rect x="35.8" y="-48.1" class="st0" width="35.7" height="35.7"/>
		<g>
			<polygon class="st1" points="106.9,-6.2 101,-0.4 89.2,-12.1 77.5,-0.4 71.6,-6.2 71.6,-6.3 77.5,-12.1 89.2,-0.4 101,-12.1 
				106.9,-6.3 			"/>
		</g>
		<g>
			<polygon class="st1" points="71.2,-6.2 65.4,-0.4 53.6,-12.1 41.8,-0.4 35.9,-6.2 36,-6.3 41.8,-12.1 53.6,-0.4 65.4,-12.1 
				71.3,-6.3 			"/>
		</g>
		<g>
			<polygon class="st1" points="35.6,-6.2 29.7,-0.4 17.9,-12.1 6.2,-0.4 0.3,-6.2 0.3,-6.3 6.2,-12.1 17.9,-0.4 29.7,-12.1 
				35.6,-6.3 			"/>
		</g>
		<g>
			<polygon class="st1" points="106.9,-18.4 101,-12.6 89.2,-24.3 77.5,-12.6 71.6,-18.4 71.6,-18.5 77.5,-24.3 89.2,-12.6 
				101,-24.3 106.9,-18.5 			"/>
			<polygon class="st1" points="106.9,-30.3 101,-24.4 89.2,-36.2 77.5,-24.4 71.6,-30.3 71.6,-30.3 77.5,-36.2 89.2,-24.4 
				101,-36.2 106.9,-30.3 			"/>
			<polygon class="st1" points="106.9,-42 101,-36.1 89.2,-47.9 77.5,-36.1 71.6,-42 71.6,-42 77.5,-47.9 89.2,-36.1 101,-47.9 
				106.9,-42 			"/>
		</g>
		<g>
			<polygon class="st1" points="71.2,-18.4 65.4,-12.6 53.6,-24.3 41.8,-12.6 35.9,-18.4 36,-18.5 41.8,-24.3 53.6,-12.6 
				65.4,-24.3 71.3,-18.5 			"/>
			<polygon class="st1" points="71.2,-30.3 65.4,-24.4 53.6,-36.2 41.8,-24.4 35.9,-30.3 36,-30.3 41.8,-36.2 53.6,-24.4 
				65.4,-36.2 71.3,-30.3 			"/>
			<polygon class="st1" points="71.2,-42 65.4,-36.1 53.6,-47.9 41.8,-36.1 35.9,-42 36,-42 41.8,-47.9 53.6,-36.1 65.4,-47.9 
				71.3,-42 			"/>
		</g>
		<g>
			<polygon class="st1" points="35.6,-18.4 29.7,-12.6 17.9,-24.3 6.2,-12.6 0.3,-18.4 0.3,-18.5 6.2,-24.3 17.9,-12.6 29.7,-24.3 
				35.6,-18.5 			"/>
			<polygon class="st1" points="35.6,-30.3 29.7,-24.4 17.9,-36.2 6.2,-24.4 0.3,-30.3 0.3,-30.3 6.2,-36.2 17.9,-24.4 29.7,-36.2 
				35.6,-30.3 			"/>
			<polygon class="st1" points="35.6,-42 29.7,-36.1 17.9,-47.9 6.2,-36.1 0.3,-42 0.3,-42 6.2,-47.9 17.9,-36.1 29.7,-47.9 
				35.6,-42 			"/>
		</g>
		<g>
			<polygon class="st1" points="106.9,-54.2 101,-48.3 89.2,-60.1 77.5,-48.3 71.6,-54.2 71.6,-54.2 77.5,-60.1 89.2,-48.3 
				101,-60.1 106.9,-54.2 			"/>
		</g>
		<g>
			<polygon class="st1" points="71.2,-54.2 65.4,-48.3 53.6,-60.1 41.8,-48.3 35.9,-54.2 36,-54.2 41.8,-60.1 53.6,-48.3 
				65.4,-60.1 71.3,-54.2 			"/>
		</g>
		<g>
			<polygon class="st1" points="35.6,-54.2 29.7,-48.3 17.9,-60.1 6.2,-48.3 0.3,-54.2 0.3,-54.2 6.2,-60.1 17.9,-48.3 29.7,-60.1 
				35.6,-54.2 			"/>
		</g>
	</g>
</pattern>
<g id="Screenshots">
</g>
<g id="Artwork_Background">
</g>
<g id="SYM_Offer">
</g>
<g id="Sign_Up_Offer">
</g>
<path class="st2" d="M128.7,16c0-0.7,0.4-1,0.9-1h2.7c1.8,0,2.8,0.8,2.8,2c0,0.9-0.5,1.4-1.4,1.7c1.2,0.3,1.8,1,1.8,2
	c0,1.5-1,2.3-3.2,2.3h-2.6c-0.6,0-0.9-0.4-0.9-1L128.7,16L128.7,16z M132,18.4c0.8,0,1.4-0.4,1.4-1s-0.4-1-1.4-1h-1.4v2H132z
	 M132.1,21.7c1.1,0,1.5-0.3,1.5-1.1c0-0.7-0.5-1-1.5-1h-1.5v2.1H132.1z"/>
<path class="st2" d="M136.6,17.1c0-0.1,0.3-0.2,0.7-0.2c0.5,0,0.9,0.2,1.1,1c0.2-0.7,0.8-1.1,1.5-1.1s1.1,0.4,1.1,1
	c0,0.7-0.5,0.9-0.5,0.9c-0.2-0.2-0.5-0.3-0.8-0.3c-0.8,0-1.2,0.8-1.2,2v1.8c0,0.7-0.3,0.8-0.8,0.8h-0.2c-0.5,0-0.8-0.2-0.8-0.8
	L136.6,17.1L136.6,17.1z"/>
<path class="st2" d="M141.7,15.1c0-0.5,0.4-0.9,1-0.9s1,0.3,1,0.9c0,0.5-0.4,0.9-1,0.9C142.1,15.9,141.7,15.6,141.7,15.1z
	 M141.8,17.7c0-0.7,0.3-0.8,0.8-0.8h0.2c0.5,0,0.8,0.2,0.8,0.8v4.5c0,0.7-0.3,0.8-0.8,0.8h-0.2c-0.5,0-0.8-0.2-0.8-0.8V17.7
	L141.8,17.7z"/>
<path class="st2" d="M144.9,17.1c0-0.1,0.3-0.2,0.7-0.2s0.9,0.2,1,1c0.4-0.6,1-1.1,2-1.1c1.6,0,2.3,1.1,2.3,2.5v2.9
	c0,0.7-0.3,0.8-0.8,0.8h-0.2c-0.5,0-0.8-0.2-0.8-0.8v-2.6c0-0.8-0.4-1.3-1.1-1.3c-0.6,0-1.1,0.3-1.4,0.8v3.1c0,0.7-0.3,0.8-0.8,0.8
	h-0.2c-0.5,0-0.8-0.2-0.8-0.8V17L144.9,17.1C144.9,17,144.9,17.1,144.9,17.1z"/>
<path class="st2" d="M153.3,22.4c-0.1-0.1-0.2-0.3-0.2-0.5c0-0.3,0.2-0.5,0.4-0.7c-1-0.3-1.6-1-1.6-2c0-1.3,1.2-2.3,2.7-2.3
	c0.5,0,0.9,0.1,1.3,0.3l0.3-0.5c0.2-0.4,0.5-0.6,0.9-0.6c0.6,0,0.9,0.7,0.8,0.8l-1,1c0.3,0.4,0.5,0.8,0.5,1.4c0,1.3-1.1,2.1-2.7,2.1
	h-0.1c-0.1,0.1-0.1,0.1-0.1,0.1c0,0.3,0.5,0.4,1.5,0.6c0.8,0.2,1.8,0.7,1.8,1.7c0,1.2-1.2,1.9-3.3,1.9s-3.1-0.5-3.1-1.7
	C151.4,23.1,152.2,22.5,153.3,22.4z M154.6,24.6c1,0,1.5-0.3,1.5-0.8s-0.8-0.5-1.6-0.8c-0.9,0.1-1.5,0.3-1.5,0.8
	C153.1,24.3,153.6,24.6,154.6,24.6z M155.8,19.1c0-0.7-0.5-1.1-1.2-1.1s-1.2,0.4-1.2,1.1s0.5,1.2,1.2,1.2
	C155.3,20.3,155.8,19.8,155.8,19.1z"/>
<path class="st2" d="M160.1,17.4c-0.1-0.1,0.4-0.5,0.9-0.5c0.4,0,0.8,0.2,1,0.9l1.3,3.5l1.2-3.5c0.2-0.7,0.5-0.9,1-0.9
	s1,0.4,0.9,0.5l-2.7,7.1c-0.3,0.7-0.6,0.8-1,0.8c-0.5,0-1-0.4-0.9-0.5l1-2.3c-0.3-0.1-0.5-0.1-0.5-0.4L160.1,17.4z"/>
<path class="st2" d="M169.9,16.9c1.9,0,3.2,1.3,3.2,3.2s-1.3,3.2-3.2,3.2s-3.2-1.3-3.2-3.2S168,16.9,169.9,16.9z M169.9,21.8
	c1,0,1.7-0.8,1.7-1.8s-0.7-1.8-1.7-1.8s-1.7,0.8-1.7,1.8S169,21.8,169.9,21.8z"/>
<path class="st2" d="M174.2,17.7c0-0.7,0.3-0.8,0.8-0.8h0.2c0.5,0,0.8,0.2,0.8,0.8v2.7c0,0.8,0.4,1.3,1.2,1.3c0.5,0,1-0.3,1.3-0.8
	v-3.2c0-0.7,0.3-0.8,0.8-0.8h0.2c0.5,0,0.8,0.2,0.8,0.8v5.1c0,0.1-0.3,0.2-0.7,0.2s-0.9-0.2-1-0.9c-0.4,0.6-1,1.1-2,1.1
	c-1.6,0-2.3-1.1-2.3-2.5L174.2,17.7L174.2,17.7z"/>
<path class="st2" d="M181.4,17.1c0-0.1,0.3-0.2,0.7-0.2c0.5,0,0.9,0.2,1.1,1c0.2-0.7,0.8-1.1,1.5-1.1s1.1,0.4,1.1,1
	c0,0.7-0.5,0.9-0.5,0.9c-0.2-0.2-0.5-0.3-0.8-0.3c-0.8,0-1.2,0.8-1.2,2v1.8c0,0.7-0.3,0.8-0.8,0.8h-0.2c-0.5,0-0.8-0.2-0.8-0.8
	L181.4,17.1L181.4,17.1z"/>
<path class="st2" d="M188.7,17.1c0-0.1,0.3-0.2,0.7-0.2s0.9,0.2,1,1c0.4-0.6,1-1,1.9-1c1,0,1.6,0.5,1.9,1.3c0.4-0.7,1-1.3,2-1.3
	c1.5,0,2.2,1,2.2,2.4v3c0,0.7-0.3,0.8-0.8,0.8h-0.2c-0.5,0-0.8-0.2-0.8-0.8v-2.7c0-0.8-0.4-1.2-1-1.2c-0.5,0-0.9,0.3-1.2,0.8v3.2
	c0,0.7-0.3,0.8-0.8,0.8h-0.2c-0.5,0-0.8-0.2-0.8-0.8v-2.7c0-0.8-0.3-1.3-1-1.3c-0.5,0-0.9,0.3-1.2,0.8v3.2c0,0.7-0.3,0.8-0.8,0.8
	h-0.2c-0.5,0-0.8-0.2-0.8-0.8v-5.1L188.7,17.1L188.7,17.1z"/>
<path class="st2" d="M203.3,19.3h0.2c0-0.8-0.4-1.2-1.3-1.2s-1.3,0.5-1.5,0.9c0,0.1-1.1,0.1-1.1-0.8c0-0.8,0.9-1.5,2.7-1.5
	c1.9,0,2.9,0.9,2.9,2.5v3.6c0,0.1-0.3,0.2-0.7,0.2c-0.5,0-0.9-0.3-1-0.9c-0.4,0.7-1.2,1-2.1,1c-1.3,0-2-0.7-2-1.8
	C199.4,20,200.7,19.4,203.3,19.3z M202,22c0.9,0,1.5-0.5,1.5-1.4v-0.3h-0.3c-1.4,0.1-2.1,0.3-2.1,1C201,21.8,201.4,22,202,22z"/>
<path class="st2" d="M206.9,18.4h-0.3c-0.5,0-0.8-0.2-0.8-0.6v-0.1c0-0.4,0.2-0.7,0.8-0.7h0.3v-0.8c0-0.5,0.3-0.8,0.8-0.8h0.1
	c0.5,0,0.8,0.2,0.8,0.8V17h1c0.5,0,0.7,0.2,0.7,0.6v0.1c0,0.4-0.2,0.7-0.7,0.7h-1.1V21c0,0.6,0.2,0.9,0.7,0.9c0.4,0,0.6-0.2,0.8-0.4
	c0.1-0.1,0.4,0.2,0.4,0.7c0,0.6-0.6,1.1-1.6,1.1c-1.4,0-2-0.7-2-2L206.9,18.4L206.9,18.4z"/>
<path class="st2" d="M214.1,16.9c1.8,0,3,1.3,3,3V20c0,0.3-0.1,0.5-0.4,0.5h-4.2c0.1,0.9,0.8,1.4,1.8,1.4c0.9,0,1.4-0.4,1.7-0.9
	c0-0.1,0.8,0.1,0.8,0.8s-0.9,1.4-2.6,1.4c-2,0-3.3-1.2-3.3-3.1C210.9,18.2,212.3,16.9,214.1,16.9z M215.5,19.5
	c-0.1-0.8-0.5-1.4-1.4-1.4c-0.8,0-1.4,0.5-1.5,1.4H215.5z"/>
<path class="st2" d="M218.2,21.2c0.4,0.4,1.1,0.8,2,0.8c0.7,0,1.1-0.2,1.1-0.5c0-0.5-0.5-0.5-1.3-0.7s-2.1-0.5-2.1-1.8
	c0-1.2,1-2,2.5-2c1.6,0,2.5,0.6,2.5,1.3c0,0.5-0.5,0.8-0.5,0.8c-0.4-0.5-1.1-0.8-1.8-0.8s-1,0.2-1,0.6s0.5,0.5,1.3,0.7
	s2.3,0.5,2.3,1.9c0,1.2-1,2-2.7,2c-1.8,0-2.6-0.6-2.6-1.3C217.7,21.4,218.2,21.1,218.2,21.2z"/>
<path class="st2" d="M229.1,16.9c1.9,0,3.2,1.3,3.2,3.2s-1.3,3.2-3.2,3.2s-3.2-1.3-3.2-3.2C225.8,18.1,227.2,16.9,229.1,16.9z
	 M229.1,21.8c1,0,1.7-0.8,1.7-1.8s-0.7-1.8-1.7-1.8s-1.7,0.8-1.7,1.8C227.3,21,228,21.8,229.1,21.8z"/>
<path class="st2" d="M233.3,17.1c0-0.1,0.3-0.2,0.7-0.2s0.9,0.2,1,1c0.4-0.6,1-1.1,2-1.1c1.6,0,2.3,1.1,2.3,2.5v2.9
	c0,0.7-0.3,0.8-0.8,0.8h-0.2c-0.5,0-0.8-0.2-0.8-0.8v-2.6c0-0.8-0.4-1.3-1.1-1.3c-0.6,0-1.1,0.3-1.4,0.8v3.1c0,0.7-0.3,0.8-0.8,0.8
	H234c-0.5,0-0.8-0.2-0.8-0.8L233.3,17.1L233.3,17.1L233.3,17.1z"/>
<path class="st2" d="M243.2,18.4h-0.3c-0.5,0-0.8-0.2-0.8-0.6v-0.1c0-0.4,0.2-0.7,0.8-0.7h0.3v-0.8c0-0.5,0.3-0.8,0.8-0.8h0.1
	c0.5,0,0.8,0.2,0.8,0.8V17h1c0.5,0,0.7,0.2,0.7,0.6v0.1c0,0.4-0.2,0.7-0.7,0.7h-1.1V21c0,0.6,0.2,0.9,0.7,0.9c0.4,0,0.6-0.2,0.8-0.4
	c0.1-0.1,0.4,0.2,0.4,0.7c0,0.6-0.6,1.1-1.6,1.1c-1.4,0-2-0.7-2-2L243.2,18.4L243.2,18.4z"/>
<path class="st2" d="M247.6,14.6c0-0.1,0.3-0.2,0.7-0.2c0.5,0,1.1,0.3,1.1,1.4v2.1c0.4-0.7,1-1.1,2-1.1c1.6,0,2.3,1.2,2.3,2.6v2.9
	c0,0.7-0.3,0.8-0.8,0.8h-0.2c-0.5,0-0.8-0.2-0.8-0.8v-2.6c0-0.8-0.4-1.4-1.1-1.4c-0.8,0-1.4,0.5-1.4,1.4v2.5c0,0.7-0.3,0.8-0.8,0.8
	h-0.2c-0.5,0-0.8-0.2-0.8-0.8v-7.7C247.5,14.6,247.6,14.6,247.6,14.6z"/>
<path class="st2" d="M257.7,16.9c1.8,0,3,1.3,3,3V20c0,0.3-0.1,0.5-0.4,0.5h-4.2c0.1,0.9,0.8,1.4,1.8,1.4s1.4-0.4,1.7-0.9
	c0-0.1,0.8,0.1,0.8,0.8s-0.9,1.4-2.6,1.4c-2,0-3.3-1.2-3.3-3.1C254.5,18.2,255.9,16.9,257.7,16.9z M259.1,19.5
	c-0.1-0.8-0.5-1.4-1.4-1.4c-0.8,0-1.4,0.5-1.5,1.4H259.1z"/>
<path class="st2" d="M129.3,29.6c0-0.7,0.4-1,0.9-1h2.1c2.1,0,3.3,0.9,3.3,2.7c0,1.8-1.1,2.7-3.3,2.7h-1.2v1.8
	c0,0.5-0.3,0.8-0.8,0.8H130c-0.5,0-0.8-0.3-0.8-0.8L129.3,29.6L129.3,29.6z M132.4,32.6c1,0,1.5-0.5,1.5-1.3c0-0.8-0.5-1.3-1.5-1.3
	h-1.2v2.6C131.1,32.6,132.4,32.6,132.4,32.6z"/>
<path class="st2" d="M139.4,30.3c1.9,0,3.2,1.3,3.2,3.2c0,1.9-1.3,3.2-3.2,3.2s-3.2-1.3-3.2-3.2C136.1,31.7,137.5,30.3,139.4,30.3z
	 M139.4,35.3c1,0,1.7-0.8,1.7-1.8s-0.7-1.8-1.7-1.8s-1.7,0.8-1.7,1.8C137.7,34.6,138.4,35.3,139.4,35.3z"/>
<path class="st2" d="M143,30.9c-0.1-0.1,0.5-0.5,1.1-0.5c0.3,0,0.8,0.2,0.8,0.8l0.8,3.6l1-3.1c0.1-0.4,0.4-0.5,0.9-0.5
	s0.8,0.2,0.9,0.5l0.9,3.1l0.8-3.6c0.1-0.5,0.5-0.8,0.8-0.8c0.5,0,1.1,0.4,1,0.5l-1.5,5.2c-0.1,0.4-0.5,0.5-0.9,0.5
	c-0.6,0-0.8-0.1-1-0.6l-1-3.1l-1,3.1c-0.1,0.5-0.4,0.6-1,0.6c-0.4,0-0.8-0.1-0.9-0.5L143,30.9z"/>
<path class="st2" d="M155.7,30.3c1.8,0,3,1.3,3,3v0.1c0,0.3-0.1,0.5-0.4,0.5h-4.2c0.1,0.9,0.8,1.4,1.8,1.4c0.9,0,1.4-0.4,1.7-0.9
	c0-0.1,0.8,0.1,0.8,0.8s-0.9,1.4-2.6,1.4c-2,0-3.3-1.2-3.3-3.1C152.5,31.7,153.8,30.3,155.7,30.3z M157.1,33
	c-0.1-0.8-0.5-1.4-1.4-1.4c-0.8,0-1.4,0.5-1.5,1.4H157.1z"/>
<path class="st2" d="M159.7,30.6c0-0.1,0.3-0.2,0.7-0.2c0.5,0,0.9,0.2,1.1,1c0.2-0.7,0.8-1.1,1.5-1.1s1.1,0.4,1.1,1
	c0,0.7-0.5,0.9-0.5,0.9c-0.2-0.2-0.5-0.3-0.8-0.3c-0.8,0-1.2,0.8-1.2,2v1.8c0,0.7-0.3,0.8-0.8,0.8h-0.2c-0.5,0-0.8-0.2-0.8-0.8
	L159.7,30.6L159.7,30.6z"/>
<path class="st2" d="M164.9,34.6c0.4,0.4,1.1,0.8,2,0.8c0.7,0,1.1-0.2,1.1-0.5c0-0.5-0.5-0.5-1.3-0.7s-2.1-0.5-2.1-1.8
	c0-1.2,1-2,2.5-2c1.6,0,2.5,0.6,2.5,1.3c0,0.5-0.5,0.8-0.5,0.8c-0.4-0.5-1.1-0.8-1.8-0.8s-1,0.2-1,0.6c0,0.4,0.5,0.5,1.3,0.7
	s2.3,0.5,2.3,1.9c0,1.2-1,2-2.7,2c-1.8,0-2.6-0.6-2.6-1.3C164.4,35,164.9,34.6,164.9,34.6z"/>
<path class="st2" d="M170.7,28.1c0-0.1,0.3-0.2,0.7-0.2c0.5,0,1.1,0.3,1.1,1.4v2.1c0.4-0.7,1-1.1,2-1.1c1.6,0,2.3,1.2,2.3,2.6v2.9
	c0,0.7-0.3,0.8-0.8,0.8h-0.2c-0.5,0-0.8-0.2-0.8-0.8v-2.6c0-0.8-0.4-1.4-1.1-1.4c-0.8,0-1.4,0.5-1.4,1.4v2.5c0,0.7-0.3,0.8-0.8,0.8
	h-0.2c-0.5,0-0.8-0.2-0.8-0.8V28C170.6,28.1,170.7,28.1,170.7,28.1z"/>
<path class="st2" d="M180.9,30.3c1.9,0,3.2,1.3,3.2,3.2c0,1.9-1.3,3.2-3.3,3.2c-1.9,0-3.2-1.3-3.2-3.2
	C177.7,31.7,179,30.3,180.9,30.3z M180.9,35.3c1,0,1.7-0.8,1.7-1.8s-0.7-1.8-1.7-1.8s-1.7,0.8-1.7,1.8
	C179.2,34.6,179.9,35.3,180.9,35.3z"/>
<path class="st2" d="M185.2,30.6c0-0.1,0.3-0.2,0.7-0.2c0.5,0,0.9,0.2,1.1,1c0.4-0.7,1.1-1.1,2-1.1c1.6,0,2.8,1.2,2.8,3.2
	c0,1.9-1.2,3.2-2.9,3.2c-0.9,0-1.6-0.5-1.9-1.1v2.5c0,0.7-0.3,0.8-0.8,0.8H186c-0.5,0-0.8-0.2-0.8-0.8V30.6L185.2,30.6z M188.5,35.3
	c0.9,0,1.5-0.7,1.5-1.8c0-1-0.7-1.8-1.5-1.8s-1.3,0.4-1.5,1v1.2C186.9,34.7,187.6,35.3,188.5,35.3z"/>
<path class="st2" d="M194.8,30.6c0-0.1,0.3-0.2,0.7-0.2c0.5,0,0.9,0.2,1.1,1c0.2-0.7,0.8-1.1,1.5-1.1s1.1,0.4,1.1,1
	c0,0.7-0.5,0.9-0.5,0.9c-0.2-0.2-0.5-0.3-0.8-0.3c-0.8,0-1.2,0.8-1.2,2v1.8c0,0.7-0.3,0.8-0.8,0.8h-0.2c-0.5,0-0.8-0.2-0.8-0.8
	L194.8,30.6L194.8,30.6z"/>
<path class="st2" d="M199.9,28.6c0-0.5,0.4-0.9,1-0.9s1,0.3,1,0.9c0,0.5-0.4,0.9-1,0.9C200.3,29.5,199.9,29.1,199.9,28.6z M200,31.3
	c0-0.7,0.3-0.8,0.8-0.8h0.2c0.5,0,0.8,0.2,0.8,0.8v4.5c0,0.7-0.3,0.8-0.8,0.8h-0.2c-0.5,0-0.8-0.2-0.8-0.8V31.3L200,31.3z"/>
<path class="st2" d="M205.6,30.3c0.9,0,1.6,0.4,1.9,0.9v-3.1c0-0.1,0.3-0.2,0.7-0.2c0.5,0,1.1,0.3,1.1,1.4v6.4
	c0,0.7-0.3,0.8-0.8,0.8h-0.2c-0.5,0-0.8-0.2-0.8-0.8v-0.2c-0.4,0.7-1.1,1.2-2,1.2c-1.6,0-2.8-1.3-2.8-3.2
	C202.8,31.6,204,30.3,205.6,30.3z M206,35.3c0.8,0,1.5-0.5,1.5-1.4v-1.2c-0.3-0.6-0.8-1-1.5-1c-0.9,0-1.6,0.7-1.6,1.8
	C204.5,34.6,205.2,35.3,206,35.3z"/>
<path class="st2" d="M213.5,30.3c1.8,0,3,1.3,3,3v0.1c0,0.3-0.1,0.5-0.4,0.5h-4.2c0.1,0.9,0.8,1.4,1.8,1.4s1.4-0.4,1.7-0.9
	c0-0.1,0.8,0.1,0.8,0.8s-0.9,1.4-2.6,1.4c-2,0-3.3-1.2-3.3-3.1C210.3,31.7,211.7,30.3,213.5,30.3z M214.9,33
	c-0.1-0.8-0.5-1.4-1.4-1.4c-0.8,0-1.4,0.5-1.5,1.4H214.9z"/>
<path class="st2" d="M220.1,31.9h-0.3c-0.5,0-0.8-0.2-0.8-0.6v-0.1c0-0.4,0.2-0.7,0.8-0.7h0.3v-0.8c0-0.5,0.3-0.8,0.8-0.8h0.1
	c0.5,0,0.8,0.2,0.8,0.8v0.8h1c0.5,0,0.7,0.2,0.7,0.6v0.1c0,0.4-0.2,0.7-0.7,0.7h-1.1v2.6c0,0.6,0.2,0.9,0.7,0.9
	c0.4,0,0.6-0.2,0.8-0.4c0.1-0.1,0.4,0.2,0.4,0.7c0,0.6-0.6,1.1-1.6,1.1c-1.4,0-2-0.7-2-2L220.1,31.9L220.1,31.9z"/>
<path class="st2" d="M227.4,30.3c1.9,0,3.2,1.3,3.2,3.2c0,1.9-1.3,3.2-3.2,3.2s-3.2-1.3-3.2-3.2C224.1,31.7,225.5,30.3,227.4,30.3z
	 M227.4,35.3c1,0,1.7-0.8,1.7-1.8s-0.7-1.8-1.7-1.8s-1.7,0.8-1.7,1.8C225.7,34.6,226.4,35.3,227.4,35.3z"/>
<path class="st2" d="M233.6,29c-0.1-0.1,0.4-0.5,1.1-0.5c0.4,0,0.9,0.2,1,1l1,4.8l1.2-4.2c0.1-0.5,0.5-0.8,1.1-0.8
	c0.5,0,0.9,0.3,1,0.8l1.2,4.2l1-4.8c0.1-0.7,0.5-1,1-1c0.7,0,1.1,0.5,1,0.5l-1.9,6.9c-0.1,0.5-0.5,0.7-1.1,0.7s-1-0.2-1.1-0.7
	l-1.3-4.3l-1.3,4.3c-0.1,0.5-0.5,0.7-1.1,0.7c-0.7,0-1-0.2-1.1-0.7L233.6,29z"/>
<path class="st2" d="M245.7,29.3c0-0.5,0.3-0.8,0.8-0.8h0.2c0.5,0,0.8,0.3,0.8,0.8v6.5c0,0.5-0.3,0.8-0.8,0.8h-0.2
	c-0.5,0-0.8-0.3-0.8-0.8V29.3z"/>
<path class="st2" d="M249.1,29.3c0-0.5,0.3-0.9,0.8-0.9h0.2c0.5,0,0.7,0.2,0.9,0.5l3.5,4.8v-4.5c0-0.5,0.3-0.8,0.8-0.8h0.2
	c0.5,0,0.8,0.3,0.8,0.8v6.4c0,0.6-0.3,0.9-0.8,0.9h-0.1c-0.5,0-0.6-0.1-0.9-0.4l-3.6-4.9v4.6c0,0.5-0.3,0.8-0.8,0.8h-0.2
	c-0.5,0-0.8-0.3-0.8-0.8L249.1,29.3L249.1,29.3z"/>
<path class="st2" d="M258.2,33.5l-0.5-4c-0.1-0.7,0.2-1.1,0.8-1.1h0.3c0.7,0,1,0.4,0.9,1.1l-0.5,4c-0.1,0.4-0.2,0.5-0.5,0.5h-0.2
	C258.4,34.1,258.2,33.9,258.2,33.5z M257.8,35.7c0-0.5,0.3-0.8,0.8-0.8h0.2c0.5,0,0.8,0.3,0.8,0.8v0.2c0,0.5-0.3,0.8-0.8,0.8h-0.2
	c-0.5,0-0.8-0.3-0.8-0.8V35.7L257.8,35.7z"/>
<g id="Specs">
</g>
<g>
	<path class="st2" d="M614.2-69.9c0-1.9,1.1-3,2.8-3h8.2c5.4,0,8.3,2.2,8.3,6.1c0,2.7-1.5,4.3-4.3,5.1c3.5,0.8,5.2,3,5.2,5.9
		c0,4.6-2.9,6.8-9.6,6.8H617c-1.8,0-2.8-1.1-2.8-3V-69.9z M623.9-62.9c2.5,0,4-1.1,4-3.1c0-2-1.3-2.9-4-2.9h-4.3v6H623.9z
		 M624.2-53.2c3.2,0,4.6-1,4.6-3.2c0-2.1-1.5-3.1-4.6-3.1h-4.7v6.3H624.2z"/>
	<path class="st2" d="M637.4-66.7c0-0.1,0.9-0.6,2-0.6c1.4,0,2.8,0.6,3.2,3.1c0.7-2.1,2.2-3.3,4.4-3.3c2.1,0,3.3,1.2,3.3,3
		c0,2.1-1.6,2.8-1.7,2.7c-0.6-0.5-1.4-0.9-2.4-0.9c-2.5,0-3.6,2.2-3.6,5.8v5.4c0,1.9-1,2.5-2.3,2.5h-0.6c-1.4,0-2.4-0.6-2.4-2.5
		V-66.7z"/>
	<path class="st2" d="M652.5-72.7c0-1.6,1.1-2.6,2.9-2.6s2.9,1,2.9,2.6s-1.1,2.6-2.9,2.6S652.5-71,652.5-72.7z M652.8-64.8
		c0-1.9,1-2.5,2.3-2.5h0.6c1.4,0,2.3,0.6,2.3,2.5v13.3c0,1.9-1,2.5-2.3,2.5h-0.6c-1.4,0-2.4-0.6-2.4-2.5V-64.8z"/>
	<path class="st2" d="M662.1-66.7c0-0.1,0.9-0.6,2-0.6c1.3,0,2.8,0.6,3.1,2.9c1.3-1.8,3.1-3.2,5.9-3.2c4.7,0,6.7,3.3,6.7,7.4v8.6
		c0,1.9-1,2.5-2.3,2.5h-0.6c-1.4,0-2.4-0.6-2.4-2.5v-7.8c0-2.4-1.2-3.9-3.3-3.9c-1.8,0-3.2,1-4,2.4v9.3c0,1.9-1,2.5-2.3,2.5h-0.6
		c-1.4,0-2.4-0.6-2.4-2.5V-66.7z"/>
	<path class="st2" d="M686.9-51c-0.4-0.4-0.6-1-0.6-1.7c0-0.8,0.5-1.6,1.2-2.1c-3.1-0.9-4.9-3.1-4.9-5.9c0-3.9,3.4-6.8,8.2-6.8
		c1.4,0,2.7,0.3,3.9,0.8l0.8-1.5c0.7-1.3,1.4-1.8,2.6-1.8c1.8,0,2.6,2.1,2.5,2.2l-3.1,3c1,1.1,1.6,2.5,1.6,4c0,3.8-3.2,6.4-8.2,6.4
		h-0.3c-0.1,0.1-0.1,0.3-0.1,0.4c0,1,1.7,1.1,4.6,1.8c2.5,0.7,5.2,2.1,5.2,5.1c0,3.5-3.6,5.7-9.7,5.7c-6.4,0-9.3-1.6-9.3-5
		C681.3-48.9,683.6-50.5,686.9-51z M690.7-44.6c3,0,4.6-0.8,4.6-2.2c0-1.5-2.3-1.7-4.7-2.3c-2.6,0.2-4.4,1-4.4,2.5
		C686.3-45.4,687.7-44.6,690.7-44.6z M694.2-60.7c0-2-1.4-3.3-3.5-3.3c-2,0-3.4,1.3-3.4,3.3s1.4,3.4,3.4,3.4
		C692.8-57.4,694.2-58.7,694.2-60.7z"/>
	<path class="st2" d="M707-65.7c-0.1-0.3,1.3-1.5,2.8-1.5c1.2,0,2.3,0.6,2.9,2.6l3.9,10.3l3.5-10.2c0.6-2,1.7-2.6,2.9-2.6
		c1.5,0,2.9,1.2,2.8,1.5l-8.2,21.2c-0.8,2-1.8,2.5-2.9,2.5c-1.5,0-2.9-1.2-2.8-1.4l3-6.8c-0.8-0.1-1.4-0.4-1.7-1.2L707-65.7z"/>
	<path class="st2" d="M736.2-67.5c5.7,0,9.6,3.9,9.6,9.5s-3.9,9.4-9.6,9.4c-5.7,0-9.6-3.8-9.6-9.5C726.5-63.6,730.5-67.5,736.2-67.5
		z M736.1-52.7c2.9,0,5-2.2,5-5.3c0-3.1-2.1-5.4-5-5.4s-5,2.2-5,5.3C731.1-55,733.2-52.7,736.1-52.7z"/>
	<path class="st2" d="M748.5-64.8c0-1.9,1-2.5,2.3-2.5h0.6c1.4,0,2.4,0.6,2.4,2.5v7.9c0,2.4,1.2,3.9,3.4,3.9c1.7,0,3.1-1,3.9-2.4
		v-9.4c0-1.9,1-2.5,2.3-2.5h0.5c1.4,0,2.4,0.6,2.4,2.5v15.2c0,0.2-0.9,0.6-2,0.6c-1.3,0-2.7-0.6-3.1-2.8c-1.3,1.8-3.1,3.2-5.9,3.2
		c-4.7,0-6.7-3.3-6.7-7.4V-64.8z"/>
	<path class="st2" d="M770.1-66.7c0-0.1,0.9-0.6,2-0.6c1.4,0,2.8,0.6,3.2,3.1c0.7-2.1,2.2-3.3,4.4-3.3c2.1,0,3.3,1.2,3.3,3
		c0,2.1-1.6,2.8-1.7,2.7c-0.6-0.5-1.4-0.9-2.4-0.9c-2.5,0-3.6,2.2-3.6,5.8v5.4c0,1.9-1,2.5-2.3,2.5h-0.6c-1.4,0-2.4-0.6-2.4-2.5
		V-66.7z"/>
	<path class="st2" d="M791.6-66.7c0-0.1,0.9-0.6,2-0.6c1.3,0,2.8,0.6,3.1,2.9c1.2-1.8,3-3.1,5.6-3.1c3,0,4.9,1.4,5.7,3.7
		c1.2-2.1,3.1-3.7,6.1-3.7c4.6,0,6.5,2.9,6.5,7.1v8.9c0,1.9-1,2.5-2.3,2.5h-0.6c-1.4,0-2.4-0.6-2.4-2.5v-8.1c0-2.4-1.1-3.6-3.1-3.6
		c-1.5,0-2.8,0.9-3.6,2.2v9.5c0,1.9-0.9,2.5-2.3,2.5h-0.5c-1.4,0-2.4-0.6-2.4-2.5v-7.9c0-2.5-1-3.8-3.1-3.8c-1.5,0-2.8,0.9-3.6,2.2
		v9.5c0,1.9-1,2.5-2.3,2.5H794c-1.4,0-2.4-0.6-2.4-2.5V-66.7z"/>
	<path class="st2" d="M834.9-60h0.6c0-2.3-1.3-3.6-3.7-3.6c-2.5,0-3.8,1.4-4.5,2.8c0,0.1-3.3,0.2-3.3-2.2c0-2.2,2.6-4.5,8.1-4.5
		c5.7,0,8.5,2.6,8.5,7.4v10.6c0,0.3-1,0.6-2,0.6c-1.7,0-2.8-0.9-3.1-2.8c-1.3,1.9-3.6,3-6.2,3c-3.8,0-6-2.1-6-5.2
		C823.3-58,827-59.9,834.9-60z M831.1-52.1c2.6,0,4.4-1.7,4.4-4v-1l-1,0c-4.1,0.1-6.2,0.9-6.2,2.9C828.3-52.9,829.4-52.1,831.1-52.1
		z"/>
	<path class="st2" d="M845.6-63h-0.9c-1.5,0-2.2-0.6-2.2-1.8v-0.3c0-1.3,0.7-1.9,2.2-1.9h0.9v-2.3c0-1.7,0.9-2.5,2.4-2.5h0.4
		c1.4,0,2.3,0.6,2.3,2.5v2.3h3.1c1.5,0,2.1,0.6,2.1,1.8v0.3c0,1.3-0.7,1.9-2.1,1.9h-3.2v7.7c0,1.8,0.6,2.6,2,2.6
		c1.1,0,1.8-0.5,2.3-1.2c0.1-0.1,1.3,0.6,1.3,2c0,1.8-1.8,3.3-4.7,3.3c-4,0-5.8-2.1-5.8-6.1V-63z"/>
	<path class="st2" d="M866.8-67.5c5.3,0,8.9,3.7,8.9,9v0.4c0,0.9-0.3,1.4-1.3,1.4h-12.4c0.4,2.7,2.4,4.3,5.2,4.3
		c2.7,0,4.2-1.2,5.1-2.6c0-0.1,2.5,0.3,2.5,2.3c0,2-2.8,4.1-7.8,4.1c-5.9,0-9.7-3.6-9.7-9.3C857.4-63.4,861.4-67.5,866.8-67.5z
		 M871-59.7c-0.1-2.5-1.7-4.2-4.2-4.2c-2.4,0-4.3,1.7-4.6,4.2H871z"/>
	<path class="st2" d="M879-54.7c1.3,1.3,3.3,2.4,5.9,2.4c2,0,3.2-0.6,3.2-1.7c0-1.4-1.4-1.6-3.9-2.1c-2.5-0.6-6.3-1.4-6.3-5.4
		c0-3.5,2.9-5.8,7.5-5.8c4.9,0,7.3,1.8,7.3,3.8c0,1.4-1.6,2.3-1.7,2.2c-1.2-1.4-3.2-2.4-5.3-2.4c-2,0-3.1,0.6-3.1,1.8
		c0,1.3,1.4,1.5,3.8,2c2.5,0.6,6.6,1.4,6.6,5.5c0,3.6-3,5.8-7.9,5.8c-5.3,0-7.8-1.8-7.8-3.9C877.4-53.9,878.9-54.9,879-54.7z"/>
	<path class="st2" d="M911.1-67.5c5.7,0,9.6,3.9,9.6,9.5s-3.9,9.4-9.6,9.4c-5.7,0-9.6-3.8-9.6-9.5C901.5-63.6,905.4-67.5,911.1-67.5
		z M911.1-52.7c2.9,0,5-2.2,5-5.3c0-3.1-2.1-5.4-5-5.4s-5,2.2-5,5.3C906.1-55,908.2-52.7,911.1-52.7z"/>
	<path class="st2" d="M923.7-66.7c0-0.1,0.9-0.6,2-0.6c1.3,0,2.8,0.6,3.1,2.9c1.3-1.8,3.1-3.2,5.9-3.2c4.7,0,6.7,3.3,6.7,7.4v8.6
		c0,1.9-1,2.5-2.3,2.5h-0.6c-1.4,0-2.4-0.6-2.4-2.5v-7.8c0-2.4-1.2-3.9-3.3-3.9c-1.8,0-3.2,1-4,2.4v9.3c0,1.9-1,2.5-2.3,2.5H926
		c-1.4,0-2.4-0.6-2.4-2.5V-66.7z"/>
	<path class="st2" d="M952.9-63H952c-1.5,0-2.2-0.6-2.2-1.8v-0.3c0-1.3,0.7-1.9,2.2-1.9h0.9v-2.3c0-1.7,0.9-2.5,2.4-2.5h0.4
		c1.4,0,2.3,0.6,2.3,2.5v2.3h3.1c1.5,0,2.1,0.6,2.1,1.8v0.3c0,1.3-0.7,1.9-2.1,1.9h-3.2v7.7c0,1.8,0.6,2.6,2,2.6
		c1.1,0,1.8-0.5,2.3-1.2c0.1-0.1,1.3,0.6,1.3,2c0,1.8-1.8,3.3-4.7,3.3c-4,0-5.8-2.1-5.8-6.1V-63z"/>
	<path class="st2" d="M966.1-74.1c0-0.2,0.9-0.6,2-0.6c1.5,0,3.2,0.8,3.2,4.2v6.3c1.1-1.9,3-3.3,5.8-3.3c4.7,0,6.7,3.4,6.7,7.6v8.5
		c0,1.9-1,2.5-2.3,2.5h-0.6c-1.4,0-2.4-0.6-2.4-2.5v-7.7c0-2.5-1.3-4-3.3-4c-2.5,0-4,1.6-4,4.2v7.5c0,1.9-1,2.5-2.3,2.5h-0.6
		c-1.4,0-2.4-0.6-2.4-2.5V-74.1z"/>
	<path class="st2" d="M995.9-67.5c5.3,0,8.9,3.7,8.9,9v0.4c0,0.9-0.3,1.4-1.3,1.4h-12.4c0.4,2.7,2.4,4.3,5.2,4.3
		c2.7,0,4.2-1.2,5.1-2.6c0-0.1,2.5,0.3,2.5,2.3c0,2-2.8,4.1-7.8,4.1c-5.9,0-9.7-3.6-9.7-9.3C986.5-63.4,990.5-67.5,995.9-67.5z
		 M1000-59.7c-0.1-2.5-1.7-4.2-4.2-4.2c-2.4,0-4.3,1.7-4.6,4.2H1000z"/>
	<path class="st2" d="M615.9-29.9c0-1.9,1.1-3,2.8-3h6.2c6.3,0,9.8,2.8,9.8,8.1c0,5.3-3.3,8-9.8,8h-3.6v5.4c0,1.5-0.8,2.5-2.4,2.5
		h-0.8c-1.4,0-2.3-0.8-2.3-2.5V-29.9z M624.9-20.9c3,0,4.6-1.4,4.6-3.9s-1.6-3.9-4.6-3.9h-3.6v7.8H624.9z"/>
	<path class="st2" d="M645.7-27.4c5.7,0,9.6,3.9,9.6,9.5s-3.9,9.4-9.6,9.4c-5.7,0-9.6-3.8-9.6-9.5C636.1-23.6,640-27.4,645.7-27.4z
		 M645.7-12.7c2.9,0,5-2.2,5-5.3c0-3.1-2.1-5.4-5-5.4s-5,2.2-5,5.3C640.6-14.9,642.8-12.7,645.7-12.7z"/>
	<path class="st2" d="M656.6-25.7c-0.1-0.3,1.7-1.5,3.2-1.5c1,0,2.2,0.5,2.5,2.3l2.2,10.7l2.9-9.3c0.3-1.1,1.3-1.7,2.8-1.7
		s2.4,0.6,2.7,1.7l2.7,9.1l2.2-10.5c0.3-1.7,1.4-2.3,2.4-2.3c1.5,0,3.2,1.3,3.1,1.5l-4.6,15.3c-0.3,1.2-1.5,1.5-2.8,1.5
		c-1.8,0-2.5-0.3-3-1.8l-2.9-9.1l-2.9,9.1c-0.4,1.4-1.2,1.8-3,1.8c-1.3,0-2.4-0.3-2.8-1.5L656.6-25.7z"/>
	<path class="st2" d="M693.9-27.4c5.3,0,8.9,3.7,8.9,9v0.4c0,0.9-0.3,1.4-1.3,1.4h-12.4c0.4,2.7,2.4,4.3,5.2,4.3
		c2.7,0,4.2-1.2,5.1-2.6c0-0.1,2.5,0.3,2.5,2.3c0,2-2.8,4.1-7.8,4.1c-5.9,0-9.7-3.6-9.7-9.3C684.5-23.4,688.5-27.4,693.9-27.4z
		 M698.1-19.7c-0.1-2.5-1.7-4.2-4.2-4.2c-2.4,0-4.3,1.7-4.6,4.2H698.1z"/>
	<path class="st2" d="M705.7-26.6c0-0.1,0.9-0.6,2-0.6c1.4,0,2.8,0.6,3.2,3.1c0.7-2.1,2.2-3.3,4.4-3.3c2.1,0,3.3,1.2,3.3,3
		c0,2.1-1.6,2.8-1.7,2.7c-0.6-0.5-1.4-0.9-2.4-0.9c-2.5,0-3.6,2.2-3.6,5.8v5.4c0,1.9-1,2.5-2.3,2.5h-0.6c-1.4,0-2.4-0.6-2.4-2.5
		V-26.6z"/>
	<path class="st2" d="M721.4-14.7c1.3,1.3,3.3,2.4,5.9,2.4c2,0,3.2-0.6,3.2-1.7c0-1.4-1.4-1.6-3.9-2.1c-2.5-0.6-6.3-1.4-6.3-5.4
		c0-3.5,2.9-5.8,7.5-5.8c4.9,0,7.3,1.8,7.3,3.8c0,1.4-1.6,2.3-1.7,2.2c-1.2-1.4-3.2-2.4-5.3-2.4c-2,0-3.1,0.6-3.1,1.8
		c0,1.3,1.4,1.5,3.8,2c2.5,0.6,6.6,1.4,6.6,5.5c0,3.6-3,5.8-7.9,5.8c-5.3,0-7.8-1.8-7.8-3.9C719.8-13.9,721.3-14.8,721.4-14.7z"/>
	<path class="st2" d="M738.6-34c0-0.2,0.9-0.6,2-0.6c1.5,0,3.2,0.8,3.2,4.2v6.3c1.1-1.9,3-3.3,5.8-3.3c4.7,0,6.7,3.4,6.7,7.6v8.5
		c0,1.9-1,2.5-2.3,2.5h-0.6c-1.4,0-2.4-0.6-2.4-2.5v-7.7c0-2.5-1.3-4-3.3-4c-2.5,0-4,1.6-4,4.2v7.5c0,1.9-1,2.5-2.3,2.5h-0.6
		c-1.4,0-2.4-0.6-2.4-2.5V-34z"/>
	<path class="st2" d="M768.6-27.4c5.7,0,9.6,3.9,9.6,9.5s-3.9,9.4-9.6,9.4c-5.7,0-9.6-3.8-9.6-9.5C759-23.6,762.9-27.4,768.6-27.4z
		 M768.6-12.7c2.9,0,5-2.2,5-5.3c0-3.1-2.1-5.4-5-5.4s-5,2.2-5,5.3C763.6-14.9,765.7-12.7,768.6-12.7z"/>
	<path class="st2" d="M781.2-26.6c0-0.1,0.9-0.6,2-0.6c1.4,0,2.8,0.7,3.2,3.1c1.1-2.1,3.2-3.3,5.9-3.3c4.9,0,8.3,3.6,8.3,9.4
		c0,5.6-3.4,9.5-8.4,9.5c-2.8,0-4.8-1.5-5.7-3.3v7.5c0,1.9-1,2.5-2.3,2.5h-0.6c-1.4,0-2.4-0.6-2.4-2.5V-26.6z M790.8-12.7
		c2.8,0,4.6-2.1,4.6-5.3c0-3.1-1.9-5.3-4.6-5.3c-2.2,0-3.8,1.1-4.5,2.9v3.5C786.4-14.4,788.4-12.7,790.8-12.7z"/>
	<path class="st2" d="M809.7-26.6c0-0.1,0.9-0.6,2-0.6c1.4,0,2.8,0.6,3.2,3.1c0.7-2.1,2.2-3.3,4.4-3.3c2.1,0,3.3,1.2,3.3,3
		c0,2.1-1.6,2.8-1.7,2.7c-0.6-0.5-1.4-0.9-2.4-0.9c-2.5,0-3.6,2.2-3.6,5.8v5.4c0,1.9-1,2.5-2.3,2.5H812c-1.4,0-2.4-0.6-2.4-2.5
		V-26.6z"/>
	<path class="st2" d="M824.8-32.6c0-1.6,1.1-2.6,2.9-2.6s2.9,1,2.9,2.6c0,1.7-1.1,2.6-2.9,2.6S824.8-31,824.8-32.6z M825.1-24.7
		c0-1.9,1-2.5,2.3-2.5h0.6c1.4,0,2.3,0.6,2.3,2.5v13.3c0,1.9-1,2.5-2.3,2.5h-0.6c-1.4,0-2.4-0.6-2.4-2.5V-24.7z"/>
	<path class="st2" d="M841.8-27.4c2.6,0,4.7,1.2,5.7,2.7V-34c0-0.2,0.9-0.6,2-0.6c1.5,0,3.2,0.8,3.2,4.2v19.1c0,1.9-1,2.5-2.3,2.5
		h-0.6c-1.4,0-2.4-0.6-2.4-2.5V-12c-1.2,2.1-3.2,3.4-5.8,3.4c-4.9,0-8.3-3.8-8.3-9.4C833.4-23.7,836.8-27.4,841.8-27.4z M843-12.7
		c2.5,0,4.5-1.7,4.5-4.3v-3.4c-0.8-1.8-2.3-2.9-4.5-2.9c-2.8,0-4.7,2.1-4.7,5.3C838.4-14.9,840.3-12.7,843-12.7z"/>
	<path class="st2" d="M865-27.4c5.3,0,8.9,3.7,8.9,9v0.4c0,0.9-0.3,1.4-1.3,1.4h-12.4c0.4,2.7,2.4,4.3,5.2,4.3
		c2.7,0,4.2-1.2,5.1-2.6c0-0.1,2.5,0.3,2.5,2.3c0,2-2.8,4.1-7.8,4.1c-5.9,0-9.7-3.6-9.7-9.3C855.7-23.4,859.6-27.4,865-27.4z
		 M869.2-19.7c-0.1-2.5-1.7-4.2-4.2-4.2c-2.4,0-4.3,1.7-4.6,4.2H869.2z"/>
	<path class="st2" d="M884.7-23h-0.9c-1.5,0-2.2-0.6-2.2-1.8v-0.3c0-1.3,0.7-1.9,2.2-1.9h0.9v-2.3c0-1.7,0.9-2.5,2.4-2.5h0.4
		c1.4,0,2.3,0.6,2.3,2.5v2.3h3.1c1.5,0,2.1,0.6,2.1,1.8v0.3c0,1.3-0.7,1.9-2.1,1.9h-3.2v7.7c0,1.8,0.6,2.6,2,2.6
		c1.1,0,1.8-0.5,2.3-1.2c0.1-0.1,1.3,0.6,1.3,2c0,1.8-1.8,3.3-4.7,3.3c-4,0-5.8-2.1-5.8-6.1V-23z"/>
	<path class="st2" d="M906.2-27.4c5.7,0,9.6,3.9,9.6,9.5s-3.9,9.4-9.6,9.4c-5.7,0-9.6-3.8-9.6-9.5C896.6-23.6,900.5-27.4,906.2-27.4
		z M906.2-12.7c2.9,0,5-2.2,5-5.3c0-3.1-2.1-5.4-5-5.4s-5,2.2-5,5.3C901.2-14.9,903.3-12.7,906.2-12.7z"/>
	<path class="st2" d="M924.5-31.3c-0.1-0.3,1.1-1.7,3.3-1.7c1.2,0,2.6,0.7,3,3l3,14.2l3.6-12.4c0.4-1.4,1.5-2.2,3.2-2.2
		c1.7,0,2.8,0.8,3.1,2.2l3.6,12.4l3.1-14.2c0.4-2.1,1.6-2.9,3-2.9c2.1,0,3.2,1.5,3.1,1.7l-5.5,20.4c-0.4,1.6-1.4,2.1-3.3,2.1
		c-1.8,0-2.9-0.5-3.3-2.1l-3.8-12.9l-3.9,12.9c-0.4,1.5-1.5,2.1-3.3,2.1c-1.9,0-2.9-0.5-3.3-2.1L924.5-31.3z"/>
	<path class="st2" d="M960.5-30.6c0-1.7,0.8-2.5,2.3-2.5h0.7c1.6,0,2.4,0.8,2.4,2.5v19.2c0,1.6-0.8,2.5-2.4,2.5h-0.7
		c-1.5,0-2.3-0.8-2.3-2.5V-30.6z"/>
	<path class="st2" d="M970.5-30.3c0-1.7,0.9-2.7,2.4-2.7h0.7c1.4,0,1.9,0.5,2.8,1.5l10.3,14.2v-13.2c0-1.6,0.8-2.5,2.3-2.5h0.5
		c1.5,0,2.3,0.8,2.3,2.5v19c0,1.8-0.9,2.7-2.3,2.7h-0.4c-1.4,0-1.8-0.4-2.6-1.3L975.6-25v13.6c0,1.6-0.8,2.5-2.4,2.5h-0.5
		c-1.5,0-2.2-0.8-2.2-2.5V-30.3z"/>
	<path class="st2" d="M997.3-18.1l-1.4-11.8c-0.4-2.1,0.7-3.3,2.5-3.3h0.9c2,0,3.1,1.2,2.6,3.3l-1.4,11.8c-0.3,1.1-0.6,1.7-1.4,1.7
		h-0.6C997.9-16.5,997.6-17,997.3-18.1z M996.1-11.7c0-1.6,0.8-2.4,2.5-2.4h0.6c1.7,0,2.5,0.8,2.5,2.4v0.5c0,1.6-0.8,2.4-2.5,2.4
		h-0.6c-1.6,0-2.5-0.8-2.5-2.4V-11.7z"/>
</g>
<g>
	<path class="st3" d="M263.2,60.1c0-0.5,0.4-0.9,0.9-0.9c0.1,0,0.1,0,0.2,0c-0.2-0.1-0.3-0.2-0.6-0.2c-0.5,0-0.9,0.4-0.9,0.9
		c0,0.4,0.3,0.7,0.7,0.8C263.3,60.5,263.2,60.3,263.2,60.1z"/>
	<path class="st4" d="M211.9,102.3c-0.4,0-0.7-0.2-0.9-0.5c-0.4-0.5-0.2-1.2,0.3-1.6c13-9.2,18.9-20.1,19-20.2
		c0.3-0.6,1-0.8,1.6-0.5c0.6,0.3,0.8,1,0.5,1.6c-0.2,0.5-6.2,11.6-19.7,21C212.4,102.3,212.1,102.3,211.9,102.3z"/>
	<polygon class="st5" points="130.7,84.1 121.2,75.7 117.3,80.2 126.7,88.5 	"/>
	<polygon class="st2" points="129.2,84.3 128.4,83.6 126.3,84.7 127.3,85.3 125.6,86.2 128.7,85.7 127.8,84.9 	"/>
	<polygon class="st2" points="121.3,77.3 122.1,78.1 121.2,80.3 120.5,79.4 119.8,81.2 119.9,78 120.8,78.8 	"/>
	
		<ellipse transform="matrix(0.999 -4.453134e-02 4.453134e-02 0.999 -3.5329 5.6039)" class="st6" cx="124" cy="82.1" rx="2.4" ry="2.4"/>
	<path class="st2" d="M123.2,80.7c0.6,0.5,0.7,1.1,0.3,1.6c-0.5,0.5-1.2,0.5-1.8-0.1c-0.6-0.6-0.8-1.1-0.6-1.4
		c0.2-0.2,0.6-0.1,0.6-0.1c0,0.4,0.2,0.7,0.4,0.9c0.3,0.2,0.5,0.3,0.7,0.1c0.2-0.2,0.1-0.4-0.2-0.7c-0.2-0.2-0.4-0.2-0.6-0.3
		c-0.3-0.3-0.3-0.5-0.1-0.8l0.6-0.7c0.2-0.3,0.5-0.3,0.7-0.1l1.2,1c0.3,0.2,0.3,0.4,0.1,0.6l0,0c-0.2,0.2-0.4,0.2-0.6,0l-0.9-0.8
		l-0.3,0.4C122.9,80.5,123.1,80.6,123.2,80.7z"/>
	<path class="st2" d="M124,82.2l0.2-0.2c0.6-0.7,1.5-0.8,2.2-0.2c0.7,0.6,0.8,1.5,0.1,2.2l-0.2,0.2c-0.6,0.7-1.5,0.8-2.2,0.2
		C123.3,83.7,123.3,82.9,124,82.2z M125.4,83.6l0.3-0.4c0.3-0.3,0.3-0.6,0.1-0.8c-0.3-0.2-0.5-0.2-0.8,0.2l-0.3,0.4
		c-0.3,0.3-0.3,0.6-0.1,0.8C124.9,84,125.2,83.9,125.4,83.6z"/>
	<polygon class="st5" points="128.9,84.7 116.7,81.5 115.2,87.2 127.3,90.5 	"/>
	<polygon class="st2" points="127.7,85.5 126.6,85.3 125.3,87.2 126.4,87.3 125.3,88.9 127.9,87 126.8,86.8 	"/>
	<polygon class="st2" points="117.5,82.9 118.5,83.2 118.7,85.6 117.7,85.1 117.8,87 116.5,84.1 117.7,84.4 	"/>
	<ellipse transform="matrix(0.8717 -0.49 0.49 0.8717 -26.4547 70.8233)" class="st6" cx="122" cy="85.9" rx="2.4" ry="2.4"/>
	<path class="st2" d="M120.7,85.1c0.8,0.2,1.1,0.7,1,1.4c-0.2,0.7-0.8,1-1.7,0.7c-0.8-0.2-1.2-0.6-1.1-1c0.1-0.3,0.5-0.4,0.5-0.4
		c0.2,0.3,0.5,0.5,0.8,0.6c0.3,0.1,0.6,0,0.6-0.3c0.1-0.3-0.1-0.4-0.4-0.5c-0.3-0.1-0.5,0-0.6,0c-0.4-0.1-0.5-0.3-0.4-0.7l0.2-0.9
		c0.1-0.4,0.3-0.5,0.6-0.4l1.5,0.4c0.3,0.1,0.5,0.2,0.4,0.5l0,0c-0.1,0.3-0.2,0.3-0.6,0.3l-1.2-0.3l-0.1,0.5
		C120.3,85,120.5,85,120.7,85.1z"/>
	<path class="st2" d="M122,86l0.1-0.3c0.2-0.9,1-1.4,1.9-1.2c0.9,0.2,1.3,1,1.1,1.9l-0.1,0.3c-0.2,0.9-1,1.4-1.9,1.2
		C122.2,87.7,121.8,87,122,86z M124,86.6l0.1-0.5c0.1-0.4,0-0.7-0.3-0.8c-0.3-0.1-0.6,0.1-0.7,0.5l-0.1,0.5c-0.1,0.4,0,0.7,0.3,0.8
		C123.7,87.2,123.9,87,124,86.6z"/>
	<path class="st4" d="M120.8,102.3c-0.4,0-0.8-0.2-1-0.6c-0.3-0.6-0.1-1.3,0.4-1.6c14.1-8,18.8-19.9,18.8-20
		c0.2-0.6,0.9-0.9,1.5-0.7c0.6,0.2,0.9,0.9,0.7,1.5c-0.2,0.5-5,12.8-19.8,21.2C121.2,102.3,121,102.3,120.8,102.3z"/>
	<path class="st6" d="M141.4,80.6l-2.8,5.6l-2.3-1.1l2.8-5.6c0.3-0.6,1.1-0.9,1.7-0.6h0C141.4,79.2,141.7,80,141.4,80.6z"/>
	
		<rect x="138.1" y="81.9" transform="matrix(-0.4456 0.8952 -0.8952 -0.4456 274.9326 -3.8471)" class="st5" width="1.2" height="2.5"/>
	
		<rect x="136.3" y="84.8" transform="matrix(-0.8952 -0.4456 0.4456 -0.8952 222.8593 222.9701)" class="st5" width="2.8" height="1"/>
	<path class="st5" d="M186.1,130.2c0.3,0,0.6,0.2,0.7,0.4l3.5,6.5c0.2,0.4,0.1,0.9-0.3,1.1c-0.4,0.2-0.9,0.1-1.1-0.3l-3.5-6.5
		c-0.2-0.4-0.1-0.9,0.3-1.1C185.8,130.2,185.9,130.2,186.1,130.2z"/>
	<rect x="227.9" y="126" transform="matrix(0.9672 -0.2541 0.2541 0.9672 -25.0053 62.269)" class="st4" width="1.3" height="3.9"/>
	<path class="st7" d="M255,152.1c-4,0-7.8-1.6-10.7-4.4s-4.4-6.6-4.4-10.7c0-4,1.6-7.8,4.4-10.7c2.8-2.8,6.6-4.4,10.7-4.4
		s7.8,1.6,10.7,4.4c2.8,2.8,4.4,6.6,4.4,10.7s-1.6,7.8-4.4,10.7S259,152.1,255,152.1z M255,124.3c-3.4,0-6.6,1.3-9,3.7
		c-2.4,2.4-3.7,5.6-3.7,9c0,3.4,1.3,6.6,3.7,9c2.4,2.4,5.6,3.7,9,3.7c3.4,0,6.6-1.3,9-3.7c2.4-2.4,3.7-5.6,3.7-9
		c0-3.4-1.3-6.6-3.7-9C261.6,125.7,258.4,124.3,255,124.3z"/>
	<g>
		<path class="st3" d="M246.5,126.2c4-3.1,9-4,13.3-2.7c-4.5-1.6-9.7-0.9-13.7,2.2c-4,3.1-5.9,8-5.5,12.7
			C240.5,133.9,242.6,129.3,246.5,126.2z"/>
		<path class="st3" d="M269.3,135.7c0.1,4.5-1.9,9.1-5.9,12.2c-4,3.1-9,4-13.3,2.7c4.5,1.6,9.7,0.9,13.7-2.2
			C267.9,145.3,269.8,140.4,269.3,135.7z"/>
	</g>
	<path class="st8" d="M211.7,113.3c-0.6,0-1.1-0.5-1.1-1.1v-8.9h-2.2c-0.6,0-1.1-0.5-1.1-1.1s0.5-1.1,1.1-1.1h3.3
		c0.6,0,1.1,0.5,1.1,1.1v10C212.8,112.8,212.3,113.3,211.7,113.3z"/>
	<path class="st8" d="M260.2,115.8l-10.4,0l2.9-3.4c0.1-0.2,0-0.4-0.2-0.4h-12.1l1.4-5.7c0.1-0.6-0.1-1.2-0.7-1.3
		c-0.6-0.2-1.3,0.2-1.4,0.8l-1.5,6.2h-34.7v2.2h34.1l-5.3,22.2H222c-0.5,0-10.7-0.6-13.3-6.9c-1-2.4-2.4-4.5-4.1-6.3
		c-0.4-0.4-0.7-0.7-1.1-1.1v3.1c1.3,1.5,2.4,3.2,3.2,5.1c0.8,1.8,2.1,3.4,3.9,4.7c0.7,0.5,1.5,1,2.4,1.4h-9.5v2.2h29.7c0,0,0,0,0,0
		l0,0h22.5c0.4,0,0.7-0.2,0.9-0.5c0.2-0.3,0.2-0.7,0-1.1l-15.8-22.7h7.4l-2.8,3.4c-0.1,0.2,0,0.4,0.3,0.4l14.5-1.9
		C260.4,116.1,260.3,115.8,260.2,115.8z M253.9,136.4h-19.3l4.8-20.3L253.9,136.4z"/>
	<path class="st9" d="M217.6,108l1.2-1.8c0.1-0.2,0-0.4-0.2-0.4h-8.7l0,0h-2.5c-0.6,0-1.1-0.4-1.3-1c-0.2-0.8,0.5-1.5,1.2-1.5h1
		c0.5,0,1-0.4,1.1-0.9c0.1-0.7-0.4-1.3-1.1-1.3h-0.9c-1.8,0-3.4,1.4-3.5,3.2c-0.1,2,1.4,3.7,3.4,3.7h2h4.5h0.6l-1.2,1.7
		c-0.1,0.2,0,0.4,0.3,0.4l7.9-1.9c0.2,0,0.1-0.3,0-0.3L217.6,108z"/>
	<rect x="210.6" y="111.3" class="st9" width="2.2" height="0.7"/>
	<path class="st6" d="M243.4,104.2c-0.1,0-0.2,0-0.3,0v0l-8,1.2c-0.8,0.1-1.4,0.8-1.4,1.6c0,0.9,0.7,1.6,1.6,1.6l8.1,0
		c1.2,0,2.2-1,2.2-2.2C245.6,105.2,244.6,104.2,243.4,104.2z"/>
	<pattern  id="SVGID_1_" xlink:href="#New_Pattern_Swatch_4" patternTransform="matrix(0.1404 0 0 0.1404 -6797.3916 -7176.8486)">
	</pattern>
	<path class="st10" d="M243.4,104.2c-0.1,0-0.2,0-0.3,0v0l-8,1.2c-0.8,0.1-1.4,0.8-1.4,1.6c0,0.9,0.7,1.6,1.6,1.6h8.1
		c1.2,0,2.2-1,2.2-2.2C245.6,105.2,244.7,104.2,243.4,104.2z"/>
	<path class="st11" d="M191,136.4l3.9-16.6c0.9,0.2,2.3,0.7,3.9,1.6c1.6,0.9,3,2,4.2,3.3c0.2,0.2,0.3,0.3,0.5,0.5v-3.1
		c-1.1-1-2.3-1.8-3.6-2.6c-1.8-1-3.4-1.6-4.5-1.8l0.8-3.5h7.2V112h-6.7l1.3-5.6c0.1-0.6-0.2-0.4-0.7-0.5c-0.6-0.2-1.3-0.5-1.4,0.2
		l-1.4,6h-35.4v2.2H194l-5.3,22.2h-10.3c-0.5,0-10.7-0.6-13.3-6.9c-1-2.4-2.4-4.5-4.1-6.3c-0.6-0.6-1.2-1.2-1.8-1.7v2.9
		c0.1,0.1,0.2,0.2,0.2,0.2c1.5,1.6,2.8,3.5,3.6,5.6c0.8,1.8,2.1,3.4,3.9,4.7c0.7,0.5,1.5,1,2.4,1.4h-10.2v2.2h30.4l0,0l0,0h13.9
		v-2.2H191z"/>
	<path class="st6" d="M199.8,104.2c-0.1,0-0.2,0-0.3,0v0l-8,1.2c-0.8,0.1-1.4,0.8-1.4,1.6c0,0.9,0.7,1.6,1.6,1.6h8.1
		c1.2,0,2.2-1,2.2-2.2C202,105.2,201,104.2,199.8,104.2z"/>
	<circle class="st6" cx="189.6" cy="137.4" r="3.2"/>
	<path class="st7" d="M189.6,141.7c-2.4,0-4.3-1.9-4.3-4.3c0-2.4,1.9-4.3,4.3-4.3s4.3,1.9,4.3,4.3
		C193.9,139.8,191.9,141.7,189.6,141.7z M189.6,135.4c-1.2,0-2.1,0.9-2.1,2.1c0,1.2,0.9,2.1,2.1,2.1c1.2,0,2.1-0.9,2.1-2.1
		C191.7,136.3,190.7,135.4,189.6,135.4z"/>
	<path class="st5" d="M227,132.2c0.3-0.1,0.6-0.1,0.8,0.1l5.8,4.5c0.3,0.3,0.4,0.8,0.1,1.1c-0.3,0.3-0.8,0.4-1.1,0.1l-5.8-4.5
		c-0.3-0.3-0.4-0.8-0.1-1.1C226.8,132.3,226.9,132.3,227,132.2z"/>
	<circle class="st6" cx="233.2" cy="137.4" r="2.4"/>
	<path class="st7" d="M233.2,141.7c-2.4,0-4.3-1.9-4.3-4.3c0-2.4,1.9-4.3,4.3-4.3s4.3,1.9,4.3,4.3
		C237.5,139.8,235.6,141.7,233.2,141.7z M233.2,135.4c-1.2,0-2.1,0.9-2.1,2.1c0,1.2,0.9,2.1,2.1,2.1c1.2,0,2.1-0.9,2.1-2.1
		C235.3,136.3,234.4,135.4,233.2,135.4z"/>
	<path class="st5" d="M239.4,142.7c-0.3,0.1-0.6,0.1-0.8-0.1l-5.8-4.5c-0.3-0.3-0.4-0.8-0.1-1.1c0.3-0.3,0.8-0.4,1.1-0.1l5.8,4.5
		c0.3,0.3,0.4,0.8,0.1,1.1C239.6,142.6,239.5,142.6,239.4,142.7z"/>
	<path class="st5" d="M193.1,144.7c-0.3,0-0.6-0.2-0.7-0.4l-3.5-6.5c-0.2-0.4-0.1-0.9,0.3-1.1c0.4-0.2,0.9-0.1,1.1,0.3l3.5,6.5
		c0.2,0.4,0.1,0.9-0.3,1.1C193.3,144.7,193.2,144.7,193.1,144.7z"/>
	<path class="st7" d="M115.1,152.1c-4,0-7.8-1.6-10.7-4.4s-4.4-6.6-4.4-10.7c0-4,1.6-7.8,4.4-10.7c2.8-2.8,6.6-4.4,10.7-4.4
		c4,0,7.8,1.6,10.7,4.4c2.8,2.8,4.4,6.6,4.4,10.7s-1.6,7.8-4.4,10.7C122.9,150.5,119.1,152.1,115.1,152.1z M115.1,124.3
		c-3.4,0-6.6,1.3-9,3.7c-2.4,2.4-3.7,5.6-3.7,9c0,3.4,1.3,6.6,3.7,9c2.4,2.4,5.6,3.7,9,3.7c3.4,0,6.6-1.3,9-3.7
		c2.4-2.4,3.7-5.6,3.7-9c0-3.4-1.3-6.6-3.7-9C121.7,125.7,118.5,124.3,115.1,124.3z"/>
	<g>
		<path class="st3" d="M106.6,126.2c4-3.1,9-4,13.3-2.7c-4.5-1.6-9.7-0.9-13.7,2.2c-4,3.1-5.9,8-5.5,12.7
			C100.6,133.9,102.6,129.3,106.6,126.2z"/>
		<path class="st3" d="M129.4,135.7c0.1,4.5-1.9,9.1-5.9,12.2s-9,4-13.3,2.7c4.5,1.6,9.7,0.9,13.7-2.2
			C128,145.3,129.9,140.4,129.4,135.7z"/>
	</g>
	<path class="st12" d="M120,113.3c-0.6,0-1.1-0.5-1.1-1.1v-8.9h-2.2c-0.6,0-1.1-0.5-1.1-1.1s0.5-1.1,1.1-1.1h3.3
		c0.6,0,1.1,0.5,1.1,1.1v10C121.1,112.8,120.6,113.3,120,113.3z"/>
	<path class="st12" d="M115.1,138.5c-0.3,0-0.7-0.2-0.9-0.5c-0.4-0.5-0.2-1.2,0.2-1.5c1.8-1.3,3.1-4.6,3.9-9.5
		c0.6-3.8,0.6-7.3,0.6-7.3c0-0.6,0.5-1.1,1.1-1.1c0.6,0,1.1,0.5,1.1,1.1c0,0.1,0,3.7-0.6,7.7c-0.9,5.6-2.5,9.2-4.7,10.9
		C115.5,138.5,115.3,138.5,115.1,138.5z"/>
	<path class="st12" d="M144.1,136c-3.3-0.6-8.8-2.2-10.6-6.6c-1-2.4-2.4-4.5-4.1-6.3c-1.4-1.4-3-2.7-4.7-3.7c-1-0.6-2-1-2.8-1.3
		v-4.1h28.5l0.5-2.2h-32c-0.6,0-1.1,0.5-1.1,1.1v5.4c0,0.5,0.4,1,0.9,1.1c0,0,2.3,0.4,5,1.9c1.6,0.9,3,2,4.2,3.2
		c1.5,1.6,2.7,3.5,3.6,5.6c0.8,1.8,2.1,3.4,3.9,4.7c1.4,1,3.1,1.8,5.1,2.4c1.2,0.4,2.3,0.6,3.3,0.8L144.1,136z"/>
	<path class="st12" d="M143.7,138.2c1.7,0.3,2.9,0.3,3,0.4c0,0,0,0,0,0h12.4v-2.2h-11.8l3.9-16.6c0.9,0.2,2.3,0.7,3.9,1.6
		c1.5,0.8,2.8,1.8,4,3v-2.9c-0.9-0.7-1.9-1.4-2.9-2c-1.8-1-3.4-1.6-4.5-1.8l0.8-3.5h6.5V112h-6l1.3-5.6c0.1-0.6-0.1-1.2-0.7-1.3
		c-0.6-0.2-1.3,0.2-1.4,0.8l-1.1,4.7l-1.1,4.6l-0.2,0.7l-4.8,20.3c-0.3,0-0.7-0.1-1-0.2"/>
	<path class="st6" d="M156.2,104.2c-0.1,0-0.2,0-0.3,0v0l-8,1.2c-0.8,0.1-1.4,0.8-1.4,1.6c0,0.9,0.7,1.6,1.6,1.6h8.1
		c1.2,0,2.2-1,2.2-2.2C158.4,105.2,157.4,104.2,156.2,104.2z"/>
	<pattern  id="SVGID_2_" xlink:href="#New_Pattern_Swatch_4" patternTransform="matrix(0.1404 0 0 0.1404 -6798.8369 -7176.8486)">
	</pattern>
	<path class="st13" d="M199.8,104.2c-0.1,0-0.2,0-0.3,0v0l-8,1.2c-0.8,0.1-1.4,0.8-1.4,1.6c0,0.9,0.7,1.6,1.6,1.6h8.1
		c1.2,0,2.2-1,2.2-2.2C202,105.2,201,104.2,199.8,104.2z"/>
	<pattern  id="SVGID_3_" xlink:href="#New_Pattern_Swatch_4" patternTransform="matrix(0.1404 0 0 0.1404 -6802.4077 -7176.8486)">
	</pattern>
	<path class="st14" d="M156.2,104.2c-0.1,0-0.2,0-0.3,0v0l-8,1.2c-0.8,0.1-1.4,0.8-1.4,1.6c0,0.9,0.7,1.6,1.6,1.6h8.1
		c1.2,0,2.2-1,2.2-2.2C158.4,105.2,157.4,104.2,156.2,104.2z"/>
	<rect x="117.4" y="113.8" class="st7" width="0.4" height="4"/>
	<path class="st5" d="M117.8,117.8"/>
	<path class="st7" d="M117.8,113.8v4c0.7,0,1.2-0.9,1.2-2S118.5,113.8,117.8,113.8z"/>
	<path class="st11" d="M125.8,108l1.2-1.8c0.1-0.2,0-0.4-0.2-0.4h-8.7l0,0h-2.5c-0.6,0-1.1-0.4-1.3-1c-0.2-0.8,0.5-1.5,1.2-1.5h1
		c0.5,0,1-0.4,1.1-0.9c0.1-0.7-0.4-1.3-1.1-1.3h-0.9c-1.8,0-3.4,1.4-3.5,3.2c-0.1,2,1.4,3.7,3.4,3.7h2h4.5h0.6l-1.2,1.7
		c-0.1,0.2,0,0.4,0.3,0.4l7.9-1.9c0.2,0,0.1-0.3,0-0.3L125.8,108z"/>
	<path class="st5" d="M117.6,100.1h1.1c0.2,0,0.4-0.2,0.4-0.4v-0.4c0-0.2-0.2-0.4-0.4-0.4h0c-0.2,0-0.4,0.2-0.4,0.4v0.3h-0.7"/>
	<g>
		<polygon class="st5" points="115.7,103.3 115.7,103.3 115.8,103.3 		"/>
		<polygon class="st5" points="115.8,101.2 115.7,101.2 115.7,101.2 		"/>
		<path class="st5" d="M116.4,101.2L116.4,101.2l-0.7,0c0.6,0,1.1,0.5,1.1,1.1c0,0.6-0.5,1.1-1.1,1.1h0.7c0.6,0,1.1-0.5,1.1-1.1
			C117.5,101.7,117,101.2,116.4,101.2z"/>
	</g>
	<path class="st15" d="M116.2,98.5c-0.9,0-1.7,0.8-1.7,1.7h3.4C117.8,99.2,117.1,98.5,116.2,98.5z"/>
	<path class="st5" d="M118,100.7h-3.7c-0.1,0-0.1,0-0.1-0.1v-0.4c0-0.1,0-0.1,0.1-0.1h3.7c0.1,0,0.1,0,0.1,0.1v0.4
		C118.1,100.7,118.1,100.7,118,100.7z"/>
	<rect x="115.8" y="100.7" class="st5" width="0.7" height="0.4"/>
	<g>
		<rect x="118.9" y="111.3" class="st11" width="2.2" height="0.7"/>
		<path class="st11" d="M118.9,119.6l0,0.7l2.2,0.6l0-0.7C120.1,119.9,118.9,119.6,118.9,119.6z"/>
	</g>
	<path class="st11" d="M121.9,114.2h-1.3v3.7c0,0,0.7,0.1,1.3,0.4"/>
	<path class="st16" d="M243.7,102.9C243.6,102.9,243.6,102.9,243.7,102.9c-1.6-0.9-2-2.7-2-2.8c0-0.1,0-0.1,0.1-0.1
		c0.1,0,0.1,0,0.1,0.1c0,0,0.4,1.8,1.9,2.6C243.8,102.7,243.8,102.8,243.7,102.9C243.7,102.8,243.7,102.9,243.7,102.9z"/>
	<path class="st4" d="M243,138.1c-0.1-0.2-1.8-4.6-2.9-11c-1-5.8-1.6-14.4,1.3-22l1.2,0.4c-5.4,14.1,1.5,31.9,1.5,32.1L243,138.1z"
		/>
	<path class="st7" d="M225.5,132.1h4.1c0.2,0,0.3,0.1,0.3,0.3v1c0,0.2-0.1,0.3-0.3,0.3h-4.1c-0.2,0-0.3-0.1-0.3-0.3v-1
		C225.2,132.2,225.3,132.1,225.5,132.1z"/>
	<g>
		<path class="st17" d="M230,128.9c0,0-0.9,0.8-1.5,0.5c-0.6-0.3-0.9-0.4-0.9-0.4s-0.3,0.5-0.9,0.6c-0.6,0.1-3.8,0.4-4.3,1
			c-0.5,0.5-0.5,1.2-0.5,1.2l8.4-0.1C230.2,131.6,230.2,129.2,230,128.9z"/>
		<path class="st18" d="M230.2,131.6l-8.4,0.1c0,0-0.3,0,0.1,0.3l8.4,0L230.2,131.6z"/>
	</g>
	<path class="st7" d="M263.7,58.7c-0.7,0-1.2,0.5-1.2,1.2c0,0.3,0.1,0.5,0.3,0.7c-1.6,3.4-4,9.6-5.2,14.8c-1,4.6-1.8,9.8-2.4,15.6
		c-1,9.8-1,17.8-1,17.9c0,0.4-0.3,0.8-0.8,0.8h-11.1l0-0.2c0-0.2,0-0.3-0.1-0.4c-0.1-0.1-0.2-0.2-0.4-0.2h-3.1
		c-0.2,0-0.4,0.2-0.5,0.4l-0.4,1.7c0,0.2,0,0.3,0.1,0.4c0.1,0.1,0.2,0.2,0.4,0.2h3.1c0.2,0,0.4-0.2,0.5-0.4l0.1-0.4h11.4
		c1,0,1.8-0.8,1.8-1.8c0-0.1,0-8.1,1-17.8c0.6-5.7,1.4-10.9,2.4-15.5c1.1-5.1,3.5-11.2,5.1-14.6c0,0,0,0,0,0c0.7,0,1.2-0.5,1.2-1.2
		S264.4,58.7,263.7,58.7z"/>
	<rect x="186.4" y="124" transform="matrix(0.9672 -0.2541 0.2541 0.9672 -25.876 51.6501)" class="st4" width="1.3" height="3.9"/>
	<path class="st19" d="M215.2,117.2l-1-1.2l3-1.2c0,0,1.1,0.6,1,1.4L215.2,117.2z"/>
	<path class="st5" d="M188.4,127c0,0-0.9,0.8-1.5,0.5c-0.6-0.3-0.9-0.4-0.9-0.4s-0.3,0.5-0.9,0.6c-0.6,0.1-3.8,0.4-4.3,1
		c-0.5,0.5-0.5,1.2-0.5,1.2l8.4-0.1C188.7,129.7,188.7,127.3,188.4,127z"/>
	<path class="st20" d="M241.7,119.2c0.2-3.4,1-6.7,1.9-10c0.9-3.4,1.4-7.4,1.4-10.4c-3.7,0-7.8,0.1-11.5,0.1c0,0.9-0.1,1.7-0.3,2.5
		c-0.2,0.8-0.6,1.5-1.1,2.2c-1,1.3-2.4,2.2-3.5,3.3c-1.3,1.3-2.3,2.8-2.9,4.5c-0.9,2.6-0.6,5.4-0.1,8.1c0.5,2.4,1.2,4.8,1.6,7.2
		c0,0.2,0,0.5,0.1,0.7c0.1,0.1,0.4,0,0.5,0c0.5-0.1,1-0.2,1.6-0.2c-0.3-2.3-0.7-4.5-1-6.8c-0.4-2.9-0.9-6.1,0.4-8.8
		c0.8-1.7,2.2-3,3.7-4.1c0.4-0.3,0.8-0.5,1.2-0.8c0.1-0.7,0.7-1.2,1.4-1.3l2.2-0.3v0c0.4-0.1,0.8-0.2,1.2-0.1c0.6,0.1,1.2,0.4,1.5,1
		c0.3,0.6,0.1,1.3-0.1,2c-1.3,4.5-1.6,9.2-1.2,13.9c0.4,4.7,1.5,9.2,2.8,13.7c0.7-0.2,1.5-0.5,2.2-0.7
		C242.6,129.7,241.4,124.5,241.7,119.2z"/>
	<path class="st18" d="M188.7,129.7l-8.4,0.1c0,0-0.3,0,0.1,0.3l8.4,0L188.7,129.7z"/>
	<path class="st7" d="M184.1,130.2h4.1c0.2,0,0.3,0.1,0.3,0.3v1c0,0.2-0.1,0.3-0.3,0.3h-4.1c-0.2,0-0.3-0.1-0.3-0.3v-1
		C183.8,130.3,183.9,130.2,184.1,130.2z"/>
	<path class="st7" d="M191.1,143.2h4.1c0.2,0,0.3,0.1,0.3,0.3v1c0,0.2-0.1,0.3-0.3,0.3h-4.1c-0.2,0-0.3-0.1-0.3-0.3v-1
		C190.8,143.3,191,143.2,191.1,143.2z"/>
	<path class="st7" d="M236.6,142.1l3.9-1.2c0.1,0,0.3,0,0.3,0.2l0.3,0.9c0,0.1,0,0.3-0.2,0.3l-3.9,1.2c-0.1,0-0.3,0-0.3-0.2
		l-0.3-0.9C236.4,142.3,236.5,142.1,236.6,142.1z"/>
	<g>
		<path class="st17" d="M244.2,136.4c0,0-0.7,1-1.3,0.9c-0.6-0.1-1-0.1-1-0.1s-0.1,0.6-0.7,0.9c-0.5,0.3-3.4,1.5-3.8,2.2
			c-0.3,0.6-0.1,1.3-0.1,1.3l8-2.6C245.3,139,244.5,136.7,244.2,136.4z"/>
		<path class="st18" d="M245.3,139l-8,2.6c0,0-0.2,0.1,0.2,0.3l8-2.5L245.3,139z"/>
	</g>
	<path class="st16" d="M242.6,103.5C242.6,103.5,242.6,103.5,242.6,103.5c-1.6-0.9-2-2.7-2-2.8c0-0.1,0-0.1,0.1-0.1
		c0.1,0,0.1,0,0.1,0.1c0,0,0.4,1.8,1.9,2.6C242.7,103.3,242.7,103.4,242.6,103.5C242.7,103.4,242.6,103.5,242.6,103.5z"/>
	
		<rect x="233.9" y="94" transform="matrix(-0.6644 0.7474 -0.7474 -0.6644 461.4951 -16.8245)" class="st21" width="1.2" height="2.4"/>
	
		<rect x="227" y="126.2" transform="matrix(0.9869 -0.1613 0.1613 0.9869 -17.4801 38.4841)" class="st22" width="2.5" height="1.3"/>
	
		<rect x="241.1" y="134.1" transform="matrix(0.9412 -0.338 0.338 0.9412 -31.2467 89.8986)" class="st22" width="2.8" height="1.3"/>
	<path class="st23" d="M233.1,99.7l11.9-0.4c0,0,0.4-12-2.3-21.6c-0.3-1.1-1.4-1.7-2.5-1.5l-8.3,2.2c-1.1,0.3-1.8,1.4-1.5,2.5
		C231.7,86.6,233.2,90.8,233.1,99.7z"/>
	<path class="st24" d="M233,78.2l4-1.1c0.1,0,0.1-0.1,0.1-0.1l-0.1-0.4c0-0.1-0.1-0.1-0.1-0.1l-4,1.1c-0.1,0-0.1,0.1-0.1,0.1
		l0.1,0.4C232.9,78.2,232.9,78.2,233,78.2z"/>
	<path class="st16" d="M233.6,80.6C233.6,80.6,233.6,80.6,233.6,80.6C233.6,80.6,233.6,80.6,233.6,80.6c-0.1-0.1-0.1-0.1,0-0.1
		c0,0,0-0.1,0.1-0.1c0,0,0,0,0.1,0c0,0,0,0,0,0.1C233.7,80.5,233.7,80.5,233.6,80.6C233.7,80.6,233.7,80.6,233.6,80.6
		C233.7,80.6,233.7,80.6,233.6,80.6C233.7,80.6,233.6,80.6,233.6,80.6z M233.6,80.6L233.6,80.6L233.6,80.6z M233.8,80.6
		C233.7,80.6,233.7,80.6,233.8,80.6C233.7,80.5,233.7,80.5,233.8,80.6c0-0.1,0.1-0.2,0.2-0.2c0,0,0,0,0.1,0c0,0,0,0,0,0.1
		C233.9,80.5,233.8,80.5,233.8,80.6C233.8,80.6,233.8,80.6,233.8,80.6z M234.1,80.4C234.1,80.4,234,80.4,234.1,80.4
		C234,80.3,234,80.3,234.1,80.4c0-0.1,0.1-0.2,0.2-0.2c0,0,0,0,0.1,0c0,0,0,0,0,0.1C234.2,80.3,234.1,80.3,234.1,80.4
		C234.1,80.4,234.1,80.4,234.1,80.4z M234.4,80.1C234.4,80.1,234.3,80.1,234.4,80.1C234.3,80.1,234.3,80.1,234.4,80.1
		c0-0.1,0.1-0.2,0.2-0.2c0,0,0,0,0.1,0c0,0,0,0,0,0.1C234.5,80,234.5,80.1,234.4,80.1C234.4,80.1,234.4,80.1,234.4,80.1z
		 M233.7,80.3C233.7,80.3,233.7,80.3,233.7,80.3C233.7,80.3,233.7,80.3,233.7,80.3c0-0.1,0-0.2-0.1-0.3c0,0,0,0,0,0c0,0,0,0,0,0
		C233.8,80.1,233.8,80.2,233.7,80.3C233.7,80.3,233.7,80.3,233.7,80.3z M234.7,79.9C234.7,79.9,234.6,79.9,234.7,79.9
		C234.6,79.9,234.6,79.9,234.7,79.9c0-0.1,0.1-0.2,0.2-0.2c0,0,0,0,0.1,0c0,0,0,0,0,0.1C234.8,79.8,234.8,79.9,234.7,79.9
		C234.7,79.9,234.7,79.9,234.7,79.9z M235,79.7C235,79.7,235,79.7,235,79.7C234.9,79.7,234.9,79.6,235,79.7c0-0.1,0.1-0.2,0.2-0.2
		c0,0,0,0,0.1,0c0,0,0,0,0,0.1C235.1,79.6,235.1,79.7,235,79.7C235,79.7,235,79.7,235,79.7z M235.3,79.5
		C235.3,79.5,235.3,79.5,235.3,79.5C235.3,79.5,235.3,79.4,235.3,79.5c0-0.1,0.1-0.2,0.2-0.2c0,0,0,0,0.1,0c0,0,0,0,0,0.1
		C235.5,79.4,235.4,79.4,235.3,79.5C235.3,79.5,235.3,79.5,235.3,79.5z M233.7,79.9C233.7,79.9,233.7,79.9,233.7,79.9
		C233.7,79.9,233.7,79.9,233.7,79.9c-0.1-0.1-0.1-0.2-0.1-0.3c0,0,0,0,0,0c0,0,0,0,0,0C233.7,79.7,233.7,79.8,233.7,79.9
		C233.7,79.9,233.7,79.9,233.7,79.9z M235.6,79.3C235.6,79.3,235.6,79.3,235.6,79.3C235.6,79.3,235.6,79.2,235.6,79.3
		c0-0.1,0.1-0.1,0.2-0.2c0,0,0,0,0.1,0s0,0,0,0.1C235.8,79.2,235.7,79.3,235.6,79.3C235.6,79.3,235.6,79.3,235.6,79.3z M233.7,79.5
		L233.7,79.5C233.6,79.5,233.6,79.5,233.7,79.5c-0.1-0.1-0.1-0.2-0.1-0.3c0,0,0,0,0,0c0,0,0,0,0,0C233.7,79.3,233.7,79.4,233.7,79.5
		C233.7,79.5,233.7,79.5,233.7,79.5z M233.6,79.2C233.6,79.2,233.6,79.2,233.6,79.2C233.6,79.2,233.6,79.1,233.6,79.2
		c-0.1-0.1-0.1-0.2-0.1-0.3c0,0,0,0,0-0.1c0,0,0,0,0.1,0C233.6,78.9,233.6,79,233.6,79.2C233.6,79.1,233.6,79.1,233.6,79.2z
		 M233.5,78.8L233.5,78.8C233.5,78.8,233.5,78.8,233.5,78.8c-0.1-0.2-0.1-0.3-0.1-0.3c0,0,0,0,0-0.1c0,0,0,0,0.1,0
		C233.5,78.5,233.5,78.6,233.5,78.8C233.6,78.8,233.6,78.8,233.5,78.8z"/>
	<path class="st16" d="M238.5,79.3C238.4,79.3,238.4,79.3,238.5,79.3C238.4,79.3,238.4,79.3,238.5,79.3
		C238.4,79.3,238.4,79.3,238.5,79.3c-0.1-0.1-0.2-0.1-0.2-0.2c0,0,0,0,0-0.1c0,0,0,0,0.1,0c0,0,0.1,0.1,0.1,0.1
		C238.5,79.2,238.5,79.2,238.5,79.3C238.5,79.3,238.5,79.3,238.5,79.3C238.5,79.3,238.5,79.3,238.5,79.3z M238.4,79.3L238.4,79.3
		L238.4,79.3z M238.4,79.2L238.4,79.2L238.4,79.2z M238.3,79.3C238.3,79.3,238.3,79.3,238.3,79.3c-0.1,0-0.1,0-0.2,0c0,0,0,0,0,0
		c0,0,0,0,0,0C238.2,79.2,238.3,79.2,238.3,79.3C238.3,79.2,238.4,79.3,238.3,79.3C238.3,79.3,238.3,79.3,238.3,79.3z M237.9,79.3
		C237.9,79.3,237.9,79.3,237.9,79.3c-0.1,0-0.2,0-0.2,0c0,0,0,0,0,0c0,0,0,0,0,0C237.8,79.2,237.9,79.2,237.9,79.3
		C238,79.2,238,79.2,237.9,79.3C238,79.3,238,79.3,237.9,79.3z M237.6,79.3C237.6,79.3,237.6,79.3,237.6,79.3c-0.1,0-0.2,0-0.2,0
		c0,0,0,0,0,0c0,0,0,0,0,0C237.4,79.2,237.5,79.2,237.6,79.3C237.6,79.2,237.6,79.2,237.6,79.3C237.6,79.2,237.6,79.3,237.6,79.3z
		 M238.2,79.1C238.2,79.1,238.2,79.1,238.2,79.1c-0.1-0.1-0.1-0.1-0.2-0.2c0,0,0,0,0-0.1c0,0,0,0,0.1,0
		C238.1,78.9,238.2,78.9,238.2,79.1C238.2,79,238.2,79,238.2,79.1C238.2,79.1,238.2,79.1,238.2,79.1z M237.2,79.2
		C237.2,79.2,237.2,79.2,237.2,79.2c-0.1,0-0.2,0-0.2,0c0,0,0,0,0,0c0,0,0,0,0,0C237,79.1,237.1,79.1,237.2,79.2
		C237.2,79.2,237.2,79.2,237.2,79.2C237.2,79.2,237.2,79.2,237.2,79.2z M236.8,79.2C236.8,79.2,236.8,79.2,236.8,79.2
		c-0.1,0-0.2,0-0.2,0c0,0,0,0,0,0c0,0,0,0,0,0C236.6,79.1,236.7,79.1,236.8,79.2C236.8,79.1,236.8,79.1,236.8,79.2
		C236.8,79.2,236.8,79.2,236.8,79.2z M236.4,79.2C236.4,79.2,236.4,79.2,236.4,79.2c-0.1,0-0.2,0-0.2,0c0,0,0,0,0,0c0,0,0,0,0,0
		C236.3,79.1,236.3,79.1,236.4,79.2C236.4,79.1,236.5,79.1,236.4,79.2C236.5,79.2,236.4,79.2,236.4,79.2z M238,78.7
		C238,78.7,238,78.7,238,78.7c-0.1-0.1-0.1-0.2-0.1-0.2c0,0,0,0,0-0.1c0,0,0,0,0.1,0C238,78.5,238,78.6,238,78.7
		C238,78.7,238,78.7,238,78.7C238,78.7,238,78.7,238,78.7z M236,79.2C236,79.2,236,79.2,236,79.2c-0.1,0-0.2,0-0.2,0c0,0,0,0-0.1,0
		c0,0,0,0,0-0.1l0,0C235.9,79.1,235.9,79.1,236,79.2C236.1,79.1,236.1,79.1,236,79.2C236.1,79.2,236.1,79.2,236,79.2z M237.9,78.4
		C237.8,78.4,237.8,78.4,237.9,78.4c-0.1-0.1-0.1-0.2-0.1-0.2c0,0,0,0,0-0.1c0,0,0,0,0.1,0C237.8,78.2,237.9,78.3,237.9,78.4
		C237.9,78.3,237.9,78.4,237.9,78.4L237.9,78.4z M237.7,78C237.7,78,237.7,78,237.7,78c-0.1-0.1-0.1-0.2-0.1-0.2c0,0,0,0,0-0.1
		c0,0,0,0,0.1,0C237.7,77.8,237.7,77.9,237.7,78C237.8,78,237.7,78,237.7,78C237.7,78,237.7,78,237.7,78z M237.6,77.7
		C237.6,77.7,237.5,77.7,237.6,77.7c-0.1-0.2-0.1-0.3-0.1-0.3c0,0,0,0,0-0.1c0,0,0,0,0.1,0C237.5,77.4,237.6,77.5,237.6,77.7
		C237.6,77.6,237.6,77.7,237.6,77.7L237.6,77.7z"/>
	<path class="st23" d="M232.2,81.2l-3.4,5.2l-2.1-1.4l3.4-5.2c0.4-0.6,1.2-0.7,1.7-0.4l0,0C232.5,79.8,232.6,80.6,232.2,81.2z"/>
	
		<rect x="226.6" y="84.9" transform="matrix(-0.8342 -0.5515 0.5515 -0.8342 371.0631 282.3235)" class="st25" width="2.8" height="1"/>
	
		<rect x="228.6" y="82.2" transform="matrix(-0.5515 0.8342 -0.8342 -0.5515 425.2661 -61.7753)" class="st25" width="1.2" height="2.4"/>
	<path class="st23" d="M230,80c0,0,0.7-1.2,1.8-1.5l-0.1,1.8l-1.7,1.4"/>
	<path class="st8" d="M210.4,101.2h1.2c0,0,0.8,0,1.1,0.6c0.3,0.8-1.1,0.9-1.1,0.9"/>
	<rect x="235.5" y="75.9" class="st26" width="0.5" height="2.7"/>
	<path class="st16" d="M199.6,102.8C199.6,102.8,199.6,102.8,199.6,102.8c-1.8-0.3-2.8-1.8-2.9-1.9c0,0,0-0.1,0-0.1c0,0,0.1,0,0.1,0
		c0,0,1,1.5,2.7,1.8C199.7,102.6,199.7,102.7,199.6,102.8C199.7,102.8,199.7,102.8,199.6,102.8z"/>
	<path class="st25" d="M235.9,84l-0.8,4.8c0,0.1,0,0.1,0.1,0.1l1.9-0.3c0.1,0,0.1,0,0.1,0.1l-0.4,4.2c0,0.1,0.1,0.1,0.2,0l3.8-7.2
		c0-0.1,0-0.2-0.1-0.1l-1.9,0.4c-0.1,0-0.1,0-0.1-0.1l0.4-2.4c0-0.1,0-0.1-0.1-0.1L235.9,84C236,83.9,235.9,83.9,235.9,84z"/>
	<rect x="139.9" y="126.1" transform="matrix(0.946 -0.324 0.324 0.946 -33.9248 52.4407)" class="st4" width="1.3" height="3.9"/>
	<path class="st5" d="M139.3,132.5c0.2-0.1,0.6-0.1,0.8,0l6.1,4.1c0.4,0.2,0.5,0.7,0.2,1.1c-0.2,0.4-0.7,0.5-1.1,0.2l-6.1-4.1
		c-0.4-0.2-0.5-0.7-0.2-1.1C139.1,132.6,139.2,132.5,139.3,132.5z"/>
	<circle class="st6" cx="146" cy="137.4" r="2.4"/>
	<path class="st7" d="M146,141.7c-2.4,0-4.3-1.9-4.3-4.3c0-2.4,1.9-4.3,4.3-4.3s4.3,1.9,4.3,4.3C150.2,139.8,148.3,141.7,146,141.7z
		 M146,135.4c-1.2,0-2.1,0.9-2.1,2.1c0,1.2,0.9,2.1,2.1,2.1c1.2,0,2.1-0.9,2.1-2.1C148,136.3,147.1,135.4,146,135.4z"/>
	<path class="st5" d="M152.4,142c-0.2,0.1-0.6,0.1-0.8,0l-6.1-4.1c-0.4-0.2-0.5-0.7-0.2-1.1c0.2-0.4,0.7-0.5,1.1-0.2l6.1,4.1
		c0.4,0.2,0.5,0.7,0.2,1.1C152.6,141.9,152.5,142,152.4,142z"/>
	<path class="st16" d="M153.8,102C153.8,102,153.7,102,153.8,102c-1.7-0.8-2.2-2.5-2.2-2.6c0-0.1,0-0.1,0.1-0.1c0.1,0,0.1,0,0.1,0.1
		c0,0,0.5,1.7,2.1,2.5C153.9,101.8,153.9,101.9,153.8,102C153.8,102,153.8,102,153.8,102z"/>
	<path class="st4" d="M155.7,137.2c-0.1-0.2-2.1-4.5-3.7-10.7c-1.4-5.8-2.6-14.3-0.3-22.1l1.2,0.4c-4.3,14.4,3.8,31.7,3.9,31.9
		L155.7,137.2z"/>
	<path class="st7" d="M137.8,132.5l4.1-0.3c0.2,0,0.3,0.1,0.3,0.3l0.1,1c0,0.2-0.1,0.3-0.3,0.3l-4.1,0.3c-0.2,0-0.3-0.1-0.3-0.3
		l-0.1-1C137.5,132.6,137.6,132.5,137.8,132.5z"/>
	<path class="st5" d="M142,128.9c0,0-0.9,0.8-1.5,0.6c-0.6-0.2-0.9-0.4-0.9-0.4s-0.3,0.6-0.9,0.7c-0.6,0.1-3.7,0.7-4.2,1.3
		c-0.5,0.5-0.4,1.2-0.4,1.2l8.4-0.7C142.5,131.7,142.3,129.3,142,128.9z"/>
	<path class="st27" d="M142.5,131.7l-8.4,0.7c0,0-0.3,0,0.1,0.3l8.3-0.6L142.5,131.7z"/>
	<path class="st17" d="M143.3,101.3c-0.2,0.8-0.5,1.6-1,2.3c-0.9,1.3-2.2,2.4-3.3,3.6c-1.2,1.3-2.1,3-2.6,4.7
		c-0.7,2.6-0.2,5.4,0.5,8.1c0.6,2.4,1.5,4.7,2.1,7.1c0,0.2,0,0.5,0.2,0.6c0.1,0.1,0.4,0,0.5,0c0.5-0.1,1-0.2,1.6-0.3
		c-0.5-2.2-1-4.5-1.5-6.7c-0.7-2.9-1.3-6-0.2-8.8c0.7-1.7,2-3.2,3.4-4.3c1.2-1,2.6-1.9,4-2.5c0.6-0.2,1.2-0.5,1.8-0.4
		s1.3,0.3,1.6,0.9c0.3,0.6,0.2,1.3,0,2c-1,4.6-0.9,9.3-0.2,13.9s2.2,9.1,3.8,13.5c0.7-0.3,1.5-0.6,2.2-0.9c-1.6-5-3.2-10.2-3.3-15.5
		c0-3.4,0.5-6.8,1.2-10.1c0.7-3.4,0.8-7.5,0.7-10.5c-3.7,0.3-7.7,0.7-11.4,0.9C143.5,99.6,143.4,100.5,143.3,101.3z"/>
	<rect x="135.2" y="112" class="st12" width="6.1" height="2.2"/>
	<path class="st5" d="M156.7,135.4c0,0-0.6,1.1-1.2,1s-1-0.1-1-0.1s-0.1,0.6-0.6,0.9c-0.5,0.3-3.3,1.8-3.6,2.5s0,1.3,0,1.3l7.8-3.2
		C158,137.9,157.1,135.6,156.7,135.4z"/>
	<path class="st27" d="M158,137.9l-7.8,3.2c0,0-0.2,0.1,0.2,0.3l7.8-3L158,137.9z"/>
	<path class="st16" d="M153.5,101.9C153.5,102,153.5,102,153.5,101.9c-1.8-0.4-2.7-2-2.7-2.1c0-0.1,0-0.1,0-0.1c0.1,0,0.1,0,0.1,0
		c0,0,0.9,1.6,2.5,2C153.6,101.8,153.6,101.8,153.5,101.9C153.6,101.9,153.6,101.9,153.5,101.9z"/>
	
		<rect x="143.5" y="93.8" transform="matrix(-0.608 0.7939 -0.7939 -0.608 307.1439 38.3884)" class="st21" width="1.2" height="2.4"/>
	
		<rect x="138.9" y="126.4" transform="matrix(0.9725 -0.233 0.233 0.9725 -25.7481 36.1452)" class="st17" width="2.5" height="1.3"/>
	
		<rect x="153.6" y="133.2" transform="matrix(0.914 -0.4058 0.4058 0.914 -40.9645 74.4035)" class="st17" width="2.8" height="1.3"/>
	<path class="st6" d="M143,99.6l12.1-1.3c0,0-0.6-12-4.1-21.3c-0.4-1.1-1.6-1.6-2.6-1.3l-8.1,2.8c-1.1,0.4-1.7,1.5-1.3,2.6
		C140.7,86.7,142.5,90.7,143,99.6z"/>
	<path class="st16" d="M142.1,80.6C142.1,80.6,142.1,80.6,142.1,80.6C142.1,80.6,142.1,80.5,142.1,80.6c-0.1-0.1-0.1-0.1,0-0.1
		c0,0,0-0.1,0-0.1c0,0,0,0,0,0c0,0,0,0,0,0C142.2,80.4,142.2,80.4,142.1,80.6C142.2,80.5,142.2,80.5,142.1,80.6
		C142.2,80.5,142.2,80.5,142.1,80.6C142.2,80.5,142.1,80.6,142.1,80.6z M142.1,80.5L142.1,80.5L142.1,80.5z M142.3,80.5
		C142.2,80.5,142.2,80.5,142.3,80.5C142.2,80.5,142.2,80.4,142.3,80.5c0-0.1,0.1-0.2,0.1-0.2c0,0,0,0,0.1,0c0,0,0,0,0,0.1
		C142.4,80.4,142.3,80.4,142.3,80.5C142.3,80.5,142.3,80.5,142.3,80.5z M142.6,80.2C142.5,80.3,142.5,80.3,142.6,80.2
		C142.5,80.2,142.5,80.2,142.6,80.2c0-0.1,0.1-0.2,0.1-0.2c0,0,0,0,0.1,0c0,0,0,0,0,0.1C142.7,80.1,142.6,80.2,142.6,80.2
		C142.6,80.2,142.6,80.2,142.6,80.2z M142.8,80C142.8,80,142.8,80,142.8,80C142.8,80,142.8,79.9,142.8,80c0-0.1,0.1-0.2,0.1-0.2
		c0,0,0,0,0.1,0c0,0,0,0,0,0.1C143,79.9,142.9,79.9,142.8,80C142.9,80,142.9,80,142.8,80z M142.2,80.2
		C142.2,80.2,142.2,80.2,142.2,80.2C142.2,80.2,142.1,80.2,142.2,80.2c-0.1-0.1-0.1-0.2-0.1-0.3c0,0,0,0,0,0c0,0,0,0,0,0
		C142.2,80,142.2,80.1,142.2,80.2C142.2,80.2,142.2,80.2,142.2,80.2z M143.1,79.8C143.1,79.8,143.1,79.8,143.1,79.8
		C143.1,79.7,143.1,79.7,143.1,79.8c0-0.1,0.1-0.2,0.1-0.2c0,0,0,0,0.1,0s0,0,0,0.1C143.3,79.7,143.2,79.7,143.1,79.8
		C143.1,79.8,143.1,79.8,143.1,79.8z M143.4,79.5C143.4,79.5,143.4,79.5,143.4,79.5C143.4,79.5,143.4,79.5,143.4,79.5
		c0-0.1,0.1-0.2,0.1-0.2c0,0,0,0,0.1,0c0,0,0,0,0,0.1C143.6,79.4,143.5,79.5,143.4,79.5C143.4,79.5,143.4,79.5,143.4,79.5z
		 M143.7,79.3C143.7,79.3,143.7,79.3,143.7,79.3C143.7,79.3,143.7,79.2,143.7,79.3c0-0.1,0.1-0.2,0.2-0.2c0,0,0,0,0.1,0
		c0,0,0,0,0,0.1C143.9,79.2,143.8,79.2,143.7,79.3C143.7,79.3,143.7,79.3,143.7,79.3z M142.2,79.8C142.2,79.8,142.2,79.8,142.2,79.8
		C142.1,79.8,142.1,79.8,142.2,79.8c-0.1-0.1-0.1-0.2-0.1-0.3c0,0,0,0,0-0.1c0,0,0,0,0.1,0C142.2,79.6,142.2,79.7,142.2,79.8
		C142.2,79.8,142.2,79.8,142.2,79.8z M144,79.1C144,79.1,144,79.1,144,79.1C144,79,144,79,144,79.1c0-0.1,0.1-0.2,0.2-0.2
		c0,0,0,0,0.1,0c0,0,0,0,0,0.1C144.2,79,144.1,79,144,79.1C144.1,79.1,144.1,79.1,144,79.1z M142.1,79.4L142.1,79.4
		C142.1,79.5,142,79.4,142.1,79.4c-0.1-0.1-0.1-0.2-0.1-0.3c0,0,0,0,0-0.1c0,0,0,0,0.1,0C142.1,79.2,142.1,79.3,142.1,79.4
		C142.1,79.4,142.1,79.4,142.1,79.4z M142,79.1L142,79.1C142,79.1,142,79.1,142,79.1c-0.1-0.1-0.1-0.2-0.1-0.3c0,0,0,0,0-0.1
		c0,0,0,0,0.1,0C142,78.9,142,78.9,142,79.1C142,79,142,79.1,142,79.1z M141.9,78.7L141.9,78.7C141.9,78.7,141.9,78.7,141.9,78.7
		c-0.1-0.2-0.1-0.3-0.1-0.3c0,0,0,0,0-0.1c0,0,0,0,0.1,0C141.9,78.4,141.9,78.5,141.9,78.7C141.9,78.7,141.9,78.7,141.9,78.7z"/>
	<path class="st16" d="M146.9,78.9C146.8,78.9,146.8,78.9,146.9,78.9C146.8,78.9,146.8,78.9,146.9,78.9
		C146.8,78.9,146.8,78.9,146.9,78.9c-0.1-0.1-0.2-0.1-0.2-0.1c0,0,0,0,0-0.1c0,0,0,0,0.1,0c0,0,0.1,0.1,0.1,0.1
		C146.9,78.8,146.9,78.8,146.9,78.9C146.9,78.8,146.9,78.9,146.9,78.9C146.9,78.9,146.9,78.9,146.9,78.9z M146.8,78.9L146.8,78.9
		L146.8,78.9z M146.8,78.8L146.8,78.8L146.8,78.8z M146.7,78.9C146.7,78.9,146.7,78.9,146.7,78.9c-0.1,0-0.1,0-0.2,0c0,0,0,0,0,0
		c0,0,0,0,0,0C146.6,78.8,146.6,78.8,146.7,78.9C146.7,78.8,146.7,78.8,146.7,78.9C146.7,78.9,146.7,78.9,146.7,78.9z M146.3,78.9
		C146.3,78.9,146.3,78.9,146.3,78.9c-0.1,0-0.2,0-0.2,0c0,0,0,0,0,0c0,0,0,0,0,0C146.2,78.8,146.3,78.8,146.3,78.9
		C146.4,78.8,146.4,78.8,146.3,78.9C146.4,78.9,146.4,78.9,146.3,78.9z M146,78.9C146,78.9,146,78.9,146,78.9c-0.1,0-0.2,0-0.2,0
		c0,0,0,0,0,0c0,0,0,0,0,0C145.8,78.8,145.9,78.8,146,78.9C146,78.8,146,78.8,146,78.9C146,78.9,146,78.9,146,78.9z M146.6,78.6
		C146.6,78.7,146.5,78.6,146.6,78.6c-0.1-0.1-0.1-0.1-0.2-0.2c0,0,0,0,0-0.1c0,0,0,0,0.1,0C146.5,78.5,146.6,78.5,146.6,78.6
		C146.6,78.6,146.6,78.6,146.6,78.6C146.6,78.6,146.6,78.6,146.6,78.6z M145.6,78.9C145.6,78.9,145.6,78.9,145.6,78.9
		c-0.1,0-0.2,0-0.2,0c0,0,0,0,0,0s0,0,0,0C145.4,78.8,145.5,78.8,145.6,78.9C145.6,78.8,145.6,78.8,145.6,78.9
		C145.6,78.9,145.6,78.9,145.6,78.9z M145.2,78.9C145.2,78.9,145.2,78.9,145.2,78.9c-0.1,0-0.2,0-0.2,0c0,0,0,0,0,0c0,0,0,0,0,0
		C145,78.8,145.1,78.8,145.2,78.9C145.2,78.8,145.2,78.8,145.2,78.9C145.2,78.9,145.2,78.9,145.2,78.9z M144.8,78.9
		C144.8,78.9,144.8,78.9,144.8,78.9c-0.1,0-0.2,0-0.2,0c0,0,0,0,0,0s0,0,0,0C144.6,78.8,144.7,78.8,144.8,78.9
		C144.8,78.8,144.9,78.8,144.8,78.9C144.9,78.9,144.8,78.9,144.8,78.9z M146.4,78.3C146.4,78.3,146.3,78.3,146.4,78.3
		c-0.1-0.1-0.1-0.2-0.2-0.2c0,0,0,0,0-0.1c0,0,0,0,0.1,0C146.3,78.1,146.4,78.2,146.4,78.3C146.4,78.3,146.4,78.3,146.4,78.3
		C146.4,78.3,146.4,78.3,146.4,78.3z M144.4,78.9C144.4,78.9,144.4,78.9,144.4,78.9c-0.1,0-0.2,0-0.2,0c0,0,0,0-0.1,0c0,0,0,0,0-0.1
		l0,0C144.3,78.9,144.3,78.9,144.4,78.9C144.4,78.9,144.5,78.9,144.4,78.9C144.5,78.9,144.5,78.9,144.4,78.9z M146.2,78
		C146.2,78,146.1,78,146.2,78c-0.1-0.1-0.1-0.2-0.2-0.2c0,0,0,0,0-0.1c0,0,0,0,0.1,0C146.1,77.8,146.2,77.9,146.2,78
		C146.2,78,146.2,78,146.2,78C146.2,78,146.2,78,146.2,78z M146,77.7C146,77.7,146,77.7,146,77.7c-0.1-0.1-0.1-0.2-0.1-0.2
		c0,0,0,0,0-0.1c0,0,0,0,0.1,0C146,77.5,146,77.5,146,77.7C146.1,77.6,146,77.6,146,77.7C146,77.7,146,77.7,146,77.7z M145.9,77.3
		C145.8,77.3,145.8,77.3,145.9,77.3c-0.1-0.2-0.1-0.2-0.1-0.2c0,0,0,0,0-0.1c0,0,0,0,0.1,0C145.8,77,145.8,77.1,145.9,77.3
		C145.9,77.3,145.9,77.3,145.9,77.3C145.9,77.3,145.9,77.3,145.9,77.3z"/>
	<path class="st6" d="M138.7,80.2c0,0,0.5-1.4,1.5-1.7l0,1.8l-1.6,1.6"/>
	<path class="st5" d="M142.6,95.3c0.1,0.4,0.1,0.9,0.2,1.3l12-1.5c0-0.4-0.1-1-0.2-1.4L142.6,95.3z"/>
	<path class="st5" d="M153.9,88.4l-12,2.5c0.1,0.4,0.2,0.9,0.3,1.3l12-2.5C154,89.3,154,88.9,153.9,88.4z"/>
	<path class="st5" d="M152.8,83.3l-12.2,3.2c0.1,0.4,0.3,0.9,0.4,1.3l12.1-3.1C153.1,84.2,152.9,83.7,152.8,83.3z"/>
	<g>
		<path class="st16" d="M147.8,82.4C147.8,82.4,147.7,82.4,147.8,82.4l-0.1-0.1c0,0,0,0,0,0l0.1,0c0,0,0,0,0,0c0,0,0,0,0,0l-0.1,0
			L147.8,82.4C147.8,82.4,147.8,82.4,147.8,82.4z"/>
		<path class="st16" d="M149.3,81.9l-0.2,0.1c0,0,0,0,0,0c0,0,0,0,0,0L149.3,81.9C149.3,81.9,149.3,81.9,149.3,81.9
			C149.3,81.9,149.3,81.9,149.3,81.9z M148.9,82l-0.2,0.1c0,0,0,0,0,0c0,0,0,0,0,0L148.9,82C148.9,82,148.9,82,148.9,82
			C148.9,82,148.9,82,148.9,82z M148.6,82.1l-0.2,0.1c0,0,0,0,0,0s0,0,0,0L148.6,82.1C148.6,82,148.6,82.1,148.6,82.1
			C148.6,82.1,148.6,82.1,148.6,82.1z M148.2,82.2l-0.2,0.1c0,0,0,0,0,0c0,0,0,0,0,0L148.2,82.2C148.2,82.1,148.2,82.1,148.2,82.2
			C148.2,82.2,148.2,82.2,148.2,82.2z"/>
		<path class="st16" d="M149.5,82C149.5,82,149.5,82,149.5,82L149.5,82l-0.1-0.1c0,0,0,0,0,0c0,0,0,0,0,0l0.1,0c0,0,0,0,0,0
			L149.5,82C149.6,82,149.6,82,149.5,82z"/>
		<path class="st16" d="M149.8,86.8c0,0-0.1,0-0.1,0c0,0,0,0,0,0c0,0,0,0,0,0c0.1,0,0.1,0,0.2-0.1c0,0,0,0,0,0c0,0,0,0,0,0
			C149.9,86.8,149.9,86.8,149.8,86.8z M149.6,86.8C149.6,86.8,149.6,86.8,149.6,86.8c-0.1,0-0.2,0-0.2,0c0,0,0,0,0,0c0,0,0,0,0,0
			C149.4,86.8,149.5,86.8,149.6,86.8C149.6,86.8,149.6,86.8,149.6,86.8C149.6,86.8,149.6,86.8,149.6,86.8z M150.1,86.7
			C150.1,86.7,150.1,86.7,150.1,86.7C150,86.7,150,86.7,150.1,86.7c0-0.1,0.1-0.1,0.1-0.2c0,0,0,0,0,0c0,0,0,0,0,0
			C150.2,86.6,150.2,86.7,150.1,86.7C150.1,86.7,150.1,86.7,150.1,86.7z M149.2,86.7C149.2,86.7,149.2,86.7,149.2,86.7
			c-0.1,0-0.2-0.1-0.2-0.1c0,0,0,0,0,0c0,0,0,0,0,0C149.1,86.6,149.1,86.6,149.2,86.7C149.2,86.7,149.2,86.7,149.2,86.7
			C149.2,86.7,149.2,86.7,149.2,86.7z M150.4,86.4C150.4,86.4,150.3,86.4,150.4,86.4C150.3,86.4,150.3,86.4,150.4,86.4
			c0-0.1,0-0.2,0.1-0.2c0,0,0,0,0,0c0,0,0,0,0,0C150.5,86.3,150.4,86.4,150.4,86.4C150.4,86.4,150.4,86.4,150.4,86.4z M148.9,86.5
			C148.9,86.5,148.9,86.5,148.9,86.5c-0.1-0.1-0.1-0.1-0.2-0.2c0,0,0,0,0,0c0,0,0,0,0,0C148.8,86.3,148.9,86.4,148.9,86.5
			C148.9,86.5,148.9,86.5,148.9,86.5C148.9,86.5,148.9,86.5,148.9,86.5z M150.5,86.1C150.5,86.1,150.5,86.1,150.5,86.1
			C150.5,86.1,150.5,86.1,150.5,86.1c0-0.1,0-0.2,0-0.3c0,0,0,0,0,0c0,0,0,0,0,0C150.6,85.9,150.5,86,150.5,86.1
			C150.5,86.1,150.5,86.1,150.5,86.1z M148.7,86.2C148.7,86.2,148.7,86.2,148.7,86.2l-0.1-0.2c0,0,0,0,0,0c0,0,0,0,0,0L148.7,86.2
			C148.8,86.1,148.7,86.2,148.7,86.2z M150.5,85.7C150.5,85.7,150.5,85.7,150.5,85.7l-0.1-0.2c0,0,0,0,0,0c0,0,0,0,0,0L150.5,85.7
			C150.5,85.7,150.5,85.7,150.5,85.7z M148.6,85.8C148.6,85.8,148.6,85.8,148.6,85.8l-0.1-0.2c0,0,0,0,0,0c0,0,0,0,0,0L148.6,85.8
			C148.7,85.8,148.7,85.8,148.6,85.8z M150.4,85.3C150.4,85.3,150.4,85.3,150.4,85.3l-0.1-0.2c0,0,0,0,0,0c0,0,0,0,0,0L150.4,85.3
			C150.4,85.3,150.4,85.3,150.4,85.3z M148.5,85.4C148.5,85.4,148.5,85.4,148.5,85.4l-0.1-0.2c0,0,0,0,0,0c0,0,0,0,0,0L148.5,85.4
			C148.6,85.4,148.6,85.4,148.5,85.4z M150.3,85C150.3,85,150.3,85,150.3,85l-0.1-0.2c0,0,0,0,0,0c0,0,0,0,0,0L150.3,85
			C150.3,84.9,150.3,85,150.3,85z M148.4,85C148.4,85,148.4,85,148.4,85l-0.1-0.2c0,0,0,0,0,0c0,0,0,0,0,0L148.4,85
			C148.5,85,148.5,85,148.4,85z M150.2,84.6C150.2,84.6,150.2,84.6,150.2,84.6l-0.1-0.2c0,0,0,0,0,0s0,0,0,0L150.2,84.6
			C150.2,84.6,150.2,84.6,150.2,84.6z M148.4,84.7C148.3,84.7,148.3,84.7,148.4,84.7l-0.1-0.2c0,0,0,0,0,0c0,0,0,0,0,0L148.4,84.7
			C148.4,84.6,148.4,84.7,148.4,84.7z M150.1,84.2C150.1,84.2,150.1,84.2,150.1,84.2L150,84c0,0,0,0,0,0c0,0,0,0,0,0L150.1,84.2
			C150.1,84.2,150.1,84.2,150.1,84.2z M148.3,84.3C148.2,84.3,148.2,84.3,148.3,84.3l-0.1-0.2c0,0,0,0,0,0c0,0,0,0,0,0L148.3,84.3
			C148.3,84.3,148.3,84.3,148.3,84.3z M150,83.8C150,83.8,150,83.8,150,83.8l-0.1-0.2c0,0,0,0,0,0s0,0,0,0L150,83.8
			C150.1,83.8,150,83.8,150,83.8z M148.2,83.9C148.1,83.9,148.1,83.9,148.2,83.9l-0.1-0.2c0,0,0,0,0,0c0,0,0,0,0,0L148.2,83.9
			C148.2,83.9,148.2,83.9,148.2,83.9z M149.9,83.5C149.9,83.5,149.9,83.5,149.9,83.5l-0.1-0.2c0,0,0,0,0,0c0,0,0,0,0,0L149.9,83.5
			C150,83.4,149.9,83.5,149.9,83.5z M148.1,83.5C148,83.6,148,83.5,148.1,83.5l-0.1-0.2c0,0,0,0,0,0c0,0,0,0,0,0L148.1,83.5
			C148.1,83.5,148.1,83.5,148.1,83.5z M149.8,83.1C149.8,83.1,149.8,83.1,149.8,83.1l-0.1-0.2c0,0,0,0,0,0c0,0,0,0,0,0L149.8,83.1
			C149.9,83.1,149.9,83.1,149.8,83.1z M148,83.2C148,83.2,147.9,83.2,148,83.2l-0.1-0.2c0,0,0,0,0,0c0,0,0,0,0,0L148,83.2
			C148,83.2,148,83.2,148,83.2z M149.7,82.7C149.7,82.7,149.7,82.7,149.7,82.7l-0.1-0.2c0,0,0,0,0,0c0,0,0,0,0,0L149.7,82.7
			C149.8,82.7,149.8,82.7,149.7,82.7z M147.9,82.8C147.9,82.8,147.8,82.8,147.9,82.8l-0.1-0.2c0,0,0,0,0,0c0,0,0,0,0,0L147.9,82.8
			C147.9,82.8,147.9,82.8,147.9,82.8z M149.6,82.3C149.6,82.4,149.6,82.3,149.6,82.3l-0.1-0.2c0,0,0,0,0,0c0,0,0,0,0,0L149.6,82.3
			C149.7,82.3,149.7,82.3,149.6,82.3z"/>
	</g>
	<path class="st5" d="M151.4,78.1L139.2,82c0.1,0.4,0.3,0.9,0.4,1.3l12.1-3.9C151.7,79,151.5,78.5,151.4,78.1z"/>
	<path class="st7" d="M154.5,141.4l-3.8,1.5c-0.1,0.1-0.3,0-0.4-0.2l-0.4-0.9c-0.1-0.1,0-0.3,0.2-0.4l3.8-1.5c0.1-0.1,0.3,0,0.4,0.2
		l0.4,0.9C154.7,141.2,154.6,141.3,154.5,141.4z"/>
	<path class="st24" d="M236,78.5h-2.5v-3.6c0-0.3,0.2-0.5,0.5-0.5h1.6c0.3,0,0.5,0.2,0.5,0.5V78.5z"/>
	<path class="st24" d="M235.2,57.9c3.8,0.2,6.2,2.5,6,4.9l-0.2,4.3l-0.1,2.5l-0.2,3.4c-0.2,3.7-3.1,6.6-6.5,6.5l-0.1,0
		c-3.4-0.2-6.1-3.3-5.9-7l0.2-3.4l0.1-2.5l0.2-4.3C228.9,60.2,231.9,57.8,235.2,57.9z"/>
	<path class="st28" d="M239.8,72.9l0.2-3.4l0.1-2.5l0.2-4.3c0.1-2-2.4-4.3-5.7-4.8c0.2,0,0.5,0,0.7,0c3.8,0.2,6.2,2.5,6,4.9
		l-0.2,4.3l-0.1,2.5l-0.2,3.4c-0.2,3.7-3.1,6.6-6.5,6.5l-0.1,0c-0.2,0-0.4,0-0.7-0.1C236.6,79.2,239.6,77.6,239.8,72.9z"/>
	
		<ellipse transform="matrix(4.700149e-02 -0.9989 0.9989 4.700149e-02 146.6248 295.7444)" class="st29" cx="228.3" cy="71" rx="0.1" ry="0.2"/>
	<g>
		<path class="st30" d="M228.3,72.6c-0.1,3.4,1.2,8.5,1.9,9.3c-0.1-0.4-0.3-2.4,0.1-3.3c0.1,2.1,0.6,3.7,1,4.6
			c-0.1-2.1,0.3-3.5,0.4-4c-0.3,3,1,5.2,1.6,5.5c-0.5-1.9-0.7-3.4-0.5-4.1c0.3,1.7,1.3,2.7,2.4,4.3c-0.5-2.7,0.2-2.5,0.3-4.5
			c0.4,2.1,0.5,3.3,0.3,5.1c0.8-2.2,1-2.8,1.2-4.4c0.2,0.6,0.4,1.7,0.4,2.5c0.6-1.1,0.5-4.1,0.6-4.4c0.4,1.7,0.4,3.2,0.4,3.2
			s2.9-4.4,1.3-10.6c-3.8,2.7-8.2-0.4-10.2-0.3C228.2,71.8,228.3,72.6,228.3,72.6z"/>
		<path class="st31" d="M237.1,73.4c0.7,0.9,0.9,4.1,0.9,5.8c0,1.4-0.1,3.5-0.6,4.5C237.9,79.6,237.1,73.4,237.1,73.4z"/>
		<g>
			<path class="st31" d="M234.6,73.4c-0.2,0.5-1.1,3.4-1,5.3c0.1,2,0.5,4,1.5,6.2C234,78.6,234.8,73.4,234.6,73.4z"/>
		</g>
		<path class="st31" d="M239.2,77.1c-0.3,2.5,0.2,2.1-0.8,5.5c0.2-0.4,1.3-2.6,1.6-4.2c0.3-2.1,0.2-5-0.3-6.4
			C239.8,75.9,239.4,75.2,239.2,77.1z"/>
		<path class="st31" d="M230.6,74.5c0,0-0.4,2.3-0.4,4.4c0.1,2.7,1,4.2,1,4.2s-0.4-1.9-0.5-4.1c-0.1-2.3,0.8-4.8,0.8-4.8L230.6,74.5
			z"/>
		<path class="st31" d="M229,74.5c0,0,0,0.5,0,2.6c0,2.1,1.2,4.8,1.2,4.8s-1.1-4.9-0.2-7.2C229.3,74.6,229,74.5,229,74.5z"/>
		<path class="st31" d="M236.4,74.7c0.7,0.6,1.4,6.8-0.6,10.8C236.8,80.3,236.4,74.7,236.4,74.7z"/>
		<path class="st31" d="M232.1,81.3c0.2,2.5,1.2,3.3,1.2,3.3s-0.4-1.3-0.5-3.6c-0.1-1.5,0.7-3.7,0.4-5.3c-0.3-2-1-3-1-3
			s0.2,1.4,0.3,4C232.6,78,232,79.9,232.1,81.3z"/>
		<path class="st31" d="M235.4,73.3c0.2,2.3,0.1,7.3-0.4,8.8C235.6,77.4,234.2,76.6,235.4,73.3z"/>
		<path class="st31" d="M238.2,73.4c0,0,0.1,1.1,0.2,2.3s0,3.3,0,3.3s0.7-2,0.5-3.7S238.2,73.4,238.2,73.4z"/>
	</g>
	
		<ellipse transform="matrix(4.700149e-02 -0.9989 0.9989 4.700149e-02 150.0799 293.4766)" class="st32" cx="228.8" cy="68.1" rx="0.5" ry="0.4"/>
	<path class="st24" d="M230,67c-0.1,0.4-0.6,1-1.5,2.5c-0.2,0.3-1.4,1.4,0.5,1.6c0.7,0.1,1.3-0.1,1.6-0.2c0.1-0.1,0.2-0.2,0.1-0.3
		c-0.2-0.2-0.7-0.8-0.5-1.5C230.2,68.5,230.4,67.6,230,67z"/>
	<path class="st28" d="M230.2,67.4c0,0-0.4,1.4-0.4,1.9c-0.1,0.5,0.1,0.7,0.3,0.9c0.2,0.3,0.2,0.9,0.2,0.9s0.5-0.4,0.1-1.2
		C229.9,68.9,230.1,68.1,230.2,67.4z"/>
	
		<ellipse transform="matrix(4.700149e-02 -0.9989 0.9989 4.700149e-02 148.0709 297.2166)" class="st29" cx="229.8" cy="71" rx="0.1" ry="0.2"/>
	
		<ellipse transform="matrix(4.700149e-02 -0.9989 0.9989 4.700149e-02 153.6831 297.7293)" class="st32" cx="232.9" cy="68.3" rx="0.5" ry="0.4"/>
	<g>
		<path class="st30" d="M231,66.5c0,0,1.1-0.5,2.1-0.1c0.9,0.4,2.8,0.3,3.3,0.1c-0.2,0.4-0.6,0.8-1.6,0.8c0.1,0.1,0.5,0.2,0.8,0.1
			c-0.5,0.4-1.5,0.6-2.6-0.3S231,66.5,231,66.5z"/>
		<path class="st30" d="M235.8,67.3c-0.6,0.3-1.5,0.3-2.3,0.1s-1.6-1-2.6-0.9c0.9-0.2,1.8-0.1,2.6,0.5
			C234.6,67.7,235.8,67.3,235.8,67.3z"/>
	</g>
	<g>
		<path class="st30" d="M229.4,66.6c0,0-0.3-0.8-0.7-0.5c-0.3,0.3-1,0.1-1.1-0.1c0,0.4,0.1,0.9,0.5,1c0,0.1-0.2,0.1-0.3,0.1
			c0.1,0.4,0.4,0.7,0.9,0C229.1,66.3,229.4,66.6,229.4,66.6z"/>
		<path class="st30" d="M229.4,66.6c-0.1-0.3-0.4-0.3-0.7-0.1c-0.3,0.2-0.6,0.9-0.9,0.7c0.3,0.3,0.6,0.2,0.9-0.3
			C229.1,66.3,229.4,66.6,229.4,66.6z"/>
	</g>
	<polygon class="st33" points="240.6,70.8 239.9,70 240.1,67 240.8,67 	"/>
	<path class="st25" d="M241.8,63.2c0.2-3.5-2.5-6.4-6-6.6l-1.9-0.1c-2.1-0.1-4,0.9-5.2,2.4c0.1,0.1,0.2,0.3,0.3,0.4c0,0,0,0.1,0,0.1
		c0,0.4-0.3,0.6-0.6,0.6c-0.1,0-0.2-0.1-0.3-0.2c-0.4,0.8-0.6,1.6-0.7,2.5l0,0.2c0,0,0,0,0,0c0,0,0,0,0,0.1c0,0.6,0.5,1.2,1.1,1.2
		l1.4,0.1l0.4,0l8.8,0.4c1.1,0.1,1.1,1.1,1.1,1.1l-0.1,1.3c0,0.4,0.3,0.8,0.6,0.8c0.4,0.1,0.8-0.3,0.9-0.7l0.2-3.6c0,0,0,0,0-0.1
		c0,0,0,0,0,0L241.8,63.2z"/>
	<path class="st33" d="M228.9,59.5c0,0,0-0.1,0-0.1c0-0.2-0.1-0.3-0.3-0.4c-0.2,0.3-0.5,0.7-0.7,1c0.1,0.1,0.2,0.2,0.3,0.2
		C228.6,60.2,228.9,59.9,228.9,59.5z"/>
	<path class="st33" d="M230.9,59.1c0.1-0.1,0.2-0.1,0.3-0.1c0.3,0,0.5,0.2,0.5,0.5c0,0,0,0.1,0,0.1c0,0.4-0.3,0.6-0.6,0.6
		c-0.3,0-0.5-0.3-0.5-0.7C230.7,59.4,230.8,59.2,230.9,59.1z"/>
	<path class="st24" d="M239.4,69.9c0,0,1.2,0,1.2,0.9s-1.2,0.8-1.2,0.8"/>
	<path class="st31" d="M228.4,74.2c0,0,1.2,1.7,3.5-0.1"/>
	<path class="st24" d="M230.1,74.4c-0.9,0-1.6-0.1-1.6-0.2c-0.3-0.1-0.5-0.4-0.4-0.7c0.1-0.3,0.4-0.5,0.7-0.4l0,0
		c0,0,1.5,0.3,2.7-0.1c0.3-0.1,0.6,0.1,0.7,0.4c0.1,0.3-0.1,0.6-0.4,0.7C231.2,74.3,230.6,74.4,230.1,74.4z"/>
	<path class="st32" d="M230.1,74c-0.8,0-1.5-0.1-1.5-0.2c-0.1,0-0.2-0.1-0.1-0.2c0-0.1,0.1-0.2,0.2-0.1c0,0,1.6,0.4,2.9-0.1
		c0.1,0,0.2,0,0.2,0.1c0,0.1,0,0.2-0.1,0.2C231.2,74,230.6,74,230.1,74z"/>
	<g>
		<polygon class="st6" points="242.8,91 234.2,97.9 237.5,101.9 246,95.1 		"/>
		<ellipse transform="matrix(0.5766 -0.817 0.817 0.5766 22.741 236.9346)" class="st34" cx="240" cy="96.5" rx="2" ry="2"/>
		<polygon class="st2" points="239.5,94.3 238.5,95 239.2,97.5 240.1,96.6 240.6,98.7 240.9,95.2 239.8,95.9 		"/>
	</g>
	<path class="st23" d="M240.4,76.2c0,0,3.9-0.5,7.8,2.3c0,0,0.3,0.2,0.6,0.5l-1.8,2.3c-1.1-0.8-2.9-1.8-5.6-1.1l-0.8-0.6L240.4,76.2
		z"/>
	<path class="st4" d="M247.2,81.2c0,0,4.2,2.8,2.7,7.3c-1.4,4-6.3,4.7-6.3,4.7s-1.1,0-1.3,1.1c-0.1,1.2,1.3,1.1,1.3,1.1
		c1.2,0.1,7.2-1.2,8.5-6.4c1.2-5-1.5-8.1-3.5-9.7L247.2,81.2z"/>
	<path class="st25" d="M245.8,77.2l-1.5,2.9c0.5,0.1,1,0.3,1.3,0.4l0,0l1.5-2.6C247.1,77.8,246.4,77.4,245.8,77.2z"/>
	<rect x="246" y="79.4" transform="matrix(-0.603 0.7977 -0.7977 -0.603 460.7204 -69.4038)" class="st25" width="3.2" height="1"/>
	<path class="st32" d="M250,83.7C250,83.7,250,83.7,250,83.7l0.1-0.2c0.1,0.1,0.2,0.2,0.3,0.3c0.2,0.1,0.4,0.1,0.6,0.1
		c0.1,0,0.2,0,0.2,0c0.1,0,0.1,0,0.2,0.1c0,0,0,0,0,0c0,0,0,0,0,0l0,0c0,0,0,0,0,0l0,0c0,0,0,0,0,0c0,0,0,0,0,0c0,0,0,0,0,0
		c0,0,0,0,0,0c0,0,0,0,0,0c0,0,0,0,0,0c0,0,0,0,0,0c0-0.1,0-0.1,0.1-0.2c0-0.1,0.1-0.1,0.2-0.2c0.1,0,0.1-0.1,0.1-0.1l-0.1-0.1
		c0,0.1-0.1,0.1-0.2,0.2c-0.1,0.1-0.1,0.1-0.2,0.2c0,0,0,0.1,0,0.1l-0.7-1.3l0.3-0.2c0,0,0-0.1,0-0.1l0-0.1c0,0-0.1,0-0.1,0
		s0,0.1,0,0.1l0,0l-0.3,0.1l-0.2-0.3c0.1-0.1,0.1-0.2,0-0.2c-0.1-0.1-0.2-0.1-0.3-0.1c-0.1,0.1-0.1,0.2-0.1,0.3
		c0,0.1,0.1,0.1,0.2,0.1l0.2,0.3l-0.3,0.1l0,0c0,0-0.1,0-0.1,0c0,0,0,0.1,0,0.1l0,0.1c0,0,0.1,0,0.1,0l0.3-0.2l0.7,1.3
		c0,0-0.1,0-0.1,0c-0.1,0-0.2,0-0.3,0c-0.2,0.1-0.3,0-0.5,0c-0.1-0.1-0.2-0.1-0.2-0.2l0.1,0c0,0,0,0,0,0c0,0,0,0,0,0
		c0,0,0-0.1,0-0.1l-0.3-0.1c0,0,0,0,0,0c0,0,0,0,0,0c0,0,0,0,0,0c0,0,0,0,0,0c0,0,0,0,0,0c0,0,0,0,0,0c0,0,0,0,0,0L250,83.7
		C249.9,83.7,249.9,83.7,250,83.7z M250.2,81.8c0,0,0-0.1,0-0.1c0,0,0.1,0,0.1,0c0,0,0,0.1,0,0.1C250.3,81.9,250.3,81.9,250.2,81.8z
		"/>
	<path class="st18" d="M218.2,113.3l4.2,7.3c0,0,0.1,0.2,0.3-0.2l-4.1-7.3L218.2,113.3z"/>
	<path class="st5" d="M216,114.9c0,0,1.1,0.4,1.2,1.1c0.1,0.6,0.1,1,0.1,1s0.6,0,1,0.5c0.4,0.5,2.2,3,3,3.2c0.7,0.2,1.3-0.1,1.3-0.1
		l-4.2-7.3C218.2,113.3,216.2,114.6,216,114.9z"/>
	<path class="st16" d="M149,99C149,99,149,99,149,99c-0.1,0-0.1-0.2-0.1-0.4c0,0,0,0,0-0.1c0,0,0,0,0.1,0
		C149.1,98.8,149.1,98.9,149,99C149.1,99,149.1,99,149,99L149,99z M148.9,98.2C148.9,98.2,148.9,98.2,148.9,98.2l-0.1-0.4
		c0,0,0-0.1,0-0.1c0,0,0,0,0.1,0L148.9,98.2C149,98.2,149,98.2,148.9,98.2L148.9,98.2z M148.9,97.5
		C148.8,97.5,148.8,97.4,148.9,97.5c-0.1-0.2-0.1-0.3-0.1-0.4c0,0,0-0.1,0-0.1l0,0c0,0,0,0,0.1,0C148.9,97.2,148.9,97.3,148.9,97.5
		C148.9,97.4,148.9,97.5,148.9,97.5L148.9,97.5z M148.8,96.7C148.8,96.7,148.7,96.7,148.8,96.7l-0.1-0.4c0,0,0-0.1,0-0.1l0,0
		c0,0,0,0,0.1,0L148.8,96.7C148.8,96.7,148.8,96.7,148.8,96.7L148.8,96.7z M148.7,95.9C148.7,95.9,148.6,95.9,148.7,95.9l-0.1-0.4
		c0,0,0-0.1,0-0.1c0,0,0.1,0,0.1,0L148.7,95.9C148.7,95.9,148.7,95.9,148.7,95.9L148.7,95.9z M148.6,95.2
		C148.6,95.2,148.6,95.1,148.6,95.2l-0.1-0.4c0,0,0-0.1,0-0.1c0,0,0.1,0,0.1,0L148.6,95.2C148.7,95.1,148.6,95.2,148.6,95.2
		L148.6,95.2z M148.5,94.4C148.5,94.4,148.5,94.4,148.5,94.4l-0.1-0.4c0,0,0-0.1,0-0.1l0,0c0,0,0,0,0.1,0L148.5,94.4
		C148.6,94.4,148.5,94.4,148.5,94.4L148.5,94.4z M148.4,93.6C148.4,93.6,148.4,93.6,148.4,93.6l-0.1-0.4c0,0,0-0.1,0-0.1
		c0,0,0.1,0,0.1,0L148.4,93.6C148.5,93.6,148.4,93.6,148.4,93.6L148.4,93.6z M148.3,92.9C148.3,92.9,148.3,92.9,148.3,92.9
		c-0.1-0.2-0.1-0.3-0.1-0.4c0,0,0-0.1,0-0.1l0,0c0,0,0,0,0.1,0C148.3,92.6,148.3,92.7,148.3,92.9C148.4,92.8,148.3,92.9,148.3,92.9
		L148.3,92.9z M148.2,92.1C148.2,92.1,148.2,92.1,148.2,92.1l-0.1-0.4c0,0,0-0.1,0-0.1c0,0,0.1,0,0.1,0L148.2,92.1
		C148.2,92.1,148.2,92.1,148.2,92.1L148.2,92.1z M148.1,91.4C148.1,91.4,148,91.3,148.1,91.4c-0.1-0.2-0.1-0.3-0.1-0.4
		c0,0,0-0.1,0-0.1c0,0,0.1,0,0.1,0C148.1,91,148.1,91.2,148.1,91.4C148.1,91.3,148.1,91.3,148.1,91.4L148.1,91.4z M148,90.6
		C147.9,90.6,147.9,90.6,148,90.6c-0.1-0.2-0.1-0.3-0.1-0.4c0,0,0-0.1,0-0.1c0,0,0.1,0,0.1,0C148,90.3,148,90.4,148,90.6
		C148,90.6,148,90.6,148,90.6L148,90.6z M147.9,89.8C147.8,89.8,147.8,89.8,147.9,89.8c-0.1-0.2-0.1-0.3-0.1-0.4c0,0,0-0.1,0-0.1
		c0,0,0.1,0,0.1,0C147.9,89.5,147.9,89.6,147.9,89.8C147.9,89.8,147.9,89.8,147.9,89.8L147.9,89.8z M147.7,89.1
		C147.7,89.1,147.7,89.1,147.7,89.1c-0.1-0.2-0.1-0.3-0.1-0.4c0,0,0-0.1,0-0.1c0,0,0.1,0,0.1,0C147.7,88.8,147.8,88.9,147.7,89.1
		C147.8,89,147.8,89.1,147.7,89.1L147.7,89.1z M147.6,88.3C147.6,88.3,147.6,88.3,147.6,88.3l-0.1-0.4c0,0,0-0.1,0-0.1
		c0,0,0.1,0,0.1,0L147.6,88.3C147.6,88.3,147.6,88.3,147.6,88.3L147.6,88.3z M147.5,87.6C147.4,87.6,147.4,87.5,147.5,87.6
		c-0.1-0.2-0.1-0.3-0.1-0.4c0,0,0-0.1,0-0.1c0,0,0.1,0,0.1,0C147.5,87.2,147.5,87.4,147.5,87.6C147.5,87.5,147.5,87.6,147.5,87.6
		L147.5,87.6z M147.3,86.8C147.3,86.8,147.3,86.8,147.3,86.8l-0.1-0.4c0,0,0-0.1,0-0.1c0,0,0.1,0,0.1,0L147.3,86.8
		C147.4,86.8,147.4,86.8,147.3,86.8C147.3,86.8,147.3,86.8,147.3,86.8z M147.2,86C147.2,86,147.1,86,147.2,86l-0.1-0.4
		c0,0,0-0.1,0-0.1c0,0,0.1,0,0.1,0L147.2,86C147.2,86,147.2,86,147.2,86C147.2,86,147.2,86,147.2,86z M147,85.3
		C147,85.3,147,85.3,147,85.3c-0.1-0.2-0.1-0.3-0.1-0.4c0,0,0-0.1,0-0.1c0,0,0.1,0,0.1,0C147,85,147,85.1,147,85.3
		C147.1,85.3,147.1,85.3,147,85.3C147,85.3,147,85.3,147,85.3z M146.9,84.5C146.9,84.5,146.8,84.5,146.9,84.5
		c-0.1-0.2-0.1-0.3-0.1-0.4c0,0,0-0.1,0-0.1c0,0,0.1,0,0.1,0C146.9,84.2,146.9,84.3,146.9,84.5C146.9,84.5,146.9,84.5,146.9,84.5
		L146.9,84.5z M146.7,83.8C146.7,83.8,146.7,83.8,146.7,83.8c-0.1-0.2-0.1-0.3-0.1-0.4c0,0,0-0.1,0-0.1c0,0,0.1,0,0.1,0
		C146.7,83.5,146.7,83.6,146.7,83.8C146.8,83.7,146.7,83.8,146.7,83.8C146.7,83.8,146.7,83.8,146.7,83.8z M146.5,83
		C146.5,83,146.5,83,146.5,83c-0.1-0.2-0.1-0.3-0.1-0.4c0,0,0-0.1,0-0.1c0,0,0.1,0,0.1,0C146.5,82.7,146.5,82.8,146.5,83
		C146.6,83,146.6,83,146.5,83C146.5,83,146.5,83,146.5,83z M146.4,82.3C146.3,82.3,146.3,82.3,146.4,82.3c-0.1-0.2-0.1-0.3-0.1-0.4
		c0,0,0-0.1,0-0.1c0,0,0.1,0,0.1,0C146.3,82,146.4,82.1,146.4,82.3C146.4,82.3,146.4,82.3,146.4,82.3
		C146.4,82.3,146.4,82.3,146.4,82.3z M146.2,81.5C146.1,81.5,146.1,81.5,146.2,81.5c-0.1-0.2-0.1-0.3-0.2-0.4c0,0,0-0.1,0-0.1
		c0,0,0.1,0,0.1,0C146.1,81.2,146.2,81.4,146.2,81.5C146.2,81.5,146.2,81.5,146.2,81.5L146.2,81.5z M146,80.8
		C145.9,80.8,145.9,80.8,146,80.8c-0.1-0.2-0.1-0.3-0.2-0.4c0,0,0-0.1,0-0.1c0,0,0.1,0,0.1,0C145.9,80.5,146,80.6,146,80.8
		C146,80.8,146,80.8,146,80.8C146,80.8,146,80.8,146,80.8z M145.7,80.1C145.7,80.1,145.7,80.1,145.7,80.1c-0.1-0.2-0.1-0.3-0.2-0.4
		c0,0,0-0.1,0-0.1c0,0,0.1,0,0.1,0C145.7,79.8,145.7,79.9,145.7,80.1C145.8,80,145.8,80.1,145.7,80.1
		C145.7,80.1,145.7,80.1,145.7,80.1z M145.5,79.3C145.5,79.3,145.5,79.3,145.5,79.3c-0.1-0.2-0.1-0.3-0.2-0.4c0,0,0-0.1,0-0.1
		c0,0,0.1,0,0.1,0C145.5,79,145.5,79.1,145.5,79.3C145.5,79.3,145.5,79.3,145.5,79.3C145.5,79.3,145.5,79.3,145.5,79.3z"/>
	<path class="st12" d="M136.3,133c0,0-1.4-1-2.5-2.9l-0.2,2.4l1.1,1.4"/>
	<path class="st4" d="M136.6,89.8c-3,0-6.3-0.8-9.8-2.4c-0.6-0.3-0.8-0.9-0.6-1.5c0.3-0.6,0.9-0.8,1.5-0.6c5.4,2.5,10.1,2.8,14,1.1
		c5.8-2.5,7.9-8.8,7.9-8.9c0.2-0.6,0.8-0.9,1.5-0.7c0.6,0.2,0.9,0.8,0.7,1.5c-0.1,0.3-2.4,7.4-9.1,10.3
		C140.9,89.4,138.8,89.8,136.6,89.8z"/>
	<path class="st6" d="M152.3,78.1l-3,5.5l-2.2-1.2l3-5.5c0.3-0.6,1.1-0.8,1.7-0.5h0C152.4,76.7,152.6,77.5,152.3,78.1z"/>
	
		<rect x="148.8" y="79.3" transform="matrix(-0.4835 0.8754 -0.8754 -0.4835 292.2368 -11.2923)" class="st5" width="1.2" height="2.5"/>
	
		<rect x="147" y="82.1" transform="matrix(-0.8754 -0.4835 0.4835 -0.8754 238.2643 226.6438)" class="st5" width="2.8" height="1"/>
	<path class="st6" d="M152,76.5c0,0-0.8-0.7-2.8-0.8l1.6,2.3"/>
	<g>
		<path class="st35" d="M145.8,67.2c-0.1,0-0.1,0-0.1-0.1c0-0.1,0-0.1,0.1-0.1l2.1-0.2c0.1,0,0.1,0,0.1,0.1c0,0.1,0,0.1-0.1,0.1
			L145.8,67.2L145.8,67.2z"/>
		<path class="st35" d="M144.8,68c-0.1,0-0.1,0-0.1-0.1c0-0.1,0-0.1,0.1-0.1l2.3-0.2c0.1,0,0.1,0,0.1,0.1c0,0.1,0,0.1-0.1,0.1
			L144.8,68C144.8,68,144.8,68,144.8,68z"/>
		<path class="st35" d="M145.7,68.7c-0.1,0-0.1,0-0.1-0.1c0-0.1,0-0.1,0.1-0.1l3-0.2c0.1,0,0.1,0,0.1,0.1c0,0.1,0,0.1-0.1,0.1
			L145.7,68.7L145.7,68.7z"/>
	</g>
	<path class="st33" d="M137.8,74l0.6-0.5c-1.5-2-2.2-5.5-2.2-5.5l-0.8,0.2C135.4,68.3,136.2,71.8,137.8,74z"/>
	<path class="st33" d="M150.1,73.1c1.2-2.4,1.4-6,1.5-6.1l-0.8,0c0,0-0.2,3.6-1.4,5.8L150.1,73.1z"/>
	<path class="st24" d="M145.5,79.2l-2.4,0.2l-0.3-3.5c0-0.2,0.2-0.5,0.4-0.5l1.5-0.1c0.2,0,0.5,0.2,0.5,0.4L145.5,79.2z"/>
	<path class="st24" d="M142.7,57.7L142.7,57.7l0.1,0l0,0c3.7-0.3,6.9,2.5,7.2,6.2l0,0l0.2,2.5l0.2,3.3c0.3,3.7-2.5,6.9-6.2,7.2
		l-0.1,0c-3.7,0.3-6.9-2.5-7.2-6.2l-0.2-3.3l-0.2-2.5l0,0C136.2,61.2,139,57.9,142.7,57.7z"/>
	<path class="st28" d="M148.9,69.8l-0.2-3.3l-0.2-2.5l0,0c-0.3-3.5-3.1-6.1-6.5-6.2c0.2,0,0.5-0.1,0.7-0.1l0,0l0.1,0l0,0
		c3.7-0.3,6.9,2.5,7.2,6.2l0,0l0.2,2.5l0.2,3.3c0.3,3.7-2.5,6.9-6.2,7.2l-0.1,0c-0.2,0-0.5,0-0.7,0
		C146.7,76.3,149.1,73.3,148.9,69.8z"/>
	<path class="st24" d="M137.1,69.8c0,0-1.2,0-1.1,1c0.1,0.9,1.3,0.8,1.3,0.8"/>
	<path class="st28" d="M150.1,68.9c0,0,1.2-0.2,1.3,0.8s-1.1,1-1.1,1"/>
	<g>
		
			<ellipse transform="matrix(0.9973 -7.303672e-02 7.303672e-02 0.9973 -4.7191 10.722)" class="st29" cx="144.2" cy="69.9" rx="0.2" ry="0.1"/>
		
			<ellipse transform="matrix(0.9973 -7.303672e-02 7.303672e-02 0.9973 -4.7287 10.6351)" class="st29" cx="143.1" cy="70" rx="0.2" ry="0.1"/>
	</g>
	<path class="st22" d="M137,71.6c-0.1,3.3,1.5,8.1,2.3,8.9c-0.1-0.4-0.4-2.3,0.1-3.2c0.1,2,0.7,3.6,1.2,4.4c-0.1-2,0.3-3.4,0.5-3.9
		c-0.4,2.9,1.2,5,1.9,5.3c-0.6-1.8-0.7-3.2-0.5-3.9c0.3,1.6,1.4,2.5,2.8,4.1c-0.6-2.5,0.2-2.4,0.3-4.4c0.5,2,0.6,3.2,0.4,4.9
		c1-2.1,1.1-2.8,1.4-4.2c0.2,0.6,0.5,1.6,0.5,2.4c0.6-1.1,0.6-4,0.7-4.2c0.5,1.6,0.4,3.1,0.4,3.1s0.6-1,0.8-3.1
		c0.1-1.6,0.9-3.9,0.7-7.1c-2.3,2.7-4.3-0.5-6.8-0.3C141.7,70.5,139.3,74,137,71.6z"/>
	<path class="st20" d="M146.8,71.8c1.5,0.1,1.7,4.4,1.8,5.8s-0.3,3.6-0.7,4.4c0.6-3-0.4-8.7-1-9.3C146.3,72.2,146.8,71.8,146.8,71.8
		z"/>
	<g>
		<path class="st20" d="M144.6,73c0,0-0.8-0.1-0.9,0c-0.5,0.9-0.6,2.6-0.4,4.4c0.2,1.9,0.9,4.1,1.9,5.8
			C145.2,83.1,143.7,75.1,144.6,73z"/>
	</g>
	<path class="st20" d="M149.4,71.5c0,0,0.2,1.6,0.1,3.4c-0.1,1.6-0.2,4.6-0.5,5.9c0.6-0.8,1.8-6.1,1.5-10.3
		C150,71.3,149.4,71.5,149.4,71.5z"/>
	<path class="st20" d="M139.3,80.5c0,0-0.8-2.8-1.1-4.4c-0.4-2.2-0.2-3.8-0.2-3.8s0.4,0.2,0.9,0.1c-0.6,0.8-0.4,2.9-0.3,3.7
		C138.7,77.5,139.3,80.5,139.3,80.5z"/>
	<path class="st20" d="M140.3,73c0,0-0.4,2-0.4,4c0.1,2,0.6,4.6,0.6,4.6s-0.4-3.6,0.1-5.7c0.6-2.2,0.9-2.4,0.9-2.4L140.3,73z"/>
	<path class="st20" d="M146.6,73.2c0.8,0.5,1.8,6.6-0.6,10.5c1.2-5.1,0.1-8.8-0.6-10.5C146,73.1,146.6,73.2,146.6,73.2z"/>
	<path class="st20" d="M142.2,73.6c0,0-0.9,1.6-0.6,5.5c0.2,2.4,1.4,3.9,1.4,3.9s-0.5-1.3-0.5-3.5c0-3.1,0.5-5.7,0.5-5.7L142.2,73.6
		z"/>
	<path class="st20" d="M144.4,73c0,0,0.8-0.4,0.9,0.6c0.3,2.2,0.2,4.9-0.4,6.7C145.5,77.2,144.4,73,144.4,73z"/>
	<g>
		<path class="st20" d="M140.5,74c2.3,0.3,4.7,0.1,6.9-0.5c0.2-0.1,0.3-0.2,0.2-0.4c-0.1-0.4-0.2-0.7-0.3-1.1
			c-0.1-0.2-0.2-0.3-0.4-0.2c-2,0.5-4.1,0.7-6.2,0.4c-0.2,0-0.3,0.1-0.4,0.3c-0.1,0.4-0.1,0.7-0.2,1.1C140.1,73.8,140.3,74,140.5,74
			z"/>
	</g>
	<g>
		<path class="st24" d="M140.4,73.6c2.3,0.3,4.7,0.1,6.9-0.5c0.2-0.1,0.3-0.2,0.2-0.4c-0.1-0.4-0.2-0.7-0.3-1.1
			c-0.1-0.2-0.2-0.3-0.4-0.2c-2,0.5-4.1,0.7-6.2,0.4c-0.2,0-0.3,0.1-0.4,0.3c-0.1,0.4-0.1,0.7-0.2,1.1
			C140.1,73.4,140.2,73.6,140.4,73.6z"/>
	</g>
	<g>
		<g>
			<path class="st36" d="M140.9,72.9c2,0.3,4,0.1,5.8-0.4c0,0,0,0,0,0c0,0,0-0.1,0-0.1c0,0,0,0,0,0c-1.8,0.5-3.8,0.7-5.7,0.4
				c0,0,0,0,0,0C140.9,72.7,140.9,72.8,140.9,72.9C140.9,72.9,140.9,72.9,140.9,72.9z"/>
		</g>
		<path class="st32" d="M141,73C141,73,140.9,72.9,141,73c-0.1-0.1-0.1-0.1-0.1-0.1l0-0.1c0-0.1,0.1-0.1,0.1-0.1
			c1.9,0.3,3.8,0.1,5.6-0.4c0.1,0,0.1,0,0.1,0.1l0,0.1c0,0,0,0.1,0,0.1c0,0,0,0-0.1,0.1c-0.9,0.3-1.9,0.5-2.9,0.5
			C142.9,73.1,141.9,73.1,141,73z M146.7,72.3c-1.8,0.5-3.7,0.7-5.6,0.4l0,0.1C142.9,73.1,144.9,72.9,146.7,72.3L146.7,72.3z"/>
	</g>
	
		<ellipse transform="matrix(0.9973 -7.303672e-02 7.303672e-02 0.9973 -4.5256 10.9246)" class="st32" cx="147.1" cy="67.3" rx="0.3" ry="0.4"/>
	
		<ellipse transform="matrix(0.9973 -7.303672e-02 7.303672e-02 0.9973 -4.5834 10.3991)" class="st32" cx="139.9" cy="67.9" rx="0.3" ry="0.4"/>
	<path class="st22" d="M141.3,58.7c0-0.5,0-0.8,0.3-1.2c0.3-0.4-0.1-1-0.1-1s0.6,0.2,0.9,1c0.1-0.2,0.1-0.5-0.2-0.8
		c0.6,0.3,0.9,0.5,1,0.9c0.1-0.7-0.6-1.1-0.6-1.1s1.4,0.2,1.5,1.6c0,0.6-0.2,1-1.3,1.1S141.3,59.1,141.3,58.7z"/>
	<path class="st5" d="M134.5,63.4c-0.3-4.1,2.8-7.7,6.9-8l2.3-0.2c4.1-0.3,7.7,2.8,8,6.9l0,0.2c0,0,0,0,0,0c0,0,0,0,0,0.1l0.3,4.2
		c0,0.5-0.3,0.9-0.8,1c-0.5,0-0.9-0.3-1-0.8l-0.1-1.6c0,0-0.1-1.3-1.4-1.2l-10.9,0.8c-1.3,0.1-1.2,1.4-1.2,1.4l0.1,1.6
		c0,0.5-0.3,0.9-0.8,1c-0.5,0-0.9-0.3-1-0.8l-0.3-4.2c0,0,0,0,0-0.1c0,0,0,0,0-0.1L134.5,63.4z"/>
	<g>
		<path class="st33" d="M139.5,58.7c0-0.5,0.3-0.9,0.8-0.9c0.2,0,0.4,0.1,0.6,0.2c0.2,0.2,0.3,0.4,0.4,0.7c0,0.5-0.3,0.9-0.8,1
			C140,59.6,139.5,59.3,139.5,58.7C139.5,58.8,139.5,58.8,139.5,58.7z"/>
		<path class="st33" d="M144.4,57.7c0.1-0.1,0.3-0.2,0.5-0.2c0.4,0,0.8,0.2,0.9,0.6c0,0.1,0,0.1,0,0.2c0,0.5-0.3,0.9-0.8,1
			s-0.9-0.3-1-0.8C144,58.2,144.2,57.9,144.4,57.7z"/>
	</g>
	<path class="st22" d="M145.5,65.8c0,0,1-0.7,2-0.3c0.9,0.3,2.7,0,3.2-0.3c-0.2,0.4-0.5,0.9-1.4,1c0.1,0,0.5,0.1,0.8,0
		c-0.4,0.4-1.4,0.7-2.5,0C146.4,65.5,145.5,65.8,145.5,65.8z"/>
	<path class="st22" d="M141.6,66.3c0,0-1.1-0.6-2.2-0.2c-1,0.4-2.9,0.4-3.4,0.2c0.2,0.4,0.6,0.8,1.6,0.8c-0.1,0.1-0.5,0.2-0.8,0.1
		c0.5,0.4,1.5,0.6,2.6-0.3S141.6,66.3,141.6,66.3z"/>
	<g>
		<path class="st7" d="M193.7,105.1c0.1,0,0.3,0,0.4,0c0.3,0,0.6-0.1,0.8,0c2.9,0.6,3.7,3.7,3.7,3.7s1.4,6.3,5.4,8.2
			c3.3,1.5,7.4,1.8,12.1,0.2l-0.6-1.9c0,0-3.1,1.3-6.4,1c-3.3-0.3-6.1-2.6-7.3-6.4c0,0-0.8-3.3-0.8-5v-6c0,0-11.6-0.3-11.8-0.2
			c0,0.5-0.1,1.9-0.2,2.1c-0.1,0.9-0.4,1.7-0.9,2.5c-1.2,1.9-3,3.4-4.5,5.1c-1,1.2-1.5,2.7-1.5,4.3c0,0.6,0.1,1.2,0.2,1.8
			c0.8,3.4,2.6,8.4,3.6,11.7c0,0,1.6-0.3,2.1-0.3c-0.1,0-2.1-6.7-2.2-7.2c-0.3-0.9-0.5-1.8-0.8-2.7c-0.2-0.9-0.5-1.8-0.5-2.8
			c0-1.8,1.4-3.2,2.7-4.3c0.9-0.8,1.9-1.5,2.9-2.1v0c0.1-0.7,0.7-1.2,1.4-1.2L193.7,105.1"/>
		<path class="st7" d="M190.1,106.8C190.1,106.8,190.1,106.8,190.1,106.8C190.1,106.8,190.1,106.8,190.1,106.8z"/>
	</g>
	<rect x="181" y="112" class="st11" width="6.1" height="2.2"/>
	<path class="st25" d="M203.6,76.1c0,0-1.1,0.1-2.3-1.3c-0.9-1-0.9-2.5-1-3.7c-0.1-0.8-0.4-1.6-0.5-2.4c-0.2-1.4,0.1-3.1-0.9-4.2
		c-0.2-0.2-1-0.7-1.6-0.8c-0.3-0.1-0.5,0-0.7,0.2c-0.2,0.3-0.1,0.8-0.1,1.1c0,0.4,0,0.9-0.1,1.3c-0.1,0.8-0.2,1.6-0.4,2.4
		c-0.3,1.7-0.5,3.5,0.2,5.1c0.6,1.3,1.8,2.4,3,3c0.4,0.2,0.9,0.4,1.4,0.5c0.4,0.1,0.9,0.1,1.3,0.2c-0.3-0.1-0.6-0.3-0.7-0.6
		c0.5,0.2,1,0.2,1.5,0.1c-0.2-0.1-0.4-0.2-0.6-0.4C202.6,76.5,203,76.4,203.6,76.1z"/>
	<g>
		<polygon class="st6" points="221.2,52.9 210.8,58.2 213.3,63.1 223.7,57.8 		"/>
		<ellipse transform="matrix(0.7307 -0.6827 0.6827 0.7307 18.8345 163.8196)" class="st34" cx="217" cy="58" rx="2.1" ry="2.1"/>
		<polygon class="st2" points="217,55.6 215.9,56.1 216,58.9 217.1,58.2 217.3,60.4 218.3,56.8 217,57.4 		"/>
	</g>
	<path class="st37" d="M189.1,99.7l11.9-0.4c0,0,0.4-12-2.3-21.6c-0.3-1.1-1.4-1.7-2.5-1.5l-8.3,2.2c-1.1,0.3-1.8,1.4-1.5,2.5
		C187.7,86.6,189.2,90.8,189.1,99.7z"/>
	<path class="st38" d="M167.9,102.2c-0.3,0-0.7-0.2-0.9-0.4c-0.3-0.5-0.2-1.1,0.3-1.5c13-9.1,18.9-20.2,19-20.3
		c0.3-0.5,0.9-0.7,1.4-0.4c0.5,0.3,0.7,0.9,0.4,1.4c-0.2,0.5-6.2,11.5-19.6,21C168.3,102.2,168.1,102.2,167.9,102.2z"/>
	<path class="st37" d="M188.3,81.2l-3.4,5.2l-2.1-1.4l3.4-5.2c0.4-0.6,1.2-0.7,1.7-0.4l0,0C188.5,79.8,188.6,80.6,188.3,81.2z"/>
	<path class="st37" d="M186,80c0,0,0.7-1.2,1.8-1.5l-0.1,1.8l-1.7,1.4"/>
	<path class="st11" d="M168.1,113.3c-0.6,0-1.1-0.5-1.1-1.1v-8.9h-2.2c-0.6,0-1.1-0.5-1.1-1.1s0.5-1.1,1.1-1.1h3.3
		c0.6,0,1.1,0.5,1.1,1.1v10C169.2,112.8,168.7,113.3,168.1,113.3z"/>
	<path class="st8" d="M173.9,108l1.2-1.8c0.1-0.2,0-0.4-0.2-0.4h-8.7l0,0h-2.5c-0.6,0-1.1-0.4-1.3-1c-0.2-0.8,0.5-1.5,1.2-1.5h1
		c0.5,0,1-0.4,1.1-0.9c0.1-0.7-0.4-1.3-1.1-1.3h-0.9c-1.8,0-3.4,1.4-3.5,3.2c-0.1,2,1.4,3.7,3.4,3.7h2h4.5h0.6l-1.2,1.7
		c-0.1,0.2,0,0.4,0.3,0.4l7.9-1.9c0.2,0,0.1-0.3,0-0.3L173.9,108z"/>
	<rect x="167" y="111.3" class="st8" width="2.2" height="0.7"/>
	<path class="st38" d="M201.5,75.7c-0.3,0-0.6-0.2-0.8-0.5c-0.3-0.5-0.1-1,0.4-1.3l0,0c0.1,0,8.1-4.5,12.9-12.9
		c0.3-0.5,0.8-0.6,1.3-0.4c0.5,0.3,0.6,0.8,0.4,1.3c-5.1,8.9-13.3,13.4-13.6,13.6C201.9,75.6,201.7,75.7,201.5,75.7z"/>
	<path class="st37" d="M197.3,76l5.2-3.1l1.3,2.1l-5.2,3.1c-0.6,0.4-1.3,0.2-1.7-0.4l0,0C196.6,77.1,196.7,76.3,197.3,76z"/>
	<path class="st25" d="M196.1,78.3c0.1-1-0.8-0.7-0.8-0.7c-2.4,0.8-4.1,0.5-4.1,0.5l2-1.9l-4.3,1.7c-0.3-0.1-0.7,0-0.9,0.3
		c-0.2,0.3-0.2,0.7,0,1c0.2,0.3,0.5,0.4,0.8,0.5c0.3,0.1,0.7,0.1,1,0.2c0.4,0.2,0.8,0.5,1.3,0.6c0.3,0.1,0.6,0.1,0.9,0.1
		c0.6,0,1.1-0.1,1.7,0.1c0.3,0.1,0.6,0.2,0.9,0.3c1.1,0.4,2.3,0.5,3.4,0.3C196.2,80.8,196,79.3,196.1,78.3z"/>
	<path class="st39" d="M197.2,78.9c0.1-0.3,0.2-0.5,0.2-0.8c0-0.3-0.3-0.6-0.4-1c-0.1-0.4,0.1-0.8-0.1-1.1c-0.1-0.2-0.4-0.3-0.6-0.3
		c-0.7-0.2-1.5-0.2-2.2,0l-0.8,0.3l-2,1.9c0,0,1.8,0.3,4.1-0.5c0,0,0.9-0.3,0.8,0.7s0.1,2.5,1.8,2.9c-0.2-0.3-0.4-0.5-0.6-0.9
		C197.1,79.9,197,79.4,197.2,78.9z"/>
	<path class="st9" d="M191.8,84.9l-0.5,4.9c0,0.1,0.1,0.1,0.1,0.1l1.9-0.4c0.1,0,0.1,0,0.1,0.1l-0.1,4.2c0,0.1,0.1,0.1,0.2,0
		l3.3-7.4c0-0.1,0-0.2-0.1-0.1l-1.8,0.5c-0.1,0-0.1,0-0.1-0.1l0.3-2.4c0-0.1-0.1-0.1-0.1-0.1L191.8,84.9
		C191.9,84.8,191.8,84.8,191.8,84.9z"/>
	<path class="st38" d="M190.8,57.6c3.8,0.2,6.2,2.5,6,4.9l-0.2,4.3l-0.1,2.5l-0.2,3.4c-0.2,3.7-3.1,5.6-6.5,5.5l-0.1,0
		c-3.4-0.2-6.1-2.3-5.9-6l0.2-3.4l0.1-2.5l0.2-4.3C184.4,59.8,187.5,57.4,190.8,57.6z"/>
	<path class="st40" d="M195.4,72.6l0.2-3.4l0.1-2.5l0.2-4.3c0.1-2-2.4-4.3-5.7-4.8c0.2,0,0.5,0,0.7,0c3.8,0.2,6.2,2.5,6,4.9
		l-0.2,4.3l-0.1,2.5l-0.2,3.4c0,0.2,0,0.5-0.1,0.7c0,0.2-0.1,0.4-0.1,0.7c0,0.2-0.1,0.4-0.2,0.6c-0.1,0.2-0.1,0.4-0.2,0.6
		c-0.1,0.2-0.2,0.3-0.3,0.5c-0.1,0.2-0.2,0.3-0.3,0.4c-0.1,0.1-0.2,0.3-0.3,0.4c-0.1,0.1-0.2,0.2-0.4,0.3c-0.1,0.1-0.3,0.2-0.4,0.3
		c-0.1,0.1-0.3,0.2-0.4,0.3c-0.1,0.1-0.3,0.1-0.5,0.2c-0.2,0.1-0.3,0.1-0.5,0.2c-0.2,0.1-0.3,0.1-0.5,0.1c-0.2,0-0.3,0.1-0.5,0.1
		c-0.2,0-0.4,0-0.5,0.1c-0.2,0-0.4,0-0.6,0c-0.2,0-0.4,0-0.6,0c-0.2,0-0.3,0-0.5,0c-0.2,0-0.3,0-0.5-0.1c0,0-0.1,0-0.1,0
		c-0.1,0-0.2,0-0.4-0.1c-0.1,0-0.2,0-0.3-0.1C191.5,77.7,195.2,77.2,195.4,72.6z"/>
	
		<ellipse transform="matrix(4.700149e-02 -0.9989 0.9989 4.700149e-02 103.7264 251.9332)" class="st29" cx="183.9" cy="71.6" rx="0.1" ry="0.2"/>
	
		<ellipse transform="matrix(4.700149e-02 -0.9989 0.9989 4.700149e-02 107.9494 248.9328)" class="st32" cx="184.4" cy="67.9" rx="0.5" ry="0.4"/>
	<path class="st38" d="M185.6,67.6c-0.1,0.4-0.6,1-1.5,2.5c-0.2,0.3-1.4,1.4,0.5,1.6c0.7,0.1,1.3-0.1,1.6-0.2
		c0.1-0.1,0.2-0.2,0.1-0.3c-0.2-0.2-0.7-0.8-0.5-1.5C185.8,69.1,186,68.1,185.6,67.6z"/>
	<path class="st40" d="M185.8,68c0,0-0.4,1.4-0.4,1.9s0.1,0.7,0.3,0.9s0.2,0.9,0.2,0.9s0.5-0.4,0.1-1.2
		C185.5,69.5,185.7,68.7,185.8,68z"/>
	
		<ellipse transform="matrix(4.700149e-02 -0.9989 0.9989 4.700149e-02 105.1725 253.4054)" class="st29" cx="185.4" cy="71.6" rx="0.1" ry="0.2"/>
	
		<ellipse transform="matrix(4.700149e-02 -0.9989 0.9989 4.700149e-02 111.5526 253.1854)" class="st32" cx="188.5" cy="68.1" rx="0.5" ry="0.4"/>
	<path class="st25" d="M190.8,66.6c0,0-0.1,0-0.1,0c-1.2-1-2.9-0.8-2.9-0.8c-0.1,0-0.2-0.1-0.2-0.1c0-0.1,0.1-0.2,0.1-0.2
		c0.1,0,1.8-0.2,3.1,0.9c0.1,0.1,0.1,0.2,0,0.2C190.9,66.6,190.9,66.6,190.8,66.6z"/>
	<path class="st25" d="M184,66c-0.1,0-0.1,0-0.1-0.1c0-0.1,0-0.2,0.1-0.2c0.5-0.3,1-0.3,1-0.4c0.1,0,0.2,0.1,0.2,0.1
		c0,0.1-0.1,0.2-0.1,0.2C184.9,65.6,184.5,65.7,184,66C184,66,184,66,184,66z"/>
	<g>
		<path class="st41" d="M185.4,74.9c-0.3,0-0.6,0-0.6,0c-0.3,0-0.6-0.3-0.6-0.7c0-0.3,0.3-0.6,0.7-0.6c0,0,1.6,0.1,2.7-0.4
			c0.3-0.1,0.7,0,0.8,0.3c0.1,0.3,0,0.7-0.3,0.8C187.2,74.8,186.1,74.9,185.4,74.9z"/>
		<path class="st32" d="M185.5,74.5c-0.3,0-0.5,0-0.6,0c-0.1,0-0.2-0.1-0.2-0.2c0-0.1,0.1-0.2,0.2-0.2c0,0,1.7,0.1,2.9-0.4
			c0.1,0,0.2,0,0.3,0.1s0,0.2-0.1,0.3C187.1,74.4,186.1,74.5,185.5,74.5z"/>
	</g>
	<path class="st25" d="M183.3,64.6c0,0,4.3,0,11.3,1.3c0,0,0-1.4,0.2-2.5l-11.2-0.2C183.6,63.1,183.3,63.6,183.3,64.6z"/>
	<path class="st25" d="M196.4,72.4c0,0,0.2-0.8-0.3-1.6l0.6-0.4l0.6,1l-0.5,1.6"/>
	<path class="st25" d="M196.3,64c0,0,0.3,2.6,0.2,5.8l1.1-5.1l-0.4-1.1"/>
	<path class="st25" d="M195.4,65.8c0,0-1.3,4.6,1.1,5.1l0.8-3.1l-0.6-3.8l-1.1-0.1"/>
	<path class="st33" d="M196,65.8c0,0,0,2-0.5,3.9l0.7,0.6c0,0,0.6-2.3,0.7-4.4"/>
	<path class="st38" d="M195.2,69.5c0,0,1.2,0,1.2,0.9s-1.2,0.8-1.2,0.8"/>
	<path class="st25" d="M196.2,63.2c0,0-2.1,5.2,0.5,12.4c0,0-3-1.8-2.1-12.4"/>
	<path class="st7" d="M197.6,62.8c0.2-3.5-2.5-6.4-6-6.6l-2.1-0.1c-2.1-0.1-4,0.9-5.2,2.4c0.1,0.1,0.2,0.3,0.3,0.4c0,0,0,0.1,0,0.1
		c0,0.4-0.3,0.6-0.6,0.6c-0.1,0-0.2-0.1-0.3-0.2c-0.4,0.8-0.6,1.6-0.7,2.5l0,0.2c0,0,0,0,0,0c0,0,0,0,0,0.1c0,0.6,0.5,1.2,1.1,1.2
		l1.4,0.1l0.4,0l9.1,0.4c1.1,0.1,1.1,1.1,1.1,1.1l-0.1,1.3c0,0.4,0.3,0.8,0.6,0.8c0.4,0.1,0.8-0.3,0.9-0.7l0.2-3.6c0,0,0,0,0-0.1
		c0,0,0,0,0,0L197.6,62.8z"/>
	<path class="st34" d="M184.5,59.2c0,0,0-0.1,0-0.1c0-0.2-0.1-0.3-0.3-0.4c-0.2,0.3-0.5,0.7-0.7,1c0.1,0.1,0.2,0.2,0.3,0.2
		C184.3,59.8,184.5,59.5,184.5,59.2z"/>
	<path class="st34" d="M186.5,58.7c0.1-0.1,0.2-0.1,0.3-0.1c0.3,0,0.5,0.2,0.5,0.5c0,0,0,0.1,0,0.1c0,0.4-0.3,0.6-0.6,0.6
		c-0.3,0-0.5-0.3-0.5-0.7C186.3,59,186.4,58.8,186.5,58.7z"/>
	<rect x="224.8" y="112" class="st8" width="6.1" height="2.2"/>
	<path class="st6" d="M290.4,76.6l-1.5-1.5l1.5-1.5l-1.5-1.5l1.5-1.5l-1.5-1.5l1.5-1.5l-1.5-1.5l1.5-1.5l-1.5-1.5l1.5-1.5h-28.3
		c-0.3,0-0.5,0.2-0.6,0.4c-3.2,8.2-4.6,14.7-5,16.6c-0.1,0.3,0.2,0.6,0.5,0.6h33.4l-1.5-1.5L290.4,76.6z"/>
	<path class="st42" d="M263.3,61.9c0,0-3.4,8.3-5.5,17.7h0.8c0,0,1.5-7.5,5.4-17.7H263.3z"/>
	<g id="XMLID_1_">
		<g>
			<path id="XMLID_87_" class="st2" d="M274.4,74.4c-1,1.3-2.7,2.2-4.5,2.2c-3.1,0-5.7-2.5-5.7-5.7c0-3.1,2.5-5.7,5.7-5.7
				c1.8,0,3.4,0.9,4.5,2.2c0.1-0.2,0.2-0.4,0.4-0.6c-0.9-1.1-2.2-1.9-3.6-2.1c0,0,0,0,0,0c-0.1,0-0.2,0-0.3-0.1c0,0,0,0,0,0
				c-0.1,0-0.2,0-0.3,0c0,0,0,0-0.1,0c-0.1,0-0.2,0-0.3,0c-0.1,0-0.1,0-0.2,0c0,0-0.1,0-0.1,0c-3.5,0-6.3,2.8-6.3,6.3
				c0,3.5,2.8,6.3,6.3,6.3c0,0,0.1,0,0.1,0c0.1,0,0.1,0,0.2,0c0.1,0,0.2,0,0.3,0c0,0,0,0,0.1,0c0.1,0,0.2,0,0.3,0c0,0,0,0,0,0
				c0.1,0,0.2,0,0.3-0.1c0,0,0,0,0,0c1.4-0.3,2.7-1.1,3.6-2.1C274.6,74.8,274.5,74.6,274.4,74.4z"/>
			<path id="XMLID_82_" class="st2" d="M273.4,70.9c0-1.1,0.2-2.1,0.7-2.9c-0.9-1.3-2.5-2.2-4.2-2.2c-2.8,0-5.1,2.3-5.1,5.1
				c0,2.8,2.3,5.1,5.1,5.1c1.7,0,3.3-0.9,4.2-2.2C273.7,73,273.4,72,273.4,70.9z M266.4,70.3c-0.1-0.1-0.1-0.3,0-0.4l2-1.9
				c0.1-0.1,0.3-0.1,0.3,0l0.4,0.5c0.1,0.1,0.1,0.3,0,0.4l-2,1.9c-0.1,0.1-0.3,0.1-0.3,0L266.4,70.3z M272.7,73.2
				c-0.6,0.8-1.7,1.3-2.8,1.3c-1.2,0-2.2-0.5-2.9-1.4c-0.3-0.4-0.1-0.5,0.1-0.7c0.2-0.2,0.5-0.2,0.7,0.1c0.5,0.6,1.2,1,2.1,1
				c0.8,0,1.6-0.4,2.1-1c0.2-0.3,0.5-0.2,0.7-0.1C272.9,72.7,273,72.8,272.7,73.2z M273.2,70.3l-0.4,0.5c-0.1,0.1-0.2,0.1-0.3,0
				l-2-1.9c-0.1-0.1-0.1-0.3,0-0.4l0.4-0.5c0.1-0.1,0.2-0.1,0.3,0l2,1.9C273.3,70,273.3,70.2,273.2,70.3z"/>
			<path id="XMLID_77_" class="st2" d="M280.4,65.8c-2.8,0-5.1,2.3-5.1,5.1c0,2.8,2.3,5.1,5.1,5.1c2.8,0,5.1-2.3,5.1-5.1
				C285.5,68.1,283.2,65.8,280.4,65.8z M276.9,70.3c-0.1-0.1-0.1-0.3,0-0.4l2-1.9c0.1-0.1,0.3-0.1,0.3,0l0.4,0.5
				c0.1,0.1,0.1,0.3,0,0.4l-2,1.9c-0.1,0.1-0.3,0.1-0.3,0L276.9,70.3z M283.2,73.2c-0.6,0.8-1.7,1.3-2.8,1.3c-1.2,0-2.2-0.5-2.9-1.4
				c-0.3-0.4-0.1-0.5,0.1-0.7c0.2-0.2,0.5-0.2,0.7,0.1c0.5,0.6,1.2,1,2.1,1c0.8,0,1.6-0.4,2.1-1c0.2-0.3,0.5-0.2,0.7-0.1
				C283.4,72.7,283.5,72.8,283.2,73.2z M283.8,70.2l-2.7,0c-0.1,0-0.2-0.1-0.2-0.3l0-0.6c0-0.1,0.1-0.2,0.2-0.2l2.7,0
				c0.1,0,0.2,0.1,0.2,0.2l0,0.6C284.1,70.1,283.9,70.2,283.8,70.2z"/>
			<path id="XMLID_74_" class="st2" d="M274.1,70.9c0,3.5,2.8,6.3,6.3,6.3c0,0,0.1,0,0.1,0c0.1,0,0.1,0,0.2,0c0.1,0,0.2,0,0.3,0
				c0,0,0,0,0.1,0c0.1,0,0.2,0,0.3,0c0,0,0,0,0,0c0.1,0,0.2,0,0.3-0.1c0,0,0,0,0,0c2.9-0.6,5.1-3.1,5.1-6.2c0-3.1-2.2-5.6-5.1-6.2
				c0,0,0,0,0,0c-0.1,0-0.2,0-0.3-0.1c0,0,0,0,0,0c-0.1,0-0.2,0-0.3,0c0,0,0,0-0.1,0c-0.1,0-0.2,0-0.3,0c-0.1,0-0.1,0-0.2,0
				c0,0-0.1,0-0.1,0C276.9,64.6,274.1,67.4,274.1,70.9z M280.4,65.2c3.1,0,5.7,2.5,5.7,5.7c0,3.1-2.5,5.7-5.7,5.7
				c-3.1,0-5.7-2.5-5.7-5.7C274.7,67.8,277.3,65.2,280.4,65.2z"/>
		</g>
	</g>
</g>
</svg>
