<svg class="gs-badge" xmlns="http://www.w3.org/2000/svg" viewBox="0 0 259.86 93.52"><defs><radialGradient id="radial" cx="45.99" cy="45.74" r="45.87" gradientUnits="userSpaceOnUse"><stop offset=".21" stop-color="#ec1d6b"/><stop offset=".5" stop-color="#ec1a6b"/><stop offset="1" stop-color="#a7226b"/></radialGradient></defs><title>guaranteed-savings</title><path class="shadow" d="M259.86 20.76H85.09l.15-.29-6.66-.3.23-6.64-6.55.91-1.23-6.51-6.18 2.13-2.6-6.02-5.59 3.24-3.82-5.24-4.79 4.22-4.82-4.22-3.84 5.02-5.57-3.02-2.75 5.62-6.03-1.71-1.57 6.01-6.21-.36-.33 6.16-6.11.99.92 6.07-5.72 2.25 2.12 5.75-5.09 3.4 3.26 5.18-4.27 4.38 4.27 4.39-3.26 5.17 5.09 3.4-2.12 5.75 5.72 2.25-.92 6.07 6.11.99.33 6.16 6.21-.35 1.57 6 6.03-1.71 2.75 5.62 5.57-3.02 3.84 5.02 4.82-4.21 4.79 4.21 3.82-5.24 5.59 3.24 2.6-6.02 6.18 2.11 1.23-6.52 6.55.87-.23-6.7 6.66-.86-.06-.64h174.68l-13.68-27.68 13.68-25.32"/><path class="white" d="M256.09 20.76H71.11l2.35 50h182.63l-12.57-26.08 12.57-23.92"/><path class="radial-gradient" fill="url(#radial)" d="M46.01 4.21L50.8 0l3.82 5.24L60.2 2l2.61 6.02 6.18-2.11 1.23 6.53 6.55-.88-.24 6.71 6.67.44-1.7 6.54 6.51 1.78-3.08 6.07 6.05 3.08-4.3 5.29 5.3 4.27-5.3 4.27 4.3 5.29-6.05 3.08 3.08 6.07-6.51 1.78 1.7 6.54-6.67.45.24 6.7-6.55-.87-1.23 6.52-6.18-2.11-2.61 6.02-5.58-3.24-3.82 5.24-4.79-4.21-4.82 4.21-3.84-5.02-5.57 3.02-2.75-5.62L23 85.57l-1.57-6.01-6.21.36-.34-6.16-6.1-.99.92-6.07-5.72-2.25L6.1 58.7 1 55.3l3.26-5.17L0 45.74l4.26-4.39L1 36.18l5.1-3.4-2.12-5.75 5.72-2.25-.92-6.07 6.1-.99.34-6.16 6.21.36L23 5.91l6.03 1.71L31.78 2l5.57 3.02L41.19 0l4.82 4.21"/><path class="white" d="M15.2 46.15a3.06 3.06 0 0 1-3.55.92A3.14 3.14 0 0 1 9.84 44 4.28 4.28 0 0 1 15 40a1.68 1.68 0 0 1 1.32.82 1.07 1.07 0 0 1-.59 1.45c-.54.16-.77-.33-1.34-.45a2 2 0 0 0-1.49.31 2.2 2.2 0 0 0-.64 2.72c.6 1.07 2.56 1 2.83-.33l-.72.08c-.56.06-1.08-.06-1-.73 0-1.12 2.13-1 2.92-1.06.95-.11.75 1.09.75 1.72v2c0 .27-.93.31-1 .29a.91.91 0 0 1-.75-.72c-.28.34-.03.21-.09.05zM21.06 46.41a2.62 2.62 0 0 1-3.2-2.84v-3a1.12 1.12 0 0 1 1.22-1.14c1.47-.16 1 3 1 3.89a1 1 0 0 0 1.29 1.14 1.36 1.36 0 0 0 .78-1.51v-2.83a1.13 1.13 0 0 1 1.23-1.14c1.45-.16.94 3 .94 3.88a3.32 3.32 0 0 1-3.21 3.52zM27.14 44.21l-.21.55a1.44 1.44 0 0 1-1.4 1.14.83.83 0 0 1-.88-.62 6.19 6.19 0 0 1 .67-1.8l1.58-4.24c.33-1 2.28-1.05 2.75-.22a15.12 15.12 0 0 1 .7 1.66l1.63 3.87c.27.62-1.39.84-1.67.73a1.36 1.36 0 0 1-.73-.81 1.66 1.66 0 0 0-.18-.47c-.36-.24-1.8.16-2.26.21zM29 42.45l-.75-2-.76 2.11zM38.76 43.76c.28.41-1.09.86-1.24.88a1.4 1.4 0 0 1-1.26-.51c-.45-.45-.83-1-1.23-1.49h-.4v1.22A1.14 1.14 0 0 1 33.38 45c-1.5.16-.92-4.82-.92-5.74 0-1.65 2.11-1.44 3.28-1.56s2.44 0 2.82 1.26a2.38 2.38 0 0 1-1.42 2.93zm-3.21-2.69c.72-.08 1.46-1 .65-1.55a2.87 2.87 0 0 0-1.56 0v1.63zM41.6 42.67l-.21.56a1.44 1.44 0 0 1-1.4 1.14.83.83 0 0 1-.87-.61 6.2 6.2 0 0 1 .67-1.8l1.58-4.24c.33-1 2.28-1.05 2.75-.22a15.21 15.21 0 0 1 .7 1.66l1.63 3.87c.27.62-1.39.84-1.67.73a1.36 1.36 0 0 1-.73-.81 1.67 1.67 0 0 0-.18-.47c-.36-.26-1.8.14-2.27.19zm1.86-1.76l-.75-2-.75 2.16zM46.97 42.59V37.5a1 1 0 0 1 1.1-1.12c.87-.09 1.49 1 2 1.61l1.5 1.8v-2.78a1.07 1.07 0 0 1 1.12-1.13c1.27-.13.91 2 .91 2.78v3.22a1 1 0 0 1-1 1.12c-.88.1-1.49-1-2-1.59l-1.54-1.83v2.79c-.05 1.29-2.09 1.64-2.09.22zM55.18 37.55a.8.8 0 0 1-1-.88c0-1.21 1.71-1.08 2.56-1.17l2.93-.31a.79.79 0 0 1 1 .83c0 1.16-1.31 1.08-2.14 1.17v4.17a1.15 1.15 0 0 1-1.27 1.14c-1.19.13-.9-1.57-.9-2.32v-2.75zM61.55 41.69c-.55-.51-.29-2.11-.29-2.76v-2.69c0-1.36 1.22-1.34 2.22-1.45l2.61-.28a.8.8 0 0 1 1 .87c0 1.38-2.71 1.19-3.67 1.29v.7l1.77-.19a.76.76 0 0 1 1 .77c0 1.23-1.92 1.08-2.78 1.17v.81l2.71-.29a.77.77 0 0 1 1 .8c0 1.28-1.79 1.14-2.69 1.24-.66.07-2.34.54-2.91 0zM68.21 40.98c-.55-.51-.29-2.12-.29-2.77v-2.68c0-1.36 1.22-1.34 2.22-1.45l2.62-.32a.8.8 0 0 1 1 .87c0 1.38-2.71 1.19-3.67 1.29v.7l1.77-.19a.76.76 0 0 1 1 .77c0 1.23-1.92 1.08-2.78 1.17v.81l2.71-.29a.77.77 0 0 1 1 .8c0 1.28-1.79 1.14-2.69 1.24-.66.07-2.34.54-2.91 0zM75.32 40.43c-1-.32-.74-1.91-.74-2.73v-2.88c0-1.57 1.88-1.41 3-1.53a3.12 3.12 0 0 1 3.55 1.91 4 4 0 0 1-.66 3.63 4.44 4.44 0 0 1-3 1.47 5.72 5.72 0 0 1-2.11.13zm2.15-2a1.87 1.87 0 0 0 1.52-2.67c-.45-.86-1.46-.66-2.25-.58v3.32zM25.78 57.67c-.88.09-3.06.12-2.76-1.34a1.42 1.42 0 0 1 .69-.9 3.76 3.76 0 0 1 .66.36 3.18 3.18 0 0 0 1 .23 1.43 1.43 0 0 0 1.34-.41c.28-.63-.53-.63-.94-.67-1.24-.12-2.58-.46-2.6-2a2.57 2.57 0 0 1 2-2.44c.9-.28 3-.62 3.57.48a1.11 1.11 0 0 1-.34 1.26.41.41 0 0 1-.46.18c-.31 0-.71-.38-1.06-.45s-1.33-.11-1.54.38.58.57 1 .61c1.37.13 2.85.62 2.67 2.27s-1.71 2.24-3.14 2.4zM31.76 55.43l-.21.56a1.44 1.44 0 0 1-1.4 1.14.83.83 0 0 1-.89-.62 6.19 6.19 0 0 1 .67-1.8l1.58-4.24c.32-1 2.28-1 2.75-.22a15.17 15.17 0 0 1 .7 1.66l1.65 3.85c.27.62-1.39.84-1.67.73a1.35 1.35 0 0 1-.73-.81 1.66 1.66 0 0 0-.18-.47c-.36-.23-1.77.17-2.27.22zm1.86-1.76l-.75-2-.76 2.11zM40.64 49.9a1.4 1.4 0 0 1 1.41-1.14 1 1 0 0 1 1 .62 5.27 5.27 0 0 1-.65 1.63l-1.62 4.15a1.37 1.37 0 0 1-2.5.23c-.27-.5-.47-1-.7-1.56l-1.66-3.7c-.3-.69 1.71-1 2.07-.7a2.31 2.31 0 0 1 .65 1.25l.91 2.79zM43.71 54.65v-5.09a1.1 1.1 0 0 1 1.23-1.14c1.31-.14.94 2 .94 2.77v3.22c0 1.35-2.17 1.68-2.17.24zM46.94 54.31v-5.09a1 1 0 0 1 1.1-1.12c.87-.09 1.49 1 2 1.61l1.5 1.8v-2.75a1.07 1.07 0 0 1 1.12-1.13c1.27-.14.91 2 .91 2.78v3.22a1 1 0 0 1-1 1.12c-.88.1-1.49-1-2-1.59l-1.54-1.83v2.79c-.04 1.25-2.09 1.64-2.09.19zM59.74 53.12a3.06 3.06 0 0 1-3.55.92 3.14 3.14 0 0 1-1.81-3.07 4.28 4.28 0 0 1 5.16-4 1.68 1.68 0 0 1 1.32.82 1.07 1.07 0 0 1-.6 1.43c-.54.16-.77-.33-1.34-.45a2 2 0 0 0-1.49.31 2.2 2.2 0 0 0-.66 2.73c.6 1.07 2.57 1 2.83-.33l-.72.08c-.56.06-1.08-.06-1-.74 0-1.12 2.13-1 2.92-1.06.95-.11.75 1.09.75 1.72v2c0 .27-.93.31-1 .29a.91.91 0 0 1-.75-.71c-.25.35-.02.22-.06.06zM64.93 53.5c-.88.09-3.06.12-2.76-1.34a1.42 1.42 0 0 1 .69-.91 3.77 3.77 0 0 1 .66.36 3.17 3.17 0 0 0 1 .23 1.44 1.44 0 0 0 1.34-.41c.26-.67-.6-.67-.96-.67-1.24-.12-2.58-.45-2.6-2a2.57 2.57 0 0 1 2-2.44c.89-.28 3-.62 3.57.48a1.12 1.12 0 0 1-.34 1.26.41.41 0 0 1-.46.18c-.31 0-.71-.39-1.06-.45s-1.33-.11-1.54.38.58.57 1 .61c1.37.13 2.85.62 2.67 2.27s-1.71 2.24-3.14 2.4zM27.99 32.91a.51.51 0 0 1-.06-1l33.33-3.95a.49.49 0 0 1 .56.44.51.51 0 0 1-.44.56l-33.33 3.95h-.06zM27.99 64.63a.51.51 0 0 1-.06-1l33.33-3.95a.5.5 0 0 1 .56.44.51.51 0 0 1-.44.56l-33.33 3.94h-.06z"/><g><path class="grey" d="M119.26 49.66a4.08 4.08 0 0 1-4.32-3.9 4.36 4.36 0 1 1 4.32 3.9zm0-2.36c2.26 0 2.28-3.65 0-3.64s-2.25 3.64 0 3.64zM128.26 46.46l1.18-3.7a1.7 1.7 0 0 1 1.74-1.4c.42 0 1.46.37 1.49.91a6.45 6.45 0 0 1-.82 1.92l-2 4.62c-.48 1.12-2.74.87-3.28 0a15.3 15.3 0 0 1-.8-1.85l-2-4.7c-.1-.39 1.14-.82 1.39-.87a1.64 1.64 0 0 1 1.43.41 3.59 3.59 0 0 1 .71 1.55zM136.19 47.21a2.48 2.48 0 0 0 1.88.24 2.13 2.13 0 0 0 .78-.38 6.43 6.43 0 0 1 .49-.56 1.44 1.44 0 0 1 1.2.59 1.27 1.27 0 0 1 0 1.43c-.64 1-2.19 1.14-3.26 1.13a4.49 4.49 0 0 1-3.66-1.55 4.35 4.35 0 0 1 2.08-6.59 4.13 4.13 0 0 1 5.54 4c-.06 1.2-1.81.8-2.65.8h-3a1.49 1.49 0 0 0 .6.89zm2.25-2.53c-.1-1.84-2.69-1.72-2.92 0h2.92zM145.2 42.76c.42-1.24 2.05-2.11 3.14-1a1.82 1.82 0 0 1 .39 1.76 1.62 1.62 0 0 1-.6.9c-.4.22-.31.05-.69-.06-2.48-.7-2.12 2-2.12 3.67a1.39 1.39 0 0 1-1.68 1.49c-1.87 0-1.4-2.51-1.4-3.76v-4c0-.43 1.48-.36 1.72-.29a1.8 1.8 0 0 1 1.24 1.29c.15-.4-.07-.23 0 0zM154.74 43.69a1.09 1.09 0 0 1-1.25-1.22 1.16 1.16 0 0 1 1.43-1.11v-.77a1.39 1.39 0 0 1 1.64-1.49c1.41 0 1.38 1.21 1.38 2.26h.92a1.07 1.07 0 0 1 1.2 1.22c0 1.25-1.29 1.11-2.18 1.11v2.67c0 .86.68.9 1.29.59.39-.19.42-.37.74.14a1.44 1.44 0 0 1 .15 1.08c-.38 1.61-2.91 1.71-4.07 1s-1.07-2-1.07-3.12c0-.39.18-2.38-.18-2.36zM165.15 41.61a3 3 0 0 1 3.09 0 3.33 3.33 0 0 1 1.26 2.88v3.42a1.39 1.39 0 0 1-1.67 1.49c-2 0-1.41-3.11-1.41-4.45a1.11 1.11 0 0 0-1.54-1.19 1.36 1.36 0 0 0-.7 1.41v2.71a1.39 1.39 0 0 1-1.68 1.49c-1.32 0-1.4-1.08-1.4-2.09v-8.9c0-.6 1.95-.24 2.18-.1a2.34 2.34 0 0 1 .9 2.09v2.26a3.35 3.35 0 0 1 1-1zM173.84 47.1a2.48 2.48 0 0 0 1.88.24 2.13 2.13 0 0 0 .78-.38 6.43 6.43 0 0 1 .49-.56 1.44 1.44 0 0 1 1.2.59 1.27 1.27 0 0 1 0 1.43c-.64 1-2.19 1.14-3.26 1.13a4.49 4.49 0 0 1-3.67-1.55 4.35 4.35 0 0 1 2.08-6.59 4.13 4.13 0 0 1 5.54 4c-.06 1.2-1.81.8-2.65.8h-3a1.49 1.49 0 0 0 .61.89zm2.25-2.53c-.1-1.84-2.69-1.72-2.92 0h2.92zM185.35 52.24c-.42 0-1.62-.3-1.65-.87a2.49 2.49 0 0 1 .36-.75l.94-2c-1.1-.25-1.57-2.35-2-3.23l-1.48-3.37c-.09-.36 1-.77 1.24-.82a1.65 1.65 0 0 1 1.59.36 3.58 3.58 0 0 1 .68 1.45l1 3 1.23-3.45a1.72 1.72 0 0 1 2.52-1.18.82.82 0 0 1 .67.84 12.33 12.33 0 0 1-1.11 2.79l-2.32 5.86a1.82 1.82 0 0 1-1.67 1.37zM193.98 47a2.48 2.48 0 0 0 1.88.24 2.13 2.13 0 0 0 .78-.38 6.43 6.43 0 0 1 .49-.56 1.44 1.44 0 0 1 1.2.59 1.27 1.27 0 0 1 0 1.43c-.64 1-2.19 1.14-3.26 1.13a4.49 4.49 0 0 1-3.66-1.55 4.35 4.35 0 0 1 2.08-6.59 4.13 4.13 0 0 1 5.54 4c-.06 1.2-1.81.8-2.65.8h-3a1.49 1.49 0 0 0 .6.89zm2.28-2.53c-.1-1.84-2.69-1.72-2.92 0h2.92zM203.59 43.3a1.71 1.71 0 0 0-1.4.68 1.16 1.16 0 0 1-.28.37 1.76 1.76 0 0 1-.95-.07 1.28 1.28 0 0 1-.71-2.09c1.13-1.57 4.7-1.38 6.19-.56s1.44 2.43 1.44 3.89v3.5c0 .48-1.55.35-1.81.27a1.67 1.67 0 0 1-1.12-1.22c-1.36 2.22-5.78 1.55-5.28-1.46.38-2.24 3.4-2.28 5.15-2.26a1.12 1.12 0 0 0-1.23-1.05zm-.1 4.21a1.39 1.39 0 0 0 1.35-1.64h-.38c-.54 0-1.53 0-1.82.59a.77.77 0 0 0 .86 1.05zM212.2 42.59c.42-1.24 2.05-2.11 3.14-1a1.82 1.82 0 0 1 .39 1.76 1.62 1.62 0 0 1-.6.9c-.4.22-.31.05-.69-.06-2.48-.7-2.12 2-2.12 3.67a1.39 1.39 0 0 1-1.68 1.49c-1.87 0-1.4-2.51-1.4-3.76v-4c0-.43 1.48-.36 1.72-.29a1.8 1.8 0 0 1 1.24 1.35c.15-.51-.08-.33 0-.06z"/></g></svg>