<svg id="Layer_1" data-name="Layer 1" xmlns="http://www.w3.org/2000/svg" viewBox="0 0 585 480"><defs><style>.cls-1,.cls-11,.cls-12,.cls-5,.cls-6{fill:none;}.cls-1{stroke:#7d7d85;}.cls-1,.cls-10,.cls-11,.cls-5,.cls-6{stroke-miterlimit:10;}.cls-2{fill:#6d6d6d;}.cls-3{fill:#fa0e6a;}.cls-4{fill:#fff;}.cls-12,.cls-5,.cls-6{stroke:#cc1d62;}.cls-5{stroke-width:5px;}.cls-6{stroke-width:20px;}.cls-10,.cls-7{fill:#cc1d62;}.cls-8{fill:#ebebeb;}.cls-9{fill:#d8d8d8;}.cls-10,.cls-11{stroke:#fff;}.cls-10,.cls-11,.cls-12{stroke-linecap:round;stroke-width:2px;}.cls-12{stroke-linejoin:round;}.cls-13{fill:#7d7d85;}.cls-14{fill:#7d7d7d;}</style></defs><title>compare-savings.min</title><path class="cls-1" d="M426.9,368.7v17.5H147.1V368.7"/><circle class="cls-2" cx="55.8" cy="440.6" r="18.7"/><path class="cls-2" d="M86.9,435.1c0.2-.6.7-1.1,2.5-1.1s2.3,0.5,2.5,1.1l4.3,10.8c0.1,0.4-.9,1.3-2.1,1.3a2.61,2.61,0,0,1-2.3-1.9l-0.4-1H87.3l-0.4,1a2.23,2.23,0,0,1-2.2,1.8c-1.1,0-2.2-.9-2-1.2l4.2-10.8h0Zm3.8,6.4-1.4-3.7-1.4,3.7h2.8Zm6.1-5.6a1.54,1.54,0,0,1,1.6-1.8h0.4a2.14,2.14,0,0,1,1.8.9l4.6,6v-5.1a1.56,1.56,0,0,1,1.7-1.8h0.3a1.56,1.56,0,0,1,1.7,1.8v9.3a1.54,1.54,0,0,1-1.6,1.8H107a1.83,1.83,0,0,1-1.8-.9l-4.7-6.1v5.1a1.56,1.56,0,0,1-1.7,1.8H98.5a1.56,1.56,0,0,1-1.7-1.8v-9.2h0Zm19.9-2a6.7,6.7,0,1,1-6.8,6.7A6.54,6.54,0,0,1,116.7,433.9Zm0,9.8c1.7,0,2.8-1.2,2.8-3.2s-1.1-3.2-2.8-3.2a2.87,2.87,0,0,0-2.9,3.2A2.92,2.92,0,0,0,116.7,443.7Zm10.7-6.1h-2.2a1.56,1.56,0,0,1-1.8-1.7v-0.1c0-1.1.6-1.6,1.8-1.6h8.2a1.54,1.54,0,0,1,1.8,1.6v0.1a1.56,1.56,0,0,1-1.8,1.7h-2.1v7.6a1.59,1.59,0,0,1-1.8,1.8H129c-1.1,0-1.6-.6-1.6-1.8v-7.6Zm8.6-1.7a1.56,1.56,0,0,1,1.7-1.8h0.6a1.52,1.52,0,0,1,1.7,1.8v3h4.1v-3a1.56,1.56,0,0,1,1.7-1.8h0.6a1.56,1.56,0,0,1,1.7,1.8v9.3a1.56,1.56,0,0,1-1.7,1.8h-0.6a1.56,1.56,0,0,1-1.7-1.8v-3H140v3a1.56,1.56,0,0,1-1.7,1.8h-0.6a1.56,1.56,0,0,1-1.7-1.8v-9.3Zm13.5,0.4a1.9,1.9,0,0,1,2-2.2h6.8a1.52,1.52,0,0,1,1.8,1.7v0.1a1.56,1.56,0,0,1-1.8,1.7h-4.9v1.3h3.3c1.3,0,1.8.6,1.8,1.5v0.1a1.54,1.54,0,0,1-1.8,1.6h-3.3v1.5h5c1.2,0,1.8.5,1.8,1.6v0.1a1.56,1.56,0,0,1-1.8,1.7h-6.9c-1.3,0-2-.7-2-2.2v-8.5h0Zm11.8,0a1.9,1.9,0,0,1,2-2.2h4c3.6,0,5.4,1.5,5.4,4.2a3.69,3.69,0,0,1-2.8,3.8l2.9,3.6c0.1,0.2-.6,1.4-2.3,1.4-1.2,0-1.8-.5-2.7-1.7L166,443h-0.7v2.3a1.56,1.56,0,0,1-1.7,1.8H163c-1.1,0-1.7-.9-1.7-2.3v-8.5Zm5.6,3.8q1.8,0,1.8-1.5t-1.8-1.5h-1.6v3h1.6Zm9.9-3.8a1.9,1.9,0,0,1,2-2.2h3.4c3.7,0,5.7,1.6,5.7,4.7s-1.9,4.6-5.6,4.6h-1.5v1.9a1.56,1.56,0,0,1-1.7,1.8h-0.6a1.56,1.56,0,0,1-1.7-1.8v-9h0Zm5.3,4.2a1.56,1.56,0,0,0,1.8-1.7,1.64,1.64,0,0,0-1.9-1.7h-1.4v3.3h1.5v0.1Zm12.8-6.6a6.7,6.7,0,1,1-6.8,6.7A6.54,6.54,0,0,1,194.9,433.9Zm0,9.8c1.7,0,2.8-1.2,2.8-3.2s-1.1-3.2-2.8-3.2a2.87,2.87,0,0,0-2.9,3.2C192.1,442.4,193.2,443.7,194.9,443.7Zm6.8-8.3a2.6,2.6,0,0,1,2.5-1.3,2.2,2.2,0,0,1,2.2,2.1l1.1,5.5,1.3-5c0.2-1,1.1-1.4,2.2-1.4a2,2,0,0,1,2.1,1.4l1.3,5,1.1-5.6a2.24,2.24,0,0,1,2.2-2.1,2.34,2.34,0,0,1,2.3,1.3l-2.9,10.1a2.51,2.51,0,0,1-4.6,0l-1.5-5.3-1.5,5.3c-0.3,1.2-1.2,1.5-2.4,1.5s-2-.3-2.3-1.5l-3.1-10h0Zm19.4,0.9a1.9,1.9,0,0,1,2-2.2h6.8a1.52,1.52,0,0,1,1.8,1.7v0.1a1.56,1.56,0,0,1-1.8,1.7H225v1.3h3.3c1.3,0,1.8.6,1.8,1.5v0.1a1.54,1.54,0,0,1-1.8,1.6H225v1.5h5c1.2,0,1.8.5,1.8,1.6v0.1A1.56,1.56,0,0,1,230,447h-6.9c-1.3,0-2-.7-2-2.2v-8.5h0Zm11.9,0a1.9,1.9,0,0,1,2-2.2h4c3.6,0,5.4,1.5,5.4,4.2a3.69,3.69,0,0,1-2.8,3.8l2.9,3.6c0.1,0.2-.6,1.4-2.3,1.4-1.2,0-1.8-.5-2.7-1.7l-1.8-2.4H237v2.3a1.56,1.56,0,0,1-1.7,1.8h-0.6c-1.1,0-1.7-.9-1.7-2.3v-8.5h0Zm5.5,3.8q1.8,0,1.8-1.5t-1.8-1.5h-1.6v3h1.6Zm16.3-6.2c3.6,0,5,1.9,5,3.1a2.11,2.11,0,0,1-2.3,1.9,2.74,2.74,0,0,0-2.5-1.4,3.1,3.1,0,1,0,2.6,4.7c0.1-.1,2.3.3,2.3,1.9,0,1.2-1.4,3.2-5.1,3.2a6.7,6.7,0,0,1,0-13.4h0Zm12.3,0a6.7,6.7,0,1,1-6.8,6.7A6.54,6.54,0,0,1,267.1,433.9Zm0,9.8c1.7,0,2.8-1.2,2.8-3.2s-1.1-3.2-2.8-3.2a2.87,2.87,0,0,0-2.9,3.2C264.3,442.4,265.4,443.7,267.1,443.7Zm7.8-7.8a1.62,1.62,0,0,1,1.8-1.9h1.1a1.61,1.61,0,0,1,1.8,1.1l2.1,5.1,2.1-5.1a1.52,1.52,0,0,1,1.7-1.1h1.1a1.62,1.62,0,0,1,1.8,1.9v9.3c0,1.2-.4,1.8-1.5,1.8h-0.6c-1.1,0-1.5-.6-1.5-1.8v-5.5l-1.3,3.8c-0.2.5-.2,1-1.7,1s-1.4-.5-1.7-1l-1.3-3.6v5.3c0,1.2-.4,1.8-1.5,1.8h-0.6c-1.1,0-1.5-.6-1.5-1.8v-9.3h-0.3Zm14.9,0.4a1.9,1.9,0,0,1,2-2.2h3.4c3.7,0,5.7,1.6,5.7,4.7s-1.9,4.6-5.6,4.6h-1.5v1.9a1.56,1.56,0,0,1-1.7,1.8h-0.6a1.56,1.56,0,0,1-1.7-1.8v-9h0Zm5.4,4.2a1.56,1.56,0,0,0,1.8-1.7,1.64,1.64,0,0,0-1.9-1.7h-1.4v3.3h1.5v0.1Zm9-5.4c0.2-.6.7-1.1,2.5-1.1s2.3,0.5,2.5,1.1l4.3,10.8c0.1,0.4-.9,1.3-2.1,1.3a2.61,2.61,0,0,1-2.3-1.9l-0.4-1h-4.1l-0.4,1a2.23,2.23,0,0,1-2.2,1.8c-1.1,0-2.2-.9-2-1.2l4.2-10.8h0Zm3.8,6.4-1.4-3.7-1.4,3.7H308Zm6.1-5.6a1.54,1.54,0,0,1,1.6-1.8h0.4a2.14,2.14,0,0,1,1.8.9l4.6,6v-5.1a1.56,1.56,0,0,1,1.7-1.8h0.3a1.56,1.56,0,0,1,1.7,1.8v9.3a1.54,1.54,0,0,1-1.6,1.8h-0.3a1.83,1.83,0,0,1-1.8-.9l-4.7-6.1v5.1a1.56,1.56,0,0,1-1.7,1.8h-0.3a1.56,1.56,0,0,1-1.7-1.8v-9.2h0Zm17,6-4.5-6.4c-0.1-.2.6-1.5,2.6-1.5a2.26,2.26,0,0,1,1.9,1.4l2,3.4,2.1-3.4a2.26,2.26,0,0,1,1.9-1.4c1.8,0,2.6,1.3,2.5,1.5l-4.4,6.4v3.3a1.56,1.56,0,0,1-1.7,1.8h-0.6a1.56,1.56,0,0,1-1.7-1.8v-3.3h-0.1Z"/><path class="cls-3" d="M417.7,436.1a1.9,1.9,0,0,1,2-2.2h3.4c3.7,0,5.7,1.6,5.7,4.7s-1.9,4.6-5.6,4.6h-1.5v1.9a1.56,1.56,0,0,1-1.7,1.8h-0.6a1.56,1.56,0,0,1-1.7-1.8v-9h0Zm5.4,4.1a1.56,1.56,0,0,0,1.8-1.7,1.64,1.64,0,0,0-1.9-1.7h-1.4v3.3h1.5v0.1Zm12.8-6.6a6.7,6.7,0,1,1-6.8,6.7A6.54,6.54,0,0,1,435.9,433.6Zm0,9.8c1.7,0,2.8-1.2,2.8-3.2s-1.1-3.2-2.8-3.2a2.87,2.87,0,0,0-2.9,3.2C433,442.2,434.1,443.4,435.9,443.4Zm6.8-8.2a2.6,2.6,0,0,1,2.5-1.3,2.2,2.2,0,0,1,2.2,2.1l1.1,5.5,1.3-5c0.2-1,1.1-1.4,2.2-1.4a2,2,0,0,1,2.1,1.4l1.3,5,1.1-5.6a2.24,2.24,0,0,1,2.2-2.1,2.34,2.34,0,0,1,2.3,1.3l-2.9,10.1a2.51,2.51,0,0,1-4.6,0l-1.5-5.3-1.5,5.3c-0.3,1.2-1.2,1.5-2.4,1.5s-2-.3-2.3-1.5l-3.1-10h0Zm19.4,0.9a1.9,1.9,0,0,1,2-2.2h6.8a1.52,1.52,0,0,1,1.8,1.7v0.1a1.56,1.56,0,0,1-1.8,1.7H466v1.3h3.3c1.3,0,1.8.6,1.8,1.5v0.1a1.54,1.54,0,0,1-1.8,1.6H466v1.5h5c1.2,0,1.8.5,1.8,1.6v0.1a1.56,1.56,0,0,1-1.8,1.7h-6.9c-1.3,0-2-.7-2-2.2v-8.5h0Zm11.8,0a1.9,1.9,0,0,1,2-2.2h4c3.6,0,5.4,1.5,5.4,4.2a3.69,3.69,0,0,1-2.8,3.8l2.9,3.6c0.1,0.2-.6,1.4-2.3,1.4-1.2,0-1.8-.5-2.7-1.7l-1.8-2.4h-0.7v2.3a1.56,1.56,0,0,1-1.7,1.8h-0.6c-1.1,0-1.7-.9-1.7-2.3v-8.5h0Zm5.6,3.8q1.8,0,1.8-1.5t-1.8-1.5h-1.6v3h1.6Zm7.7,2.6A5.94,5.94,0,0,0,491,444c1.2,0,1.8-.4,1.8-1,0-.8-1-0.8-2.3-1.1-2.1-.4-4.3-1.3-4.3-4s1.9-4.3,5.5-4.3c3.4,0,4.8,1.2,4.8,2.4a2.54,2.54,0,0,1-1.4,2,5.44,5.44,0,0,0-3.4-1.4c-1.2,0-1.7.4-1.7,1,0,0.8,1,.7,2.4,1,2.5,0.6,4.4,1.6,4.4,4,0,2.8-1.9,4.4-5.8,4.4s-5.1-1.3-5.1-2.6a2.47,2.47,0,0,1,1.3-1.9h0Zm10.5-6.9a1.56,1.56,0,0,1,1.7-1.8H500a1.52,1.52,0,0,1,1.7,1.8v3h4.1v-3a1.56,1.56,0,0,1,1.7-1.8h0.6a1.56,1.56,0,0,1,1.7,1.8v9.3a1.56,1.56,0,0,1-1.7,1.8h-0.6a1.56,1.56,0,0,1-1.7-1.8v-3h-4.1v3a1.56,1.56,0,0,1-1.7,1.8h-0.6a1.56,1.56,0,0,1-1.7-1.8v-9.3Zm19.8-2a6.7,6.7,0,1,1-6.8,6.7A6.54,6.54,0,0,1,517.5,433.6Zm0,9.8c1.7,0,2.8-1.2,2.8-3.2s-1.1-3.2-2.8-3.2a2.87,2.87,0,0,0-2.9,3.2C514.7,442.2,515.8,443.4,517.5,443.4Zm7.8-7.3a1.9,1.9,0,0,1,2-2.2h3.4c3.7,0,5.7,1.6,5.7,4.7s-1.9,4.6-5.6,4.6h-1.5v1.9a1.56,1.56,0,0,1-1.7,1.8H527a1.56,1.56,0,0,1-1.7-1.8v-9h0Zm5.4,4.1a1.56,1.56,0,0,0,1.8-1.7,1.64,1.64,0,0,0-1.9-1.7h-1.4v3.3h1.5v0.1Z"/><path class="cls-4" d="M58.6,427.6L48.3,441.8l7.3-.1L52,453.5l11.3-15.8H56.1"/><circle class="cls-3" cx="390" cy="440.6" r="18.7"/><path class="cls-4" d="M390,430.7a9.9,9.9,0,1,0,9.9,9.9A9.86,9.86,0,0,0,390,430.7Zm-6.8,8.7a0.48,0.48,0,0,1,0-.7l3.8-3.6a0.48,0.48,0,0,1,.7,0l0.8,0.9a0.48,0.48,0,0,1,0,.7l-3.8,3.6a0.48,0.48,0,0,1-.7,0Zm12.3,5.7a7.12,7.12,0,0,1-11,0c-0.6-.8-0.2-1,0.1-1.3a0.86,0.86,0,0,1,1.3.1,5.12,5.12,0,0,0,4,1.9,5,5,0,0,0,4-1.9,0.86,0.86,0,0,1,1.3-.1c0.5,0.3.9,0.5,0.3,1.3h0Zm0.9-5.7-0.8.9a0.48,0.48,0,0,1-.7,0l-3.8-3.6a0.48,0.48,0,0,1,0-.7l0.8-.9a0.48,0.48,0,0,1,.7,0l3.8,3.6A0.85,0.85,0,0,1,396.4,439.4Z"/><path class="cls-4" d="M390,428.4a12.2,12.2,0,1,0,12.2,12.2A12.18,12.18,0,0,0,390,428.4Zm0,23.2a11,11,0,1,1,11-11A11,11,0,0,1,390,451.6Z"/><path class="cls-5" d="M240.3,192.4H286a5,5,0,0,1,5,5v59.5a5,5,0,0,0,5,5h45"/><path class="cls-6" d="M243.3,166.9h91.4"/><path class="cls-7" d="M73.9,232.8H213.3v13.3H73.9V232.8Z"/><path class="cls-3" d="M45.7,280.5H241.6a6,6,0,0,0,6-6V248.9a6,6,0,0,0-6-6H45.7a6,6,0,0,0-6,6v25.6A6,6,0,0,0,45.7,280.5Zm0-44.5H242.6a6,6,0,0,0,6-6V101.9a6,6,0,0,0-6-6H45.7a6,6,0,0,0-6,6V230A6,6,0,0,0,45.7,236Z"/><path class="cls-4" d="M88.8,112.4H230.9a2.22,2.22,0,0,1,2.2,2.2V217.2a2.22,2.22,0,0,1-2.2,2.2H88.8a2.22,2.22,0,0,1-2.2-2.2V114.5A2.14,2.14,0,0,1,88.8,112.4Z"/><path class="cls-7" d="M89.6,270a2.69,2.69,0,0,1-2.7-2.7v-9a2.69,2.69,0,0,1,2.7-2.7H228.8a2.69,2.69,0,0,1,2.7,2.7v9a2.69,2.69,0,0,1-2.7,2.7H89.6Z"/><path class="cls-4" d="M228.8,256.7a1.69,1.69,0,0,1,1.7,1.7v9a1.69,1.69,0,0,1-1.7,1.7H89.6a1.69,1.69,0,0,1-1.7-1.7v-9a1.69,1.69,0,0,1,1.7-1.7H228.8m0-2H89.6a3.69,3.69,0,0,0-3.7,3.7v9a3.69,3.69,0,0,0,3.7,3.7H228.8a3.69,3.69,0,0,0,3.7-3.7v-9a3.76,3.76,0,0,0-3.7-3.7h0Z"/><circle class="cls-4" cx="63.2" cy="262.9" r="9.1"/><path class="cls-3" d="M57.4,262.9a5.9,5.9,0,1,1,5.9,5.9A6,6,0,0,1,57.4,262.9Zm1.2,0a4.7,4.7,0,1,0,4.7-4.7A4.76,4.76,0,0,0,58.6,262.9Z"/><path class="cls-3" d="M63.3,263.5a0.65,0.65,0,0,0,.6-0.6v-5.3a0.6,0.6,0,1,0-1.2,0v5.3A0.65,0.65,0,0,0,63.3,263.5Z"/><circle class="cls-4" cx="63.2" cy="121.4" r="9.1"/><path class="cls-3" d="M59,125.3a5.95,5.95,0,1,1,8.4.4A6,6,0,0,1,59,125.3Zm0.8-.8a4.67,4.67,0,1,0,.3-6.6A4.72,4.72,0,0,0,59.8,124.5Z"/><path class="cls-3" d="M63.7,121.8a0.63,0.63,0,0,0,0-.9L60.1,117a0.64,0.64,0,1,0-.9.9l3.6,3.9A0.75,0.75,0,0,0,63.7,121.8Z"/><circle class="cls-4" cx="63.2" cy="145" r="9.1"/><path class="cls-3" d="M59.3,140.7a5.95,5.95,0,1,1-.4,8.4A6,6,0,0,1,59.3,140.7Zm0.8,0.9a4.67,4.67,0,1,0,6.6.3A4.71,4.71,0,0,0,60.1,141.6Z"/><path class="cls-3" d="M62.8,145.5a0.63,0.63,0,0,0,.9,0l3.9-3.6a0.64,0.64,0,0,0-.9-0.9l-3.9,3.6A0.75,0.75,0,0,0,62.8,145.5Z"/><path class="cls-7" d="M366.4,232.8H505.8v13.3H366.4V232.8ZM248.6,153.4h8.1v26.9h-8.1V153.4Zm74.4,0h8.1v26.9H323V153.4Z"/><path class="cls-3" d="M534,280.5H338.1a6,6,0,0,1-6-6V248.9a6,6,0,0,1,6-6H534a6,6,0,0,1,6,6v25.6A6,6,0,0,1,534,280.5Zm0-44.5H337.1a6,6,0,0,1-6-6V101.9a6,6,0,0,1,6-6H534a6,6,0,0,1,6,6V230A6,6,0,0,1,534,236Z"/><path class="cls-4" d="M490.9,112.4H348.8a2.22,2.22,0,0,0-2.2,2.2V217.2a2.22,2.22,0,0,0,2.2,2.2H490.9a2.22,2.22,0,0,0,2.2-2.2V114.5A2.14,2.14,0,0,0,490.9,112.4Z"/><path class="cls-2" d="M365.3,163h46.6v45.7H365.3V163Z"/><path class="cls-3" d="M425.8,159.1h46.6v49.7H425.8V159.1Z"/><circle class="cls-3" cx="449.1" cy="183.6" r="14.3"/><path class="cls-4" d="M449.1,176.1a7.6,7.6,0,1,0,7.6,7.6A7.6,7.6,0,0,0,449.1,176.1Zm-5.2,6.7a0.45,0.45,0,0,1,0-.5l2.9-2.7a0.45,0.45,0,0,1,.5,0l0.6,0.7a0.45,0.45,0,0,1,0,.5l-2.9,2.7a0.45,0.45,0,0,1-.5,0Zm9.4,4.3a5.32,5.32,0,0,1-4.2,2,5,5,0,0,1-4.2-2c-0.4-.6-0.2-0.8.1-1a0.68,0.68,0,0,1,1,.1,3.89,3.89,0,0,0,3.1,1.5,4.2,4.2,0,0,0,3.1-1.5,0.68,0.68,0,0,1,1-.1C453.5,186.3,453.8,186.5,453.3,187.1Zm0.7-4.3-0.6.7c-0.1.1-.4,0.2-0.5,0l-2.9-2.7c-0.1-.1-0.2-0.4,0-0.5l0.6-.7c0.1-.1.4-0.2,0.5,0l2.9,2.7A0.45,0.45,0,0,1,454,182.8Z"/><path class="cls-4" d="M449.1,174.3a9.3,9.3,0,1,0,9.3,9.3A9.28,9.28,0,0,0,449.1,174.3Zm0,17.7a8.4,8.4,0,1,1,8.4-8.4A8.45,8.45,0,0,1,449.1,192Z"/><circle class="cls-2" cx="388.6" cy="186.2" r="14.3"/><path class="cls-4" d="M390.8,176.3l-7.9,10.8h5.6l-2.8,9,8.6-12.1h-5.5"/><path class="cls-2" d="M367,153a5,5,0,0,0,2.8,1c0.9,0,1.3-.2,1.3-0.7s-0.7-.7-1.6-0.9c-1.2-.3-3.1-0.8-3.1-2.9,0-1.5.9-2.5,2.6-2.9v-0.3c0-.9.3-1.4,1.2-1.4h0.1c0.9,0,1.2.5,1.2,1.4v0.3c1.6,0.2,2.5.8,2.5,1.8a1.62,1.62,0,0,1-1,1.4,4,4,0,0,0-2.5-1c-0.8,0-1.2.3-1.2,0.7s0.7,0.6,1.7.8c1.3,0.3,3.2.8,3.2,2.8q0,2.4-2.7,3v0.4c0,0.9-.3,1.4-1.2,1.4H370c-0.9,0-1.2-.5-1.2-1.4v-0.3c-1.8-.2-2.8-0.9-2.8-1.9a1.59,1.59,0,0,1,1-1.3h0Zm9.5-3.1a1.85,1.85,0,0,1-.7.2,1.55,1.55,0,0,1-.7-2.9,1.69,1.69,0,0,0,1,.3,1.39,1.39,0,0,0,1.4-1.1h0.8a1.19,1.19,0,0,1,1.3,1.4V155a1.24,1.24,0,0,1-1.3,1.4h-0.4a1.24,1.24,0,0,1-1.3-1.4v-5.1h-0.1Zm4.8,5c0.2-.8.4-1.2,1.3-1.2h0.3a1,1,0,0,1,1.1,1.2V155a1.89,1.89,0,0,1-.7,1.4l-1.2,1.4a0.91,0.91,0,0,1-1.5-.7l0.7-2.2h0Zm4.3-1.7a3.63,3.63,0,0,0,2.6,1.1c1,0,1.6-.4,1.6-1.2s-0.5-1.2-1.6-1.2a3.11,3.11,0,0,0-1.7.5,1.56,1.56,0,0,1-1.8-1.7v-2.6c0-1.1.4-1.7,1.4-1.7h4.5q1.5,0,1.5,1.2v0.1q0,1.2-1.5,1.2h-3.5v1.5a3.89,3.89,0,0,1,1.5-.2c2.3,0,3.8,1.2,3.8,3.1s-1.6,3.3-4.2,3.3-3.8-.9-3.8-1.9a2.14,2.14,0,0,1,1.2-1.5h0Zm7.4-2.3a4.5,4.5,0,1,1,9,0v0.9a4.23,4.23,0,0,1-4.5,4.6c-2.9,0-4.5-1.8-4.5-4.6v-0.9Zm4.5,3.2c1,0,1.5-.7,1.5-1.9v-1.5c0-1.3-.5-2-1.5-2s-1.5.6-1.5,2v1.5C396,153.4,396.5,154.1,397.5,154.1Zm5.1-3.2a4.5,4.5,0,1,1,9,0v0.9a4.23,4.23,0,0,1-4.5,4.6c-2.9,0-4.5-1.8-4.5-4.6v-0.9Zm4.5,3.2c1,0,1.5-.7,1.5-1.9v-1.5c0-1.3-.5-2-1.5-2s-1.5.6-1.5,2v1.5C405.6,153.4,406.1,154.1,407.1,154.1Z"/><path class="cls-2" d="M107.3,139.7h46.6v69H107.3v-69Z"/><path class="cls-3" d="M167.8,158.6h46.6v50.2H167.8V158.6Z"/><circle class="cls-3" cx="191.1" cy="183.7" r="14.3"/><path class="cls-4" d="M191.1,176.2a7.6,7.6,0,1,0,7.6,7.6A7.6,7.6,0,0,0,191.1,176.2Zm-5.2,6.6a0.45,0.45,0,0,1,0-.5l2.9-2.7a0.45,0.45,0,0,1,.5,0l0.6,0.7a0.45,0.45,0,0,1,0,.5l-2.9,2.7a0.45,0.45,0,0,1-.5,0Zm9.4,4.3a5.32,5.32,0,0,1-4.2,2,5,5,0,0,1-4.2-2c-0.4-.6-0.2-0.8.1-1a0.68,0.68,0,0,1,1,.1,3.89,3.89,0,0,0,3.1,1.5,4.2,4.2,0,0,0,3.1-1.5,0.68,0.68,0,0,1,1-.1,0.6,0.6,0,0,1,.1,1h0Zm0.7-4.3-0.6.7c-0.1.1-.4,0.2-0.5,0l-2.9-2.7c-0.1-.1-0.2-0.4,0-0.5l0.6-.7c0.1-.1.4-0.2,0.5,0l2.9,2.7A0.45,0.45,0,0,1,196,182.8Z"/><path class="cls-4" d="M191.1,174.4a9.3,9.3,0,1,0,9.3,9.3A9.28,9.28,0,0,0,191.1,174.4Zm0,17.7a8.4,8.4,0,1,1,8.4-8.4A8.45,8.45,0,0,1,191.1,192.1Z"/><circle class="cls-2" cx="130.6" cy="173.8" r="14.3"/><path class="cls-4" d="M132.7,163.9l-7.8,10.8h5.5l-2.7,8.9,8.6-12.1-5.5.1"/><path class="cls-3" d="M169.1,149.1a5,5,0,0,0,2.8,1c0.9,0,1.3-.2,1.3-0.7s-0.7-.7-1.6-0.9c-1.2-.3-3.1-0.8-3.1-2.9,0-1.5.9-2.5,2.6-2.9v-0.3c0-.9.3-1.4,1.2-1.4h0.1c0.9,0,1.2.5,1.2,1.4v0.3c1.6,0.2,2.5.8,2.5,1.8a1.62,1.62,0,0,1-1,1.4,4,4,0,0,0-2.5-1c-0.8,0-1.2.3-1.2,0.7s0.7,0.6,1.7.8c1.3,0.3,3.2.8,3.2,2.8q0,2.4-2.7,3v0.4c0,0.9-.3,1.4-1.2,1.4h-0.1c-0.9,0-1.2-.5-1.2-1.4v-0.3c-1.8-.2-2.8-0.9-2.8-1.9a1.35,1.35,0,0,1,.8-1.3h0Zm9.6-3.1a1.85,1.85,0,0,1-.7.2,1.55,1.55,0,0,1-.7-2.9,1.69,1.69,0,0,0,1,.3,1.39,1.39,0,0,0,1.4-1.1h0.8a1.19,1.19,0,0,1,1.3,1.4v7.2a1.24,1.24,0,0,1-1.3,1.4h-0.4a1.24,1.24,0,0,1-1.3-1.4V146h-0.1Zm4.8,5c0.2-.8.4-1.2,1.3-1.2h0.3a1,1,0,0,1,1.1,1.2v0.1a1.89,1.89,0,0,1-.7,1.4l-1.2,1.4a0.91,0.91,0,0,1-1.5-.7l0.7-2.2h0Zm4.3-1.6a3.63,3.63,0,0,0,2.6,1.1c1,0,1.6-.4,1.6-1.2s-0.5-1.2-1.6-1.2a3.11,3.11,0,0,0-1.7.5,1.56,1.56,0,0,1-1.8-1.7v-2.6c0-1.1.4-1.7,1.4-1.7h4.5q1.5,0,1.5,1.2v0.1q0,1.2-1.5,1.2h-3.5v1.5a3.89,3.89,0,0,1,1.5-.2c2.3,0,3.8,1.2,3.8,3.1s-1.6,3.3-4.2,3.3-3.8-.9-3.8-1.9a1.75,1.75,0,0,1,1.2-1.5h0Zm8.3,0a3.63,3.63,0,0,0,2.6,1.1c1,0,1.6-.4,1.6-1.2s-0.5-1.2-1.6-1.2a3.11,3.11,0,0,0-1.7.5,1.56,1.56,0,0,1-1.8-1.7v-2.6c0-1.1.4-1.7,1.4-1.7h4.5q1.5,0,1.5,1.2v0.1q0,1.2-1.5,1.2h-3.5v1.5a3.89,3.89,0,0,1,1.5-.2c2.3,0,3.8,1.2,3.8,3.1s-1.6,3.3-4.2,3.3-3.8-.9-3.8-1.9a1.62,1.62,0,0,1,1.2-1.5h0Zm7.3-2.3a4.5,4.5,0,1,1,9,0V148a4.23,4.23,0,0,1-4.5,4.6c-2.9,0-4.5-1.8-4.5-4.6v-0.9Zm4.6,3.1c1,0,1.5-.7,1.5-1.9v-1.5c0-1.3-.5-2-1.5-2s-1.5.6-1.5,2v1.5C206.5,149.6,207,150.2,208,150.2Z"/><path class="cls-2" d="M108.6,129.1a5,5,0,0,0,2.8,1c0.9,0,1.3-.2,1.3-0.7s-0.7-.7-1.6-0.9c-1.2-.3-3.1-0.8-3.1-2.9,0-1.5.9-2.5,2.6-2.9v-0.3c0-.9.3-1.4,1.2-1.4h0.1c0.9,0,1.2.5,1.2,1.4v0.3c1.6,0.2,2.5.8,2.5,1.8a1.62,1.62,0,0,1-1,1.4,4,4,0,0,0-2.5-1c-0.8,0-1.2.3-1.2,0.7s0.7,0.6,1.7.8c1.3,0.3,3.2.8,3.2,2.8q0,2.4-2.7,3v0.4c0,0.9-.3,1.4-1.2,1.4h-0.1c-0.9,0-1.2-.5-1.2-1.4v-0.3c-1.8-.2-2.8-0.9-2.8-1.9A1.35,1.35,0,0,1,108.6,129.1Zm9.6-3.1a1.85,1.85,0,0,1-.7.2,1.55,1.55,0,0,1-.7-2.9,1.69,1.69,0,0,0,1,.3,1.39,1.39,0,0,0,1.4-1.1H120a1.19,1.19,0,0,1,1.3,1.4v7.2a1.24,1.24,0,0,1-1.3,1.4h-0.4a1.24,1.24,0,0,1-1.3-1.4V126h-0.1Zm4.8,5c0.2-.8.4-1.2,1.3-1.2h0.3a1,1,0,0,1,1.1,1.2v0.1a1.89,1.89,0,0,1-.7,1.4l-1.2,1.4a0.91,0.91,0,0,1-1.5-.7Zm8-5.9h-3.5a1.06,1.06,0,0,1-1.3-1.2v-0.2a1.07,1.07,0,0,1,1.3-1.1h4.7c1.8,0,2,.8,2,1.6v0.2a4.78,4.78,0,0,1-1,2.3l-2.7,4.8a1.85,1.85,0,0,1-1.5,1.1,1.93,1.93,0,0,1-1.7-1Zm3.5,2a4.5,4.5,0,1,1,9,0V128a4.23,4.23,0,0,1-4.5,4.6c-2.9,0-4.5-1.8-4.5-4.6v-0.9Zm4.5,3.1c1,0,1.5-.7,1.5-1.9v-1.5c0-1.3-.5-2-1.5-2s-1.5.6-1.5,2v1.5C137.5,129.6,138,130.2,139,130.2Zm5.1-3.1a4.5,4.5,0,1,1,9,0V128a4.23,4.23,0,0,1-4.5,4.6c-2.9,0-4.5-1.8-4.5-4.6v-0.9Zm4.5,3.1c1,0,1.5-.7,1.5-1.9v-1.5c0-1.3-.5-2-1.5-2s-1.5.6-1.5,2v1.5C147.1,129.6,147.6,130.2,148.6,130.2Z"/><path class="cls-3" d="M427.2,149.1a5,5,0,0,0,2.8,1c0.9,0,1.3-.2,1.3-0.7s-0.7-.7-1.6-0.9c-1.2-.3-3.1-0.8-3.1-2.9,0-1.5.9-2.5,2.6-2.9v-0.3c0-.9.3-1.4,1.2-1.4h0.1c0.9,0,1.2.5,1.2,1.4v0.3c1.6,0.2,2.5.8,2.5,1.8a1.62,1.62,0,0,1-1,1.4,4,4,0,0,0-2.5-1c-0.8,0-1.2.3-1.2,0.7s0.7,0.6,1.7.8c1.3,0.3,3.2.8,3.2,2.8q0,2.4-2.7,3v0.4c0,0.9-.3,1.4-1.2,1.4h-0.1c-0.9,0-1.2-.5-1.2-1.4v-0.3c-1.8-.2-2.8-0.9-2.8-1.9a1.23,1.23,0,0,1,.8-1.3h0Zm9.5-3.1a1.85,1.85,0,0,1-.7.2,1.55,1.55,0,0,1-.7-2.9,1.69,1.69,0,0,0,1,.3,1.39,1.39,0,0,0,1.4-1.1h0.8a1.19,1.19,0,0,1,1.3,1.4v7.2a1.24,1.24,0,0,1-1.3,1.4H438a1.24,1.24,0,0,1-1.3-1.4V146h0Zm4.8,5c0.2-.8.4-1.2,1.3-1.2h0.3a1,1,0,0,1,1.1,1.2v0.1a1.89,1.89,0,0,1-.7,1.4l-1.2,1.4a0.91,0.91,0,0,1-1.5-.7l0.7-2.2h0Zm4.3-1.6a3.63,3.63,0,0,0,2.6,1.1c1,0,1.6-.4,1.6-1.2s-0.5-1.2-1.6-1.2a3.11,3.11,0,0,0-1.7.5,1.56,1.56,0,0,1-1.8-1.7v-2.6c0-1.1.4-1.7,1.4-1.7h4.5q1.5,0,1.5,1.2v0.1q0,1.2-1.5,1.2h-3.5v1.5a3.89,3.89,0,0,1,1.5-.2c2.3,0,3.8,1.2,3.8,3.1s-1.6,3.3-4.2,3.3-3.8-.9-3.8-1.9a1.75,1.75,0,0,1,1.2-1.5h0Zm8.3,0a3.63,3.63,0,0,0,2.6,1.1c1,0,1.6-.4,1.6-1.2s-0.5-1.2-1.6-1.2a3.11,3.11,0,0,0-1.7.5,1.56,1.56,0,0,1-1.8-1.7v-2.6c0-1.1.4-1.7,1.4-1.7h4.5q1.5,0,1.5,1.2v0.1q0,1.2-1.5,1.2h-3.5v1.5a3.89,3.89,0,0,1,1.5-.2c2.3,0,3.8,1.2,3.8,3.1s-1.6,3.3-4.2,3.3-3.8-.9-3.8-1.9a1.75,1.75,0,0,1,1.2-1.5h0Zm7.3-2.3a4.5,4.5,0,1,1,9,0V148a4.23,4.23,0,0,1-4.5,4.6c-2.9,0-4.5-1.8-4.5-4.6v-0.9Zm4.6,3.1c1,0,1.5-.7,1.5-1.9v-1.5c0-1.3-.5-2-1.5-2s-1.5.6-1.5,2v1.5C464.5,149.6,465,150.2,466,150.2Z"/><path class="cls-7" d="M350.9,270a2.69,2.69,0,0,1-2.7-2.7v-9a2.69,2.69,0,0,1,2.7-2.7H490.1a2.69,2.69,0,0,1,2.7,2.7v9a2.69,2.69,0,0,1-2.7,2.7H350.9Z"/><path class="cls-4" d="M490.1,256.7a1.69,1.69,0,0,1,1.7,1.7v9a1.69,1.69,0,0,1-1.7,1.7H350.9a1.69,1.69,0,0,1-1.7-1.7v-9a1.69,1.69,0,0,1,1.7-1.7H490.1m0-2H350.9a3.69,3.69,0,0,0-3.7,3.7v9a3.69,3.69,0,0,0,3.7,3.7H490.1a3.69,3.69,0,0,0,3.7-3.7v-9a3.69,3.69,0,0,0-3.7-3.7h0Z"/><path class="cls-8" d="M354.8,262.9H486.2v85.9H354.8V262.9Z"/><path class="cls-3" d="M366.6,281a2.67,2.67,0,0,1,2.6-1.4,2.45,2.45,0,0,1,2.3,2.2l1.1,5.7,1.4-5.2a2.14,2.14,0,0,1,2.3-1.5,2.2,2.2,0,0,1,2.2,1.5l1.4,5.2,1.1-5.8a2.22,2.22,0,0,1,2.2-2.1c1.6,0,2.5,1.2,2.4,1.4l-3,10.5a2.6,2.6,0,0,1-4.8,0l-1.6-5.5-1.5,5.5a2.13,2.13,0,0,1-2.4,1.6c-1.3,0-2.1-.3-2.4-1.6L366.6,281h0Zm20.1,0.9c0-1.5.7-2.3,2.1-2.3h7.1a1.64,1.64,0,0,1,1.9,1.7v0.1c0,1.1-.6,1.7-1.9,1.7h-5.1v1.3h3.4c1.4,0,1.9.6,1.9,1.6v0.1c0,1.1-.6,1.7-1.9,1.7h-3.4v1.5H396c1.3,0,1.9.6,1.9,1.6V291a1.66,1.66,0,0,1-1.9,1.8h-7.2c-1.4,0-2.1-.8-2.1-2.3v-8.6h0Zm22-2.5c3.8,0,5.2,2,5.2,3.2,0,1.7-2.3,2.1-2.4,2a2.79,2.79,0,0,0-2.6-1.5,2.94,2.94,0,0,0-3,3.2,3,3,0,0,0,3,3.2,2.82,2.82,0,0,0,2.7-1.6c0.1-.1,2.4.3,2.4,2,0,1.3-1.5,3.3-5.3,3.3a6.9,6.9,0,1,1,0-13.8h0Zm6.3,2.5c0-1.5.7-2.3,2.1-2.3h4.1c3.7,0,5.5,1.5,5.5,4.4a3.78,3.78,0,0,1-2.9,3.9l3,3.7c0.1,0.2-.6,1.4-2.4,1.4-1.3,0-1.9-.6-2.8-1.7l-1.9-2.5H419v2.3a1.66,1.66,0,0,1-1.8,1.9h-0.6c-1.1,0-1.7-.9-1.7-2.4v-8.7H415Zm5.8,4a1.52,1.52,0,0,0,1.8-1.5c0-1-.6-1.6-1.9-1.6H419v3.1h1.8Zm7.1-4c0-1.5.7-2.3,2.1-2.3h7.1a1.64,1.64,0,0,1,1.9,1.7v0.1c0,1.1-.6,1.7-1.9,1.7H432v1.3h3.4c1.4,0,1.9.6,1.9,1.6v0.1c0,1.1-.6,1.7-1.9,1.7H432v1.5h5.2c1.3,0,1.9.6,1.9,1.6V291a1.66,1.66,0,0,1-1.9,1.8H430c-1.4,0-2.1-.8-2.1-2.3v-8.6h0Zm12.3,0a2.05,2.05,0,0,1,2.1-2.3h3.5c4.4,0,7.1,2.5,7.1,6.6s-2.8,6.7-7.1,6.7h-3.3a2.26,2.26,0,0,1-2.3-2.3v-8.7h0Zm5.5,7.6a3,3,0,0,0,3.2-3.2,2.84,2.84,0,0,0-3.1-3.1h-1.5v6.3h1.4Zm8.4-8c0-1.3.6-1.9,1.7-1.9h0.6a1.62,1.62,0,0,1,1.8,1.9v9.7a1.62,1.62,0,0,1-1.8,1.9h-0.6a1.64,1.64,0,0,1-1.7-1.9v-9.7Zm9.1,1.7H461a1.66,1.66,0,0,1-1.9-1.8v-0.1a1.64,1.64,0,0,1,1.9-1.7h8.5c1.3,0,1.9.6,1.9,1.7v0.1a1.62,1.62,0,0,1-1.9,1.8h-2.2v7.9a1.66,1.66,0,0,1-1.8,1.9h-0.6a1.64,1.64,0,0,1-1.7-1.9v-7.9h0Z"/><path class="cls-3" d="M378.5,324.1a12.57,12.57,0,0,0,7.4,2.8c2.3,0,3.3-.6,3.3-1.9s-1.9-1.8-4.2-2.3c-3.3-.7-8.3-2-8.3-7.6,0-4,2.5-6.7,6.8-7.6v-0.9c0-2.4.9-3.7,3.1-3.7h0.2c2.3,0,3.1,1.2,3.1,3.7v0.7c4.3,0.5,6.5,2.2,6.5,4.7a4.74,4.74,0,0,1-2.6,3.8,10.46,10.46,0,0,0-6.6-2.7c-2.2,0-3.2.7-3.2,1.9,0,1.4,1.9,1.7,4.4,2.2,3.4,0.7,8.5,2.2,8.5,7.4,0,4.2-2.5,6.9-7.1,7.8v1c0,2.4-.9,3.7-3.1,3.7h-0.2c-2.3,0-3.1-1.2-3.1-3.7v-0.8c-4.8-.5-7.3-2.4-7.3-5,0-2,2.3-3.7,2.4-3.5h0Zm21.6-4.4c0-9.8,5.9-15.9,15.8-15.9,7.7,0,11.9,2.8,11.9,7,0,3.9-4.7,4.3-4.8,4.2a7,7,0,0,0-6.3-3.3c-4.5,0-6.5,2.3-6.7,7.2a12.62,12.62,0,0,1,8.3-2.7c6.4,0,10.8,3.3,10.8,9.7v0.3c0,7-5.6,11.7-13.9,11.7-9.4,0-15.1-6.1-15.1-15.7v-2.5h0Zm15,10.7c2.5,0,4.4-1.4,4.4-3.7v-0.2c0-2.4-1.7-3.7-4.4-3.7a7.7,7.7,0,0,0-4.8,1.8c0.1,3.7,1.9,5.8,4.8,5.8h0Zm15.3-11.2c0-9.4,5.6-15.4,15.1-15.4s15.1,5.9,15.1,15.4v3.1c0,9.5-5.6,15.5-15.1,15.5s-15.1-5.9-15.1-15.5v-3.1Zm15.1,10.5c3.3,0,4.9-2.2,4.9-6.4v-4.9c0-4.3-1.7-6.5-4.9-6.5-3.4,0-5,2.1-5,6.5v4.9C440.6,327.6,442.2,329.7,445.5,329.7Z"/><path class="cls-9" d="M354.8,262.9H486.2v4.4H354.8v-4.4Z"/><path class="cls-8" d="M93.5,262.9H224.9v85.9H93.5V262.9Z"/><path class="cls-3" d="M108.8,323.1a12.57,12.57,0,0,0,7.4,2.8c2.3,0,3.3-.6,3.3-1.9s-1.9-1.8-4.2-2.3c-3.3-.7-8.3-2-8.3-7.6,0-4,2.5-6.7,6.8-7.6v-0.9c0-2.4.9-3.7,3.1-3.7h0.2c2.3,0,3.1,1.2,3.1,3.7v0.7c4.3,0.5,6.5,2.2,6.5,4.7a4.74,4.74,0,0,1-2.6,3.8,10.46,10.46,0,0,0-6.6-2.7c-2.2,0-3.2.7-3.2,1.9,0,1.4,1.9,1.7,4.4,2.2,3.4,0.7,8.5,2.2,8.5,7.4,0,4.2-2.5,6.9-7.1,7.8v1c0,2.4-.9,3.7-3.1,3.7h-0.2c-2.3,0-3.1-1.2-3.1-3.7v-0.8c-4.8-.5-7.3-2.4-7.3-5,0-2,2.2-3.7,2.4-3.5h0Zm28.4-8.3a5.33,5.33,0,0,1-2.4.6,4.92,4.92,0,0,1-5.1-5c0-3.4,2.3-4.8,2.6-4.6a5.28,5.28,0,0,0,3.2,1,4.5,4.5,0,0,0,4.5-3.7h2.6c2.9,0,4.4,1.6,4.4,4.7v24.1c0,3.1-1.6,4.7-4.4,4.7h-1.3c-2.8,0-4.2-1.6-4.2-4.7V314.8h0.1Zm18.4,11a12,12,0,0,0,8.8,3.8c3.5,0,5.5-1.5,5.5-3.9s-1.8-3.9-5.5-3.9a9.37,9.37,0,0,0-5.7,1.7c-3.7-.1-5.8-1.6-5.8-5.6v-8.8c0-3.6,1.3-5.6,4.7-5.6h15.1c3.3,0,4.8,1.2,4.8,3.9v0.3c0,2.7-1.5,3.8-4.8,3.8H161.1v4.8a15.88,15.88,0,0,1,5-.8c7.6,0,12.5,3.8,12.5,10.4s-5.3,10.9-13.9,10.9c-8.3,0-12.8-3.1-12.8-6.3-0.1-2.7,3.4-4.9,3.7-4.7h0Zm24.4-7.6c0-9.4,5.6-15.4,15.1-15.4s15.1,5.9,15.1,15.4v3.1c0,9.5-5.6,15.5-15.1,15.5S180,330.9,180,321.3v-3.1Zm15.1,10.5c3.3,0,4.9-2.2,4.9-6.4v-4.9c0-4.3-1.7-6.5-4.9-6.5-3.4,0-5,2.1-5,6.5v4.9C190.1,326.6,191.8,328.7,195.1,328.7Z"/><path class="cls-3" d="M111.6,287.9l-5.2-7.4c-0.1-.2.7-1.7,3-1.7a2.72,2.72,0,0,1,2.2,1.6l2.3,3.9,2.4-3.9c0.7-1.2,1.4-1.6,2.2-1.6,2.1,0,3,1.5,2.9,1.7l-5.1,7.4v3.8a1.83,1.83,0,0,1-2,2.1h-0.7c-1.3,0-1.9-.7-1.9-2.1v-3.8h-0.1Zm17.2-9.4a7.43,7.43,0,0,1,7.8,7.7A7.85,7.85,0,1,1,128.8,278.5Zm0,11.4c2,0,3.3-1.4,3.3-3.7s-1.3-3.7-3.3-3.7-3.3,1.4-3.3,3.7S126.8,289.9,128.8,289.9Zm9-9a1.87,1.87,0,0,1,2-2.1h0.6a1.83,1.83,0,0,1,2,2.1v6.3c0,1.8.7,2.8,2.2,2.8s2.2-.9,2.2-2.8v-6.3a1.87,1.87,0,0,1,2-2.1h0.6a1.83,1.83,0,0,1,2,2.1v6.3c0,4.5-2.3,6.8-6.8,6.8s-6.8-2.3-6.8-6.8v-6.3Zm19.5,7.9a7.21,7.21,0,0,0,4.4,1.7q2.1,0,2.1-1.2c0-.9-1.2-0.9-2.7-1.2-2.5-.5-5-1.6-5-4.6s2.3-4.9,6.3-4.9,5.6,1.4,5.6,2.8a2.91,2.91,0,0,1-1.6,2.3,6.2,6.2,0,0,0-3.9-1.6c-1.3,0-2,.4-2,1.2s1.2,0.8,2.8,1.1c2.9,0.6,5.2,1.9,5.2,4.6,0,3.2-2.2,5.1-6.7,5.1s-5.9-1.5-5.9-3.1a2.77,2.77,0,0,1,1.4-2.2h0Zm16.2-8.8c0.2-.7.9-1.3,2.9-1.3s2.6,0.5,2.9,1.3l5,12.5c0.2,0.4-1.1,1.5-2.5,1.5-1,0-2-.5-2.6-2.2l-0.4-1.1H174l-0.4,1.1c-0.6,1.6-1.5,2.1-2.5,2.1-1.3,0-2.5-1-2.4-1.4l4.8-12.5h0Zm4.5,7.3-1.6-4.3-1.6,4.3H178Zm4.2-7c-0.2-.4,1.3-1.6,2.9-1.6a2.83,2.83,0,0,1,2.6,2.1l2.3,7.4,2.3-7.4a2.51,2.51,0,0,1,2.5-2.1c1.5,0,2.9,1.2,2.7,1.6l-4.9,11.8a2.55,2.55,0,0,1-2.7,1.7,2.33,2.33,0,0,1-2.6-1.7Zm16,1.1c0-1.7.8-2.6,2.3-2.6h7.9c1.5,0,2.1.7,2.1,1.9v0.1c0,1.3-.7,1.9-2.1,1.9h-5.7v1.5h3.8c1.5,0,2.1.6,2.1,1.8v0.1c0,1.2-.6,1.9-2.1,1.9h-3.8v1.7h5.8q2.1,0,2.1,1.8v0.1a1.83,1.83,0,0,1-2.1,2h-8c-1.5,0-2.3-.9-2.3-2.5v-9.7h0Z"/><path class="cls-9" d="M93.5,262.9H224.9v4.4H93.5v-4.4Z"/><circle class="cls-4" cx="516.5" cy="262.9" r="9.1"/><path class="cls-3" d="M516.4,268.8a5.9,5.9,0,1,1,5.9-5.9A6,6,0,0,1,516.4,268.8Zm0-10.6a4.7,4.7,0,1,0,4.7,4.7A4.76,4.76,0,0,0,516.4,258.2Z"/><path class="cls-3" d="M516.4,263.5a0.65,0.65,0,0,1-.6-0.6v-5.3a0.6,0.6,0,1,1,1.2,0v5.3A0.65,0.65,0,0,1,516.4,263.5Z"/><path class="cls-4" d="M524.1,204.6H508.9a1.54,1.54,0,0,0-1.5,1.5v11.7a1.54,1.54,0,0,0,1.5,1.5h15.2a1.54,1.54,0,0,0,1.5-1.5V206.1A1.54,1.54,0,0,0,524.1,204.6Zm0-19H508.9a1.54,1.54,0,0,0-1.5,1.5v11.7a1.54,1.54,0,0,0,1.5,1.5h15.2a1.54,1.54,0,0,0,1.5-1.5V187.1A1.54,1.54,0,0,0,524.1,185.6Z"/><path class="cls-3" d="M519.2,209.6l-2.7,4.8-2.7-4.8m0-14.7,2.7-4.7,2.7,4.7"/><path class="cls-7" d="M508.9,177.8a0.47,0.47,0,0,1-.5-0.5V113.8a0.47,0.47,0,0,1,.5-0.5h15.2a0.47,0.47,0,0,1,.5.5v63.5a0.47,0.47,0,0,1-.5.5H508.9Z"/><path class="cls-4" d="M523.6,114.4v62.5H509.4V114.4h14.2m0.5-2H508.9a1.54,1.54,0,0,0-1.5,1.5v63.5a1.54,1.54,0,0,0,1.5,1.5h15.2a1.54,1.54,0,0,0,1.5-1.5V113.9A1.47,1.47,0,0,0,524.1,112.4Z"/><path class="cls-10" d="M516.5,120.6v49.8"/><path class="cls-11" d="M63.2,187.4v25.9m0-47.4v3.3"/><path class="cls-4" d="M49.5,172.7H76.8a1.54,1.54,0,0,1,1.5,1.5v7.5a1.54,1.54,0,0,1-1.5,1.5H49.5a1.54,1.54,0,0,1-1.5-1.5v-7.5A1.54,1.54,0,0,1,49.5,172.7Z"/><path class="cls-12" d="M57.3,187.4v31.2H69.2V187.4m0-18.2v-8H57.3v8"/><path class="cls-4" d="M243.3,368.7h92.9v35H243.3v-35Z"/><path class="cls-13" d="M252.6,380a0.86,0.86,0,0,1,.8-0.8h8.1a0.61,0.61,0,0,1,.7.6v0.1a0.57,0.57,0,0,1-.7.6H254v4.7h6a0.61,0.61,0,0,1,.7.6v0.1a0.57,0.57,0,0,1-.7.6h-6v5h7.6a0.61,0.61,0,0,1,.7.6v0.1a0.57,0.57,0,0,1-.7.6h-8.3a0.86,0.86,0,0,1-.8-0.8V380h0.1Zm14.6,7.8-3.5-4.5a0.65,0.65,0,0,1,.7-0.6,1.2,1.2,0,0,1,1,.7L268,387l2.6-3.5a1.41,1.41,0,0,1,1-.7,0.65,0.65,0,0,1,.7.6l-3.5,4.5,3.5,4.5a0.65,0.65,0,0,1-.7.6,1.2,1.2,0,0,1-1-.7l-2.6-3.5-2.6,3.5a1.14,1.14,0,0,1-1,.7,0.65,0.65,0,0,1-.7-0.6Zm13.1-1h0.2v-0.4a2.5,2.5,0,0,0-2.8-2.7,3.54,3.54,0,0,0-3.2,1.8,0.88,0.88,0,0,1-.8-0.8c0-.7,1.4-2.3,4.1-2.3,2.5,0,4.1,1.5,4.1,3.9v6.3a1.21,1.21,0,0,1-.5.1c-0.5,0-.9-0.2-0.9-1.3V391a4.21,4.21,0,0,1-3.7,1.8c-2.2,0-3.4-1.1-3.4-2.8-0.1-2.1,2.3-3.1,6.9-3.2h0Zm-3.4,5.1c2.1,0,3.6-1.3,3.6-3.1v-0.9h-0.6c-3.4.1-5.2,0.7-5.2,2.3C274.7,391.2,275.5,391.9,276.9,391.9Zm7.7-9.1a1.21,1.21,0,0,1,.5-0.1c0.5,0,.9.2,0.9,1.3v0.3a3.84,3.84,0,0,1,3.2-1.7,3.21,3.21,0,0,1,3.3,2.1,4,4,0,0,1,3.5-2.1c2.5,0,3.9,1.4,3.9,4.2v5.5a0.61,0.61,0,0,1-.6.7H299c-0.4,0-.6-0.1-0.6-0.7v-5.4c0-2-.9-3-2.6-3a3.5,3.5,0,0,0-3,2v6.4a0.61,0.61,0,0,1-.6.7h-0.1c-0.4,0-.6-0.1-0.6-0.7V387c0-2.1-.9-3.1-2.6-3.1a3.5,3.5,0,0,0-3,2v6.4a0.61,0.61,0,0,1-.6.7h-0.1c-0.4,0-.6-0.1-0.6-0.7v-9.5h0Zm19.3,13.4a0.61,0.61,0,0,1-.6.7h-0.1c-0.4,0-.6-0.1-0.6-0.7V382.8a1.21,1.21,0,0,1,.5-0.1c0.5,0,.9.2,0.9,1.3v0.4a4.42,4.42,0,0,1,3.7-1.9c2.6,0,4.7,2.1,4.7,5.2s-2,5.3-4.8,5.3a3.93,3.93,0,0,1-3.6-1.9v5.1h-0.1Zm3.5-4.4c2.1,0,3.5-1.6,3.5-4.1s-1.5-4.1-3.5-4.1a3.71,3.71,0,0,0-3.6,2.4v2.4a3.61,3.61,0,0,0,3.6,3.4h0Zm7.2-13.2a1.21,1.21,0,0,1,.5-0.1c0.5,0,.9.2,0.9,1.3v12.4a0.61,0.61,0,0,1-.6.7h-0.1c-0.4,0-.6-0.1-0.6-0.7V378.6h-0.1Zm8.6,3.9c2.8,0,4.7,2,4.7,5v0.1c0,0.4-.1.5-0.6,0.5h-7.8a3.78,3.78,0,0,0,3.8,3.7,3.43,3.43,0,0,0,3.4-1.8,0.78,0.78,0,0,1,.8.8c0,0.7-1.5,2.2-4.2,2.2a5,5,0,0,1-5.2-5.2,5.17,5.17,0,0,1,5.1-5.3h0Zm3.2,4.5a3.13,3.13,0,0,0-3.2-3.3,3.59,3.59,0,0,0-3.6,3.3h6.8Z"/><path class="cls-3" d="M43.41,26.33A2.71,2.71,0,0,1,46,24.9a2.36,2.36,0,0,1,2.31,2.25L49.48,33l1.43-5.31a2.12,2.12,0,0,1,2.31-1.53,2.18,2.18,0,0,1,2.25,1.53L56.89,33,58,27.09a2.28,2.28,0,0,1,2.29-2.18,2.45,2.45,0,0,1,2.46,1.43L59.68,37.06c-0.31,1.2-1.18,1.62-2.48,1.62a2.2,2.2,0,0,1-2.48-1.62l-1.6-5.61-1.57,5.61a2.22,2.22,0,0,1-2.5,1.62c-1.3,0-2.1-.36-2.44-1.62Z"/><path class="cls-3" d="M64.14,24.23a2.15,2.15,0,0,1,1.55-.46c1.15,0,2.48.61,2.48,3.07v3a3.51,3.51,0,0,1,3.25-1.87c2.71,0,3.7,2,3.7,4.26V36.7a1.65,1.65,0,0,1-1.78,2h-0.4a1.66,1.66,0,0,1-1.85-2V32.82a1.38,1.38,0,0,0-1.32-1.62,1.5,1.5,0,0,0-1.6,1.7v3.8a1.65,1.65,0,0,1-1.78,2H66a1.65,1.65,0,0,1-1.83-2V24.23Z"/><path class="cls-3" d="M81.95,27.93a5.1,5.1,0,0,1,5.42,5.19v0.25a0.86,0.86,0,0,1-.82,1H80a2.19,2.19,0,0,0,2.41,1.64,2.78,2.78,0,0,0,2.52-1.32s1.85,0.15,1.85,1.68-1.62,2.44-4.56,2.44c-3.55,0-5.79-2-5.79-5.37A5.37,5.37,0,0,1,81.95,27.93Zm1.78,4.41a1.71,1.71,0,0,0-1.83-1.78,2,2,0,0,0-2,1.78h3.82Z"/><path class="cls-3" d="M88.69,28.49A2.15,2.15,0,0,1,90.24,28a2.23,2.23,0,0,1,2.31,1.81A3.83,3.83,0,0,1,96,27.93c2.71,0,3.7,2,3.7,4.12V36.7a1.65,1.65,0,0,1-1.78,2h-0.4a1.66,1.66,0,0,1-1.85-2v-4a1.34,1.34,0,0,0-1.34-1.53,1.79,1.79,0,0,0-1.57.84V36.7a1.65,1.65,0,0,1-1.78,2H90.51a1.65,1.65,0,0,1-1.83-2V28.49Z"/><path class="cls-3" d="M104.27,29.17c-0.08-.23,1.34-1.18,2.46-1.18a1.7,1.7,0,0,1,1.83,1.53l0.88,5,1.32-4.37a1.9,1.9,0,0,1,2-1.26,1.82,1.82,0,0,1,1.91,1.26l1.15,4.16,0.88-4.75A1.69,1.69,0,0,1,118.42,28c1.15,0,2.5.94,2.41,1.18l-2.75,8.44a1.83,1.83,0,0,1-2,1.07c-1.28,0-1.87-.21-2.23-1.32l-1.32-4.05-1.28,4.05c-0.34,1.11-1,1.32-2.2,1.32a1.94,1.94,0,0,1-2-1.07Z"/><path class="cls-3" d="M126.82,27.93a5.1,5.1,0,0,1,5.42,5.19v0.25a0.86,0.86,0,0,1-.82,1h-6.57a2.19,2.19,0,0,0,2.41,1.64,2.78,2.78,0,0,0,2.52-1.32s1.85,0.15,1.85,1.68-1.62,2.44-4.56,2.44c-3.55,0-5.79-2-5.79-5.37A5.37,5.37,0,0,1,126.82,27.93Zm1.78,4.41a1.71,1.71,0,0,0-1.83-1.78,2,2,0,0,0-2,1.78h3.82Z"/><path class="cls-3" d="M133,29.44l0.73-3c0.23-1.13.52-1.66,1.81-1.66H136a1.42,1.42,0,0,1,1.55,1.66v0.15a2.73,2.73,0,0,1-.9,2l-1.6,1.87A1.18,1.18,0,0,1,133,29.44Z"/><path class="cls-3" d="M138.94,28.49a2.15,2.15,0,0,1,1.55-.46,2.22,2.22,0,0,1,2.31,1.85,2.6,2.6,0,0,1,2.52-2,2,2,0,0,1,2.2,2.16,2.12,2.12,0,0,1-1.32,2.12,2.15,2.15,0,0,0-1.45-.55c-1.2,0-1.78.86-1.78,2.56V36.7a1.65,1.65,0,0,1-1.78,2h-0.42a1.65,1.65,0,0,1-1.83-2V28.49Z"/><path class="cls-3" d="M153.64,27.93a5.1,5.1,0,0,1,5.42,5.19v0.25a0.86,0.86,0,0,1-.82,1h-6.57a2.19,2.19,0,0,0,2.41,1.64,2.78,2.78,0,0,0,2.52-1.32s1.85,0.15,1.85,1.68-1.62,2.44-4.56,2.44c-3.55,0-5.79-2-5.79-5.37A5.37,5.37,0,0,1,153.64,27.93Zm1.78,4.41a1.71,1.71,0,0,0-1.83-1.78,2,2,0,0,0-2,1.78h3.82Z"/><path class="cls-3" d="M169,27.95c3.3,0,4.43,1.74,4.43,2.77,0,1.6-2.08,1.87-2.14,1.72a2,2,0,0,0-2.06-1.37,2.33,2.33,0,0,0,0,4.64,2.08,2.08,0,0,0,2.06-1.39,1.91,1.91,0,0,1,2.14,1.76c0,1-1.26,2.75-4.43,2.75a5.23,5.23,0,0,1-5.54-5.48A5.27,5.27,0,0,1,169,27.95Z"/><path class="cls-3" d="M174.7,24.23a2.15,2.15,0,0,1,1.55-.46c1.15,0,2.48.61,2.48,3.07v3A3.51,3.51,0,0,1,182,27.93c2.71,0,3.7,2,3.7,4.26V36.7a1.65,1.65,0,0,1-1.78,2h-0.4a1.66,1.66,0,0,1-1.85-2V32.82a1.38,1.38,0,0,0-1.32-1.62,1.5,1.5,0,0,0-1.6,1.7v3.8a1.65,1.65,0,0,1-1.78,2h-0.42a1.65,1.65,0,0,1-1.83-2V24.23Z"/><path class="cls-3" d="M192.51,27.93a5.1,5.1,0,0,1,5.42,5.19v0.25a0.86,0.86,0,0,1-.82,1h-6.57A2.19,2.19,0,0,0,193,36.05a2.78,2.78,0,0,0,2.52-1.32s1.85,0.15,1.85,1.68-1.62,2.44-4.56,2.44c-3.55,0-5.79-2-5.79-5.37A5.37,5.37,0,0,1,192.51,27.93Zm1.78,4.41a1.71,1.71,0,0,0-1.83-1.78,2,2,0,0,0-2,1.78h3.82Z"/><path class="cls-3" d="M205.15,32.17h0.4a1.44,1.44,0,0,0-1.62-1.39,2.1,2.1,0,0,0-2.1,1.39c0,0.06-2.67.21-2.67-1.57s1.55-2.67,5-2.67c3.74,0,5.38,1.45,5.38,4.43v5.92a2,2,0,0,1-1.55.46,2.17,2.17,0,0,1-2.27-1.68,4,4,0,0,1-3.49,1.7c-2.1,0-3.46-1.26-3.46-3.07C198.77,33.32,200.72,32.19,205.15,32.17Zm-1.34,4.14a1.68,1.68,0,0,0,1.76-1.79V34.16h-0.5c-1.62,0-2.48.38-2.48,1.18A1,1,0,0,0,203.81,36.3Z"/><path class="cls-3" d="M211.3,28.49a2.15,2.15,0,0,1,1.55-.46,2.25,2.25,0,0,1,2.33,1.91,3.25,3.25,0,0,1,3.17-2c2.88,0,4.77,2.08,4.77,5.44s-1.89,5.48-4.77,5.48a3.28,3.28,0,0,1-3-1.81v3.63a1.64,1.64,0,0,1-1.78,1.93h-0.42a1.64,1.64,0,0,1-1.83-1.93V28.49Zm5.94,7.22a2.08,2.08,0,0,0,2.06-2.33,2.09,2.09,0,0,0-4-1.09v1.58A1.79,1.79,0,0,0,217.25,35.72Z"/><path class="cls-3" d="M229.59,27.93A5.1,5.1,0,0,1,235,33.11v0.25a0.86,0.86,0,0,1-.82,1h-6.57A2.19,2.19,0,0,0,230,36.05a2.78,2.78,0,0,0,2.52-1.32s1.85,0.15,1.85,1.68-1.62,2.44-4.56,2.44c-3.55,0-5.79-2-5.79-5.37A5.37,5.37,0,0,1,229.59,27.93Zm1.78,4.41a1.71,1.71,0,0,0-1.83-1.78,2,2,0,0,0-2,1.78h3.82Z"/><path class="cls-3" d="M236.34,28.49a2.15,2.15,0,0,1,1.55-.46,2.22,2.22,0,0,1,2.31,1.85,2.6,2.6,0,0,1,2.52-2,2,2,0,0,1,2.2,2.16,2.12,2.12,0,0,1-1.32,2.12,2.15,2.15,0,0,0-1.45-.55c-1.2,0-1.78.86-1.78,2.56V36.7a1.65,1.65,0,0,1-1.78,2h-0.42a1.65,1.65,0,0,1-1.83-2V28.49Z"/><path class="cls-3" d="M75.54,53.93c3.4,0,5.65,2.18,5.65,5.46s-2.27,5.46-5.71,5.46-5.67-2.14-5.67-5.48S72.1,53.93,75.54,53.93Zm0,7.83a2.4,2.4,0,1,0-2.27-2.39A2.23,2.23,0,0,0,75.5,61.76Z"/><path class="cls-3" d="M81.38,55.17A2.69,2.69,0,0,1,83.61,54a2.16,2.16,0,0,1,2.12,1.85l1.49,4.85,1.55-4.85C89.21,54.41,90,54,90.83,54,92,54,93.12,55,93,55.17l-3.65,8.59a2.31,2.31,0,0,1-2.12.92c-0.67,0-1.81-.15-2.14-0.92Z"/><path class="cls-3" d="M98.77,53.93a5.1,5.1,0,0,1,5.42,5.19v0.25a0.86,0.86,0,0,1-.82,1H96.79a2.19,2.19,0,0,0,2.41,1.64,2.78,2.78,0,0,0,2.52-1.32s1.85,0.15,1.85,1.68S102,64.84,99,64.84c-3.55,0-5.79-2-5.79-5.37A5.37,5.37,0,0,1,98.77,53.93Zm1.78,4.41a1.71,1.71,0,0,0-1.83-1.78,2,2,0,0,0-2,1.78h3.82Z"/><path class="cls-3" d="M105.51,54.49a2.15,2.15,0,0,1,1.55-.46,2.22,2.22,0,0,1,2.31,1.85,2.6,2.6,0,0,1,2.52-2,2,2,0,0,1,2.2,2.16,2.12,2.12,0,0,1-1.32,2.12,2.15,2.15,0,0,0-1.45-.55c-1.2,0-1.78.86-1.78,2.56V62.7a1.65,1.65,0,0,1-1.78,2h-0.42a1.65,1.65,0,0,1-1.83-2V54.49Z"/><path class="cls-3" d="M121.41,55.69a2.34,2.34,0,0,1-1,.23,2,2,0,0,1-2.12-2.1,1.82,1.82,0,0,1,1.09-1.93,2.31,2.31,0,0,0,1.32.42,1.9,1.9,0,0,0,1.89-1.53h1.09a1.7,1.7,0,0,1,1.85,2V62.79a1.7,1.7,0,0,1-1.85,2h-0.52a1.67,1.67,0,0,1-1.76-2v-7.1Z"/><path class="cls-3" d="M127.39,61.72c0-2.37,2.33-3.72,4.16-4.54,1.57-.74,2.79-1.09,2.79-1.93s-0.57-1.3-1.74-1.3a2.5,2.5,0,0,0-2.46,2.12s-2.71.15-2.71-1.87,2-3.55,5.44-3.55,5.54,1.64,5.54,4.39-1.78,3.44-3.72,4.16c-1.64.63-2.86,1.09-3.36,2h5.21c1.45,0,2,.55,2,1.53v0.17c0,1-.5,1.64-2,1.64h-6.63c-2,0-2.52-.27-2.52-2v-0.8Z"/><path class="cls-3" d="M143.39,54.49a2.15,2.15,0,0,1,1.55-.46,2.23,2.23,0,0,1,2.31,1.81,3.68,3.68,0,0,1,3.25-1.91A3.1,3.1,0,0,1,153.74,56a3.78,3.78,0,0,1,3.42-2.08c2.67,0,3.57,1.79,3.57,4V62.7c0,1.45-.73,2-1.76,2h-0.42a1.66,1.66,0,0,1-1.85-2V58.63a1.19,1.19,0,0,0-1.24-1.43,1.67,1.67,0,0,0-1.39.76V62.7c0,1.47-.73,2-1.78,2h-0.4a1.66,1.66,0,0,1-1.85-2v-4a1.21,1.21,0,0,0-1.24-1.47,1.67,1.67,0,0,0-1.39.76V62.7a1.65,1.65,0,0,1-1.78,2h-0.42a1.65,1.65,0,0,1-1.83-2V54.49Z"/><path class="cls-3" d="M167.75,53.93c3.4,0,5.65,2.18,5.65,5.46s-2.27,5.46-5.71,5.46S162,62.7,162,59.36,164.31,53.93,167.75,53.93Zm0,7.83a2.4,2.4,0,1,0-2.27-2.39A2.23,2.23,0,0,0,167.71,61.76Z"/><path class="cls-3" d="M174.79,54.49a2.15,2.15,0,0,1,1.55-.46,2.23,2.23,0,0,1,2.31,1.81,3.83,3.83,0,0,1,3.42-1.91c2.71,0,3.7,2,3.7,4.12V62.7a1.65,1.65,0,0,1-1.78,2h-0.4a1.66,1.66,0,0,1-1.85-2v-4a1.34,1.34,0,0,0-1.34-1.53,1.79,1.79,0,0,0-1.57.84V62.7a1.65,1.65,0,0,1-1.78,2h-0.42a1.65,1.65,0,0,1-1.83-2V54.49Z"/><path class="cls-3" d="M188.44,57.18h-0.23a1.36,1.36,0,0,1-1.64-1.37V55.59a1.38,1.38,0,0,1,1.64-1.45h0.23v-1a1.69,1.69,0,0,1,1.81-2h0.34c1.07,0,1.81.46,1.81,2v1h1.2a1.3,1.3,0,0,1,1.57,1.37v0.23a1.37,1.37,0,0,1-1.62,1.45H192.3v3.49a0.86,0.86,0,0,0,.88,1,1.38,1.38,0,0,0,1.15-.63,1.47,1.47,0,0,1,.88,1.47c0,1.34-1.22,2.29-3.13,2.29-2.48,0-3.65-1.26-3.65-3.74V57.18Z"/><path class="cls-3" d="M196.52,50.23a2.15,2.15,0,0,1,1.55-.46c1.15,0,2.48.61,2.48,3.07v3a3.51,3.51,0,0,1,3.25-1.87c2.71,0,3.7,2,3.7,4.26V62.7a1.65,1.65,0,0,1-1.78,2h-0.4a1.66,1.66,0,0,1-1.85-2V58.82a1.38,1.38,0,0,0-1.32-1.62,1.5,1.5,0,0,0-1.6,1.7v3.8a1.65,1.65,0,0,1-1.78,2h-0.42a1.65,1.65,0,0,1-1.83-2V50.23Z"/><path class="cls-3" d="M209.63,60.86a4.92,4.92,0,0,0,3.32,1.22c0.84,0,1.3-.1,1.3-0.52s-0.67-.55-1.7-0.78c-1.3-.27-3.67-0.78-3.67-3.3,0-2.14,1.78-3.53,4.58-3.53,3,0,4.45.9,4.45,2.37a2,2,0,0,1-1.11,1.62,4.5,4.5,0,0,0-3-1.28c-0.78,0-1.24.13-1.24,0.57s0.73,0.48,1.81.73c1.32,0.29,3.82.82,3.82,3.3,0,2.2-1.81,3.53-4.89,3.53s-4.66-.9-4.66-2.37A1.91,1.91,0,0,1,209.63,60.86Z"/><path class="cls-14" d="M348,26.81a1.66,1.66,0,0,1,1.76-2h0.61a1.68,1.68,0,0,1,1.83,2V36.7a1.69,1.69,0,0,1-1.83,2h-0.61a1.67,1.67,0,0,1-1.76-2V26.81Z"/><path class="cls-14" d="M355.4,31.18H355a1.38,1.38,0,0,1-1.64-1.45V29.5c0-.88.55-1.37,1.64-1.37h0.42V27.84c0-3.23,1.68-4.18,4-4.18,2.1,0,3,.9,3,1.91a2,2,0,0,1-.78,1.55,1.87,1.87,0,0,0-1.28-.48,0.94,0.94,0,0,0-1,1.15v0.34h0.88a1.38,1.38,0,0,1,1.64,1.45v0.23c0,0.88-.55,1.37-1.64,1.37h-0.71V36.7c0,1.49-.71,2-1.81,2H357.2a1.67,1.67,0,0,1-1.81-2V31.18Z"/><path class="cls-14" d="M367.64,31.18h-0.23a1.36,1.36,0,0,1-1.64-1.37V29.59a1.38,1.38,0,0,1,1.64-1.45h0.23v-1a1.69,1.69,0,0,1,1.81-2h0.34c1.07,0,1.81.46,1.81,2v1h1.2a1.3,1.3,0,0,1,1.58,1.37v0.23a1.37,1.37,0,0,1-1.62,1.45H371.5v3.49a0.86,0.86,0,0,0,.88,1,1.38,1.38,0,0,0,1.15-.63,1.47,1.47,0,0,1,.88,1.47c0,1.34-1.22,2.29-3.13,2.29-2.48,0-3.65-1.26-3.65-3.74V31.18Z"/><path class="cls-14" d="M375.72,24.23a2.15,2.15,0,0,1,1.55-.46c1.15,0,2.48.61,2.48,3.07v3A3.51,3.51,0,0,1,383,27.93c2.71,0,3.7,2,3.7,4.26V36.7a1.65,1.65,0,0,1-1.78,2h-0.4a1.66,1.66,0,0,1-1.85-2V32.82a1.38,1.38,0,0,0-1.32-1.62,1.5,1.5,0,0,0-1.6,1.7v3.8a1.65,1.65,0,0,1-1.79,2h-0.42a1.65,1.65,0,0,1-1.83-2V24.23Z"/><path class="cls-14" d="M393.53,27.93a5.1,5.1,0,0,1,5.42,5.19v0.25a0.86,0.86,0,0,1-.82,1h-6.57A2.19,2.19,0,0,0,394,36.05a2.78,2.78,0,0,0,2.52-1.32s1.85,0.15,1.85,1.68-1.62,2.44-4.56,2.44c-3.55,0-5.79-2-5.79-5.37A5.37,5.37,0,0,1,393.53,27.93Zm1.78,4.41a1.71,1.71,0,0,0-1.83-1.78,2,2,0,0,0-2,1.78h3.82Z"/><path class="cls-14" d="M399.14,29.17C399.05,29,400.21,28,401.39,28a2.14,2.14,0,0,1,2.1,1.83l1.57,4.56,1.47-4.54A2.16,2.16,0,0,1,408.59,28c1.16,0,2.29.94,2.21,1.18l-4.58,11.55c-0.53,1.34-1.28,1.78-2.14,1.78-1.18,0-2.27-.9-2.16-1.11l1.72-3.59a1.31,1.31,0,0,1-1-.76Z"/><path class="cls-14" d="M412,29.44l0.73-3c0.23-1.13.53-1.66,1.81-1.66H415a1.42,1.42,0,0,1,1.55,1.66v0.15a2.72,2.72,0,0,1-.9,2L414,30.36A1.18,1.18,0,0,1,412,29.44Z"/><path class="cls-14" d="M417.87,28.49a2.15,2.15,0,0,1,1.55-.46,2.22,2.22,0,0,1,2.31,1.85,2.6,2.6,0,0,1,2.52-2,2,2,0,0,1,2.21,2.16,2.12,2.12,0,0,1-1.32,2.12,2.15,2.15,0,0,0-1.45-.55c-1.2,0-1.79.86-1.79,2.56V36.7a1.65,1.65,0,0,1-1.78,2H419.7a1.65,1.65,0,0,1-1.83-2V28.49Z"/><path class="cls-14" d="M432.57,27.93A5.1,5.1,0,0,1,438,33.11v0.25a0.86,0.86,0,0,1-.82,1H430.6A2.19,2.19,0,0,0,433,36.05a2.78,2.78,0,0,0,2.52-1.32s1.85,0.15,1.85,1.68-1.62,2.44-4.56,2.44c-3.55,0-5.79-2-5.79-5.37A5.37,5.37,0,0,1,432.57,27.93Zm1.78,4.41a1.71,1.71,0,0,0-1.83-1.78,2,2,0,0,0-2,1.78h3.82Z"/><path class="cls-14" d="M448,27.95c3.3,0,4.43,1.74,4.43,2.77,0,1.6-2.08,1.87-2.14,1.72a2,2,0,0,0-2.06-1.37,2.33,2.33,0,0,0,0,4.64,2.08,2.08,0,0,0,2.06-1.39,1.91,1.91,0,0,1,2.14,1.76c0,1-1.26,2.75-4.43,2.75a5.23,5.23,0,0,1-5.54-5.48A5.27,5.27,0,0,1,448,27.95Z"/><path class="cls-14" d="M453.63,24.23a2.15,2.15,0,0,1,1.55-.46c1.15,0,2.48.61,2.48,3.07v3a3.51,3.51,0,0,1,3.25-1.87c2.71,0,3.7,2,3.7,4.26V36.7a1.65,1.65,0,0,1-1.78,2h-0.4a1.66,1.66,0,0,1-1.85-2V32.82a1.38,1.38,0,0,0-1.32-1.62,1.5,1.5,0,0,0-1.6,1.7v3.8a1.65,1.65,0,0,1-1.79,2h-0.42a1.65,1.65,0,0,1-1.83-2V24.23Z"/><path class="cls-14" d="M471.44,27.93a5.1,5.1,0,0,1,5.42,5.19v0.25a0.86,0.86,0,0,1-.82,1h-6.57a2.19,2.19,0,0,0,2.41,1.64,2.78,2.78,0,0,0,2.52-1.32s1.85,0.15,1.85,1.68-1.62,2.44-4.56,2.44c-3.55,0-5.79-2-5.79-5.37A5.37,5.37,0,0,1,471.44,27.93Zm1.78,4.41a1.71,1.71,0,0,0-1.83-1.78,2,2,0,0,0-2,1.78h3.82Z"/><path class="cls-14" d="M484.08,32.17h0.4a1.44,1.44,0,0,0-1.62-1.39,2.1,2.1,0,0,0-2.1,1.39c0,0.06-2.67.21-2.67-1.57s1.55-2.67,5-2.67c3.74,0,5.38,1.45,5.38,4.43v5.92a2,2,0,0,1-1.55.46,2.17,2.17,0,0,1-2.27-1.68,4,4,0,0,1-3.49,1.7c-2.1,0-3.46-1.26-3.46-3.07C477.7,33.32,479.65,32.19,484.08,32.17Zm-1.34,4.14a1.68,1.68,0,0,0,1.76-1.79V34.16H484c-1.62,0-2.48.38-2.48,1.18A1,1,0,0,0,482.74,36.3Z"/><path class="cls-14" d="M490.24,28.49a2.15,2.15,0,0,1,1.55-.46,2.25,2.25,0,0,1,2.33,1.91,3.25,3.25,0,0,1,3.17-2c2.88,0,4.77,2.08,4.77,5.44s-1.89,5.48-4.77,5.48a3.28,3.28,0,0,1-3-1.81v3.63a1.64,1.64,0,0,1-1.78,1.93h-0.42a1.64,1.64,0,0,1-1.83-1.93V28.49Zm5.94,7.22a2.08,2.08,0,0,0,2.06-2.33,2.09,2.09,0,0,0-4-1.09v1.58A1.79,1.79,0,0,0,496.18,35.72Z"/><path class="cls-14" d="M508.53,27.93a5.1,5.1,0,0,1,5.42,5.19v0.25a0.86,0.86,0,0,1-.82,1h-6.57A2.19,2.19,0,0,0,509,36.05a2.78,2.78,0,0,0,2.52-1.32s1.85,0.15,1.85,1.68-1.62,2.44-4.56,2.44c-3.55,0-5.79-2-5.79-5.37A5.37,5.37,0,0,1,508.53,27.93Zm1.79,4.41a1.71,1.71,0,0,0-1.83-1.78,2,2,0,0,0-2,1.78h3.82Z"/><path class="cls-14" d="M515.27,28.49a2.15,2.15,0,0,1,1.55-.46,2.22,2.22,0,0,1,2.31,1.85,2.6,2.6,0,0,1,2.52-2,2,2,0,0,1,2.2,2.16,2.12,2.12,0,0,1-1.32,2.12,2.15,2.15,0,0,0-1.45-.55c-1.2,0-1.78.86-1.78,2.56V36.7a1.65,1.65,0,0,1-1.79,2h-0.42a1.65,1.65,0,0,1-1.83-2V28.49Z"/><path class="cls-14" d="M367,53.93c3.4,0,5.65,2.18,5.65,5.46s-2.27,5.46-5.71,5.46-5.67-2.14-5.67-5.48S363.6,53.93,367,53.93Zm0,7.83a2.4,2.4,0,1,0-2.27-2.39A2.23,2.23,0,0,0,367,61.76Z"/><path class="cls-14" d="M372.88,55.17A2.69,2.69,0,0,1,375.11,54a2.16,2.16,0,0,1,2.12,1.85l1.49,4.85,1.55-4.85c0.44-1.43,1.26-1.85,2.06-1.85,1.18,0,2.29,1,2.18,1.18l-3.65,8.59a2.31,2.31,0,0,1-2.12.92c-0.67,0-1.81-.15-2.14-0.92Z"/><path class="cls-14" d="M390.27,53.93a5.1,5.1,0,0,1,5.42,5.19v0.25a0.86,0.86,0,0,1-.82,1h-6.57a2.19,2.19,0,0,0,2.42,1.64,2.78,2.78,0,0,0,2.52-1.32s1.85,0.15,1.85,1.68-1.62,2.44-4.56,2.44c-3.55,0-5.79-2-5.79-5.37A5.37,5.37,0,0,1,390.27,53.93Zm1.79,4.41a1.71,1.71,0,0,0-1.83-1.78,2,2,0,0,0-2,1.78h3.82Z"/><path class="cls-14" d="M397,54.49a2.15,2.15,0,0,1,1.55-.46,2.22,2.22,0,0,1,2.31,1.85,2.6,2.6,0,0,1,2.52-2,2,2,0,0,1,2.2,2.16,2.12,2.12,0,0,1-1.32,2.12,2.15,2.15,0,0,0-1.45-.55c-1.2,0-1.78.86-1.78,2.56V62.7a1.65,1.65,0,0,1-1.79,2h-0.42a1.65,1.65,0,0,1-1.83-2V54.49Z"/><path class="cls-14" d="M412.91,55.69a2.34,2.34,0,0,1-1,.23,2,2,0,0,1-2.12-2.1,1.82,1.82,0,0,1,1.09-1.93,2.3,2.3,0,0,0,1.32.42,1.9,1.9,0,0,0,1.89-1.53h1.09a1.7,1.7,0,0,1,1.85,2V62.79a1.7,1.7,0,0,1-1.85,2h-0.52a1.66,1.66,0,0,1-1.76-2v-7.1Z"/><path class="cls-14" d="M418.89,61.72c0-2.37,2.33-3.72,4.16-4.54,1.57-.74,2.79-1.09,2.79-1.93s-0.57-1.3-1.74-1.3a2.5,2.5,0,0,0-2.46,2.12s-2.71.15-2.71-1.87,2-3.55,5.44-3.55,5.54,1.64,5.54,4.39-1.78,3.44-3.72,4.16c-1.64.63-2.86,1.09-3.36,2H428c1.45,0,2,.55,2,1.53v0.17c0,1-.5,1.64-2,1.64h-6.63c-2,0-2.52-.27-2.52-2v-0.8Z"/><path class="cls-14" d="M434.89,54.49a2.15,2.15,0,0,1,1.55-.46,2.23,2.23,0,0,1,2.31,1.81A3.68,3.68,0,0,1,442,53.93,3.1,3.1,0,0,1,445.24,56a3.78,3.78,0,0,1,3.42-2.08c2.67,0,3.57,1.79,3.57,4V62.7c0,1.45-.73,2-1.76,2h-0.42a1.66,1.66,0,0,1-1.85-2V58.63A1.19,1.19,0,0,0,447,57.2a1.67,1.67,0,0,0-1.39.76V62.7c0,1.47-.74,2-1.79,2h-0.4a1.66,1.66,0,0,1-1.85-2v-4a1.21,1.21,0,0,0-1.24-1.47,1.67,1.67,0,0,0-1.39.76V62.7a1.65,1.65,0,0,1-1.78,2h-0.42a1.65,1.65,0,0,1-1.83-2V54.49Z"/><path class="cls-14" d="M459.25,53.93c3.4,0,5.65,2.18,5.65,5.46s-2.27,5.46-5.71,5.46-5.67-2.14-5.67-5.48S455.81,53.93,459.25,53.93Zm0,7.83a2.4,2.4,0,1,0-2.27-2.39A2.23,2.23,0,0,0,459.21,61.76Z"/><path class="cls-14" d="M466.29,54.49a2.15,2.15,0,0,1,1.55-.46,2.23,2.23,0,0,1,2.31,1.81,3.83,3.83,0,0,1,3.42-1.91c2.71,0,3.7,2,3.7,4.12V62.7a1.65,1.65,0,0,1-1.78,2h-0.4a1.66,1.66,0,0,1-1.85-2v-4a1.34,1.34,0,0,0-1.34-1.53,1.79,1.79,0,0,0-1.57.84V62.7a1.65,1.65,0,0,1-1.79,2h-0.42a1.65,1.65,0,0,1-1.83-2V54.49Z"/><path class="cls-14" d="M479.94,57.18h-0.23a1.36,1.36,0,0,1-1.64-1.37V55.59a1.38,1.38,0,0,1,1.64-1.45h0.23v-1a1.69,1.69,0,0,1,1.81-2h0.34c1.07,0,1.81.46,1.81,2v1h1.2a1.3,1.3,0,0,1,1.58,1.37v0.23A1.37,1.37,0,0,1,485,57.18H483.8v3.49a0.86,0.86,0,0,0,.88,1,1.38,1.38,0,0,0,1.15-.63,1.47,1.47,0,0,1,.88,1.47c0,1.34-1.22,2.29-3.13,2.29-2.48,0-3.65-1.26-3.65-3.74V57.18Z"/><path class="cls-14" d="M488,50.23a2.15,2.15,0,0,1,1.55-.46c1.15,0,2.48.61,2.48,3.07v3a3.51,3.51,0,0,1,3.25-1.87c2.71,0,3.7,2,3.7,4.26V62.7a1.65,1.65,0,0,1-1.78,2h-0.4a1.66,1.66,0,0,1-1.85-2V58.82a1.38,1.38,0,0,0-1.32-1.62,1.5,1.5,0,0,0-1.6,1.7v3.8a1.65,1.65,0,0,1-1.79,2h-0.42a1.65,1.65,0,0,1-1.83-2V50.23Z"/><path class="cls-14" d="M501.13,60.86a4.91,4.91,0,0,0,3.32,1.22c0.84,0,1.3-.1,1.3-0.52s-0.67-.55-1.7-0.78c-1.3-.27-3.67-0.78-3.67-3.3,0-2.14,1.78-3.53,4.58-3.53,3,0,4.45.9,4.45,2.37a2,2,0,0,1-1.11,1.62,4.5,4.5,0,0,0-3-1.28c-0.78,0-1.24.13-1.24,0.57s0.73,0.48,1.81.73c1.32,0.29,3.82.82,3.82,3.3,0,2.2-1.81,3.53-4.89,3.53s-4.66-.9-4.66-2.37A1.91,1.91,0,0,1,501.13,60.86Z"/></svg>