<!-- Generator: Adobe Illustrator 18.1.1, SVG Export Plug-In  -->
<svg version="1.1"
	 xmlns="http://www.w3.org/2000/svg" xmlns:xlink="http://www.w3.org/1999/xlink" xmlns:a="http://ns.adobe.com/AdobeSVGViewerExtensions/3.0/"
	 x="0px" y="0px" width="248px" height="248px" viewBox="0 0 248 248" enable-background="new 0 0 248 248" xml:space="preserve">
<defs>
</defs>
<path fill="#E8E8E8" d="M124,25.1V0C89.5,0,58.4,14.1,35.9,36.7l17.7,17.7C71.6,36.3,96.5,25.1,124,25.1z"/>
<path fill="#FF2D9C" d="M222.9,123.4H248C247.7,55.2,192.3,0,124,0v25.1C178.4,25.1,222.6,69,222.9,123.4z"/>
<path fill="#E8E8E8" d="M53.6,54.5L35.9,36.7C13.8,59,0.2,89.6,0,123.4h25.1C25.2,96.5,36.1,72.2,53.6,54.5z"/>
<path fill="#E8E8E8" d="M124,222.9V248c34,0,64.9-13.7,87.3-35.9l-17.7-17.7C175.7,212,151.1,222.9,124,222.9z"/>
<path fill="#E8E8E8" d="M25.1,124c0-0.2,0-0.4,0-0.6H0c0,0.2,0,0.4,0,0.6c0,68.5,55.5,124,124,124v-25.1
	C69.4,222.9,25.1,178.6,25.1,124z"/>
<path fill="#FF2D9C" d="M248,124c0-0.2,0-0.4,0-0.6h-25.1c0,0.2,0,0.4,0,0.6c0,27.5-11.2,52.4-29.4,70.4l17.7,17.7
	C233.9,189.6,248,158.5,248,124z"/>
<path fill="#E8E8E8" d="M72.4,73.3L56.8,57.7c-16.7,16.9-27.1,40.1-27.2,65.7h22.1C51.8,103.9,59.7,86.2,72.4,73.3z"/>
<path fill="#49E100" d="M124,196.4v22.1c25.9,0,49.3-10.4,66.3-27.2l-15.6-15.6C161.7,188.4,143.8,196.4,124,196.4z"/>
<path fill="#49E100" d="M51.6,124c0-0.2,0-0.4,0-0.6H29.6c0,0.2,0,0.4,0,0.6c0,52.1,42.3,94.4,94.4,94.4v-22.1
	C84,196.4,51.6,164,51.6,124z"/>
<path fill="#49E100" d="M196.4,124c0,20.2-8.3,38.5-21.6,51.6l15.6,15.6c17.3-17.1,28.1-40.9,28.1-67.2c0-0.2,0-0.4,0-0.6h-22.1
	C196.4,123.6,196.4,123.8,196.4,124z"/>
<path fill="#E8E8E8" d="M56.8,57.7l15.6,15.6c13.1-13.3,31.4-21.6,51.6-21.6V29.6C97.7,29.6,73.9,40.3,56.8,57.7z"/>
<path fill="#49E100" d="M196.4,123.4h22.1c-0.3-51.9-42.5-93.8-94.4-93.8v22.1C163.8,51.6,196,83.7,196.4,123.4z"/>
<polygon fill="#FFFFFF" points="124,123.4 122.6,123.4 124,124.8 "/>
</svg>
