<!-- Generator: Adobe Illustrator 18.1.0, SVG Export Plug-In  -->
<svg version="1.1"
	 xmlns="http://www.w3.org/2000/svg" xmlns:xlink="http://www.w3.org/1999/xlink" xmlns:a="http://ns.adobe.com/AdobeSVGViewerExtensions/3.0/"
	 x="0px" y="0px" width="27px" height="48.9px" viewBox="0 0 27 48.9" enable-background="new 0 0 27 48.9" xml:space="preserve">
<defs>
</defs>
<path fill="#C2C2C2" d="M23.3,0.3c-0.2,0-0.6,0-0.6,0v0C18.6,0,8.5-0.1,6.4,0.1v0c-2,0.1-1.8,0.1-2.9,0.2C0.1,0.5,0,2.9,0,5.7
	l0.1,36.9c-0.1,2.8-0.2,5.6,3.4,5.9c1,0.1,0.8,0.2,2.9,0.2v0.1c2,0.1,4.7,0.2,6.8,0.2c3,0,5.4-0.1,9.4-0.4v0c0,0,0.4,0,0.6,0
	c3.6-0.3,3.8-3.2,3.7-5.9l0-36.9C27,2.9,26.7,0.5,23.3,0.3z"/>
</svg>
