<!-- Generator: Adobe Illustrator 18.1.0, SVG Export Plug-In  -->
<svg version="1.1"
	 xmlns="http://www.w3.org/2000/svg" xmlns:xlink="http://www.w3.org/1999/xlink" xmlns:a="http://ns.adobe.com/AdobeSVGViewerExtensions/3.0/"
	 x="0px" y="0px" width="54.5px" height="50.7px" viewBox="0 0 54.5 50.7" enable-background="new 0 0 54.5 50.7"
	 xml:space="preserve">
<defs>
</defs>
<path fill="#FA0E6A" d="M23.1,29.4c-0.4,1.2-6.1,4.2-9.2,4.1c-2.1,0-3-0.6-4.1-1.1c-2-0.2-3.5,0.7-4.7-0.7c-2.3,0.7-4.1-0.3-3-1.4
	c-1.7,0.1-1-1.3-0.5-1.9c-0.6,0.1-1.3,0.3-1.5-0.4c-0.2-0.6,0-1.2,1.2-1.9C2.6,25.3,5,25.3,6,25.5c2.6,0.7,3.8,1.9,6.2,3.4
	c5.6,3.6,10-0.7,10.3-0.7"/>
<path fill="#FFFFFF" d="M46.7,22.2c-1.9-1-4.5-0.2-6.1,0.4c-0.2-0.8-0.5-1.6-0.9-2.3c-1-1.6-0.7-3.7-0.7-3.7l3.2-0.1
	c0,0-0.3,1.6,1.4,2.6c1.2,0.7,4.6,0.8,5.5-2.1c0.7-2-1.3-3.6-1.3-3.6l-4.9-4c0,0,0.5-1.9-0.1-3.1c-0.5,0.9-2.7,2.2-2.7,2.2
	s-0.3-1.8-1.3-3.1c-0.2,1.2-9,14.8-9,14.8s-1.8,3-4.5,4.6c-2.9,1.8-4.8,4.3-4.6,6.9c0.2,3.3,2,5.1,1.8,6.2c-0.2,1.1-1.4,2.5-1,3.2
	c0.4,0.8,4.5,5.9,4.5,5.9s-1.1,2.5-0.8,3.1c0.4,0.7,5.5,0.6,5.7,0c0.1-0.6-0.1-1.6-1.3-3.3c-1.4-2-4.3-5-4.3-5s1.9-0.9,3.7-2.5
	c0,0.5,0.1,1,0.4,1.2c0.7,0.6,5,3.7,5,3.7s-0.4,2.5,0.1,3c0.5,0.5,5.2,0.7,5.6,0.2c0.4-0.6-1.4-3.3-3.3-4.4
	c-2.2-1.3-4.3-3.8-4.3-3.8s4.9-3.5,1.1-7.2c1.7-0.9,3.5-1,6.1-3.7c1.3,0.2,2.3,0,3.6,0c1,0.9-3,5.5-2.4,6.4c0.6,0.9,3.7,1.2,4.6,0.8
	c0.9-0.4,1.7-6.7,0.9-8.5c-0.4-1-1.9-1.6-3.1-2c0.9-0.5,1.8-0.9,2.4-0.7c1.3,0.4,4.4,4.3,5.3,4.5c1.4,0.3,3.8-1.5,3.8-2.5
	C54.5,25.8,48.6,23.2,46.7,22.2z"/>
<path fill="none" stroke="#000000" stroke-width="0.4181" stroke-linecap="round" stroke-miterlimit="10" d="M44.2,12.7
	c0-0.4-0.8-0.9-1.1-0.1"/>
<path fill="none" stroke="#000000" stroke-width="0.4181" stroke-linecap="round" stroke-miterlimit="10" d="M41.3,12.2
	c-0.2-0.4-1.1-0.5-1.1,0.3"/>
<path fill="none" stroke="#000000" stroke-width="0.4181" stroke-linecap="round" stroke-miterlimit="10" d="M47,17.4
	c-0.4,0.7-2.4,1-3-0.6"/>
<path fill="#FA0E6A" d="M44.7,0c0.2,0.2-0.5,4.6-0.8,4.8c-0.3,0.3-1.2,0-1.2,0s-0.7,3.3-1.1,4.4c-1.1,0-1.5-0.5-1.5-0.5s0-0.6-0.1-1
	c0.8-1.6,2-4.2,2.2-4.4c0.3-0.2,1-0.1,1-0.1S44.5-0.2,44.7,0z"/>
</svg>
