<!-- Generator: Adobe Illustrator 18.1.0, SVG Export Plug-In  -->
<svg version="1.1"
	 xmlns="http://www.w3.org/2000/svg" xmlns:xlink="http://www.w3.org/1999/xlink" xmlns:a="http://ns.adobe.com/AdobeSVGViewerExtensions/3.0/"
	 x="0px" y="0px" width="220.4px" height="220.4px" viewBox="0 0 220.4 220.4" enable-background="new 0 0 220.4 220.4"
	 xml:space="preserve">
<defs>
</defs>
<g>
	<polygon fill="#FA0E6A" points="110.2,110.2 100.1,220.4 110.2,220.4 120.3,220.4 	"/>
	<polygon fill="#EF9C2E" points="110.2,110.2 156.6,210.6 165.3,205.6 174,200.5 	"/>
	<polygon fill="#0E91CF" points="110.2,110.2 200.6,174 205.6,165.2 210.7,156.5 	"/>
	<polygon fill="#FA0E6A" points="110.2,110.2 220.4,120.2 220.4,110.1 220.4,100 	"/>
	<polygon fill="#EF9C2E" points="110.2,110.2 210.6,63.7 205.6,55 200.5,46.3 	"/>
	<polygon fill="#0E91CF" points="110.2,110.2 173.9,19.8 165.2,14.7 156.5,9.7 	"/>
	<polygon fill="#FA0E6A" points="110.2,110.2 120.1,0 110.1,0 100,0 	"/>
	<polygon fill="#EF9C2E" points="110.2,110.2 63.7,9.8 55,14.8 46.3,19.9 	"/>
	<polygon fill="#0E91CF" points="110.2,110.2 19.7,46.5 14.7,55.2 9.7,64 	"/>
	<polygon fill="#FA0E6A" points="110.2,110.2 0,100.3 0,110.4 0,120.5 	"/>
	<polygon fill="#EF9C2E" points="110.2,110.2 9.8,156.7 14.9,165.5 19.9,174.2 	"/>
	<polygon fill="#0E91CF" points="110.2,110.2 46.6,200.7 55.3,205.7 64,210.7 	"/>
</g>
</svg>
