<!-- Generator: Adobe Illustrator 18.1.0, SVG Export Plug-In  -->
<svg version="1.1"
	 xmlns="http://www.w3.org/2000/svg" xmlns:xlink="http://www.w3.org/1999/xlink" xmlns:a="http://ns.adobe.com/AdobeSVGViewerExtensions/3.0/"
	 x="0px" y="0px" width="15.7px" height="26px" viewBox="0 0 15.7 26" enable-background="new 0 0 15.7 26" xml:space="preserve">
<defs>
</defs>
<path fill="#FFFFFF" d="M14.2,4.5c0.9,0.6,1.2,1.4,1.2,2.3c0,0.4-0.1,0.9-0.3,1.2s-0.4,0.6-0.6,1c-0.2,0.2-0.4,0.4-0.6,0.5
	c-0.2,0.1-0.3,0.2-0.3,0.2c-0.6-0.6-1.4-1.1-2.4-1.5c-0.9-0.3-1.7-0.5-2.6-0.5c-1.6,0-2.4,0.4-2.4,1.4c0,0.2,0.1,0.4,0.2,0.6
	c0.2,0.1,0.4,0.3,0.6,0.4c0.3,0.1,0.6,0.2,1.1,0.3c0.4,0.1,0.9,0.2,1.3,0.3c0.6,0.1,1.3,0.3,2.1,0.5c0.8,0.2,1.4,0.5,2.1,1
	c0.6,0.4,1.2,1,1.6,1.6s0.6,1.5,0.6,2.5c0,1.6-0.4,2.9-1.4,3.9c-1,1-2.3,1.6-4,2.1v0.8c0,1-0.2,1.6-0.5,2.1c-0.3,0.4-1,0.8-1.8,0.8
	l0,0c-0.9,0-1.5-0.2-1.8-0.6c-0.3-0.4-0.5-1.2-0.5-2.2v-0.6c-1.8-0.2-3.1-0.6-4.1-1.3c-1-0.6-1.4-1.5-1.4-2.5c0-0.4,0.1-0.8,0.3-1.1
	c0.2-0.3,0.3-0.6,0.5-0.9s0.4-0.4,0.6-0.5s0.3-0.2,0.3-0.1c0.3,0.2,0.6,0.5,1.1,0.8c0.4,0.2,0.9,0.4,1.4,0.6c0.5,0.2,1,0.3,1.5,0.4
	c0.5,0.1,1.1,0.2,1.5,0.2c1.6,0,2.5-0.4,2.5-1.4c0-0.2-0.1-0.4-0.2-0.6c-0.2-0.2-0.4-0.3-0.6-0.4s-0.6-0.2-1-0.3
	c-0.3-0.1-0.8-0.2-1.3-0.3c-0.6-0.1-1.3-0.3-2.1-0.5c-0.8-0.2-1.4-0.5-2.1-1s-1.2-1-1.6-1.6c-0.4-0.6-0.6-1.5-0.6-2.6
	c0-1.5,0.4-2.8,1.3-3.8c0.9-1,2.2-1.6,3.8-2.1V2.8c0-1,0.2-1.6,0.5-2.1C6.3,0.3,6.9,0,7.8,0h0.1c0.9,0,1.5,0.2,1.8,0.6
	s0.5,1.2,0.5,2.2v0.5C12.2,3.6,13.3,4,14.2,4.5z"/>
</svg>
