<?xml version="1.0" encoding="utf-8"?>
<!-- Generator: Adobe Illustrator 19.1.0, SVG Export Plug-In . SVG Version: 6.00 Build 0)  -->
<svg version="1.1" id="Layer_1" xmlns="http://www.w3.org/2000/svg" xmlns:xlink="http://www.w3.org/1999/xlink" x="0px" y="0px"
	 viewBox="-401 413.6 75.7 54.4" style="enable-background:new -401 413.6 75.7 54.4;" xml:space="preserve">
<style type="text/css">
	.st0{fill:#464646;}
	.st1{fill:#7DAB2C;}
	.st2{fill:none;stroke:#C2C2C2;stroke-miterlimit:10;}
	.st3{fill:#8DD258;}
	.st4{fill:#FFFFFF;}
</style>
<g>
	<path class="st0" d="M-392.2,426.7c0,0.2-0.1,0.3-0.3,0.3h-0.1c-0.2,0-0.3-0.1-0.3-0.3v-1.5l-1.6-2.4c0,0,0.1-0.3,0.5-0.3
		c0.1,0,0.3,0.1,0.3,0.2l1.1,1.8l1.1-1.8c0.1-0.2,0.2-0.2,0.4-0.2c0.3,0,0.5,0.2,0.4,0.3l-1.5,2.4V426.7z"/>
	<path class="st0" d="M-390.4,425.3c0-1,0.7-1.7,1.7-1.7s1.7,0.7,1.7,1.8c0,1-0.7,1.7-1.7,1.7C-389.6,427.1-390.4,426.4-390.4,425.3
		z M-387.5,425.3c0-0.7-0.5-1.2-1.1-1.2s-1.1,0.5-1.1,1.2c0,0.7,0.5,1.2,1.1,1.2S-387.5,426-387.5,425.3z"/>
	<path class="st0" d="M-385,427.1c-0.9,0-1.3-0.6-1.3-1.4V424c0-0.2,0.1-0.3,0.3-0.3h0.1c0.2,0,0.3,0.1,0.3,0.3v1.6
		c0,0.6,0.3,0.9,0.8,0.9c0.4,0,0.7-0.2,0.9-0.6V424c0-0.2,0.1-0.3,0.3-0.3h0.1c0.2,0,0.3,0.1,0.3,0.3v3c0,0-0.1,0.1-0.2,0.1
		c-0.2,0-0.4-0.1-0.4-0.5C-384.1,426.8-384.5,427.1-385,427.1z"/>
	<path class="st1" d="M-369.1,426.4c0.2,0,0.3,0.1,0.3,0.3l0,0c0,0.2-0.1,0.3-0.3,0.3h-2.5c-0.3,0-0.4-0.1-0.4-0.4v-0.2
		c0-0.9,0.7-1.3,1.4-1.7c0.6-0.3,1.1-0.5,1.1-1s-0.3-0.7-0.9-0.7c-0.7,0-1,0.4-1.1,0.9c0,0-0.5,0-0.5-0.3c0-0.5,0.6-1.1,1.6-1.1
		s1.6,0.5,1.6,1.3c0,0.8-0.6,1.1-1.3,1.4c-0.7,0.3-1.2,0.6-1.2,1.2C-370.7,426.4-369.2,426.4-369.1,426.4z"/>
	<path class="st1" d="M-364.5,422.3c0,0,0.1-0.1,0.2-0.1c0.2,0,0.4,0.1,0.4,0.6v3.9c0,0.2-0.1,0.3-0.3,0.3h-0.1
		c-0.2,0-0.3-0.1-0.3-0.3v-0.3c-0.3,0.4-0.6,0.6-1.2,0.6c-0.9,0-1.6-0.7-1.6-1.7c0-1.1,0.7-1.7,1.6-1.7c0.5,0,0.9,0.2,1.1,0.5v-1.8
		H-364.5z M-364.5,424.8c-0.1-0.4-0.5-0.6-1-0.6c-0.6,0-1,0.5-1,1.2c0,0.7,0.4,1.2,1,1.2s1-0.4,1-1V424.8z"/>
	<path class="st1" d="M-360.8,424.9c0-0.5-0.3-0.8-0.8-0.8s-0.8,0.3-1,0.6c0,0-0.4,0-0.4-0.3c0-0.3,0.5-0.8,1.4-0.8s1.5,0.5,1.5,1.3
		v2c0,0-0.1,0.1-0.2,0.1c-0.2,0-0.4-0.1-0.4-0.5c-0.3,0.4-0.8,0.6-1.3,0.6c-0.7,0-1.1-0.4-1.1-0.9
		C-363.1,425.4-362.4,425-360.8,424.9L-360.8,424.9L-360.8,424.9z M-360.8,425.7v-0.3h-0.2c-1,0-1.5,0.2-1.5,0.7
		c0,0.3,0.2,0.5,0.6,0.5C-361.2,426.6-360.8,426.2-360.8,425.7z"/>
	<path class="st1" d="M-358.7,428.2l0.6-1.3c-0.2,0-0.2-0.1-0.3-0.2l-1.2-2.8c0,0,0.1-0.2,0.4-0.2c0.2,0,0.3,0.1,0.4,0.4l0.8,2.2
		l0.8-2.3c0.1-0.3,0.2-0.4,0.4-0.4c0.2,0,0.4,0.2,0.4,0.2l-1.6,4.1c-0.1,0.3-0.3,0.4-0.4,0.4C-358.6,428.3-358.7,428.2-358.7,428.2z
		"/>
	<path class="st1" d="M-356.1,426.4c0-0.2,0.2-0.3,0.3-0.3c0.2,0.3,0.6,0.5,1.1,0.5s0.7-0.2,0.7-0.4c0-0.3-0.3-0.4-0.9-0.5
		c-0.5-0.1-1.2-0.3-1.2-1c0-0.6,0.5-1,1.3-1c0.9,0,1.3,0.4,1.3,0.7c0,0.2-0.3,0.3-0.3,0.3c-0.2-0.3-0.6-0.5-1-0.5
		c-0.5,0-0.7,0.2-0.7,0.5c0,0.3,0.3,0.4,0.8,0.5s1.2,0.3,1.2,1c0,0.6-0.5,1-1.4,1C-355.6,427.1-356.1,426.7-356.1,426.4z"/>
	<path class="st0" d="M-351.7,425.3c0-1,0.7-1.7,1.7-1.7s1.7,0.7,1.7,1.8c0,1-0.7,1.7-1.7,1.7S-351.7,426.4-351.7,425.3z
		 M-348.9,425.3c0-0.7-0.5-1.2-1.1-1.2s-1.1,0.5-1.1,1.2c0,0.7,0.5,1.2,1.1,1.2S-348.9,426-348.9,425.3z"/>
	<path class="st0" d="M-347.6,424.2c-0.2,0-0.3-0.1-0.3-0.3l0,0c0-0.2,0.1-0.2,0.3-0.2h0.4v-0.3c0-0.8,0.4-1.2,1.1-1.2
		c0.5,0,0.7,0.2,0.7,0.4s-0.2,0.3-0.2,0.3c-0.1-0.1-0.3-0.2-0.5-0.2c-0.3,0-0.5,0.2-0.5,0.7v0.2h0.6c0.2,0,0.3,0.1,0.3,0.3l0,0
		c0,0.2-0.1,0.3-0.3,0.3h-0.5v2.5c0,0.2-0.1,0.3-0.3,0.3h-0.1c-0.2,0-0.3-0.1-0.3-0.3v-2.5H-347.6z"/>
	<path class="st0" d="M-343.3,428c0,0.2-0.1,0.3-0.3,0.3h-0.1c-0.2,0-0.3-0.1-0.3-0.3v-4.3c0,0,0.1-0.1,0.2-0.1
		c0.2,0,0.4,0.1,0.4,0.6c0.3-0.4,0.6-0.6,1.2-0.6c0.9,0,1.6,0.7,1.6,1.7s-0.7,1.8-1.6,1.8c-0.5,0-1-0.3-1.1-0.6
		C-343.3,426.5-343.3,428-343.3,428z M-343.3,425.5c0,0.6,0.5,1,1,1c0.6,0,1-0.5,1-1.2c0-0.7-0.4-1.2-1-1.2c-0.5,0-0.9,0.3-1,0.7
		C-343.3,424.8-343.3,425.5-343.3,425.5z"/>
	<path class="st0" d="M-340.1,425.3c0-1,0.7-1.7,1.7-1.7s1.7,0.7,1.7,1.8c0,1-0.7,1.7-1.7,1.7S-340.1,426.4-340.1,425.3z
		 M-337.3,425.3c0-0.7-0.5-1.2-1.1-1.2s-1.1,0.5-1.1,1.2c0,0.7,0.5,1.2,1.1,1.2S-337.3,426-337.3,425.3z"/>
	<path class="st0" d="M-335.5,426.8l-0.8-3c0,0,0.2-0.2,0.4-0.2c0.1,0,0.3,0.1,0.4,0.4l0.5,2.3l0.6-2c0-0.2,0.2-0.2,0.4-0.2
		s0.4,0.1,0.4,0.2l0.6,2l0.5-2.3c0-0.3,0.2-0.4,0.4-0.4c0.2,0,0.4,0.2,0.4,0.2l-0.8,3c0,0.2-0.2,0.2-0.4,0.2c-0.3,0-0.4-0.1-0.4-0.2
		l-0.6-2l-0.7,2c-0.1,0.2-0.1,0.2-0.4,0.2S-335.4,427-335.5,426.8z"/>
	<path class="st0" d="M-329.5,426.5c0.6,0,0.9-0.3,1-0.6c0,0,0.4,0,0.4,0.3c0,0.3-0.5,0.8-1.4,0.8c-1.1,0-1.8-0.7-1.8-1.7
		s0.7-1.8,1.7-1.8s1.6,0.7,1.6,1.7v0.1c0,0.1,0,0.2-0.2,0.2h-2.4C-330.6,426.1-330.2,426.5-329.5,426.5z M-328.7,425.1
		c0-0.6-0.4-0.9-0.9-0.9s-1,0.4-1.1,0.9H-328.7z"/>
	<path class="st0" d="M-325.8,423.6c0.3,0,0.5,0.2,0.5,0.4c0,0.3-0.2,0.4-0.2,0.4c-0.1-0.1-0.2-0.2-0.4-0.2c-0.5,0-0.8,0.5-0.8,1.3
		v1.2c0,0.2-0.1,0.3-0.3,0.3h-0.1c-0.2,0-0.3-0.1-0.3-0.3v-3c0,0,0.1-0.1,0.2-0.1c0.2,0,0.4,0.1,0.4,0.6
		C-326.5,423.8-326.3,423.6-325.8,423.6z"/>
</g>
<g>
	<path class="st0" d="M-400.7,452.8v-2.6c0-0.2,0.1-0.3,0.3-0.3h0.8c1,0.1,1.6,0.7,1.6,1.6c0,1-0.6,1.6-1.7,1.6h-0.7
		C-400.6,453.1-400.7,453-400.7,452.8z M-399.7,452.7c0.8,0,1.2-0.4,1.2-1.1c0-0.7-0.4-1.1-1.2-1.1h-0.5v2.3h0.5V452.7z"/>
	<path class="st0" d="M-396,451.7c0-0.4-0.2-0.5-0.6-0.5s-0.6,0.2-0.7,0.4c0,0-0.3,0-0.3-0.2c0-0.2,0.3-0.6,1-0.6c0.7,0,1,0.3,1,0.9
		v1.4c0,0-0.1,0.1-0.2,0.1c-0.2,0-0.3-0.1-0.3-0.4c-0.2,0.3-0.5,0.4-0.8,0.4c-0.5,0-0.8-0.3-0.8-0.7
		C-397.6,452-397.1,451.7-396,451.7L-396,451.7L-396,451.7z M-396,452.2V452h-0.1c-0.7,0-1,0.1-1,0.5c0,0.2,0.2,0.3,0.4,0.3
		C-396.3,452.8-396,452.6-396,452.2z"/>
	<path class="st0" d="M-395,450c0-0.2,0.1-0.3,0.3-0.3c0.2,0,0.3,0.1,0.3,0.3c0,0.2-0.1,0.3-0.3,0.3C-394.9,450.3-395,450.2-395,450
		z M-394.9,452.9V451c0-0.2,0.1-0.2,0.2-0.2l0,0c0.1,0,0.2,0.1,0.2,0.2v1.9c0,0.2-0.1,0.2-0.2,0.2l0,0
		C-394.8,453.1-394.9,453.1-394.9,452.9z"/>
	<path class="st0" d="M-393.8,452.9v-3.1c0,0,0.1-0.1,0.2-0.1c0.2,0,0.3,0.1,0.3,0.4v2.7c0,0.2-0.1,0.2-0.2,0.2l0,0
		C-393.7,453.1-393.8,453.1-393.8,452.9z"/>
	<path class="st0" d="M-392.3,453.9l0.4-0.9c-0.1,0-0.2,0-0.2-0.1l-0.9-2c0,0,0.1-0.1,0.3-0.1c0.1,0,0.2,0.1,0.3,0.3l0.6,1.5
		l0.6-1.6c0.1-0.2,0.2-0.3,0.3-0.3s0.3,0.1,0.3,0.1l-1.1,2.9c-0.1,0.2-0.2,0.3-0.3,0.3C-392.2,454.1-392.3,453.9-392.3,453.9z"/>
	<path class="st0" d="M-388.6,453.2c-0.6,0-0.9-0.4-0.9-1V451c0-0.2,0.1-0.2,0.2-0.2h0.1c0.1,0,0.2,0.1,0.2,0.2v1.1
		c0,0.4,0.2,0.6,0.6,0.6c0.3,0,0.5-0.2,0.6-0.4V451c0-0.2,0.1-0.2,0.2-0.2h0.1c0.1,0,0.2,0.1,0.2,0.2v2.1c0,0-0.1,0.1-0.2,0.1
		s-0.3-0.1-0.3-0.4C-388,453-388.3,453.2-388.6,453.2z"/>
	<path class="st0" d="M-387,452.7c0-0.1,0.2-0.2,0.2-0.2c0.2,0.2,0.4,0.3,0.8,0.3c0.3,0,0.5-0.1,0.5-0.3s-0.2-0.3-0.6-0.4
		c-0.3-0.1-0.8-0.2-0.8-0.7c0-0.4,0.4-0.7,0.9-0.7c0.6,0,0.9,0.3,0.9,0.5c0,0.1-0.2,0.2-0.2,0.2c-0.1-0.2-0.4-0.3-0.7-0.3
		s-0.5,0.1-0.5,0.3c0,0.2,0.2,0.3,0.6,0.3c0.4,0.1,0.9,0.2,0.9,0.7c0,0.4-0.4,0.7-1,0.7C-386.6,453.2-387,452.9-387,452.7z"/>
	<path class="st0" d="M-383.1,451.7c0-0.4-0.2-0.5-0.6-0.5c-0.4,0-0.6,0.2-0.7,0.4c0,0-0.3,0-0.3-0.2c0-0.2,0.3-0.6,1-0.6
		c0.7,0,1,0.3,1,0.9v1.4c0,0-0.1,0.1-0.2,0.1c-0.2,0-0.3-0.1-0.3-0.4c-0.2,0.3-0.5,0.4-0.8,0.4c-0.5,0-0.8-0.3-0.8-0.7
		C-384.7,452-384.2,451.7-383.1,451.7L-383.1,451.7L-383.1,451.7z M-383.1,452.2V452h-0.1c-0.7,0-1,0.1-1,0.5c0,0.2,0.2,0.3,0.4,0.3
		C-383.4,452.8-383.1,452.6-383.1,452.2z"/>
	<path class="st0" d="M-380.5,450.6c0.1-0.1,0.2-0.2,0.3-0.2c0.2,0,0.3,0.2,0.2,0.2l-0.4,0.4c0.1,0.1,0.2,0.3,0.2,0.5
		c0,0.5-0.4,0.8-1,0.8h-0.1v0.1c0,0.2,0.2,0.2,0.6,0.3c0.3,0.1,0.7,0.3,0.7,0.6c0,0.4-0.4,0.7-1.2,0.7c-0.8,0-1.1-0.2-1.1-0.6
		c0-0.3,0.3-0.6,0.7-0.6c-0.1,0-0.1-0.1-0.1-0.2s0.1-0.2,0.1-0.3c-0.4-0.1-0.6-0.4-0.6-0.8c0-0.5,0.4-0.9,1-0.9
		c0.2,0,0.4,0.1,0.6,0.1L-380.5,450.6z M-381.9,453.5c0,0.2,0.2,0.3,0.7,0.3s0.7-0.1,0.7-0.4c0-0.2-0.4-0.3-0.7-0.4
		C-381.5,453.1-381.9,453.2-381.9,453.5z M-380.6,451.6c0-0.3-0.2-0.5-0.6-0.5c-0.3,0-0.5,0.2-0.5,0.5s0.2,0.5,0.5,0.5
		C-380.9,452.1-380.6,451.9-380.6,451.6z"/>
	<path class="st0" d="M-378.6,452.8c0.4,0,0.6-0.2,0.7-0.4c0,0,0.3,0,0.3,0.2s-0.4,0.5-1,0.5c-0.7,0-1.2-0.5-1.2-1.2
		c0-0.7,0.5-1.2,1.2-1.2c0.7,0,1.1,0.5,1.1,1.2l0,0c0,0.1,0,0.1-0.1,0.1h-1.7C-379.3,452.5-379,452.8-378.6,452.8z M-378,451.7
		c0-0.4-0.3-0.7-0.7-0.7c-0.4,0-0.7,0.3-0.7,0.7H-378z"/>
</g>
<polyline class="st2" points="-400.5,456 -400.5,467.5 -327,467.5 "/>
<path class="st3" d="M-342,443h-31.1c-0.5,0-1-0.5-1-1v-7.4c0-0.6,0.5-1,1-1h31.1c0.6,0,1,0.4,1,1v7.4C-341,442.5-341.4,443-342,443
	z"/>
<g>
	<path class="st4" d="M-370.4,439.8c0,0-0.1-0.1-0.1-0.2v-3.4c0-0.1,0-0.1,0.1-0.2s0.1-0.1,0.2-0.1h1.2c0.4,0,0.7,0.1,0.9,0.3
		c0.2,0.2,0.3,0.4,0.3,0.8c0,0.4-0.2,0.7-0.7,0.8c0.3,0.1,0.5,0.2,0.6,0.3c0.1,0.2,0.2,0.4,0.2,0.6c0,0.4-0.1,0.6-0.3,0.8
		s-0.6,0.3-1.1,0.3h-1.3C-370.3,439.8-370.3,439.8-370.4,439.8z M-369,437.7c0.3,0,0.5-0.1,0.6-0.2c0.1-0.1,0.2-0.3,0.2-0.5
		c0-0.4-0.3-0.7-0.8-0.7h-1.1v1.4H-369z M-369,439.5c0.3,0,0.6-0.1,0.8-0.2c0.2-0.1,0.2-0.3,0.2-0.6c0-0.5-0.3-0.7-1-0.7h-1.1v1.4
		H-369z"/>
	<path class="st4" d="M-365.2,439.8c-0.2,0.1-0.4,0.1-0.6,0.1c-0.2,0-0.4,0-0.5-0.1s-0.3-0.1-0.4-0.3c-0.1-0.1-0.2-0.2-0.2-0.4
		c0-0.2-0.1-0.3-0.1-0.5v-1.5c0-0.1,0-0.1,0-0.1c0,0,0.1,0,0.1,0h0c0.1,0,0.1,0,0.1,0c0,0,0,0.1,0,0.1v1.5c0,0.3,0.1,0.5,0.2,0.7
		c0.1,0.2,0.3,0.2,0.6,0.2c0.2,0,0.4-0.1,0.5-0.2c0.2-0.1,0.3-0.3,0.4-0.4v-1.8c0-0.1,0-0.1,0-0.1c0,0,0.1,0,0.1,0h0
		c0.1,0,0.1,0,0.1,0c0,0,0,0.1,0,0.1v2.7c0,0,0,0,0,0c0,0-0.1,0-0.1,0c-0.1,0-0.1,0-0.2-0.1c-0.1,0-0.1-0.2-0.1-0.3v-0.1
		C-364.9,439.5-365,439.7-365.2,439.8z"/>
	<path class="st4" d="M-362.9,441c-0.1,0-0.1,0-0.1,0c0,0-0.1,0-0.1-0.1l0.5-1.2c-0.1,0-0.1,0-0.1,0c0,0-0.1-0.1-0.1-0.1l-1-2.5
		c0,0,0,0,0-0.1c0,0,0.1,0,0.2,0c0.1,0,0.1,0,0.2,0.1c0,0,0.1,0.1,0.1,0.2l0.9,2.2l0.8-2.2c0-0.1,0.1-0.2,0.1-0.2
		c0,0,0.1-0.1,0.2-0.1c0.1,0,0.1,0,0.1,0c0,0,0.1,0,0.1,0.1l-1.4,3.7c0,0.1-0.1,0.2-0.1,0.2C-362.8,441-362.9,441-362.9,441z"/>
	<path class="st4" d="M-359.4,440.8c0,0.1,0,0.1,0,0.1c0,0-0.1,0-0.1,0h0c-0.1,0-0.1,0-0.1,0c0,0,0-0.1,0-0.1V437c0,0,0,0,0,0
		c0,0,0.1,0,0.1,0c0.1,0,0.1,0,0.2,0.1c0,0,0.1,0.1,0.1,0.3v0.1c0.1-0.2,0.3-0.3,0.4-0.4c0.2-0.1,0.4-0.1,0.6-0.1
		c0.2,0,0.4,0,0.5,0.1c0.2,0.1,0.3,0.2,0.4,0.3s0.2,0.3,0.3,0.5c0.1,0.2,0.1,0.4,0.1,0.6c0,0.2,0,0.4-0.1,0.6s-0.2,0.3-0.3,0.5
		c-0.1,0.1-0.3,0.2-0.4,0.3c-0.2,0.1-0.3,0.1-0.5,0.1c-0.1,0-0.2,0-0.4,0c-0.1,0-0.2-0.1-0.3-0.1c-0.1,0-0.2-0.1-0.2-0.2
		c-0.1-0.1-0.1-0.1-0.2-0.2V440.8z M-359.4,438.6c0,0.1,0,0.3,0.1,0.4c0.1,0.1,0.1,0.2,0.2,0.3c0.1,0.1,0.2,0.2,0.3,0.2
		c0.1,0.1,0.3,0.1,0.4,0.1c0.2,0,0.3,0,0.4-0.1s0.2-0.1,0.3-0.2c0.1-0.1,0.2-0.2,0.2-0.4c0-0.1,0.1-0.3,0.1-0.5c0-0.2,0-0.3-0.1-0.5
		c0-0.1-0.1-0.3-0.2-0.4c-0.1-0.1-0.2-0.2-0.3-0.2s-0.3-0.1-0.4-0.1c-0.3,0-0.5,0.1-0.6,0.2c-0.2,0.1-0.3,0.3-0.4,0.5V438.6z"/>
	<path class="st4" d="M-355.1,439.9c-0.2,0-0.4,0-0.6-0.1s-0.3-0.2-0.5-0.3c-0.1-0.1-0.2-0.3-0.3-0.5c-0.1-0.2-0.1-0.4-0.1-0.6
		c0-0.2,0-0.4,0.1-0.6c0.1-0.2,0.2-0.3,0.3-0.5c0.1-0.1,0.3-0.2,0.5-0.3c0.2-0.1,0.4-0.1,0.6-0.1c0.2,0,0.4,0,0.6,0.1
		c0.2,0.1,0.3,0.2,0.5,0.3c0.1,0.1,0.2,0.3,0.3,0.5s0.1,0.4,0.1,0.6c0,0.2,0,0.4-0.1,0.6c-0.1,0.2-0.2,0.3-0.3,0.5
		c-0.1,0.1-0.3,0.2-0.5,0.3C-354.7,439.9-354.9,439.9-355.1,439.9z M-355.1,439.6c0.2,0,0.3,0,0.4-0.1c0.1-0.1,0.2-0.1,0.3-0.2
		c0.1-0.1,0.2-0.2,0.2-0.4s0.1-0.3,0.1-0.5s0-0.3-0.1-0.5c-0.1-0.1-0.1-0.3-0.2-0.4c-0.1-0.1-0.2-0.2-0.3-0.2
		c-0.1-0.1-0.3-0.1-0.4-0.1s-0.3,0-0.4,0.1s-0.2,0.1-0.3,0.2c-0.1,0.1-0.2,0.2-0.2,0.4c-0.1,0.1-0.1,0.3-0.1,0.5s0,0.3,0.1,0.5
		c0.1,0.1,0.1,0.3,0.2,0.4c0.1,0.1,0.2,0.2,0.3,0.2S-355.2,439.6-355.1,439.6z"/>
	<path class="st4" d="M-352.3,439.9c-0.1,0-0.2,0-0.2,0c0,0-0.1-0.1-0.1-0.1l-0.7-2.7c0,0,0,0,0.1-0.1c0,0,0.1,0,0.2,0
		c0,0,0.1,0,0.1,0.1s0.1,0.1,0.1,0.2l0.5,2.2l0.6-1.9c0-0.1,0-0.1,0.1-0.1c0,0,0.1,0,0.2,0c0.1,0,0.2,0,0.2,0c0,0,0.1,0.1,0.1,0.1
		l0.6,1.9l0.5-2.2c0-0.1,0.1-0.2,0.1-0.2s0.1-0.1,0.1-0.1c0.1,0,0.1,0,0.2,0.1c0,0,0.1,0.1,0.1,0.1l-0.7,2.7c0,0.1,0,0.1-0.1,0.1
		s-0.1,0-0.2,0c-0.1,0-0.2,0-0.2,0c0,0-0.1-0.1-0.1-0.1l-0.6-2l-0.6,2c0,0.1,0,0.1-0.1,0.1C-352.1,439.8-352.2,439.9-352.3,439.9z"
		/>
	<path class="st4" d="M-348.6,438.9c0.1,0.1,0.1,0.2,0.2,0.3c0.1,0.1,0.2,0.2,0.3,0.2c0.1,0.1,0.3,0.1,0.4,0.1c0.1,0,0.3,0,0.4,0
		c0.1,0,0.2-0.1,0.3-0.1c0.1,0,0.1-0.1,0.2-0.2c0.1-0.1,0.1-0.1,0.1-0.2c0,0,0,0,0,0c0,0,0,0,0.1,0c0,0,0.1,0,0.1,0.1
		c0,0,0,0.1,0,0.1s0,0.1-0.1,0.2c-0.1,0.1-0.1,0.1-0.2,0.2c-0.1,0.1-0.2,0.1-0.4,0.2c-0.2,0-0.3,0.1-0.5,0.1c-0.2,0-0.4,0-0.6-0.1
		c-0.2-0.1-0.3-0.2-0.5-0.3c-0.1-0.1-0.2-0.3-0.3-0.5c-0.1-0.2-0.1-0.4-0.1-0.6c0-0.2,0-0.4,0.1-0.6c0.1-0.2,0.2-0.3,0.3-0.5
		c0.1-0.1,0.3-0.2,0.5-0.3c0.2-0.1,0.4-0.1,0.6-0.1c0.2,0,0.4,0,0.5,0.1c0.2,0.1,0.3,0.2,0.4,0.3c0.1,0.1,0.2,0.3,0.3,0.5
		c0.1,0.2,0.1,0.4,0.1,0.6v0c0,0.1,0,0.1,0,0.1c0,0-0.1,0-0.1,0h-2.2C-348.7,438.7-348.7,438.8-348.6,438.9z M-346.8,438.2
		c0-0.3-0.1-0.5-0.3-0.7s-0.4-0.3-0.6-0.3c-0.1,0-0.3,0-0.4,0.1s-0.2,0.1-0.3,0.2c-0.1,0.1-0.2,0.2-0.2,0.3
		c-0.1,0.1-0.1,0.2-0.1,0.4H-346.8z"/>
	<path class="st4" d="M-344.6,436.9c0.1,0,0.2,0,0.3,0.1c0.1,0.1,0.1,0.1,0.1,0.2c0,0.1,0,0.1,0,0.2c0,0-0.1,0.1-0.1,0
		c0,0-0.1-0.1-0.1-0.1s-0.1,0-0.2,0c-0.1,0-0.2,0-0.3,0.1c-0.1,0.1-0.2,0.2-0.2,0.3s-0.1,0.2-0.1,0.4c0,0.2,0,0.3,0,0.5v1.1
		c0,0.1,0,0.1,0,0.1s-0.1,0-0.1,0h0c-0.1,0-0.1,0-0.1,0s0-0.1,0-0.1V437c0,0,0,0,0,0c0,0,0.1,0,0.1,0c0.1,0,0.1,0,0.2,0.1
		c0,0,0.1,0.1,0.1,0.3v0.2C-345.2,437.1-345,436.9-344.6,436.9z"/>
</g>
<g>
	<path class="st0" d="M-382.6,424.1c-0.1-0.1-0.1-0.1-0.1-0.2v0c0-0.1,0-0.1,0-0.2c0-0.1,0.1-0.1,0.1-0.2l0.6-0.9
		c0,0,0.1-0.1,0.1-0.1c0,0,0.1,0,0.1,0s0.1,0,0.1,0.1c0,0,0,0.1,0,0.1l-0.4,1.2c0,0.1-0.1,0.2-0.1,0.2c0,0.1-0.1,0.1-0.2,0.1h-0.1
		C-382.5,424.1-382.6,424.1-382.6,424.1z"/>
	<path class="st0" d="M-379.7,426.4l0.9-2.4c0.1-0.2,0.1-0.3,0.2-0.3c0.1-0.1,0.1-0.1,0.2-0.1c0.1,0,0.1,0,0.2,0s0.1,0,0.1,0.1
		s0.1,0,0.1,0.1c0,0,0,0,0,0l-1.2,3c-0.1,0.1-0.2,0.2-0.4,0.2c-0.1,0-0.2,0-0.3,0s-0.1-0.1-0.1-0.2l-1.2-3c0,0,0-0.1,0.1-0.1
		c0.1-0.1,0.2-0.1,0.3-0.1c0.1,0,0.2,0,0.2,0.1c0.1,0.1,0.1,0.2,0.2,0.3L-379.7,426.4z"/>
	<path class="st0" d="M-377.1,425.9c0.1,0.1,0.1,0.2,0.2,0.3c0.1,0.1,0.2,0.2,0.4,0.2c0.1,0.1,0.3,0.1,0.4,0.1c0.1,0,0.3,0,0.4,0
		c0.1,0,0.2-0.1,0.3-0.1s0.2-0.1,0.2-0.2c0.1-0.1,0.1-0.1,0.2-0.2c0,0,0,0,0.1,0c0,0,0.1,0,0.1,0s0.1,0.1,0.1,0.1
		c0,0,0.1,0.1,0.1,0.2s0,0.2-0.1,0.2c-0.1,0.1-0.2,0.2-0.3,0.2c-0.1,0.1-0.3,0.1-0.5,0.2s-0.4,0.1-0.6,0.1c-0.3,0-0.5,0-0.7-0.1
		s-0.4-0.2-0.6-0.4c-0.2-0.2-0.3-0.3-0.4-0.6c-0.1-0.2-0.1-0.5-0.1-0.7c0-0.3,0-0.5,0.1-0.7s0.2-0.4,0.4-0.6
		c0.2-0.2,0.3-0.3,0.5-0.4c0.2-0.1,0.4-0.1,0.7-0.1c0.2,0,0.5,0,0.7,0.1c0.2,0.1,0.4,0.2,0.5,0.3c0.1,0.1,0.3,0.3,0.3,0.5
		c0.1,0.2,0.1,0.4,0.1,0.7v0.1c0,0.1,0,0.1,0,0.2s-0.1,0-0.2,0h-2.5C-377.2,425.7-377.1,425.8-377.1,425.9z M-375.2,425.1
		c0-0.3-0.1-0.5-0.3-0.7c-0.2-0.2-0.4-0.3-0.7-0.3c-0.1,0-0.3,0-0.4,0.1c-0.1,0-0.2,0.1-0.3,0.2c-0.1,0.1-0.2,0.2-0.2,0.3
		s-0.1,0.2-0.1,0.4H-375.2z"/>
</g>
</svg>
