<svg xmlns="http://www.w3.org/2000/svg" viewBox="0 0 80 55"><path fill="#FA0E6A" d="M75.1 3H4.9C3.2 3 1.8 4.3 1.8 6v43c0 1.7 1.4 3.1 3.1 3.1H75c1.7 0 3.1-1.4 3.1-3.1V6c.1-1.7-1.3-3-3-3z"/><circle fill="#FFF" cx="64.7" cy="38.4" r="6.9"/><circle fill="none" stroke="#FA0E6A" stroke-miterlimit="10" cx="64.7" cy="38.4" r="4.1"/><path fill="none" stroke="#FA0E6A" stroke-linecap="round" stroke-miterlimit="10" d="M64.7 38.4v-4.1"/><circle fill="#FFF" cx="64.7" cy="16.2" r="6.9"/><circle fill="none" stroke="#FA0E6A" stroke-miterlimit="10" cx="64.7" cy="16.2" r="4.1"/><path fill="none" stroke="#FA0E6A" stroke-linecap="round" stroke-miterlimit="10" d="M64.7 16.2v-4.1"/><path fill="none" stroke="#FFF" stroke-linecap="round" stroke-miterlimit="10" d="M58.3 27.1h12.8"/><path fill="#FFF" d="M49.7 9.4H9.5c-.8 0-1.5.6-1.5 1.5v32.4c0 .8.7 1.5 1.5 1.5h40.1c.8 0 1.5-.7 1.5-1.5V10.9c.1-.9-.6-1.5-1.4-1.5z"/><path fill="#FA0E6A" d="M23.8 30.5c.5 2 2.2 2.9 4.5 2.9 2 0 3.2-.8 3.2-2.1s-.8-1.9-2.4-1.9h-.6c-2.1 0-2.9-.7-2.9-2.1V27c0-1.4 1-2.1 2.9-2.1h1.1c1.1 0 1.8-.6 1.8-1.6 0-1.2-1.2-1.9-3.1-1.9-2.7 0-3.7 1.5-4.1 2.8 0 .3-3.7.4-3.7-2.9 0-2.7 3-4.7 7.9-4.7 5.8 0 8.9 2 8.9 5.8 0 2-1.3 3.5-3.8 4.2 2.7.9 4.1 2.7 4.1 5.2 0 4.1-3.3 6.4-9.2 6.4-5.2 0-8.3-2.2-8.3-4.8-.1-3.2 3.7-3.1 3.7-2.9z"/><path fill="none" stroke="#FA0E6A" stroke-miterlimit="10" d="M39.8 27.1h13.1M7.2 27.1h12.1"/></svg>