<svg xmlns="http://www.w3.org/2000/svg" viewBox="0 0 80 55"><path fill="#FA0E6A" d="M75.1 3H4.9C3.2 3 1.8 4.3 1.8 6v43c0 1.7 1.4 3.1 3.1 3.1H75c1.7 0 3.1-1.4 3.1-3.1V6c.1-1.7-1.3-3-3-3z"/><path fill="#FFF" d="M69.6 9.4h-9.8c-.8 0-1.5.7-1.5 1.5v4.5c0 .8.7 1.5 1.5 1.5h9.8c.8 0 1.5-.7 1.5-1.5v-4.5c0-.9-.7-1.5-1.5-1.5zM69.6 18.7h-9.8c-.8 0-1.5.7-1.5 1.5v4.5c0 .8.7 1.5 1.5 1.5h9.8c.8 0 1.5-.7 1.5-1.5v-4.5c0-.9-.7-1.5-1.5-1.5zM69.6 28h-9.8c-.8 0-1.5.7-1.5 1.5V34c0 .8.7 1.5 1.5 1.5h9.8c.8 0 1.5-.7 1.5-1.5v-4.5c0-.9-.7-1.5-1.5-1.5zM69.6 37.3h-9.8c-.8 0-1.5.7-1.5 1.5v4.5c0 .8.7 1.5 1.5 1.5h9.8c.8 0 1.5-.7 1.5-1.5v-4.5c0-.9-.7-1.5-1.5-1.5zM49.7 9.4H9.5c-.8 0-1.5.6-1.5 1.5v32.4c0 .8.7 1.5 1.5 1.5h40.1c.8 0 1.5-.7 1.5-1.5V10.9c.1-.9-.6-1.5-1.4-1.5z"/><path fill="#FA0E6A" d="M20.6 33.5c0-3.6 3.6-5.7 6.3-6.9 2.4-1.1 4.3-1.7 4.3-2.9 0-1.3-.9-2-2.7-2-2.1 0-3.4 1.6-3.7 3.2 0 .1-4.1.2-4.1-2.8 0-3.1 3-5.4 8.3-5.4 5.5 0 8.4 2.5 8.4 6.7 0 4-2.7 5.2-5.7 6.3-2.5 1-4.4 1.7-5.1 3h7.9c2.2 0 3 .8 3 2.3v.3c0 1.6-.8 2.5-3 2.5H24.4c-3 0-3.8-.4-3.8-3.1v-1.2z"/><path fill="none" stroke="#FA0E6A" stroke-miterlimit="10" d="M40.4 27.1h12.5M7.2 27.1h11.7"/></svg>