<svg class="price-o-nator-logo" xmlns="http://www.w3.org/2000/svg" viewBox="0 0 230 185"><path fill-rule="evenodd" clip-rule="evenodd" fill="#0E91CF" d="M210.2 8.8H19.8c-3.7 0-6.7 3-6.7 6.7v154c0 3.7 3 6.7 6.7 6.7h190.5c3.7 0 6.7-3 6.7-6.7v-154c-.1-3.7-3.1-6.7-6.8-6.7z"/><path fill="#FFF" d="M206.2 17.3H23.5c-1.6 0-2.9 1.3-2.9 2.9V118.1c0 2.1 1.7 3.7 3.7 3.7h181.3c2.1 0 3.7-1.7 3.7-3.7V20.5c.1-1.7-1.4-3.2-3.1-3.2z"/><g fill="#FA0E6A"><path d="M40.6 30.4c8.8 0 12.3 3.7 12.3 11.8S49.3 54 40.6 54h-2.4c-.9 0-1.5.5-1.5 1.5v7.9c0 1-.5 1.5-1.5 1.5h-5.5c-.9 0-1.5-.5-1.5-1.5V31.9c0-1 .5-1.5 1.5-1.5h10.9zm.3 15.2c2.4 0 3.6-.3 3.6-3.4s-1.2-3.4-3.6-3.4h-2.7c-.9 0-1.5.5-1.5 1.5V44c0 .9.5 1.5 1.5 1.5h2.7zM82 62.3c.7 1.3-.1 2.7-1.6 2.7h-5.6c-.5 0-.9-.2-1.1-.7l-5.1-9.9c-.1-.1-.2-.2-.4-.2h-2c-.9 0-1.5.6-1.5 1.5v7.8c0 .9-.6 1.5-1.5 1.5h-5.5c-.9 0-1.5-.6-1.5-1.5V31.9c0-.9.6-1.5 1.5-1.5h10.8c8.8 0 12.3 3.7 12.3 11.8 0 4.6-1.1 7.8-3.7 9.7-.2.1-.2.4-.1.6l5 9.8zM66.1 38.9c-.9 0-1.5.6-1.5 1.5v3.7c0 .9.6 1.5 1.5 1.5h2.5c2.4 0 3.6-.3 3.6-3.4s-1.2-3.4-3.6-3.4h-2.5zM92.1 30.4c1 0 1.5.5 1.5 1.5v31.6c0 .9-.5 1.5-1.5 1.5h-5.4c-.9 0-1.5-.5-1.5-1.5V31.9c0-1 .5-1.5 1.5-1.5h5.4zM98 41.5c0-3.3.7-12 12.4-12 10.5 0 12.1 7.1 12.3 10.8 0 .7-.4 1.2-1.1 1.4l-5.5 1.2c-1 .2-1.8-.5-2-1.5-.2-2.2-1.1-3.5-3.8-3.5-3.6 0-3.9 2.3-3.9 6.1v7.1c0 3.8.2 6.1 3.9 6.1 2.7 0 3.5-1.3 3.7-3.6.1-1 .9-1.7 1.9-1.4l5.6 1.2c.7.1 1.1.7 1.1 1.4-.2 3.7-1.8 10.8-12.3 10.8-11.7 0-12.4-8.7-12.4-12V41.5zM148.3 30.4c1 0 1.5.5 1.5 1.5v5.5c0 .9-.5 1.5-1.5 1.5h-11.9c-.9 0-1.5.5-1.5 1.5V42c0 .9.5 1.5 1.5 1.5h7.6c1 0 1.5.5 1.5 1.5v5.5c0 .9-.5 1.5-1.5 1.5h-7.6c-.9 0-1.5.5-1.5 1.5V55c0 .9.5 1.5 1.5 1.5h11.9c1 0 1.5.5 1.5 1.5v5.5c0 1-.5 1.5-1.5 1.5h-20.7c-.9 0-1.5-.5-1.5-1.5V31.9c0-1 .5-1.5 1.5-1.5h20.7z"/></g><g fill="#FA0E6A"><path d="M63.4 88.1h-7.9c-.9 0-1.4.5-1.4 1.4V94.7c0 .9.5 1.4 1.4 1.4h7.9c.9 0 1.4-.5 1.4-1.4V89.5c0-.9-.5-1.4-1.4-1.4zM51.8 98c0 3.1-.7 11.4-11.8 11.4S28.3 101.1 28.3 98V86.3c0-3.1.7-11.4 11.8-11.4s11.8 8.3 11.8 11.4V98zm-8.1-9.2c0-3.6-.2-5.8-3.7-5.8s-3.7 2.2-3.7 5.8v6.7c0 3.6.2 5.8 3.7 5.8s3.7-2.2 3.7-5.8v-6.7zM75.5 75.8c.8 0 1.3.3 1.6 1.1l6.4 15.6c.2.4.6.3.6-.1V77.2c0-.9.5-1.4 1.4-1.4h5.2c.9 0 1.4.5 1.4 1.4v30c0 .9-.5 1.4-1.4 1.4h-6.9c-.8 0-1.3-.3-1.6-1.1l-6.4-15.6c-.2-.4-.6-.3-.6.1v15.1c0 .9-.5 1.4-1.4 1.4h-5.2c-.9 0-1.4-.5-1.4-1.4v-30c0-.9.5-1.4 1.4-1.4h6.9zM119.5 107c0 1-.5 1.6-1.4 1.6h-5.2c-.9 0-1.4-.5-1.4-1.4v-4.1c0-.9-.5-1.4-1.4-1.4h-4c-.9 0-1.4.5-1.4 1.4v4.1c0 .9-.5 1.4-1.4 1.4h-5.2c-.9 0-1.4-.6-1.4-1.6V87.1c0-5.9.9-12.2 11.5-12.2 10.5 0 11.5 6.3 11.5 12.2V107zm-8.1-19.9c0-2.2-.3-3.4-3.4-3.4s-3.4 1.1-3.4 3.4v5.1c0 .9.5 1.4 1.4 1.4h4c.9 0 1.4-.5 1.4-1.5v-5zM130.5 85.2c0-.9-.5-1.4-1.4-1.4h-6.6c-.9 0-1.4-.5-1.4-1.4v-5.2c0-.9.5-1.4 1.4-1.4h24c.9 0 1.4.5 1.4 1.4v5.2c0 .9-.5 1.4-1.4 1.4H140c-.9 0-1.4.5-1.4 1.4v21.9c0 .9-.5 1.4-1.4 1.4H132c-.9 0-1.4-.5-1.4-1.4V85.2zM173.3 98c0 3.1-.7 11.4-11.8 11.4-11.1 0-11.8-8.3-11.8-11.4V86.3c0-3.1.7-11.4 11.8-11.4 11.1 0 11.8 8.3 11.8 11.4V98zm-8-9.2c0-3.6-.2-5.8-3.7-5.8s-3.7 2.2-3.7 5.8v6.7c0 3.6.2 5.8 3.7 5.8s3.7-2.2 3.7-5.8v-6.7zM202.2 106c.7 1.2-.1 2.5-1.5 2.5h-5.3c-.5 0-.9-.2-1.1-.7l-4.9-9.4c-.1-.1-.2-.2-.4-.2h-1.9c-.8 0-1.5.6-1.5 1.5v7.4c0 .8-.6 1.5-1.5 1.5H179c-.8 0-1.5-.6-1.5-1.5V77.2c0-.8.6-1.5 1.5-1.5h10.3c8.3 0 11.7 3.6 11.7 11.2 0 4.4-1.1 7.4-3.6 9.2-.2.1-.2.4-.1.6l4.9 9.3zm-15.1-22.2c-.8 0-1.5.6-1.5 1.5v3.5c0 .8.6 1.5 1.5 1.5h2.4c2.2 0 3.4-.3 3.4-3.2s-1.1-3.2-3.4-3.2h-2.4z"/></g><path fill-rule="evenodd" clip-rule="evenodd" fill="#0E91CF" d="M226.9 164.9l-10-38H13.1l-10 38c-1.5 5.7 2.8 11.2 8.7 11.2H218.3c5.8.1 10.1-5.5 8.6-11.2z"/><path fill="#AFDFFA" d="M218.1 163.4l-7.9-29.9c-.4-1.6-1.9-2.7-3.5-2.7H22.6c-1.6 0-3.1 1.1-3.5 2.7l-7.9 29.9c-.7 2.5 1.2 5 3.9 5h199.2c2.6 0 4.5-2.4 3.8-5z"/><path fill="#0E91CF" d="M193 47l-.1.1c-1.7 4.9-4 8-5.8 8-1.9 0-4.2-3.1-5.8-8V47c-2.3-6.9-5.7-10.7-9.5-10.7s-7.2 3.8-9.5 10.6l-.1.2c-1.5 4.4-3.5 7.4-5.3 7.9v4c3.6-.4 6.7-4.1 8.9-10.5l.1-.2c1.7-4.9 4-8 5.8-8 1.9 0 4.2 3.1 5.8 8v.1c2.3 6.9 5.7 10.7 9.5 10.7s7.2-3.8 9.5-10.6l.1-.1c1.4-4 3.1-6.8 4.8-7.7v-4.1c-3.4.6-6.3 4.3-8.4 10.4z"/><path fill="#FA0E6A" d="M200.7 30.6h-42.5c-1 0-1.8.8-1.8 1.8v31.1c0 1 .8 1.8 1.8 1.8h42.5c1 0 1.8-.8 1.8-1.8V32.4c0-1-.8-1.8-1.8-1.8zm-42.6 1.6h42.5c.1 0 .2.1.2.2v14.7H158V32.4c0-.1 0-.2.1-.2zm42.6 31.5h-42.5c-.1 0-.2-.1-.2-.2V48.7h42.9v14.8l-.2.2z"/><g fill="#FA0E6A"><circle cx="190.4" cy="149.7" r="9.1"/><path d="M127.8 143.5H28.2c-.6 0-1.1.5-1.1 1.1v11.2c0 .6.5 1.1 1.1 1.1h99.6c.6 0 1.1-.5 1.1-1.1v-11.2c.1-.5-.4-1.1-1.1-1.1zM170.2 136.1H143.6c-.7 0-1.2.6-1.2 1.3V146.7c0 .7.5 1.3 1.2 1.3H170.2c.7 0 1.2-.6 1.2-1.3v-9.3c0-.7-.5-1.3-1.2-1.3zM170.2 151.5H143.6c-.7 0-1.2.6-1.2 1.3v9.3c0 .7.5 1.3 1.2 1.3H170.2c.7 0 1.2-.6 1.2-1.3V152.8c0-.7-.5-1.3-1.2-1.3z"/></g><path fill="#FFF" d="M159.6 155.2l-2.7 4.7-2.7-4.7M154.2 144l2.7-4.7 2.7 4.7M121.8 151.6h-88c-.7 0-1.3-.6-1.3-1.3 0-.7.6-1.3 1.3-1.3h88c.7 0 1.3.6 1.3 1.3 0 .7-.6 1.3-1.3 1.3zM190.2 155.6c-3.3 0-5.9-2.7-5.9-5.9 0-3.3 2.7-5.9 5.9-5.9 3.3 0 5.9 2.7 5.9 5.9s-2.6 5.9-5.9 5.9zm0-10.6c-2.6 0-4.7 2.1-4.7 4.7s2.1 4.7 4.7 4.7 4.7-2.1 4.7-4.7-2.1-4.7-4.7-4.7z"/><path fill="#FFF" d="M190.2 150.3c-.3 0-.6-.3-.6-.6v-5.3c0-.3.3-.6.6-.6s.6.3.6.6v5.3c0 .3-.3.6-.6.6z"/></svg>