<svg xmlns="http://www.w3.org/2000/svg" viewBox="0 0 585 480" enable-background="new 0 0 585 480"><path fill="none" stroke="#7D7D85" stroke-miterlimit="10" d="M426.9 368.7v17.5H147.1v-17.5"/><circle fill-rule="evenodd" clip-rule="evenodd" fill="#6D6D6D" cx="55.8" cy="440.6" r="18.7"/><g fill="#6D6D6D"><path d="M86.9 435.1c.2-.6.7-1.1 2.5-1.1s2.3.5 2.5 1.1l4.3 10.8c.1.4-.9 1.3-2.1 1.3-.8 0-1.7-.5-2.3-1.9l-.4-1h-4.1l-.4 1c-.5 1.4-1.3 1.8-2.2 1.8-1.1 0-2.2-.9-2-1.2l4.2-10.8zm3.8 6.4l-1.4-3.7-1.4 3.7h2.8zM96.8 435.9c0-1.2.6-1.8 1.6-1.8h.4c.9 0 1.2.3 1.8.9l4.6 6v-5.1c0-1.2.6-1.8 1.7-1.8h.3c1.1 0 1.7.6 1.7 1.8v9.3c0 1.2-.6 1.8-1.6 1.8h-.3c-1 0-1.2-.2-1.8-.9l-4.7-6.1v5.1c0 1.2-.6 1.8-1.7 1.8h-.3c-1.1 0-1.7-.6-1.7-1.8v-9.2zM116.7 433.9c3.9 0 6.8 2.8 6.8 6.7 0 3.9-2.8 6.7-6.8 6.7s-6.8-2.8-6.8-6.7c0-3.9 2.8-6.7 6.8-6.7zm0 9.8c1.7 0 2.8-1.2 2.8-3.2 0-1.9-1.1-3.2-2.8-3.2-1.7 0-2.9 1.2-2.9 3.2 0 1.9 1.2 3.2 2.9 3.2zM127.4 437.6h-2.2c-1.2 0-1.8-.6-1.8-1.7v-.1c0-1.1.6-1.6 1.8-1.6h8.2c1.2 0 1.8.6 1.8 1.6v.1c0 1.1-.6 1.7-1.8 1.7h-2.1v7.6c0 1.2-.6 1.8-1.8 1.8h-.5c-1.1 0-1.6-.6-1.6-1.8v-7.6zM136 435.9c0-1.2.6-1.8 1.7-1.8h.6c1.2 0 1.7.6 1.7 1.8v3h4.1v-3c0-1.2.6-1.8 1.7-1.8h.6c1.1 0 1.7.6 1.7 1.8v9.3c0 1.2-.6 1.8-1.7 1.8h-.6c-1.1 0-1.7-.6-1.7-1.8v-3H140v3c0 1.2-.6 1.8-1.7 1.8h-.6c-1.1 0-1.7-.6-1.7-1.8v-9.3zM149.5 436.3c0-1.4.7-2.2 2-2.2h6.8c1.3 0 1.8.6 1.8 1.7v.1c0 1.1-.6 1.7-1.8 1.7h-4.9v1.3h3.3c1.3 0 1.8.6 1.8 1.5v.1c0 1-.6 1.6-1.8 1.6h-3.3v1.5h5c1.2 0 1.8.5 1.8 1.6v.1c0 1.1-.6 1.7-1.8 1.7h-6.9c-1.3 0-2-.7-2-2.2v-8.5zM161.3 436.3c0-1.4.7-2.2 2-2.2h4c3.6 0 5.4 1.5 5.4 4.2 0 1.9-1 3.3-2.8 3.8l2.9 3.6c.1.2-.6 1.4-2.3 1.4-1.2 0-1.8-.5-2.7-1.7L166 443h-.7v2.3c0 1.2-.6 1.8-1.7 1.8h-.6c-1.1 0-1.7-.9-1.7-2.3v-8.5zm5.6 3.8c1.2 0 1.8-.5 1.8-1.5s-.6-1.5-1.8-1.5h-1.6v3h1.6zM176.8 436.3c0-1.4.7-2.2 2-2.2h3.4c3.7 0 5.7 1.6 5.7 4.7s-1.9 4.6-5.6 4.6h-1.5v1.9c0 1.2-.6 1.8-1.7 1.8h-.6c-1.1 0-1.7-.6-1.7-1.8v-9zm5.3 4.2c1.2 0 1.8-.6 1.8-1.7s-.7-1.7-1.9-1.7h-1.4v3.3h1.5zM194.9 433.9c3.9 0 6.8 2.8 6.8 6.7 0 3.9-2.8 6.7-6.8 6.7s-6.8-2.8-6.8-6.7c0-3.9 2.9-6.7 6.8-6.7zm0 9.8c1.7 0 2.8-1.2 2.8-3.2 0-1.9-1.1-3.2-2.8-3.2-1.7 0-2.9 1.2-2.9 3.2.1 1.9 1.2 3.2 2.9 3.2zM201.7 435.4c0-.2.8-1.3 2.5-1.3.8 0 1.9.4 2.2 2.1l1.1 5.5 1.3-5c.2-1 1.1-1.4 2.2-1.4 1 0 1.9.5 2.1 1.4l1.3 5 1.1-5.6c.3-1.5 1.2-2.1 2.2-2.1 1.6 0 2.4 1.2 2.3 1.3l-2.9 10.1c-.3 1.1-1.1 1.5-2.3 1.5-1.2 0-2-.4-2.3-1.5l-1.5-5.3-1.5 5.3c-.3 1.2-1.2 1.5-2.4 1.5s-2-.3-2.3-1.5l-3.1-10zM221.1 436.3c0-1.4.7-2.2 2-2.2h6.8c1.3 0 1.8.6 1.8 1.7v.1c0 1.1-.6 1.7-1.8 1.7H225v1.3h3.3c1.3 0 1.8.6 1.8 1.5v.1c0 1-.6 1.6-1.8 1.6H225v1.5h5c1.2 0 1.8.5 1.8 1.6v.1c0 1.1-.6 1.7-1.8 1.7h-6.9c-1.3 0-2-.7-2-2.2v-8.5zM233 436.3c0-1.4.7-2.2 2-2.2h4c3.6 0 5.4 1.5 5.4 4.2 0 1.9-1 3.3-2.8 3.8l2.9 3.6c.1.2-.6 1.4-2.3 1.4-1.2 0-1.8-.5-2.7-1.7l-1.8-2.4h-.7v2.3c0 1.2-.6 1.8-1.7 1.8h-.6c-1.1 0-1.7-.9-1.7-2.3v-8.5zm5.5 3.8c1.2 0 1.8-.5 1.8-1.5s-.6-1.5-1.8-1.5h-1.6v3h1.6zM254.8 433.9c3.6 0 5 1.9 5 3.1 0 1.7-2.2 2.1-2.3 1.9-.5-.9-1.4-1.4-2.5-1.4-1.6 0-2.9 1.2-2.9 3.1 0 1.8 1.2 3.1 2.9 3.1 1.2 0 2.1-.6 2.6-1.5.1-.1 2.3.3 2.3 1.9 0 1.2-1.4 3.2-5.1 3.2-4 0-6.7-2.8-6.7-6.7 0-3.9 2.7-6.7 6.7-6.7zM267.1 433.9c3.9 0 6.8 2.8 6.8 6.7 0 3.9-2.8 6.7-6.8 6.7s-6.8-2.8-6.8-6.7c.1-3.9 2.9-6.7 6.8-6.7zm0 9.8c1.7 0 2.8-1.2 2.8-3.2 0-1.9-1.1-3.2-2.8-3.2-1.7 0-2.9 1.2-2.9 3.2.1 1.9 1.2 3.2 2.9 3.2zM274.9 435.9c0-1.3.6-1.9 1.8-1.9h1.1c1.1 0 1.4.3 1.8 1.1l2.1 5.1 2.1-5.1c.4-.9.8-1.1 1.7-1.1h1.1c1.2 0 1.8.6 1.8 1.9v9.3c0 1.2-.4 1.8-1.5 1.8h-.6c-1.1 0-1.5-.6-1.5-1.8v-5.5l-1.3 3.8c-.2.5-.2 1-1.7 1s-1.4-.5-1.7-1l-1.3-3.6v5.3c0 1.2-.4 1.8-1.5 1.8h-.6c-1.1 0-1.5-.6-1.5-1.8v-9.3zM289.8 436.3c0-1.4.7-2.2 2-2.2h3.4c3.7 0 5.7 1.6 5.7 4.7s-1.9 4.6-5.6 4.6h-1.5v1.9c0 1.2-.6 1.8-1.7 1.8h-.6c-1.1 0-1.7-.6-1.7-1.8v-9zm5.4 4.2c1.2 0 1.8-.6 1.8-1.7s-.7-1.7-1.9-1.7h-1.4v3.3h1.5zM304.2 435.1c.2-.6.7-1.1 2.5-1.1s2.3.5 2.5 1.1l4.3 10.8c.1.4-.9 1.3-2.1 1.3-.8 0-1.7-.5-2.3-1.9l-.4-1h-4.1l-.4 1c-.5 1.4-1.3 1.8-2.2 1.8-1.1 0-2.2-.9-2-1.2l4.2-10.8zm3.8 6.4l-1.4-3.7-1.4 3.7h2.8zM314.1 435.9c0-1.2.6-1.8 1.6-1.8h.4c.9 0 1.2.3 1.8.9l4.6 6v-5.1c0-1.2.6-1.8 1.7-1.8h.3c1.1 0 1.7.6 1.7 1.8v9.3c0 1.2-.6 1.8-1.6 1.8h-.3c-1 0-1.2-.2-1.8-.9l-4.7-6.1v5.1c0 1.2-.6 1.8-1.7 1.8h-.3c-1.1 0-1.7-.6-1.7-1.8v-9.2zM331.1 441.9l-4.5-6.4c-.1-.2.6-1.5 2.6-1.5.7 0 1.3.4 1.9 1.4l2 3.4 2.1-3.4c.6-1 1.2-1.4 1.9-1.4 1.8 0 2.6 1.3 2.5 1.5l-4.4 6.4v3.3c0 1.2-.6 1.8-1.7 1.8h-.6c-1.1 0-1.7-.6-1.7-1.8v-3.3z"/></g><g fill="#FA0E6A"><path d="M417.7 436.1c0-1.4.7-2.2 2-2.2h3.4c3.7 0 5.7 1.6 5.7 4.7s-1.9 4.6-5.6 4.6h-1.5v1.9c0 1.2-.6 1.8-1.7 1.8h-.6c-1.1 0-1.7-.6-1.7-1.8v-9zm5.4 4.1c1.2 0 1.8-.6 1.8-1.7s-.7-1.7-1.9-1.7h-1.4v3.3h1.5zM435.9 433.6c3.9 0 6.8 2.8 6.8 6.7 0 3.9-2.8 6.7-6.8 6.7s-6.8-2.8-6.8-6.7c0-3.9 2.8-6.7 6.8-6.7zm0 9.8c1.7 0 2.8-1.2 2.8-3.2 0-1.9-1.1-3.2-2.8-3.2-1.7 0-2.9 1.2-2.9 3.2s1.1 3.2 2.9 3.2zM442.7 435.2c0-.2.8-1.3 2.5-1.3.8 0 1.9.4 2.2 2.1l1.1 5.5 1.3-5c.2-1 1.1-1.4 2.2-1.4 1 0 1.9.5 2.1 1.4l1.3 5 1.1-5.6c.3-1.5 1.2-2.1 2.2-2.1 1.6 0 2.4 1.2 2.3 1.3l-2.9 10.1c-.3 1.1-1.1 1.5-2.3 1.5-1.2 0-2-.4-2.3-1.5l-1.5-5.3-1.5 5.3c-.3 1.2-1.2 1.5-2.4 1.5s-2-.3-2.3-1.5l-3.1-10zM462.1 436.1c0-1.4.7-2.2 2-2.2h6.8c1.3 0 1.8.6 1.8 1.7v.1c0 1.1-.6 1.7-1.8 1.7H466v1.3h3.3c1.3 0 1.8.6 1.8 1.5v.1c0 1-.6 1.6-1.8 1.6H466v1.5h5c1.2 0 1.8.5 1.8 1.6v.1c0 1.1-.6 1.7-1.8 1.7h-6.9c-1.3 0-2-.7-2-2.2v-8.5zM473.9 436.1c0-1.4.7-2.2 2-2.2h4c3.6 0 5.4 1.5 5.4 4.2 0 1.9-1 3.3-2.8 3.8l2.9 3.6c.1.2-.6 1.4-2.3 1.4-1.2 0-1.8-.5-2.7-1.7l-1.8-2.4h-.7v2.3c0 1.2-.6 1.8-1.7 1.8h-.6c-1.1 0-1.7-.9-1.7-2.3v-8.5zm5.6 3.8c1.2 0 1.8-.5 1.8-1.5s-.6-1.5-1.8-1.5h-1.6v3h1.6zM487.2 442.5c.8.8 2.4 1.5 3.8 1.5 1.2 0 1.8-.4 1.8-1 0-.8-1-.8-2.3-1.1-2.1-.4-4.3-1.3-4.3-4 0-2.6 1.9-4.3 5.5-4.3 3.4 0 4.8 1.2 4.8 2.4 0 1.1-1.3 2.1-1.4 2-.9-.8-2.2-1.4-3.4-1.4-1.2 0-1.7.4-1.7 1 0 .8 1 .7 2.4 1 2.5.6 4.4 1.6 4.4 4 0 2.8-1.9 4.4-5.8 4.4-3.8 0-5.1-1.3-5.1-2.6 0-1 1.2-2 1.3-1.9zM497.7 435.6c0-1.2.6-1.8 1.7-1.8h.6c1.2 0 1.7.6 1.7 1.8v3h4.1v-3c0-1.2.6-1.8 1.7-1.8h.6c1.1 0 1.7.6 1.7 1.8v9.3c0 1.2-.6 1.8-1.7 1.8h-.6c-1.1 0-1.7-.6-1.7-1.8v-3h-4.1v3c0 1.2-.6 1.8-1.7 1.8h-.6c-1.1 0-1.7-.6-1.7-1.8v-9.3zM517.5 433.6c3.9 0 6.8 2.8 6.8 6.7 0 3.9-2.8 6.7-6.8 6.7s-6.8-2.8-6.8-6.7c.1-3.9 2.9-6.7 6.8-6.7zm0 9.8c1.7 0 2.8-1.2 2.8-3.2 0-1.9-1.1-3.2-2.8-3.2-1.7 0-2.9 1.2-2.9 3.2.1 2 1.2 3.2 2.9 3.2zM525.3 436.1c0-1.4.7-2.2 2-2.2h3.4c3.7 0 5.7 1.6 5.7 4.7s-1.9 4.6-5.6 4.6h-1.5v1.9c0 1.2-.6 1.8-1.7 1.8h-.6c-1.1 0-1.7-.6-1.7-1.8v-9zm5.4 4.1c1.2 0 1.8-.6 1.8-1.7s-.7-1.7-1.9-1.7h-1.4v3.3h1.5z"/></g><path fill="#FFF" d="M58.6 427.6l-10.3 14.2 7.3-.1-3.6 11.8 11.3-15.8h-7.2"/><g fill-rule="evenodd" clip-rule="evenodd"><circle fill="#FA0E6A" cx="390" cy="440.6" r="18.7"/><g fill="#FFF"><path d="M390 430.7c-5.5 0-9.9 4.4-9.9 9.9s4.4 9.9 9.9 9.9 9.9-4.4 9.9-9.9-4.4-9.9-9.9-9.9zm-6.8 8.7c-.2-.2-.2-.5 0-.7l3.8-3.6c.2-.2.5-.2.7 0l.8.9c.2.2.2.5 0 .7l-3.8 3.6c-.2.2-.5.2-.7 0l-.8-.9zm12.3 5.7c-1.2 1.6-3.3 2.6-5.5 2.6s-4.3-1-5.5-2.6c-.6-.8-.2-1 .1-1.3.4-.3.9-.4 1.3.1 1 1.2 2.4 1.9 4 1.9s3.1-.7 4-1.9c.4-.5 1-.4 1.3-.1.5.3.9.5.3 1.3zm.9-5.7l-.8.9c-.2.2-.5.2-.7 0l-3.8-3.6c-.2-.2-.2-.5 0-.7l.8-.9c.2-.2.5-.2.7 0l3.8 3.6c.1.2.1.5 0 .7z"/><path d="M390 428.4c-6.8 0-12.2 5.5-12.2 12.2 0 6.8 5.5 12.2 12.2 12.2 6.8 0 12.2-5.5 12.2-12.2 0-6.8-5.4-12.2-12.2-12.2zm0 23.2c-6.1 0-11-4.9-11-11s4.9-11 11-11 11 4.9 11 11-4.9 11-11 11z"/></g></g><path fill="none" stroke="#CC1D62" stroke-width="5" stroke-miterlimit="10" d="M240.3 192.4H286c2.8 0 5 2.2 5 5v59.5c0 2.8 2.2 5 5 5h45"/><path fill="none" stroke="#CC1D62" stroke-width="20" stroke-miterlimit="10" d="M243.3 166.9h91.4"/><path fill="#CC1D62" d="M73.9 232.8h139.4v13.3H73.9z"/><path fill="#FA0E6A" d="M45.7 280.5h195.9c3.3 0 6-2.7 6-6v-25.6c0-3.3-2.7-6-6-6H45.7c-3.3 0-6 2.7-6 6v25.6c0 3.3 2.7 6 6 6zM45.7 236h196.9c3.3 0 6-2.7 6-6V101.9c0-3.3-2.7-6-6-6H45.7c-3.3 0-6 2.7-6 6V230c0 3.3 2.7 6 6 6z"/><path fill="#FFF" d="M88.8 112.4h142.1c1.2 0 2.2 1 2.2 2.2v102.6c0 1.2-1 2.2-2.2 2.2H88.8c-1.2 0-2.2-1-2.2-2.2V114.5c0-1.2 1-2.1 2.2-2.1z"/><path fill="#CC1D62" d="M89.6 270c-1.5 0-2.7-1.2-2.7-2.7v-9c0-1.5 1.2-2.7 2.7-2.7h139.2c1.5 0 2.7 1.2 2.7 2.7v9c0 1.5-1.2 2.7-2.7 2.7H89.6z"/><path fill="#FFF" d="M228.8 256.7c.9 0 1.7.7 1.7 1.7v9c0 .9-.7 1.7-1.7 1.7H89.6c-.9 0-1.7-.7-1.7-1.7v-9c0-.9.7-1.7 1.7-1.7h139.2m0-2H89.6c-2 0-3.7 1.6-3.7 3.7v9c0 2 1.6 3.7 3.7 3.7h139.2c2 0 3.7-1.6 3.7-3.7v-9c-.1-2.1-1.7-3.7-3.7-3.7z"/><circle fill="#FFF" cx="63.2" cy="262.9" r="9.1"/><path fill="#FA0E6A" d="M57.4 262.9c0-3.3 2.7-5.9 5.9-5.9 3.3 0 5.9 2.7 5.9 5.9 0 3.3-2.7 5.9-5.9 5.9s-5.9-2.7-5.9-5.9zm1.2 0c0 2.6 2.1 4.7 4.7 4.7s4.7-2.1 4.7-4.7-2.1-4.7-4.7-4.7c-2.5 0-4.7 2.1-4.7 4.7z"/><path fill="#FA0E6A" d="M63.3 263.5c.3 0 .6-.3.6-.6v-5.3c0-.3-.3-.6-.6-.6s-.6.3-.6.6v5.3c0 .3.3.6.6.6z"/><circle fill="#FFF" cx="63.2" cy="121.4" r="9.1"/><path fill="#FA0E6A" d="M59 125.3c-2.2-2.4-2-6.2.4-8.4s6.2-2 8.4.4 2 6.2-.4 8.4c-2.5 2.2-6.2 2-8.4-.4zm.8-.8c1.8 1.9 4.7 2 6.6.3 1.9-1.8 2-4.7.3-6.6-1.8-1.9-4.7-2-6.6-.3-1.9 1.7-2 4.7-.3 6.6z"/><path fill="#FA0E6A" d="M63.7 121.8c.2-.2.3-.6 0-.9l-3.6-3.9c-.2-.2-.6-.3-.9 0-.2.2-.3.6 0 .9l3.6 3.9c.3.2.7.2.9 0z"/><circle fill="#FFF" cx="63.2" cy="145" r="9.1"/><path fill="#FA0E6A" d="M59.3 140.7c2.4-2.2 6.2-2 8.4.4s2 6.2-.4 8.4-6.2 2-8.4-.4-2-6.2.4-8.4zm.8.9c-1.9 1.7-2.1 4.7-.3 6.6 1.7 1.9 4.7 2.1 6.6.3 1.9-1.7 2.1-4.7.3-6.6-1.7-1.9-4.6-2-6.6-.3z"/><path fill="#FA0E6A" d="M62.8 145.5c.2.2.6.3.9 0l3.9-3.6c.2-.2.3-.6 0-.9-.2-.2-.6-.3-.9 0l-3.9 3.6c-.2.3-.2.7 0 .9z"/><path fill="#CC1D62" d="M366.4 232.8h139.4v13.3H366.4zM248.6 153.4h8.1v26.9h-8.1zM323 153.4h8.1v26.9H323z"/><path fill="#FA0E6A" d="M534 280.5H338.1c-3.3 0-6-2.7-6-6v-25.6c0-3.3 2.7-6 6-6H534c3.3 0 6 2.7 6 6v25.6c0 3.3-2.7 6-6 6zM534 236H337.1c-3.3 0-6-2.7-6-6V101.9c0-3.3 2.7-6 6-6H534c3.3 0 6 2.7 6 6V230c0 3.3-2.7 6-6 6z"/><path fill="#FFF" d="M490.9 112.4H348.8c-1.2 0-2.2 1-2.2 2.2v102.6c0 1.2 1 2.2 2.2 2.2h142.1c1.2 0 2.2-1 2.2-2.2V114.5c0-1.2-1-2.1-2.2-2.1z"/><path fill-rule="evenodd" clip-rule="evenodd" fill="#6D6D6D" d="M365.3 163h46.6v45.7h-46.6z"/><path fill-rule="evenodd" clip-rule="evenodd" fill="#FA0E6A" d="M425.8 159.1h46.6v49.7h-46.6z"/><g fill-rule="evenodd" clip-rule="evenodd"><circle fill="#FA0E6A" cx="449.1" cy="183.6" r="14.3"/><g fill="#FFF"><path d="M449.1 176.1c-4.2 0-7.6 3.4-7.6 7.6 0 4.2 3.4 7.6 7.6 7.6 4.2 0 7.6-3.4 7.6-7.6 0-4.2-3.4-7.6-7.6-7.6zm-5.2 6.7c-.1-.1-.1-.4 0-.5l2.9-2.7c.1-.1.4-.1.5 0l.6.7c.1.1.1.4 0 .5l-2.9 2.7c-.1.1-.4.1-.5 0l-.6-.7zm9.4 4.3c-.9 1.2-2.5 2-4.2 2-1.7 0-3.3-.7-4.2-2-.4-.6-.2-.8.1-1 .3-.2.7-.3 1 .1.7.9 1.8 1.5 3.1 1.5 1.2 0 2.3-.6 3.1-1.5.3-.4.7-.3 1-.1.3.2.6.4.1 1zm.7-4.3l-.6.7c-.1.1-.4.2-.5 0l-2.9-2.7c-.1-.1-.2-.4 0-.5l.6-.7c.1-.1.4-.2.5 0l2.9 2.7c.1.1.1.3 0 .5z"/><path d="M449.1 174.3c-5.2 0-9.3 4.2-9.3 9.3 0 5.2 4.2 9.3 9.3 9.3 5.2 0 9.3-4.2 9.3-9.3.1-5.1-4.1-9.3-9.3-9.3zm0 17.7c-4.6 0-8.4-3.8-8.4-8.4 0-4.6 3.8-8.4 8.4-8.4 4.6 0 8.4 3.8 8.4 8.4 0 4.7-3.8 8.4-8.4 8.4z"/></g></g><circle fill-rule="evenodd" clip-rule="evenodd" fill="#6D6D6D" cx="388.6" cy="186.2" r="14.3"/><path fill="#FFF" d="M390.8 176.3l-7.9 10.8h5.6l-2.8 9 8.6-12.1h-5.5"/><g fill="#6D6D6D"><path d="M367 153c.6.5 1.8 1 2.8 1 .9 0 1.3-.2 1.3-.7 0-.5-.7-.7-1.6-.9-1.2-.3-3.1-.8-3.1-2.9 0-1.5.9-2.5 2.6-2.9v-.3c0-.9.3-1.4 1.2-1.4h.1c.9 0 1.2.5 1.2 1.4v.3c1.6.2 2.5.8 2.5 1.8 0 .8-.9 1.5-1 1.4-.7-.6-1.6-1-2.5-1-.8 0-1.2.3-1.2.7 0 .5.7.6 1.7.8 1.3.3 3.2.8 3.2 2.8 0 1.6-.9 2.6-2.7 3v.4c0 .9-.3 1.4-1.2 1.4h-.3c-.9 0-1.2-.5-1.2-1.4v-.3c-1.8-.2-2.8-.9-2.8-1.9.1-.8.9-1.4 1-1.3zM376.5 149.9c-.2.1-.5.2-.7.2-.9 0-1.5-.6-1.5-1.5 0-1 .7-1.4.8-1.4.3.2.6.3 1 .3.7 0 1.2-.4 1.4-1.1h.8c.9 0 1.3.5 1.3 1.4v7.2c0 .9-.5 1.4-1.3 1.4h-.4c-.8 0-1.3-.5-1.3-1.4v-5.1zM381.3 154.9c.2-.8.4-1.2 1.3-1.2h.3c.7 0 1.1.4 1.1 1.2v.1c0 .5-.2.9-.7 1.4l-1.2 1.4c-.5.5-1.6.1-1.5-.7l.7-2.2zM385.6 153.2c.7.7 1.6 1.1 2.6 1.1s1.6-.4 1.6-1.2c0-.8-.5-1.2-1.6-1.2-.8 0-1.4.3-1.7.5-1.1 0-1.8-.5-1.8-1.7v-2.6c0-1.1.4-1.7 1.4-1.7h4.5c1 0 1.5.4 1.5 1.2v.1c0 .8-.5 1.2-1.5 1.2h-3.5v1.5c.5-.2 1-.2 1.5-.2 2.3 0 3.8 1.2 3.8 3.1 0 2-1.6 3.3-4.2 3.3-2.5 0-3.8-.9-3.8-1.9.1-.9 1.1-1.5 1.2-1.5zM393 150.9c0-2.8 1.7-4.6 4.5-4.6s4.5 1.8 4.5 4.6v.9c0 2.8-1.7 4.6-4.5 4.6-2.9 0-4.5-1.8-4.5-4.6v-.9zm4.5 3.2c1 0 1.5-.7 1.5-1.9v-1.5c0-1.3-.5-2-1.5-2s-1.5.6-1.5 2v1.5c0 1.2.5 1.9 1.5 1.9zM402.6 150.9c0-2.8 1.7-4.6 4.5-4.6s4.5 1.8 4.5 4.6v.9c0 2.8-1.7 4.6-4.5 4.6-2.9 0-4.5-1.8-4.5-4.6v-.9zm4.5 3.2c1 0 1.5-.7 1.5-1.9v-1.5c0-1.3-.5-2-1.5-2s-1.5.6-1.5 2v1.5c0 1.2.5 1.9 1.5 1.9z"/></g><path fill-rule="evenodd" clip-rule="evenodd" fill="#6D6D6D" d="M107.3 139.7h46.6v69h-46.6z"/><path fill-rule="evenodd" clip-rule="evenodd" fill="#FA0E6A" d="M167.8 158.6h46.6v50.2h-46.6z"/><g fill-rule="evenodd" clip-rule="evenodd"><circle fill="#FA0E6A" cx="191.1" cy="183.7" r="14.3"/><g fill="#FFF"><path d="M191.1 176.2c-4.2 0-7.6 3.4-7.6 7.6 0 4.2 3.4 7.6 7.6 7.6 4.2 0 7.6-3.4 7.6-7.6-.1-4.3-3.4-7.6-7.6-7.6zm-5.2 6.6c-.1-.1-.1-.4 0-.5l2.9-2.7c.1-.1.4-.1.5 0l.6.7c.1.1.1.4 0 .5l-2.9 2.7c-.1.1-.4.1-.5 0l-.6-.7zm9.4 4.3c-.9 1.2-2.5 2-4.2 2-1.7 0-3.3-.7-4.2-2-.4-.6-.2-.8.1-1 .3-.2.7-.3 1 .1.7.9 1.8 1.5 3.1 1.5 1.2 0 2.3-.6 3.1-1.5.3-.4.7-.3 1-.1.3.3.5.5.1 1zm.7-4.3l-.6.7c-.1.1-.4.2-.5 0l-2.9-2.7c-.1-.1-.2-.4 0-.5l.6-.7c.1-.1.4-.2.5 0l2.9 2.7c.1.1.1.4 0 .5z"/><path d="M191.1 174.4c-5.2 0-9.3 4.2-9.3 9.3 0 5.2 4.2 9.3 9.3 9.3 5.2 0 9.3-4.2 9.3-9.3 0-5.1-4.2-9.3-9.3-9.3zm0 17.7c-4.6 0-8.4-3.8-8.4-8.4 0-4.6 3.8-8.4 8.4-8.4 4.6 0 8.4 3.8 8.4 8.4 0 4.7-3.8 8.4-8.4 8.4z"/></g></g><circle fill-rule="evenodd" clip-rule="evenodd" fill="#6D6D6D" cx="130.6" cy="173.8" r="14.3"/><path fill="#FFF" d="M132.7 163.9l-7.8 10.8h5.5l-2.7 8.9 8.6-12.1-5.5.1"/><g fill="#FA0E6A"><path d="M169.1 149.1c.6.5 1.8 1 2.8 1 .9 0 1.3-.2 1.3-.7 0-.5-.7-.7-1.6-.9-1.2-.3-3.1-.8-3.1-2.9 0-1.5.9-2.5 2.6-2.9v-.3c0-.9.3-1.4 1.2-1.4h.1c.9 0 1.2.5 1.2 1.4v.3c1.6.2 2.5.8 2.5 1.8 0 .8-.9 1.5-1 1.4-.7-.6-1.6-1-2.5-1-.8 0-1.2.3-1.2.7 0 .5.7.6 1.7.8 1.3.3 3.2.8 3.2 2.8 0 1.6-.9 2.6-2.7 3v.4c0 .9-.3 1.4-1.2 1.4h-.1c-.9 0-1.2-.5-1.2-1.4v-.3c-1.8-.2-2.8-.9-2.8-1.9-.1-.8.8-1.4.8-1.3zM178.7 146c-.2.1-.5.2-.7.2-.9 0-1.5-.6-1.5-1.5 0-1 .7-1.4.8-1.4.3.2.6.3 1 .3.7 0 1.2-.4 1.4-1.1h.8c.9 0 1.3.5 1.3 1.4v7.2c0 .9-.5 1.4-1.3 1.4h-.4c-.8 0-1.3-.5-1.3-1.4V146zM183.5 151c.2-.8.4-1.2 1.3-1.2h.3c.7 0 1.1.4 1.1 1.2v.1c0 .5-.2.9-.7 1.4l-1.2 1.4c-.5.5-1.6.1-1.5-.7l.7-2.2zM187.8 149.4c.7.7 1.6 1.1 2.6 1.1s1.6-.4 1.6-1.2c0-.8-.5-1.2-1.6-1.2-.8 0-1.4.3-1.7.5-1.1 0-1.8-.5-1.8-1.7v-2.6c0-1.1.4-1.7 1.4-1.7h4.5c1 0 1.5.4 1.5 1.2v.1c0 .8-.5 1.2-1.5 1.2h-3.5v1.5c.5-.2 1-.2 1.5-.2 2.3 0 3.8 1.2 3.8 3.1 0 2-1.6 3.3-4.2 3.3-2.5 0-3.8-.9-3.8-1.9.1-1 1.1-1.6 1.2-1.5zM196.1 149.4c.7.7 1.6 1.1 2.6 1.1s1.6-.4 1.6-1.2c0-.8-.5-1.2-1.6-1.2-.8 0-1.4.3-1.7.5-1.1 0-1.8-.5-1.8-1.7v-2.6c0-1.1.4-1.7 1.4-1.7h4.5c1 0 1.5.4 1.5 1.2v.1c0 .8-.5 1.2-1.5 1.2h-3.5v1.5c.5-.2 1-.2 1.5-.2 2.3 0 3.8 1.2 3.8 3.1 0 2-1.6 3.3-4.2 3.3-2.5 0-3.8-.9-3.8-1.9 0-1 1.1-1.6 1.2-1.5zM203.4 147.1c0-2.8 1.7-4.6 4.5-4.6s4.5 1.8 4.5 4.6v.9c0 2.8-1.7 4.6-4.5 4.6-2.9 0-4.5-1.8-4.5-4.6v-.9zm4.6 3.1c1 0 1.5-.7 1.5-1.9v-1.5c0-1.3-.5-2-1.5-2s-1.5.6-1.5 2v1.5c0 1.3.5 1.9 1.5 1.9z"/></g><g fill="#6D6D6D"><path d="M108.6 129.1c.6.5 1.8 1 2.8 1 .9 0 1.3-.2 1.3-.7 0-.5-.7-.7-1.6-.9-1.2-.3-3.1-.8-3.1-2.9 0-1.5.9-2.5 2.6-2.9v-.3c0-.9.3-1.4 1.2-1.4h.1c.9 0 1.2.5 1.2 1.4v.3c1.6.2 2.5.8 2.5 1.8 0 .8-.9 1.5-1 1.4-.7-.6-1.6-1-2.5-1-.8 0-1.2.3-1.2.7 0 .5.7.6 1.7.8 1.3.3 3.2.8 3.2 2.8 0 1.6-.9 2.6-2.7 3v.4c0 .9-.3 1.4-1.2 1.4h-.1c-.9 0-1.2-.5-1.2-1.4v-.3c-1.8-.2-2.8-.9-2.8-1.9-.1-.8.8-1.4.8-1.3zM118.2 126c-.2.1-.5.2-.7.2-.9 0-1.5-.6-1.5-1.5 0-1 .7-1.4.8-1.4.3.2.6.3 1 .3.7 0 1.2-.4 1.4-1.1h.8c.9 0 1.3.5 1.3 1.4v7.2c0 .9-.5 1.4-1.3 1.4h-.4c-.8 0-1.3-.5-1.3-1.4V126zM123 131c.2-.8.4-1.2 1.3-1.2h.3c.7 0 1.1.4 1.1 1.2v.1c0 .5-.2.9-.7 1.4l-1.2 1.4c-.5.5-1.6.1-1.5-.7l.7-2.2zM131 125.1h-3.5c-.9 0-1.3-.3-1.3-1.2v-.2c0-.8.5-1.1 1.3-1.1h4.7c1.8 0 2 .8 2 1.6v.2c0 .8-.6 1.7-1 2.3l-2.7 4.8c-.5.8-1 1.1-1.5 1.1-1 0-1.8-.9-1.7-1l3.7-6.5zM134.5 127.1c0-2.8 1.7-4.6 4.5-4.6s4.5 1.8 4.5 4.6v.9c0 2.8-1.7 4.6-4.5 4.6-2.9 0-4.5-1.8-4.5-4.6v-.9zm4.5 3.1c1 0 1.5-.7 1.5-1.9v-1.5c0-1.3-.5-2-1.5-2s-1.5.6-1.5 2v1.5c0 1.3.5 1.9 1.5 1.9zM144.1 127.1c0-2.8 1.7-4.6 4.5-4.6s4.5 1.8 4.5 4.6v.9c0 2.8-1.7 4.6-4.5 4.6-2.9 0-4.5-1.8-4.5-4.6v-.9zm4.5 3.1c1 0 1.5-.7 1.5-1.9v-1.5c0-1.3-.5-2-1.5-2s-1.5.6-1.5 2v1.5c0 1.3.5 1.9 1.5 1.9z"/></g><g fill="#FA0E6A"><path d="M427.2 149.1c.6.5 1.8 1 2.8 1 .9 0 1.3-.2 1.3-.7 0-.5-.7-.7-1.6-.9-1.2-.3-3.1-.8-3.1-2.9 0-1.5.9-2.5 2.6-2.9v-.3c0-.9.3-1.4 1.2-1.4h.1c.9 0 1.2.5 1.2 1.4v.3c1.6.2 2.5.8 2.5 1.8 0 .8-.9 1.5-1 1.4-.7-.6-1.6-1-2.5-1-.8 0-1.2.3-1.2.7 0 .5.7.6 1.7.8 1.3.3 3.2.8 3.2 2.8 0 1.6-.9 2.6-2.7 3v.4c0 .9-.3 1.4-1.2 1.4h-.1c-.9 0-1.2-.5-1.2-1.4v-.3c-1.8-.2-2.8-.9-2.8-1.9-.1-.8.7-1.4.8-1.3zM436.7 146c-.2.1-.5.2-.7.2-.9 0-1.5-.6-1.5-1.5 0-1 .7-1.4.8-1.4.3.2.6.3 1 .3.7 0 1.2-.4 1.4-1.1h.8c.9 0 1.3.5 1.3 1.4v7.2c0 .9-.5 1.4-1.3 1.4h-.5c-.8 0-1.3-.5-1.3-1.4V146zM441.5 151c.2-.8.4-1.2 1.3-1.2h.3c.7 0 1.1.4 1.1 1.2v.1c0 .5-.2.9-.7 1.4l-1.2 1.4c-.5.5-1.6.1-1.5-.7l.7-2.2zM445.8 149.4c.7.7 1.6 1.1 2.6 1.1s1.6-.4 1.6-1.2c0-.8-.5-1.2-1.6-1.2-.8 0-1.4.3-1.7.5-1.1 0-1.8-.5-1.8-1.7v-2.6c0-1.1.4-1.7 1.4-1.7h4.5c1 0 1.5.4 1.5 1.2v.1c0 .8-.5 1.2-1.5 1.2h-3.5v1.5c.5-.2 1-.2 1.5-.2 2.3 0 3.8 1.2 3.8 3.1 0 2-1.6 3.3-4.2 3.3-2.5 0-3.8-.9-3.8-1.9.1-1 1.1-1.6 1.2-1.5zM454.1 149.4c.7.7 1.6 1.1 2.6 1.1s1.6-.4 1.6-1.2c0-.8-.5-1.2-1.6-1.2-.8 0-1.4.3-1.7.5-1.1 0-1.8-.5-1.8-1.7v-2.6c0-1.1.4-1.7 1.4-1.7h4.5c1 0 1.5.4 1.5 1.2v.1c0 .8-.5 1.2-1.5 1.2h-3.5v1.5c.5-.2 1-.2 1.5-.2 2.3 0 3.8 1.2 3.8 3.1 0 2-1.6 3.3-4.2 3.3-2.5 0-3.8-.9-3.8-1.9.1-1 1.1-1.6 1.2-1.5zM461.4 147.1c0-2.8 1.7-4.6 4.5-4.6s4.5 1.8 4.5 4.6v.9c0 2.8-1.7 4.6-4.5 4.6-2.9 0-4.5-1.8-4.5-4.6v-.9zm4.6 3.1c1 0 1.5-.7 1.5-1.9v-1.5c0-1.3-.5-2-1.5-2s-1.5.6-1.5 2v1.5c0 1.3.5 1.9 1.5 1.9z"/></g><path fill="#CC1D62" d="M350.9 270c-1.5 0-2.7-1.2-2.7-2.7v-9c0-1.5 1.2-2.7 2.7-2.7h139.2c1.5 0 2.7 1.2 2.7 2.7v9c0 1.5-1.2 2.7-2.7 2.7H350.9z"/><path fill="#FFF" d="M490.1 256.7c.9 0 1.7.7 1.7 1.7v9c0 .9-.7 1.7-1.7 1.7H350.9c-.9 0-1.7-.7-1.7-1.7v-9c0-.9.7-1.7 1.7-1.7h139.2m0-2H350.9c-2 0-3.7 1.6-3.7 3.7v9c0 2 1.6 3.7 3.7 3.7h139.2c2 0 3.7-1.6 3.7-3.7v-9c0-2.1-1.7-3.7-3.7-3.7z"/><path fill-rule="evenodd" clip-rule="evenodd" fill="#EBEBEB" d="M354.8 262.9h131.4v85.9H354.8z"/><g fill="#FA0E6A"><path d="M366.6 281c0-.2.8-1.4 2.6-1.4.8 0 1.9.5 2.3 2.2l1.1 5.7 1.4-5.2c.2-1 1.2-1.5 2.3-1.5 1 0 2 .6 2.2 1.5l1.4 5.2 1.1-5.8c.3-1.6 1.3-2.1 2.2-2.1 1.6 0 2.5 1.2 2.4 1.4l-3 10.5c-.3 1.2-1.2 1.6-2.4 1.6s-2.1-.4-2.4-1.6l-1.6-5.5-1.5 5.5c-.3 1.2-1.2 1.6-2.4 1.6-1.3 0-2.1-.3-2.4-1.6l-3.3-10.5zM386.7 281.9c0-1.5.7-2.3 2.1-2.3h7.1c1.3 0 1.9.7 1.9 1.7v.1c0 1.1-.6 1.7-1.9 1.7h-5.1v1.3h3.4c1.4 0 1.9.6 1.9 1.6v.1c0 1.1-.6 1.7-1.9 1.7h-3.4v1.5h5.2c1.3 0 1.9.6 1.9 1.6v.1c0 1.1-.6 1.8-1.9 1.8h-7.2c-1.4 0-2.1-.8-2.1-2.3v-8.6zM408.7 279.4c3.8 0 5.2 2 5.2 3.2 0 1.7-2.3 2.1-2.4 2-.5-1-1.5-1.5-2.6-1.5-1.7 0-3 1.2-3 3.2 0 1.9 1.3 3.2 3 3.2 1.3 0 2.2-.6 2.7-1.6.1-.1 2.4.3 2.4 2 0 1.3-1.5 3.3-5.3 3.3-4.2 0-7-2.9-7-6.9s2.8-6.9 7-6.9zM415 281.9c0-1.5.7-2.3 2.1-2.3h4.1c3.7 0 5.5 1.5 5.5 4.4 0 1.9-1 3.4-2.9 3.9l3 3.7c.1.2-.6 1.4-2.4 1.4-1.3 0-1.9-.6-2.8-1.7l-1.9-2.5h-.7v2.3c0 1.2-.6 1.9-1.8 1.9h-.6c-1.1 0-1.7-.9-1.7-2.4v-8.7zm5.8 4c1.2 0 1.8-.6 1.8-1.5 0-1-.6-1.6-1.9-1.6H419v3.1h1.8zM427.9 281.9c0-1.5.7-2.3 2.1-2.3h7.1c1.3 0 1.9.7 1.9 1.7v.1c0 1.1-.6 1.7-1.9 1.7H432v1.3h3.4c1.4 0 1.9.6 1.9 1.6v.1c0 1.1-.6 1.7-1.9 1.7H432v1.5h5.2c1.3 0 1.9.6 1.9 1.6v.1c0 1.1-.6 1.8-1.9 1.8H430c-1.4 0-2.1-.8-2.1-2.3v-8.6zM440.2 281.9c0-1.5.9-2.3 2.1-2.3h3.5c4.4 0 7.1 2.5 7.1 6.6s-2.8 6.7-7.1 6.7h-3.3c-1.3 0-2.3-1-2.3-2.3v-8.7zm5.5 7.6c1.9 0 3.2-1.2 3.2-3.2s-1.2-3.1-3.1-3.1h-1.5v6.3h1.4zM454.1 281.5c0-1.3.6-1.9 1.7-1.9h.6c1.2 0 1.8.6 1.8 1.9v9.7c0 1.3-.6 1.9-1.8 1.9h-.6c-1.1 0-1.7-.7-1.7-1.9v-9.7zM463.2 283.2H461c-1.2 0-1.9-.6-1.9-1.8v-.1c0-1.1.7-1.7 1.9-1.7h8.5c1.3 0 1.9.6 1.9 1.7v.1c0 1.2-.6 1.8-1.9 1.8h-2.2v7.9c0 1.3-.7 1.9-1.8 1.9h-.6c-1.1 0-1.7-.7-1.7-1.9v-7.9z"/></g><g fill="#FA0E6A"><path d="M378.5 324.1c1.6 1.4 4.7 2.8 7.4 2.8 2.3 0 3.3-.6 3.3-1.9 0-1.4-1.9-1.8-4.2-2.3-3.3-.7-8.3-2-8.3-7.6 0-4 2.5-6.7 6.8-7.6v-.9c0-2.4.9-3.7 3.1-3.7h.2c2.3 0 3.1 1.2 3.1 3.7v.7c4.3.5 6.5 2.2 6.5 4.7 0 2.2-2.4 3.9-2.6 3.8-1.8-1.6-4.3-2.7-6.6-2.7-2.2 0-3.2.7-3.2 1.9 0 1.4 1.9 1.7 4.4 2.2 3.4.7 8.5 2.2 8.5 7.4 0 4.2-2.5 6.9-7.1 7.8v1c0 2.4-.9 3.7-3.1 3.7h-.2c-2.3 0-3.1-1.2-3.1-3.7v-.8c-4.8-.5-7.3-2.4-7.3-5 0-2 2.3-3.7 2.4-3.5zM400.1 319.7c0-9.8 5.9-15.9 15.8-15.9 7.7 0 11.9 2.8 11.9 7 0 3.9-4.7 4.3-4.8 4.2-1-1.6-2.9-3.3-6.3-3.3-4.5 0-6.5 2.3-6.7 7.2 1.7-1.5 4.6-2.7 8.3-2.7 6.4 0 10.8 3.3 10.8 9.7v.3c0 7-5.6 11.7-13.9 11.7-9.4 0-15.1-6.1-15.1-15.7v-2.5zm15 10.7c2.5 0 4.4-1.4 4.4-3.7v-.2c0-2.4-1.7-3.7-4.4-3.7-1.8 0-3.4.7-4.8 1.8.1 3.7 1.9 5.8 4.8 5.8zM430.4 319.2c0-9.4 5.6-15.4 15.1-15.4s15.1 5.9 15.1 15.4v3.1c0 9.5-5.6 15.5-15.1 15.5s-15.1-5.9-15.1-15.5v-3.1zm15.1 10.5c3.3 0 4.9-2.2 4.9-6.4v-4.9c0-4.3-1.7-6.5-4.9-6.5-3.4 0-5 2.1-5 6.5v4.9c.1 4.3 1.7 6.4 5 6.4z"/></g><path fill-rule="evenodd" clip-rule="evenodd" fill="#D8D8D8" d="M354.8 262.9h131.4v4.4H354.8z"/><path fill-rule="evenodd" clip-rule="evenodd" fill="#EBEBEB" d="M93.5 262.9h131.4v85.9H93.5z"/><g fill="#FA0E6A"><path d="M108.8 323.1c1.6 1.4 4.7 2.8 7.4 2.8 2.3 0 3.3-.6 3.3-1.9 0-1.4-1.9-1.8-4.2-2.3-3.3-.7-8.3-2-8.3-7.6 0-4 2.5-6.7 6.8-7.6v-.9c0-2.4.9-3.7 3.1-3.7h.2c2.3 0 3.1 1.2 3.1 3.7v.7c4.3.5 6.5 2.2 6.5 4.7 0 2.2-2.4 3.9-2.6 3.8-1.8-1.6-4.3-2.7-6.6-2.7-2.2 0-3.2.7-3.2 1.9 0 1.4 1.9 1.7 4.4 2.2 3.4.7 8.5 2.2 8.5 7.4 0 4.2-2.5 6.9-7.1 7.8v1c0 2.4-.9 3.7-3.1 3.7h-.2c-2.3 0-3.1-1.2-3.1-3.7v-.8c-4.8-.5-7.3-2.4-7.3-5 0-2 2.2-3.7 2.4-3.5zM137.2 314.8c-.8.4-1.6.6-2.4.6-2.9 0-5.1-2.1-5.1-5 0-3.4 2.3-4.8 2.6-4.6 1 .7 2 1 3.2 1 2.2 0 4-1.4 4.5-3.7h2.6c2.9 0 4.4 1.6 4.4 4.7v24.1c0 3.1-1.6 4.7-4.4 4.7h-1.3c-2.8 0-4.2-1.6-4.2-4.7v-17.1zM155.6 325.8c2.4 2.5 5.5 3.8 8.8 3.8 3.5 0 5.5-1.5 5.5-3.9 0-2.5-1.8-3.9-5.5-3.9-2.8 0-4.6.9-5.7 1.7-3.7-.1-5.8-1.6-5.8-5.6v-8.8c0-3.6 1.3-5.6 4.7-5.6h15.1c3.3 0 4.8 1.2 4.8 3.9v.3c0 2.7-1.5 3.8-4.8 3.8h-11.6v4.8c1.5-.5 3.2-.8 5-.8 7.6 0 12.5 3.8 12.5 10.4 0 6.6-5.3 10.9-13.9 10.9-8.3 0-12.8-3.1-12.8-6.3-.1-2.7 3.4-4.9 3.7-4.7zM180 318.2c0-9.4 5.6-15.4 15.1-15.4s15.1 5.9 15.1 15.4v3.1c0 9.5-5.6 15.5-15.1 15.5s-15.1-5.9-15.1-15.5v-3.1zm15.1 10.5c3.3 0 4.9-2.2 4.9-6.4v-4.9c0-4.3-1.7-6.5-4.9-6.5-3.4 0-5 2.1-5 6.5v4.9c0 4.3 1.7 6.4 5 6.4z"/></g><g fill="#FA0E6A"><path d="M111.6 287.9l-5.2-7.4c-.1-.2.7-1.7 3-1.7.8 0 1.5.5 2.2 1.6l2.3 3.9 2.4-3.9c.7-1.2 1.4-1.6 2.2-1.6 2.1 0 3 1.5 2.9 1.7l-5.1 7.4v3.8c0 1.4-.7 2.1-2 2.1h-.7c-1.3 0-1.9-.7-1.9-2.1v-3.8zM128.8 278.5c4.6 0 7.8 3.2 7.8 7.7s-3.3 7.8-7.8 7.8c-4.6 0-7.9-3.2-7.9-7.8 0-4.4 3.3-7.7 7.9-7.7zm0 11.4c2 0 3.3-1.4 3.3-3.7 0-2.2-1.3-3.7-3.3-3.7-2 0-3.3 1.4-3.3 3.7 0 2.3 1.3 3.7 3.3 3.7zM137.8 280.9c0-1.4.8-2.1 2-2.1h.6c1.3 0 2 .7 2 2.1v6.3c0 1.8.7 2.8 2.2 2.8 1.5 0 2.2-.9 2.2-2.8v-6.3c0-1.4.8-2.1 2-2.1h.6c1.3 0 2 .7 2 2.1v6.3c0 4.5-2.3 6.8-6.8 6.8s-6.8-2.3-6.8-6.8v-6.3zM157.3 288.8c1 .9 2.8 1.7 4.4 1.7 1.4 0 2.1-.4 2.1-1.2 0-.9-1.2-.9-2.7-1.2-2.5-.5-5-1.6-5-4.6 0-3.1 2.3-4.9 6.3-4.9 3.9 0 5.6 1.4 5.6 2.8 0 1.3-1.5 2.4-1.6 2.3-1-.9-2.5-1.6-3.9-1.6-1.3 0-2 .4-2 1.2 0 .9 1.2.8 2.8 1.1 2.9.6 5.2 1.9 5.2 4.6 0 3.2-2.2 5.1-6.7 5.1-4.4 0-5.9-1.5-5.9-3.1-.1-1.1 1.3-2.3 1.4-2.2zM173.5 280c.2-.7.9-1.3 2.9-1.3 2.1 0 2.6.5 2.9 1.3l5 12.5c.2.4-1.1 1.5-2.5 1.5-1 0-2-.5-2.6-2.2l-.4-1.1H174l-.4 1.1c-.6 1.6-1.5 2.1-2.5 2.1-1.3 0-2.5-1-2.4-1.4l4.8-12.5zm4.5 7.3l-1.6-4.3-1.6 4.3h3.2zM182.2 280.3c-.2-.4 1.3-1.6 2.9-1.6 1.2 0 2.1.8 2.6 2.1l2.3 7.4 2.3-7.4c.4-1.5 1.4-2.1 2.5-2.1 1.5 0 2.9 1.2 2.7 1.6l-4.9 11.8c-.5 1.2-1.3 1.7-2.7 1.7-1.4 0-2.1-.4-2.6-1.7l-5.1-11.8zM198.2 281.4c0-1.7.8-2.6 2.3-2.6h7.9c1.5 0 2.1.7 2.1 1.9v.1c0 1.3-.7 1.9-2.1 1.9h-5.7v1.5h3.8c1.5 0 2.1.6 2.1 1.8v.1c0 1.2-.6 1.9-2.1 1.9h-3.8v1.7h5.8c1.4 0 2.1.6 2.1 1.8v.1c0 1.3-.7 2-2.1 2h-8c-1.5 0-2.3-.9-2.3-2.5v-9.7z"/></g><path fill-rule="evenodd" clip-rule="evenodd" fill="#D8D8D8" d="M93.5 262.9h131.4v4.4H93.5z"/><circle fill="#FFF" cx="516.5" cy="262.9" r="9.1"/><path fill="#FA0E6A" d="M516.4 268.8c-3.3 0-5.9-2.7-5.9-5.9 0-3.3 2.7-5.9 5.9-5.9 3.3 0 5.9 2.7 5.9 5.9s-2.7 5.9-5.9 5.9zm0-10.6c-2.6 0-4.7 2.1-4.7 4.7s2.1 4.7 4.7 4.7 4.7-2.1 4.7-4.7-2.2-4.7-4.7-4.7z"/><path fill="#FA0E6A" d="M516.4 263.5c-.3 0-.6-.3-.6-.6v-5.3c0-.3.3-.6.6-.6s.6.3.6.6v5.3c0 .3-.3.6-.6.6z"/><path fill="#FFF" d="M524.1 204.6h-15.2c-.8 0-1.5.7-1.5 1.5v11.7c0 .8.7 1.5 1.5 1.5h15.2c.8 0 1.5-.7 1.5-1.5v-11.7c0-.8-.7-1.5-1.5-1.5zM524.1 185.6h-15.2c-.8 0-1.5.7-1.5 1.5v11.7c0 .8.7 1.5 1.5 1.5h15.2c.8 0 1.5-.7 1.5-1.5v-11.7c0-.8-.7-1.5-1.5-1.5z"/><path fill="#FA0E6A" d="M519.2 209.6l-2.7 4.8-2.7-4.8M513.8 194.9l2.7-4.7 2.7 4.7"/><path fill="#CC1D62" d="M508.9 177.8c-.3 0-.5-.2-.5-.5v-63.5c0-.3.2-.5.5-.5h15.2c.3 0 .5.2.5.5v63.5c0 .3-.2.5-.5.5h-15.2z"/><path fill="#FFF" d="M523.6 114.4v62.5h-14.2v-62.5h14.2m.5-2h-15.2c-.8 0-1.5.7-1.5 1.5v63.5c0 .8.7 1.5 1.5 1.5h15.2c.8 0 1.5-.7 1.5-1.5v-63.5c0-.9-.7-1.5-1.5-1.5z"/><path fill="#CC1D62" stroke="#FFF" stroke-width="2" stroke-linecap="round" stroke-miterlimit="10" d="M516.5 120.6v49.8"/><path fill="none" stroke="#FFF" stroke-width="2" stroke-linecap="round" stroke-miterlimit="10" d="M63.2 187.4v25.9M63.2 165.9v3.3"/><path fill="#FFF" d="M49.5 172.7h27.3c.8 0 1.5.7 1.5 1.5v7.5c0 .8-.7 1.5-1.5 1.5H49.5c-.8 0-1.5-.7-1.5-1.5v-7.5c0-.8.7-1.5 1.5-1.5z"/><path fill="none" stroke="#CC1D62" stroke-width="2" stroke-linecap="round" stroke-linejoin="round" stroke-miterlimit="10" d="M57.3 187.4v31.2h11.9v-31.2M69.2 169.2v-8H57.3v8"/><g fill="#7D7D85"><path d="M56.2 25.4c0-.1.3-.3.8-.3s.7.3.9.9l2.6 11.5 3-9.7c.2-.5.4-.8 1.1-.8s.9.3 1.1.8l2.9 9.7L71.3 26c.1-.6.3-.9.8-.9s.8.2.8.3l-3.1 12.9c-.1.4-.3.6-1.1.6-.7 0-.9-.2-1-.6l-3-9.9-3.2 9.9c-.1.4-.3.6-1 .6-.8 0-1-.1-1.1-.6l-3.2-12.9zM75.2 24.6s.2-.1.5-.1c.5 0 .9.2.9 1.3v4.6c.7-1.1 1.8-1.8 3.4-1.8 2.6 0 4 1.8 4 4.4v5.3c0 .5-.3.7-.6.7h-.1c-.4 0-.6-.1-.6-.7V33c0-2-1-3.2-2.7-3.2-2 0-3.3 1.3-3.3 3.4v5c0 .5-.3.7-.6.7H76c-.4 0-.6-.1-.6-.7V24.6zM91 28.5c2.8 0 4.7 2 4.7 5v.1c0 .4-.1.5-.6.5h-7.8c.1 2.1 1.7 3.7 3.8 3.7 2 0 2.8-.8 3.4-1.8 0-.1.8.1.8.8 0 .7-1.5 2.2-4.2 2.2-3 0-5.2-2.1-5.2-5.2.1-3 2.2-5.3 5.1-5.3zm3.3 4.5c-.1-2-1.3-3.3-3.2-3.3-1.9 0-3.3 1.3-3.6 3.3h6.8zM97.8 28.8s.2-.1.5-.1c.5 0 .9.2.9 1.3v.3c.7-1.1 1.8-1.8 3.4-1.8 2.6 0 4 1.8 4 4.4v5.3c0 .5-.3.7-.6.7h-.1c-.4 0-.6-.1-.6-.7V33c0-2-1-3.2-2.7-3.2-1.6 0-2.7.9-3.3 2.1v6.3c0 .5-.3.7-.6.7h-.1c-.4 0-.6-.1-.6-.7v-9.4zM111.9 29.1c0-.1.4-.4.8-.4.3 0 .7.2.8 1l1.8 7.9 2.1-6.7c.1-.4.3-.6 1-.6s.9.2 1 .6l2.1 6.7 1.8-7.9c.1-.7.5-1 .8-1 .4 0 .8.3.8.4l-2.4 9.3c-.1.4-.2.5-1 .5-.7 0-.8-.2-.9-.5l-2.2-6.8-2.3 6.8c-.1.4-.2.5-.9.5-.8 0-.9-.2-1-.5l-2.3-9.3zM131.4 28.5c2.8 0 4.7 2 4.7 5v.1c0 .4-.1.5-.6.5h-7.8c.1 2.1 1.7 3.7 3.8 3.7 2 0 2.8-.8 3.4-1.8 0-.1.8.1.8.8 0 .7-1.5 2.2-4.2 2.2-3 0-5.2-2.1-5.2-5.2 0-3 2.2-5.3 5.1-5.3zm3.2 4.5c-.1-2-1.3-3.3-3.2-3.3-1.9 0-3.3 1.3-3.6 3.3h6.8zM137.3 29.4l1.3-3.7c.2-.5.3-.8.8-.8h.1c.3 0 .6.3.6.8v.1c0 .3-.1.7-.3 1l-1.8 3c-.1.1-.9 0-.7-.4zM142.4 28.8s.2-.1.5-.1c.5 0 .9.2.9 1.3v.6c.4-1.4 1.3-2.1 2.6-2.1.9 0 1.4.4 1.4 1 0 .5-.3.8-.4.7-.3-.3-.7-.4-1.2-.4-1.8 0-2.5 1.9-2.5 4.4v3.9c0 .5-.3.7-.6.7h-.1c-.4 0-.6-.1-.6-.7v-9.3zM153.8 28.5c2.8 0 4.7 2 4.7 5v.1c0 .4-.1.5-.6.5h-7.8c.1 2.1 1.7 3.7 3.8 3.7 2 0 2.8-.8 3.4-1.8 0-.1.8.1.8.8 0 .7-1.5 2.2-4.2 2.2-3 0-5.2-2.1-5.2-5.2 0-3 2.2-5.3 5.1-5.3zM157 33c-.1-2-1.3-3.3-3.2-3.3-1.9 0-3.3 1.3-3.6 3.3h6.8zM168.6 28.5c2.9 0 4.3 1.9 4.3 2.8 0 .6-.9.7-.9.7-.5-1.2-1.5-2.2-3.4-2.2-2.1 0-3.8 1.7-3.8 4s1.6 4.1 3.8 4.1c1.9 0 2.9-1 3.4-2.2 0-.1.9 0 .9.7 0 .9-1.4 2.8-4.3 2.8s-5.1-2.2-5.1-5.3c-.1-3.2 2.1-5.4 5.1-5.4zM175 24.6s.2-.1.5-.1c.5 0 .9.2.9 1.3v4.6c.7-1.1 1.8-1.8 3.4-1.8 2.6 0 4 1.8 4 4.4v5.3c0 .5-.3.7-.6.7h-.1c-.4 0-.6-.1-.6-.7V33c0-2-1-3.2-2.7-3.2-2 0-3.3 1.3-3.3 3.4v5c0 .5-.3.7-.6.7h-.1c-.4 0-.6-.1-.6-.7V24.6zM190.8 28.5c2.8 0 4.7 2 4.7 5v.1c0 .4-.1.5-.6.5h-7.8c.1 2.1 1.7 3.7 3.8 3.7 2 0 2.8-.8 3.4-1.8 0-.1.8.1.8.8 0 .7-1.5 2.2-4.2 2.2-3 0-5.2-2.1-5.2-5.2.1-3 2.2-5.3 5.1-5.3zM194 33c-.1-2-1.3-3.3-3.2-3.3-1.9 0-3.3 1.3-3.6 3.3h6.8zM203.9 32.8h.2v-.4c0-1.7-1-2.7-2.8-2.7-1.6 0-2.6.8-3.2 1.8 0 0-.8-.1-.8-.8 0-.7 1.4-2.3 4.1-2.3 2.5 0 4.1 1.5 4.1 3.9v6.3s-.2.1-.5.1c-.5 0-.9-.2-.9-1.3V37c-.8 1.2-2.1 1.8-3.7 1.8-2.2 0-3.4-1.1-3.4-2.8-.1-2.1 2.3-3.1 6.9-3.2zm-3.4 5.1c2.1 0 3.6-1.3 3.6-3.1v-.9h-.6c-3.4.1-5.2.7-5.2 2.3 0 1 .9 1.7 2.2 1.7zM209.5 42.2c0 .5-.3.7-.6.7h-.1c-.4 0-.6-.1-.6-.7V28.8s.2-.1.5-.1c.5 0 .9.2.9 1.3v.4c.9-1.2 2.1-1.9 3.7-1.9 2.6 0 4.7 2.1 4.7 5.2 0 3.2-2 5.3-4.8 5.3-1.8 0-3.1-.9-3.6-1.9v5.1zm3.6-4.4c2.1 0 3.5-1.6 3.5-4.1 0-2.4-1.5-4.1-3.5-4.1-1.7 0-3 .9-3.6 2.4v2.4c0 1.9 1.7 3.4 3.6 3.4zM224.5 28.5c2.8 0 4.7 2 4.7 5v.1c0 .4-.1.5-.6.5h-7.8c.1 2.1 1.7 3.7 3.8 3.7 2 0 2.8-.8 3.4-1.8 0-.1.8.1.8.8 0 .7-1.5 2.2-4.2 2.2-3 0-5.2-2.1-5.2-5.2.1-3 2.2-5.3 5.1-5.3zm3.2 4.5c-.1-2-1.3-3.3-3.2-3.3-1.9 0-3.3 1.3-3.6 3.3h6.8zM231.3 28.8s.2-.1.5-.1c.5 0 .9.2.9 1.3v.6c.4-1.4 1.3-2.1 2.6-2.1.9 0 1.4.4 1.4 1 0 .5-.3.8-.4.7-.3-.3-.7-.4-1.2-.4-1.8 0-2.5 1.9-2.5 4.4v3.9c0 .5-.3.7-.6.7h-.1c-.4 0-.6-.1-.6-.7v-9.3zM86.6 55.5c3 0 5.1 2.2 5.1 5.3 0 3-2.2 5.2-5.1 5.2-3 0-5.2-2.2-5.2-5.3.1-3 2.2-5.2 5.2-5.2zm0 9.3c2.1 0 3.8-1.7 3.8-4s-1.6-4.1-3.8-4.1c-2.2 0-3.8 1.7-3.8 4 0 2.4 1.7 4.1 3.8 4.1zM92.6 56.1c0-.1.2-.4.7-.4.5 0 .7.2 1 1l2.9 7.9 3-7.9c.3-.8.6-1 1-1 .5 0 .7.3.7.4l-3.7 9.3c-.1.4-.3.5-1 .5s-.8-.1-.9-.5l-3.7-9.3zM107.8 55.5c2.8 0 4.7 2 4.7 5v.1c0 .4-.1.5-.6.5h-7.8c.1 2.1 1.7 3.7 3.8 3.7 2 0 2.8-.8 3.4-1.8 0-.1.8.1.8.8 0 .7-1.5 2.2-4.2 2.2-3 0-5.2-2.1-5.2-5.2.1-3 2.2-5.3 5.1-5.3zM111 60c-.1-2-1.3-3.3-3.2-3.3-1.9 0-3.3 1.3-3.6 3.3h6.8zM114.6 55.8s.2-.1.5-.1c.5 0 .9.2.9 1.3v.6c.4-1.4 1.3-2.1 2.6-2.1.9 0 1.4.4 1.4 1 0 .5-.3.8-.4.7-.3-.3-.7-.4-1.2-.4-1.8 0-2.5 1.9-2.5 4.4v3.9c0 .5-.3.7-.6.7h-.1c-.4 0-.6-.1-.6-.7v-9.3zM127.4 54.4c-.3.5-.9.8-1.6.8-.9 0-1.5-.5-1.5-1.2 0-.5.4-.8.4-.8.3.3.7.5 1.2.5.9 0 1.6-.7 1.6-1.6h.6c.4 0 .6.2.6.7v12.5c0 .4-.2.7-.6.7h-.1c-.4 0-.6-.2-.6-.7V54.4zM132 64.5c0-2.9 2.1-4.2 4.2-5.2 1.8-.9 3.6-1.7 3.6-3.4 0-1.6-1.2-2.6-3.1-2.6-2.2 0-3.2 1.3-3.6 2.8 0 .1-1 .1-1-.8 0-1.2 1.6-3.4 4.7-3.4 2.8 0 4.5 1.5 4.5 3.9s-2 3.4-4.1 4.4c-2 1-3.7 1.9-3.7 4v.2h7.4c.4 0 .7.2.7.6v.1c0 .4-.2.6-.7.6H133c-.6 0-.9-.3-.9-.9v-.3zM147 55.8s.2-.1.5-.1c.5 0 .9.2.9 1.3v.3c.7-1 1.8-1.7 3.1-1.7 1.6 0 2.8.7 3.3 2.1.7-1.2 1.9-2.1 3.5-2.1 2.5 0 3.9 1.4 3.9 4.2v5.5c0 .5-.3.7-.6.7h-.1c-.4 0-.6-.1-.6-.7v-5.4c0-2-.9-3-2.6-3-1.2 0-2.4.8-3 2v6.4c0 .5-.3.7-.6.7h-.1c-.4 0-.6-.1-.6-.7V60c0-2.1-.9-3.1-2.6-3.1-1.2 0-2.4.8-3 2v6.4c0 .5-.3.7-.6.7h-.1c-.4 0-.6-.1-.6-.7v-9.5zM169.5 55.5c3 0 5.1 2.2 5.1 5.3 0 3-2.2 5.2-5.1 5.2-3 0-5.2-2.2-5.2-5.3 0-3 2.2-5.2 5.2-5.2zm0 9.3c2.1 0 3.8-1.7 3.8-4s-1.6-4.1-3.8-4.1c-2.2 0-3.8 1.7-3.8 4 0 2.4 1.6 4.1 3.8 4.1zM176.8 55.8s.2-.1.5-.1c.5 0 .9.2.9 1.3v.3c.7-1.1 1.8-1.8 3.4-1.8 2.6 0 4 1.8 4 4.4v5.3c0 .5-.3.7-.6.7h-.1c-.4 0-.6-.1-.6-.7V60c0-2-1-3.2-2.7-3.2-1.6 0-2.7.9-3.3 2.1v6.3c0 .5-.3.7-.6.7h-.1c-.4 0-.6-.1-.6-.7v-9.4zM188.7 57h-.9c-.5 0-.7-.2-.7-.5v-.1c0-.4.1-.5.7-.5h.9V54c0-.5.3-.7.6-.7h.1c.4 0 .6.1.6.7v1.7h2.7c.5 0 .7.2.7.5v.1c0 .4-.1.5-.7.5H190v5.7c0 1.5.4 2.2 1.5 2.2.7 0 1.2-.3 1.6-.7 0 0 .5.1.5.7s-.7 1.2-2.1 1.2c-2 0-2.8-1.1-2.8-3.2V57zM195.3 51.6s.2-.1.5-.1c.5 0 .9.2.9 1.3v4.6c.7-1.1 1.8-1.8 3.4-1.8 2.6 0 4 1.8 4 4.4v5.3c0 .5-.3.7-.6.7h-.1c-.4 0-.6-.1-.6-.7V60c0-2-1-3.2-2.7-3.2-2 0-3.3 1.3-3.3 3.4v5c0 .5-.3.7-.6.7h-.1c-.4 0-.6-.1-.6-.7V51.6zM206.7 63.2c.7.9 1.8 1.6 3.4 1.6 1.7 0 2.6-.7 2.6-1.7 0-1.2-1-1.4-2.9-1.8-1.6-.3-3.5-.8-3.5-2.8 0-1.8 1.5-3 3.8-3 2.4 0 3.7 1.2 3.7 1.9 0 .5-.7.8-.8.7-.6-.9-1.6-1.5-2.9-1.5-1.6 0-2.5.7-2.5 1.7 0 1.1.9 1.4 2.8 1.8 1.6.4 3.7.8 3.7 2.9 0 1.8-1.5 3-3.9 3-2.7 0-4.1-1.3-4.1-2-.1-.6.6-.8.6-.8z"/></g><g fill="#7D7D85"><path d="M355.6 25.7c0-.4.2-.7.6-.7h.2c.4 0 .6.2.6.7v12.5c0 .4-.2.7-.6.7h-.2c-.4 0-.6-.2-.6-.7V25.7zM361.1 30h-1.5c-.5 0-.7-.2-.7-.5v-.1c0-.4.1-.5.7-.5h1.5V28c0-2.3 1-3.5 2.9-3.5 1.3 0 2 .6 2 1.2 0 .5-.4.7-.4.7-.3-.3-.9-.6-1.6-.6-1.1 0-1.6.7-1.6 2.4v.9h2c.5 0 .7.2.7.5v.1c0 .4-.1.5-.7.5h-2v8.2c0 .5-.2.7-.6.7h-.1c-.4 0-.6-.1-.6-.7V30zM371.4 30h-.9c-.5 0-.7-.2-.7-.5v-.1c0-.4.1-.5.7-.5h.9V27c0-.5.3-.7.6-.7h.1c.4 0 .6.1.6.7v1.7h2.7c.5 0 .7.2.7.5v.1c0 .4-.1.5-.7.5h-2.7v5.7c0 1.5.4 2.2 1.5 2.2.7 0 1.2-.3 1.6-.7 0 0 .5.1.5.7s-.7 1.2-2.1 1.2c-2 0-2.8-1.1-2.8-3.2V30zM378 24.6s.2-.1.5-.1c.5 0 .9.2.9 1.3v4.6c.7-1.1 1.8-1.8 3.4-1.8 2.6 0 4 1.8 4 4.4v5.3c0 .5-.3.7-.6.7h-.1c-.4 0-.6-.1-.6-.7V33c0-2-1-3.2-2.7-3.2-2 0-3.3 1.3-3.3 3.4v5c0 .5-.3.7-.6.7h-.1c-.4 0-.6-.1-.6-.7V24.6zM393.8 28.5c2.8 0 4.7 2 4.7 5v.1c0 .4-.1.5-.6.5h-7.8c.1 2.1 1.7 3.7 3.8 3.7 2 0 2.8-.8 3.4-1.8 0-.1.8.1.8.8 0 .7-1.5 2.2-4.2 2.2-3 0-5.2-2.1-5.2-5.2.1-3 2.2-5.3 5.1-5.3zM397 33c-.1-2-1.3-3.3-3.2-3.3-1.9 0-3.3 1.3-3.6 3.3h6.8zM399.3 29.1c0-.1.2-.4.7-.4.5 0 .7.2 1 .9l3.2 7.8 2.8-7.8c.3-.7.6-1 1-1s.7.3.7.4l-4.8 13c-.3.7-.6.9-1 .9s-.7-.3-.7-.4l1.7-4.3c-.5 0-.7-.1-.8-.5l-3.8-8.6zM410.1 29.4l1.3-3.7c.2-.5.3-.8.8-.8h.1c.3 0 .6.3.6.8v.1c0 .3-.1.7-.3 1l-1.8 3c-.2.1-.9 0-.7-.4zM415.2 28.8s.2-.1.5-.1c.5 0 .9.2.9 1.3v.6c.4-1.4 1.3-2.1 2.6-2.1.9 0 1.4.4 1.4 1 0 .5-.3.8-.4.7-.3-.3-.7-.4-1.2-.4-1.8 0-2.5 1.9-2.5 4.4v3.9c0 .5-.3.7-.6.7h-.1c-.4 0-.6-.1-.6-.7v-9.3zM426.5 28.5c2.8 0 4.7 2 4.7 5v.1c0 .4-.1.5-.6.5h-7.8c.1 2.1 1.7 3.7 3.8 3.7 2 0 2.8-.8 3.4-1.8 0-.1.8.1.8.8 0 .7-1.5 2.2-4.2 2.2-3 0-5.2-2.1-5.2-5.2.1-3 2.2-5.3 5.1-5.3zm3.2 4.5c-.1-2-1.3-3.3-3.2-3.3-1.9 0-3.3 1.3-3.6 3.3h6.8zM441.3 28.5c2.9 0 4.3 1.9 4.3 2.8 0 .6-.9.7-.9.7-.5-1.2-1.5-2.2-3.4-2.2-2.1 0-3.8 1.7-3.8 4s1.6 4.1 3.8 4.1c1.9 0 2.9-1 3.4-2.2 0-.1.9 0 .9.7 0 .9-1.4 2.8-4.3 2.8s-5.1-2.2-5.1-5.3c0-3.2 2.2-5.4 5.1-5.4zM447.7 24.6s.2-.1.5-.1c.5 0 .9.2.9 1.3v4.6c.7-1.1 1.8-1.8 3.4-1.8 2.6 0 4 1.8 4 4.4v5.3c0 .5-.3.7-.6.7h-.1c-.4 0-.6-.1-.6-.7V33c0-2-1-3.2-2.7-3.2-2 0-3.3 1.3-3.3 3.4v5c0 .5-.3.7-.6.7h-.1c-.4 0-.6-.1-.6-.7V24.6zM463.6 28.5c2.8 0 4.7 2 4.7 5v.1c0 .4-.1.5-.6.5h-7.8c.1 2.1 1.7 3.7 3.8 3.7 2 0 2.8-.8 3.4-1.8 0-.1.8.1.8.8 0 .7-1.5 2.2-4.2 2.2-3 0-5.2-2.1-5.2-5.2 0-3 2.2-5.3 5.1-5.3zm3.2 4.5c-.1-2-1.3-3.3-3.2-3.3-1.9 0-3.3 1.3-3.6 3.3h6.8zM476.7 32.8h.2v-.4c0-1.7-1-2.7-2.8-2.7-1.6 0-2.6.8-3.2 1.8 0 0-.8-.1-.8-.8 0-.7 1.4-2.3 4.1-2.3 2.5 0 4.1 1.5 4.1 3.9v6.3s-.2.1-.5.1c-.5 0-.9-.2-.9-1.3V37c-.8 1.2-2.1 1.8-3.7 1.8-2.2 0-3.4-1.1-3.4-2.8-.1-2.1 2.2-3.1 6.9-3.2zm-3.4 5.1c2.1 0 3.6-1.3 3.6-3.1v-.9h-.6c-3.4.1-5.2.7-5.2 2.3 0 1 .8 1.7 2.2 1.7zM482.3 42.2c0 .5-.3.7-.6.7h-.1c-.4 0-.6-.1-.6-.7V28.8s.2-.1.5-.1c.5 0 .9.2.9 1.3v.4c.9-1.2 2.1-1.9 3.7-1.9 2.6 0 4.7 2.1 4.7 5.2 0 3.2-2 5.3-4.8 5.3-1.8 0-3.1-.9-3.6-1.9v5.1zm3.5-4.4c2.1 0 3.5-1.6 3.5-4.1 0-2.4-1.5-4.1-3.5-4.1-1.7 0-3 .9-3.6 2.4v2.4c.1 1.9 1.8 3.4 3.6 3.4zM497.3 28.5c2.8 0 4.7 2 4.7 5v.1c0 .4-.1.5-.6.5h-7.8c.1 2.1 1.7 3.7 3.8 3.7 2 0 2.8-.8 3.4-1.8 0-.1.8.1.8.8 0 .7-1.5 2.2-4.2 2.2-3 0-5.2-2.1-5.2-5.2 0-3 2.2-5.3 5.1-5.3zm3.2 4.5c-.1-2-1.3-3.3-3.2-3.3-1.9 0-3.3 1.3-3.6 3.3h6.8zM504 28.8s.2-.1.5-.1c.5 0 .9.2.9 1.3v.6c.4-1.4 1.3-2.1 2.6-2.1.9 0 1.4.4 1.4 1 0 .5-.3.8-.4.7-.3-.3-.7-.4-1.2-.4-1.8 0-2.5 1.9-2.5 4.4v3.9c0 .5-.3.7-.6.7h-.1c-.4 0-.6-.1-.6-.7v-9.3zM372.3 55.5c3 0 5.1 2.2 5.1 5.3 0 3-2.2 5.2-5.1 5.2-3 0-5.2-2.2-5.2-5.3.1-3 2.2-5.2 5.2-5.2zm0 9.3c2.1 0 3.8-1.7 3.8-4s-1.6-4.1-3.8-4.1c-2.2 0-3.8 1.7-3.8 4 .1 2.4 1.7 4.1 3.8 4.1zM378.4 56.1c0-.1.2-.4.7-.4.5 0 .7.2 1 1l2.9 7.9 3-7.9c.3-.8.6-1 1-1 .5 0 .7.3.7.4l-3.7 9.3c-.1.4-.3.5-1 .5s-.8-.1-.9-.5l-3.7-9.3zM393.5 55.5c2.8 0 4.7 2 4.7 5v.1c0 .4-.1.5-.6.5h-7.8c.1 2.1 1.7 3.7 3.8 3.7 2 0 2.8-.8 3.4-1.8 0-.1.8.1.8.8 0 .7-1.5 2.2-4.2 2.2-3 0-5.2-2.1-5.2-5.2.1-3 2.2-5.3 5.1-5.3zm3.2 4.5c-.1-2-1.3-3.3-3.2-3.3-1.9 0-3.3 1.3-3.6 3.3h6.8zM400.3 55.8s.2-.1.5-.1c.5 0 .9.2.9 1.3v.6c.4-1.4 1.3-2.1 2.6-2.1.9 0 1.4.4 1.4 1 0 .5-.3.8-.4.7-.3-.3-.7-.4-1.2-.4-1.8 0-2.5 1.9-2.5 4.4v3.9c0 .5-.3.7-.6.7h-.1c-.4 0-.6-.1-.6-.7v-9.3zM413.1 54.4c-.3.5-.9.8-1.6.8-.9 0-1.5-.5-1.5-1.2 0-.5.4-.8.4-.8.3.3.7.5 1.2.5.9 0 1.6-.7 1.6-1.6h.6c.4 0 .6.2.6.7v12.5c0 .4-.2.7-.6.7h-.2c-.4 0-.6-.2-.6-.7V54.4zM417.7 64.5c0-2.9 2.1-4.2 4.2-5.2 1.8-.9 3.6-1.7 3.6-3.4 0-1.6-1.2-2.6-3.1-2.6-2.2 0-3.2 1.3-3.6 2.8 0 .1-1 .1-1-.8 0-1.2 1.6-3.4 4.7-3.4 2.8 0 4.5 1.5 4.5 3.9s-2 3.4-4.1 4.4c-2 1-3.7 1.9-3.7 4v.2h7.4c.4 0 .7.2.7.6v.1c0 .4-.2.6-.7.6h-7.9c-.6 0-.9-.3-.9-.9v-.3zM432.8 55.8s.2-.1.5-.1c.5 0 .9.2.9 1.3v.3c.7-1 1.8-1.7 3.1-1.7 1.6 0 2.8.7 3.3 2.1.7-1.2 1.9-2.1 3.5-2.1 2.5 0 3.9 1.4 3.9 4.2v5.5c0 .5-.3.7-.6.7h-.1c-.4 0-.6-.1-.6-.7v-5.4c0-2-.9-3-2.6-3-1.2 0-2.4.8-3 2v6.4c0 .5-.3.7-.6.7h-.1c-.4 0-.6-.1-.6-.7V60c0-2.1-.9-3.1-2.6-3.1-1.2 0-2.4.8-3 2v6.4c0 .5-.3.7-.6.7h-.1c-.4 0-.6-.1-.6-.7v-9.5zM455.2 55.5c3 0 5.1 2.2 5.1 5.3 0 3-2.2 5.2-5.1 5.2-3 0-5.2-2.2-5.2-5.3 0-3 2.2-5.2 5.2-5.2zm0 9.3c2.1 0 3.8-1.7 3.8-4s-1.6-4.1-3.8-4.1c-2.2 0-3.8 1.7-3.8 4 0 2.4 1.6 4.1 3.8 4.1zM462.5 55.8s.2-.1.5-.1c.5 0 .9.2.9 1.3v.3c.7-1.1 1.8-1.8 3.4-1.8 2.6 0 4 1.8 4 4.4v5.3c0 .5-.3.7-.6.7h-.1c-.4 0-.6-.1-.6-.7V60c0-2-1-3.2-2.7-3.2-1.6 0-2.7.9-3.3 2.1v6.3c0 .5-.3.7-.6.7h-.1c-.4 0-.6-.1-.6-.7v-9.4zM474.4 57h-.9c-.5 0-.7-.2-.7-.5v-.1c0-.4.1-.5.7-.5h.9V54c0-.5.3-.7.6-.7h.1c.4 0 .6.1.6.7v1.7h2.7c.5 0 .7.2.7.5v.1c0 .4-.1.5-.7.5h-2.7v5.7c0 1.5.4 2.2 1.5 2.2.7 0 1.2-.3 1.6-.7 0 0 .5.1.5.7s-.7 1.2-2.1 1.2c-2 0-2.8-1.1-2.8-3.2V57zM481 51.6s.2-.1.5-.1c.5 0 .9.2.9 1.3v4.6c.7-1.1 1.8-1.8 3.4-1.8 2.6 0 4 1.8 4 4.4v5.3c0 .5-.3.7-.6.7h-.2c-.4 0-.6-.1-.6-.7V60c0-2-1-3.2-2.7-3.2-2 0-3.3 1.3-3.3 3.4v5c0 .5-.3.7-.6.7h-.1c-.4 0-.6-.1-.6-.7V51.6zM492.4 63.2c.7.9 1.8 1.6 3.4 1.6 1.7 0 2.6-.7 2.6-1.7 0-1.2-1-1.4-2.9-1.8-1.6-.3-3.5-.8-3.5-2.8 0-1.8 1.5-3 3.8-3 2.4 0 3.7 1.2 3.7 1.9 0 .5-.7.8-.8.7-.6-.9-1.6-1.5-2.9-1.5-1.6 0-2.5.7-2.5 1.7 0 1.1.9 1.4 2.8 1.8 1.6.4 3.7.8 3.7 2.9 0 1.8-1.5 3-3.9 3-2.7 0-4.1-1.3-4.1-2-.1-.6.6-.8.6-.8z"/></g><path fill="#FFF" d="M243.3 368.7h92.9v35h-92.9z"/><g><g fill="#7D7D85"><path d="M252.6 380c0-.4.4-.8.8-.8h8.1c.4 0 .7.2.7.6v.1c0 .4-.2.6-.7.6H254v4.7h6c.4 0 .7.2.7.6v.1c0 .4-.2.6-.7.6h-6v5h7.6c.4 0 .7.2.7.6v.1c0 .4-.2.6-.7.6h-8.3c-.4 0-.8-.4-.8-.8v-12zM267.2 387.8l-3.5-4.5c0-.1.1-.6.7-.6.5 0 .7.3 1 .7l2.6 3.6 2.6-3.5c.4-.5.7-.7 1-.7.5 0 .8.5.7.6l-3.5 4.5 3.5 4.5c0 .1-.1.6-.7.6-.5 0-.7-.3-1-.7l-2.6-3.5-2.6 3.5c-.3.5-.6.7-1 .7-.5 0-.8-.5-.7-.6l3.5-4.6zM280.3 386.8h.2v-.4c0-1.7-1-2.7-2.8-2.7-1.6 0-2.6.8-3.2 1.8 0 0-.8-.1-.8-.8 0-.7 1.4-2.3 4.1-2.3 2.5 0 4.1 1.5 4.1 3.9v6.3s-.2.1-.5.1c-.5 0-.9-.2-.9-1.3v-.4c-.8 1.2-2.1 1.8-3.7 1.8-2.2 0-3.4-1.1-3.4-2.8-.1-2.1 2.3-3.1 6.9-3.2zm-3.4 5.1c2.1 0 3.6-1.3 3.6-3.1v-.9h-.6c-3.4.1-5.2.7-5.2 2.3 0 1 .8 1.7 2.2 1.7zM284.6 382.8s.2-.1.5-.1c.5 0 .9.2.9 1.3v.3c.7-1 1.8-1.7 3.2-1.7 1.6 0 2.8.7 3.3 2.1.7-1.2 1.9-2.1 3.5-2.1 2.5 0 3.9 1.4 3.9 4.2v5.5c0 .5-.3.7-.6.7h-.3c-.4 0-.6-.1-.6-.7v-5.4c0-2-.9-3-2.6-3-1.2 0-2.4.8-3 2v6.4c0 .5-.3.7-.6.7h-.1c-.4 0-.6-.1-.6-.7V387c0-2.1-.9-3.1-2.6-3.1-1.2 0-2.4.8-3 2v6.4c0 .5-.3.7-.6.7h-.1c-.4 0-.6-.1-.6-.7v-9.5zM303.9 396.2c0 .5-.3.7-.6.7h-.1c-.4 0-.6-.1-.6-.7v-13.4s.2-.1.5-.1c.5 0 .9.2.9 1.3v.4c.9-1.2 2.1-1.9 3.7-1.9 2.6 0 4.7 2.1 4.7 5.2 0 3.2-2 5.3-4.8 5.3-1.8 0-3.1-.9-3.6-1.9v5.1zm3.5-4.4c2.1 0 3.5-1.6 3.5-4.1 0-2.4-1.5-4.1-3.5-4.1-1.7 0-3 .9-3.6 2.4v2.4c.1 1.9 1.7 3.4 3.6 3.4zM314.6 378.6s.2-.1.5-.1c.5 0 .9.2.9 1.3v12.4c0 .5-.3.7-.6.7h-.1c-.4 0-.6-.1-.6-.7v-13.6zM323.2 382.5c2.8 0 4.7 2 4.7 5v.1c0 .4-.1.5-.6.5h-7.8c.1 2.1 1.7 3.7 3.8 3.7 2 0 2.8-.8 3.4-1.8 0-.1.8.1.8.8 0 .7-1.5 2.2-4.2 2.2-3 0-5.2-2.1-5.2-5.2.1-3 2.2-5.3 5.1-5.3zm3.2 4.5c-.1-2-1.3-3.3-3.2-3.3-1.9 0-3.3 1.3-3.6 3.3h6.8z"/></g></g></svg>