<svg version="1.1" xmlns="http://www.w3.org/2000/svg" xmlns:xlink="http://www.w3.org/1999/xlink" x="0px" y="0px"
     viewBox="0 0 80 55" enable-background="new 0 0 80 55" xml:space="preserve" preserveAspectRatio="xMinYMin meet">
        <path fill="#FA0E6A" d="M75.1,3H4.9C3.2,3,1.8,4.3,1.8,6V49c0,1.7,1.4,3.1,3.1,3.1h70.1c1.7,0,3.1-1.4,3.1-3.1V6
            C78.2,4.3,76.8,3,75.1,3z"/>
        <path fill="#FFFFFF" d="M49.7,9.4H9.5C8.7,9.4,8,10,8,10.9v32.4c0,0.8,0.7,1.5,1.5,1.5h40.2
            c0.8,0,1.5-0.7,1.5-1.5V10.9C51.2,10,50.5,9.4,49.7,9.4z"/>
        <g>
            <path fill="#FA0E6A" d="M26.9,24.3c-0.5,0.2-1,0.4-1.5,0.4c-1.9,0-3.2-1.3-3.2-3.2c0-2.1,1.4-3,1.7-2.9c0.6,0.4,1.2,0.6,2,0.6
                c1.4,0,2.5-0.9,2.9-2.3h1.7c1.8,0,2.8,1,2.8,3v15.3c0,2-1,3-2.8,3h-0.8c-1.8,0-2.7-1-2.7-3V24.3z"/>
        </g>
        <line fill="none" stroke="#FA0E6A" stroke-miterlimit="10" x1="37.2" y1="27.1" x2="52.9" y2="27.1"/>
        <line fill="none" stroke="#FA0E6A" stroke-miterlimit="10" x1="7.2" y1="27.1" x2="21.2" y2="27.1"/>
        <circle fill="#FFFFFF" cx="64.7" cy="38.4" r="6.9"/>
        <path fill="#FFFFFF" d="M69.6,9.4h-9.8c-0.8,0-1.5,0.7-1.5,1.5v9.2c0,0.8,0.7,1.5,1.5,1.5h9.8
            c0.8,0,1.5-0.7,1.5-1.5v-9.2C71.1,10,70.4,9.4,69.6,9.4z"/>
        <circle fill="none" stroke="#FA0E6A" stroke-miterlimit="10" cx="64.7" cy="38.4" r="4.1"/>
            <line fill="none" stroke="#FA0E6A" stroke-linecap="round" stroke-miterlimit="10" x1="64.7" y1="38.4" x2="64.7" y2="34.3"/>
            <line fill="none" stroke="#FFFFFF" stroke-linecap="round" stroke-miterlimit="10" x1="58.3" y1="27.1" x2="71.1" y2="27.1"/>
</svg>
