<svg version="1.1" xmlns="http://www.w3.org/2000/svg" xmlns:xlink="http://www.w3.org/1999/xlink" x="0px" y="0px"
     viewBox="0 0 80 55" enable-background="new 0 0 80 55" xml:space="preserve" preserveAspectRatio="xMinYMin meet">
        <path fill="#FA0E6A" d="M75.1,3H4.9C3.2,3,1.8,4.3,1.8,6V49c0,1.7,1.4,3.1,3.1,3.1h70.1c1.7,0,3.1-1.4,3.1-3.1V6
            C78.2,4.3,76.8,3,75.1,3z"/>
        <path fill="#FFFFFF" d="M69.6,9.4h-9.8c-0.8,0-1.5,0.7-1.5,1.5v4.5c0,0.8,0.7,1.5,1.5,1.5h9.8
            c0.8,0,1.5-0.7,1.5-1.5v-4.5C71.1,10,70.4,9.4,69.6,9.4z"/>
        <path fill="#FFFFFF" d="M69.6,18.7h-9.8c-0.8,0-1.5,0.7-1.5,1.5v4.5c0,0.8,0.7,1.5,1.5,1.5h9.8
            c0.8,0,1.5-0.7,1.5-1.5v-4.5C71.1,19.3,70.4,18.7,69.6,18.7z"/>
        <path fill="#FFFFFF" d="M69.6,28h-9.8c-0.8,0-1.5,0.7-1.5,1.5V34c0,0.8,0.7,1.5,1.5,1.5h9.8
            c0.8,0,1.5-0.7,1.5-1.5v-4.5C71.1,28.6,70.4,28,69.6,28z"/>
        <path fill="#FFFFFF" d="M69.6,37.3h-9.8c-0.8,0-1.5,0.7-1.5,1.5v4.5c0,0.8,0.7,1.5,1.5,1.5h9.8
            c0.8,0,1.5-0.7,1.5-1.5v-4.5C71.1,37.9,70.4,37.3,69.6,37.3z"/>
        <path fill="#FFFFFF" d="M49.7,9.4H9.5C8.7,9.4,8,10,8,10.9v32.4c0,0.8,0.7,1.5,1.5,1.5h40.1
            c0.8,0,1.5-0.7,1.5-1.5V10.9C51.2,10,50.5,9.4,49.7,9.4z"/>
        <g>
            <path fill="#FA0E6A" d="M20.6,33.5c0-3.6,3.6-5.7,6.3-6.9c2.4-1.1,4.3-1.7,4.3-2.9c0-1.3-0.9-2-2.7-2c-2.1,0-3.4,1.6-3.7,3.2
                c0,0.1-4.1,0.2-4.1-2.8c0-3.1,3-5.4,8.3-5.4c5.5,0,8.4,2.5,8.4,6.7c0,4-2.7,5.2-5.7,6.3c-2.5,1-4.4,1.7-5.1,3h7.9
                c2.2,0,3,0.8,3,2.3v0.3c0,1.6-0.8,2.5-3,2.5H24.4c-3,0-3.8-0.4-3.8-3.1V33.5z"/>
        </g>
        <line fill="none" stroke="#FA0E6A" stroke-miterlimit="10" x1="40.4" y1="27.1" x2="52.9" y2="27.1"/>
        <line fill="none" stroke="#FA0E6A" stroke-miterlimit="10" x1="7.2" y1="27.1" x2="18.9" y2="27.1"/>
</svg>
