<svg xmlns="http://www.w3.org/2000/svg" viewBox="0 0 80 55"><path fill="#FA0E6A" d="M75.1 3H4.9C3.2 3 1.8 4.3 1.8 6v43c0 1.7 1.4 3.1 3.1 3.1H75c1.7 0 3.1-1.4 3.1-3.1V6c.1-1.7-1.3-3-3-3z"/><path fill="#FFF" d="M49.7 9.4H9.5c-.8 0-1.5.6-1.5 1.5v32.4c0 .8.7 1.5 1.5 1.5h40.2c.8 0 1.5-.7 1.5-1.5V10.9c0-.9-.7-1.5-1.5-1.5z"/><path fill="#FA0E6A" d="M26.9 24.3c-.5.2-1 .4-1.5.4-1.9 0-3.2-1.3-3.2-3.2 0-2.1 1.4-3 1.7-2.9.6.4 1.2.6 2 .6 1.4 0 2.5-.9 2.9-2.3h1.7c1.8 0 2.8 1 2.8 3v15.3c0 2-1 3-2.8 3h-.8c-1.8 0-2.7-1-2.7-3V24.3z"/><path fill="none" stroke="#FA0E6A" stroke-miterlimit="10" d="M37.2 27.1h15.7M7.2 27.1h14"/><circle fill="#FFF" cx="64.7" cy="38.4" r="6.9"/><path fill="#FFF" d="M69.6 9.4h-9.8c-.8 0-1.5.7-1.5 1.5v9.2c0 .8.7 1.5 1.5 1.5h9.8c.8 0 1.5-.7 1.5-1.5v-9.2c0-.9-.7-1.5-1.5-1.5z"/><circle fill="none" stroke="#FA0E6A" stroke-miterlimit="10" cx="64.7" cy="38.4" r="4.1"/><path fill="none" stroke="#FA0E6A" stroke-linecap="round" stroke-miterlimit="10" d="M64.7 38.4v-4.1"/><path fill="none" stroke="#FFF" stroke-linecap="round" stroke-miterlimit="10" d="M58.3 27.1h12.8"/></svg>