<svg class="price-o-nator-logo" version="1.1" xmlns="http://www.w3.org/2000/svg" xmlns:xlink="http://www.w3.org/1999/xlink" x="0px" y="0px" viewBox="0 0 230 185" enable-background="new 0 0 230 185" xml:space="preserve">
<g id="XMLID_103364_">
    <path id="XMLID_103417_" fill-rule="evenodd" clip-rule="evenodd" fill="#0E91CF" d="M210.2,8.8H19.8c-3.7,0-6.7,3-6.7,6.7v154
        c0,3.7,3,6.7,6.7,6.7h190.5c3.7,0,6.7-3,6.7-6.7v-154C216.9,11.8,213.9,8.8,210.2,8.8z"/>
    <path id="XMLID_103416_" fill="#FFFFFF" d="M206.2,17.3H23.5c-1.6,0-2.9,1.3-2.9,2.9v3.6v65.1v29.2c0,2.1,1.7,3.7,3.7,3.7h181.3
        c2.1,0,3.7-1.7,3.7-3.7V88.9V24.1v-3.6C209.4,18.8,207.9,17.3,206.2,17.3z"/>
    <g id="XMLID_103403_">
        <path id="XMLID_103413_" fill="#FA0E6A" d="M40.6,30.4c8.8,0,12.3,3.7,12.3,11.8s-3.6,11.8-12.3,11.8h-2.4c-0.9,0-1.5,0.5-1.5,1.5
            v7.9c0,1-0.5,1.5-1.5,1.5h-5.5c-0.9,0-1.5-0.5-1.5-1.5V31.9c0-1,0.5-1.5,1.5-1.5H40.6z M40.9,45.6c2.4,0,3.6-0.3,3.6-3.4
            c0-3.1-1.2-3.4-3.6-3.4h-2.7c-0.9,0-1.5,0.5-1.5,1.5v3.7c0,0.9,0.5,1.5,1.5,1.5H40.9z"/>
        <path id="XMLID_103410_" fill="#FA0E6A" d="M82,62.3c0.7,1.3-0.1,2.7-1.6,2.7h-5.6c-0.5,0-0.9-0.2-1.1-0.7l-5.1-9.9
            c-0.1-0.1-0.2-0.2-0.4-0.2h-2c-0.9,0-1.5,0.6-1.5,1.5v7.8c0,0.9-0.6,1.5-1.5,1.5h-5.5c-0.9,0-1.5-0.6-1.5-1.5V31.9
            c0-0.9,0.6-1.5,1.5-1.5h10.8c8.8,0,12.3,3.7,12.3,11.8c0,4.6-1.1,7.8-3.7,9.7c-0.2,0.1-0.2,0.4-0.1,0.6L82,62.3z M66.1,38.9
            c-0.9,0-1.5,0.6-1.5,1.5v3.7c0,0.9,0.6,1.5,1.5,1.5h2.5c2.4,0,3.6-0.3,3.6-3.4c0-3.1-1.2-3.4-3.6-3.4H66.1z"/>
        <path id="XMLID_103408_" fill="#FA0E6A" d="M92.1,30.4c1,0,1.5,0.5,1.5,1.5v31.6c0,0.9-0.5,1.5-1.5,1.5h-5.4
            c-0.9,0-1.5-0.5-1.5-1.5V31.9c0-1,0.5-1.5,1.5-1.5H92.1z"/>
        <path id="XMLID_103406_" fill="#FA0E6A" d="M98,41.5c0-3.3,0.7-12,12.4-12c10.5,0,12.1,7.1,12.3,10.8c0,0.7-0.4,1.2-1.1,1.4
            l-5.5,1.2c-1,0.2-1.8-0.5-2-1.5c-0.2-2.2-1.1-3.5-3.8-3.5c-3.6,0-3.9,2.3-3.9,6.1v7.1c0,3.8,0.2,6.1,3.9,6.1
            c2.7,0,3.5-1.3,3.7-3.6c0.1-1,0.9-1.7,1.9-1.4l5.6,1.2c0.7,0.1,1.1,0.7,1.1,1.4c-0.2,3.7-1.8,10.8-12.3,10.8
            c-11.7,0-12.4-8.7-12.4-12V41.5z"/>
        <path id="XMLID_103404_" fill="#FA0E6A" d="M148.3,30.4c1,0,1.5,0.5,1.5,1.5v5.5c0,0.9-0.5,1.5-1.5,1.5h-11.9
            c-0.9,0-1.5,0.5-1.5,1.5v1.6c0,0.9,0.5,1.5,1.5,1.5h7.6c1,0,1.5,0.5,1.5,1.5v5.5c0,0.9-0.5,1.5-1.5,1.5h-7.6
            c-0.9,0-1.5,0.5-1.5,1.5V55c0,0.9,0.5,1.5,1.5,1.5h11.9c1,0,1.5,0.5,1.5,1.5v5.5c0,1-0.5,1.5-1.5,1.5h-20.7
            c-0.9,0-1.5-0.5-1.5-1.5V31.9c0-1,0.5-1.5,1.5-1.5H148.3z"/>
    </g>
    <g id="XMLID_103385_">
        <path id="XMLID_103402_" fill="#FA0E6A" d="M63.4,88.1h-7.9c-0.9,0-1.4,0.5-1.4,1.4v3v0.3v1.9c0,0.9,0.5,1.4,1.4,1.4h7.9
            c0.9,0,1.4-0.5,1.4-1.4v-1.9v-0.3v-3C64.8,88.6,64.3,88.1,63.4,88.1z"/>
        <path id="XMLID_103399_" fill="#FA0E6A" d="M51.8,98c0,3.1-0.7,11.4-11.8,11.4S28.3,101.1,28.3,98V86.3c0-3.1,0.7-11.4,11.8-11.4
            s11.8,8.3,11.8,11.4V98z M43.7,88.8c0-3.6-0.2-5.8-3.7-5.8c-3.5,0-3.7,2.2-3.7,5.8v6.7c0,3.6,0.2,5.8,3.7,5.8
            c3.5,0,3.7-2.2,3.7-5.8V88.8z"/>
        <path id="XMLID_103397_" fill="#FA0E6A" d="M75.5,75.8c0.8,0,1.3,0.3,1.6,1.1l6.4,15.6c0.2,0.4,0.6,0.3,0.6-0.1V77.2
            c0-0.9,0.5-1.4,1.4-1.4h5.2c0.9,0,1.4,0.5,1.4,1.4v30c0,0.9-0.5,1.4-1.4,1.4h-6.9c-0.8,0-1.3-0.3-1.6-1.1l-6.4-15.6
            c-0.2-0.4-0.6-0.3-0.6,0.1v15.1c0,0.9-0.5,1.4-1.4,1.4h-5.2c-0.9,0-1.4-0.5-1.4-1.4v-30c0-0.9,0.5-1.4,1.4-1.4H75.5z"/>
        <path id="XMLID_103394_" fill="#FA0E6A" d="M119.5,107c0,1-0.5,1.6-1.4,1.6h-5.2c-0.9,0-1.4-0.5-1.4-1.4v-4.1
            c0-0.9-0.5-1.4-1.4-1.4h-4c-0.9,0-1.4,0.5-1.4,1.4v4.1c0,0.9-0.5,1.4-1.4,1.4h-5.2c-0.9,0-1.4-0.6-1.4-1.6V87.1
            c0-5.9,0.9-12.2,11.5-12.2c10.5,0,11.5,6.3,11.5,12.2V107z M111.4,87.1c0-2.2-0.3-3.4-3.4-3.4c-3.1,0-3.4,1.1-3.4,3.4v5.1
            c0,0.9,0.5,1.4,1.4,1.4h4c0.9,0,1.4-0.5,1.4-1.5V87.1z"/>
        <path id="XMLID_103392_" fill="#FA0E6A" d="M130.5,85.2c0-0.9-0.5-1.4-1.4-1.4h-6.6c-0.9,0-1.4-0.5-1.4-1.4v-5.2
            c0-0.9,0.5-1.4,1.4-1.4h24c0.9,0,1.4,0.5,1.4,1.4v5.2c0,0.9-0.5,1.4-1.4,1.4H140c-0.9,0-1.4,0.5-1.4,1.4v21.9
            c0,0.9-0.5,1.4-1.4,1.4h-5.2c-0.9,0-1.4-0.5-1.4-1.4V85.2z"/>
        <path id="XMLID_103389_" fill="#FA0E6A" d="M173.3,98c0,3.1-0.7,11.4-11.8,11.4c-11.1,0-11.8-8.3-11.8-11.4V86.3
            c0-3.1,0.7-11.4,11.8-11.4c11.1,0,11.8,8.3,11.8,11.4V98z M165.3,88.8c0-3.6-0.2-5.8-3.7-5.8c-3.5,0-3.7,2.2-3.7,5.8v6.7
            c0,3.6,0.2,5.8,3.7,5.8c3.5,0,3.7-2.2,3.7-5.8V88.8z"/>
        <path id="XMLID_103386_" fill="#FA0E6A" d="M202.2,106c0.7,1.2-0.1,2.5-1.5,2.5h-5.3c-0.5,0-0.9-0.2-1.1-0.7l-4.9-9.4
            c-0.1-0.1-0.2-0.2-0.4-0.2h-1.9c-0.8,0-1.5,0.6-1.5,1.5v7.4c0,0.8-0.6,1.5-1.5,1.5H179c-0.8,0-1.5-0.6-1.5-1.5V77.2
            c0-0.8,0.6-1.5,1.5-1.5h10.3c8.3,0,11.7,3.6,11.7,11.2c0,4.4-1.1,7.4-3.6,9.2c-0.2,0.1-0.2,0.4-0.1,0.6L202.2,106z M187.1,83.8
            c-0.8,0-1.5,0.6-1.5,1.5v3.5c0,0.8,0.6,1.5,1.5,1.5h2.4c2.2,0,3.4-0.3,3.4-3.2s-1.1-3.2-3.4-3.2H187.1z"/>
    </g>
    <path id="XMLID_103384_" fill-rule="evenodd" clip-rule="evenodd" fill="#0E91CF" d="M226.9,164.9l-10-38h-2.3h-5.2H20.6h-3h-4.5
        l-10,38c-1.5,5.7,2.8,11.2,8.7,11.2h5.9h3h188.7h5.2h3.7C224.1,176.2,228.4,170.6,226.9,164.9z"/>
    <path id="XMLID_103383_" fill="#AFDFFA" d="M218.1,163.4l-7.9-29.9c-0.4-1.6-1.9-2.7-3.5-2.7h-0.6h0H23.5h0h-0.9
        c-1.6,0-3.1,1.1-3.5,2.7l-7.9,29.9c-0.7,2.5,1.2,5,3.9,5h17.1l0,0h165l0,0h17.1C216.9,168.4,218.8,166,218.1,163.4z"/>
    <path id="XMLID_103382_" fill="#0E91CF" d="M193,47l-0.1,0.1c-1.7,4.9-4,8-5.8,8c-1.9,0-4.2-3.1-5.8-8l0-0.1
        c-2.3-6.9-5.7-10.7-9.5-10.7c-3.8,0-7.2,3.8-9.5,10.6l-0.1,0.2c-1.5,4.4-3.5,7.4-5.3,7.9V59c3.6-0.4,6.7-4.1,8.9-10.5l0.1-0.2
        c1.7-4.9,4-8,5.8-8c1.9,0,4.2,3.1,5.8,8l0,0.1c2.3,6.9,5.7,10.7,9.5,10.7c3.8,0,7.2-3.8,9.5-10.6l0.1-0.1c1.4-4,3.1-6.8,4.8-7.7
        v-4.1C198,37.2,195.1,40.9,193,47z"/>
    <path id="XMLID_103378_" fill="#FA0E6A" d="M200.7,30.6h-42.5c-1,0-1.8,0.8-1.8,1.8v31.1c0,1,0.8,1.8,1.8,1.8h42.5
        c1,0,1.8-0.8,1.8-1.8V32.4C202.5,31.4,201.7,30.6,200.7,30.6z M158.1,32.2h42.5c0.1,0,0.2,0.1,0.2,0.2v14.7H158V32.4
        C158,32.3,158,32.2,158.1,32.2z M200.7,63.7h-42.5c-0.1,0-0.2-0.1-0.2-0.2V48.7h42.9v14.8C200.8,63.6,200.7,63.7,200.7,63.7z"/>
    <g id="XMLID_103372_">
        <circle id="XMLID_103377_" fill="#FA0E6A" cx="190.4" cy="149.7" r="9.1"/>
        <path id="XMLID_103376_" fill="#FA0E6A" d="M127.8,143.5H28.2c-0.6,0-1.1,0.5-1.1,1.1v11.2c0,0.6,0.5,1.1,1.1,1.1h99.6
            c0.6,0,1.1-0.5,1.1-1.1v-11.2C129,144.1,128.5,143.5,127.8,143.5z"/>
        <g id="XMLID_103373_">
            <path id="XMLID_103375_" fill="#FA0E6A" d="M170.2,136.1h-6.8h-0.2h0h-6.7h0h-6.1h-6.8c-0.7,0-1.2,0.6-1.2,1.3v2.2v5.1v0.1v0.2
                v1.7c0,0.7,0.5,1.3,1.2,1.3h6.8h6.1h0h6.7h0h0.2h6.8c0.7,0,1.2-0.6,1.2-1.3V145v-0.2v-0.1v-5.1v-2.2
                C171.4,136.7,170.9,136.1,170.2,136.1z"/>
            <path id="XMLID_103374_" fill="#FA0E6A" d="M170.2,151.5h-6.8h-0.2h0h-6.7h0h-6.1h-6.8c-0.7,0-1.2,0.6-1.2,1.3v1.7v0.2v0.1v5.1
                v2.2c0,0.7,0.5,1.3,1.2,1.3h6.8h6.1h0h6.7h0h0.2h6.8c0.7,0,1.2-0.6,1.2-1.3v-2.2v-5.1v-0.1v-0.2v-1.7
                C171.4,152.1,170.9,151.5,170.2,151.5z"/>
        </g>
    </g>
    <polygon id="XMLID_103371_" fill="#FFFFFF" points="159.6,155.2 156.9,159.9 154.2,155.2  "/>
    <polygon id="XMLID_103370_" fill="#FFFFFF" points="154.2,144 156.9,139.3 159.6,144  "/>
    <path id="XMLID_103369_" fill="#FFFFFF" d="M121.8,151.6h-88c-0.7,0-1.3-0.6-1.3-1.3c0-0.7,0.6-1.3,1.3-1.3h88
        c0.7,0,1.3,0.6,1.3,1.3C123.1,151,122.5,151.6,121.8,151.6z"/>
    <path id="XMLID_103366_" fill="#FFFFFF" d="M190.2,155.6c-3.3,0-5.9-2.7-5.9-5.9c0-3.3,2.7-5.9,5.9-5.9c3.3,0,5.9,2.7,5.9,5.9
        C196.1,152.9,193.5,155.6,190.2,155.6z M190.2,145c-2.6,0-4.7,2.1-4.7,4.7c0,2.6,2.1,4.7,4.7,4.7c2.6,0,4.7-2.1,4.7-4.7
        C194.9,147.1,192.8,145,190.2,145z"/>
    <path id="XMLID_103365_" fill="#FFFFFF" d="M190.2,150.3c-0.3,0-0.6-0.3-0.6-0.6v-5.3c0-0.3,0.3-0.6,0.6-0.6s0.6,0.3,0.6,0.6v5.3
        C190.8,150,190.5,150.3,190.2,150.3z"/>
</g>
</svg>
