<?xml version="1.0" encoding="utf-8"?>
<!-- Generator: Adobe Illustrator 18.1.0, SVG Export Plug-In . SVG Version: 6.00 Build 0)  -->
<!DOCTYPE svg PUBLIC "-//W3C//DTD SVG 1.1//EN" "http://www.w3.org/Graphics/SVG/1.1/DTD/svg11.dtd">
<svg version="1.1" id="Layer_1" xmlns="http://www.w3.org/2000/svg" xmlns:xlink="http://www.w3.org/1999/xlink" x="0px" y="0px"
	 viewBox="0 0 26 16" enable-background="new 0 0 26 16" xml:space="preserve">
<g>
	<path fill="#989898" d="M13.6,5.7L7.5,0.5c-0.3-0.2-0.6-0.2-0.9,0L0.5,5.5C0.3,5.6,0,5.8,0,6v9.1C0,15.5,0.7,16,1.1,16h1.4
		C3,16,3,15.5,3,15.1V8c0-0.4,0.6,0,1,0h2.9C7.3,8,8,7.6,8,8v7.1C8,15.5,7.9,16,8.3,16h9.1c0.4,0,0.6-0.5,0.6-0.9V9.2
		c0-0.2,0-0.4-0.2-0.5l-2.7-2.6C15,6,14.9,6,14.7,6h-0.6C13.9,6,13.8,5.8,13.6,5.7z M12,13.3c0,0.4-0.3,0.7-0.7,0.7h-0.6
		c-0.4,0-0.7-0.3-0.7-0.7v-1.6c0-0.4,0.3-0.7,0.7-0.7h0.6c0.4,0,0.7,0.3,0.7,0.7V13.3z M12,10.3c0,0.4-0.3,0.7-0.7,0.7h-0.6
		c-0.4,0-0.7-0.3-0.7-0.7V8.7C10,8.3,10.3,8,10.7,8h0.6C11.7,8,12,8.3,12,8.7V10.3z M15,13.3c0,0.4-0.3,0.7-0.7,0.7h-0.6
		c-0.4,0-0.7-0.3-0.7-0.7v-1.6c0-0.4,0.3-0.7,0.7-0.7h0.6c0.4,0,0.7,0.3,0.7,0.7V13.3z M15,10.3c0,0.4-0.3,0.7-0.7,0.7h-0.6
		c-0.4,0-0.7-0.3-0.7-0.7V8.7C13,8.3,13.3,8,13.7,8h0.6C14.7,8,15,8.3,15,8.7V10.3z M25.3,4.6c-0.1,1-0.8,1.5-1.2,1.7
		c-0.2,0.1-0.3,0.3-0.4,0.5c-0.1,0.5-0.6,1.5-2.1,1.7C20.2,8.7,19,8.2,18.7,8c-0.1,0-0.1-0.1-0.2-0.1l-2.7-2.2
		C15.7,5.6,15.5,6,15.3,6h-0.7c-0.1,0-0.2-0.5-0.3-0.6c-0.3-0.1-0.7-0.7-0.4-1.5c0.2-0.8,0.7-1.1,1.1-1.1c0.3,0,0.6-0.3,0.7-0.7
		c0.1-0.8,0.6-2,2.5-2.2C19.3-0.1,20,0.5,20.5,1c0.2,0.3,0.6,0.3,0.9,0.1c0.4-0.2,0.9-0.4,1.5-0.1c0.7,0.3,0.8,0.9,0.8,1.3
		c0,0.3,0.2,0.5,0.4,0.6C24.7,3.1,25.4,3.6,25.3,4.6z M2.1,2.9L1.6,3.3C1.1,3.7,0.4,3.4,0.4,2.8V2.3c0-0.4,0.3-0.7,0.7-0.7h0.6
		C2.3,1.6,2.6,2.5,2.1,2.9z"/>
	<path fill="#989898" d="M20,15.8L20,15.8c-0.4,0-0.7-0.3-0.7-0.7V8.6c0-0.4,0.3-0.7,0.7-0.7h0c0.4,0,0.7,0.3,0.7,0.7v6.6
		C20.7,15.5,20.4,15.8,20,15.8z"/>
</g>
</svg>
