<svg version="1.1" id="Layer_1" xmlns="http://www.w3.org/2000/svg" xmlns:xlink="http://www.w3.org/1999/xlink" x="0px" y="0px"
	 viewBox="0 0 626.3 63.6" enable-background="new 0 0 626.3 63.6" xml:space="preserve">
<g>
	<path fill="#FA0E6A" d="M26.6,42c0,3.4-1.7,5.4-5.1,5.4h-1.7c-3.1,0-4.9-1.9-4.9-5.4V16.1c0-4.2,2.1-6.5,6-6.5h9.9
		c10.7,0,16.6,4.6,16.6,13.6c0,8.9-5.6,13.4-16.2,13.4h-4.5V42z M30.6,28.1c3.5,0,5.4-1.7,5.4-4.8c0-3.2-1.9-4.9-5.6-4.9h-4.1v9.7
		H30.6z"/>
	<path fill="#FA0E6A" d="M49.1,32.8c0-9,6.3-15,15.8-15c9.4,0,15.6,6,15.6,15.1C80.6,42,74.3,48,64.8,48C55.2,48,49.1,42,49.1,32.8z
		 M71.1,32.9c0-3.9-2.6-6.6-6.3-6.6c-3.7,0-6.3,2.7-6.3,6.6c0,3.9,2.6,6.6,6.3,6.6C68.5,39.4,71.1,36.6,71.1,32.9z"/>
	<path fill="#FA0E6A" d="M90.2,44.5l-7.8-23.3c-0.2-0.6,3.7-3.2,6.8-3.2c2.1,0,4.5,0.9,5,4.2l2.4,13.7l3.7-12.1
		c0.6-2.3,2.8-3.5,5.5-3.5c2.6,0,4.7,1.2,5.3,3.5l3.2,11.5l2.4-13.1c0.6-3.2,2.8-4.2,4.8-4.2c3.2,0,6.9,2.6,6.7,3.2l-7.6,23.3
		c-0.7,2.6-3.5,3-5.5,3c-3.5,0-5.2-0.6-6.1-3.7l-3.7-11.2l-3.5,11.2c-0.9,3.1-2.7,3.7-6.1,3.7C93.8,47.5,91.1,47,90.2,44.5z"/>
	<path fill="#FA0E6A" d="M146.6,40.2c3.4,0,5.9-1.7,7-3.7c0-0.1,5.1,0.4,5.1,4.6c0,3.8-4.5,6.7-12.6,6.7c-9.9,0-16-5.6-16-14.8
		c0-8.8,6.4-15.3,15.3-15.3c8.8,0,15,6,15,14.3v0.7c-0.1,1.7-0.6,2.9-2.3,2.9h-18.2C140.6,38.7,143,40.2,146.6,40.2z M150.3,30
		c-0.1-3-2-4.9-5-4.9c-2.9,0-5.2,2.1-5.5,4.9H150.3z"/>
	<path fill="#FA0E6A" d="M181.6,17.8c3.7,0,6.1,2.4,6.1,6c0,4.5-3.5,6-3.7,5.9c-0.9-0.8-2.4-1.5-4-1.5c-3.3,0-4.9,2.4-4.9,7.1V42
		c0,4.1-2.1,5.4-4.9,5.4H169c-3,0-5-1.3-5-5.4V19.4c0-0.4,2-1.3,4.3-1.3c2.6,0,5.4,1.1,6.4,5.1C175.8,19.9,178.2,17.8,181.6,17.8z"
		/>
	<path fill="#FA0E6A" d="M189.3,41.2c0-2.4,2.6-4.5,2.8-4.3c2,1.9,5.3,3.4,9.2,3.4c2.3,0,3.5-0.3,3.5-1.5c0-1.4-1.9-1.5-4.6-2.1
		c-3.6-0.8-10.2-2.1-10.2-9.2c0-5.9,5-9.7,12.7-9.7c8.3,0,12.3,2.5,12.3,6.6c0,2.6-2.8,4.6-3.1,4.5c-2.1-2.1-5.3-3.5-8.4-3.5
		c-2.1,0-3.4,0.3-3.4,1.6c0,1.3,2,1.3,5,2c3.7,0.8,10.6,2.3,10.6,9.1c0,6.1-5,9.7-13.5,9.7C193.2,47.7,189.3,45.3,189.3,41.2z"/>
	<path fill="#FA0E6A" d="M239.7,17.8c7.5,0,10.2,5.6,10.2,11.8V42c0,4-2,5.4-4.9,5.4h-1.1c-3,0-5.1-1.3-5.1-5.4V31.4
		c0-2.8-1.4-4.5-3.7-4.5c-2.8,0-4.4,1.7-4.4,4.7V42c0,4.1-2.1,5.4-4.9,5.4h-1.2c-3,0-5-1.3-5-5.4V7.6c0-0.4,2-1.3,4.3-1.3
		c3.2,0,6.8,1.7,6.8,8.5V23C232.5,20,235.3,17.8,239.7,17.8z"/>
	<path fill="#FA0E6A" d="M253.5,32.8c0-9,6.3-15,15.8-15c9.4,0,15.6,6,15.6,15.1c0,9.2-6.3,15.1-15.8,15.1
		C259.6,48,253.5,42,253.5,32.8z M275.5,32.9c0-3.9-2.6-6.6-6.3-6.6c-3.7,0-6.3,2.7-6.3,6.6c0,3.9,2.6,6.6,6.3,6.6
		C272.8,39.4,275.5,36.6,275.5,32.9z"/>
	<path fill="#FA0E6A" d="M299.9,53c0,4-2.1,5.3-4.9,5.3h-1.2c-3,0-5-1.2-5-5.3V19.4c0-0.4,2-1.3,4.3-1.3c2.6,0,5.5,1.1,6.4,5.2
		c1.3-3.3,4.6-5.5,8.8-5.5c7.9,0,13.2,5.7,13.2,15c0,8.9-5.2,15.1-13.2,15.1c-3.9,0-7-2.1-8.4-5C299.9,42.9,299.9,53,299.9,53z
		 M299.8,34.2c0,3.2,2.3,5.1,5.3,5.1c3.4,0,5.7-2.6,5.7-6.4c0-3.9-2.2-6.4-5.6-6.4c-2.6,0-4.5,1.3-5.4,3.4V34.2z"/>
	<path fill="#FA0E6A" d="M340.9,44.5l-7.8-23.3c-0.2-0.6,3.7-3.2,6.8-3.2c2.1,0,4.5,0.9,5,4.2l2.4,13.7l3.7-12.1
		c0.6-2.3,2.8-3.5,5.5-3.5c2.6,0,4.7,1.2,5.3,3.5l3.2,11.5l2.4-13.1c0.6-3.2,2.8-4.2,4.8-4.2c3.2,0,6.9,2.6,6.7,3.2l-7.6,23.3
		c-0.7,2.6-3.5,3-5.5,3c-3.5,0-5.2-0.6-6.1-3.7L356,32.6l-3.5,11.2c-0.9,3.1-2.7,3.7-6.1,3.7C344.5,47.5,341.8,47,340.9,44.5z"/>
	<path fill="#FA0E6A" d="M394.9,25.7c-3.6,0-5,2.1-5.8,3.8c-0.1,0.2-7.4,0.6-7.4-4.3c0-4.5,4.3-7.4,13.8-7.4
		c10.3,0,14.8,4,14.8,12.2v16.4c0,0.6-2.1,1.3-4.3,1.3c-3.2,0-5.4-1.6-6.3-4.7c-1.9,3-5.4,4.8-9.6,4.8c-5.8,0-9.6-3.5-9.6-8.5
		c0-6.6,5.4-9.7,17.6-9.7h1.2C399.2,27,397.7,25.7,394.9,25.7z M399.5,36v-1h-1.4c-4.5,0.1-6.8,1-6.8,3.2c0,1.7,1.3,2.7,3.4,2.7
		C397.6,40.9,399.5,38.9,399.5,36z"/>
	<path fill="#FA0E6A" d="M435.4,17.8c7.5,0,10.2,5.4,10.2,11.4V42c0,4-2,5.4-4.9,5.4h-1.1c-3,0-5.1-1.3-5.1-5.4v-11
		c0-2.6-1.4-4.2-3.7-4.2c-2,0-3.5,1-4.3,2.3V42c0,4.1-2.1,5.4-4.9,5.4h-1.2c-3,0-5-1.3-5-5.4V19.4c0-0.4,2-1.3,4.3-1.3
		c2.6,0,5.3,1.1,6.4,5C428,20,430.8,17.8,435.4,17.8z"/>
	<path fill="#FA0E6A" d="M452.9,26.8c-3,0-4.5-1.3-4.5-3.8v-0.6c0-2.6,1.5-4,4.5-4h0.6v-2.8c0-3.5,1.8-5.4,5-5.4h0.9
		c3,0,5,1.3,5,5.4v2.8h3.3c3,0,4.3,1.3,4.3,3.8v0.6c0,2.6-1.5,4-4.5,4h-3.4v9.6c0,1.9,0.8,2.9,2.4,2.9c1.5,0,2.4-0.8,3.2-1.7
		c0.2-0.3,2.4,1.3,2.4,4.1c0,3.7-3.4,6.3-8.6,6.3c-6.8,0-10.1-3.5-10.1-10.3V26.8H452.9z"/>
	<path fill="#FA0E6A" d="M474.1,41.2c0-2.4,2.6-4.5,2.8-4.3c2,1.9,5.3,3.4,9.2,3.4c2.3,0,3.5-0.3,3.5-1.5c0-1.4-1.9-1.5-4.6-2.1
		c-3.6-0.8-10.2-2.1-10.2-9.2c0-5.9,5-9.7,12.7-9.7c8.3,0,12.3,2.5,12.3,6.6c0,2.6-2.8,4.6-3.1,4.5c-2.1-2.1-5.3-3.5-8.4-3.5
		c-2.1,0-3.4,0.3-3.4,1.6c0,1.3,2,1.3,5,2c3.7,0.8,10.6,2.3,10.6,9.1c0,6.1-5,9.7-13.5,9.7C478.1,47.7,474.1,45.3,474.1,41.2z"/>
	<path fill="#FA0E6A" d="M519.9,55l4.7-9.9c-1.3-0.3-2.3-0.9-2.8-2.1l-9.6-21.7c-0.2-0.6,3-3.2,6.3-3.2c2.3,0,4.6,1.2,5.8,5.1
		l4.3,12.5l4.1-12.5c1.2-3.9,3.5-5.1,5.7-5.1c3.2,0,6.3,2.6,6.1,3.2l-12.6,31.9c-1.4,3.7-3.5,4.9-5.9,4.9
		C522.6,58,519.6,55.6,519.9,55z"/>
	<path fill="#FA0E6A" d="M546.1,32.8c0-9,6.3-15,15.8-15c9.4,0,15.6,6,15.6,15.1c0,9.2-6.3,15.1-15.8,15.1
		C552.2,48,546.1,42,546.1,32.8z M568.1,32.9c0-3.9-2.6-6.6-6.3-6.6s-6.3,2.7-6.3,6.6c0,3.9,2.6,6.6,6.3,6.6
		C565.4,39.4,568.1,36.6,568.1,32.9z"/>
	<path fill="#FA0E6A" d="M591.3,48c-7.5,0-10.2-5.5-10.2-11.4V23.5c0-4.1,2-5.4,4.9-5.4h1.1c3,0,5.1,1.2,5.1,5.4v11.1
		c0,2.6,1.4,4.2,3.8,4.2c1.9,0,3.4-0.9,4.3-2.3V23.5c0-4.1,2-5.4,4.9-5.4h1.2c3,0,5,1.2,5,5.4v22.7c0,0.3-2,1.3-4.3,1.3
		c-2.5,0-5.3-1-6.4-4.9C598.7,45.6,595.9,48,591.3,48z"/>
</g>
</svg>
