<svg class="powershop-want-you" xmlns="http://www.w3.org/2000/svg" viewBox="0 0 626.3 63.6" enable-background="new 0 0 626.3 63.6"><path d="M26.6 42c0 3.4-1.7 5.4-5.1 5.4h-1.7c-3.1 0-4.9-1.9-4.9-5.4v-25.9c0-4.2 2.1-6.5 6-6.5h9.9c10.7 0 16.6 4.6 16.6 13.6 0 8.9-5.6 13.4-16.2 13.4h-4.5v5.4zm4-13.9c3.5 0 5.4-1.7 5.4-4.8 0-3.2-1.9-4.9-5.6-4.9h-4.1v9.7h4.3zM49.1 32.8c0-9 6.3-15 15.8-15 9.4 0 15.6 6 15.6 15.1.1 9.1-6.2 15.1-15.7 15.1-9.6 0-15.7-6-15.7-15.2zm22 .1c0-3.9-2.6-6.6-6.3-6.6-3.7 0-6.3 2.7-6.3 6.6 0 3.9 2.6 6.6 6.3 6.6 3.7-.1 6.3-2.9 6.3-6.6zM90.2 44.5l-7.8-23.3c-.2-.6 3.7-3.2 6.8-3.2 2.1 0 4.5.9 5 4.2l2.4 13.7 3.7-12.1c.6-2.3 2.8-3.5 5.5-3.5 2.6 0 4.7 1.2 5.3 3.5l3.2 11.5 2.4-13.1c.6-3.2 2.8-4.2 4.8-4.2 3.2 0 6.9 2.6 6.7 3.2l-7.6 23.3c-.7 2.6-3.5 3-5.5 3-3.5 0-5.2-.6-6.1-3.7l-3.7-11.2-3.5 11.2c-.9 3.1-2.7 3.7-6.1 3.7-1.9 0-4.6-.5-5.5-3zM146.6 40.2c3.4 0 5.9-1.7 7-3.7 0-.1 5.1.4 5.1 4.6 0 3.8-4.5 6.7-12.6 6.7-9.9 0-16-5.6-16-14.8 0-8.8 6.4-15.3 15.3-15.3 8.8 0 15 6 15 14.3v.7c-.1 1.7-.6 2.9-2.3 2.9h-18.2c.7 3.1 3.1 4.6 6.7 4.6zm3.7-10.2c-.1-3-2-4.9-5-4.9-2.9 0-5.2 2.1-5.5 4.9h10.5zM181.6 17.8c3.7 0 6.1 2.4 6.1 6 0 4.5-3.5 6-3.7 5.9-.9-.8-2.4-1.5-4-1.5-3.3 0-4.9 2.4-4.9 7.1v6.7c0 4.1-2.1 5.4-4.9 5.4h-1.2c-3 0-5-1.3-5-5.4v-22.6c0-.4 2-1.3 4.3-1.3 2.6 0 5.4 1.1 6.4 5.1 1.1-3.3 3.5-5.4 6.9-5.4zM189.3 41.2c0-2.4 2.6-4.5 2.8-4.3 2 1.9 5.3 3.4 9.2 3.4 2.3 0 3.5-.3 3.5-1.5 0-1.4-1.9-1.5-4.6-2.1-3.6-.8-10.2-2.1-10.2-9.2 0-5.9 5-9.7 12.7-9.7 8.3 0 12.3 2.5 12.3 6.6 0 2.6-2.8 4.6-3.1 4.5-2.1-2.1-5.3-3.5-8.4-3.5-2.1 0-3.4.3-3.4 1.6s2 1.3 5 2c3.7.8 10.6 2.3 10.6 9.1 0 6.1-5 9.7-13.5 9.7-9-.1-12.9-2.5-12.9-6.6zM239.7 17.8c7.5 0 10.2 5.6 10.2 11.8v12.4c0 4-2 5.4-4.9 5.4h-1.1c-3 0-5.1-1.3-5.1-5.4v-10.6c0-2.8-1.4-4.5-3.7-4.5-2.8 0-4.4 1.7-4.4 4.7v10.4c0 4.1-2.1 5.4-4.9 5.4h-1.2c-3 0-5-1.3-5-5.4v-34.4c0-.4 2-1.3 4.3-1.3 3.2 0 6.8 1.7 6.8 8.5v8.2c1.8-3 4.6-5.2 9-5.2zM253.5 32.8c0-9 6.3-15 15.8-15 9.4 0 15.6 6 15.6 15.1 0 9.2-6.3 15.1-15.8 15.1s-15.6-6-15.6-15.2zm22 .1c0-3.9-2.6-6.6-6.3-6.6-3.7 0-6.3 2.7-6.3 6.6 0 3.9 2.6 6.6 6.3 6.6 3.6-.1 6.3-2.9 6.3-6.6zM299.9 53c0 4-2.1 5.3-4.9 5.3h-1.2c-3 0-5-1.2-5-5.3v-33.6c0-.4 2-1.3 4.3-1.3 2.6 0 5.5 1.1 6.4 5.2 1.3-3.3 4.6-5.5 8.8-5.5 7.9 0 13.2 5.7 13.2 15 0 8.9-5.2 15.1-13.2 15.1-3.9 0-7-2.1-8.4-5v10.1zm-.1-18.8c0 3.2 2.3 5.1 5.3 5.1 3.4 0 5.7-2.6 5.7-6.4 0-3.9-2.2-6.4-5.6-6.4-2.6 0-4.5 1.3-5.4 3.4v4.3zM340.9 44.5l-7.8-23.3c-.2-.6 3.7-3.2 6.8-3.2 2.1 0 4.5.9 5 4.2l2.4 13.7 3.7-12.1c.6-2.3 2.8-3.5 5.5-3.5 2.6 0 4.7 1.2 5.3 3.5l3.2 11.5 2.4-13.1c.6-3.2 2.8-4.2 4.8-4.2 3.2 0 6.9 2.6 6.7 3.2l-7.6 23.3c-.7 2.6-3.5 3-5.5 3-3.5 0-5.2-.6-6.1-3.7l-3.7-11.2-3.5 11.2c-.9 3.1-2.7 3.7-6.1 3.7-1.9 0-4.6-.5-5.5-3zM394.9 25.7c-3.6 0-5 2.1-5.8 3.8-.1.2-7.4.6-7.4-4.3 0-4.5 4.3-7.4 13.8-7.4 10.3 0 14.8 4 14.8 12.2v16.4c0 .6-2.1 1.3-4.3 1.3-3.2 0-5.4-1.6-6.3-4.7-1.9 3-5.4 4.8-9.6 4.8-5.8 0-9.6-3.5-9.6-8.5 0-6.6 5.4-9.7 17.6-9.7h1.2c-.1-2.6-1.6-3.9-4.4-3.9zm4.6 10.3v-1h-1.4c-4.5.1-6.8 1-6.8 3.2 0 1.7 1.3 2.7 3.4 2.7 2.9 0 4.8-2 4.8-4.9zM435.4 17.8c7.5 0 10.2 5.4 10.2 11.4v12.8c0 4-2 5.4-4.9 5.4h-1.1c-3 0-5.1-1.3-5.1-5.4v-11c0-2.6-1.4-4.2-3.7-4.2-2 0-3.5 1-4.3 2.3v12.9c0 4.1-2.1 5.4-4.9 5.4h-1.2c-3 0-5-1.3-5-5.4v-22.6c0-.4 2-1.3 4.3-1.3 2.6 0 5.3 1.1 6.4 5 1.9-3.1 4.7-5.3 9.3-5.3zM452.9 26.8c-3 0-4.5-1.3-4.5-3.8v-.6c0-2.6 1.5-4 4.5-4h.6v-2.8c0-3.5 1.8-5.4 5-5.4h.9c3 0 5 1.3 5 5.4v2.8h3.3c3 0 4.3 1.3 4.3 3.8v.6c0 2.6-1.5 4-4.5 4h-3.4v9.6c0 1.9.8 2.9 2.4 2.9 1.5 0 2.4-.8 3.2-1.7.2-.3 2.4 1.3 2.4 4.1 0 3.7-3.4 6.3-8.6 6.3-6.8 0-10.1-3.5-10.1-10.3v-10.9h-.5zM474.1 41.2c0-2.4 2.6-4.5 2.8-4.3 2 1.9 5.3 3.4 9.2 3.4 2.3 0 3.5-.3 3.5-1.5 0-1.4-1.9-1.5-4.6-2.1-3.6-.8-10.2-2.1-10.2-9.2 0-5.9 5-9.7 12.7-9.7 8.3 0 12.3 2.5 12.3 6.6 0 2.6-2.8 4.6-3.1 4.5-2.1-2.1-5.3-3.5-8.4-3.5-2.1 0-3.4.3-3.4 1.6s2 1.3 5 2c3.7.8 10.6 2.3 10.6 9.1 0 6.1-5 9.7-13.5 9.7-8.9-.1-12.9-2.5-12.9-6.6zM519.9 55l4.7-9.9c-1.3-.3-2.3-.9-2.8-2.1l-9.6-21.7c-.2-.6 3-3.2 6.3-3.2 2.3 0 4.6 1.2 5.8 5.1l4.3 12.5 4.1-12.5c1.2-3.9 3.5-5.1 5.7-5.1 3.2 0 6.3 2.6 6.1 3.2l-12.6 31.9c-1.4 3.7-3.5 4.9-5.9 4.9-3.4-.1-6.4-2.5-6.1-3.1zM546.1 32.8c0-9 6.3-15 15.8-15 9.4 0 15.6 6 15.6 15.1 0 9.2-6.3 15.1-15.8 15.1s-15.6-6-15.6-15.2zm22 .1c0-3.9-2.6-6.6-6.3-6.6s-6.3 2.7-6.3 6.6c0 3.9 2.6 6.6 6.3 6.6 3.6-.1 6.3-2.9 6.3-6.6zM591.3 48c-7.5 0-10.2-5.5-10.2-11.4v-13.1c0-4.1 2-5.4 4.9-5.4h1.1c3 0 5.1 1.2 5.1 5.4v11.1c0 2.6 1.4 4.2 3.8 4.2 1.9 0 3.4-.9 4.3-2.3v-13c0-4.1 2-5.4 4.9-5.4h1.2c3 0 5 1.2 5 5.4v22.7c0 .3-2 1.3-4.3 1.3-2.5 0-5.3-1-6.4-4.9-2 3-4.8 5.4-9.4 5.4z"/></svg>