<svg class="credit-150" xmlns="http://www.w3.org/2000/svg" viewBox="0 0 371 119.84">
  <title>$150 Free power</title>
  <g>
    <g>
      <path class="pink" d="M10.62,67.81a24,24,0,0,0,14.19,5.32c4.39,0,6.4-1.23,6.4-3.62,0-2.7-3.63-3.39-8.17-4.4-6.33-1.31-16-3.93-16-14.58,0-7.71,4.78-13,13.11-14.73v-1.7c0-4.71,1.77-7.17,6-7.17h0.38c4.4,0,6,2.31,6,7.17v1.31c8.25,1,12.49,4.32,12.49,9,0,4.24-4.63,7.56-4.94,7.25a20,20,0,0,0-12.73-5.17c-4.24,0-6.17,1.31-6.17,3.62,0,2.62,3.62,3.24,8.48,4.32,6.56,1.31,16.43,4.17,16.43,14.35,0,8.1-4.78,13.34-13.65,15v1.93c0,4.71-1.77,7.18-6,7.18H26.12c-4.4,0-6-2.32-6-7.18V84.23C10.92,83.23,6,79.61,6,74.67,6,70.66,10.31,67.42,10.62,67.81Z"/>
      <path class="pink" d="M64.59,50.31A10.93,10.93,0,0,1,60,51.39a9.53,9.53,0,0,1-9.88-9.78c0-6.55,4.4-9.29,5.09-9a10.71,10.71,0,0,0,6.16,2,8.85,8.85,0,0,0,8.8-7.14h5.09c5.58,0,8.61,3,8.61,9.09V83.37c0,6-3,9.09-8.61,9.09H72.81c-5.38,0-8.21-3.13-8.21-9.09V50.31Z"/>
      <path class="pink" d="M98.23,71.73a23.46,23.46,0,0,0,17.11,7.34c6.75,0,10.66-2.84,10.66-7.63s-3.42-7.53-10.66-7.53a18,18,0,0,0-11.05,3.32c-7.24-.1-11.34-3-11.34-11V39.16c0-7,2.54-10.85,9.19-10.85h29.24c6.36,0,9.39,2.35,9.39,7.53v0.49c0,5.18-2.93,7.43-9.39,7.43H108.89v9.39a31,31,0,0,1,9.78-1.56c14.77,0,24.26,7.43,24.26,20.15,0,12.91-10.27,21.22-27.09,21.22C99.7,93,91,86.89,91,80.63,91,75.45,97.64,71.24,98.23,71.73Z"/>
      <path class="pink" d="M147.61,56.86c0-18.29,11-29.93,29.34-29.93s29.24,11.54,29.24,29.93v6.06c0,18.39-11,30-29.24,30-18.48,0-29.34-11.54-29.34-30V56.86Zm29.34,20.34c6.36,0,9.58-4.2,9.58-12.52V55.1c0-8.41-3.23-12.71-9.58-12.71-6.55,0-9.68,4.11-9.68,12.71v9.49C167.27,73.1,170.5,77.21,176.95,77.21Z"/>
    </g>
    <g>
      <path class="pink" d="M218,31.64c0-3.08,1.54-4.75,4.37-4.75h13.54c2.7,0,3.94,1.2,3.94,3.43v0.26c0,2.36-1.24,3.56-3.94,3.56h-9.47v4.5H233c2.83,0,3.94,1.2,3.94,3.26v0.17c0,2.23-1.16,3.47-3.94,3.47h-6.17v5.27c0,2.61-1.29,4-3.77,4h-1.37c-2.36,0-3.6-1.84-3.6-5V31.64Z"/>
      <path class="pink" d="M242.52,31.64c0-3.08,1.54-4.75,4.37-4.75h8.57c7.71,0,11.57,3.17,11.57,9.08a7.91,7.91,0,0,1-6,8.14l6.25,7.75c0.26,0.34-1.24,3-4.93,3-2.66,0-4-1.16-5.78-3.64L252.63,46h-1.54v4.88c0,2.57-1.29,4-3.77,4h-1.2c-2.36,0-3.6-1.84-3.6-5V31.64Zm12,8.22c2.57,0,3.86-1.16,3.86-3.21s-1.24-3.26-3.94-3.26H251v6.47h3.6Z"/>
      <path class="pink" d="M270.37,31.64c0-3.08,1.54-4.75,4.37-4.75h14.74c2.74,0,4,1.37,4,3.6V30.7c0,2.36-1.24,3.6-4,3.6H278.94v2.78h7c2.83,0,4,1.2,4,3.3v0.13c0,2.23-1.2,3.51-4,3.51h-7v3.21h10.75c2.7,0,3.94,1.16,3.94,3.38v0.21c0,2.36-1.24,3.77-3.94,3.77h-15c-2.83,0-4.37-1.59-4.37-4.71V31.64Z"/>
      <path class="pink" d="M296.78,31.64c0-3.08,1.54-4.75,4.37-4.75h14.74c2.74,0,4,1.37,4,3.6V30.7c0,2.36-1.24,3.6-4,3.6H305.34v2.78h7c2.83,0,4,1.2,4,3.3v0.13c0,2.23-1.2,3.51-4,3.51h-7v3.21H316.1c2.7,0,3.94,1.16,3.94,3.38v0.21c0,2.36-1.24,3.77-3.94,3.77h-15c-2.83,0-4.37-1.59-4.37-4.71V31.64Z"/>
    </g>
    <g>
      <path class="pink" d="M218,68.28c0-3.08,1.54-4.75,4.37-4.75h7.32C237.66,63.53,242,67,242,73.6s-4.15,9.85-12,9.85h-3.34v4c0,2.53-1.29,4-3.77,4h-1.24c-2.27,0-3.6-1.37-3.6-4V68.28Zm11.61,8.91c2.61,0,4-1.29,4-3.6s-1.41-3.6-4.11-3.6h-3v7.2h3.13Z"/>
      <path class="pink" d="M258.11,62.93c8.52,0,14.61,6,14.61,14.44s-6.08,14.48-14.61,14.48-14.65-6-14.65-14.48S249.59,62.93,258.11,62.93Zm0,21.25c3.68,0,6.13-2.7,6.13-6.81s-2.44-6.85-6.13-6.85-6.17,2.66-6.17,6.85S254.38,84.18,258.11,84.18Z"/>
      <path class="pink" d="M272.82,66.31c-0.09-.39,1.71-2.91,5.35-2.91,1.71,0,4,.94,4.71,4.58l2.31,12,2.91-10.84c0.47-2.14,2.4-3.13,4.71-3.13a4.44,4.44,0,0,1,4.58,3.13l2.91,10.84,2.31-12.08c0.6-3.34,2.66-4.45,4.67-4.45,3.43,0,5.14,2.48,5,2.91L306,88.2c-0.64,2.44-2.4,3.3-5.06,3.3s-4.28-.77-5.05-3.3l-3.26-11.44L289.44,88.2c-0.69,2.48-2.53,3.3-5.1,3.3s-4.28-.73-5-3.3Z"/>
      <path class="pink" d="M314.78,68.28c0-3.08,1.54-4.75,4.37-4.75h14.74c2.74,0,4,1.37,4,3.6v0.21c0,2.36-1.24,3.6-4,3.6H323.34v2.78h7c2.83,0,4,1.2,4,3.3v0.13c0,2.23-1.2,3.51-4,3.51h-7v3.21H334.1c2.7,0,3.94,1.16,3.94,3.38v0.21c0,2.36-1.24,3.77-3.94,3.77h-15c-2.83,0-4.37-1.59-4.37-4.71V68.28Z"/>
      <path class="pink" d="M341.18,68.28c0-3.08,1.54-4.75,4.37-4.75h8.57c7.71,0,11.57,3.17,11.57,9.08a7.91,7.91,0,0,1-6,8.14l6.25,7.75c0.26,0.34-1.24,3-4.93,3-2.66,0-4-1.16-5.78-3.64l-3.94-5.23h-1.54v4.88c0,2.57-1.28,4-3.77,4h-1.2c-2.36,0-3.6-1.84-3.6-5V68.28Zm12,8.22c2.57,0,3.86-1.16,3.86-3.21S355.83,70,353.13,70h-3.51v6.47h3.6Z"/>
    </g>
  </g>
</svg>
