<svg xmlns="http://www.w3.org/2000/svg" viewBox="0 0 170 70" enable-background="new 0 0 170 70"><path opacity=".32" fill="#7D7D7D" d="M167 35.1c0 17.1-13.8 30.9-30.9 30.9h-102.2c-17.1 0-30.9-13.8-30.9-30.9v-.2c0-17.1 13.8-30.9 30.9-30.9h102.2c17.1 0 30.9 13.8 30.9 30.9v.2z"/><path stroke="#fff" stroke-miterlimit="10" d="M167 35.1c0 17.1-13.8 30.9-30.9 30.9h-102.2c-17.1 0-30.9-13.8-30.9-30.9v-.2c0-17.1 13.8-30.9 30.9-30.9h102.2c17.1 0 30.9 13.8 30.9 30.9v.2z" fill="none"/><path fill="#fff" d="M127.4 26.5c0-.9.6-1.2 1.3-.8l16.7 9.7c.7.4.7 1.1 0 1.6l-16.7 9.7c-.7.4-1.3.1-1.3-.8v-19.4z"/><path fill="#fff" d="M53.3 27c1.1-.2 2.5-.3 4.3-.3 2.2 0 3.9.5 4.9 1.5 1 .8 1.5 2.1 1.5 3.7s-.5 2.8-1.4 3.7c-1.2 1.3-3.1 1.9-5.4 1.9-.7 0-1.3 0-1.8-.2v7h-2.3v-17.3zm2.3 8.5c.5.1 1.1.2 1.9.2 2.7 0 4.4-1.3 4.4-3.7 0-2.3-1.6-3.4-4.1-3.4-1 0-1.7.1-2.1.2v6.7zM67.2 26.8h2.3v15.6h7.5v1.9h-9.8v-17.5zM82.3 38.8l-1.8 5.5h-2.3l6-17.5h2.7l6 17.5h-2.4l-1.9-5.5h-6.3zm5.7-1.8l-1.7-5c-.4-1.1-.6-2.2-.9-3.2h-.1c-.3 1-.5 2.1-.9 3.2l-1.7 5h5.3zM97.2 44.3v-7.4l-5.5-10.1h2.6l2.5 4.8c.7 1.3 1.2 2.4 1.7 3.6h.1c.5-1.1 1.1-2.3 1.8-3.6l2.5-4.8h2.6l-5.9 10.1v7.5h-2.4z"/></svg>