<svg version="1.1" id="Layer_1" xmlns="http://www.w3.org/2000/svg" xmlns:xlink="http://www.w3.org/1999/xlink" x="0px" y="0px"
	 viewBox="0 0 78 35" enable-background="new 0 0 78 35" xml:space="preserve">
<g>
	<path fill="#0E91CF" d="M72.5,31.1L6.4,33.5c-2.5,0.1-4.5-1.3-4.6-3.2L1.2,7.5C1.1,5.6,3.1,4,5.5,3.9l66.1-2.4
		c2.5-0.1,4.5,1.3,4.6,3.2l0.6,22.8C76.9,29.4,74.9,31,72.5,31.1z"/>
	<g>
		<g>
			<path fill="#FFFFFF" d="M24,15.8c-1.5,0.1-2.6-1-2.7-2.4c-0.1-1.7,1-2.4,1.2-2.4c0.5,0.3,1,0.5,1.6,0.4c1.1,0,2-0.8,2.2-1.9
				l1.3-0.1c1.4-0.1,2.3,0.7,2.3,2.3l0.5,12.1c0.1,1.5-0.7,2.4-2.1,2.4l-0.6,0c-1.4,0.1-2.2-0.7-2.2-2.3l-0.4-8.5
				C24.8,15.6,24.4,15.8,24,15.8z"/>
			<path fill="#FFFFFF" d="M32.4,18.4l-0.1-1.5c-0.2-4.7,2.5-7.9,7.2-8.1c4.7-0.2,7.7,2.7,7.9,7.4l0.1,1.6c0.2,4.7-2.5,7.9-7.2,8.1
				C35.6,26,32.6,23.2,32.4,18.4z M42.5,18.4L42.4,16c-0.1-2.2-1-3.2-2.6-3.2c-1.7,0.1-2.5,1.2-2.4,3.4l0.1,2.4
				c0.1,2.2,1,3.2,2.6,3.1C41.8,21.7,42.6,20.6,42.5,18.4z"/>
			<path fill="#FFFFFF" d="M48.9,17.7l-0.1-1.5c-0.2-4.7,2.5-7.9,7.2-8.1c4.7-0.2,7.7,2.7,7.9,7.4l0.1,1.6c0.2,4.7-2.5,7.9-7.2,8.1
				C52,25.3,49.1,22.5,48.9,17.7z M59,17.7l-0.1-2.5c-0.1-2.2-1-3.2-2.6-3.2c-1.7,0.1-2.5,1.2-2.4,3.4l0.1,2.4
				c0.1,2.2,1,3.2,2.6,3.1C58.3,21,59.1,19.9,59,17.7z"/>
		</g>
	</g>
	<g>
		<path fill="#FFFFFF" d="M9.8,22.2c0-0.6,0.7-1.1,0.8-1c0.6,0.8,1.6,1.4,2.9,1.6l-0.2-3.9c-1.7-0.3-3.4-0.9-3.5-3.1
			c-0.1-1.7,1.2-3.1,3.2-3.5l0-0.9c0-0.6,0.2-0.9,0.7-0.9l0.1,0c0.5,0,0.7,0.2,0.8,0.8l0,0.9c2.1,0.1,3.4,1.1,3.4,1.9
			c0,0.7-0.8,1.1-0.8,1.1c-0.6-0.7-1.5-1.3-2.6-1.4l0.2,3.7c1.8,0.3,3.7,1,3.8,3.2c0.1,1.8-1.3,3.2-3.4,3.6l0,0.9
			c0,0.6-0.2,0.9-0.7,0.9l-0.1,0c-0.5,0-0.7-0.2-0.8-0.8l0-0.9C11.2,24.2,9.8,23.1,9.8,22.2z M11.5,15.6c0,0.9,0.7,1.3,1.7,1.6
			l-0.2-3.3C12.1,14.1,11.5,14.7,11.5,15.6z M16.6,20.8c0-1-0.9-1.4-1.9-1.7l0.2,3.5C16,22.4,16.7,21.7,16.6,20.8z"/>
	</g>
</g>
</svg>
