<svg xmlns="http://www.w3.org/2000/svg" viewBox="0 0 78 35" enable-background="new 0 0 78 35"><path fill="#0E91CF" d="M72.5 31.1l-66.1 2.4c-2.5.1-4.5-1.3-4.6-3.2l-.6-22.8c-.1-1.9 1.9-3.5 4.3-3.6l66.1-2.4c2.5-.1 4.5 1.3 4.6 3.2l.6 22.8c.1 1.9-1.9 3.5-4.3 3.6z"/><g fill="#fff"><path d="M25.1 15.7c-1.5.1-2.6-1-2.7-2.4-.1-1.7 1-2.4 1.2-2.4.5.3 1 .5 1.6.4 1.1 0 2-.8 2.2-1.9l1.3-.1c1.4-.1 2.3.7 2.3 2.3l.5 12.1c.1 1.5-.7 2.4-2.1 2.4h-.6c-1.4.1-2.2-.7-2.2-2.3l-.4-8.5c-.3.3-.7.4-1.1.4zM40.2 15.1c3.8-.2 6.3 1.7 6.5 4.9.1 3.3-2.4 5.6-6.8 5.8-4.2.2-6.5-1.3-6.5-2.9-.1-1.4 1.6-2.5 1.8-2.4 1.2 1.2 2.8 1.8 4.5 1.7 1.7-.1 2.7-.8 2.7-2.1-.1-1.3-1-1.9-2.8-1.8-1.4.1-2.3.5-2.8 1-1.9.1-3-.6-3-2.7l-.2-4.4c-.1-1.8.5-2.9 2.3-2.9l7.4-.3c1.6-.1 2.4.5 2.5 1.8v.1c.1 1.3-.7 1.9-2.3 2l-5.8.2.1 2.4c.7-.1 1.5-.3 2.4-.4zM47.8 17.8l-.1-1.5c-.2-4.7 2.5-7.9 7.2-8.1 4.7-.2 7.7 2.7 7.9 7.4l.1 1.6c.2 4.7-2.5 7.9-7.2 8.1-4.8.1-7.7-2.8-7.9-7.5zm10.1 0l-.1-2.5c-.1-2.2-1-3.2-2.6-3.2-1.7.1-2.5 1.2-2.4 3.4l.1 2.4c.1 2.2 1 3.2 2.6 3.1 1.7.1 2.5-1.1 2.4-3.2z"/></g><path fill="#fff" d="M9.8 22.2c0-.6.7-1.1.8-1 .6.8 1.6 1.4 2.9 1.6l-.2-3.9c-1.7-.3-3.4-.9-3.5-3.1-.1-1.7 1.2-3.1 3.2-3.5v-.9c0-.6.2-.9.7-.9h.1c.5 0 .7.2.8.8v.9c2.1.1 3.4 1.1 3.4 1.9 0 .7-.8 1.1-.8 1.1-.6-.7-1.5-1.3-2.6-1.4l.2 3.7c1.8.3 3.7 1 3.8 3.2.1 1.8-1.3 3.2-3.4 3.6v.9c0 .6-.2.9-.7.9h-.1c-.5 0-.7-.2-.8-.8v-.9c-2.4-.2-3.8-1.3-3.8-2.2zm1.7-6.6c0 .9.7 1.3 1.7 1.6l-.2-3.3c-.9.2-1.5.8-1.5 1.7zm5.1 5.2c0-1-.9-1.4-1.9-1.7l.2 3.5c1.1-.2 1.8-.9 1.7-1.8z"/></svg>