<svg version="1.1" id="Layer_1" xmlns="http://www.w3.org/2000/svg" xmlns:xlink="http://www.w3.org/1999/xlink" x="0px" y="0px"
	 viewBox="0 0 78 35" enable-background="new 0 0 78 35" xml:space="preserve">
<path fill="#1790CD" d="M62.8,19.5L61.5,8.6c-0.1-0.9-0.7-1.6-1.5-2L49.6,2.3C48.6,1.8,47.2,2,47.2,2L17.4,5.6C16,5.7,15,7,15.2,8.3
	l2.7,22.6c0.2,1.4,1.4,2.3,2.8,2.2l29.8-3.6l0,0c0,0,1.4-0.2,2.4-0.9l0,0l9-6.7C62.5,21.3,62.9,20.4,62.8,19.5z M27.4,25.2
	c0.1,0.9-0.2,1.3-0.9,1.4l-0.1,0c-0.8,0.1-1.1-0.3-1.3-1.2L25,24.8c-2.4,0.1-3.8-0.8-4-1.9c-0.1-0.8,0.7-1.5,0.8-1.5
	c0.8,0.8,2.4,1.3,3.9,1.1c1.4-0.2,2.1-0.9,2-1.7c-0.1-1.1-1.4-1.2-2.8-1.3c-1.7-0.1-4-0.5-4.4-3c-0.2-1.8,0.9-3.3,2.9-4l-0.1-0.7
	c-0.1-0.9,0.2-1.3,0.9-1.4l0.1,0c0.8-0.1,1.1,0.3,1.3,1.2l0.1,0.7c2.2-0.1,3.5,0.8,3.6,1.7c0.1,0.9-0.8,1.6-0.9,1.5
	c-0.8-0.7-2.2-1.2-3.4-1c-1.3,0.2-2,0.8-1.9,1.7c0.1,1,1.2,1.1,2.7,1.3c1.8,0.2,4.2,0.6,4.6,3.1c0.3,1.9-0.9,3.5-3.1,4.1L27.4,25.2z
	 M35,23.7c-0.9,0.1-1.8-0.6-1.7-0.8l4-9.8l-5.5,0.7c-0.8,0.1-1.3-0.2-1.4-0.9l0-0.2c-0.1-0.8,0.3-1.2,1.1-1.3c0,0,6.7-0.9,6.7-0.9
	c1.6-0.2,1.9,0.4,2,1.2l0,0.2c0.1,0.7-0.3,1.6-0.6,2.2l-3.3,8.4C36,23.3,35.5,23.6,35,23.7z M47,22.2c-2.9,0.4-4.8-0.7-4.9-1.8
	c-0.1-0.8,0.9-1.6,1-1.5c0.9,1,2.2,1.4,3.6,1.2c1.6-0.2,2.5-1.1,2.3-2.4c-0.2-1.3-1.1-1.9-2.7-1.7c-1.2,0.2-2,0.6-2.5,1.1
	c-1.1,0.1-1.7-0.3-1.9-1.4l-0.5-4.1c-0.1-1,0.2-1.6,1.2-1.8l6-0.8c0.9-0.1,1.4,0.2,1.5,0.9l0,0.1c0.1,0.7-0.3,1.1-1.2,1.3l-5,0.7
	l0.4,2.7c0.6-0.4,1.4-0.6,2.2-0.7c2.8-0.4,4.8,0.9,5.1,3.3C51.8,20,50.1,21.8,47,22.2z M56.9,16.3C56,16,55.6,15,55.9,14.2
	c0.3-0.9,1.3-1.3,2.2-0.9c0.9,0.3,1.3,1.3,0.9,2.2C58.7,16.3,57.7,16.7,56.9,16.3z"/>
</svg>
