<svg xmlns="http://www.w3.org/2000/svg" viewBox="0 0 54 35" enable-background="new 0 0 54 35"><path fill="#1790CD" d="M50.8 19.5l-1.3-10.9c-.1-.9-.7-1.6-1.5-2l-10.4-4.3c-1-.5-2.4-.3-2.4-.3l-29.8 3.6c-1.4.1-2.4 1.4-2.2 2.7l2.7 22.6c.2 1.4 1.4 2.3 2.8 2.2l29.8-3.6s1.4-.2 2.4-.9l9-6.7c.6-.6 1-1.5.9-2.4z"/><path fill="#fff" d="M15.4 25.2c.1.9-.2 1.3-.9 1.4h-.1c-.8.1-1.1-.3-1.3-1.2l-.1-.6c-2.4.1-3.8-.8-4-1.9-.1-.8.7-1.5.8-1.5.8.8 2.4 1.3 3.9 1.1 1.4-.2 2.1-.9 2-1.7-.1-1.1-1.4-1.2-2.8-1.3-1.7-.1-4-.5-4.4-3-.2-1.8.9-3.3 2.9-4l-.1-.7c-.1-.9.2-1.3.9-1.4h.1c.8-.1 1.1.3 1.3 1.2l.1.7c2.2-.1 3.5.8 3.6 1.7.1.9-.8 1.6-.9 1.5-.8-.7-2.2-1.2-3.4-1-1.3.2-2 .8-1.9 1.7.1 1 1.2 1.1 2.7 1.3 1.8.2 4.2.6 4.6 3.1.3 1.9-.9 3.5-3.1 4.1l.1.5zM23 23.7c-.9.1-1.8-.6-1.7-.8l4-9.8-5.5.7c-.8.1-1.3-.2-1.4-.9v-.2c-.1-.8.3-1.2 1.1-1.3l6.7-.9c1.6-.2 1.9.4 2 1.2v.2c.1.7-.3 1.6-.6 2.2l-3.3 8.4c-.3.8-.8 1.1-1.3 1.2zM35 22.2c-2.9.4-4.8-.7-4.9-1.8-.1-.8.9-1.6 1-1.5.9 1 2.2 1.4 3.6 1.2 1.6-.2 2.5-1.1 2.3-2.4-.2-1.3-1.1-1.9-2.7-1.7-1.2.2-2 .6-2.5 1.1-1.1.1-1.7-.3-1.9-1.4l-.5-4.1c-.1-1 .2-1.6 1.2-1.8l6-.8c.9-.1 1.4.2 1.5.9v.1c.1.7-.3 1.1-1.2 1.3l-5 .7.4 2.7c.6-.4 1.4-.6 2.2-.7 2.8-.4 4.8.9 5.1 3.3.2 2.7-1.5 4.5-4.6 4.9z"/><circle fill="#fff" cx="45.5" cy="14.8" r="1.7"/></svg>