<svg class="play" xmlns="http://www.w3.org/2000/svg" viewBox="0 0 89.82 33.32">
  <title>Play</title>
  <g>
    <rect class="background" x="0.5" y="0.5" width="88.82" height="32.32" rx="16.16" ry="16.16"/>
    <path class="arrow" d="M62.31,13.34l8,4.61a0.3,0.3,0,0,1,0,.53l-8,4.61a0.3,0.3,0,0,1-.46-0.26V13.61A0.3,0.3,0,0,1,62.31,13.34Z" transform="translate(-0.16 -1.42)"/>
    <g class="copy">
      <path class="cls-2" d="M22.76,14.19a0.57,0.57,0,0,1,.57-0.57h2.48c2.26,0,3.56,1.06,3.56,2.93s-1.26,3-3.68,3H23.77v3.37a0.43,0.43,0,0,1-.45.46H23.19a0.4,0.4,0,0,1-.43-0.46v-8.7Zm3,4.44c1.69,0,2.54-.72,2.54-2s-0.85-2-2.5-2h-2v4.1h2Z" transform="translate(-0.16 -1.42)"/>
      <path class="cls-2" d="M31,14a0.4,0.4,0,0,1,.43-0.46h0.13A0.4,0.4,0,0,1,32,14v8.33h4.67a0.4,0.4,0,0,1,.46.43v0.08a0.41,0.41,0,0,1-.46.43H31.59A0.57,0.57,0,0,1,31,22.73V14Z" transform="translate(-0.16 -1.42)"/>
      <path class="cls-2" d="M41.73,13.9a1,1,0,0,1,1.53,0l3.54,9.15a0.67,0.67,0,0,1-1.2-.16l-1.06-2.75H40.38l-1,2.75a0.6,0.6,0,0,1-.58.46,0.62,0.62,0,0,1-.57-0.3Zm2.48,5.34-1.75-4.55-1.75,4.55h3.5Z" transform="translate(-0.16 -1.42)"/>
      <path class="cls-2" d="M50.64,19.27L47.2,14a0.55,0.55,0,0,1,.61-0.43,0.62,0.62,0,0,1,.51.34l2.84,4.44L54,13.92a0.64,0.64,0,0,1,.51-0.36,0.56,0.56,0,0,1,.6.43l-3.44,5.28v3.62a0.4,0.4,0,0,1-.45.46H51.07a0.4,0.4,0,0,1-.43-0.46V19.27Z" transform="translate(-0.16 -1.42)"/>
    </g>
  </g>
</svg>
