<svg xmlns="http://www.w3.org/2000/svg" viewBox="0 0 610 820" enable-background="new 0 0 610 820"><path fill="#A9DDF3" d="M255.9 257.1h328.1v212.6h-328.1zM255.9 31h328.1v211.8h-328.1z"/><path fill="#fff" d="M415.5 85.3c-1.5-1.5.2.7 0 .7 1.3 1.5 2.9 2.9 4.4 4.1.9.8 1.8 1.6 2.6 2.2.9.7 1 .6 1.3.8.3.1.5.2.8.1.2.5.2.7.2 1.1 0 .4 0 .7-.1.8-.1.3-.3.3-.5.5.5-.1.9 2.9 1.2 5.8l-.3-1.3c.3 2.7.5 5.4 1.2 8.3l.6-1.8c.2 2.2.1 2.6-.1 2.9-.1.3-.3.6.5 2.7l.7-.3c1 3 2 5.4 3.1 7.6.6 1.1 1.1 2.2 1.8 3.3.6 1.1 1.3 2.2 2.1 3.4 7.8 9.3 17.2 17.5 26.9 24.9 2.4 1.8 4.9 3.6 7.3 5.3 2.3 1.7 4.5 3.5 6.6 5.4 2.1 1.9 3.9 3.9 5.6 6 .4.5.8 1 1.2 1.6.2.2.2.3.3.5l.2.4c.3.5.5 1 .6 1.4-.2.1-.4.1-.7.1-.7-.1.2.4 1 1.4.4.4.2.5.1.7-.1.1-.3.1-.6-.1-.1.2-.3.4-.6.6-.5-.2-1.1-.5-.8-.6-.8-.1-.7 0-1.3.1-.3-.3-.6-.6-.8-.9l-2.5-1.3-2.8-1.6c-1.9-1.1-3.9-2.1-6.1-3.1-1.1-.5-2.3-.9-3.5-1.3l-.5-.1c-.2-.1-.4-.1-.7-.2l-1-.2c-.7-.1-1.5-.2-2.3-.2-.9 0-1.9.1-3.1.6-.6.3-1.3.7-1.8 1.2-.6.6-1 1.3-1.3 1.9-.5 1.4-.5 2.5-.5 3.4.1.9.2 1.7.4 2.5.8 3.6 2.6 7 4.7 10.5 2.1 3.4 4.6 7.2 7.9 10.6 1.7 1.7 3.5 3.3 5.5 4.6 1.9 1.3 3.9 2.4 5.8 3.4 1 .5 1.9.9 2.8 1.3l2.8 1.2c1.8.7 3.3 1.2 4.7 1.8 1 .4 1.9.8 2.7 1.3.4.2.9.5 1.2.8.3.2.5.4.7.6.2.2.4.4.6.7.2.2.4.5.3.8l-.4.8-.1.2-.1.1v.2c-.2.7-.3 1.6-.1 2.3.2.7.4 1.3.7 1.8l.4.6.1.1.1.2.1.1.1.2c.1.1.3.3.4.5.2.2.3.3.5.4.3.3.6.5.9.7 1.3.9 2.6 1.6 3.9 2.1 2.6 1 5.2 1.6 7.7 2.1 5.1.9 10.1 1.2 15 1.3 2.4.1 4.8.1 7.1 0h6.7c.4.1.9.1 1.4.1.5 0 .9-.1.8-.1 5.5.5 11 1 16.1 2.2 0 0 1.2.2 3.1.8 1.9.5 4.4 1.3 6.9 2.7 1.2.7 2.5 1.5 3.5 2.5s2.2 2.3 3.3 3.7c1.4 1.7 2.8 3.5 4.4 5.2h7.2v-49.7c-1.8-.6-3.6-1.4-5.4-2.3 1.2.5 2.4.8 3.5 1.1.7.2 1.3.3 1.9.4v-4.5c-1.9-.9-3.3-1.8-3.3-1.8-3.4-2.2-6.4-4.5-9.1-6.7-2.8-2.2-5.4-4.5-8.1-6.8l-8.8-7.7c-1.6-1.4-3.3-2.9-5.3-4.5-1.8-1.4-3.2-2.7-4.4-4.5-1-1.6-1.7-3.5-2.5-5.4l-1.2-2.8c-.4-.8-.8-1.8-1.3-2.7-1.8-3.5-3.7-6.2-5.8-8.8-2.1-2.6-4.3-5-7.1-7.5-1.4-1.3-2.9-2.6-4.6-3.9l-1.3-1-1.5-1.1c-1-.7-2.1-1.4-3.2-2.1-8.5-5.6-18.2-9.2-26.6-12.8-2.2-.5-4.9-1.7-7.6-3.1l-4-2c-1.2-.6-2.4-1.3-3.4-1.8l-1.2-1.5c-1.5-.8-3.1-1.9-4.3-3.3h.2c-2.2-1.4-4.4-3.6-5.5-4.3h.2l-2.7-2.1.6.2-1.6-1-1.5-1c-1-.7-2.1-1.4-3.1-2-2.1-1.3-4.1-2.5-6.1-3.7l.1.7c-4-2.5-7-3.6-9.8-4.8-2.8-1.1-5.5-2.1-9-4.1l.2-.1-.2-.1h-.1l-.2-.1-.7-.3c-.5-.2-1-.4-1.4-.6l-2.7-1.2c-1.7-.8-3.2-1.4-4.5-1.7-1.3-.3-2.4-.5-3.5-.5s-2.2.1-3.3.8c-1.1.6-2.1 1.7-2.7 2.8-.6 1.2-.8 2.5-.8 3.7.1 1.3.4 2.6 1.1 4.1.9 1.4 2 2.9 3.4 4.4z"/><path fill="#33A76A" d="M584 300.3l-.3-.2-.5-.3c-1.3-.7-2.5-1.2-3.7-1.7-2.4-1-4.6-1.9-7.4-3 .2-.4-4.9-2.7-7.5-3.6h.1c-3.9-1.4-7.3-2.3-10.7-3-3.4-.7-6.7-1.3-10.5-1.7-2.3-.6-6.3-1.1-10.7-1.3-4.4-.2-9.2 0-13 .4 1.2-.1-.2.4-1.5.6-1.8.2-4.8 1.2-4.6.7l.6-.1c-1.4-.1-5 .8-7.8 1.7l-.3.6c-3.7.8-8.3 2.7-12.2 4.9-4 2.1-7.4 4.4-9.3 5.2l-4.7 3.5-.1-.3c-4.1 2.9-6.1 4.4-10.9 8.3l.8-.9c-2.7 2.2-2.9 3.4-5.3 5.5l-1 .3c-4.7 3.9-9.6 7.5-14.1 11.3 0-.1.1-.3.9-.9-1.1.8-3.4 2.4-5.2 3.6-1.9 1.3-3.3 2.2-2.7 2.2-.1-.1-1.4.7-3.1 1.7-1.6 1-3.7 2.2-5.1 2.9l.3-.5c-1.2.7-1.8 1.1-2.5 1.5-.7.4-1.6.8-3.4 1.4-.9.2-.8 0 .3-.3-1.4.4-2 .6-2.6.8-.6.2-1.3.5-3.1.8.4-.1.9-.3 1.3-.5-3 .6-2.8.6-4.4 1.1-1 .2-2.4.3-3.7.3-1.3 0-2.4-.1-2.6-.3-.4.1-2.1.3-3.9 0-.2-.1.4-.1.8-.1-2.5-.3-4.4-.6-6.1-1-1.7-.3-3.2-.7-4.8-1.4 0-.1-.2-.2-.5-.4 3.5 1.3 6.5 1.9 6.8 2 0-.2-3.1-1-.5-.8-1.3-.2-3-.5-4.8-1-1.8-.5-3.6-1.2-5-1.9-.1-.1-.3-.2-.3-.3l.3.1c-.7-.3-1.3-.6-1.8-.9l-2.3-1.3c-.2-.4-3.2-2-4.5-3 0 .3-1.8-.9-.3.3 0 0 .4.3 1.3.8.2.1.5.3.6.4h-.1c.9.6 2.1 1.3 3.5 2.1-1.2-.5-2.5-1.1-3.9-2.2-.8-.3-1.7-.7-2.2-.9-1.7-1.6-5-4.4-5.3-5-4.1-3-9.2-7.6-12-9.4-1.1-.9-1.2-1.2-1.5-1.6.7.5 1.4 1.2 1.8 1.4-2.3-1.8-6.5-5.7-7.3-5.8-2.7-2.5 1.8 1.1-2.1-2.1l.6.4c-3.6-3.4-6.9-5.8-10.4-8.1-3.3-2.1-6.8-4.3-11.2-6.9.2.1.3.2.4.3-5.5-3.1-11.6-5.5-17.9-6.9-6.3-1.4-12.8-1.8-19-1.8-3.5.1-3.9.4-6 .8l-.8-.2-3.6.9c-2.5.6-4.8 1-7.1 1.6-2.4.6-4.9 1.3-7.8 2.9l.9-.2c-1.1.5-2.8 1.3-4.2 2-1.4.7-2.4 1.3-2.3 1.1-.2.2-.6.6-1.4 1l-.1-.1c-1.6 1.1-3.2 2.2-4.7 3.5-1.9 1.3-1.8 1.1-2 1-.1 0-.5 0-3.1 2.2-.9.8-2.1 2.1-3 3.2-.3.3-.5.6-.7.9v.3c.7-.7 1.5-1.5 1.7-1.4-.5.5-1 1.1-1.5 1.7v.1l-.2.2v114h2.1c.7 0 1.5 0 2.3.1.2-.2-1.5-.4-1.1-.6h2.4c-.1.1-.3.2-1 .2.4 0 1.4-.1 2.2-.1l-1.8.2c2 .1 1-.2 2.6-.2 0 .2 1.2.1.9.3-.4 0-1.4-.1-2 0 1.8 0 3.9.2 4.7.3-.2-.1 0-.3 1.3-.3 3.4 0 1.2.2 3.1.3.8-.1 3 0 3-.3 1 0 1.2.1 1.6.2 1.7-.1 8.2 0 6.2-.4h-.4.3c5.7-.3 11.9.2 17.6 0v.1c3.4-.1 7.6-.1 10-.3 1 0 2.4.2 1.9.3 2.6-.1 2.9-.2 6.6 0-2.6.2.9.2-2.7.1 3.4.1 4.1.2 7.8 0-1.2.3 2.5.3 4.1.2l-2.4-.2h5l-.9.3c6.9.4 12.4-.7 17.7 0 1.8-.2-3.8-.2-2.1-.4 3.2 0 6.5.5 7.5.5 4.3.2 4.1-.5 8.6-.4-.6-.1-1.1-.4 2.3-.5 3.2 0 3.9.5 1.9.6-.8 0-1.1 0-1.1-.1-1 0-2.4.1-1.1.2l.4-.1c1.6.1 5.9.1 4.9.3 2.4-.1 1-.2-.8-.3 4.1.2 6.4 0 10.6.1-.7-.1-1.3-.2-.6-.2 6.2.1 2.7-.2 6.9-.3 2.4.2-.8.4 3.3.3 2.6.1.5.3-.5.4 3.8-.2 7.1.2 9.3.2l-2 .1c1.2-.1 2.2-.1 3.2-.1l-1.1-.2c1.2 0 2.2 0 2.2.1 1.2-.2-.9-.4 1.5-.6 1.6.1 4.8-.1 5.3.2-4.5-.1-.4.2-2.7.3h2c.2 0-.2.1-.5.1 4.7.3 2.2-.4 7.1-.3-.6.2 1.1.3 1.9.3-2 0-.9-.3.9-.4 3.2.1 3.4-.1 5.1-.1l-1.9-.1c.6-.2 2.2-.2 4.4-.2.2.1-2 .1-1.2.2 2.4-.3 5.5.3 8.9.1 1.6.1.2.3 1.5.4 3.8-.2 4.1.2 8.1.1-1.2-.2-1.4-.2 1.5-.4l-6.6.2 4.2-.3c-2 0-4.2.2-5.4.1 2-.2 1.8-.1.9-.3 2.7.4 5.4-.2 8.5 0l-.1.6c4.7.3 8.4-.3 14.5-.2l-2-.1c.8-.2 3.8 0 5.8-.1-.2.2 1.1.3 1.9.4-.1-.1 4.5 0 5.1-.4l2.7.3c5 .1 5.7-.6 10.4-.5-1.4.2.7.4-2.5.5 1.6 0 3 0 3-.1.9.1 4.4-.3 5.9-.1.7-.1.9-.3 2.7-.3.1 0 .1.1 0 .1.4-.1 2.6-.1 1.2-.3 4.9.6 13.7 0 18 .5 3.5-.1 7.7-.1 10.8-.1-.2.1 0 .1-.6.1 4.3.2 2.7-.6 7.6-.4 2.5.3-2.6.2-1.1.3.7.6 6-.1 9.3.3h-.8c2.5.2 6.2-.2 10.4-.2 0 0-.2.1 0 .1 2.8-.3 8.2-.4 12.2-.5-1.2.3-1.8.1-1.1.4 1.8 0-.5-.4 3.1-.5 1.2.1 3.7.3 4.1.5h-3.4c1.7.4 4.4 0 6.2 0l-.2.2c5.2-.1 5.2-.4 10.8-.4l-.6-.1c3-.4 2.5.2 5.6-.1.3.1.6.3 1 .4l1.5-.1v-121.1zm-194.5 32.7h-.1c.1 0 .2 0 .4.1 1 .5 1.2.8 1.3.9l-1.6-1z"/><path fill="#CBCBCB" d="M609.4 277.8c-.1 4.5-.5 3.4-.5-.2l.3-1.5c-.2-2.4-.1 3.8-.4-1 0-4.7.4-3.1.5-.5l-.1-5.7c.1-.3.1 1 .3 1.3-.2-2.3.3-9.8 0-13.1l.1-.3-.1-28.3c-.3-.2-.2-4.2-.4-7.2.1-7.5.3-15.8.3-24.7-.1-6.3-.2-1.8-.4-4.7.3-.5.2-9.4.4-4.8 0-10.8-.1-13.8-.3-27.4-.1 1.5-.2 3.1-.2 2.3 0-2.5.1-5.6.2-5.3v.7c-.4-15.3.7-35.4.2-47.6v.7l-.3-12.7c0-5.8.2 3.5.4-.8-.4-13.7.1-21.6-.2-32.8.8-8.7-.1-30.9.4-42.6l-.2.7c-.2-3 .1-3.7.1-5.9-.1.3-.2 3.3-.3 1.4l-.1-14.7h-12.700000000000001c-1.5-.1-2.8-.1-3.9 0h-5c-.3 0-.7 0-1.1-.1h-.4l-10.8-.1-33-.3c-5.1 0-6.4.2-8.2.4-3.1 0-6.1 0-6.1-.2h.1-.1l.1-.1c-.2 0-.4 0-.7.1-8.8.2-17.8.2-26.8.2-.9 0-1.8-.1-2.9-.1-.1 0-.2.1-.4.1h-9.4c.4-.1.6-.1.2-.2.1.1-.8.2-2 .2-3.5 0-7 0-10.4.1-.2 0-.5-.1-.9-.1-.1.1-.2.1-.4.1-1.7 0-3.5 0-5.2.1 1.1-.1 1.2-.2 3-.2-2.9-.2-9.5-.1-12.9 0-3-.1 2.8-.3 2.8-.3-5 0-4.3.2-4.2.4-.4 0-.6.1-.7.1-3 0-.7-.2-2.5-.3h-3c-.2 0-.4 0-.7-.1-2.2 0-4.2.1-6.1.2-1.1 0-2 0-2.6-.1-.2 0 .3 0 .9-.1-3.5.1-11 0-8.7.2-6.2-.1-11.9.1-17 0h-3.8.3c-1.6.1-3.5.1-5.5 0 .5 0 .5-.1-1.2-.3l-20.3.1c-.8.1-.9.1-.8.2-.6 0-1.1 0-1.5.1 1.5-.1-3.9-.1-2.2-.3-4.8 0-9.3.1-9.1.3-2-.2-3.8-.3-8.4-.1-3.2 0-6.3.1-9 .2l.7-.1c-2.3 0-3.8 0-4.8.1-1 0-1.9-.1-2.8-.2-4 .1-7.9.1-11.7.2h-.1l-31.5.4h.1l.7-.1c3.1-.2 14.4 0 13.9-.4-5.2.1-9.6.2-13.7.3-.2 0-.5-.1-1.2-.1-5.4.1-11.1.1-16.8 0 .5 0 .9 0 1.1-.1h-3.6c-8.1-.1-16.1-.2-23.5-.3l-5.1.3h-.6c-.9 0-1.3-.1-.3-.2-4.2-.1-1.8.1-2 .2h-3.5c-.5-.1-.3-.1.7-.2l-9.3.2-5.4.1h-.5c.2 0 .6-.1 1.1-.2-1.1 0-2.4.1-2.9.2h-2.6c-.1 0-.1 0 .3-.1l1.5-.1h-3.5v4l.1 1.4v5.2c0-.5-.1-1-.1-1.4l.1 2.4c0 1.8-.1 3.5-.1 4.9l-.1-1.9c-.1 4 .1 6.2.2 8.4 0 2.3 0 4.5.1 6.6v.4l-.1-1.3c-.1 8.5 0 17.5 0 25.9 0 .9-.1 1.6-.2 1.7l.1 6.4.1-.7c0 4.9-.1 9.4-.2 13.4.4 2.4-.2 16.1.4 17.2-.3 9.3-.4 6.6-.6 19.7 0 3.5.4 5.2.4 9.5l-.3.1.3 5.9-.4 3.1.1 4.1c0-1.6.1-3.4.2-3.2.1 6.3-.2 15.4-.4 15.6l.3 15c-.1-.3-.1-1.8-.2-3.4.2 5.7-.4.5-.1 7.3.1-1 .2.5.2.7-.2 3.7-.2 12-.1 18.1l-.2-1.2c-.1 11.1.1 23.4.1 35.9.1-4.5.5-3.4.5.2l-.3 1.5c.2 2.4.1-3.8.4 1 0 4.7-.4 3.1-.5.5l.1 5.7c-.1.3-.1-1-.3-1.3.2 2.3-.3 9.8 0 13.1l-.1.3.1 28.3c.3.2.2 4.2.4 7.2-.1 7.5-.3 15.8-.3 24.7.1 6.3.2 1.8.4 4.7-.3.5-.2 9.4-.4 4.8 0 10.8.1 13.8.3 27.4.1-1.5.2-3.1.2-2.3 0 2.5-.1 5.6-.2 5.3v-.7c.4 15.3-.7 35.4-.2 47.6v-.7l.3 12.7c0 5.8-.2-3.5-.4.8.4 13.7-.1 21.6.2 32.8-.8 8.7.1 30.9-.4 42.6l.2-.7c.2 3-.1 3.7-.1 5.9.1-.3.2-3.3.3-1.4l.1 14.7h12.700000000000001c1.5.1 2.8.1 3.9 0h5c.3 0 .7 0 1.1.1h.6l10.8.1 33 .3c5.1 0 6.4-.2 8.2-.4 3.1 0 6.1 0 6.1.2h-.1.1l-.1.1c.2 0 .4 0 .7-.1 8.8-.2 17.8-.2 26.8-.2.9 0 1.8.1 2.9.1.1 0 .2-.1.4-.1h9.4c-.4.1-.6.1-.2.2-.1-.1.8-.2 2-.2 3.5 0 7 0 10.4-.1.2 0 .5.1.9.1.1-.1.2-.1.4-.1 1.7 0 3.5 0 5.2-.1-1.1.1-1.2.2-3 .2 2.9.2 9.5.1 12.9 0 3 .1-2.8.3-2.8.3 5 0 4.3-.2 4.2-.4.4 0 .6-.1.7-.1 3 0 .7.2 2.5.3h3c.2 0 .4 0 .7.1 2.2 0 4.2-.1 6.1-.2 1.1 0 2 0 2.6.1.2 0-.3 0-.9.1 3.5-.1 11 0 8.8-.2 6.2.1 11.9-.1 17.1 0h3.9-.3c1.6-.1 3.5-.1 5.5 0-.5 0-.5.1 1.2.3l20.3-.1c.8-.1.9-.1.8-.2.6 0 1.1 0 1.5-.1-1.5.1 3.9.1 2.2.3 4.8 0 9.3-.1 9.1-.3 2 .2 3.8.3 8.4.1 3.2 0 6.3-.1 9-.2l-.7.1c2.3 0 3.8 0 4.8-.1 1 0 1.9.1 2.8.2 4-.1 7.9-.1 11.7-.2h.1l31.5-.4h-.1l-.7.1c-3.1.2-14.4 0-13.9.4 5.2-.1 9.6-.2 13.7-.3.2 0 .5.1 1.2.1 5.4-.1 11.1-.1 16.8 0-.5 0-.9 0-1.1.1h3.6c8.1.1 16.1.2 23.5.3l5.1-.3h.6c.8 0 1.3.1.3.2 4.2.1 1.8-.1 2-.2h3.5c.5.1.3.1-.7.2l9.3-.2 5.4-.1h.5c-.2 0-.6.1-1.1.2 1.1 0 2.4-.1 2.9-.2h2.6c.1 0 .1 0-.3.1l-1.5.1h3.5v-4l-.1-1.4v-5.2c0 .5.1 1 .1 1.3l-.1-2.4c0-1.8.1-3.5.1-4.9l.1 1.9c.1-4-.1-6.2-.2-8.4 0-2.3 0-4.5-.1-6.6v-.4l.1 1.3c.1-8.5 0-17.5 0-25.9 0-.9.1-1.6.2-1.7l-.1-6.4-.1.7c0-4.9.1-9.4.2-13.4-.4-2.4.2-16.1-.4-17.2.3-9.3.4-6.6.6-19.7 0-3.5-.4-5.2-.4-9.5l.3-.1-.3-5.9.4-3.1-.1-4.1c0 1.6-.1 3.4-.2 3.2-.1-6.3.2-15.4.4-15.6l-.3-15c.1.2.1 1.7.2 3.2-.2-5.5.4-.4.1-7.2-.1 1-.2-.5-.2-.7.2-3.7.2-12 .1-18.1l.2 1.2c-.4-10.9-.6-23.2-.6-35.7zm-2.2 217.6v-.9.3.6zm-38.6.3h-5.1000000000000005c-2.9-.1-.3-.3-2.9-.4-5.1.2-6.8 0-10.1-.1.2-.1.8-.1 1.8-.2-1.2 0-2.6.1-4.1.2h-2.8.4c-2 .1-4 .1-6.1.2-3.3-.1-6.3-.1-9.3 0h-2.2l-4.8-.1c-.7-.2-7.2-.1-10.3-.1.3.3-3.8.2 0 .5h3.5-.7c-1.9.2-6.8 0-10.3.1h-.1c.3-.2-2-.3-3.6-.4.1.1-.9.1-2.3.1-.7 0-1.2-.1-1.5-.1-9.6.2-22.5.1-28.5.6h-1.3c1.3-.1 0-.2 1.2-.3h.3c.5 0 1.4-.1 2.7-.1-3 0-5.7 0-5.7.1-1.7-.1-8.3.3-11 .1-.7 0-1.1.1-1.9.2h-.6c-.6 0-1.4.1-2.5 0-.2 0-.2-.1-.1-.1h-.6c-.9-.1 4.2-.2-3.2-.2l1.3-.1c-10.9-.3-19.4 0-28.7.3-1.7 0-3.2-.1-4.5-.2l-16.6.1h-4.4.7c.4-.1 0-.1 1.1-.1-2.9-.1-4.4 0-5.5.1h-6.9c-1.4-.6-11.2.1-17.4-.3h1.5c-4.8-.2-11.6.2-19.4.2 0 0 .4-.1 0-.1-1.9.1-4.3.2-7.1.3-4.2 0-8.4-.1-12.6-.2-6.6-.1-7.3.1-11.3.3l-1.4-.3-1.5.1c-.2 0-.3-.1-.4-.1h6.3c-3.2-.4-8.2 0-11.5 0l.4-.2c-7.2 0-9.1.3-13.9.4-1.7-.1-3.5-.1-5.4-.1-1.5-.1-5-.2-7.2-.1 1.2 0 2.4 0 3.5.1-2 0-4.1 0-6.3.1l1.6.2h-2.3l-1.4-.3c-2 .1-5.6.2-9.6.3-.1 0-.4 0-.6.1-.8 0-1.5 0-2.3.1h-.3l-.1-.2-2 .1c3.8-.1 8.4-.2 11.6-.4-3.7 0-12.6 0-14.6.2l4.9-.1c-3.2.2-7.1.4-11.8.4-6.6-.1 1.8-.6-10-.6-2 0-4.7.1-7 .2h-3.6l.1-4.8c0-1.7.1-3 .2-4-.3-13.1.1-26 .1-41.3l-.6-3.5v-6 .7l.4-10.8c.2-2.6.1 3.4.3 3.1 0-7.8.3-3.3.4-8.4-.2 1.1-.3-2.7-.2-7.1l-.3 6.3c-.3-10.9.5-9.4.2-20.4l.2 3.5c-.1-5.6 0-20.8-.5-26.3.1-1 .2-2.3.3.2.1-13.5-.5-29.9-.2-40.4l.1 1c0-2.5-.3-4.4-.1-7.5.1.2.1 1 .2-.2-.1-1.3-.3-6.7-.2-10l.2 2.8c.2-12.1-.3-19.1-.5-28.7v-2.4000000000000004c.4 0 .6-10.3.7-15.5l.1.2c.1-15.3-.4-26-.5-40.1.5-8.8.2-29.8.5-43.9-.1 2.2-.3-.4-.4-2.9.1-3.3-.3-9.2.1-8.6v1.2c.4-2.5.3-9.3.3-14.6l-.5-.9c.4-6.5.3-14.9.2-22.8 0-3.7 0-7.2-.1-10.5 0-3.8 0-7.1.2-9.5v.8-.8c0-.4.1-.9.1-1.2-.1-3.4-.1-7.5-.3-10.8l.3.2c.1-9.3.1-13.9 0-25.4l.2 2.3c0-4.3-.4-6.5-.6-9.3 0-3.2.1-6.4.2-5.1v-1.5c0-11.3.4-22.8 0-33.9.1.2.2.5.2 2.3 0-3.7.1-12.3 0-16.4 0-1.2.1-2.3.1-3.3l.1 3.8c-.1-2.3-.1-4.1-.1-6l-.2 2.1c0-2.2 0-4.1.1-4-.1-.8-.1-.8-.2-.7v-.8l-.1-5.8v-1.3s0-.1.1-.2c.1-.4.2-.8.2 1.1v-5 .1.8h1.4000000000000001c.6 0 1-.1 1.5-.1 1-.1 2.3-.2 6.4-.2-1.2.2 2.1.3 3.6.3-3.7 0-1.8-.3 1.6-.4 5.9.1 6.4-.1 9.5-.1h-1.7c1.2 0 1.8-.1 3.3-.2h3.2c.4.1-3.7.1-2.3.2 3.3-.2 7.2 0 11.4.1h5.300000000000001c2.9.1.3.3 2.9.4 5.1-.2 6.8 0 10.1.1l-1.8.2c1.2 0 2.6-.1 4.1-.2h2.8-.4c2-.1 4-.1 6.1-.2 3.3.1 6.3.1 9.3 0h2.2l4.8.1c.7.2 7.2.1 10.3.1-.3-.3 3.8-.2 0-.5h-2.6.7l-.7-.4c1.9-.2 6.8 0 10.3-.1h.1c-.3.2 2 .3 3.6.4-.1-.1.9-.1 2.3-.1.7 0 1.2.1 1.5.1 9.6-.2 22.5-.1 28.5-.6h1.3c-1.3.1 0 .2-1.2.3h-.3c-.5 0-1.4.1-2.7.1 3 0 5.7 0 5.7-.1 1.7.1 8.3-.3 11-.1.7 0 1.1-.1 1.9-.2h3.1c.2 0 .2.1.1.1h.6c.9.1-4.2.2 3.2.2h-1.2c10.9.3 19.4 0 28.7-.3 1.7 0 3.2.1 4.5.2l16.6-.1h4.4-.7c-.4.1 0 .1-1.1.1 2.9.1 4.4 0 5.5-.1h6.9c1.4.6 11.2-.1 17.4.3h-1.5c4.8.2 11.6-.2 19.4-.2 0 0-.4.1 0 .1 1.9-.1 4.3-.2 7.1-.3 4.2 0 8.4.1 12.6.2 6.6.1 7.3-.1 11.3-.3l1.4.3 1.5-.1c.2 0 .3.1.4.1h-6.3c3.2.4 8.2 0 11.5 0l-.4.2c7.2 0 9.1-.3 13.9-.4 1.7.1 3.5.1 5.4.1 1.5.1 5 .2 7.2.1-1.2 0-2.4 0-3.5-.1 2 0 4.1 0 6.3-.1l-1.6-.2h2.3l1.4.3c2-.1 5.6-.2 9.6-.3.1 0 .4 0 .6-.1.8 0 1.5 0 2.3-.1h.3l.1.2 2-.1c-3.8.1-8.4.2-11.6.4 3.7 0 12.6 0 14.6-.2l-4.9.1c3.2-.2 7.1-.4 11.7-.4 6.6.1-1.8.6 10 .6 2 0 4.7-.1 7-.2h3.6l-.1 4.8c0 1.7-.1 3-.2 4 .3 13.1-.1 26-.1 41.3l.6 3.5v6-.7l-.4 10.8c-.2 2.6-.1-3.4-.3-3.1 0 7.8-.3 3.3-.4 8.4.2-1.1.3 2.7.2 7.1l.3-6.3c.3 10.9-.5 9.4-.2 20.4l-.2-3.5c.1 5.6 0 20.8.5 26.3-.1 1-.2 2.3-.3-.2-.1 13.5.5 29.9.2 40.4l-.1-1c0 2.5.3 4.4.1 7.5-.1-.2-.1-1-.2.2.1 1.3.3 6.7.2 10l-.2-2.8c-.2 12.2.3 19.1.5 28.8v2.3c-.4 0-.6 10.3-.7 15.5l-.1-.2c-.1 15.3.4 26 .5 40.1-.5 8.8-.2 29.8-.5 43.9.1-2.2.3.3.4 2.9-.1 3.3.3 9.2-.1 8.6v-1.2c-.4 2.5-.3 9.3-.3 14.6l.5.9c-.4 6.5-.3 14.9-.2 22.8 0 3.7 0 7.2.1 10.5 0 3.8 0 7.1-.2 9.5v-.8.8l-.1 1.2c.1 3.4.1 7.5.3 10.8l-.3-.2c-.1 9.3-.1 13.9 0 25.4l-.2-2.3c0 4.3.4 6.5.6 9.3 0 3.2-.1 6.4-.2 5.1v1.5c0 11.3-.4 22.8 0 33.9-.1-.2-.2-.5-.2-2.3 0 3.7-.1 12.3 0 16.4 0 1.2-.1 2.3-.1 3.3l-.1-3.8c.1 2.3.1 4.1.1 6l.2-2.2c0 2.2 0 4.1-.1 4 .1.8.1.8.2.7v.8l.1 5.8v1.3s0 .1-.1.2c-.1.4-.2.8-.2-1.1v5-.1-.8h-1.4000000000000001c-.6 0-1 .1-1.5.1-1 .1-2.3.2-6.4.2 1.2-.2-2.1-.3-3.6-.3 3.7 0 1.8.3-1.6.4-5.9-.1-6.4.1-9.5.1h1.7c-1.2 0-1.8.1-3.3.2h-3.2c-.4-.1 3.7-.1 2.3-.2-3.3.2-7.2 0-11.4-.1-.3.6-.4.6-.4.6zm-27.3.2c-.1-.1-.6-.1-1.1-.2h10.9-.1l-3.8.2c3.7 0 7.7-.1 10-.1-6.5 0-10.6.3-15.9.1zm11.8-.3c-.1 0-.3 0-.5-.1h2.4l-1.9.1zm-34.4-.1c.2-.1.4-.1.8-.1 2.1 0 2.8 0 3.1.1h-3.9zm-80.7 2h-.1.1zm-205.4-492.1v.9-.3-.6zm.1 68.2v.8-.8zm65.9-68.7c.1.1.6.1 1.1.2h-10.9.1l3.8-.2c-3.7 0-7.7.1-10 .1 6.4 0 10.5-.3 15.9-.1zm-11.8.2c.1 0 .3 0 .5.1h-2.4l1.9-.1zm34.4.2c-.2.1-.4.1-.8.1-2.1 0-2.8 0-3.1-.1h3.9zm80.6-2h.1-.1zm205.4 423.8v-.8.8zm-352.4-423.9c-.1 0-.3 0-.7.1h-.8c.4-.1.9-.1 1.5-.1zm330.2 494.4c.1 0 .3 0 .7-.1h.8c-.3.1-.9.1-1.5.1z"/><path fill="#61C36E" d="M584 382l-1.6-.1c-1.3-.1-2.4-.1-3.6-.2-2.3-.1-4.4-.1-7.1-.2.1-.4-4.8-1-7.3-1.3l.1-.1c-7.3-.6-12.4-.6-19.1-1-4.1-.8-14.1-1.2-20.8-1.9 1 .1-.2.3-1.4.3-1.6-.2-4.4 0-4.1-.4h.6c-1.2-.5-4.4-.6-6.9-.7l-.5.5c-6.6-1.2-17.4-.7-20.9-1.6-1.6 0-3.6-.1-5.2 0l.1-.3c-4.4-.3-6.6-.4-12.1-.6l1.1-.2c-3.1-.2-3.9.6-6.8.5l-.8-.5c-5.4-.2-10.8-.8-16.2-.5.1-.1.3-.2 1.1-.2-2.5-.1-9.8-.5-8.9.1-.1-.4-5.6-.2-8.5 0l.5-.3c-2.5.3-2.5.4-6 .5-.8 0-.7-.2.4-.1-2.7-.2-2.1.2-5.4.1l1.2-.2c-2.8 0-2.6.1-4.1.3-1.8.1-5.3-.1-5.7-.3-.4.2-1.9.4-3.5.3-.2-.1.4-.2.7-.2-4.7-.1-6.9.4-10.1.2-.1-.1-.3-.1-.5-.2 3.4-.1 6.2-.1 6.4-.1 0-.3-3-.3-.6-.6-2.4.2-6.5.7-9.4.7-.1 0-.3 0-.4-.1h.3c-.7 0-1.3 0-1.8.1h-2.4c-.4-.2-3.4 0-4.9 0 .1.3-1.8.3 0 .5-.2 0 .3 0 1.3-.1h.6-.1l3.7-.1c-1.2.2-2.4.3-4.1.2-.8.2-1.6.4-2.1.5l-6.6-.6c-4.6.3-10.7.5-13.6 1.2-1.3.1-1.5-.1-2-.1.7-.1 1.6-.1 2-.2-2.6.3-7.7.4-8.3.8-3.3 0 1.8-.4-2.7-.1l.6-.1c-8.9-.1-14.3 1.8-24.1 1.7.7 0 1 0 1.2.1-11.2.4-22.9 1.9-33.9 2.3-3.1.2-3.4.4-5.3.8l-.7-.2-3.2.6c-4.6.7-8.1 0-13.8 1l.8.1c-2.1.2-6.6.7-6.3.5-.2.1-.7.3-1.5.2l-.1-.2-5.1.8c-4 .3.6-.7-5.3-.1-1.8.2-4.7.8-5.3 1v.1c.9-.1 2.2-.1 2.3 0l-1.7.3h-.2s0 .1-.1.1h-.3v85h328v-87.7zm-191.6-8.2h-.1c.1-.1.2-.1.4-.2 1-.1 1.3 0 1.5 0l-1.8.2z"/><path fill="#267D50" d="M466.9 415.7l-.1-.3c-.7-.4-1.3-.8-1.9-1.2-.6-.4-1.4-.8-2.3-1-.4-.1-.9-.3-1.3-.3-.3-.1-.6-.1-.9-.1-.6-.1-1.2 0-1.7.1-.1 0-.3.1-.3.1h-2.2s-2.6.1-4.2.3c-.8.1-1.4.2-1.3.7 0 .1.1.3.3.5-.1 0-.2 0-.4-.1l-3.4-.9c-.5 0-1 0-1.6-.1 1.8-.5 1.9-1.1 1.6-1.5-.4-.4-1.5-.7-1.5-.7-2.3-.7-3.6-.3-6.5-.4l-2.9-.4c-.4 0-.8-.1-1.3-.1-.2 0-.5 0-.8.1-.3.1-.5.1-1.2.2-1.2.2-2.3.7-3.1 1.2-.9.6-1.5 1.3-2 1.9-.1.3-.3.7-.6 1.1l-.5.7c-.1.2-.1.4-.1.5.2.1.3.2.5.2l.1.3c.4.2.8.3 1 .6h-.1c.6.2 1 .6 1.4.6h-.1c.2.1.4.2.7.3h-.2c1.1.3 2.1.7 3 1v-.2c.2.1.5.2.6.3.1 0 .2.1.4.1.2.1.4.1.6.1.4.1.7.1 1.2.4-1.1.1-2.7.2-3.8.4-1 .2-1.7.4-1.6.7.1.1.2.2.5.3h-.5l-3.5 2.8h-2c2.3-.5 2.4-.9 2-1.2-.5-.3-2-.5-2-.5-3-.5-4.6-.1-8.2.2-1.6 0-2.7.1-3.8.2l-.8.1-.4.1c-.2.1-.5.1-.8.2-1 .3-2.2.8-3.1 1.6-.7.6-1.2 1.2-1.5 2l-.4 1.1c-.1.2-.1.3-.1.5l-.1.4 1.5.4c.7.1 1.5.3 2.3.5.8.2 1.8.3 2.5.3l.3.2c.3 0 .7 0 1 .1.5-.1.9.1 1.2 0h.5l-.1.1c.8 0 1.6 0 2.3.1v-.2l3.4.3c1.7-.4 2.7.5 4.5 0-.2.1.1.1.1.1.8 0 1.7-.1 1.7-.4.6 0 .5.1.6.3 0-.2.5-.2 1-.2l-.2.1 1.3-.1-.3-.3c.7.1.2.4.9.3v-.3c1 0 1.5.4 2.5.6 3.9 0 8-1 11.7-1.3l.2.2c.1.3.9-.6 1.1-.4l.4-.2c.1 0 .4 0 .2.1.4-.1.4-.1.6-.3l.5.1c1.6-.3 2.8-1.1 4.3-2 .3-.1.6-.3 1-.6l.3-.2.3-.3c.2-.2.4-.5.6-.8.6-.9.8-2.1.7-3h.2l.1.2.9-.2.3-.2c.1.1.3.1.1.2.3 0 .3-.1.5-.2l.3.2c1.3.1 2.3-.5 3.6-.7.4 0 .9 0 1.5-.2.9-.3 1.8-.7 2.5-1.2s1.3-1.2 1.6-1.8c.4-.6.6-1.3.8-1.9l.1-.3c-.1.1-.1 0-.2 0z"/><path fill="#fff" d="M307.4 357.1c.3.1.4.3.5.6.1.2.3.5.6.6l-.1.3c.2 0 .4.1.4.3h-.1c.3 0 .4.3.6.3h-.1c.1.1.2.1.2.2l-.1.1c.5.1.8.3 1.1.6l.1-.3c.3.3.6.4.8.4.3 0 .5 0 .8.3v.1c.5-.3.8-.1 1.2 0 .3.2.7.3 1.1-.2-.1.1.1.2.1.2.4-.1.8-.3.6-.9.3-.1.3.1.4.3-.1-.3.1-.4.3-.5l-.1.1.5-.3-.2-.3c.3 0 .3.5.5.3l-.2-.4c.4-.1.9.3 1.4.4.2-.1.3-.2.6-.4.2-.2.4-.3.5-.5.3-.3.5-.7.7-1.1.4-.7.8-1.4 1.5-1.9l.3.1c.4.2-.4-.7 0-.6l-.1-.3c.1 0 .2-.1.3 0 .1-.2 0-.2-.1-.4l.3-.1c.2-.3.2-.6.2-1.1 0-.4-.1-.8 0-1.3.3-.6.2-1.4-.2-2.1-.5-.7-1.2-1.2-1.7-1.4-.8-.2-1.4-.8-2.2-1.2-.2-.1-.4-.2-.7-.3-.2-.1-.4-.1-.6-.1-.4 0-.8 0-1.1.3-.1-.1-.1.1-.1.2-.4.1-.8.2-1.3.3 0 0-.4.1-.8.4l-.4.3c-.4-.3-.8-.3-.8-.3-.8-.1-1.3.2-1.8.6-.5.5-.9 1.1-1.5 1.9-.6.6-1.1 1.1-1.4 1.6-.3.5-.6 1.2-.5 2.2-.1 1.3.2 2.3.6 3zM479.2 331.6c.1 0 .1-.2 0-.2.3-.4.6-.8.8-1.3 0 0 .2-.5.2-1.1.1-.6-.1-1.4-.4-1.9-.3-.5-.7-.7-1.1-.5l-.2.1-.3-.5c.5.1.8.3 1.1.3.4.1.7-.1.9-.2.2-.2.2-.6.2-.9 0-.3-.1-.5-.1-.5-.3-1-1-1.5-1.7-1.8-.7-.3-1.5-.4-2.4-.5-.8-.2-1.2-.5-1.7-.6-.5-.1-1-.2-1.8-.1-.7 0-1.5.3-2.1.5-.2.5-.9.2-1.2.7l-.2-.2c-.1.2-.2.3-.4.2v-.1c-.1.2-.4.2-.4.3v-.1l-.2.1v-.1c-.3.3-.6.5-.9.6l.2.2c-.4 0-.6.2-.7.4-.2.2-.3.3-.7.4v-.1c-.1.5-.4.7-.8.8-.3.2-.7.4-.7 1l-.2-.1c-.2.4-.4.9.1 1.1-.1.3-.3.2-.5.2.2.1.2.4.2.6l-.1-.1v.8l.5-.1c-.1.4-.6.1-.5.4h.4c0 .2-.2.5-.3.7-.1.2-.3.5-.3.8v.2l.1.1s0 .1.1.1c.1.2.2.3.2.4.2.2.3.5.6.7.4.4.9.7 1.3.9.9.5 1.8.7 2.5 1.2v.3l.6-.1.2-.2c0 .1.1.2 0 .2.2 0 .2 0 .3-.1l.2.3c.7.3 1.3-.2 2-.2.5.2 1.1.2 1.7-.1.6-.2 1.2-.6 1.6-.9.5-.5 1.2-.6 2-.8.8.1 1.6-.3 1.9-1.2zm-.8-4.8l-.1.1v-.2l.1.1zM331.2 324.9c.1-.1.1-.2-.3-.3.1.2-.4.3-.4.1l.2-.1c-.1-.1-.2-.1-.2-.2.2 0 .3-.1.2-.3h.3l-.6-.1-.4-.8s-.4-.5-.7-.3l.2-.5c-.3.1-.8 0-.8-.3-.4-.6-1.1-.2-1.5-.7-.1.3-.3 0-.4.4-.6.1-.7-1-1.2 0-.2 0-.2-.3-.3-.4h.1c-.4 0-.6-.1-.9-.2-.2.1-.3.6-.6.4.1-.2 0-.2-.1-.2.1 0 .1-.1 0-.2 0 .1-.1.1-.1.1-.2 0-.2.1-.1.1v.1c-.1-.3-.5-.1-.5-.4-.6 0-1 .3-1.5.4-.1-.2.1-.3.2-.4l-.4.1c0-.3.2-.1.3-.2-.1-.1-.2-.1-.3-.1l-.4.1c-.3.1-.5.3-.9.2 0 .1 0 .1-.1.2 0 .1 0 .3-.1.3-.2-.2-.2-.5-.5-.4-.3-.1-.6.4-.7.7.2-.1.2.1.2.2l-.3.1-.2-.2c.2.2 0 .5 0 .6-.2-.1 0-.3-.1-.4-.2.2-.2.3-.3.4 0 .1-.1.1-.2.4 0 .4.3.1.4.4-.1.3.1.5-.2.7h.3c.1.5 0 .7-.3.9.2.3.3.5.5.6v.30000000000000004c-.1 0-.2.1-.4.1-.3.2-.8.5-1.2 1.1h-.1c-.2.8 0 1.3.6 1.6-.2.1-.2.3-.1.4.1.1.3.2.2.4.3.1.4.3.4.5.1.2.2.5.5.5l-.2.1c.3.2.7.3.5.6.6.4 1.5 1 2.1.6l-.1.1c.3-.2.3.1.6 0v.1c.3-.3.7.1 1 0v.2h.5l.2-.3c.1-.6.3.4.7.1.3.1.7-1.2 1-.9.1-.3-.1.4.1.2 0 .3-.1.2 0 .4.2-.2.4.3.7.1v.2c.3-.5.8.2 1-.2.4-.3.4.6.8.1l.3.3c.2 0 0-.4.3-.3.1.2.3 0 .3.3.3 0 .5-.2.7-.4.2-.2.5-.4.9-.5-.1-.4.3-.5.2-.8.1.1.5-.6.5 0 0 .1-.1.1-.1.1l.1.2c.3 0 .4-.3.5-.5 0-.3 0-.5.2-.7-.1.1-.2.3-.3.1.1-.1.2-.3.2-.4l.1.2.3-.6h-.3c.2-.3.7-.3.4-.8-.2-.2-.4.3-.4-.1l.3-.7.1-.2v-.6000000000000001c-.3.1-.3-.1-.4-.2l.2-.1c-.4-.5.5-.3 0-.8h-.4c.1-.4.2-.5.2-.6zM509 347c0-.2.1-.2.1-.3-.1-.3-.2-.4-.2-.6-.1-.1-.3 0-.3-.2.1 0 .1 0 0-.1 0 0 .1 0 .1-.1h-.1c-.1-.1-.1-.1-.1 0 0-.2-.2-.3-.1-.4-.2-.3-.5-.3-.7-.5 0-.1.1-.1.2 0l-.2-.1c.1-.1.1 0 .2.1 0-.3-.5-.2-.6-.5h-.30000000000000004c0-.1.1-.2 0-.2 0-.1-.3-.2-.4-.2v.1l-.1-.1.1-.1c-.1.1-.2 0-.3 0l.2-.1-.3-.2c-.2 0-.1.1-.2.2-.1-.8-.3-1.6-.7-2.5-.2-1-.4-1.6-.6-2.2-.2-.6-.6-1.1-1.3-1.6-.6-.6-1.4-1-2.1-1.3l-1.4-.3v-.3c-.2.1-.4.1-.5-.1v-.1c-.3.1-.5-.1-.6 0v-.1h-.3l.1-.1c-.4.1-.8 0-1.1-.2v.3c-.7-.5-1 .1-1.6-.3v-.1c-.5.4-.8.3-1.1.1-.4-.1-.8-.2-1.2.3.1-.1-.1-.2-.1-.2-.4.2-.9.4-.7 1-.3.1-.3-.1-.4-.3.1.3-.1.5-.3.6l.1-.1c-.2.1-.4.3-.6.5.1.1.3.2.4.4-.4.1-.4-.5-.7-.1l.3.3c-.4.2-1.1 0-1.8.3-.8 1-1 2.4-.8 3.5.2 1.2.6 2.1.7 3.1l-.2.2.5.4.3.1c0 .1 0 .3-.2.2.1.2.2.1.4.2l-.1.3c.3.8 1.2.8 1.7 1.4.2.5.7 1 1.3 1.2.6.3 1.4.4 1.9.4.8-.1 1.4.5 2.1.9.8.4 1.7.7 2.7.1.1.1.2-.1.2-.2.6-.1 1.1-.3 1.7-.6 0 0 .1 0 .1-.1.1.1-.1.3.2.3v.2c.1.1.2-.1.2.1-.1.1.1.2 0 .2.2.3.6.2.9.5l.4-.1c0 .1.4.1.1.2l-.1.1c.2.3.5 0 .7.1-.1 0-.2 0-.1-.1h.2l-.1.1.3.1v-.1c.2.1.2.2.4.1.1-.1-.2-.1 0-.2.2.1.5.1.8.1 0-.1 0-.1.1-.2v.1h.3v.1-.2l.3-.2c-.1 0-.1-.2 0-.2v.1c.1 0 .1-.1.1-.1 0 .1 0 .1.1.1v.1l.1-.2c.2 0 .3-.2.5-.1 0 0 .3-.1.3-.3 0 .1.2 0 .2.2 0-.1.2-.4.4-.4.4-.2.5-.7.8-1l-.1-.2c0-.2.1-.4.2-.6 0-.1-.1-.2-.3-.3zM450.2 419.7c.4-.1 0-.2.1-.3l-.1-.4h.1c-.1-.1-.2-.2 0-.3-.1-.2-.1-.6-.5-.6h.1c-.3 0-.1-.1-.2-.2h.1c-.3 0-.1-.3-.2-.3h.1l-.1-.2v.1c-.4.1.2-.2-.1-.3 0-.1-.9 0-.7-.2-.2 0 .3 0 .1-.1l.3-.1c-.1-.1.2-.2 0-.3l.2-.1-.2-.3c-.2-.1.4-.3.1-.3l.2-.1c0-.1-.3.1-.2-.1l.2-.1c.1-.2-.4-.2-.2-.6-.3.1-.2-.1-.4-.1.1-.1-.1-.2.2-.2l.2-.1c.2-.2-.3-.1-.3-.3 0 .1 0 .1-.1.1v-.1h.1v-.2l-.1.1c0-.1.3-.3 0-.3-.1 0-.2.2-.3.1.1-.2.1-.4.1-.5-.2.1-.2.1-.2 0l.1-.1c-.3 0 .3-.2.1-.3l-.2.1c-.4 0 .3-.2-.2-.2.1 0-.3.2-.3.1l.1-.1h-.1c.1 0 .2-.1.2-.1l.2-.1h-.3v-.3s0-.2-.2-.1l.3-.2c-.2.1-.4 0-.3-.1 0-.1-.1-.2-.2-.2.5-.9.9-1.8 1.1-2.8 0 0 .3-1.3.2-2.9-.2-1.6-.9-3.4-1.8-4.3.4-.1.7-.3.9-.5.4-.6.5-1.6.3-2.4-.1-.8-.5-1.4-.5-1.4-.5-1.3-1.4-2.3-2.2-2.9-.8-.7-1.7-1-2.5-1.3-1.7-.5-3.4-.5-5.5-.8-1.7-.6-2.8-1.1-3.9-1.5-1.1-.4-2.3-.7-4.1-.4-1.8-.1-3.6.3-5.3.7-.6 1-2.2.4-3 1.4l-.5-.4c-.3.3-.6.6-1 .5v-.2c-.4.5-1 .5-1.2.8v-.2l-.6.3v-.2c-.7.7-1.5 1.1-2.4 1.3l.4.5c-1 .1-1.5.6-1.9 1-.4.5-.8.9-1.8 1.1l-.1-.1c-.3 1.4-1.1 1.8-1.9 2.4-.8.6-1.7 1.4-1.5 3-.1-.4-.4 0-.5-.1-.3 1.3-.4 2.6.9 2.8-.1.8-.5.6-1 .7.3 0 .5.3.6.6-.3-.1-.6-.1-.6-.1-1.6 0-2.2.8-3.6 1.7-1.3.7-1.9.6-3 1.7-.6.5-1.1 1.1-1.6 1.7 0 .4-.6.8-.6 1.3l-.2.1c0 .2-.1.3-.2.4 0 .3-.2.5-.2.6l-.1.3v-.1c0 .4-.2.8-.3 1.2h.2c-.4.8 0 1.1-.1 1.9.3.5.4.8.4 1.2.1.4.2.8.7 1.1l-.1.1c.3.3.7.6.9.4.2.2.1.2 0 .4.1-.1.3 0 .5.1h-.1c.2.1.4.2.5.3l.1-.3c.2.3-.2.4.2.5l.1-.2c.2.1.3.3.4.5.1.2.3.4.5.6 1 .4 2.1.4 3.1.2s1.8-.5 2.7-.6l.1.2c.1.3.3-.6.4-.4l.1-.2c.1 0 .2 0 .1.1.2-.1.2-.1.2-.2l.3.1c.7-.2 1.1-.8 1.7-1.2.8-.2 1.6-1.1 2.1-1.9l1.1.6.4.2.2.7h-.1c.1.1.1.3.5.2 0 .1-.1.1-.2.1.2 0 .2 0 .3.1h-.1l.1.2.3-.1c-.1.1-.4.1-.3.2h.3c0 .2-.4.3-.6.5 0 .6.7 1.2.3 1.8h-.2c-.3 0 .4.1.2.2l.1.1s-.1.1-.2 0c0 .1 0 .1.1.1l-.2.1.2.7c-.3.3.1.9.3 1.2.5.4-.6 1-.1 1.5l.1.1v.4s-.1 2.1 2.3.5h.1c.1-.3.2-.4-.1-.6.4 0 0-.2.2-.3-.3-.1.2-.3 0-.5h.1c-.1-.1-.1-.2.1-.3-.1-.3 0-.6-.4-.8h.1l-.2-.2h.1c-.2-.1-.1-.3-.2-.4h.1l-.1-.2v.1c-.4 0 .2-.2 0-.3 0-.1-.9-.2-.7-.4-.2 0 .3 0 .2-.1h.3c-.1-.1.2-.2 0-.3h.2l-.1-.4c-.2-.1.5-.2.1-.3l.2-.1-.2-.1.2-.1c.2-.2-.4-.3 0-.6-.3 0-.1-.2-.3-.2.1 0 0-.2.3-.1h.2c.3-.2-.2-.2-.2-.4 0 0 0 .1-.1.1v-.1h.1l.1-.2h-.2c.1-.1.4-.2.1-.2-.1 0-.2.1-.3 0 .1-.1.2-.3.3-.5h-.2.2c-.1 0-.1-.1 0-.1 1.1.4 2.1.8 3 1.4l.1.7c-.1 1 1.4-1.2 1.4-.3l.4-.3c0 .2.1.3.2.5h.1c.3.4.6.7.4 1.2l-.2.1.2.1h.1s-.1.1-.2.1l.1.1-.2.1c-.1.3.3.4.3.6-.3.4.2.8.4 1.1v1.5h.1v.4s0 .5.3.8c.3.3.8.5 2-.4h.1c.1-.3.2-.5-.2-.6.4-.1 0-.2.1-.3l-.1-.5h.1c-.1-.1-.2-.2.1-.3-.1-.3-.1-.7-.4-.8h.1c-.3-.1-.1-.1-.2-.2h.1c-.3-.1-.1-.3-.2-.4h.1l-.1-.2v.1c-.4.1.2-.2-.1-.3 0-.2-.9-.1-.7-.3-.2 0 .3 0 .1-.1l.3-.1c-.1-.1.2-.2 0-.3h.2c-.3-.1.1-.4-.2-.4-.2-.1.4-.2.1-.3l.2-.1-.2-.1.2-.1v-.1c1-.2 2-.6 3.1-.6 1.1.5 2.7.3 4.2-.2.7-.2 1.4-.6 2-.9l.1.1.1.1h-.2c0 .1 0 .1.1.1h-.2c-.2.2.1.4 0 .6-.4.2-.2.7-.1 1.1.3.5-.9.7-.5 1.2 0 0 0 .1.1.1l-.2.3s-.2.4 0 .8c.2.3.6.7 2 .4h.1c.2-.2.3-.3 0-.5.4.1.1-.2.2-.2l.1-.4s.1 0 .1.1c0-.1-.1-.3.2-.2 0-.2.2-.5-.1-.8h.1c-.2-.1 0-.1-.1-.2h.1c-.2-.1 0-.3-.1-.4h.1v-.2.1c-.4-.1.3-.1 0-.3.1-.1-.8-.4-.6-.5-.2-.1.3.1.2 0l.3.1.1-.2h.2v-.4l.2-.2h.2c0-.1-.3-.1-.1-.1.1 0 .1-.1.3 0 .2-.1-.3-.4.1-.5-.3-.1-.1-.2-.3-.2.1 0 0-.2.3-.1h.2c.3-.1-.1-.2-.1-.4-.1 0-.1.1-.2 0v-.1h.1l.1-.2h-.2c.1-.1.4-.1.2-.2h-.3c.1-.1.3-.2.4-.4-.2 0-.2 0-.2-.1h.2l.2-.2-.2-.1c-.3-.2.2-.1 0-.2 1.1-.5 2.4-.7 3.8-1.1 1-.3 2-.7 2.8-1.3.4-.3.7-.6 1-1 .2.5.9.7.7 1.3l-.2.1.2.1h.1s-.1.1-.2.1c0 .1.1 0 .1 0l.2.6c-.1.2.3.3.3.5-.3.4.2.7.5.9.5.3-.5 1 .1 1.3h.1v.4s.2 1.9 2.3.1h.1c.1-.2.1-.4-.2-.5zm-39.9-11.1v-.1.1zm-1.5-.2l.3-.3c0 .1 0 .2.1.2-.1 0-.3 0-.4.1zm27 12.3h-.1c.1 0 .2-.1.2-.1l-.1.1zm8.6-19.3l-.5.5c-.1-.3-.3-.6-.5-.8.4.1.7.2 1 .3zm-.7.9s0 .1-.1.1l-.2-.4.3.3zM491.1 62.1c1.2 1.8 2.9 3.7 4.3 3.5 1 1.1.5 1 .1 1.2.6-.1 1.8.8 2.8 1.4l-.7-.2c1 .7 2 1.3 3.3 1.8l.3-.9c.7.5.6.7.5 1-.1.2-.1.4.9.7l.6-.6c.6.3 1.1.6 1.6 1l.3.3.2.2.1.1c.1.2.2.3.2.5.1.3.2.6.1.8 0 .1 0 .2-.1.3l-.1.1h-.2v.2c0 .2.1.6.1 1l.1 1.6c.1.6.1 1.2.3 2.1.2.8.5 1.7.9 2.4.3.6.7 1.1 1 1.6.7 1 1.5 2 2.3 2.8 3.3 3.4 6.9 5.8 9.6 8.6l-.1.7c-.4.8 2.5.2 2.2 1l.9.2c.1.3.4.7 0 .6.6.5.7.4 1.4.5l.4.9c2.3 2.2 4.8 2.9 6.7 5.3.8 1.8 2.6 4.1 4.8 6.3 2.1 2.3 4.7 4.4 6.8 5.7 1.6.9 3.1 1.9 4.9 2.8.9.5 1.9.9 2.9 1.2 1.1.3 2.2.6 3.6.6.7 0 1.4 0 2-.2.7-.2 1.3-.4 1.9-.8 1.3-.8 2.1-1.4 2.9-2.2 1.5-1.5 2.6-3.2 3.2-5.2.1-.1.2-.3.2-.5v-.5c.7-1.7 1.1-3.6.9-5.4-.3-1.2-.9-2.3-1.6-3.4 0 0-.4-.6-1.3-1.4l-.7-.6-.4-.3-.4-.3c-.5-.4-1.1-.7-1.7-1-2.4-1.2-5-2-6.5-2.7-.8-.3-1.3-.5-1.8-.7-.5-.1-1-.2-1.3.2-.2.2-.4.6-.4 1.3-.2-.3-.4-.5-.5-.8l-.4-.4c-.9-1.1-1.8-2.2-2.6-3.4 1.6 1.2 2.9 1.7 3.7 1.9 1.3.3 1.7-.2 1.7-.9 0-1.4-1.3-3.9-1.3-4-2.3-5.5-4.9-7.6-9.6-14.1-1.8-3-3-5.1-4.5-7-.7-1-1.6-1.9-2.6-2.9-.5-.5-1.2-1-1.8-1.4l-.9-.7c-.4-.2-.8-.5-1.2-.8-3-2.3-6.6-3.8-9.8-5.1-1.8.1-4.2-1.7-6.2-1.6l-.5-.7c-.1 0-.5 0-.8-.1-.3 0-.6-.1-.9-.2-.6-.1-1.1-.3-1.6-.6l.1-.1c-1.6-.1-3.3-.8-4-.7v-.1l-1.8-.4.2-.2c-1.2-.1-2.4-.2-3.9-.7-1.3-.3-2.5-.5-3.5-.5l.8.7c-.6-.1-1-.1-1.4-.1-.4 0-.7.1-1 .1-.5.1-.8.2-1 .3-.3.1-.5.1-.9.2s-.9.2-1.7.6l-.1-.1c-.2.5-.4 1-.7 1.5-.6 1.7-.9 2.9-1 4.2-.1 1.2.1 2.6 1.8 4.4-.1-.5.1.1-.1.1zm15.6 10.3v.30000000000000004h-.2l-.1.1-.3.1-.3.1c1.9-1.2.4-.2.9-.6zM333.1 31.1l-.1-.1h-38.5c.5 1.4 1.2 2.6 1.8 3.6 1 1.6 2.1 2.8 3.4 3.9-.6 1.1 2.2 3.3 2.5 4.4h-.1c2.4 1.8 2.8 5.2 4.3 6.7-.1 0-.4.1-.6-.4.5.8.6 1 .6 1.5 0 .6-.2 1.3-.5 1.3 0 .6-.1 1.3-.1 2.3 0 1 .2 2.1.5 3.1.7 2 1.7 3.5 2.7 4.8 2 2.4 4.2 4 5.8 4.7h-.3c1.9.7 1.9 1.5 3.8 2.4 0 .1.1.3.1.3 2 .6 4.8 3.2 6.3 3.8l-.2.4 3.4 2-1.2-.8c1.1-.8 2.1 2.2 4.8 3 2.1 1.5 5.9.7 7.8 2.6 1.4.2-1.5.2.4.8-.3.6-1-.1-.8.6 1.8.7 2.3 2.2 4.6 3l-.2.5c3.1.8 4.5 3.5 6.7 3.9 2.8 1.4.9 2.3 4.1 3.4l.6 1.3c1 .9 1.3-.1 2.3 1.1-.3.3 1.3 1.4.4 1.2 1.1 1.3 2.6 2.2 4.1 3.3.7.5 1.5 1.1 2.2 1.8.4.3.7.7 1 1.1.4.5.8 1 1.1 1.5 1.3.1 2.8 2.1 3.8 2.1-.1.4 3.6 3.1 1.1 2-.2-.1-.5-.4-.4-.5l-.6.2c1.5 2.5 4.1 2.7 6.2 4.5-.5-.6-1.4-1.2-.6-1.1l1.9 1.6h-.7c.9.8 1.9 1.6 2.9 2.4l-.1-.7c1.3 1.3 1.4 2.4 3.5 2.9 1 .2-1.1-1.5.6-.6.5.4 1 .9 1.6 1.4.4.3.9.7 1.4 1l1.6 1.1c2.3 1.4 4.9 2.6 7 2.7-.6-.7.5-.5 1.5-.7l.4.5c.9-.3 1.5-.5 1.9-.6.4-.1.7-.1.9-.1.3 0 .5 0 .9-.2s.9-.7 1.4-1.7c-.1-.4-.1-.8-.2-1.1.1-1 .1-1.6.2-2 .1-.4.2-.6.3-.8.1-.2.2-.5.2-1s-.2-1.4-.8-2.7c.2 1-.1 1.1-.4.7-.3-.4-.7-1.2-.9-2.2l.7.6c-.5-1.3-.8-1.7-1-2.5.5.7.9.4 0-1.6.4.4.8.8 1.1 1.2l-1.2-1.8c-.4-.6-.8-1-1.2-1.5-.5-2.2-2.7-4.5-2.7-5.5 0 0-.6-.9-1.3-1.9-.7-.9-1.7-1.9-2.3-2 .9.3-.5-1.5.4-1.4-1.1-.5-3.6-2.5-4.1-3.8l.2.1c-3-3.7-6.3-4.9-8.9-8.1-.2.6-1.6-1.1-1.7-.2-3.6-2.2-4.4-6.1-7.1-5.5-1.4-1.2-1.2-1.9-1.8-2.7l.4.2c-2.6-2.4-3.3-3.1-5-5-1-.8-2-.3-3.3-2.2.8.3.1-.4-.4-1 .4.4.6.4.1-.6-.2 0-.4-.2-.6-.3 0 0 0-.1.1-.1-1.1-1-1-.7-.6-.2-.1 0-.1.1-.1.3-.6-1.5-2.7-3.2-2.3-3.8-2.9-3.3-5.3-5.4-7.7-8.2.1-.6.8 0 1.6.7l-1.6-2c.5-.3 1.1 1 1.7 1.6-1.1-3-4.4-4.7-5.7-8.2l-.8-.4-.1-.2c-.2.1-.9-.4-1.2-.8.1-.7.9-.5 0-2-.1-.4-.3-.7-.5-1.2-.3-.4-.6-.8-1-1.3-.8-.9-1.7-1.7-2.4-2.4.6.9.2.8-.2.5-.6-.7-.6-1.4-1.2-1.9l.3-.4c-.4.2-2.1-1.5-2.5-1.6 0-.7 1.3.8 1.7.7-1.3-1.4-1.7-1.7-2-2-.3-.3-.6-.6-1.7-1.6h-1.2l-.2-.1z"/><path fill="#DDF1FA" d="M561.2 116.3c1.5-1.5 2.6-3.2 3.2-5.2.1-.1.2-.3.2-.5v-.5l.3-.9-.6-.3c.5.1.4-.2-.7-.7.3 0 .6 0 .9.1-.8-.2-1.5-.4-2.2-.5-1.5-.9-4.1-1-4.7-1.4 0 0-3.2-.6-4-.3.7-.1-1.1-.5-.5-.7-.8.2-3.2 0-4.1-.5h.2c-1.6-.5-3-.8-4.3-1.2-1.3-.4-2.5-1-3.6-1.9-.1.3-1.2-.7-1.1-.2-.7-.4-1.2-.9-1.7-1.4-.5-.5-.9-1.1-1.3-1.6-.8-1-1.4-1.7-2.2-1.8-1-1.1-.9-1.6-1.2-2.2l.3.3c-1.6-2.2-2-2.9-2.9-4.8-.5-.9-1.1-.8-1.6-2.6.4.5.1-.2-.1-.9.2.4.3.5.1-.4l-.3-.4c-.4-1.1-.4-.9-.3-.4 0 0-.1 0-.1.2 0-1.2-.8-3.3-.5-3.5-.1-.4-.2-.8-.3-1.3-.1-.2-.2-.5-.3-.8-.1-.3-.3-.5-.5-.8-.4-.5-.7-.8-1-1l-.9-.7c-1.2-1-2.4-1.8-3.7-2.6-.2-.4.5-.1 1.3.4l-1.8-1.3c.2-.2 1.1.6 1.7 1-1.8-2-4.6-2.8-6.8-4.8l-.6-.2-.1-.1c-.1.1-.7-.1-1.1-.3-.2-.4.3-.4-.9-1.2-.8-.8-2.8-1.7-4.1-2.5.6.5.4.5 0 .3l-1.3-1.1.1-.3c0 .4-1.7-.9-2-1-.2-.4 1 .5 1.2.5-2.2-1.7-1.1-.9-3.4-2.8-1.4-.8 0 .4-.7.1-1.1-.8-2.3-1.5-3.6-2.6l.3.5c-2.3-1.3-3.7-2-5.4-2.7-1.3-.2-2.5 0-3.4.4-.3.2-.6.3-.8.5-.2.1-.4.2-.6.4.1 1.1.4 2.3 1.8 3.7-.5-.5-.3.2-.5.1 1.2 1.8 2.9 3.7 4.3 3.5 1 1.1.5 1 .1 1.2.6-.1 1.8.8 2.8 1.4l-.7-.2c1 .7 2 1.3 3.3 1.8l.3-.9c.7.5.6.7.5 1-.1.2-.1.4.9.7l.6-.6c.6.3 1.1.6 1.6 1l.3.3.2.2.1.1c.1.2.2.3.2.5.1.3.2.6.1.8 0 .1 0 .2-.1.3l-.1.1h-.2v.2c0 .2.1.6.1 1l.1 1.6c.1.6.1 1.2.3 2.1.2.8.5 1.7.9 2.4.3.6.7 1.1 1 1.6.7 1 1.5 2 2.3 2.8 3.3 3.4 6.9 5.8 9.6 8.6l-.1.7c-.4.8 2.5.2 2.2 1l.9.2c.1.3.4.7 0 .6.6.5.7.4 1.4.5l.4.9c2.3 2.2 4.8 2.9 6.7 5.3.8 1.8 2.6 4.1 4.8 6.3 2.1 2.3 4.7 4.4 6.8 5.7 1.6.9 3.1 1.9 4.9 2.8.9.5 1.9.9 2.9 1.2 1.1.3 2.2.6 3.6.6.7 0 1.4 0 2-.2.7-.2 1.3-.4 1.9-.8 1.8-.4 2.6-1.1 3.3-1.9zm-54.5-43.9v.30000000000000004h-.2l-.1.1-.3.1-.3.1c1.9-1.2.4-.2.9-.6zM402.2 120.1v-.2c-.2-.3-.5-.7-.8-1 .8 1.3-.1.9-1-.8l.5.3c-.6-.9-.9-1.2-1.2-1.8.4.5.5.1-.4-1.2l.8.7-2.1-2.3c-.6-1-1.7-2.2-2.7-3.2-1-1-2-1.7-2.3-2.1 0 0-1-.8-2.3-1.5-1.2-.6-2.5-1.4-3.1-1.5 1 .3-1.4-1.1-.6-1-.6-.2-1.8-.6-3-1.1-1.1-.5-2.2-1.1-2.7-1.5l.2.1c-1-.7-1.9-1.3-2.7-2-.4-.3-.8-.7-1.2-1.1l-.3-.3-.1-.1-.1-.1-.6-.7-4.8-5.3c0 .4-1.9-1.6-1.7-.9-1-.8-2-1.6-2.8-2.4-.9-.8-1.7-1.5-2.4-2.1-1.5-1.3-2.7-2.2-3.8-2.2-1.9-1.3-2.1-1.8-3.1-2.5l.5.3c-3.7-2.4-4.7-3-7.4-4.8-1.4-.8-1.9-.5-4.2-2.2.9.4-.1-.3-1-.9.6.4.8.4-.3-.5l-.7-.3v-.1c-1.5-1-1.2-.7-.6-.2-.1 0 0 .1.2.3-.7-.6-1.6-1.4-2.4-2.1-.8-.7-1.4-1.3-1.3-1.6-1.9-1.8-3.7-3.5-5.5-4.8-.9-.7-2-1.3-3-1.8l-3-1.4c-.4-.4.6-.1 1.8.4-1-.5-1.9-.9-2.8-1.3.1-.2 1.6.7 2.6 1.1-1.6-1-3.4-1.7-4.8-2.7-.7-.5-1.3-1-1.4-1.6-.1-.3-.1-.6 0-.8 0-.1.1-.3.2-.4.1-.1.3-.3.4-.5l.4-.9.2-.3c-.1 0 .1-.4.2-.8s.1-1 .1-1.5c.1-.4.2-.4.3-.7 0-.1 0-.4-.1-.7-.1-.4-.4-.9-1-1.5-1.6-2-5-2.7-7-3.4 1.1.5.7.5.2.3-1-.4-1.4-.9-2-1.1l.1-.2s-.1 0-.2-.1c-.2-.1-.5-.3-.8-.6-.6-.5-1.1-1.2-1.3-1.3-.1-.3.2 0 .5.3.4.4.8.8.9.8-1.4-1.4-1.6-2-1.9-2.4-.3-.4-.6-.8-1.7-2.7-1.4-1.9 0 .5-.9-.3-1.1-1.8-2.3-3.4-3.9-5.4l.3.8c-1.4-1.5-2.7-2.4-3.8-3.3-.1-.1-.2-.2-.4-.3h-9c.5 1.4 1.2 2.6 1.8 3.6 1 1.6 2.1 2.8 3.4 3.9-.6 1.1 2.2 3.3 2.5 4.4h-.1c2.4 1.8 2.8 5.2 4.3 6.7-.1 0-.4.1-.6-.4.5.8.6 1 .6 1.5 0 .6-.2 1.3-.5 1.3 0 .6-.1 1.3-.1 2.3 0 1 .2 2.1.5 3.1.7 2 1.7 3.5 2.7 4.8 2 2.4 4.2 4 5.8 4.7h-.3c1.9.7 1.9 1.5 3.8 2.4 0 .1.1.3.1.3 2 .6 4.8 3.2 6.3 3.8l-.2.4 3.4 2-1.2-.8c1.1-.8 2.1 2.2 4.8 3 2.1 1.5 5.9.7 7.8 2.6 1.4.2-1.5.2.4.8-.3.6-1-.1-.8.6 1.8.7 2.3 2.2 4.6 3l-.2.5c3.1.8 4.5 3.5 6.7 3.9 2.8 1.4.9 2.3 4.1 3.4l.6 1.3c1 .9 1.3-.1 2.3 1.1-.3.3 1.3 1.4.4 1.2 1.1 1.3 2.6 2.2 4.1 3.3.7.5 1.5 1.1 2.2 1.8.4.3.7.7 1 1.1.4.5.8 1 1.1 1.5 1.3.1 2.8 2.1 3.8 2.1-.1.4 3.6 3.1 1.1 2-.2-.1-.5-.4-.4-.5l-.6.2c1.5 2.5 4.1 2.7 6.2 4.5-.5-.6-1.4-1.2-.6-1.1l1.9 1.6h-.7c.9.8 1.9 1.6 2.9 2.4l-.1-.7c1.3 1.3 1.4 2.4 3.5 2.9 1 .2-1.1-1.5.6-.6.5.4 1 .9 1.6 1.4.4.3.9.7 1.4 1l1.6 1.1c2.3 1.4 4.9 2.6 7 2.7-.6-.7.5-.5 1.5-.7l.4.5c.9-.3 1.5-.5 1.9-.6.4-.1.7-.1.9-.1.3 0 .5 0 .9-.2.7-.5 1.2-1 1.7-2zM415.5 86c1.3 1.5 2.9 2.9 4.4 4.1.9.8 1.8 1.6 2.6 2.2.9.7 1 .6 1.3.8.3.1.5.2.8.1.2.5.2.7.2 1.1 0 .4 0 .7-.1.8-.1.3-.3.3-.5.5.5-.1.9 2.9 1.2 5.8l-.3-1.3c.3 2.7.5 5.4 1.2 8.3l.6-1.8c.2 2.2.1 2.6-.1 2.9-.1.3-.3.6.5 2.7l.7-.3c1 3 2 5.4 3.1 7.6.6 1.1 1.1 2.2 1.8 3.3.6 1.1 1.3 2.2 2.1 3.4 7.8 9.3 17.2 17.5 26.9 24.9 2.4 1.8 4.9 3.6 7.3 5.3 2.3 1.7 4.5 3.5 6.6 5.4 2.1 1.9 3.9 3.9 5.6 6 .4.5.8 1 1.2 1.6.2.2.2.3.3.5l.2.4c.3.5.5 1 .6 1.4-.2.1-.4.1-.7.1-.7-.1.2.4 1 1.4.4.4.2.5.1.7-.1.1-.3.1-.6-.1-.1.2-.3.4-.6.6-.5-.2-1.1-.5-.8-.6-.8-.1-.7 0-1.3.1-.3-.3-.6-.6-.8-.9l-2.5-1.3-2.8-1.6c-1.9-1.1-3.9-2.1-6.1-3.1-1.1-.5-2.3-.9-3.5-1.3l-.5-.1c-.2-.1-.4-.1-.7-.2l-1-.2c-.7-.1-1.5-.2-2.3-.2-.9 0-1.9.1-3.1.6-.6.3-1.3.7-1.8 1.2-.6.6-1 1.3-1.3 1.9-.5 1.4-.5 2.5-.5 3.4.1.9.2 1.7.4 2.5.8 3.6 2.6 7 4.7 10.5 2.1 3.4 4.6 7.2 7.9 10.6 1.7 1.7 3.5 3.3 5.5 4.6 1.9 1.3 3.9 2.4 5.8 3.4 1 .5 1.9.9 2.8 1.3l2.8 1.2c1.8.7 3.3 1.2 4.7 1.8 1 .4 1.9.8 2.7 1.3.4.2.9.5 1.2.8.3.2.5.4.7.6.2.2.4.4.6.7.2.2.4.5.3.8l-.4.8-.1.2-.1.1v.2c-.2.7-.3 1.6-.1 2.3.2.7.4 1.3.7 1.8l.4.6.1.1.1.2.1.1.1.2c.1.1.3.3.4.5.2.2.3.3.5.4.3.3.6.5.9.7 1.3.9 2.6 1.6 3.9 2.1 2.6 1 5.2 1.6 7.7 2.1 5.1.9 10.1 1.2 15 1.3 2.4.1 4.8.1 7.1 0h6.7c.4.1.9.1 1.4.1.5 0 .9-.1.8-.1 5.5.5 11 1 16.1 2.2 0 0 1.2.2 3.1.8 1.9.5 4.4 1.3 6.9 2.7 1.2.7 2.5 1.5 3.5 2.5s2.2 2.3 3.3 3.7c1.4 1.7 2.8 3.5 4.4 5.2h7.2v-15.4c-1.5-1.1-1.8-1.5-2.1-1.9-.3-.5-.7-.9-3.2-2.7l.5.2-1.6-.6c-2.3-1.5-2.8-2.1-3.4-2.7-.6-.6-1.2-1.2-4-2.8 2 1.4.6 1.1-1.8-.7l.8.2c-1.4-.9-1.9-1.1-2.9-1.8.9.4.7 0-1.5-1.3l1.6.6c-1.4-.7-2.9-1.4-4.4-1.9-1.6-.9-3.9-1.8-5.9-2.4l-4.6-1.2s-2-.4-4.2-.5c-1.1-.1-2.2-.1-3.1-.1-.9 0-1.7-.1-2.1 0 1.5-.1-2.5-.6-1.3-.8-.9 0-2.8-.2-4.7-.6-1.9-.4-3.7-1-4.7-1.5l.4.1c-3.9-1.4-7.1-2.9-10.1-4.5s-5.8-3.5-8.7-6c.1.5-2.9-2.2-2.4-1.3-.8-.6-1.5-1.2-2.2-1.8l-1-.9-.5-.5-.4-.4c-.5-.6-.9-1-1-1.5 0-.3.4-.3.6-.4.2 0 .4 0 .6-.1l.6-.1c.1 0 .3-.1.5-.1s.4-.1.6-.2c1.8.1 3 .1 3.9.2 1.3 0 2.3 0 3.7-.3l-1.2.3c1.9-.3 3.1-.9 4.4-1.5-.4-1.5-.8-2.7-1.5-3.8-.3-.6-.7-1.1-1.1-1.6l-.6-.7-.6-.6c-1.3-1.2-2.6-2.1-4.4-3.3-1.1-.6-1.8-.9-2.7-1.3-.8-.4-2-1-3.4-2.5 1.1.8-.2-.3-1.1-1.5.3.4.5.6.5.5 0-.1-.3-.4-.7-1.2-.2-.2-.4-.5-.6-.8v-.1c-.2-.4-.2-.9-.3-1.1 0-.3-.1-.4-.1-.4 0-.1-.1.3 0 .9 0 0-.1.1-.1.4-.2-1.2 0-3 .2-4.8.2-1.7.2-3.3.3-3.5 0-.6-.1-1.2-.3-1.8l-.3-.9c-.1-.3-.2-.5-.4-.8-.5-1-1.2-1.9-1.9-2.7-1.5-1.6-3.3-2.5-4.9-3.2-3.4-1.4-6.6-1.9-9.8-3.3-.6-.5.9.1 2.8.6-1.5-.5-3-1.1-4.3-1.9.1-.1.7.2 1.4.6.8.4 1.7.8 2.4 1-1.3-.6-2.6-1.2-3.8-1.9-.6-.4-1.2-.7-1.7-1.2l-1.8-1.5c-2.3-2.1-4.5-4.5-6.6-7.3l-1.1-1-.2-.3c-.1.1-1.2-1-1.9-1.8-.5-.9.5-.3-2-2.9-.9-1.1-2.4-2.5-4.1-3.7-1.7-1.3-3.7-2.4-5.5-3.1 1.8 1 1.1.8.3.4-1.6-.8-2.5-1.4-3.8-1.8v-.3c-.3.1-4.4-1.3-5-1.4-.8-.6 2.5.8 3 .7-3.2-1.1-3.9-1.5-4.7-1.9-.4-.2-.7-.4-1.3-.7-.6-.4-1.5-.9-2.7-1.9-2.6-2.2.2.7-1.1-.3-1.1-1.1-2.1-2.4-3.1-3.7-1-1.3-2.1-2.7-3.1-4.3l.5 1.1c-1.9-2.4-3.3-4.4-4.5-6.3-.6-.9-1.2-1.8-1.7-2.7-.5-.9-1.1-1.7-1.5-2.6-1.5-2.3-2.2-4.8-3.1-6.9-.3-.7-.7-1.4-1.1-2-1.5-2.7-4.1-4.5-10.5-4.5v1.1c-.2 0-.4.1-.5.1.7.2.7.3.7.3z"/><path fill="#006837" d="M465.5 98.8l1.4-.7 1-.5 2-.9c2.9-1.3 4.8-2 7.1-3 4-1.6 7.6-2.9 10.9-3.9 3.3-1 6.4-2 9.4-2.7l1.1-.3 1-.2 2-.5 2.4-.5c1.6-.3 3.2-.6 4.7-.9 3.1-.6 6.3-1 9.3-1.3 4-.8 9.6-1.1 15.3-.9 5.8.1 11.7.8 16.4 1.3 1.2.3 2.4.7 3.6 1.1 3.2.4 7.1 1.2 10.1 2.4l-.2.1c1.1.2 2.5.6 3.7 1l3.6 1c2.3.7 4.3 1.2 5.5 1.5l-.2.1 5.9 1.6-1.1-.1c1.1.3 2.2.6 3.3.8v-26.5c-5.1-1.3-10.1-2.3-15.3-3.2-7.1-1.1-14.4-1.9-22.6-2.2-4.1-.1-8.4-.2-13 0s-9.6.6-14.8 1.4c-4.7.6-8.9 1.5-12.7 2.5-1.9.5-3.7 1-5.5 1.6l-2.6.9-1.2.4-.7.3-1 .4c-5.5 2.1-10.3 4.6-14.4 6.9-4.1 2.3-7.7 4.6-11.1 6.9-3.4 2.3-6.6 4.6-9.8 7-3.2 2.4-6.3 4.9-9.8 7.6l-11.6 9.3-1.6 1.3-.2.2.1-.1.2-.1h.1c.2 0 .2 0 0 .4-.5.5-1.3 1.2-3.1 2.8-1.8 1.6-4.5 3.9-10.9 9.2l37.5-18.5 5.8-3zM487.9 137.1c-1.6 2.1-3.1 4.2-4.6 6.4l-1.1 1.6-1.7 2.5c-1.2 1.8-2.4 3.7-3.5 5.5-2.3 3.6-4.3 7.2-6.4 10.7l-6.1 10.6.3-.1c.1 0 .1 0 .2-.1l.3-.2 1.1-.6 2.2-1.2 4.3-2.3c2.8-1.5 5.5-3 8.5-4.7 2.9-1.7 5.9-3.6 8.9-5.6l4.1-2.7 2.7-1.9c7.3-5 14.4-10 21.8-14.4 7.3-4.4 14.9-8.2 22.6-10.6 1.9-.6 3.9-1.1 5.8-1.5 1.9-.4 3.9-.7 5.9-.9 3.9-.4 7.8-.5 11.7-.3l1.8.6c.4.4 3.1.2 6 .2s5.9.1 6.6.6c1.5.1 3.1.2 4.6.4v-29.2c-2.4-.4-4.8-.9-7.4-1.2-4.2-.6-8.8-1.1-14-1.1 2.6 0-1.1-.3-.9-.4-4.8-.2-9.8-.1-13.6.5-3.8.5-6.3 1.3-6.3 1.8-3.5.6-4.9.9-5.5 1-.7 0-.6-.1-1.1-.2.1.2-1.4.7-3.5 1.6-2.1.8-4.8 2-7.2 3.2l2.2-1.2c-4.8 2.2-9.2 5-13.4 8.2 1-.4 2-.8 3-1.1-3.4 2.3-3.9 2.5-4.4 2.6-.5.2-1 .3-3.9 2.9l.5.4c-4.3 3.7-7.6 6.7-10.8 9.8-3.1 3-6.2 6.1-9.7 10.4zM584 136.5c-1.4.3-2.9.7-4.5 1-4.5.8-7.4 1.2-10.4 1.8-2.9.6-5.9 1.3-10.4 3.1-2.2.8-4.4 1.7-6.6 2.7-2.2 1-4.3 2.1-6.3 3.3-.8.8-2.1 1.6-3.4 2.5-1.3.9-2.7 1.8-3.5 2.9l-1 .4c-.6.7-1.3 1.6-2.1 2.1v-.1c-.8 1.2-1.9 2.3-2.2 3v-.1l-1 1.5v-.3c-.6 1.1-1.1 2.4-1.6 3.5-.4 1.1-.9 2.1-1.3 3h.5c-1 2-1.4 3.5-1.7 4.9-.3 1.4-.6 2.8-1.4 4.7l-.1-.1c0 2.6-.6 4.5-1.1 6.4-.5 1.9-1 3.9-.7 6.6-.1-.7-.2.3-.3.2-.1 2.4-.2 4.9.6 5-.1 1.7-.3 1.4-.7 1.6.4 0 .4 1.5.4 2.8l-.1-.6v3.8l.7-.7c-.2 2-.8.5-.7 2.4h.6c0 .7-.1 1.3-.2 1.9l-.2.9-.2 1.2c-.3 1.7-.6 3.6-.8 6 0 5.6.1 11.3.3 16.5l.5-.5.7-1 1.3-2 2.5-3.9 2.4-3.8c.8-1.3 1.5-2.6 2.3-3.8.8-1.3 1.5-2.6 2.2-3.9l1.8-3.1c1-1.7 1.9-3.3 2.9-4.8l.6-.2c.6.1.5-3 1.2-3l.3-1.2c.3-.2.7-.8.5-.2.5-1 .5-1 .7-1.8l.9-.9c2.3-3.7 3.4-7.3 5.9-11.1 1.8-2.1 3.9-5.4 6.1-8.6l1.7-2.4c.6-.8 1.1-1.4 1.6-2 1.1-1.2 2.3-2 3.4-2.6 1.6-.9 3.6-1.4 5.8-1.7 2.2-.3 4.5-.5 6.8-.7 2.4-.2 4.9-.4 7.3-.7v-29.9zM529.3 297.1h2.4v84.2h-2.4z"/><path fill="#FBB03B" d="M571.4 330.6c-4.3-5-14.2-3.9-14.2-3.9s-26.3-35.9-37.9-45.3c-11.6-9.5-24.6-14.7-24.6-14.7s4.1 10.5 10.9 20.6c6.8 10 17.6 19.8 17.6 19.8l5.6-5 1.8 2.4 2.5-2.3s5.3 5.7 10.3 11.8c5 6.2 11.9 15.9 11.9 15.9 3.4-.6 8.7-1 13 1.6 3.1 1.9 3.9 5.7.2 7.6-4 2.1-8.7-3.3-8.7-3.3l-1.6 1.8s6.2 3.4 5.1 7.8c-1.1 4.1-4.9 4.1-7.5 1.4-3.5-3.6-4.2-8.9-4.4-12.4 0 0-11-4.6-18.1-8.2-7.1-3.6-13.8-7.6-13.8-7.6l1.7-3-2.7-1.3 3.7-6.6s-11.8-8.5-23.1-12.9c-11.3-4.5-22.4-6.2-22.4-6.2s7.9 11.7 19.6 20.9c11.7 9.3 52.4 27.3 52.4 27.3s1 9.9 6.8 13c5.8 3.1 10.3.4 10.5-3 .1-1.7-.1-3.6-1.2-5.4 2 .6 3.9.5 5.6 0 3.6-.8 5.3-5.8 1-10.8z"/><path fill="#fff" d="M462.9 393.6c1.1-.1 1.2-2.4 1.2-2.4-.8-.5.2-2-.5-3l1.1-1.3-.8.5c.1-.7-.5-.7-.8-.4-.2-.3.1-.4.2-.9l-.6.3c-.4-.7 1.1-1.3 1.1-.7.7-1 .4-1.2.1-1.4-.3-.2-.7-.2-.3-1.2l.8-.6-1.6-1.9-.6.3c-.1-.5-.3-.8.4-1.1-1-1.4-2.7-2.4-3.9-2.9-.5-.7.6-.2.7-.8 0-.7-.3-.9-.6-.9l-1.3-.1.6-.4c-.5-.3-1.1-.6-1.6-.8l-.1.6c-.3-.2-.6-.4-.9-.5 0-.5.3-.2.7-.2-1.1-.5-.9-2.6-2.5-2.1l-.2.6c.1-.2.2-.1.3 0 .4 1.4-1 .1-1.3.5.1-.9-1-.7-.9-1.9-2.3.5-2.8-2-4.5-1.7.1.6-.6.2-.7.8-.7.2-.2-.9-.7-1l-.8.7c-.8-1.6-1.2.8-2.2 0-.5-1.3-2 .4-2.9-1.1l-.2.6c-.8-.8-1.5.4-2.1-.2-.3.6.1.4-.1 1.2-.6-.7-.1 1.4-.4.6-1.1.6-1.6-2.9-2.7-2.9.1-.3.2-.5.3-.9-.3-.3-.4-.6-.5-1.3h.2c-.3-.3-.3-.6-.4-.9.1-.3.4.1.3-.3l-.6-.9c-.1.1.2.4 0 .4 0-.1-.3-.5-.1-.6l-.2.2c0-.2-.2-.1-.3-.2 0-.1 0-.2.2-.1-.2-.3-.4-.9-.7-.9-.3-.2-.3 0-.5.1-.1-.1-.1-.3-.1-.3v-.2c-.7-.2-.9-1.1-1.6-1.1.1.1.4.2.3.4l-.4-.3c.2.1.2.3.1.4-.5-.4-.9-1-1.7-1.3-.1.2-.5-.2-.9 0 .1 0 .1-.1.1-.1.1 0 .2 0 0-.2l-.1-.1c-.2 0-.2.1-.1.2-.2-.1-.3-.1-.2.1-.4 0-.4-.4-.6-.6-.5-.1-.7-.2-1.3-.4l.1.1c-.2 0-.3.2-.6.1-.1-.9-.9-.2-1.7-.5.1-.3-.3-.2-.3-.4-.8.2-1.5-.3-2.4.1h.1c-.2.2-.9.2-1.1.1.2.2-.3.4 0 .5-.3-.2-1 .2-1 .2 0 .3-.7.3-1 .7h-.6l.3.1c-.3.1-.2.3 0 .3-.1.1-.2.1-.4.2l.2.1c-.2.3-.6 0-.4-.1-.8.1-.1.4-.8.6l-.3-.1c-.6.4.2.5-.4.8l.1.1c-.1.1-.2.3-.4.1-.3.6-.6 1.4-.6 1.9-.2.4-.1-.2-.3-.1-.4.3-.1.6-.1 1l-.2-.2c0 .3-.1.6 0 .9l.2-.1v.6c-.1.2-.1-.1-.2-.3 0 .6-.5 1.2 0 1.8l.2-.1c-.1 0-.1-.1-.1-.1.2-.6.3.4.4.4-.2.2.2.7 0 1 .8.8.7 1.7 1.4 2.1h.4c.3.1 0 .3.2.5h.4c.2.7.6 0 .9.5.1.5.9.3 1.1 1l.1-.2c.1.2.3.2.5.3-.1.2-.3.4-.4.5.7.5-.4 1.7-.9 2.8.1-.4.5-.2.7-.3-.7.6-.7 1.5-.5 2.4.2.9.4 1.6-.1 2.5l.1-.1c.3.3.1.9.2 1.5 0 .6.2 1.1 1 1.1-.7 1.9.1 3.3 1.7 4.8l.2-.2c.8.3 1.4.6 2.1.7 0 0 0 .1-.1.1h1.2l.9.6.9.2.4.3c.1.5.3 1.1.5 1.7l1 1 .3.8 1.4.9c.2.3.4.7.6.9 0 .2-.1.3-.2.4l.2.6v.8l.9.7c.2-.4-.5-.8 0-1.2-.1.3.7 1 .2 1.5l.5-.7c.1.4.6 0 .8.2 0 .3-.1.6-.4.5.4.7.8 2 1.6 1.7.6.4.8-.4 1.3-.8.1.2.2.7.1.9h.1v.6c1.1-.1 1.6.9 2.3 1.6l.9.1c-.2-.1-.4-.3-.2-.6l.8.5-.1.2 1.5.2 2.6 1.5c.3-.9 1.3.1 2.1-.6-.1.1-.1.2-.1.3-.3 0-.5.2.2.5v-.1c.1.1.2.2.3.4.6-.3.5-.5.2-.6.4 0 .9.1.5-.4 1.1-.3 1.2 1 1.9 1.3 1.3-.2 1.8-.2 3.7-.5l-.3-.1c.4-.3.3-1.2 1.2-1.4l.1.1-.2.1v.4c.1 0 .3 0 .3.2-.9.2 0 .3-.2.6-.3 0-.2.1-.4.1.3.2-.2.4 0 .7.2 0 .1.2-.1.3h.5c-.3.1-.1.3-.1.3.3 0 0 .2.2.3l-.3.2.2-.1c0 .1.1.1.2 0 0 0 0 .1-.1.1h.2c.1.1-.4.1-.3.1-.5.2.3.1-.1.3h-.3c-.2.2.5.1.2.2h.2s0 .1-.3.1c.1.2.3.4.4.5-.1.1-.2 0-.3 0-.3.1.1.1.2.3h-.2l.1.2h.2v.1c-.1 0-.1 0-.2-.1.1.2-.5.2-.2.4h.2c.3-.1.2.1.3.1-.2 0-.1.2-.4.2.4.3-.2.4 0 .7l.3.1-.2.1.3.1c-.4.1.3.2.1.3l-.2.4h.2v.3l.4.1c-.2.1.4.1.2.1.2.2-.9.1-.9.2-.3 0 .3.4-.1.3v-.1l-.1.2.2.1c-.1 0 0 .3-.3.3h.1c-.2 0 0 .2-.3.1h.1c-.4-.1-.5.2-.6.2.2.2 0 .2 0 .2l.1.1c-.3-.2 0 .4-.2.1 0 .2-.2-.2-.1.2-.2-.3-.3-.3-.4-.1v.1c-.2.7-.6 1.2-.6 1.6-.1.4.1.6.3.8.6.4 1.6 0 1.6 0 .3-.1.5-.3.7-.4 0 0 .1.1.1 0 .6 0 .8-.6.9-1 .1-.5.1-.9.5-1.1.4-.3 1.1-1.1.8-1.6 0-.4.5-.6.4-.9l-.2-.1c.1 0 .2 0 .2-.1-.1 0-.1 0-.2-.1l.2-.1c-.3-.1.5-.2.2-.2l-.2-.1c-.4-.8.4-1.6.2-2.5-.2-.2-.7-.3-.8-.5h.3c.1-.1-.3 0-.4-.2h.4l.1-.3h-.1c0-.1.1-.2.3-.2-.2 0-.3 0-.3-.1.4 0 .5-.2.5-.4-.1 0-.1-.1-.2 0 .5-.4-.5-.5.1-.9h-.1c-.3-.2.1-.4-.2-.7h.2c-.1-.1-.1-.3 0-.5h-.1v-.1h-.1l.1-.3h-.1c-.1 0-.1-.1 0-.2h-.2c.2-.2-.1-.4.2-.6v-.1c.3-.2.6-.3.9-.4.3 1 1 0 1.4.6.6-1 1.5-1.5 2.4-2.1.9-.6 1.8-1.3 2.2-2.7l-.1.1c-.2-.9 1-2.2 1.8-2.5-1.1.1-.9-1.1-1.6-.9zm-37.3-5v-.1h.1v.1h-.1zm13.2 13.1zm.4-.6c-.1.2 0 .4 0 .6-.1 0-.1-.1-.2-.2-.2-.1-.1 0-.1.2-.3-.3-.4-.8-.1-1.2.2.1.4.3.5.4.1.1.2.2 0 .2l.1.1s-.1.1-.2-.1z"/><path fill="#CBCBCB" d="M78.1 786.9c-.2-.1-1.8.7-3.2 2-.2.2-.3.4-.5.5-.2.2-.3.5-.4.6l-.6 1.1c-.3.8-.5 1.6-.6 2.2 0-.7.1-1.3.3-1.9.1-.3.2-.6.4-.9l.2-.4.3-.5c.1-.2.3-.4.4-.5.1-.2.3-.3.4-.4.3-.3.6-.6.9-.8.7-.5 1.4-1 2.2-1.5 3.2-1.7 7.1-2.7 10.9-3.4 7.7-1.4 15.7-1.7 24.1-2.3l3.5.2 1-.1c0 .1 3.7.3 6.2.3 2.3-.3-.2-.7 8.1-.6 3.3-.1 7.9.1 12.8.3l7.3.4c2.4.2 4.6.3 6.8.3-2.3 0-3 0-3 .1s.9.1 1.9.2c4.1.1 6.5-.1 9.6.1l.3-.3c.8.3 10.9.7 12.3.9 2.4-.2-6.3-.5-7.4-.7 8.2.3 10.3.4 12.3.5 2.1.1 4.1.2 12.3.6 8.7.8-1.6.3 2.5.8 7.7.5 15.2 1.2 24.1 1.7l-2.8.1c1.8.2 3.6.3 5.2.5h1.1c-1-.1.4-.2 1.9-.3 1.7-.1 3.5-.2 2-.4 2.4.1 7.1.2 11.9.4 4.8.2 9.8.5 12.7.6l-1.1-.1c5.3.4 10.2 1 14.9 2.1 1.2.3 2.3.6 3.5 1l.6.2.6.2c.4.1.8.3 1.3.5.4.2.9.4 1.3.5 3.1.5 5.8 1 8.3 1.5 7.6 1.7 12.2 3.5 14.9 4.8 1.4.7 2.3 1.2 2.9 1.6.6.4.9.7 1 .8 0 .3-1 0-2.8-.6-1.6-.5-3.9-1.3-6.5-1.9-2.6-.7-5.6-1.3-8.5-1.8-1-.2-1.9-.3-2.8-.5l.6.4c.3.2.6.4.7.6-1 .5-2 1.1-2.9 1.6.8.6 1.3 1.2 1.7 1.8.2.3.4.6.5 1 .1.3.3.6.3.9.1.6.1 1.1-.1 1.6-.3 1-1 2.1-2.6 3.2s-4.1 2.1-7.9 2.9c-1.8.6-3.7 1.1-5.5 1.6-3.2.6-4.4.6-5.7.6-1.3 0-2.6.1-6.1.6.3.1-2 .4-3.7.6-1.8.2-3.1.3-1 .3-2 .2-4 .4-6 .5-2 .1-4.1.2-5.9.3-4.1.3-8.2.5-12.6.7-8.7.5-18 1-28.4 1.8-4.2-.2-13.2.3-17.5.1h-2.6c-1.9.1-5.3.2-7.9.2-3.8.1-6 .1 0 .3 1 0 2.8 0 2.7-.1l1.5.3c-6 .4-11.5.3-17 .1-5.5-.2-11-.6-17-.8 3.6.1 8.3.3 5.2 0-3.7-.1-7.4-.3-11.2-.6l2.3.4c-5.6-.3-11.2-.8-16.7-1.5h2.4c-4.1-.5-6.9-.7-9.8-1.2-2.9-.5-6-1.1-10.3-2.7-1.9-.8 0-.2 1.4.1.7.2 1.2.3 1.1.2-.1-.1-1-.3-3-1-2.6-.8-5.5-1.9-8.2-3.4-.7-.4-1.4-.8-2-1.2-.5-.3-.9-.6-1.4-1-1.4-.3-2.7-.6-4.1-1-2-.6-3.9-1.2-5.8-2-1.8-.8-3.5-1.8-4.8-3.1-1.3-1.2-1.9-2.7-1.9-4.2 0-.7.2-1.4.4-2.1.1-.3.3-.7.5-1l.3-.5.3-.5c.2-.3.1-.4 0-.3-.2.1-.5.5-.8.8-.6.8-1.5 2.3-1.3 4.1-.2-1.5.3-2.9 1.1-4.1.6-.9 2.1-2.1 3.7-3zm32.7 14.9h.1c.1-.7.4-1.5.9-2.2.1-.4.4-.8.3-.7 1.3-1.4 3.5-2.8 6.1-3.9 1.8-.8 3.7-1.4 5.7-2-5.1.6-9.3 1.5-13.3 2.4-2.4.6-4.7 1.2-7 2l-3.5 1.2-1.8.7-.9.4-.2.1h-.1l-.2.1-.7.3c4.9.8 9.7 1.3 14.6 1.6zm143.5-2.6l-.6.4c5.3-.8 9.4-1.5 12.9-2.4.6-.1 1.2-.3 1.7-.5-3.6-1-7.5-1.8-11.5-2.5-8.9-1.5-18.3-2.5-28.7-3.2-4.3.2-8.7.4-13.3.6 4.9.5 9.6 1.3 14.3 2.4 1-.1 3.9.4 7.3 1.4.8.2 1.7.5 2.6.8l.6.2.7.3 1.8.7c1.9.8 3.6 1.7 5.1 2.6 2.4-.2 4.8-.5 7.1-.8zm-77 9h-14.9c-6-.2-6.9-.8-17.6-.9 3.5.3-.9.2-4.9.1 2.6.1 3.3.2-1.9.3-.7-.1-1.8-.1-2.9-.2 0 0-.3 0-.1.1-6.7-.2-5.5-.2-2.4-.2-.2 0 .1-.1 1.1-.1-3.4.1-8.1.1-12.1-.1 1.8.7 4 1.3 6.2 1.8 5 1 10.4 1.6 15.9 2 5.5.4 11.1.6 16.6.7 5.6.1 11.2.1 16.8-.1l8.3-.3 2-.1 2.1-.1 2.1-.1 2-.1c10-.7 19.8-1.8 28.7-3.6-6.2.4-11.1.6-14.3.1-8.6.2-10.2.6-14.6.8h2.1-18.2zm-32.8-15.2c-4.5.5-8.8 1.2-12.6 2-3.8.8-7.3 1.7-9.9 2.8-1.9.8-3.4 1.7-4.3 2.7-.4.5-.7 1.1-.8 1.6 3.5.2 7 .3 10.5.4 2.7.1 5.5.1 8.2.1h4.2l4 .1c5.1.4 12.1.5 19.4.5 7.3.1 14.7 0 20.7.2l4.6-.3c4.1.1 9 .1 13.1-.2l-.3-.1c6.2 0 13.1-.4 16.1-.5l-.3-.1c2.5-.1 5-.3 7.4-.4h-1.3c2.7-.1 5.4-.3 8-.4 1.4-.1 2.6-.2 3.9-.3.3 0 .7 0 .9-.1l1-.1.9-.1-1.1-.5-.4-.2-.9-.3-2.1-.7c-2.9-.9-6-1.5-9.3-2.1 0 0-2.7-.5-7.4-1-4.6-.5-11.3-1-18.9-1.2-7.6-.2-16.2 0-24.6.3-8.4.4-16.8.9-24 1.5-14.4 1.2-24.3 2.3-22.2 1.4 1.1-.4 5.2-1.4 13.5-2.8 4.2-.7 9.4-1.4 15.8-2.2 4.7-.6 10.1-1.1 16.2-1.6-.4-.1-.6-.1-.7-.2-8.3 0-6.7.2-7.8.5 0-.2-2-.3-4.8-.3-5 .6-10 1-14.7 1.6zm93.8 15.8l4.7-.3 2.1-.5c.4-.3 3.9-.3 7.4-.4 3.6-.1 7.2-.3 8-.7 1.9-.2 3.7-.4 5.5-.6 1.5-.3 4.4-1.1 1.8-.7 2.3-.5 3.4-.8 4.4-1.1.9-.3 1.7-.5 3-1 1-.7 1.5-1.3 1.4-1.8 0-.2.1-.4 0-.5v-.1c0-.1 0-.1-.1-.1 0-.1-.1-.2-.2-.3l-.6-.7c-.7.2-1.4.5-2 .7-.9.3-1.3.4-1.8.5-1 .3-2.1.6-3.2.8-4.3 1-8.7 1.7-13.3 2.4.4-.2-1.9 0-3.9.2s-3.8.3-2.7-.1c-2.4.2-4.6.4-6.8.6h-.2l-.6.3-.5.3c-.3.2-.7.3-1.1.5-1.4.6-2.9 1.2-4.4 1.8-1.2.4-2.4.8-3.7 1.2l1.9-.2 4.9-.2zm-28.4 5.2c.2 0 .4 0 .7-.1-.2.1-.5.1-.7.1zm-94.9-5.6c-.7-.4-1.3-.9-1.9-1.4-1.9-.1-3.7-.2-5.4-.4 2.3.7 4.8 1.3 7.3 1.8zm-32.2-12c1 .7 2.6 1.3 4.4 1.9l2-1.1c1.1-.6 2.4-1.1 3.5-1.6 1.6-.7 3.2-1.3 4.9-1.8 3.4-1.1 6.9-2 10.3-2.7-1.1.6 2.5-.2 6.4-.7l.3-.4c3.7-.4 5.8-.7 7.2-.9 1.4-.2 2-.3 2.7-.5 1.3-.3 2.5-.7 9.9-1l2.7.3c6.6-.1 8.4-.2 10.3-.5 1.9-.2 4.1-.4 11.4-.1-2.7 0-3.4.2-2.7.3l3.7-.3-3.5.3c.3 0 .9.1 1.5.1 1.3-.1 2.8-.3 4.5-.5 3.5-.4 7.9-.7 12.6-.9-4.4-.2-8.9-.4-13.8-.5l-4.1-.1h-2l-2-.1-7.3-.2c-4.6-.1-8.9-.2-12.9-.3-8-.1-14.9 0-21.8.4-3.4.2-6.8.4-10.3.8-3.4.4-7 .8-10.3 1.6-3.3.7-6.6 1.9-8 3.3l-.3.3-.1.1c-.2.2-.3.5-.4.8-.2.5-.4 1-.4 1.4 0 1.1.4 1.8 1.6 2.6z"/><path fill="#989898" d="M227.5 650.5c0 2.9-2.3 5.2-5.2 5.2h-98.6c-2.9 0-5.2-2.4-5.2-5.2 0-2.9 2.3-5.2 5.2-5.2h98.6c2.9-.1 5.2 2.3 5.2 5.2z"/><path fill="#FF9F9F" d="M210.2 502.7c86 11.2 86 11.2 102.7 13.4 7.7 1 13.1 11.2 6 21.7s-73.1 101-73.1 101l26.5 45.3-52.3-37.6 77.5-110.4-86.2-15.1-1.1-18.3z"/><path fill="#754C24" d="M230.2 632s1 4.2 5.7 6.4 10 .5 10 .5 24.4 30.3 28.2 35.4c3.5 4.6-1.8 9.9-1.8 9.9l-52.3-37.6 10.2-14.6z"/><path fill="#A57C52" d="M103.1 198.1c0 90.2 31.8 148.1 23.5 170.3-6.8 18.2-23.5 8.9-23.5 8.9s-5.1 34.8 88.9 29.3c103.3-6.1 123.7-68.1 126.9-185.8 4.3-155-215.8-22.7-215.8-22.7z"/><g fill="#754C24"><path d="M126.7 199c-.1-.6-.2.2-.1 1.3.2 4.5.7 6.5.8 6.7l-.2-3.3c.9 3.4 1.1 13.3 1.7 20l.2-2.8.3 6.9c.2 1.4.6 2.4.3-.9.6 4.8.2 4.3.8 8.3.1.5.1.2.1-.2l.3 4.7c0-.9.4.8.1-2.1 1 8.4.9 13.6 1.4 16.7v-.7c.8 11.7-.2 1.2.2 9.9l1.2 5.8-.2 1.2c.1 1.2.3 3.6.4 3.1.2 4.5-.2-.8-.2 1.9.8 5.8 1.2 16 1.7 17.2-.1 2.1-.6-5.5-.3.7.7 1.7.5 7.2 1.1 12.4.1-1.6-.4-6.6.3-1.4-.2 3.2.9 10.3 1.1 14.8-.3.2.5 9.7.9 17.2.1-.5 1.1 14.1 1.5 21.1l.1-.2c-.3 1.4.1 8.6 0 13.8.2-.2.3-1.2.4-4 0 1.6.1 3.3 0 4.9-.1 1.2-.1 2.8-.7 6l.5-1.2c-.5 3.3-1.5 6.7-3.7 9.7-2.2 3-5.7 5.2-9.9 6.3-.3-.1 1.4-.7 1.9-1 .3-.2.3-.3-.3-.2-.6.1-1.8.5-4 .7-.3.2-.6.5 1.7.1-.8.2-2.7.4-4.3.5 1.2 0 2.4 0 3.6-.2-1.9.4-2.4.3-2.9.3-.4 0-.7-.1-2.3 0 .1.2-2.3.1-1.9.3.8.1 2.7 0 3.9 0-3.5.3-7.8-.1-9.2-.2.3-.1 0-.2-2.5-.7h-.2c-.6-.5-1.1-1-1.5-1.5 3.8.8 7.6 1.4 11.3 1.5 3.8 0 7.6-.5 10.8-2.3 3.2-1.7 5.6-4.7 6.7-8.1-.6 1.6-1.9 3.5-1.2 2.4 2-3.5 2.7-7.6 2.8-11.7.2 1 .2 1.6 0 4.2.2-.8.4-2 .5-3.5.1-1.5.1-3.1.1-4.7-.1 5.6-.3 0-.5-2.5.1.4.1-.4.2-.2-.6-6.5.5-1.1-.2-10l-.1.5c-.1-3.3-.1-6.4-.3-10-.3-1.5.1 3.6-.1 3.8-.3-5.1-.1-10-.6-14.6.1 2.2.3 5.2.3 7.4-.6-5-.6-5.5-.9-9.2v.4l-.7-8.5.2 2.2c.3-6.4-.8-12.9-1-21.4.2 8.3-.1 1.4-.4 2-.2-2.2-.6-5.5-.6-4.5-.1-4-.7-6.7-.8-12.4-.1-.2-.4-4.3-.5-3.4-.3-5.2.3 1.2.4.8-.3-8.1-1.9-18.9-2.5-30.5-.7-10-.5-11.9-1.1-21.2-.4-3.1-.1 2.6-.1 2.6-.6-5-.9-8.8-1.2-13.6 0 1-.2 0-.4-1.5-.3-3.8.1-2.6-.5-7.6 0 .9-.1 2 0 3.8l-.9-13.6c-.3-1.2 0 2.8 0 4.5-.4-5.2-1.1-13.6-1-15.2l.2 2.2zM220 401.3c2.4-1.5 2.6-1.9 3.5-2.5-1.4.9-3 1.9-3.8 2.3 2.4-1.4 5.9-3.7 8.8-5.8 3-2.1 5.4-4 6.1-4.3 5.4-4.6-3.2 2.3 4.2-3.9l-1.1.8c7.1-6.4 12.6-11.9 17.9-17.9 5.3-6.1 10.3-12.7 15.1-22.2-.7 1.3-1 2-1.1 2.2 5.9-10.6 10.6-22.2 14-34.1 3.4-12 5.6-24.2 6.7-36.1.6-6.8.8-7.5 1.3-11.6l-.2-1.5c.3-2.4.5-4.7.7-7.1.3-5 .2-9.4 0-14.1-.2-4.7-.4-9.7-.5-16.1l.3 1.6c-.2-4.6-.8-14.5-1-13.7 0-.5.1-1.5-.2-3.3l-.2-.1-.9-11.2c-.6-4.3-.7-4-.9-4.1-.2-.1-.4-.8-1.3-7.1l-1.1-8.2c-.3-2.5-.6-4.2-.4-3.4.4 1.9 1 4.8 1.2 4.9-.2-1.4-.5-2.8-.7-4.3.2-.4.2-1.5.5-1.1.3.4.9 2.1 2 7.3l.9 7.4.6 2.3-.9-6.2c.8 3.5.9 5.7 1.1 8.2.2.6.4 1.6.6 3.1.2 2.4.3 4.9.4 7.3.3.9 0-3.3.6 1.6.1 3.4-.7-3.2-.3 2.4.5 3.5.6 2.5.8 6.6.2.6.2-.3.1-2 .2 3.7.6 9.8.5 11.7.5 3.7.4 12.5.8 12.2-.1 1.2-.3 6.5-.3 10 .3-3.1.3.1.2 3.8-.1 3.8-.3 8.1.1 7.3-.3 2.3-.6 6.5-1 11.1s-1 9.6-1.7 13.7c.1-.4.3-1.3.4-2-.6 4.6-.7 5.9-1 8.9-.5.5-1.8 7.6-2.9 11.3-.9 5.6 1.2-3.2 1.2-1.4-.1-.2-.7 2.2-1.3 4.4-.6 2.2-1.2 4.1-1.1 3.2-.9 4.2-.8 3.6-1.1 5.9-.7.6-1.2 3.8-2.6 7.2-.9 3-.9 3.4-1 3.9-.1.5-.3 1-1.6 4.2-.9 2.7.7-1.1 1.2-2.2-2.4 6.1-1.4 2.7-2.2 3.9-1.7 3.8-2 4.7-2 5 0 .3.3 0-.2 1.3-2.3 4.7-4.5 8.1-6.5 11.5-.1.3-.5.9.1.2-1.5 2.3-3.7 5.8-6.1 9.2-2.4 3.5-5.1 6.9-7.3 9.2l-.5.7c.5-.9.5-1.2.2-1.1-2 2.4-4 4.3-4.6 5.3 1.3-1.4 1.5-1.5 2.1-2.1-.7.8-1.5 1.6-2.3 2.4-.9 1.2-.1.4.9-.7s2.2-2.5 2.3-2.4c-4.2 4.8-9.7 9.9-13.3 13.2-.3.5 1.9-1.4 3.5-2.9s2.7-2.5.4-.1c1.8-1.8 3.5-3.6 5.2-5.5-3.6 4.6 3.1-3.4-.1.9-3.4 3.7-5.5 5.6-7.6 7.4-2.1 1.9-4.2 3.7-8.1 6.9l-1.5.6c-5.7 4.2-7.9 5.9-9.7 7.4-1 .8-2 1.6-3.4 2.5-1.9.4-3.9.8-5.9 1.1 1.9-1.4 3.6-2.4 5-3.2zM158.6 202.1c-.3-4.7-1.8-10.5-2.6-17.1-.6-3-.4-.2-.9-2.9-.3-2-.5-3.6-.7-4.8l-.9-4.8 4.4-.5c1.2-.1 2.5-.2 4.2-.4-2.2.5-2.6.4 2.9.1l-11.2 1 .6 3.6-.2-1.6-.3-2c3.3-.2 4.6-.3 6.6-.4l-6.4.6c.5 3 .7 4.3.9 5.6-.5-3.9-.5-3.5.1-1.7l-.2-.8-.2-.9-.4-2.1 2.1-.2 1.7-.1 3.3-.2c2.2-.2 4.5-.4 6.9-.7l-.2-.6c4.6-.6 8.6-.9 13-1.3l7-.6 2-.2 1.5-.1.8-.1h.2v.6000000000000001l.4 5-.4-4.3v1.2l.1 1.2.2 2.9c.2 2.1.4 4.5.5 6.4.2-.4.4 2 .6 3.7-.2-.2.6 8.7.3 9.8l.6 5.3c.7 9.6.1 11 .6 20.3.1-2.8.4 1.4.3-4.8.2 3.1.3 5.9.2 5.9.2 1.8.1 8.6.4 11.4 0 1.3-.2 1.7-.1 5.2 0 .2.1.2.1.1-.1.7.1 5.1-.2 2.3 1 9.5.7 26.6 1.2 34.9 0 6.8-.1 14.9-.2 21 .1-.4.1 0 .1-1.2 0 8.5-.6 5.2-.7 14.8.1 4.9.4-5.1.4-2 .6 1.4-.5 11.6-.6 18.1l.1-1.6c-.1 5-1.1 12-2.2 20.1 0 0 .1-.4.1 0-.6 2.7-1.4 6.7-2.6 10.8-1.2 4.1-2.8 8.4-4.4 12 1.2-2.1 1.5-3.2 1.2-1.8-.7 1.6-.7 1.3-.9 1.5-.2.1-.5.7-2 3.8-.4 1.1-1.2 2.7-1.9 4.2s-1.4 2.7-1.4 3.1c1.1-1.9 2.2-3.8 3.2-5.8-1.2 3.2-4.1 7.5-6 10.4l.4-.3c-2.9 4.2-4.6 6.1-6.3 8.1-1.8 2-3.6 4-7.5 7.9l.7-.9c-2.2 2-3.1 2.8-4 3.7-.9.9-1.7 1.8-4.1 3.6l-1 1.3c-1.1-.1-2.1-.2-3.2-.2 5.9-4.6 11.3-9.8 16.1-15.5 3.2-3.8 4.1-4.8 5.3-6.1.6-.6 1.2-1.4 2.1-2.6.9-1.2 2-3 3.5-5.7l-2.1 2.9c5.5-8.3 9.5-17.9 11.7-27.8 1.1-4.9 1.7-10 2.3-15 .5-5 1-10 1.3-14.9-.1 1.2-.2 1.2-.4 3.1.1-4.2.8-15.4 1-15.5.1-3.1-.2-.7-.2-2.6 0-4.2.6-10.5.3-12.7 0-.2 0 .2-.1.7.1-3.7.1-11.2.3-8.9-.1-7.4.1-14.2-.2-20.1.3-3.9-.4-12.7 0-13.9-.4.5-.8-13-.7-17.7-.1 1.6-.3-4.1-.4-2.2-.2-5.3-.4-10.3-.1-9.3-1-9.8-.6-19.8-1.6-25.3-.4-7.9-.8-15.6-1.3-23l-.2-2.6v-.6h-.5l-5.2.5-10.8 1c.6.4 15.8-1.5 15.2-1l-17.2 1.4-8 .7-4.3.4-3.7.4v.2c.2 1 .2.4.1-.1h1.5l-1.5.1 1.3 8 1.4 8.9c.9 5.9 1.7 11.6 2.3 17.2-.5-2 .6 8.6.6 10.1.2-3.4 1.5 11.9 1.5 5.5.1 1.6.3 3.5.1 3.2.3 2.3.5 3 .4.7.8 8.5.3 5.5 1.1 13.2.1 0 0-1.6 0-2.4.2 3.9.4 7.8 1 14.3 0-.3.1.1.1-.8.8 10.8.9 18.6 1.6 30.6.3-3.6.3 4.2.7 4.8l.1 6.6-.2-2.7c.1 5.8-.1 10.9 0 15.9l.2-4.3c0 3.6-.1 7.2-.2 10.9v-6.2c-.3 5.9-.4-.6-.5 7.1.1-1.6-.2 5.8-.1 8.8-.3 2.9-.6 5.8-.9 10.1 0 1.1.5-.9.5-.1-.3 1.4-.6 4.8-1.1 8.2-.4 3.5-1 7-1.5 8.8.3-1.2.5-1.2.5-.8l-.7 2.3c-.4 2.7-.5 3.1-.2 2.7-.8 4-.8 3.3-.8 2.9 0-.5 0-.7-1 4 .2-.7.2-.4.6-1.9-1 4.7-2.4 9.2-4.1 13.4-1.7 4.2-3.5 8.3-5.6 12.3-.5 1.2.5-.4 1.4-2.1.9-1.7 1.6-3.4 1.1-1.9-2.8 5.8-6.3 11.5-10.7 16.5-2 2.3-4.2 4.3-6.6 6.1l-1.4-.3c1.6-1.1 2.5-1.9 3.6-2.8 1.2-1.1 2.6-2.5 4.8-5.3-1.7 1.9-1.4 1.5-1.3 1.4.1-.2.2-.1-2.2 2.4 2.2-2.3 3.4-4 4.6-5.6 1.2-1.7 2.4-3.4 4.3-6.3-.7 1-.1-.1.7-1.8.9-1.7 2-4 2.7-5.4-.6 1.4-1.2 2.8-1.9 4.2 1.7-3.1 2.9-5.8 4.1-8.7l-1 1.4c1.2-3.1 2.3-6 3.3-8.9 1-2.9 1.8-5.6 2.5-8.3 1.4-5.4 2.4-10.6 2.7-15.7.3-1.7.2.1-.1 1.9-.2 1.8-.5 3.7-.1 2.2.9-6.1 1-12.5 1.2-14.4.3-4.2.5-6.1.8-8.1.2-2 .5-4.1.6-8.5.1 1.1.4 2.2.7-4.4.1-6.2-.4-7.6-.5-3.7v2.1c-.1 2-.2 4.6-.3 2.2l.1-.8c0-3.1 0-11.5-.2-9.5.1-3.8.2-2.7.2-.3-.1-6.8-.1-11.2-.5-18.7.1 1.3.3 2.5.2 1.2-.6-11.9 0-5.3-.3-13.3-.5-4.6-.3 1.7-.7-6.5-.5-5-.4-1-.4.9-.3-7.4-1.2-13.8-1.6-18l.2 3.9c-.1-2.3-.3-4.2-.5-6.2l.4 2.2c-.2-2.3-.4-4.2-.5-4.2-.1-2.4.6 1.8.3-2.9-.4-3-.8-9.3-1.2-10.3 1 8.6-.1.9.2 5.2-.1-1.1-.3-2.4-.4-3.8-.1-.3 0 .3 0 1-1.3-9.1-.1-4.2-1.2-13.7 0 1.2-.6-2.2-.8-3.7.5 3.8.5 1.8.2-1.7-.9-6.1-.8-6.6-1.2-9.8l.6 3.6c0-1.3-.4-4.3-1-8.5-.6-1.1 0 3.1-.2 1.6zM259.7 187.3l.3-.1h.2v.1l.2 1.4.3 2.4.3 3.2c.4 4.2.7 8.4 1 12-.2-2.2-.3.4-.2 3 .3 3.4.1 9.5.5 9l-.1-1.2c.5 2.6.6 9.7.6 15.2l-.5.9c.4 7.2.2 16.7-.3 25.4-.5 8.6-1.2 16.5-1.2 20.4-.4 3.5-.9 7.8-1.4 11.2l.3-.2c-.5 4.8-.9 8.4-1.5 12.3-.5 3.9-1.2 8-2.3 13.9l.6-2.4c-1.2 6.7-2.3 8.2-3.6 14.3v1.9c-1.2 5.7-2.7 11.6-4.7 17.2s-4.5 11-7.5 16.1c.1-.1.4-.4 1.4-2.1-1.3 2.5-3.9 7.2-6.5 10.9-2.3 3.4-4.5 6-4.4 5.5-.3.6-2 2.8-4.3 5.3-2.5 2.9-5.9 6.1-8.2 8.2l.9-.5c-2.1 1.8-3.2 2.6-4.5 3.6-1.3 1-2.8 2.3-5.7 4.6-1.4 1.1-1.1 1.2.7-.4-2.3 1.9-3.2 2.6-4.3 3.3-1.1.7-2.3 1.6-5.2 3.7l2.3-1.4c-1.1.7-1.9 1.3-2.5 1.8-1.3.1-2.6.2-4 .3.6-.5.9-.7 0-.2 4.4-3 .3 0 2.5-1.3 2.5-1.7 3.2-2.4 1.6-1.4 3.9-2.6 9.4-6.6 14.4-11.1 5.1-4.5 9.7-9.6 12.7-13.5l-1.3 1.4c2.4-3 3.8-4.7 5.2-6.3 1.3-1.6 2.6-3.2 4.4-6.3l-.8 1.1c4.5-7.1 8.5-15 11.2-22.9 2.8-7.8 4.3-15.6 5.4-21.9.5-1.2 1.2-5.3 1.9-9.2.7-3.9 1.2-7.7 1.6-8.2.6-4.8.7-6.5.9-8.7l1.1-11.6c.3-3.6.9-5.3 1.3-9.8l-.3-.1.8-6-.2-3.3.3-4.2c-.1 1.7-.1 3.6 0 3.3.6-6.5.5-16 .3-16.2.2-5.2.4-10.3.4-15.5-.1.3-.2 2.9-.3 5 .3-8.3-.3-1.5-.1-9.1.1 1 .2-.6.2-.7-.2-3.8-.4-12.4-.7-18.8l-.2 1.2c-.3-5.7-.7-11.8-1.2-18l-.3-3.4c0-.1-.1-.1-.2-.1l-.2.1-2.3.6-9.4 2.5c4.5-1.3 3.3-1.4-.3-.4l-1.4.7c-2.4.4 3.8-1.1-1.1-.1-4.7 1.3-3 1.2-.3.6l-5.7 1.4c-.3.2 1-.1 1.4-.1-1.2.2-3.6.9-6.2 1.7-1.3.4-2.6.8-3.8 1.1-.6.2-1.2.3-1.7.4l-.8.2h-.4v.1h-.1l.4 3 .5 3.9.8 6.8c.5 4.3.9 8.3 1.5 13.5-.3.2.2 4.3.3 7.5.8 7.7 1.7 16.3 2.1 25.7.2 6.6-.1 1.9-.2 4.9.3.5.6 9.8.6 5 .2 5.6.2 9.2.2 13.2s-.1 8.3-.4 15.4c-.1-1.5-.1-3.3-.2-2.4-.1 2.6-.1 5.9 0 5.5l.1-.7c-.5 8-1 17.2-2.2 25.9-1.1 8.8-2.9 17.1-5.2 23.1l.2-.7c-1.4 4.2-3.2 8.3-5.4 12.2-1.4 2.7-1 1.9-.4 1 .6-1 1.3-2.1.3 0-3.7 6.2-7.1 10.7-10.5 14.8-3.5 4.1-7 7.7-11.5 11.4-3.2 3.3-9.6 8.3-16.7 12.8-3.5 2.2-7.2 4.4-10.7 6.3-1.6 0-3.2-.1-4.7-.1l4.8-2.6c6.1-3.5 12.2-7.4 18.5-12.1-2.1 1.9-1.1 1.2.3.2 1.4-1 3.2-2.5 3-1.9 2.9-2.3 3.9-3.2 4.2-3.5l-.6.5.6-.5c2.7-2.5 5.3-5.1 7.8-7.9 1.7-2-2.5 2.4-2.4 2 2.8-2.8 3.3-3.5 3.6-4 .3-.4.3-.6 2-2.6-.6 1 2.1-1.9 4.7-5.6-1.2 1.8-2.4 3.5-3.7 5.2 3.7-4.2 4.9-6.3 6.1-8.4l2-3.5c.8-1.4 1.8-3.1 3-5.6-.6 1-1.1 2.1-1.8 3.1 1.4-2.5 3.6-7.3 5.3-12.3 1.7-5 2.9-10.2 3.7-13 .1-1 .2-2.4-.3.1 1.3-6.8 2.5-14.4 3.2-21.8.7-7.3 1.1-14.3 1.1-19.7l-.2 1.1c.1-2.6.4-4.5.2-7.8-.1.2-.2 1-.2-.2.1-1.4.3-6.9.1-10.4l-.1 2.9c-.2-6.8-.3-12-.4-17-.1-4.9-.2-9.6-.5-15.3-.4.1-1.4-10.6-2-15.9v.2l-1.8-17-.9-7.8-.5-3.9-.2-2-.4-2.9 9.3-2.3c4.3-1.4 11.8-3.4 19.9-5.6l7.1-1.9 1.6-.1z"/></g><path fill="#7C1E21" d="M203 360.3s4 63.7 6.2 78.6c2.2 14.9 6.3 46.8 6.3 46.8l-16.8 1.2-5-126.6h9.3z"/><path fill="#FF9F9F" d="M166.5 284.5s-3.5 14.9-7.4 33.7c-6.2 30 41.2 20 41.3 2.7.1-20.1.4-36.4.4-36.4h-34.3z"/><path fill="#989898" d="M155.3 535.4c-22.8 1.4-27-19.1-28-37.1l-1.8-29.4 8-.5 1.8 29.4c1.5 25.5 8.9 30.3 19.6 29.6l.4 8z"/><path d="M155 451.3c-1.3-21.9-6.3-33.1-21.9-32.2l-19.5 1.2c-15.6.9-19.2 12.7-17.9 34.6 1.3 21.9 6.3 33.2 21.9 32.2l19.5-1.2c15.7-.9 19.3-12.7 17.9-34.6z"/><path fill="#4D4D4D" d="M127.2 484.4l-.5-.5c.3 0 .3-.1.8.2 0 .2.2.5.5.6-.5-.4-.1-.3.2-.3.4 0 .7 0 .3-.3l.4.2v-.1c.2.1.4.1.5.2-.3-.2-1-.5-.4-.5.2.1.5.2.8.2 0-.2.3-.2.4-.3-.6-.3-1.1-.7-1.5-1.1-.1.1.1.3-.1.3l-.8-.5v.2c0-.1 0-.1.1-.1.3 0 .2.1.1.2-.4 0-.7-.3-.6-.5-.6-.3-.5.1-.7.1.1-.4-.9-.6-1-1l-.1.3c-.7-.2-.7-.6-.8-.8l-.1.2c-.4-.5-1.4-.5-.9-1.1l-.1.1c-.2-.2-.7-.4-.6-.7-.1 0-.2 0-.3-.1.2-.2-.2-.4-.4-.7l-.3.5c-.8-.4.1-.6-.1-1-.4-.2-.1.3-.2.4-.2-.7-1.8-1.1-1.2-1.8l.4.2c0-.3 0-.5-.1-.4.1.1 0 .1-.1.2-.9-.7 0-1.4-.5-2.2-.1.1-.1.2-.3.3-.3-.4.7-.5.1-1.1l-.1.2c-.2-.2 0-.4.1-.4-.8.1-.4-1.3-1.5-1.6.3-.4.4-1.3.1-1.6-.6-.3-.4.4-.9.3-.1-.3.3-.5 0-1 .4-.1 1.1.8 1.1-.1l-.3-.1c.1.1.2.2.1.3-.2.3-.3-.1-.4-.2l-.1-1c.4-.1.5.4.6.5-.3-.7-1.1-1.5-1-2.3l-.2.1c.2-.9-.9-.4-.3-1.2-.2-.4-.5.2-.6-.4 0-.2.2-.1.2-.1 0-.7-.5-.3-.2-.9l-.5.2c.2-.8.9-1.7.6-2.3-.1 0-.1 0-.2.1h.1l-.1.4h-.1l.1-.4c-.2.1-.2.4-.4.6.5-1-.2-2.2.1-3 .3.2.7-.4 1 .1-.5.2-.1.4-.1.7 1-.5-.7-1.9.2-2.1l-.4-.1c0-.1.3-.5.4-.3l-.3-.9c-.3.3-.8 1.1-.4 1.3l-.7-.1c.6-.7-.3-.4-.2-1 .6.3.7-.7.9-.7-.1-.2.1-.7.3-.9 0-.4-.5-1.2-.3-1.8-.2.2-.4.6-.7.6.2-.3.2-.6-.2-.7-.7 1.1.9.3.5 1.2-.4.3-.5.5-.6 1-.3-.2-.4-.1-.7-.2.9-.7 0-1.5.4-2.3.3-.3.9-.1.9-.9l.3.6c-.3-.7.3-.2.3-.8l-.3.2c-.1-.3 0-.5.2-.7l-.5.3c-.1-.2-.1-.5.1-.6-.1 0-.2-.1-.3 0 .1 0 .1-.1.1-.4 0 .1 0 .2-.2.2.1-.9-.5-.2-.5-.7-.1.1-.2-.1-.3-.2.8 0 .8-1.1 1.2-1.4l.3-.7c-.1.1-.3 0-.4-.2-.1-.2-.8.3-.6-.4l.2-.4c0 .1-.1 0-.2 0l.2-.4c-.7-.5.4-1.1 0-1.7.1.2 0 .5-.2.4-.1-.1 0-.3.1-.4h-.1l.5-1.3c-.3.1-.3.8-.6.5-.3-.2 0-.5.1-.8.2 0 .4.4.5 0-.1 0-.3-.4-.4-.2.2-.4.4-1.1.7-1.4-.1-.1-.2.1-.2.1h.1c-.1.3-.5.1-.3.6-.7.1-.2-.7-.2-1.2l-.5.7c-.9-1.2.2-2.8.4-4 .2.3-.1.6.5.6.3-.7.2-.6.4-1.4v.1c-.2-.4.3-.9-.1-1.1-.3.2.2.5-.4.5l.2-.9c-.4.3-.2.9-.3 1.3 0 .3.1-.5.5-.4-.1.9-.5 1.1-1.1 1.5-.4.3-.4-.4-.3-.5.6-.5 1-1.3.9-2.2l-.4-.5c.5-.4 1.2-.2 1.2-1l-.3.2c-.1-.2-.1-.3-.1-.4l-.9 1c-.6-.5.6-1.2.8-1.9l-.3.3c.1-1 1.1-1.9 1.4-2.6-.2-.3-.4.6-.7.4.3-.4.1-.8.5-.9l-.5-.2c.2-1.4 1.4-2.9 2.6-4.2-.2 0-.3 0-.4-.1-.3.5-.8 1.1-1.3 1.3-.1-.4.8-.7.6-.8-.2.1-.4.4-.7.4-.1-.5.5-.6.7-.9v.2c.9-.8 1.2-.3 1.7-1.2-.1-.4-.3-.1-.6-.2.3-.2.4-1 1-1.1-.1.2-.3.4-.4.5.4-.3.7-.7 1.1-.9-.1 0-.2 0-.3.1.4-.2.7-.6 1.1-.7l-.3-.2c0 .2-.5.7-.8.7-.3-.2.4-.6.7-.8-1.2.9-1.8.8-2.3 1.7l.2-.1c-.2.6-1.1 1.1-1.4 1.6 0-.2-.1-.2-.2-.2-.4 1.2-1.2 2.3-1.5 3.6l-.6.3.3.1c-.1.6-.4.2-.6.4l.1-.1c-.6.7.2.4-.1.9.4-.2.4-.8.8-.6-.6.7-.7 1.9-1.6 1.9 0 1.4-.9 3.1-1.1 4.3.1.2.1-.1.2 0-.5.5.1 1.6-.3 1.6.1.2.4.3.5.4-.2.3-.4.7-.5 1l.1-.3h.1l-.2.4c-.2.9-.2 2-.6 2.9.3-.5.5.1.7-.1-.7.4-.7 1.5-.7 2.3.1 0 .3.1.4 0l-.3.5.2-.1c.1.9-.6 1.8-.3 2.4.1-.4.2-.4.4-.4 0 .6 0 1.2-.2 1.9l.1-.1c.1.2-.1.4-.2.6h.3c-.1.4 0 .8-.2 1.3.4.2-.3 1.1-.1 1.6-.1.2.4-.4.4.1-.7.1 0 .7-.8.8l.3.5-.4.1c.8.4-.3.6 0 1.2l.2-.1c-.1.2-.1.7-.3.3 0 .3-.1 1.4.3.9-.2.1-.1-.4 0-.6.3 0 .2.5.6.6l-.1.1.2.1c-.3.6 0 1.2-.4 1.7.1 0 .2.1.2.3h-.4l.1.6.6-.3c.2.7-.5 1.2-.5 1.8.7.1-.1 1.2.6 1.6l.1-.5c0 1 .4 1.1.3 2-.3-.7-.2-.8-.9-1.8.4 1.1-.1 2 .5 3 .2-.1.2-.4.4-.1-.3.2.2 1-.3.9.2.3.6.3.7.5l-.3 1.1h.1c1.3 1.7.1 3.5 1.1 5.2l.2-.1-.2.5c.1-.4.3.1.5.1l-.1 1.2c.2 0 .6-.2.4-.4.4.4.1.9.2 1.3l.1-.2v.4l.3-.1c.1.7.8 1.4.5 1.7l.4-.2v.7l.1-.4c.5.7.8 1.9 1 2.1l.1-.1c.2.1.1.2.2.4l.2-.2c.7 1.1 1.4 1.2 2.3 2.5.4.3-.1-.2 0-.3.3.1.6.6.6.7.2-.2-.4-.7.3-.4.1.3.1-.3.5.2l-.2.4c.4.2.4-.1.8.3.4.5-1.1-.3-.3.4.5.3 1.8.2 2.6.9 1.4 1.2.4.3 1.5.9zm-10.3-55.6l.4-.1-.2.4-.2-.3zm-.9 4.3l.1-.2.1.3-.2-.1zm-.9 4.3c.1-.2.1-.4 0-.5-.2.1-.2.3-.3.4-.4-.4 1-1.2-.2-1 .2-.2.6-.7.7-.5-.1.4-.1 1.3 0 1.6.1 0 .1.1.1.1l-.1-.1c0-.1-.1 0-.2 0 0 .1-.1.1-.2.1l.2-.1zm-1.5 4.6l.1-.2c.2.5 0 .3-.1.2l-.2.2c0-.1.1-.2.2-.2zm.4 1c-.3-.1-.2-.7 0-.8 0 .2.1.9 0 .8zm.7.4c.2-.3.3-.1.4-.2.1-.1.1-.2.1-.3 0 .2-.1.2-.1.3-.1.2-.3.3-.4.2zm.5.3l.5-.8c.2.4-.2 1-.5 1l.2-.5-.2.3zm0 .5l.3-.2v.1h.1l-.2.9.1-.8h-.3zm-.6 2c.2-.4-.1-.3-.1-.5l.4.1c-.2.5-.4.6-.9 1-.3-.5.3-.7.6-.6zm-1.1.4l-.1-.2.1.2c.2.2.7.3.2.6l-.2-.6zm3 12.3l-.2.2-.1-.3.3.1zm-1.5-.8c0-.2-.1-.3.2-.2v-.4c.4.3-.1.3-.2.6v.2-.2zm-1.6.6v-.2.2c.1.1.3.2 0 .3v-.3zm2 .6c.5-.1.1-.8.3-1 .1.4.3 1.2-.3 1zm-1.8.9c.2-.1.2-.6.5-.6v.7c0-.1.1-.2 0-.3-.2.1-.4.4-.5.2zm1.4 3.1l.2-.1v.1l.1-.4c.4.5-.2.9-.2 1.2 0-.3.5-1-.1-.8zm.1 3.9c-.1.3.4.4-.1.7-.5-.3-.1-.6.1-.7zm.4.8c.2.5.4-.3.6 0l-.1-.2c.4.4-.3.3-.1.6l-.1-.2c-.3-.1-.1.3-.3.4-.2-.2-.1-.8 0-.6zm2.4 2.6c.2-.1.8.6.4.8-.1-.3-.2-.7-.4-.8zm0 1.9c.1.1.4-.2.2-.5l.5.1c-.3 0-.1.6-.1.7-.4.1-.3-.1-.6-.3zm2 3.7l-.1-.6c.5 0 .2.5.4.8-.2.1-.1-.2-.3-.2zm-1 1.8c.4.2.3.3.3.5-.1 0-.2-.3-.3-.5zm.1.5c.5.4-.1.4.1.7-.5-.2 0-.3-.1-.7zm4.1 2.1h-.3c-.1 0-.1-.1-.1-.2-.1-.1-.2-.1-.3-.1l.1-.1c.2 0 .2.1.2.2.2 0 .3.1.4.2.3 0 .2-.4.3-.6.1.2-.1.4.3.6 0-.1.1 0 0-.2l.3.3c-.1.4-.5.2-.9-.1zm1.5 2.3l-.1-.2c0-.1.1-.1.2-.2.2.2.3.5-.1.4z"/><path fill="#989898" d="M168.5 541.1h9.1v193.1h-9.1z"/><path d="M252.9 766.1c0-9 .1-16.4-7.2-18.1-6.1-1.5-43.9-10.5-62.4-15v-11.5c0-3.1-2.6-5.7-5.7-5.7h-9.2c-3.1 0-5.7 2.5-5.7 5.7v11.5c-18.6 4.5-56.3 13.5-62.4 15-6.1 1.5-7 6.9-7.1 14.1-.7-.1-1.3-.1-2-.1-8.9 0-16 7.2-16 16 0 8.9 7.2 16 16 16 8.9 0 16-7.2 16-16 0-4.5-1.8-8.5-4.8-11.4-.1-4.6-.5-9.8 5.9-10.8 5.6-.9 41.7-6.5 57.5-8.9l2.2 20.1c-.5-.1-1-.1-1.6-.1-8.9 0-16 7.2-16 16 0 8.9 7.2 16 16 16 8.9 0 16-7.2 16-16 0-4.6-1.9-8.7-5-11.6l2.8-24.6c15.7 2.4 51.8 8 57.5 8.9 4.3.7 5.5 3.3 5.8 6.3l-1.5-.1c-8.9 0-16 7.2-16 16 0 8.9 7.2 16 16 16 8.9 0 16-7.2 16-16 .1-4.5-1.9-8.8-5.1-11.7z"/><path fill="#FF9F9F" d="M350.9 334.6c-3.9 5.7-68.7 98.3-68.7 98.3s-57.3-89.1-63.5-97.3c-6.2-8.2-21.8-5.6-21.8-5.6l-9.2 32.8s8.9-8.9 13.6-5c4.7 3.9 65.9 89.2 74.1 100 10.8 14.4 17.8-1.5 27.3-15.4 10.9-16 58.8-98.6 58.8-98.6s-6.8-14.7-10.6-9.2z"/><path fill="#7C1E21" d="M218.8 335.6c-6.2-8.2-21.8-5.6-21.8-5.6l-9.2 32.8s8.9-8.9 13.6-5c1.6 1.3 9.6 11.9 19.9 25.8l17.8-17.4c-9.9-15.2-18.2-27.8-20.3-30.6z"/><path d="M172.6 514.7c-35.5 0-54.3 4.3-54.3 19.9v19.5c0 15.6 18.8 19.9 54.3 19.9s54.3-4.3 54.3-19.9v-19.5c0-15.6-18.8-19.9-54.3-19.9z"/><path fill="#4D4D4D" d="M223.5 544.5l-.9.5c.1-.3-.2-.3.3-.7.3 0 .7-.2 1-.4-.6.4-.5.1-.4-.3.1-.4.1-.7-.5-.4l.3-.4h-.1l.3-.5c-.3.3-.9.9-.9.4.2-.2.3-.5.4-.7-.4 0-.3-.3-.5-.4-.6.5-1.2 1-1.9 1.4.2.1.5-.1.5.1-.4.6-.6.1-.9.7h.3c-.1 0-.2 0-.1-.1.1-.2.2-.2.3-.1 0 .4-.6.6-.8.6-.6.5.2.5.1.7-.6-.1-1.1.8-1.7.9l.5.1c-.3.7-1 .7-1.4.8l.3.2c-.8.4-.9 1.4-1.9.8l.2.1c-.3.2-.8.6-1.2.5 0 .1 0 .2-.1.3-.3-.2-.6.1-1.1.4.4 0 .4.4.9.4-.7.7-1-.2-1.7.1-.4.4.5.1.6.2-1.2.1-2 1.7-3 1.1l.4-.4c-.5-.1-.7 0-.7.1.1-.1.2 0 .3.1-1.3.8-2.3-.1-3.6.4l.4.3c-.6.3-.8-.7-1.8-.2l.2.2c-.3.2-.6 0-.6-.1.1.8-2.2.3-2.8 1.4-.6-.3-2.1-.5-2.5-.2-.6.5.6.4.5.9-.5.1-.8-.3-1.6-.1-.1-.4 1.4-1-.1-1.1l-.2.2c.1 0 .3-.2.6-.1.4.2-.2.3-.3.4h-1.6c-.2-.4.8-.4.9-.6-1.2.2-2.6 1-3.8.8l.1.2c-1.5-.3-.8.9-2 .3-.6.2.3.5-.7.6-.3 0-.1-.2-.1-.2-1.1-.1-.5.5-1.5.1l.3.5c-1.3-.3-2.6-1-3.7-.8l.1.2v-.1l.6.1v.1l-.6-.1.9.4c-1.5-.6-3.5.1-4.9-.3.4-.3-.7-.7.2-1 .2.5.6.1 1.1.2-.8-1-3.1.6-3.4-.3l-.2.4c-.2 0-.7-.3-.4-.4l-1.5.3c.5.3 1.6.9 2 .5l-.2.7c-1-.6-.6.3-1.7.2.5-.5-1-.7-1-1-.3.1-1.1-.1-1.4-.3-.6 0-2 .4-2.9.2.4.2.9.4.9.7-.5-.2-1-.2-1.1.2 1.7.7.5-.9 2.1-.4.4.4.8.6 1.6.7-.4.3-.2.4-.3.7-1-.9-2.5-.1-3.7-.5-.5-.3-.1-.9-1.3-1l1-.3c-1.1.3-.3-.3-1.2-.4l.4.3c-.6.1-.8 0-1.1-.2l.5.5c-.3.1-.9.1-.9-.2-.1.1-.1.2-.1.3-.1-.1-.2-.1-.6-.1.2.1.4 0 .4.2-1.4-.1-.3.5-1.2.5.1.1-.1.2-.4.3 0-.8-1.7-.9-2.1-1.3l-1.1-.3c.2.1 0 .3-.4.3h.1c-.4.1.4.8-.7.6l-.6-.2c.1 0 0 .1-.1.2l-.6-.2c-.9.7-1.7-.4-2.8-.1.3 0 .8 0 .6.2-.2.1-.5 0-.7-.1l.1.1-2-.6c.2.3 1.3.3.8.6-.3.3-.9-.1-1.2-.1.1-.2.7-.3.1-.5-.1.1-.7.3-.4.4-.7-.2-1.7-.4-2.3-.8-.2.1.1.2.2.2l.1-.1c.4.1 0 .5.9.4 0 .7-1.2.1-1.9.2l1.1.5c-2 .8-4.5-.4-6.4-.6.6-.1 1 .1 1-.4-1.2-.4-1-.2-2.2-.5h.1c-.6.2-1.4-.4-1.9 0 .2.3.9-.2.8.4l-1.5-.2c.4.4 1.5.2 2 .4.4 0-.8-.2-.6-.5 1.4.2 1.7.6 2.3 1.2.4.4-.6.3-.9.3-.8-.7-2.1-1.1-3.5-1l-.8.3c-.6-.5-.2-1.2-1.5-1.3l.3.4c-.3.1-.5.1-.6.1l1.5 1c-.8.5-2-.6-3-.9 0 .1.4.2.5.4-1.6-.1-3-1.2-4.1-1.6-.6.2.9.4.6.8-.6-.3-1.4-.1-1.4-.5.1.6-1.4-.3-.4.5-2.3-.3-4.5-1.6-6.5-2.8 0 .2 0 .3-.2.4.7.3 1.7.9 2 1.4-.6.1-1-.8-1.2-.7.2.2.7.4.6.7-.8.1-.9-.5-1.4-.8h.3c-1.2-.9-.3-1.2-1.8-1.8-.7 0-.1.3-.3.6-.2-.3-1.5-.5-1.6-1.1l.8.5c-.5-.4-1-.8-1.3-1.1 0 .1 0 .2.1.3-.4-.4-.9-.8-1-1.2l-.4.3c.4 0 1.1.6 1.1.8-.3.3-.9-.5-1.3-.7 1.4 1.2 1.1 1.8 2.6 2.4l-.2-.3c1 .2 1.7 1.1 2.5 1.5-.3 0-.4.1-.3.2 1.9.5 3.6 1.3 5.7 1.7l.5.6.1-.3c1 .1.3.4.6.6-.1 0-.1-.1-.1-.2 1.1.7.7-.1 1.4.1-.2-.4-1.3-.4-.8-.8 1.1.7 3 .9 3 1.7 2.3.1 5 1 6.8 1.3.3-.1-.1-.1 0-.2.7.6 2.5 0 2.5.4.4-.1.6-.4.7-.5.5.2 1 .4 1.6.5l-.4-.2.1-.1.6.2c1.5.3 3.2.3 4.6.8-.8-.3.2-.5-.1-.7.7.7 2.3.8 3.7.8 0-.1.1-.2 0-.4l.8.3-.1-.2c1.4-.1 2.9.7 3.9.4-.6-.1-.6-.2-.6-.5 1 0 2 .1 3.1.3-.1 0-.1-.1-.1-.1.3-.1.7.1 1 .2v-.3c.6.2 1.4 0 2.1.3.3-.4 1.7.4 2.6.2.3.1-.7-.4.2-.4.1.7 1.1 0 1.2.8l.8-.3.2.4c.7-.7 1 .3 2 .1-.1-.1-.2-.1-.1-.2.3.1 1 .1.5.3.5 0 2.3.2 1.5-.3.1.2-.7 0-1 0 0-.3.8-.2 1-.6 0 0 .1.1.2.1l.1-.2c1 .4 2 .1 2.7.5 0-.1.2-.2.5-.2v.4h1l-.5-.6c1.1-.2 2 .5 2.9.6.2-.7 1.9.2 2.6-.5l-.7-.2c1.6.1 1.8-.4 3.3-.2-1.2.3-1.2.2-3 .8 1.8-.4 3.2.2 4.8-.3-.1-.2-.5-.2-.2-.4.3.3 1.6-.1 1.4.3.5-.2.6-.6.9-.7l1.8.4-.1-.1c2.9-1.2 5.6.1 8.6-.8l-.1-.2.8.2c-.6-.1.2-.3.2-.5l2 .1c0-.2-.2-.6-.6-.4.7-.4 1.5-.1 2.2-.2l-.3-.1h.7l-.1-.3c1.1-.1 2.3-.7 2.8-.4l-.2-.4h1.2l-.7-.1c1.2-.4 3.2-.7 3.5-.8l-.2-.1c.2-.2.4-.1.6-.1l-.3-.2c1.9-.7 2.1-1.4 4.2-2.2.5-.4-.3.1-.4 0 .2-.3 1-.5 1.2-.5-.4-.2-1.1.3-.6-.3.5-.1-.5-.1.3-.5l.6.2c.4-.3-.1-.4.5-.8.9-.3-.6 1.1.7.3.6-.5.5-1.8 1.7-2.6.3-1-1.3-.1-.1-1.1zm-91 6.9l-.2-.4.6.2-.4.2zm6.8 1.2l-.4-.1h.5l-.1.1zm6.9 1.1c-.3-.1-.7-.1-.9 0 .1.2.5.2.7.3-.7.3-1.9-1.1-1.6.1-.2-.2-1.1-.6-.8-.8.7.2 2 .2 2.6.1 0-.1.1-.1.2-.1 0 0-.1.1-.2.1-.1.1-.1.2 0 .3.1 0 .2.1.2.2-.1 0-.2-.1-.2-.2zm7.4 1.8l-.3-.2c.8-.1.4.1.3.2l.3.2c-.3 0-.4-.1-.3-.2zm1.6-.4c-.1.2-1.1.1-1.4 0h1.4zm.7-.6c-.5-.2-.2-.3-.3-.4-.1-.1-.3-.1-.4-.1.3 0 .4.1.4.1.2.1.4.2.3.4zm.5-.5l-1.2-.5c.7-.2 1.5.2 1.6.5l-.8-.3.4.3zm.9.1l-.2-.3h.1v-.1l1.4.2-1.4-.2.1.4zm3.1.7c-.6-.2-.5.1-.8.1l.2-.4c.8.3.9.5 1.5.9-.8.2-1-.4-.9-.6zm.6 1l-.3.1.3-.1c.4-.2.5-.7 1.1-.2l-1.1.2zm20.1-2.2l.3.2-.6.1.3-.3zm-1.5 1.4c-.3 0-.4.1-.4-.2l-.6-.1c.7-.2.7.2 1 .3h.3c-.1.1-.2 0-.3 0zm.9 1.7h-.3.3c.2-.1.4-.2.4 0h-.4zm1.2-1.9c-.2-.5-1.4-.2-1.6-.3.6-.2 2-.3 1.6.3zm1.2 1.8c-.2-.2-1-.2-1-.5.6.3 1.1-.5 1.2.1-.2 0-.3-.1-.5 0 .2.1.6.3.3.4zm5.1-1.2l-.2-.2h.1l-.6-.1c.8-.4 1.4.2 1.9.3-.4-.1-1.4-.7-1.2 0zm6.3.1c.5.2.7-.4 1.1.1-.4.5-.8.1-1.1-.1zm1.5-.3c.8-.2-.4-.4.1-.6l-.4.1c.6-.4.5.3 1 .2l-.3.1c-.2.3.5.1.6.4-.5 0-1.3-.1-1-.2zm4.4-2.3c-.1-.2 1-.8 1.3-.4-.5.2-1.2.2-1.3.4zm3 .1c.2-.1-.3-.4-.8-.2l.2-.5c.1.3 1 .1 1.1.1.2.4-.1.3-.5.6zm6.2-1.7h-1c.1-.5.9-.2 1.3-.4.2.3-.2.2-.3.4zm2.9 1c.4-.4.5-.3.8-.3 0 .2-.4.3-.8.3zm.8 0c.7-.5.7.1 1.2 0-.5.4-.6-.1-1.2 0zm3.8-4c0 .1 0 .1-.1.3-.1.1-.2.1-.3 0l-.2.2-.1-.1c.1-.2.2-.2.3-.2.1 0 .2-.1.4-.2 0-.3-.7-.2-.9-.3.3 0 .7.1.9-.2-.1-.1-.1-.1-.3 0l.5-.3c.7.1.2.4-.2.8zm3.8-1.4l-.3.1c-.2 0-.2-.2-.3-.2.4-.1.9-.3.6.1z"/><path d="M84.4 220.1l-12.2-70.7c-3-17.7 5.5-38.6 22.7-56.1 14.5-14.7 42.1-33.9 91.2-42.4 87.7-15.2 134.9 22.8 140.4 54.6l12.2 70.7-4.9.9-12.2-70.7c-2.8-16.1-16.8-31.6-37.5-41.6-17.9-8.6-49.4-17.2-97.1-8.9-47.8 8.3-74.5 26.9-88.5 41-16.2 16.3-24.1 35.7-21.4 51.7l12.2 70.7-4.9.8zM332.4 146l-14 2.4c-14 2.4-20.5 15.1-17 35.1 3.4 19.9 13.8 29.7 27.8 27.3l14-2.4c14-2.4 20.5-15.1 17-35.1-3.4-19.9-13.8-29.8-27.8-27.3z"/><path fill="#FF9F9F" d="M332.8 177.1c12.8 69-25.7 110.5-94.7 123.3-69 12.8-119.8-12.2-132.5-81.2-12.8-69 25.7-110.5 94.7-123.3 68.9-12.8 119.7 12.2 132.5 81.2z"/><path fill="#fff" d="M252.7 169.4c1.1 6 8.5 9.6 16.4 8.1 8-1.5 13.6-7.5 12.5-13.4-1.1-6-8.5-9.6-16.4-8.1-8 1.4-13.6 7.4-12.5 13.4z"/><circle cx="265.5" cy="164.6" r="9"/><ellipse transform="matrix(-.984 .18 -.18 -.984 439.754 315.733)" fill="#fff" cx="205.5" cy="177.8" rx="14.7" ry="11"/><circle cx="206.9" cy="174.6" r="9"/><path fill="#fff" d="M205.5 215l79.1-21.5s-10.3 19.9-33.7 26.3c-25.7 7.1-45.4-4.8-45.4-4.8z"/><path fill="#A57C52" d="M226.2 146.2c42.7-1.9 69.8-12 84.9-20-23.7-29.8-62.9-39.2-110.9-30.3-69 12.8-107.4 54.3-94.7 123.3 1.8 9.5 4.2 18.1 7.4 25.9 7.8-9.1 20.7-27 24.1-48 5-30.6-6.3-58.6-6.3-58.6s23 10.9 95.5 7.7z"/><g fill="#754C24"><path d="M117.5 144l-.3-.7s0 .1-.1.1c.2.4.4.7.4.6zM133.6 124.7l-.2.2c.4.1.8.2 1.3.3-.4-.2-.9-.4-1.1-.5zM114.6 216c1.2-1.4 2.9-5.5 3.2-5.1.2-.6 1.1-3.1 1.7-4.6-.3 1.5.3.1 1-1.7.7-1.7 1.3-3.8 1.5-3.3.1-1.2.7-3.2 1.2-5.4s.9-4.7 1.1-6.7c0 .2 0 .7-.1 1 .4-2.2.6-2.9.8-4.3-.4-.3-.2-3.8-.4-5.7.4-2.8.4 1.7.8.8-.2.1-.2-1.1-.3-2.3-.1-1.1-.2-2.1-.3-1.6.2-2.1.1-1.8.3-2.9-.5-.3-.2-2-.7-3.7-.1-3.1.4-.8-.2-4.2-.1-1.5.4 1 .5 1.3-.5-3.4-.6-1.5-.9-2.2-.8-4-.1-1.9-.1-3.3-.6-2.5-1.4-4.3-1.8-6.2 0-.2-.1-.5.1-.1-.9-2.5-2.3-7.7-3.9-10.5-.1-.2-.1-.4-.1-.4 0 .5-.1.7-.3.6-.3-.6-.5-1.2-.8-1.7l-.7 1.1c.1.3.2.5.4.8 1.6 3.5 3.2 7.4 4 12.5-.1-.7-.2-1.1-.2-1.2 1.3 5.7 2.3 11.7 2.7 17.8.3 6 0 12.1-1.3 17.8-.7 3.2-.6 3.6-1 5.6l-.5.6c-.2 1.1-.4 2.3-.7 3.4-.7 2.4-1.6 4.3-2.7 6.3s-2.3 4.1-3.6 6.9l.6-.6c-1.1 1.9-3.7 6-3.7 5.6-.1.2-.2.7-.8 1.4h-.2c-.8 1.2-1.6 2.3-2.4 3.4.1.7.3 1.3.5 2 .6-.9 1.1-1.7 1.6-2.6.4-.2-.7 1.5.9-.4.9-1.5-1.3 1 .3-1.3 1.2-1.3 1.1-.8 2.1-2.6.3-.2.1.2-.3.9l2.7-5.2zM117.1 143.6zM206.2 133.9c6.5-.2 13.3-.4 20.1-.9 6.8-.5 13.6-1.3 20.2-2.5 2.4-.5 3.1-.8 3.9-1.2.8-.4 1.8-.7 4.8-1.2l-1.6.7c9.6-2.7 19.6-5.7 28.2-10.3-.5.3-.5.4-1.3.8 1-.3 2.7-1.2 4.1-2 1.4-.8 2.6-1.6 2.6-1.7 1.3-.7.4 0 1.3-.4 1.9-.9 4.3-2.9 5.3-3.4.2-.1-.4.4-.8.6.5-.3 1.4-1 2.3-1.6l-1.7-1.2c-.7.5-1.4 1-2.1 1.4.1-.2 0-.1.4-.4-1.8 1-2.2 1.5-2.8 1.9-.5.5-1.1 1-3.2 2-2.2.9 2.1-1.4.7-.7-.9-.2-4.9 2.8-7.9 3.7l.7-.4c-2.3.8-5.2 2.6-8.9 4 0 0 .2-.1 0-.1-2.4 1.3-7.2 3-10.8 4.1 1.1-.6 1.6-.6.9-.7-1.6.5.6.3-2.6 1.3-1.1.2-3.5.7-3.9.5l3.1-.8c-1.7.1-4 1-5.6 1.4l.2-.2c-4.7 1.1-4.7 1.5-9.9 2.4h.6c-2.8.9-2.4.2-5.2.9l-.9-.3c-1.9.4-6.5 1.2-9.9 1.6 1.9-.5 5.8-1 8.2-1.5-1.9.3-6.3.8-7.3 1 .8-.1 1.7-.3 2.4-.3-2.3.6-5.3 1-9 1.2.3-.4-2.1-.3-5-.2-2.9.1-6.1.2-7.5-.1-6.6.4-13.1-.1-20.8-.4 2.7.7-2.2-.1-1.8.5-1.8-.1-2.5-.1-2.6-.2l.4.1-.4-.1c-1.8-.2-3.6-.5-5.4-.8-1.3-.3 1.7 0 1.6-.1-3.9-.4-1.6-.4-4.2-.8.5.3-1.4.2-3.6-.1l3.1.6c-5.5-.3-4.7-1-10.2-1.4h1.8c-2.8-.2-10.3-1.5-13.2-1.6-.5-.2-1.1-.4.1-.3-5.8-1.1-12.7-2.3-17.7-3.7l-1.6 1.3c1.2.3 2.7.8 2.5.9l-.3-.1c3.8.8 8.2 2 12.3 3 4.2 1 8.2 1.9 11.3 2.1h-.3c2.1.2 4.3.5 6.4.6l.4.4c6.9.5 10.9 1.3 16.6 1.4 2.2.5 6.1.8 10.2.8 4.1.1 8.4 0 11.4.3l-.3-.2c1.5-.2 1.9.1 3 .1-.2.4-1.8.4-.8.3zM175.7 103c-.3-.3-.6-.3-1.1-.5l-.4.1c.4.1.9.2 1.5.4zM110.2 158l-.3-.6-.9 2.2c.5 1.1 1 2.3 1.4 3.5-.2-.3-.6-1.1-.3.1 1.2 3.2 2 6.8 2.3 10.4.3 3.6 0 7.2-.6 10.3 0 .8-.2 1.6-.3 2.4-.2.5-.5 1-.3.4-.9 2.3.1.2-.2 1.4-.5 1.3-.9 1.7-.6.8-.7 2.1-2.2 5-4.2 7.6-.9 1.2-1.9 2.4-2.9 3.4 0 .9.1 1.8.2 2.7 1.1-1.2 2.3-2.6 3.1-3.7l-.1.6 3.4-5.5c.5-.7.6-.5-.1.4.8-1.2 1.1-1.8 1.3-2.4.2-.6.5-1.3 1.3-2.9-.1.4-.2.9-.4 1.3.6-1.4.8-2.1 1-2.6.1-.5.2-.9.3-1.7.5-1.9 1-5.6 1.3-6.1-.1-.4-.2-2.1-.2-3.8.1-.2.2.4.2.7.1-2.5-.3-4.4-.6-6-.3-1.6-.7-3.1-1-4.8.1-.1.1-.3 0-.6 1 3.5 1.3 6.6 1.3 6.8.3-.1-.2-3.3.6-.7-.3-1.3-.7-3-1.3-4.8l-1.7-5c0-.2-.1-.3-.1-.4l.1.3c-.2-.7-.5-1.3-.8-1.8-.3-.9-.6-1.5-1-2.4 0-.1 0-.2-.1-.4l-.2.5c.2-.1.3.2.4.4zm1.7 9.2c-.1-.3.2 1.2.3 2.2-.1-.8-.4-1.8-.6-2.8 0-.2.2 0 .3.6zm-1.4-4.1l-.6-1.5.6 1.5zM162.4 108.2l4.3 2h-.9c5.9 3 11.3 3.6 16 5.5 1.7.2-3.4-1.1-1.8-.9 2.9.9 5.9 2 6.8 2.1 4.1.9 3.9.2 8.2.9-.5-.2-1-.5 2.2-.3 3 .3 3.7.8 1.8.7-.7 0-1.1-.1-1-.2-1 0-2.3-.1-1.1.1l.4-.1c1.5.3 5.7.5 4.7.6 2.3 0 1-.1-.7-.3 3.9.4 6.1.2 10.1.2-.6 0-1.2-.2-.6-.2 2.9 0 3.6-.2 4-.3.4-.1.6-.2 2.5-.4 2.3 0-.8.5 3.2-.1 2.4-.2.6.3-.4.5 3.6-.6 6.8-.7 8.9-1.1l-1.9.4c1.1-.2 2.1-.4 3-.6h-1.1c1.1-.2 2.1-.3 2.1-.2 1.1-.4-.9-.2 1.3-.9 1.5-.2 4.4-1.1 5-.9-4.3.9-.2.3-2.6.9.6-.1 1.3-.3 2-.4.2 0-.1.1-.4.2 4.5-.8 2-.8 6.5-2-.5.3 1.1 0 1.9-.2-1.8.5-.9 0 .7-.7 2.9-.8 3.1-1.1 4.6-1.6l-1.7.5c.5-.4 1.9-.8 3.9-1.6.2.1-1.7.8-1 .6 2.1-1.1 5-1.6 7.9-3.2 1.4-.5.3.2 1.5-.3 3.2-1.8 3.7-1.6 6.9-3.7-1.1.4-1.2.5 1-1.1-1.8 1.2-3.6 2.3-5.4 3.3 1.1-.7 2.3-1.5 3.4-2.3-1.6 1-3.4 2.1-4.5 2.6 1.6-1.1 1.5-.9.6-.7 2.5-.9 4.4-2.7 7-4.1l.2.5c1.4-.8 2.5-1.6 3.7-2.5l-2.2-.8s-.1 0-.1.1v-.1c-.1 0-.1 0-.2-.1l-.8.6c-2.1 1.5-4.2 3-7.1 4.5-1.5.7.8-.6 1.2-1-5.6 3.4-11.4 5.5-16.8 7.6 0 0 .6-.3 1.1-.5-1.1.4-2.6.8-2.4.9l1-.4c.9-.2-.1.4-1.4.9-1.3.6-2.9 1.1-2.9 1.2.9-.6-.5-.2-1.8.1-1.3.3-2.4.5-1-.3-.7.2-1.6.6-1.4.6-1.1.2-1.5.2-.4-.2-4 1.1-2.5 1-6.2 1.7 0-.1.7-.3 1.1-.5-1.8.6-3.7 1.1-6.8 1.5.2-.1-.2-.1.7-.3-2.7.4-5 .9-7.3 1.2-2.4.4-4.8.7-7.8.7 1.7-.5-2 0-2.4-.4-1.1.1-2.1.1-3.2.1l1.3.2c-2.8 0-5.3.2-7.7-.1h2.1c-1.8-.1-3.5-.2-5.2-.3l3 .4c-2.9 0 .3.5-3.5.1.8 0-2.8-.3-4.2-.8-1.4-.1-2.8-.2-4.9-.7-.5-.2.5-.3.2-.5-.7 0-2.3-.3-4-.7-1.7-.4-3.3-.8-4.2-.9.6.1.7-.1.5-.2l-1.2-.1c-1.2-.4-1.4-.5-1.1-.6-3.7-1.2 1 .9-3.3-.8.4.1.2 0 .9.2-4.4-1.6-8.5-3-12.3-5-.5.2-1 .5-1.6.7.7.5 2.4 1.3 3.3 1.6l-2.2-.3zM177.7 102.9c-2.7-.5-.1.4 1.1.8-.2-.1.2-.1.2-.2 3 1.1.6-.3 4.8.8l-.2.1c1.6.2 3.1.3 4.9.6.7.4-1.7-.1-1.9.1 2.5.4 4.9.2 7.1.6-1.1 0-2.6-.2-3.6-.2 2.4.6 2.7.5 4.5.7h-.2c1.4.2 2.8.3 4.2.4l-1.1-.1c3.1-.5 6.3.1 10.5-.6-4 .6-.7.3-1 .6 1.1 0 2.7 0 2.3.1 2-.4 3.3-.1 6.1-.8.1.1 2.1-.3 1.7 0 2.5-.5-.6-.1-.4-.2 1.9-.5 4.2-.8 6.7-1.4 2.5-.6 5.2-1.4 7.8-2.6 2.3-1 3.5-1.8 4.7-2.5l4.3-2.7c1.4-.6-.9.9-.9.9 2.2-1.1 3.8-2.1 5.7-3.6-.3.3.1.1.8-.2 0 0 .1 0 .1-.1-.2 0-.5 0-.7-.1-.3.2-.6.5-.8.8-.7.3-1.2.4.1-.6-2 1.1-1.6 1.3-3.5 2.2-.2.1-.1 0 0-.1l-1.9 1.3c.3-.3-.5-.1.8-.7-3.6 1.8-5.7 3.3-7.3 3.7l.3-.2c-2.6 1.2-2.7 1.3-2.6 1.3.1.1.3.1-1.6 1l-3 .2-.4.5c-.6.2-1.7.4-1.5.3-2.1.8.4 0-.8.6-2.8.5-7.6 1.7-8.3 1.3-1 .4 2.7-.2-.3.4-.9-.4-3.5.5-6.1.5.8-.3 3.2-.4.6-.4-1.5.6-5 .2-7.2.2-.1.4-4.7.1-8.4-.2.1-.1-1.6-.2-3.7-.6-2.1-.3-4.7-.8-6.4-1.2h.1c-.7.3-4.1-.5-6.6-1 .2-.2.6-.2 2 .1l-2-.5-1.6.5c.6-.3 1.6 0 2.6.2zM164.9 107.7c-.6-.3-1.2-.6-1.9-.8-.1 0-.2.1-.2.1.8.2 2.9 1.3 2.1.7z"/></g><path fill="#E6685D" d="M207.5 502.5s-5.6-18.4-7.6-71.2c-1.4-37.9-.9-87.8.5-110.4l-41.3-2.7c-6.1 30-14.1 74.1-15.3 106.5-2 53.9 2.7 84.2 2.7 84.2l61-6.4z"/><circle fill="#E6685D" cx="201.9" cy="352.6" r="18.7"/><g fill="#AD272D"><path d="M184.7 339.4c-.2 0 0 .1.1.1l-.1-.1zM184.7 339.6zM185.3 340.3c-.2-.1-.3-.4-.5-.3.1.2.3.4.5.3zM185.1 340l.2.1zM185.1 339.8v.1l.3.1zM185.3 340.4l.2.5c.1.2.1-.1.2 0l-.2-.1.2-.2c-.2-.3-.2 0-.4-.2zM190.9 352.1zM190.8 355.7s0 .1-.1.1c.1 0 .1 0 .1-.1zM190.4 349.8v.1-.1zM181 368.3zM190.1 359.7v.2-.2zM187.3 343.5c0 .1 0 .1.1.1l-.1-.1zM187.8 344.6zM188.2 345.3zM187.4 343.6c0 .1-.2.3.1.2 0 .1.1.1.2.2v-.1s0-.1-.1-.2c0 0-.1 0-.2-.1zM190.9 352.1zM190.6 351v.1-.1zM189.9 347zM190.6 351.2zM165.8 369.2l.2.1c.2-.1-.3-.1 0-.2-.2 0-.2 0-.2.1v.1-.1zM180 368.5c0-.1 0-.1-.1-.1 0 .2.2.2.1.4 0 0 .1 0 .1-.1-.2.1-.1-.1-.1-.2zM180.1 368.8h.1-.1zM168.2 369.9zM188.2 358.7v-.1c-.1 0 0 .1 0 .1zM181.6 367.7l.1-.1-.1.1zM176.5 371.8h-.2l-.1.1c.1-.1.2-.1.3-.1zM165.7 369.1zM180.7 368.5c.1-.1.3-.2.4-.2h-.1l-.3.2zM191.4 353.8h-.2c0-.2-.2-.2-.1-.4.1.1.2 0 .2-.2 0 0 0 .1-.1.1l-.2-.6-.2.6c-.2-.1 0-.2 0-.3 0 0 0 .1.1 0l-.1-.2c.1-.3.2 0 .3-.2.1-.2-.1-.3 0-.4v-.1c0-.2 0-.4-.2-.4.1 0 0-.2-.1-.2-.1-.1-.2-.3 0-.5 0-.2.1-.4.1-.4v-.4h.2c-.1-.3-.2-.3-.4-.5.1-.2-.1-.6-.2-.8v-.1.1c0-.2-.1-.2-.2-.4v-.30000000000000004.1.1l-.1-.5v.1c0-.1.2-.3.1-.4 0 0 0-.1-.1-.1v-.1.1c-.1 0-.1-.1-.1-.1l-.1-.3c0-.1 0-.1-.1-.2l.1-.1v-.1c.1-.4-.3-.5-.2-1-.1 0-.1.1-.2.2-.1 0-.3-.2-.4-.3.1-.2 0-.8.2-.8-.1-.3-.1.2-.2 0 0 .1 0 .2-.1.3-.1.1-.3-.2-.3-.3h.2c-.2-.3-.4-.1-.6-.2 0-.3.2-.2.3-.3l-.2-.2.1-.1c-.1-.1-.2-.1-.3-.4.2.1-.1-.4.2-.2 0-.1-.3-.1-.1-.2-.2 0 0 .1 0 .2-.2.1-.2-.2-.3-.3.1-.1.2 0 .1-.2-.1 0-.2-.1-.2-.2-.1.1-.1-.2-.2-.3 0 .1 0 .3-.1.3-.1-.1-.2-.1-.2-.3v.2c-.3-.1 0-.3-.2-.5l.3.1c-.1-.1-.3-.2-.5-.3v-.3c-.1 0-.1-.2-.2-.1-.1-.3.2.1.3.1-.1-.3-.3-.1-.3-.5h.2c-.1-.1-.2-.2-.2-.3 0 0 0 .1.1.1-.2.1-.4-.3-.6-.1l.1.1c-.2-.1-.4-.1-.4-.3 0-.2.2 0 .3 0-.1-.2-.3.1-.5-.2 0 .1 0 .2-.1.2.1.1.2.4.3.3v-.1h.2c.1.2 0 .1-.1.2.2.3.2-.1.4.1v.1c.1.1.3.2.4.2-.1.2.2.2.2.4-.3.2-.3-.4-.5-.4 0 .2-.2 0-.3 0l.4.3c0 .1-.1.3.1.3.1.1.2 0 .3.2h-.1c.1.1.1.1.2.1l-.1.1c.2.1.1.3.2.4.2-.2.6.4.6 0l.3.3c0 .2-.4-.1-.5.1l-.1-.3c-.2.2.5.5.3.8.1.1.1.1.1.4l.2-.2c0 .2-.1.3-.1.3.1.1.1.1.1.2 0 0-.1 0-.1-.1-.1.2 0 .2.1.2s.1.1.2.2h-.1l.1.1s0 .1.1.1c0 0 .1-.2.1-.3.1.4.2.6.1 1-.1 0-.2-.1-.2 0 0 .2.2.3.3.2v.1s-.1.1-.1.2v.1c.2 0 .2.3.3.3 0-.1 0-.1-.1-.2.2.1.3.1.3.3-.2-.2-.1.3-.3 0-.2.3.2.1.2.3v.2l-.2-.2v.1c-.1-.1-.2-.5-.4-.7l.1.5c.4.6.4 1.4.8 1.9h.1l.1.1c-.1.1-.1.4-.2.6l.2-.2c.1 0 .2 0 .2.2-.1 0-.1-.1-.2.1 0-.1.1 0 .1.1s0 .3-.1.3v-.1s-.1.2-.2.1l.1.2h-.2l.4.7h-.2l.3.7-.1-.2c0 .8 0 1.4-.3 2.1l.2.2-.2.2c-.2.7-.1 1.3-.2 2 0 .2-.2.1-.3.2v1.1c-.1-.1-.2-.2-.3 0 .1.1.1.1.1.2v-.1c-.1.1-.1.2-.2.4-.1.4-.1.8 0 1.3-.2.3-.2-.1-.3-.1.2-.2 0-.2 0-.3 0 .2 0 .3-.2.3-.1.2-.1.3-.1.5 0-.1.1-.2.1 0-.1.1-.2.5-.4.4-.3.9-.9 1.7-1.4 2.5 0 .2.1-.1.1 0 0 .3-.2.1-.2.3v-.1c-.2.2-.2.6-.3.9l-.1-.1c-.1.1-.6-.1-.6.1l.5.2-.1.2c-.2 0-.3.1-.4.1-.1-.1 0-.2.1-.3-.2-.2-.3.2-.4-.1l.1.2-.2.1.2-.1c-.1.2 0 .3-.2.4v.3c-.1-.1-.1.1-.3.2v-.1c-.1.1-.2.2-.3.2 0-.2.1-.1.1-.2l-.2.1c.1.1 0 .2.2.2 0 .3.1.4-.3.7-.3 0 0-.3-.1-.3-.4.2-.1.7-.3.9-.3.2-.2.3-.4.5 0-.2-.3.1-.4 0v-.2c-.1.1-.2.1-.2 0 .1.1-.3.4-.4.6l.1.1c-.1.1-.3.4-.5.4-.2.2-.1.3-.2.5-.2 0-.2-.2-.3-.3l.3-.1c.2-.3.3-.7.6-.9-.1-.3-.2.2-.4.2.1-.1.2-.3.2-.4-.1.2.1.4-.2.4-.1.2-.4.1-.5.1 0 .2.1.4-.2.5v-.2l-.3.5c.1 0 0 .2.2.1 0 .1-.3.3-.4.3v.1c.2 0 .2-.3.5-.2v-.2c.2 0 .3.1.2.2l.1-.1c.2.2-.3 0-.2.3l.1-.1c.2.1-.2.3-.4.4-.2 0-.4.1-.5 0l.2-.2c-.2 0-.3.2-.4.3h-.2c-.1.1-.3.2-.4.2l.1.1v-.1c.1-.1.3-.1.3.1-.2.2-.4 0-.5 0 0-.2.3-.1.4-.2-.2-.1-.3.1-.6.1l.3-.3c-.2.1-.2.2-.5.3 0-.1.2-.2.1-.3h-.2l.1-.4-.3.2c.1.1.3.1.2.3h-.2c-.1-.1.1-.3 0-.3l-.2.2.1.1c-.1 0-.1.3-.2.4-.1 0-.2.1-.3 0l-.8.7c.2-.2-.1-.2-.2-.2.2-.1.1-.3.1-.4-.1.1-.1.3-.1.3-.2 0-.1.2-.3.1l-.1-.3c-.2.1 0 .2-.3.3v-.1c-.2 0-.3.1-.3.2-.2-.2-.4.1-.4-.1-.3.1.1.1 0 .2s-.4.1-.5.1l.2-.1-.1-.1-.6.4c.2-.1 0-.1.1-.3-.1.1-.4.1-.2.2h-.4c-.1.1-.3.2-.3.3-.2 0-.4-.1-.5-.1-.5.2-.9 0-1.4.1l-.2.2c0-.2-.2-.1-.4-.2h-1.3s0-.1.1-.1c-.3-.1-.6-.1-.9-.1-.5-.2-.9-.1-1.4-.1l.1-.1c-.2-.1-.6-.2-.8-.1l-.5-.3h.1l-.5-.2c-.4 0-.6.2-1.1 0 .1-.3.3 0 .4-.2-.1 0-.2 0-.3-.1l.1-.1c-.1-.1-.5.1-.5.1s0 .1.1.1c-.2.1-.5-.2-.7-.2.1 0 .3.2.1.3-.3-.2-.5 0-.7 0-.2-.2.3-.1.3-.3 0-.1-.1-.3.1-.3l-.7-.2c-.3-.1-.7-.1-.9-.3l.1.1c-.1 0-.2-.1-.3 0 .1-.1-.1-.3 0-.3-.3.2-.7-.2-1-.1 0-.1.1-.2.2-.2l.3.2c-.2-.1-.2-.2-.2-.3h-.8c-.1-.2-.1-.3 0-.4l-.6.2.1-.3h.1c0-.5-.3.1-.6-.1l.2-.2c-.3-.1-.6 0-.7-.2h.1c-.2-.1-.4-.4-.5-.5h.1l-.3-.3h-.1c.1.2.2.4.4.5l-.2.5h.1c.1.6.6 1 1 1.5l.9.6c.2-.2.1 0 .4.2-.2-.1-.1.1 0 .2h.3c0 .1.3.5.5.5.2.2-.1 0-.2.1 0 .2.2 0 .2.1l.8.5c.1-.2.4.1.5.1-.1.1.1.2.2.3l.3-.1.5.2v-.1c.2 0 .6.3.7.5.9.1 1.4.3 2.1.5.6.3 1.2.5 2.1.6v-.2h.4l-.1-.1h-.3v-.1h-.3c.2 0 .2-.2.4-.1h-.1c.2 0 .2-.1.3 0l.1.1.5.1c.3-.2.5 0 .6 0l-.5.2.2.1v-.1h.3s.1-.1.1 0v.1l.2-.1c-.1.1.2 0 .1.2.6.1.8-.2 1.3 0-.1-.1.2-.3.3-.2.1 0 .1.1.1.1l.2-.1c.3.2.5 0 .9.1v.1c.1-.1.3-.2.5-.2v.1c.3.1.2-.3.5-.3 0-.1-.2-.2-.3-.3.1.1.4.1.3 0 .3-.1.2 0 .2 0l.1-.1c.2 0 .1.2 0 .3.2-.2.4-.1.6-.2l-.1.1h.3c.2-.2.4-.2.6-.2l-.1.2c.2.1.1-.1.1-.1.2-.2.3-.1.5 0 .3-.3.9 0 1.2-.4l.1.1c.4-.4 1.1-.3 1.3-.8l.9-.4c1.7-.8 3.4-1.8 4.5-3.2l.1.1c2.1-1.8 3.6-4.2 4.7-6.8 0-.3-.2-.2-.2-.4 0-.1.1-.3.2-.3 0 .2.1.1.1.2.1-.3.3-.6.3-.9l-.2.2.1-.4.2.1c-.1-.6.3-.4.3-.9-.2-.2-.3-.8-.4-1.2l.1-.2c-.1.3.2 0 .1.4.1-.3.1-.6.2-.8-.1 0-.2 0-.2-.1l.2-.3.1.2c.1-.1 0-.2 0-.4.1 0 .2-.3.3-.2l-.1-.6c-.1.3-.1-.1-.2-.1v.3c.1-.4 0 .1.2.1h-.3l-.1-1-.2.1c0-.3.1-.1.2-.2 0-.2.1-.2 0-.4.1-.3.1 0 .2-.1.1.1-.2.8.2.8l.1.6c.1-.4.3-.7.2-1zm-3.5-8.9zm2 2.2zm.5 2.9c-.2-.1 0-.7-.1-.6-.1-.3 0-.2 0-.2l.1.7.1-.1s0 .1-.1.2zM186.5 341.1l-.1-.3h.1v-.2c-.2-.2-.3-.1-.5-.1l.5.6zM185.8 341.4v.2h.1l-.1-.2zM187.1 343.9c-.1 0-.1.3.1.2l-.1-.2zM187.8 342.7c-.1-.1 0-.1 0-.2l-.1-.1c-.1.2 0 .3.1.3zM187.6 344.9c-.1 0 0-.3-.2-.2l.2.2zM188.7 343.9c.1-.1-.1-.2-.1-.4 0 .1-.1.4.1.4zM188.1 345.3c0 .2 0 .4-.1.4.1.1.3.1.4 0-.1 0-.1-.1-.2-.2 0 0 .1 0 .1.1-.1-.2-.1-.2-.2-.3zM188.6 344.1c0 .2.1-.1.2.1v-.4c-.1.1-.1.2 0 .3h-.2zM188.3 346.4c-.1-.2-.2-.4-.3-.5 0 .2.2.4.3.5zM189.1 344.8c-.1-.2-.1 0-.1 0 0-.1 0-.1-.1-.2.1.2-.1.1 0 .2h.2zM189.5 345.6l.1-.2c-.2-.2-.1 0-.3.1l.2.1zM189.3 345.7l.4.2-.4-.2zM189.3 349.9c-.1 0-.1.3 0 0 0 .1.1-.1 0 0zM190.5 349c0 .1.1.4.2.6 0-.2-.1-.7-.2-.6zM191.1 355.7c0-.1 0-.3-.1-.4 0 .2 0 .3.1.5 0 0 .1-.1 0-.1zM190.8 357.1c0-.1 0-.2-.1-.2 0 .1 0 .3.1.2zM184.6 364.4c.1-.1 0-.1 0-.2-.1.1-.1.2 0 .2zM184.4 364.5h-.1l.2.1zM183.8 365zM183.9 365c-.1-.1-.1 0 0 0-.1 0-.1-.1 0 0zM183.6 365.1v.2h.2l-.2-.2zM182.8 366.6l.3-.7c-.2 0 0-.2.1-.2-.2.1-.1.4-.3.3-.3.3.2.2-.1.6zM183.5 365.9c0-.1-.2 0-.2.1 0 0 .2 0 .2-.1zM182.6 366.3h-.2v.1zM182.2 366.4c0 .1-.2.2 0 .2v-.2zM181.6 367c-.1 0-.2 0-.1-.1-.1 0-.1.3.1.1zM180.4 368l-.2.2h.1c.1-.1.2-.2.1-.2zM181.1 368.5c-.2.1-.2 0-.4.2.1.1.2-.1.4-.2zM180.2 367.9c-.1-.1-.2 0-.2.1 0 0 .1 0 .2-.1zM179.4 368.7c.2-.2.2-.5.4-.4l.1-.4-.2.3-.1-.1c-.2 0-.3.1-.4.2.1.1.2.3.2.4zM180.4 368.5h-.2c.1.1 0 .1-.1.2.2.2.2-.1.3-.2zM178.2 369.1l.2-.1-.3.2zM178.2 369l-.2.2zM178.1 369l-.2.1zM177.6 369.2c0 .1-.2.1-.3 0l.1.1s.2 0 .2-.1zM175.7 371.9l-.1.2h.1c.1-.1.1-.2 0-.2zM175.3 371.9l-.2.2c.3 0 .3-.2.5-.2 0-.1-.2.1-.3 0zM170.6 371.9c-.2.1-.5 0-.7 0l-.1.2h.3l-.1.1h.4c.1-.2 0-.2.2-.3zM159.6 366.3c-.2-.1-.1.1-.1.1.1 0 .1 0 .1-.1zM159.5 366.5z"/></g><path fill="#FF9F9F" d="M100.1 255.7c.6 7.6-2.6 14.9-6.7 20.5s-61.6 100.6-61.6 100.6 99.3-44.3 109-47.8c9.7-3.5 18.8 1.9 18.8 1.9l-6.7 34.7s-3.4-9.3-9.5-8.5c-6.1.7-106.5 39.6-119.3 44.3-16.9 6.2-24.1-13.8-14.5-27.7 9.6-14 75.5-113.9 75.5-113.9l15-4.1z"/><path fill="#D3145A" d="M86.8 289.5h-.8c-.3 0-.6 0-.7-.3l.6-.1c-.8-.2-1.3-.5-1.9-.9-.3-.2-.4-.3-.6-.3-.2-.1-.3-.1-.5-.1l.2-.1c0-.3-.5-.3-.6-.1-.1-.1.1-.2.1-.3-.1-.2-.5.1-.4-.2h.1c-.1.1-.4-.3-.4 0-.2-.2-.5-.1-.6-.4-.3.2-.3-.4-.6 0 .2-.4-.2-.5-.5-.4.1-.1-.1-.2.1-.3-.2-.1-.4-.1-.5.1-.1-.6-.8 0-.7-.7-.6-.1-1.2-.2-1.7-.4l.7-.2c-.5-.1-1 .1-1.3-.2-.1-.1.2-.1.2-.2-.5-.1-.8-.5-1.3-.5l.1-.1c-.1 0-.1-.2-.2 0h.1c0 .3-.6.4-.7.5.4-.4-.3-.3.3-.9-.1 0-.2.1-.2.2-.1-.1 0-.2.1-.3-.3-.1-.3.2-.6 0 0-.1.1-.1.2-.2-.2.1-.4.2-.6 0l.1-.1c-.4-.2-.9.1-1.2-.3.3-.3-.1-.2.1-.5h-.3v.2c-.2-.1-.5 0-.6-.2l.2-.1-.4-.1.1.2c-.3.1-.2.4-.4.2.1 0-.2-.1-.2-.4-.2 0-.3.1-.4-.1 0-.2.1-.4.1-.5-.2.3-.6-.2-.7.1v-.4c0 .1 0 .2-.1.3-.1-.2-.2-.2-.2-.4-.3-.2.1.5-.1.3h-.1v-.2c-.3.3-.4.9-.7 1.1l-.1-.6c-.2.3-.3.7-.4 1-.1.3-.1.5-.3.7h.1c.4.3-.4.1-.3.5 0-.1-.2-.2-.2-.2-.2.2-.2.6-.4 1.1l-.1-.1-.5.5c.1.1 0 .2.2.3-1 .1-.3 1.2-1.1 1.3v-.2l-.1.5c.2.1.2 0 .4 0 .1.1.1.3 0 .4 0-.3-.3-.2-.5-.2l.2.1c-.5 0 .4.3 0 .4l-.1-.1c0 .1.1.3 0 .4-.3-.1 0-.2-.2-.3-.1.2.2.6-.1.6v-.3c-.4 0-.3 0-.4.1l-.3.2h.1c.5.6-.2.5.1 1-.2-.5-.2-.2-.4-.4-.1 0-.3.1-.3 0 .1.3-.3.1-.1.5-.1 0-.1.1-.3 0 0 .2.2.1.3.1.1.4-.7.4-.6 1 0 .4.1.6.1.9v.1c-.2 0-.2-.3-.2-.3-.2.1-.3.2-.3.4-.1-.1-.1-.1-.3-.1-.1.1.2.3 0 .3-.1-.1-.2-.2-.2-.3v.6c-.2-.1-.2-.2-.2-.3 0 .2-.1.5 0 .7h.1c0 .1-.2-.1-.2-.2-.1-.3.2-.1.3-.1v.1c.5.2.2-.5.4-.6l.2.3c-.3.5-.7 1-1 1.6-.3.3-.7.6-.6 1h.4l-.1.2-.2-.1c-.1.2.1.2.3.1-.1.1-.1.2-.1.3l.5-.1c-.1.2-.3.2-.3.4.2-.1.2-.4.4-.3-.1.2-.2.3 0 .3-.1.1-.1.1-.2.1.2 0 .3.2.5.1-.1.3.4.3.1.6.1 0 .4-.1.5 0-.5.2.3.3-.1.7.4-.2.6.3 1 .3h-.1c.1.1 0 .3 0 .4.3-.3.5-.2.8-.2-.1.4-.4.2-.6.6l.6-.2c0 .3 0 .2-.1.5.4-.3.2 0 .5-.1 0 .3-.3.4 0 .4 0 .2-.3.2-.3.2.2.2.3-.2.5-.3.3.1-.1.3-.1.5.2.1.5-.1.6 0 0 .1 0 .1-.1.1.3-.1.4.4.9.3v.1c.1-.2.2-.3.3-.4.1.1.3 0 .2.2 0-.1-.1 0-.2 0h.2c-.2.3-.2 0-.4.2.2.1.6.1.7.2l-.4.2-.1-.3-.3.4.6.5.4-.3c.6.1-.3.9.3.8.2-.1.6-.4.6 0l-.3.2c.2.3.5-.3.6.2-.2.1-.3-.1-.3 0 0 .4.3 0 .4.1l-.2.3c.3.2.8.3 1.1.6-.1.1-.2.1-.2.2.5.2.8.8 1 1.3l.3-.1s0 .2-.1.2c.1.2.1-.1.3-.1.1.1 0 .2-.1.2.4.1 1.1.3 1.1.8h-.1c.1.3.6-.2.7.2h-.1c.3.4.7.7 1 1 .3.3.6.7.9 1.3 0-.3.2.1.3-.2.1-.2.2-.3.2-.8.4-.1.3.2.9-.3.1-.2 0-.6 0-.9l.2.2v-.5c.1 0 .2.1.4.1l.1-.3c-.1.1-.2.1-.3 0l.1-.3c.1-.1.1-.1.2-.1.1-.1.3-.1.4 0l.1-.6c.1.1.1.2.1.3l.2-.3c-.1 0-.1-.1-.2-.2.2 0 .4-.3.5-.5l.2.2c.3-.3.4-.8.6-1.2-.2.1-.5-.1-.4-.3l.3.1c-.1-.2-.2.1-.3-.2.1-.1.4.1.4.2v-.2c.1 0 .1.1.2.2-.1-.2.5-.1.2-.4h.1l.5-1c-.2-.2-.1-.2-.2-.5.2-.2.6-.3.7-.6 0-.3-.2-.2-.3-.4.2.1.4-.2.4.1.2-.4.2-.5.3-1-.1 0-.2 0-.2-.1s.2-.1.3-.1c0-.7 1.3-.8 1.1-1.4v-.6c.2-.2.1.2.3.2-.1-.7.5-.7.5-1.2.8.1.6-1 1.2-1.2l-.2-.1c-.1-.2.2-.1.2-.1l-.2-.1.3-.7.3-.3.4-.5c.5-.6 1.2-1.4 1.8-2.3h-.2zm-19.5-2.8l-.1.1c-.1-.1-.1-.1-.1-.3 0 .1.1.1.2.2zm-3 4l.2.1-.1.2c0-.1-.1-.1-.1-.3zm-.7 1.1c.1 0 .2.1.2.1l-.1.2-.1-.3zm6.8 10.4l-.1-.1.1.1zm.4.3s-.1-.1-.1-.2c.1-.1.1-.1.2-.1-.2.1-.1.2-.1.3z"/><path d="M101.2 185.9l-14 2.4c-14 2.4-20.5 15.1-17 35.1 3.4 19.9 13.8 29.7 27.8 27.3l14-2.4c14-2.4 20.5-15.1 17-35.1-3.4-19.9-13.8-29.7-27.8-27.3z"/><g fill="#4D4D4D"><path d="M338 154.1l.1.2c-.1 0-.1-.1-.1-.2zM339.6 160.4l-.1-.1zM348.3 182.1c.1-.8-.4-1.5-.2-2.6-.3-.2-.2-.7-.4-.8.1 0-.1-1 .2-.5v.1h.2c.2-.6-.3-1-.3-1.6 0 .2 0 .4-.1.3l-.1-.5.1.1-.1-.8-.1.1c0-.4.2-.6 0-1-.2-.2-.1.4-.3 0 0-.5 0-1.3-.1-2-.2.1-.2-.1-.3-.2l.1-.1v-1h.1l-.3-.1c-.4-.5.2-.4-.3-1 .1.3-.3.2-.3-.1h.2l-.2-.3c.1.1.2 0 .1-.3l.2.1-.4-.4c.1-.4-.3-1-.2-1.2 0 0-.1-.9-.4-1 .2.1.1-.3.3-.3-.2-.2-.5-.8-.5-1.1-.2-1-.8-1.5-.9-2.4-.1.1-.2-.4-.4-.2-.5-.8-.3-1.7-1-1.7-.2-.4-.1-.5-.1-.7l.1.1c-.4-.7-.5-.9-.8-1.4-.2-.2-.5-.1-.7-.6.2.1.1-.1 0-.3.1.1.1.1.1-.2-.1 0-.1 0-.1-.1-.2-.3-.2-.2-.1 0v.1c0-.4-.5-.8-.3-.9-.6-.8-1.2-1.2-1.7-1.8 0-.1.2 0 .4.1-.1-.1-.2-.3-.4-.4.1-.1.3.2.4.3-.2-.7-1.1-1-1.4-1.7h-.2v-.1s-.2 0-.3-.1c0-.2.2-.2 0-.5-.1-.3-.7-.6-1-.8.1.2 0 .2-.1.1s-.1-.3-.3-.4l.1-.2c-.1.2-.5-.2-.6-.2 0-.2.3.1.4.1l-.9-.8c-.4-.2-.1.2-.3.2-.3-.2-.7-.3-1-.6v.2c-.6-.3-1-.5-1.3-.9-1.3-.4-2.1-.4-2.4-.3-.4.1-.5.3-.3.5.2.4 1 .9 1 .9 1.4 1.2 2.5 1.3 4.2 2.7 1.4 1.4 1.5 2.1 2.8 3.6.6.8 1.2 1.7 1.7 2.5.5.3.6 1.1 1.1 1.5v.3c.1.1.3.3.3.5.2.2.3.5.4.6l.2.3h-.1c.3.4.5.9.6 1.3l.1-.1c.2 1 .6 1.2.7 2.1.8.9.3 1.8 1 2.7-.1-.1-.1.1-.1.1.2.5.4 1 .7 1 .1.4 0 .3-.1.4.1 0 .3.3.4.6l-.1-.1.3.8.2-.2c0 .5-.3.2-.1.6l.2-.1c.1.6-.2 1.1-.2 1.7.4 2.5 1.4 5.2 1.1 7.6l-.2.1c-.3.1.4.6.2.7l.1.3c0 .1-.1.2-.1.1 0 .3 0 .3.1.4l-.2.3c-.1 1 .2 1.8.1 2.9-.3 1.2-.2 3.6-.3 5 .1 2-1.4 3.9-1.7 5.8-.1 0 0 .2 0 .2l-.7 1.6-1.6 3.1c-.3.6-.4 1.1-.1 1.2.3.1 1.1-.2 2.5-1.4v.1c.7-.8 1-1.4 1.1-2.2.4 0 .4-.8.6-.9l.7-1.8s.1.1.1.2c.1-.4.2-1 .4-1 .3-1 .7-2.5.5-3.2v.1-.9h.1c-.1-.5.2-1.2.1-1.6h.1c0-.3 0-.6.1-.8l-.1.3c-.4-.1.3-.6.1-1.2.1-.6-.7-1.2-.5-1.8-.2-.3.3.3.2-.2.2 0 .1.2.3.1-.1-.4.2-.7.1-1.2h.1c-.3-.7.2-1.3-.1-1.7-.1-.7.4-.5.1-1.2l.2-.3c0-.3-.3-.2-.2-.5-.3.1-.3-.3-.2-.1zM106.7 194l.1.2s0-.1-.1-.2zM108.4 200.3h-.1zM116.9 219.4c-.3-.2-.2-.7-.4-.8.1 0-.1-1 .2-.5v.1h.2c.2-.6-.3-1-.3-1.6 0 .2 0 .4-.1.3l-.1-.5.1.1-.1-.8-.1.1c0-.4.2-.6 0-1-.2-.2-.1.4-.3 0 0-.5 0-1.3-.1-2-.2.1-.2-.1-.3-.2l.1-.1v-1h.1l-.3-.1c-.4-.5.2-.4-.3-1 .1.3-.3.2-.3-.1h.2l-.2-.3c.1.1.2 0 .1-.3l.2.1-.4-.4c.1-.4-.3-1-.2-1.2 0 0-.1-.9-.4-1 .2.1.1-.3.3-.3-.2-.2-.5-.8-.5-1.1-.2-1-.8-1.5-.9-2.4-.1.1-.2-.4-.4-.2-.5-.8-.3-1.7-1-1.7-.2-.4-.1-.5-.1-.7l.1.1c-.4-.7-.5-.9-.8-1.4-.2-.2-.5-.1-.7-.6.2.1.1-.1 0-.3.1.1.1.1.1-.2-.1 0-.1 0-.1-.1-.2-.3-.2-.2-.1 0v.1c0-.4-.5-.8-.3-.9-.6-.8-1.2-1.2-1.7-1.8 0-.1.2 0 .4.1-.1-.1-.2-.3-.4-.4.1-.1.3.2.4.3-.2-.7-1.1-1-1.4-1.7h-.2s-.2 0-.3-.1c0-.2.2-.2 0-.5-.1-.3-.7-.6-1-.8.1.2 0 .2-.1.1s-.1-.3-.3-.4l.1-.2c-.1.2-.5-.2-.6-.2 0-.2.3.1.4.1l-.9-.8c-.4-.2-.1.2-.3.2-.3-.2-.7-.3-1-.7v.2c-.6-.3-1-.5-1.3-.9-1.3-.4-2.1-.4-2.4-.3-.4.1-.5.3-.3.5.2.4 1 .9 1 .9 1.4 1.2 2.5 1.3 4.2 2.7 1.4 1.4 1.5 2.1 2.8 3.6.6.8 1.2 1.7 1.7 2.5.5.3.6 1.1 1.1 1.5v.3c.1.1.3.3.3.5.2.2.3.5.4.6l.2.3h-.1c.3.4.5.9.6 1.3l.1-.1c.2 1 .6 1.2.7 2.1.8.9.3 1.8 1 2.7-.1-.1-.1.1-.1.1.2.5.4 1 .7 1 .1.4 0 .3-.1.4.1 0 .3.3.4.6l-.1-.1.3.8.2-.2c0 .5-.3.2-.1.6l.2-.1c.1.6-.2 1.1-.2 1.7.4 2.5 1.4 5.2 1.1 7.6l-.2.1c-.3.1.4.6.2.7l.1.3c0 .1-.1.2-.1.1 0 .3 0 .3.1.4l-.2.3c-.1 1 .2 1.8.1 2.9-.3 1.2-.2 3.6-.3 5 .1 2-1.4 3.9-1.7 5.8-.1 0 0 .2 0 .2l-.7 1.6-1.6 3.1c-.3.6-.4 1.1-.1 1.2.3.1 1.1-.2 2.5-1.4v.1c.7-.8 1-1.4 1.1-2.2.4 0 .4-.8.6-.9l.7-1.8s.1.1.1.2c.1-.4.2-1 .4-1 .3-1 .7-2.5.5-3.2v.1-.9h.1c-.1-.5.2-1.2.1-1.6h.1c0-.3 0-.6.1-.8l-.1.3c-.4-.1.3-.6.1-1.2.1-.6-.7-1.2-.5-1.8-.2-.3.3.3.2-.2.2 0 .1.2.3.1-.1-.4.2-.7.1-1.2h.1c-.3-.7.2-1.3-.1-1.7-.1-.7.4-.5.1-1.2l.2-.3c0-.3-.3-.2-.2-.5.1 0 .1-.4.2-.2-.3-.7-.8-1.4-.6-2.5z"/></g><path fill="#FF9F9F" d="M65.3 238.6c3.7 6.1 19.7 21.2 19.7 21.2l15.1-4s-2.5-10.1-5.8-15.3c-3.3-5.1-8.4-7.9-9.9-11.8-1.5-3.9 2.1-19.8-3.1-20.2-5.3-.4-4 19.8-4 19.8s-1.9-2.2-3.5-4.8c-1.6-2.6-2-7.4-2-7.4s-.5-10.7-4.8-9.5c-1.7.5-2.1 2.5-1.9 4.7-1-1.9-2.4-3.4-4.6-3.2-5.6.5 1 24.3 4.8 30.5z"/><path d="M125.4 277.5c-4.9 0-8.8-1.7-11.6-4.9-2.8-3.2-4.6-7.9-5.8-14.7l-6.2-36.5 3-.5 6.2 36.5c1.1 6.3 2.7 10.5 5.1 13.3 3 3.4 7.3 4.6 13.2 3.6l108.4-18.5.5 3-108.4 18.5c-1.6.1-3 .2-4.4.2zM239.9 256.8c.7 4-2 7.8-6 8.5l-16.3 2.8c-4 .7-7.8-2-8.5-6-.7-4 2-7.8 6-8.5l16.3-2.8c4-.6 7.8 2 8.5 6z"/><path fill="#7C1E21" d="M172.6 354.8c.3-11.3-5.7-22.3-15.7-25.1-3.4-1.3-9.6-3-16.1-.6-3.9 1.4-22.2 9.4-42.7 18.4l9.1 22.4c18.8-7 33.9-12.5 36.2-12.8 3.5-.4 6.1 2.4 7.6 4.9-3.5 21.5-6.5 44-7.1 62.6-1 27.2-.3 50.2.6 66.3l32.1 1.3s-5-39.9-5-74.9c0-33.7.9-58.4 1-62.5z"/><path fill="#FF9F9F" d="M181.9 545.2l77.2 257.4 59.8-31.1-50.6 1.8-65.1-237.7z"/><path fill="#009145" d="M146.5 508.9s0 23.6 21.9 32.2c13.4 5.3 17.2 17.3 18.9 23.6 2.9 10.4 15.9 51.8 15.9 51.8s38.9-29.3 57.2-53.2c19.1-24.9 34.3-49.5 34.3-49.5l-87.3-11.3-60.9 6.4z"/><path fill="#FF9F9F" d="M350.9 334.6s1.2-7.6 3.7-10.4 6.4-9.7 8.5-11.7c2.1-1.9 8.6-8.8 9.3-11.6.7-2.8 2.8-5 4.8-2.5s.6 8.5-1.2 10.9c-1.8 2.4-5.3 7.7-5.3 7.7s8.7-.7 11.8-5c3.1-4.3 3.7-6.4 3.7-6.4s-3.6 1.2-5.3 0c-1.7-1.3-.4-4.9.9-5.2 1.4-.4 9.1-4 11.6-1.2s-2.6 15.2-2.6 15.2.1 4.1 1.8 7.9c.9 2.1 4.5 4 3.8 5.1-2.4 4.1-6 7.4-9.4 9.2-7.7 4.1-18 7.7-21 7.7-4.8 0-5.2 1-7 4.1l-8.1-13.8zM397.2 325c-.3-2.1-1.7-2.5-2.1-2.6v-.1c.4-.2 1.8-1.3 1.5-3-.3-2-1.9-3-1.9-3s1.2-.5.6-3.2-3-2.5-3-2.5-19 2.2-17.7 7.3c.4 1.5 1.9 2 4 2-2.3.9-3.9 2.2-3.6 3.7.4 1.9 2.8 2.3 5.9 2.1-1.4.8-2.2 1.9-2 3.1.9 4.4 8.3 2 13 .6 4.3-1.2 5.5-2.5 5.3-4.4z"/><g fill="#AD272D"><path d="M380.1 319.8l-.3.1c.1-.1.2-.1.3-.1zM384.8 330.8zM374.8 321.5h.1zM376.3 320.3l-.3.1c-.1 0-.1 0-.1.1.2-.1-.7.5-1.1 1.1-.1.3-.5.9-.5 1.4l-.1.2c0 .2.1.3 0 .5.1.2.1.5.2.6 0 .1.1.2.1.2.2.3.4.7.7.9v-.1c.5.6.8.5 1.3.8.8 0 1.1.4 1.9.3v.1h.3c.1 0 .1-.1.2-.2.1 0 .1.1 0 .1.1-.1.2-.1.3-.1h-.1.3l.2-.1c.1 0-.3.2-.1.1l.2-.1c.1 0 .1 0 0 .1l-.2.1-.3.1-.3.2s-.1.1-.1.2l-.3.6c-.2.4-.2.9-.1 1.4l.3 1.2v.1c-.1.1.4.3.4.4l.2.1v.1c.1.1.1.1.3.2l.1.2c.6.5 1.2.5 1.9.7.8.3 2.3.1 3.1-.1 1.1-.3 2.6-.1 3.7-.6l.1-.1 1.1-.3s5-1.5.9-1.3c-.6.1-.9.2-1.3.4-.1-.1-.5.1-.6.1l-1 .3s0-.1.1-.1c-.2.1-.6.2-.6.1-.6.2-1.4.3-1.7.5-.2.1-.3.1-.5.1l-.9.2v-.1h-.5.2c-.1.2-.4-.1-.7 0-.3 0-.7.4-1 .2-.2.1.2-.1-.1-.1l.1-.1c-.2 0-.3-.1-.6-.2v-.1c-.4 0-.6-.3-.8-.3l-.4-.4v-.2l-.2-.1c.1 0-.1-.2 0-.1l-.2-.5c-.1-.2-.2-.4-.1-.6-.1-.1-.1-.3-.1-.4 0 0 .1-.4.2-.2h.1c.2-.2 0-.4.3-.7l-.1.1.3-.3v.1l.3-.3c.1-.1.2-.2.4-.3l-.2.1c.4-.3.9-.4 1.3-.8.1-.1-.7.4-.3 0l1.9-1.1-.4-.1c-.2.1-.4.1-.6.1l.2-.1h-.9l.2-.1-.5.2c-.9.2-.2-.1-1.2.1.3 0-.1.2-.3.1l.2-.1c-.2 0-.3.1-.4 0 .1 0 .1-.1-.1-.1l.2-.1-.6.1-.8-.1s-.4-.1-.6 0c.1-.1-.1-.1-.1-.2-.1.1-.5 0-.6-.1-.4-.2-.8-.2-1-.5h-.2c-.4-.3-.1-.7-.5-.7-.1-.2.1-.2.1-.3 0-.3 0-.4.1-.6 0-.1-.1-.2.1-.4 0 .1.1 0 .1-.1 0 .1 0 .1.1 0v-.1c.1-.1.1-.1 0-.1l.4-.3.3-.2.4-.3c.2-.2.5-.4.7-.5.2 0 .1.1-.1.2l.5-.2c.2 0-.2.1-.3.2.4-.1.7-.3 1-.4.3-.2.5-.3 1.1-.5h-.2.1l.5-.1c.1 0 .2 0 .2-.1.1 0 .2-.1.2-.1l.2-.1c-.3 0-1.2 0-1.6.1.2 0 0 .1-.2.1s-.1-.1-.4-.1l.3-.1c-.2.1-.9.1-1 .1l.7-.1c-.9 0-.5 0-1.3-.1-.5 0 0 .1-.3.1s-.6 0-.8-.2v.1c-.4-.1-.6-.2-.7-.4-.6-.3-.9-.7-1.1-.9-.2-.2-.3-.1-.3 0-.1.3.2 1 .2 1 .4.7 1 1 1.5 1.2-.4.4-.3.4 0 .4z"/></g><path fill="#754C24" d="M263.1 782.2c3.6-2.1 5.2-8.9 5.2-8.9s33.2-6.6 41.7-8.1c8.4-1.5 8.9 6.3 8.9 6.3l-46.2 24.1 1.4 4.2-14 6.8-1.1-3.9-5.1-17c.1-.1 5.7-1.4 9.2-3.5z"/><path fill="#0071BB" d="M375 311.6l1.2-4.8 13.6-52.8 3.4.9-14.1 54.9-.7 2.6c-.2.9-1.2 1.5-2.1 1.3-1-.2-1.6-1.2-1.3-2.1z"/><path fill="#C59B6D" d="M392.9 248.9l-3.1 5.1s0 1.1.6 1.2c.6.1 1-.5 1-.5s.3.9.7.9c.4.1 1.1-.8 1.1-.8l-.3-5.9z"/><path d="M392 250.4l1 .5-.1-1.9z"/><path stroke="#fff" stroke-miterlimit="10" d="M356.5 443.8M356.5 455.2" fill="none"/></svg>