<svg xmlns="http://www.w3.org/2000/svg" viewBox="0 0 128 75" enable-background="new 0 0 128 75"><g fill="#fff"><path d="M53.6 17c-.4 0-.8.4-.8.8v5.4c0 .4.4.8.8.8h3c.4 0 .8-.4.8-.8v-5.4c0-.4-.4-.8-.8-.8h-3zM60.5 17c-.4 0-.8.4-.8.8v5.4c0 .4.4.8.8.8h3c.4 0 .8-.4.8-.8v-5.4c0-.4-.4-.8-.8-.8h-3zM70.4 17h-3c-.4 0-.8.4-.8.8v5.4c0 .4.4.8.8.8h3c.4 0 .8-.4.8-.8v-5.4c0-.4-.3-.8-.8-.8zM53.6 26.3c-.4 0-.8.4-.8.8v5.4c0 .4.4.8.8.8h3c.4 0 .8-.4.8-.8v-5.5c0-.4-.4-.8-.8-.8h-3zM60.5 26.3c-.4 0-.8.4-.8.8v5.4c0 .4.4.8.8.8h3c.4 0 .8-.4.8-.8v-5.5c0-.4-.4-.8-.8-.8h-3zM67.4 26.3c-.4 0-.8.4-.8.8v5.4c0 .4.4.8.8.8h3c.4 0 .8-.4.8-.8v-5.5c0-.4-.4-.8-.8-.8h-3zM53.6 35.5c-.4 0-.8.4-.8.8v5.4c0 .4.4.8.8.8h3c.4 0 .8-.4.8-.8v-5.4c0-.4-.4-.8-.8-.8h-3zM60.5 35.5c-.4 0-.8.4-.8.8v5.4c0 .4.4.8.8.8h3c.4 0 .8-.4.8-.8v-5.4c0-.4-.4-.8-.8-.8h-3zM67.4 35.5c-.4 0-.8.4-.8.8v5.4c0 .4.4.8.8.8h3c.4 0 .8-.4.8-.8v-5.4c0-.4-.4-.8-.8-.8h-3zM53.6 44.7c-.4 0-.8.4-.8.8v5.4c0 .4.4.8.8.8h3c.4 0 .8-.4.8-.8v-5.4c0-.4-.4-.8-.8-.8h-3zM60.5 44.7c-.4 0-.8.4-.8.8v5.4c0 .4.4.8.8.8h3c.4 0 .8-.4.8-.8v-5.4c0-.4-.4-.8-.8-.8h-3zM67.4 44.7c-.4 0-.8.4-.8.8v5.4c0 .4.4.8.8.8h3c.4 0 .8-.4.8-.8v-5.4c0-.4-.4-.8-.8-.8h-3z"/></g><path fill="#fff" d="M127.5 74.5c0 .3-.2.5-.5.5h-126c-.3 0-.5-.2-.5-.5s.2-.5.5-.5h126c.3 0 .5.2.5.5zM46.5 57.5c0 .3-.2.5-.5.5h-34c-.3 0-.5-.2-.5-.5s.2-.5.5-.5h34c.3 0 .5.2.5.5zM47.5 75v-70h5v6h23.4v64h2.6v-64.3c0-1.5-1.1-2.7-2.6-2.7h-21.4v-2.9c0-1.5-.8-2.2-2.4-2.2h-4.1c-1.5 0-2.5.6-2.5 2.2v69.9h2zM78.5 74v-18.6l12 6.5c.4.2.9.2 1.4 0 .4-.3.7-.7.7-1.2v-5.1l10.5 6.3c.4.3 1.2.3 1.6 0 .4-.2.9-.7.9-1.2v-5l11 7.5v10.8h3v-11.6c0-.5-.4-.9-.8-1.2l-14-9.3c-.4-.3-1-.3-1.4-.1-.5.2-.7.7-.7 1.2v5.1l-10.7-6.2c-.4-.3-1.2-.3-1.6 0-.4.2-.9.7-.9 1.2v5.3l-11.7-6.5c-.4-.2-1.1-.2-1.5 0-.4.3-.8.7-.8 1.2v20.9h3zM46.5 50h-34.8c-.8 0-1.2.4-1.2 1.2v23.8h3v-22h33v-3zM23 65.1c0-.5-.4-.9-.9-.9h-3.7c-.5 0-.9.4-.9.9v8.5h5.5v-8.5zM58.7 65.1c0-.5-.4-.9-.9-.9h-3.7c-.5 0-.9.4-.9.9v8.5h5.5v-8.5zM88.5 65.1c0-.5-.4-.9-.9-.9h-3.7c-.5 0-.9.4-.9.9v8.5h5.5v-8.5zM114.8 52.8c0-.4-.3-.7-.7-.7h-.7c-.4 0-.7.3-.7.7v6.6h2.1v-6.6zM18.7 45.3c0-.4-.3-.7-.7-.7h-.7c-.4 0-.7.3-.7.7v6.6h2.1v-6.6zM72.7 4.2c0-.4-.3-.7-.7-.7h-.7c-.4 0-.7.3-.7.7v6.6h2.1v-6.6zM112.5 70.3c0 .4-.3.7-.7.7h-16.6c-.4 0-.7-.3-.7-.7v-5.6c0-.4.3-.7.7-.7h16.6c.4 0 .7.3.7.7v5.6zm-17-.3h15v-4h-15v4zM40.5 70.3c0 .4-.3.7-.7.7h-13.6c-.4 0-.7-.3-.7-.7v-5.6c0-.4.3-.7.7-.7h13.6c.4 0 .7.3.7.7v5.6zm-13-.3h12v-4h-12v4zM123.4 74.6c-.4 0-.8-.2-.8-.2h-5.1v-5.7c0-1.9 1.6-3.5 3.5-3.5s3.5 1.6 3.5 3.5c0 .2 0 .4-.1.6 1.1.4 1.9 1.5 1.9 2.7 0 1.7-1.3 2.6-2.9 2.6zm-4.3-.6h3.7l.6-.2c.8 0 1.5-.8 1.5-1.6s-.7-1.5-1.5-1.5c0 0-.6.2-.8-.3s.2-.8.3-1c.1-.2.2-.4.2-.6 0-1.1-.9-2.1-2-2.1s-2 .9-2 2.1c0 .3.1 1 .1 1l-.1 4.2zM6.1 75c-1.6 0-2.9-1.3-2.9-2.9 0-1.3.8-2.3 1.9-2.7-.1-.2-.1-.4-.1-.6 0-1.9 1.5-3.5 3.4-3.5s3.3 1.5 3.3 3.5c0 .3-.2.8-.2 1v5.2h-5.3999999999999995zm2.3-8.3c-1.1 0-2 .9-2 2.1 0 .2.1.4.2.6.1.2.3.6.1.9l-.2.3h-.4c-.8 0-1.5.7-1.5 1.5s.7 1.5 1.5 1.5h4.3v-4c.1-.2.1-.5.1-.7-.1-1.3-1-2.2-2.1-2.2zM32.3 50.6c-.4-.9-.6-2 .2-2.8.6-.6 1.6-.6 3 .1.2.1.5.1.7 0l.1-.1c.1-.1.2-.4.2-.6-.2-1.7.2-3.1 1.2-4.1 2-2 5.1-2 7.1 0 .7.7.9 1.7 1.1 2.6l1.1-1.1c-.3-.9-.5-1.8-1.2-2.5-2.5-2.5-6.6-2.5-9.1 0-1.1 1.1-1.6 2.4-1.7 4.1-1.8-.6-2.9-.1-3.5.6-.8.8-.9 2.3-.6 3.2l1.4.6zM88.7 43.8c-.2-3.1-2.9-5.6-6.1-5.6-1.6 0-3.1.7-4.1 1.7v2.9c1-1.8 2.1-3.2 4.1-3.2 2.6 0 4.7 2.1 4.7 4.6-.1.1-.2.3-.2.6 0 .2.1.4.2.6.2.2.4.2.6.2.3 0 .5-.2.7-.3 2.4 0 4.3 1.9 4.3 4.3 0 1.2-.5 2.3-1.3 3.1l1.3.3c.8-1 1.4-2.1 1.4-3.4 0-3.2-2.5-5.7-5.6-5.8z"/></svg>