<svg xmlns="http://www.w3.org/2000/svg" viewBox="0 0 128 75" enable-background="new 0 0 128 75"><g fill="#fff"><path d="M71.2 73.2l-.5-.3h-.7l-.8.3-.1.1.5.2.4.1.1.3-.3.8.3.3.5-.3.5-.1.1-.2v-.4l.2-.5.2-.3v-.3.1zM107.1 26.9l-.5-.3-.5-.3h-.6l-.4.1-.2.3-.6.3-.3.3-.3.2-.2.3-.3.5h-.3l-.3.4-.4.1-.4-.1-.6-.3-1-.2-1-.3-.8-.5-.6.1-.6-.4-.2-.7-.3-.4-.3-.3-.1-.5.1-.3-.1-.3-.2-.4-.1-.5-.1-.2-.1-.7-.5-.1-.6-.1-.2-.4-.3.1.4.6.1.4.2.8.1.9-.3.4-.5-.1-.2-.5-.2-.6-.3-.1-.4.1-.3.1h-.5l-.1-.1-.3-.1h-.2l-.1-.2.1-.2.3-.1v-.5l-.3-.1-.1-.1.1-.5.4-.5-.1-.2-.5-.4-.6-.7-.5-.5-.3-.5-.3-.2-.1.1-.2-.1-.2-.5h.4l.7.2.2.2-.2-.6-.1-.4-.1-.2-.4-.3-.4-.2-.3-.5v-.3l-.5-.3v.3l-1-.4.5-.3h.1l-.3-.2-.6-.4h-.9l-.4-.3-.4.1h-.5v-.3l-.1-.2-.3.4-.4.2-.4-.4-.1-.2v-.2l-.2-.3-.3-.5-.2-.5v-.2h-.3v-.1l-.1.1h-.3l-.4.2.3.3.4.4 1.3 1.4.3.6-.1.2.1.3.4.6.6.6.4-.5.1-.3.3.1-.2.6-.3.4.1.2.4.7 1.6 1.4 1.2 1.5-.1-.2-.1-.3v-.5l.5.1.2-.3.3.2v.4l.1.3-.2.3.3.1h.4v.8l-.3.3-.2-.3-.3-.4.5.9.5.7.4.7.7-.2h.4l.1.3v.2l-.2.3-.5.1.2.4.7.6.3-.1-.1.8.4.9.2.2-.4.4.2.6.1.6-.2.2h-.4l-.2.8v1.5l-.1 1-.6.6-.9.4-.7.4-.6.7v.8l.8.7.8.1 1.3 1 .9.4h.8l.7.6.5.5.3.4v.6l-.2.6v.9l-.3.8-.5.5-.3.7-.1.2-.3.5-.1-.3.1.6.2.5 1.5-.1.3.5.6.4.5-.3 1.1-.9.8-1.1.8-1.4.5-1 .4-.6.4-.5.1-.5.3-.5.3-.6.3-.6.3-.7v-.7l-.3-.2-.3-.5-.1.1-.1-.3.3-.5.3-.4.5-.6.3-.4.4-.1.6-.1.6-.1.4-.1.4.1.2.9.3-.6v-.2l-.2-.1-.1-.6.1-.2.1-.6v-.4l.6-.2.6-.5.1-.6v-1.8l.2-.5.1-.5v-.6zM91.5 46.2v-.4l.2-.3-.2-.4h-.3l.2-.2.2-.3.1-.3v-.1l-.2-.2-.1-.2h-.2l-.2.1-.1.1-.1.4v.1l.1.3h.1l-.5.2-.2.3.2-.7-.2-.5-.1-.1.4-.3-.2-.1-.3.1-.2.1-.4.3v.1l-.3.3-.3.2-.2.1-.1.2-.3.3-.3.2-.5-.2-.2-.4-.1-1.1-.4-.4-.4.1-.4-.1-.3-.4v-.7l-.2-.2-.3.1-.1.3h-.3l-.4.7-.4.2-.2.2.1.6v.3h-.2v1.1l-.1.6-.3.8-.3.4-.4.2-.4.3-.3.3-.4.3-.3.8v.6l-.1.5v.3l-.1.6-.1.2v.4l-.4.5-.2.5-.3.4-.4.4-.6.5-.4.1-.3.2-.5.4-.2.3-.1.6-.8.5-.7.6-.4.5-.9.6-.5.4-.4.5-.4.4-.6.2h-.5l-.5.3-.4.1-.4.3h-.3l-.1.9-.4.3-.3.5v.6l-.3.4-.6.2-.1.7h-.2v.3l.2.6-.1.2h-.2l-.2-.1v-.3l-.2-.2-.3.1-.3.3-.1.2v.3l-.1.4v.3l.3.3h.3l.1.1-.2.1h-.2l-.3.2-.2-.2-.3.1v.2l.2.1-.1.3-.4.1.1.3.3.1.3-.1-.1.5-.2.2.1.1.2.1-.4.4-.6.1-.3.2-.1.3.2.4.5-.2.1-.3.1.2-.2.3v.4l.2-.1.4-.5.2-.2-.1.3-.3.5-.2.4.5.3.7-.1.6.1.5-.2.2-.2.3-.2h.6l.3.3.3.7.9-.1h.4l.4.1h.1l.1-.1.1.4.1.4.4-.2v.1h.3l.4-.1.3-.3.3.1.2.4.3.2.4-.2.3-.1h.3l.9-.4.3-.2.2-.1.1-.2.1-.3.3-.1v-.2l.2-.2.5-.2.5-.3.3-.4.3-.4.5-.4h.5l.1-.4-.3-.1.2-.2v-.2l-.1-.2v-.1l.1-.3.4-.4.1-.2.2-.4v-.6l.1-.5v-.3l.3-.4.2-.3-.1-.5v-.3l.4-.2-.1-1.2.1-.7.4-.8.1-.8v-.3l-.1-.3h.2l.2.1.1.3h.3l.4-.3.2-.2.5-.1.5-.3.1-.5.2.1.3.2.2-.3-.1-.4.2-.1.5.2.8.2.7.2v-.5l.4.4.1-.2-.3-.5-.4-.2-.5-.1-.2-.1v-.3l.1-.4-.1-.3v-.5l.1-.4v-.4l.1.1.1-.3v-.1h.2l.3-.2.2-.3.2-.2.1-.1.3-.1.2-.3.1-.1.5-1.1.2-.7.4-.5.2-.3.1-.3.4-.1.4-.7.1-.4.2-.5.4-.4.1-.5-.4-.8z"/></g><path fill="#fff" d="M42.4 3c-12.2 0-22.1 10-22.1 22.2 0 6.2 5.4 17.2 12.2 29.4 6.6 11.9 10 18.9 10 18.9s4-6.5 10.3-19.3c6.1-12.4 11.9-22.9 11.9-29-.1-12.2-10-22.2-22.3-22.2zm-.2 35.5c-7.5 0-13.6-6.1-13.6-13.6s6.1-13.6 13.6-13.6 13.6 6.1 13.6 13.6-6.1 13.6-13.6 13.6z"/></svg>