<svg version="1.1" id="Layer_1" xmlns="http://www.w3.org/2000/svg" xmlns:xlink="http://www.w3.org/1999/xlink" x="0px" y="0px"
	 viewBox="0 0 128 75" enable-background="new 0 0 128 75" xml:space="preserve">
<g>
	<g>
		<polygon fill="#FFFFFF" points="71.2,73.2 70.7,72.9 70,72.9 69.2,73.2 69.1,73.3 69.6,73.5 70,73.6 70.1,73.9 69.8,74.7 70.1,75 
			70.6,74.7 71.1,74.6 71.2,74.4 71.2,74 71.4,73.5 71.6,73.2 71.6,72.9 71.6,73 		"/>
		<polygon fill="#FFFFFF" points="107.1,26.9 106.6,26.6 106.1,26.3 105.5,26.3 105.1,26.4 104.9,26.7 104.3,27 104,27.3 
			103.7,27.5 103.5,27.8 103.2,28.3 102.9,28.3 102.6,28.7 102.2,28.8 101.8,28.7 101.2,28.4 100.2,28.2 99.2,27.9 98.4,27.4 
			97.8,27.5 97.2,27.1 97,26.4 96.7,26 96.4,25.7 96.3,25.2 96.4,24.9 96.3,24.6 96.1,24.2 96,23.7 95.9,23.5 95.8,22.8 95.3,22.7 
			94.7,22.6 94.5,22.2 94.2,22.3 94.6,22.9 94.7,23.3 94.9,24.1 95,25 94.7,25.4 94.2,25.3 94,24.8 93.8,24.2 93.5,24.1 93.1,24.2 
			92.8,24.3 92.3,24.3 92.2,24.2 91.9,24.1 91.7,24.1 91.6,23.9 91.7,23.7 92,23.6 92,23.1 91.7,23 91.6,22.9 91.7,22.4 92.1,21.9 
			92,21.7 91.5,21.3 90.9,20.6 90.4,20.1 90.1,19.6 89.8,19.4 89.7,19.5 89.5,19.4 89.3,18.9 89.7,18.9 90.4,19.1 90.6,19.3 
			90.4,18.7 90.3,18.3 90.2,18.1 89.8,17.8 89.4,17.6 89.1,17.1 89.1,16.8 88.6,16.5 88.6,16.8 87.6,16.4 88.1,16.1 88.2,16.1 
			87.9,15.9 87.3,15.5 86.9,15.5 86.4,15.5 86,15.2 85.6,15.3 85.1,15.3 85.1,15 85,14.8 84.7,15.2 84.3,15.4 83.9,15 83.8,14.8 
			83.8,14.6 83.6,14.3 83.3,13.8 83.1,13.3 83.1,13.1 82.8,13.1 82.8,13 82.7,13.1 82.4,13.1 82,13.3 82.3,13.6 82.7,14 84,15.4 
			84.3,16 84.2,16.2 84.3,16.5 84.7,17.1 85.3,17.7 85.7,17.2 85.8,16.9 86.1,17 85.9,17.6 85.6,18 85.7,18.2 86.1,18.9 87.7,20.3 
			88.9,21.8 88.8,21.6 88.7,21.3 88.7,20.8 89.2,20.9 89.4,20.6 89.7,20.8 89.7,21.2 89.8,21.5 89.6,21.8 89.9,21.9 90.3,21.9 
			90.3,22.7 90,23 89.8,22.7 89.5,22.3 90,23.2 90.5,23.9 90.9,24.6 91.6,24.4 92,24.4 92.1,24.7 92.1,24.9 91.9,25.2 91.4,25.3 
			91.6,25.7 92.3,26.3 92.6,26.2 92.5,27 92.9,27.9 93.1,28.1 92.7,28.5 92.9,29.1 93,29.7 92.8,29.9 92.4,29.9 92.2,30.7 
			92.2,31.4 92.2,32.2 92.1,33.2 91.5,33.8 90.6,34.2 89.9,34.6 89.3,35.3 89.3,36.1 90.1,36.8 90.9,36.9 92.2,37.9 93.1,38.3 
			93.9,38.3 94.6,38.9 95.1,39.4 95.4,39.8 95.4,40.4 95.2,41 95.2,41.9 94.9,42.7 94.4,43.2 94.1,43.9 94,44.1 93.7,44.6 
			93.6,44.3 93.7,44.9 93.9,45.4 95.4,45.3 95.7,45.8 96.3,46.2 96.8,45.9 97.9,45 98.7,43.9 99.5,42.5 100,41.5 100.4,40.9 
			100.8,40.4 100.9,39.9 101.2,39.4 101.5,38.8 101.8,38.2 102.1,37.5 102.1,36.8 101.8,36.6 101.5,36.1 101.4,36.2 101.3,35.9 
			101.6,35.4 101.9,35 102.4,34.4 102.7,34 103.1,33.9 103.7,33.8 104.3,33.7 104.7,33.6 105.1,33.7 105.3,34.6 105.6,34 
			105.6,33.8 105.4,33.7 105.3,33.1 105.4,32.9 105.5,32.3 105.5,31.9 106.1,31.7 106.7,31.2 106.8,30.6 106.8,30.1 106.8,29.9 
			106.8,28.8 107,28.3 107.1,27.8 107.1,27.2 		"/>
		<polygon fill="#FFFFFF" points="91.5,46.2 91.5,45.8 91.7,45.5 91.5,45.1 91.2,45.1 91.4,44.9 91.6,44.6 91.7,44.3 91.7,44.2 
			91.5,44 91.4,43.8 91.2,43.8 91,43.9 90.9,44 90.8,44.4 90.8,44.5 90.9,44.8 91,44.8 90.5,45 90.3,45.3 90.5,44.6 90.3,44.1 
			90.2,44 90.6,43.7 90.4,43.6 90.1,43.7 89.9,43.8 89.5,44.1 89.5,44.2 89.2,44.5 88.9,44.7 88.7,44.8 88.6,45 88.3,45.3 88,45.5 
			87.5,45.3 87.3,44.9 87.2,43.8 86.8,43.4 86.4,43.5 86,43.4 85.7,43 85.7,42.3 85.5,42.1 85.2,42.2 85.1,42.5 84.8,42.5 
			84.4,43.2 84,43.4 83.8,43.6 83.9,44.2 83.9,44.5 83.7,44.5 83.7,44.9 83.7,45.6 83.6,46.2 83.3,47 83,47.4 82.6,47.6 82.2,47.9 
			81.9,48.2 81.5,48.5 81.2,49.3 81.2,49.9 81.1,50.4 81.1,50.7 81,51.3 80.9,51.5 80.9,51.9 80.5,52.4 80.3,52.9 80,53.3 
			79.6,53.7 79,54.2 78.6,54.3 78.3,54.5 77.8,54.9 77.6,55.2 77.5,55.8 76.7,56.3 76,56.9 75.6,57.4 74.7,58 74.2,58.4 73.8,58.9 
			73.4,59.3 72.8,59.5 72.3,59.5 71.8,59.8 71.4,59.9 71,60.2 70.7,60.2 70.6,61.1 70.2,61.4 69.9,61.9 69.9,62.5 69.6,62.9 
			69,63.1 68.9,63.8 68.7,63.8 68.7,64.1 68.9,64.7 68.8,64.9 68.6,64.9 68.4,64.8 68.4,64.5 68.2,64.3 67.9,64.4 67.6,64.7 
			67.5,64.9 67.5,65.2 67.4,65.6 67.4,65.9 67.7,66.2 68,66.2 68.1,66.3 67.9,66.4 67.7,66.4 67.4,66.6 67.2,66.4 66.9,66.5 
			66.9,66.7 67.1,66.8 67,67.1 66.6,67.2 66.7,67.5 67,67.6 67.3,67.5 67.2,68 67,68.2 67.1,68.3 67.3,68.4 66.9,68.8 66.3,68.9 
			66,69.1 65.9,69.4 66.1,69.8 66.6,69.6 66.7,69.3 66.8,69.5 66.6,69.8 66.6,70.2 66.8,70.1 67.2,69.6 67.4,69.4 67.3,69.7 
			67,70.2 66.8,70.6 67.3,70.9 68,70.8 68.6,70.9 69.1,70.7 69.3,70.5 69.6,70.3 70.2,70.3 70.5,70.6 70.8,71.3 71.7,71.2 
			72.1,71.2 72.5,71.3 72.6,71.3 72.7,71.2 72.8,71.6 72.9,72 73.3,71.8 73.3,71.9 73.6,71.9 74,71.8 74.3,71.5 74.6,71.6 74.8,72 
			75.1,72.2 75.5,72 75.8,71.9 76.1,71.9 77,71.5 77.3,71.3 77.5,71.2 77.6,71 77.7,70.7 78,70.6 78,70.4 78.2,70.2 78.7,70 
			79.2,69.7 79.5,69.3 79.8,68.9 80.3,68.5 80.8,68.5 80.9,68.1 80.6,68 80.8,67.8 80.8,67.6 80.7,67.4 80.7,67.3 80.8,67 
			81.2,66.6 81.3,66.4 81.5,66 81.5,65.4 81.6,64.9 81.6,64.6 81.9,64.2 82.1,63.9 82,63.4 82,63.1 82.4,62.9 82.3,61.7 82.4,61 
			82.8,60.2 82.9,59.4 82.9,59.1 82.8,58.8 83,58.8 83.2,58.9 83.3,59.2 83.6,59.2 84,58.9 84.2,58.7 84.7,58.6 85.2,58.3 
			85.3,57.8 85.5,57.9 85.8,58.1 86,57.8 85.9,57.4 86.1,57.3 86.6,57.5 87.4,57.7 88.1,57.9 88.1,57.4 88.5,57.8 88.6,57.6 
			88.3,57.1 87.9,56.9 87.4,56.8 87.2,56.7 87.2,56.4 87.3,56 87.2,55.7 87.2,55.2 87.3,54.8 87.3,54.4 87.4,54.5 87.5,54.2 
			87.5,54.1 87.7,54.1 87.7,54.1 88,53.9 88.2,53.6 88.4,53.4 88.5,53.3 88.5,53.3 88.8,53.2 89,52.9 89.1,52.8 89.6,51.7 89.8,51 
			90.2,50.5 90.4,50.2 90.5,49.9 90.9,49.8 91.3,49.1 91.4,48.7 91.6,48.2 92,47.8 92.1,47.3 91.7,46.5 		"/>
	</g>
	<g>
		<path fill="#FFFFFF" d="M42.4,3C30.2,3,20.3,13,20.3,25.2c0,6.2,5.4,17.2,12.2,29.4c6.6,11.9,10,18.9,10,18.9s4-6.5,10.3-19.3
			c6.1-12.4,11.9-22.9,11.9-29C64.6,13,54.7,3,42.4,3z M42.2,38.5c-7.5,0-13.6-6.1-13.6-13.6c0-7.5,6.1-13.6,13.6-13.6
			c7.5,0,13.6,6.1,13.6,13.6C55.8,32.4,49.7,38.5,42.2,38.5z"/>
	</g>
</g>
</svg>
