<svg version="1.1" id="Layer_1" xmlns="http://www.w3.org/2000/svg" xmlns:xlink="http://www.w3.org/1999/xlink" x="0px" y="0px"
	 viewBox="0 0 128 75" enable-background="new 0 0 128 75" xml:space="preserve">
<g>
	<g>
		<path fill="#FFFFFF" d="M53.6,17c-0.4,0-0.8,0.4-0.8,0.8v5.4c0,0.4,0.4,0.8,0.8,0.8h3c0.4,0,0.8-0.4,0.8-0.8v-5.4
			c0-0.4-0.4-0.8-0.8-0.8H53.6z"/>
		<path fill="#FFFFFF" d="M60.5,17c-0.4,0-0.8,0.4-0.8,0.8v5.4c0,0.4,0.4,0.8,0.8,0.8h3c0.4,0,0.8-0.4,0.8-0.8v-5.4
			c0-0.4-0.4-0.8-0.8-0.8H60.5z"/>
		<path fill="#FFFFFF" d="M70.4,17h-3c-0.4,0-0.8,0.4-0.8,0.8v5.4c0,0.4,0.4,0.8,0.8,0.8h3c0.4,0,0.8-0.4,0.8-0.8v-5.4
			C71.2,17.4,70.9,17,70.4,17z"/>
		<path fill="#FFFFFF" d="M53.6,26.3c-0.4,0-0.8,0.4-0.8,0.8v5.4c0,0.4,0.4,0.8,0.8,0.8h3c0.4,0,0.8-0.4,0.8-0.8V27
			c0-0.4-0.4-0.8-0.8-0.8H53.6z"/>
		<path fill="#FFFFFF" d="M60.5,26.3c-0.4,0-0.8,0.4-0.8,0.8v5.4c0,0.4,0.4,0.8,0.8,0.8h3c0.4,0,0.8-0.4,0.8-0.8V27
			c0-0.4-0.4-0.8-0.8-0.8H60.5z"/>
		<path fill="#FFFFFF" d="M67.4,26.3c-0.4,0-0.8,0.4-0.8,0.8v5.4c0,0.4,0.4,0.8,0.8,0.8h3c0.4,0,0.8-0.4,0.8-0.8V27
			c0-0.4-0.4-0.8-0.8-0.8H67.4z"/>
		<path fill="#FFFFFF" d="M53.6,35.5c-0.4,0-0.8,0.4-0.8,0.8v5.4c0,0.4,0.4,0.8,0.8,0.8h3c0.4,0,0.8-0.4,0.8-0.8v-5.4
			c0-0.4-0.4-0.8-0.8-0.8H53.6z"/>
		<path fill="#FFFFFF" d="M60.5,35.5c-0.4,0-0.8,0.4-0.8,0.8v5.4c0,0.4,0.4,0.8,0.8,0.8h3c0.4,0,0.8-0.4,0.8-0.8v-5.4
			c0-0.4-0.4-0.8-0.8-0.8H60.5z"/>
		<path fill="#FFFFFF" d="M67.4,35.5c-0.4,0-0.8,0.4-0.8,0.8v5.4c0,0.4,0.4,0.8,0.8,0.8h3c0.4,0,0.8-0.4,0.8-0.8v-5.4
			c0-0.4-0.4-0.8-0.8-0.8H67.4z"/>
		<path fill="#FFFFFF" d="M53.6,44.7c-0.4,0-0.8,0.4-0.8,0.8v5.4c0,0.4,0.4,0.8,0.8,0.8h3c0.4,0,0.8-0.4,0.8-0.8v-5.4
			c0-0.4-0.4-0.8-0.8-0.8H53.6z"/>
		<path fill="#FFFFFF" d="M60.5,44.7c-0.4,0-0.8,0.4-0.8,0.8v5.4c0,0.4,0.4,0.8,0.8,0.8h3c0.4,0,0.8-0.4,0.8-0.8v-5.4
			c0-0.4-0.4-0.8-0.8-0.8H60.5z"/>
		<path fill="#FFFFFF" d="M67.4,44.7c-0.4,0-0.8,0.4-0.8,0.8v5.4c0,0.4,0.4,0.8,0.8,0.8h3c0.4,0,0.8-0.4,0.8-0.8v-5.4
			c0-0.4-0.4-0.8-0.8-0.8H67.4z"/>
	</g>
	<path fill="#FFFFFF" d="M127.5,74.5c0,0.3-0.2,0.5-0.5,0.5H1c-0.3,0-0.5-0.2-0.5-0.5l0,0C0.5,74.2,0.7,74,1,74h126
		C127.3,74,127.5,74.2,127.5,74.5L127.5,74.5z"/>
	<path fill="#FFFFFF" d="M46.5,57.5c0,0.3-0.2,0.5-0.5,0.5H12c-0.3,0-0.5-0.2-0.5-0.5l0,0c0-0.3,0.2-0.5,0.5-0.5h34
		C46.3,57,46.5,57.2,46.5,57.5L46.5,57.5z"/>
	<path fill="#FFFFFF" d="M47.5,75V5h5v6h23.4l0,64h2.6V10.7c0-1.5-1.1-2.7-2.6-2.7H54.5V5.1c0-1.5-0.8-2.2-2.4-2.2H48
		c-1.5,0-2.5,0.6-2.5,2.2V75H47.5z"/>
	<path fill="#FFFFFF" d="M78.5,74V55.4l12,6.5c0.4,0.2,0.9,0.2,1.4,0c0.4-0.3,0.7-0.7,0.7-1.2v-5.1l10.5,6.3c0.4,0.3,1.2,0.3,1.6,0
		c0.4-0.2,0.9-0.7,0.9-1.2v-5l11,7.5V74h3V62.4c0-0.5-0.4-0.9-0.8-1.2l-14-9.3c-0.4-0.3-1-0.3-1.4-0.1c-0.5,0.2-0.7,0.7-0.7,1.2v5.1
		L92,51.9c-0.4-0.3-1.2-0.3-1.6,0c-0.4,0.2-0.9,0.7-0.9,1.2v5.3l-11.7-6.5c-0.4-0.2-1.1-0.2-1.5,0c-0.4,0.3-0.8,0.7-0.8,1.2V74H78.5
		z"/>
	<path fill="#FFFFFF" d="M46.5,50H11.7c-0.8,0-1.2,0.4-1.2,1.2V75h3V53h33V50z"/>
	<path fill="#FFFFFF" d="M23,65.1c0-0.5-0.4-0.9-0.9-0.9h-3.7c-0.5,0-0.9,0.4-0.9,0.9v8.5H23V65.1z"/>
	<path fill="#FFFFFF" d="M58.7,65.1c0-0.5-0.4-0.9-0.9-0.9h-3.7c-0.5,0-0.9,0.4-0.9,0.9v8.5h5.5V65.1z"/>
	<path fill="#FFFFFF" d="M88.5,65.1c0-0.5-0.4-0.9-0.9-0.9h-3.7c-0.5,0-0.9,0.4-0.9,0.9v8.5h5.5V65.1z"/>
	<path fill="#FFFFFF" d="M114.8,52.8c0-0.4-0.3-0.7-0.7-0.7h-0.7c-0.4,0-0.7,0.3-0.7,0.7v6.6h2.1V52.8z"/>
	<path fill="#FFFFFF" d="M18.7,45.3c0-0.4-0.3-0.7-0.7-0.7h-0.7c-0.4,0-0.7,0.3-0.7,0.7v6.6h2.1V45.3z"/>
	<path fill="#FFFFFF" d="M72.7,4.2c0-0.4-0.3-0.7-0.7-0.7h-0.7c-0.4,0-0.7,0.3-0.7,0.7v6.6h2.1V4.2z"/>
	<path fill="#FFFFFF" d="M112.5,70.3c0,0.4-0.3,0.7-0.7,0.7H95.2c-0.4,0-0.7-0.3-0.7-0.7v-5.6c0-0.4,0.3-0.7,0.7-0.7h16.6
		c0.4,0,0.7,0.3,0.7,0.7V70.3z M95.5,70h15v-4h-15V70z"/>
	<path fill="#FFFFFF" d="M40.5,70.3c0,0.4-0.3,0.7-0.7,0.7H26.2c-0.4,0-0.7-0.3-0.7-0.7v-5.6c0-0.4,0.3-0.7,0.7-0.7h13.6
		c0.4,0,0.7,0.3,0.7,0.7V70.3z M27.5,70h12v-4h-12V70z"/>
	<path fill="#FFFFFF" d="M123.4,74.6c-0.4,0-0.8-0.2-0.8-0.2l-5.1,0v-4.8c0,0,0-0.5,0-0.9c0-1.9,1.6-3.5,3.5-3.5
		c1.9,0,3.5,1.6,3.5,3.5c0,0.2,0,0.4-0.1,0.6c1.1,0.4,1.9,1.5,1.9,2.7C126.3,73.7,125,74.6,123.4,74.6z M119.1,74h3.7
		c0.2,0,0.4-0.2,0.6-0.2c0.8,0,1.5-0.8,1.5-1.6c0-0.8-0.7-1.5-1.5-1.5c0,0-0.6,0.2-0.8-0.3s0.2-0.8,0.3-1c0.1-0.2,0.2-0.4,0.2-0.6
		c0-1.1-0.9-2.1-2-2.1c-1.1,0-2,0.9-2,2.1c0,0.3,0.1,1,0.1,1L119.1,74z"/>
	<path fill="#FFFFFF" d="M6.1,75c-1.6,0-2.9-1.3-2.9-2.9c0-1.3,0.8-2.3,1.9-2.7C5,69.2,5,69,5,68.8c0-1.9,1.5-3.5,3.4-3.5
		c1.9,0,3.3,1.5,3.3,3.5c0,0.3-0.2,0.8-0.2,1V75H6.7C6.7,75,6.4,75,6.1,75z M8.4,66.7c-1.1,0-2,0.9-2,2.1c0,0.2,0.1,0.4,0.2,0.6
		c0.1,0.2,0.3,0.6,0.1,0.9l-0.2,0.3l-0.4,0c-0.8,0-1.5,0.7-1.5,1.5c0,0.8,0.7,1.5,1.5,1.5c0.2,0,0.4,0,0.5,0l3.8,0l0-4
		c0.1-0.2,0.1-0.5,0.1-0.7C10.4,67.6,9.5,66.7,8.4,66.7z"/>
	<path fill="#FFFFFF" d="M32.3,50.6c-0.4-0.9-0.6-2,0.2-2.8c0.6-0.6,1.6-0.6,3,0.1c0.2,0.1,0.5,0.1,0.7,0c0,0,0.1-0.1,0.1-0.1
		c0.1-0.1,0.2-0.4,0.2-0.6c-0.2-1.7,0.2-3.1,1.2-4.1c2-2,5.1-2,7.1,0c0.7,0.7,0.9,1.7,1.1,2.6l1.1-1.1c-0.3-0.9-0.5-1.8-1.2-2.5
		c-2.5-2.5-6.6-2.5-9.1,0c-1.1,1.1-1.6,2.4-1.7,4.1c-1.8-0.6-2.9-0.1-3.5,0.6c-0.8,0.8-0.9,2.3-0.6,3.2L32.3,50.6z"/>
	<g>
		<path fill="#FFFFFF" d="M88.7,43.8c-0.2-3.1-2.9-5.6-6.1-5.6c-1.6,0-3.1,0.7-4.1,1.7v2.9c1-1.8,2.1-3.2,4.1-3.2
			c2.6,0,4.7,2.1,4.7,4.6c-0.1,0.1-0.2,0.3-0.2,0.6c0,0.2,0.1,0.4,0.2,0.6c0.2,0.2,0.4,0.2,0.6,0.2c0.3,0,0.5-0.2,0.7-0.3
			c2.4,0,4.3,1.9,4.3,4.3c0,1.2-0.5,2.3-1.3,3.1l1.3,0.3c0.8-1,1.4-2.1,1.4-3.4C94.3,46.4,91.8,43.9,88.7,43.8z"/>
	</g>
</g>
</svg>
