<svg version="1.1" id="Layer_1" xmlns="http://www.w3.org/2000/svg" xmlns:xlink="http://www.w3.org/1999/xlink" x="0px" y="0px"
	 viewBox="0 0 96 96" enable-background="new 0 0 96 96" xml:space="preserve">
<path fill="#FFFFFF" d="M62.5,78c0.6,0.4-0.2,1.2-1,1.2h-10c-0.8,0-1.4-0.9-0.9-1.3c0,0,1.7-1.6,2.5-1.6H60
	C60.7,76.4,62.5,78,62.5,78z M30.5,67c0,1.2-1,2.2-2.2,2.2H14.6c-1.2,0-2.2-1-2.2-2.2v-3.6c0-1.2,1-2.2,2.2-2.2h13.7
	c1.2,0,2.2,1,2.2,2.2V67z M14.6,67.7h6.5v-5.1h-6.5c-0.4,0-0.7,0.6-0.7,1v3.6C13.9,67.6,14.2,67.7,14.6,67.7z M28.3,62.6h-6.5v5.1
	h6.5c0.4,0,0.7-0.1,0.7-0.5v-3.6C29,63.2,28.7,62.6,28.3,62.6z M47.8,67c0,1.2-1,2.2-2.2,2.2h-2.9c-1.2,0-2.2-1-2.2-2.2v-3.6
	c0-1.2,1-2.2,2.2-2.2h2.9c1.2,0,2.2,1,2.2,2.2V67z M46.4,63.3c0-0.4-0.3-0.7-0.7-0.7h-2.9c-0.4,0-0.7,0.3-0.7,0.7v3.6
	c0,0.4,0.3,0.7,0.7,0.7h2.9c0.4,0,0.7-0.3,0.7-0.7V63.3z M94.1,55.3v2.9c0,0.6-0.5,0.8-1.1,0.8h-5.4v15.8c0,0.6-0.5,0.8-1.1,0.8
	h-6.1H66.6H8.4c-0.6,0-1.1-0.2-1.1-0.8V58l-0.9,0.7C6,59.1,5.4,59,5,58.6l-2.8-2.8C2,55.6,1.9,55.3,1.9,55s0.2-0.6,0.4-0.8
	l18.3-13.7c0.1-0.1,0.1-0.2,0.2-0.2c0.2-0.4,0.5-0.7,1-0.7H63v-4.8c0-1.2,1-2.4,2.2-2.4h1.4c1.2,0,2.2,1.2,2.2,2.4v4.8h4.3
	c0.2,0,0.4,0.2,0.6,0.3l19.7,14.2c0.2,0.1,0.3,0.4,0.4,0.6C94,54.8,94.1,55,94.1,55.3z M72.8,41.7h-5.6c-0.1,0-0.1,0.1-0.2,0.1
	l-1.8,0.1l-0.4-0.1l-0.1-0.1H23.8L39.6,54h0.3H90L72.8,41.7z M64.5,39.5h2.9v-4.8c0-0.4-0.3-1-0.7-1h-1.4c-0.4,0-0.7,0.6-0.7,1v4.8
	H64.5z M20.7,45.4c0.1-0.1,0.2-0.1,0.3-0.1c0,0,0.1,0,0.1-0.1c0.1,0,0.1,0,0.2,0l0,0c0.1,0,0.1,0,0.2,0s0.1-0.1,0.2-0.1l0.1,0.1
	c0.1,0,0.1,0.1,0.2,0.1l14.7,11.3l0.8-1.2L21.3,42.7L4.6,55.2l1.2,1.2L20.7,45.4z M33.4,56.9l-12.1-9.3L9.5,56.5v17h23.9V56.9z
	 M81.1,63.6c0-0.4-0.3-1-0.7-1h-6.5v10.8h7.2V63.6z M73.1,62.6h-6.5c-0.4,0-0.7,0.6-0.7,1v9.9h7.2V62.6z M85.4,59H37
	c-0.4,0-0.7-0.1-0.9-0.3l-0.5-0.3v15.1H53V62.9c0-0.8,0.6-1.7,1.4-1.7h4.3c0.8,0,1.4,0.9,1.4,1.7v10.6h4.3v-9.9c0-1.2,1-2.4,2.2-2.4
	h13.7c1.2,0,2.2,1.2,2.2,2.4v9.9h2.9C85.4,73.5,85.4,59,85.4,59z M91.9,56.1h-52h-0.3l-0.5,0.7H92L91.9,56.1L91.9,56.1z M54.1,18.4
	c1.6,2.2,1.2,5.4,1.2,5.4s3.3-1.6,5.8-0.3c2.5,1.2,2.2,5.4,2.2,5.4s1.2-0.9,2.4-0.4c1.5,0.7,0.7,2.2,0.7,2.2s1.5-2.1,0.1-3.3
	c-1.2-1.1-2.4-0.6-2.4-0.6s0.7-2.8-1.8-4.4c-2.7-1.9-5.6-0.5-5.6-0.5s0.5-2.3-1.2-4.1c-2.8-3-7.4-1.1-7.4-1.1S52.2,15.7,54.1,18.4z
	 M61.2,30.2c0,0-1.6,1.2-3.6,1.2c-2.1,0-3.5-2.1-3.5-2.1s0.4,3.1,3,3.4c2.5,0.3,3.2-0.9,3.2-0.9s0.5,1.1,1.6,1.2
	c1.3,0.1,1.9-0.9,1.9-0.9S62.4,32,62,31.6C61.6,31.2,61.2,30.2,61.2,30.2z"/>
</svg>
