<svg version="1.1" id="Layer_1" xmlns="http://www.w3.org/2000/svg" xmlns:xlink="http://www.w3.org/1999/xlink" x="0px" y="0px"
	 viewBox="0 0 170 70" enable-background="new 0 0 170 70" xml:space="preserve">
<g>
	<g>
		<path opacity="0.32" fill="#7D7D7D" d="M167,35.1c0,17.1-13.8,30.9-30.9,30.9H33.9C16.8,66,3,52.2,3,35.1v-0.2
			C3,17.8,16.8,4,33.9,4h102.2C153.2,4,167,17.8,167,34.9V35.1z"/>
		<path fill="none" stroke="#FFFFFF" stroke-miterlimit="10" d="M167,35.1c0,17.1-13.8,30.9-30.9,30.9H33.9C16.8,66,3,52.2,3,35.1
			v-0.2C3,17.8,16.8,4,33.9,4h102.2C153.2,4,167,17.8,167,34.9V35.1z"/>
	</g>
	<g>
		<g>
			<path fill="#FFFFFF" d="M127.4,26.5c0-0.9,0.6-1.2,1.3-0.8l16.7,9.7c0.7,0.4,0.7,1.1,0,1.6l-16.7,9.7c-0.7,0.4-1.3,0.1-1.3-0.8
				V26.5z"/>
		</g>
		<g>
			<g>
				<path fill="#FFFFFF" d="M53.3,27c1.1-0.2,2.5-0.3,4.3-0.3c2.2,0,3.9,0.5,4.9,1.5c1,0.8,1.5,2.1,1.5,3.7c0,1.6-0.5,2.8-1.4,3.7
					c-1.2,1.3-3.1,1.9-5.4,1.9c-0.7,0-1.3,0-1.8-0.2v7h-2.3V27z M55.6,35.5c0.5,0.1,1.1,0.2,1.9,0.2c2.7,0,4.4-1.3,4.4-3.7
					c0-2.3-1.6-3.4-4.1-3.4c-1,0-1.7,0.1-2.1,0.2V35.5z"/>
				<path fill="#FFFFFF" d="M67.2,26.8h2.3v15.6h7.5v1.9h-9.8V26.8z"/>
				<path fill="#FFFFFF" d="M82.3,38.8l-1.8,5.5h-2.3l6-17.5h2.7l6,17.5h-2.4l-1.9-5.5H82.3z M88,37l-1.7-5
					c-0.4-1.1-0.6-2.2-0.9-3.2h-0.1c-0.3,1-0.5,2.1-0.9,3.2L82.7,37H88z"/>
				<path fill="#FFFFFF" d="M97.2,44.3v-7.4l-5.5-10.1h2.6l2.5,4.8c0.7,1.3,1.2,2.4,1.7,3.6h0.1c0.5-1.1,1.1-2.3,1.8-3.6l2.5-4.8
					h2.6l-5.9,10.1v7.5H97.2z"/>
			</g>
		</g>
	</g>
</g>
</svg>
