<svg id="winky-chat" xmlns="http://www.w3.org/2000/svg" viewBox="0 0 96 96" enable-background="new 0 0 96 96"><path d="M48 33.6c-10.3 0-18.8 8.4-18.8 18.8 0 9.1 6.4 16.6 14.9 18.4-.2-.4-.3-.9-.3-1.4.1-1.3 1.2-2.8 3-2.6 0 0 .8.1 2.2.1 1.1 0 1.8.4 2.3 1.1h.7c.8 0 1.3.4 1.6 1l2.3-.1c.5 0 .9-.1 1.4-.2 5.5-3.3 9.3-9.3 9.3-16.2.1-10.4-8.3-18.9-18.6-18.9zm-12.8 16.6c-.3-.3-.3-.9.1-1.3l7.2-6.8c.3-.3.9-.3 1.3.1l1.6 1.8c.3.3.3.9-.1 1.3l-7.3 6.7c-.3.3-.9.3-1.3-.1l-1.5-1.7zm23.2 10.7c-2.3 3.1-6.2 5-10.4 5s-8.1-1.8-10.4-5c-1.1-1.5-.4-1.9.3-2.5.7-.6 1.8-.7 2.5.3 1.8 2.3 4.5 3.6 7.6 3.6s5.8-1.4 7.6-3.6c.8-.9 1.8-.8 2.5-.3.7.6 1.4 1.1.3 2.5zm1.7-10.7l-1.6 1.8c-.3.3-.9.4-1.3.1l-7.2-6.9c-.3-.3-.4-.9-.1-1.3l1.6-1.8c.3-.3.9-.4 1.3-.1l7.2 6.8c.3.5.4 1 .1 1.4zM56 69.4c-1 .1-2 .1-2.9.1-.1-.5-.4-1-1.1-1h-1c-.3-.7-1-1.2-2-1.1-1.3 0-2.2-.1-2.2-.1-2.2-.2-2.9 2.3-2 3.6.3.5.9.8 1.7.9 0 0 1 .1 2.6.1.8 0 1.4-.4 1.8-.9l.2-.2h.9l.7-.2c.3-.2.4-.3.5-.6h1.4l1.5-.1c1.3-.1 2.6-.3 4-.6l1.1-.8c-1.8.4-3.5.7-5 .8-.1.1-.1.1-.2.1zM74.1 49.6v-1.1c0-1.3-1-2.3-2.3-2.3-.5 0-1 .2-1.3.5-1.7-6.7-6.3-12.3-12.4-15.2-3-1.4-6.5-2.3-10-2.3-12.9 0-23.3 10.3-23.3 23.2s10.4 23.2 23.2 23.2c3.6 0 7-.8 10-2.3l1.7-.9.5-.3c.4-.3.8-.5 1.1-.8l.2-.1 1-.8.1-.1c.3-.3.7-.6 1-.8.1-.1.3-.2.3-.3l.7-.6.1-.1c-1.9.8-3.9 1.2-5.7 1.5l-.9.5c-2.9 1.7-6.4 2.6-10 2.6-11.5 0-20.8-9.3-20.8-20.8s9.3-20.8 20.8-20.8c3.6 0 7 .9 10 2.6 6.5 3.5 10.8 10.4 10.8 18.2 0 4.2-1.3 8.1-3.4 11.3-.3.4-.5.6-.5.8l-.1.2-.6.8c-.2.3-.4.5-.6.7-.3.3-.5.6-.8.8l-.8.8c1.7-.5 3.4-1.2 5-2.1.3-.4.6-.9.9-1.4 0 0 0-.1.1-.1.2-.3.3-.5.4-.7.9-1.7 1.6-3.4 2-5.2.4.3.8.5 1.3.5h.2c-.2.8-.3 1.4-.6 2.1-.2.5 0 .9.3 1.2-.8 1.3-2.2 2.9-3.4 3.7-.7.4-1.3.8-2 1.1-1.7.8-3.4 1.4-5.1 1.8-.3.3-.8.6-1.1.8 1.8-.3 3.6-.8 5.4-1.7 1.1-.5 2.1-1 3.1-1.7 1.3-.8 2.8-2.6 3.6-3.9.5.2 1.2 0 1.4-.7.6-1.7.8-3.3.9-4.4.1-.9.1-1.6.1-1.8.7-.3 1.1-1.3 1.1-2.5v-.3c.1-1.6-.7-2.8-1.6-2.8z"/></svg>