<svg class="alert-icon" xmlns="http://www.w3.org/2000/svg" viewBox="0 0 30 30">
  <path d="M24.94,10.64a14,14,0,1,1-14,14,14,14,0,0,1,14-14m0-1a15,15,0,1,0,15,15,15,15,0,0,0-15-15h0Z" transform="translate(-9.94 -9.64)"/>
  <path d="M24.94,10.94a13.7,13.7,0,1,1-13.7,13.7,13.72,13.72,0,0,1,13.7-13.7m0-1.3a15,15,0,1,0,15,15,15,15,0,0,0-15-15h0Z" transform="translate(-9.94 -9.64)"/>
  <path d="M23.51,32.58a1.18,1.18,0,0,1,1.27-1.3h0.29a1.19,1.19,0,0,1,1.3,1.3v0.29a1.17,1.17,0,0,1-1.3,1.27H24.79a1.16,1.16,0,0,1-1.27-1.27V32.58Zm0.87-4.45L23.74,16.27c0-.87.32-1.13,0.84-1.13h0.72c0.52,0,.87.26,0.84,1.13L25.51,28.12c0,0.43-.09.69-0.46,0.69H24.81C24.47,28.82,24.41,28.56,24.38,28.12Z" transform="translate(-9.94 -9.64)"/>
</svg>
