<svg version="1.1" id="Layer_1" xmlns="http://www.w3.org/2000/svg" xmlns:xlink="http://www.w3.org/1999/xlink" x="0px" y="0px"
	 viewBox="0 0 112 112" enable-background="new 0 0 112 112" xml:space="preserve">
<circle fill="#AFDFFA" cx="56" cy="56" r="56"/>
<g>
	<g>
		<path fill="#FFFFFF" d="M56,27c-11.9,0-21.5,9.6-21.5,21.4c0,9.2,13.1,27.7,18.9,35.3C54,84.5,55,85,56,85h0c1,0,2-0.5,2.6-1.3
			c5.7-7.6,18.9-26.1,18.9-35.3C77.5,36.6,67.9,27,56,27z M57.5,78.7c-0.3,0.5-0.9,0.7-1.5,0.7c-0.6,0-1.1-0.3-1.5-0.7
			C44.5,65,38.4,53.5,38.4,48.4c0-9.6,7.9-17.5,17.6-17.5c9.7,0,17.6,7.8,17.6,17.5C73.6,53.5,67.5,65,57.5,78.7z M56,37.9
			c-5,0-9.1,4.1-9.1,9.1c0,5,4.1,9.1,9.1,9.1c5.1,0,9.1-4.1,9.1-9.1C65.1,42,61.1,37.9,56,37.9z M56,52.2c-2.9,0-5.2-2.3-5.2-5.2
			c0-2.9,2.3-5.2,5.2-5.2c2.9,0,5.2,2.3,5.2,5.2C61.2,49.9,58.9,52.2,56,52.2z"/>
	</g>
	<g>
		<path fill="none" stroke="#AFDFFA" stroke-width="0.5" stroke-miterlimit="10" d="M56,27c-11.9,0-21.5,9.6-21.5,21.4
			c0,9.2,13.1,27.7,18.9,35.3C54,84.5,55,85,56,85h0c1,0,2-0.5,2.6-1.3c5.7-7.6,18.9-26.1,18.9-35.3C77.5,36.6,67.9,27,56,27z
			 M57.5,78.7c-0.3,0.5-0.9,0.7-1.5,0.7c-0.6,0-1.1-0.3-1.5-0.7C44.5,65,38.4,53.5,38.4,48.4c0-9.6,7.9-17.5,17.6-17.5
			c9.7,0,17.6,7.8,17.6,17.5C73.6,53.5,67.5,65,57.5,78.7z M56,37.9c-5,0-9.1,4.1-9.1,9.1c0,5,4.1,9.1,9.1,9.1
			c5.1,0,9.1-4.1,9.1-9.1C65.1,42,61.1,37.9,56,37.9z M56,52.2c-2.9,0-5.2-2.3-5.2-5.2c0-2.9,2.3-5.2,5.2-5.2c2.9,0,5.2,2.3,5.2,5.2
			C61.2,49.9,58.9,52.2,56,52.2z"/>
	</g>
</g>
</svg>
