<svg xmlns="http://www.w3.org/2000/svg" viewBox="0 0 255 26" enable-background="new 0 0 255 26"><path fill="#fff" d="M14.5 10c.3-.9.6-1.8 1.1-2.5.4-.8 1-1.5 1.7-2.1.6-.6 1.3-1.3 2.2-1.7s1.5-.9 2.5-1.1c.9-.3 1.9-.4 2.9-.4s1.9.1 2.9.4c.9.3 1.8.6 2.6 1.1.8.4 1.5 1 2.2 1.7.6.7 1.3 1.3 1.7 2.2.4.8.8 1.6 1.1 2.5.3.9.4 1.9.4 2.9s-.1 2-.4 2.9c-.3.9-.6 1.8-1.1 2.6-.4.8-1 1.5-1.7 2.2-.6.7-1.3 1.3-2.2 1.7-.8.4-1.6.8-2.6 1.1-.9.3-1.9.4-2.9.4s-1.9-.2-2.9-.5c-.9-.3-1.8-.6-2.6-1.1s-1.5-1.1-2.2-1.7c-.6-.7-1.3-1.4-1.7-2.2-.4-.8-.8-1.7-1.1-2.6s-.4-1.9-.4-2.9.2-2 .5-2.9zm.9 6.1c.4 1 .8 2 1.4 2.8.6.8 1.3 1.5 2.2 2.2.8.6 1.7 1.1 2.8 1.4 1.1.4 2.1.5 3.1.5 1.1 0 2.2-.2 3.1-.5 1-.4 2-.8 2.8-1.4.8-.6 1.5-1.3 2.2-2.2.6-.8 1.1-1.7 1.4-2.8.4-1.1.5-2.1.5-3.1 0-.9-.1-1.8-.4-2.7-.1-.9-.5-1.6-1-2.3-.4-.7-.9-1.4-1.5-2.1-.6-.6-1.3-1.2-2.1-1.5s-1.5-.8-2.4-1c-.9-.2-1.8-.4-2.7-.4s-1.8.1-2.7.4-1.5.5-2.3 1c-.7.4-1.3.9-2 1.5-.6.6-1.2 1.3-1.6 2.1-.4.7-.7 1.5-1 2.3s-.4 1.8-.4 2.7c0 1.1.2 2.2.6 3.1zm4.3-6c0-.3 0-.5.2-.8.1-.3.2-.5.5-.8l.4-.4.3-.1h.7c.1 0 .2.1.3.2.1.1.2.3.4.5.2.3.4.6.7 1 .3.4.4.5.4.6.1.1.1.3.1.3 0 .1-.1.2-.3.3-.3.2-.5.3-.7.4-.2.1-.3.3-.3.4v.1c.2.3.7.9 1.8 1.9l.4.4c.3.3.5.5.9.8.4.3.5.4.6.5h.1c.2 0 .4-.3.9-.9.1-.2.2-.3.4-.3.1 0 .2 0 .3.1.2.1.5.4 1.2.8.5.4.9.6 1 .7.1.1.2.2.2.3s0 .2-.1.4-.1.3-.1.3c0 .1-.1.2-.2.3-.1.2-.2.3-.4.4-.4.5-1 .8-1.6.8-.4 0-.9-.1-1.5-.4-.3-.1-.6-.3-1-.5l-.9-.6-.8-.6c-.3-.3-.4-.4-.5-.4l-.2-.2-.5-.6c-.5-.6-.9-1.1-1.3-1.6s-.7-1.1-1-1.6c-.2-.5-.4-1-.4-1.3v-.4z"/><g fill="#fff"><path d="M45.9 14.1v-2c0-6 3.1-9.7 8.1-9.7s8.1 3.7 8.1 9.6v2c0 5.9-3.2 9.7-8.2 9.7-4.9 0-8-3.7-8-9.6zm14.6-.1v-1.9c0-5.2-2.5-8.4-6.6-8.4-4 0-6.5 3.2-6.5 8.4v1.9c0 5.2 2.5 8.4 6.5 8.4 4.1-.1 6.6-3.3 6.6-8.4zM65.4 17.9c0-2.4 1.7-4.5 4.8-5.3-2.8-.6-4.2-2.5-4.2-4.7 0-3.2 2.8-5.5 7-5.5 4.4 0 7 2.2 7 5.5 0 2.2-1.3 4.1-4.1 4.8 3.2.7 4.8 2.8 4.8 5.3 0 3.4-3 5.8-7.6 5.8-4.8-.1-7.7-2.4-7.7-5.9zm13.7-.1c0-2.7-2.2-4.5-6-4.5-3.9 0-6.1 1.8-6.1 4.5 0 2.6 2.2 4.5 6.1 4.5 3.9 0 6-1.7 6-4.5zm-.7-9.9c0-2.5-2-4.2-5.4-4.2-3.5 0-5.4 1.7-5.4 4.2 0 2.4 2 4 5.4 4 3.5 0 5.4-1.5 5.4-4zM84 14.1v-2c0-6 3.1-9.7 8.1-9.7s8.1 3.7 8.1 9.6v2c0 5.9-3.2 9.7-8.2 9.7-4.9 0-8-3.7-8-9.6zm14.6-.1v-1.9c0-5.2-2.5-8.4-6.6-8.4-4 0-6.5 3.2-6.5 8.4v1.9c0 5.2 2.5 8.4 6.5 8.4 4.1-.1 6.6-3.3 6.6-8.4zM104 14.1v-2c0-6 3.1-9.7 8.1-9.7s8.1 3.7 8.1 9.6v2c0 5.9-3.2 9.7-8.2 9.7-4.9 0-8-3.7-8-9.6zm14.6-.1v-1.9c0-5.2-2.5-8.4-6.6-8.4-4 0-6.5 3.2-6.5 8.4v1.9c0 5.2 2.5 8.4 6.5 8.4 4.1-.1 6.6-3.3 6.6-8.4zM139.7 22.7v-5.5h-9.6c-.7 0-1.2-.4-1.2-.8v-.5c0-.4.3-.8.7-1.3l8.9-11.1c.5-.7.8-1 1.5-1 .9 0 1.2.4 1.2 1.1v12.2h3.1c.5 0 .7.2.7.7v.1c0 .4-.3.6-.7.6h-3.1v5.5c0 .5-.2.7-.7.7h-.2c-.3.1-.6-.3-.6-.7zm0-6.9v-11.8l-9.4 11.7h9.4zM155.9 10.7c4.2 0 7 2.5 7 6.1v.1c0 3.9-3 6.8-7.2 6.8-5 0-7.9-3.5-7.9-9.3v-2.4c0-6.1 3.1-9.7 8-9.7 2.5 0 4.3.9 5.3 1.8.6.6.9 1.3.9 1.7 0 .5-.8.9-.9.9-.9-1.6-2.6-3-5.3-3-4 0-6.5 2.9-6.5 8.2v1.9c1.3-1.7 3.6-3.1 6.6-3.1zm5.4 6.4v-.2c0-3.1-2-4.9-5.6-4.9-2.8 0-5.3 1.5-6.3 3.4.3 4.4 2.7 6.9 6.2 6.9 3.3 0 5.7-2.1 5.7-5.2zM165.6 22.3v-.7c0-4.5 3.2-6.4 6.5-8.1 3-1.5 5.6-2.7 5.6-5.5 0-2.5-1.8-4.3-5.1-4.3-3.5 0-5.2 2.1-5.9 4.5 0 .1-1.1.1-1.1-.8 0-.6.4-2 1.5-3 1.2-1.2 3-2.1 5.5-2.1 4.2 0 6.6 2.4 6.6 5.8 0 3.5-2.8 4.9-6.1 6.6-3.2 1.6-6 3.1-6 6.7v.5h11.8c.5 0 .8.2.8.6v.1c0 .4-.3.7-.8.7h-12.3c-.6.1-1-.3-1-1zM196.3 10.7c4.2 0 7 2.5 7 6.1v.1c0 3.9-3 6.8-7.2 6.8-5 0-7.9-3.5-7.9-9.3v-2.4c0-6.1 3.1-9.7 8-9.7 2.5 0 4.3.9 5.3 1.8.6.6.9 1.3.9 1.7 0 .5-.8.9-.9.9-.9-1.6-2.6-3-5.3-3-4 0-6.5 2.9-6.5 8.2v1.9c1.3-1.7 3.6-3.1 6.6-3.1zm5.4 6.4v-.2c0-3.1-2-4.9-5.6-4.9-2.8 0-5.3 1.5-6.3 3.4.3 4.4 2.7 6.9 6.2 6.9 3.4 0 5.7-2.1 5.7-5.2zM214.6 10.7c4.2 0 7 2.5 7 6.1v.1c0 3.9-3 6.8-7.2 6.8-5 0-7.9-3.5-7.9-9.3v-2.4c0-6.1 3.1-9.7 8-9.7 2.5 0 4.3.9 5.3 1.8.6.6.9 1.3.9 1.7 0 .5-.8.9-.9.9-.9-1.6-2.6-3-5.3-3-4 0-6.5 2.9-6.5 8.2v1.9c1.3-1.7 3.6-3.1 6.6-3.1zm5.4 6.4v-.2c0-3.1-2-4.9-5.6-4.9-2.8 0-5.3 1.5-6.3 3.4.3 4.4 2.7 6.9 6.2 6.9 3.4 0 5.7-2.1 5.7-5.2zM224.4 17.9c0-2.4 1.7-4.5 4.8-5.3-2.8-.6-4.1-2.5-4.1-4.7 0-3.2 2.8-5.5 7-5.5 4.4 0 7 2.2 7 5.5 0 2.2-1.3 4.1-4.1 4.8 3.2.7 4.8 2.8 4.8 5.3 0 3.4-3 5.8-7.6 5.8-4.9-.1-7.8-2.4-7.8-5.9zm13.7-.1c0-2.7-2.2-4.5-6-4.5-3.9 0-6.1 1.8-6.1 4.5 0 2.6 2.2 4.5 6.1 4.5 3.9 0 6-1.7 6-4.5zm-.7-9.9c0-2.5-2-4.2-5.4-4.2-3.5 0-5.4 1.7-5.4 4.2 0 2.4 2 4 5.4 4 3.5 0 5.4-1.5 5.4-4z"/></g></svg>