<svg version="1.1" id="Layer_1" xmlns="http://www.w3.org/2000/svg" xmlns:xlink="http://www.w3.org/1999/xlink" x="0px" y="0px"
	 viewBox="0 0 112 112" enable-background="new 0 0 112 112" xml:space="preserve">
<circle fill="#FFDD00" cx="56" cy="56" r="56"/>
<g>
	<g>
		<path fill="none" stroke="#FFFFFF" stroke-width="3" stroke-linejoin="round" stroke-miterlimit="10" d="M72,40.8H40
			c0,0-0.3,5.7,0,7.5c0.4,2.4,1.9,6.2,6.1,7.8c4.1,1.6,3.9,7.9,3.9,7.9v3.8c0,0,0.1,2,2.1,2l1.9,0l4,0l2,0c0,0,1.9-0.1,1.9-1.8v-4
			c0,0,0.5-7.8,4.1-8c3.6-0.2,5.6-5.5,5.9-8C72.2,46.3,72,40.8,72,40.8z"/>
	</g>
</g>
<path fill-rule="evenodd" clip-rule="evenodd" fill="#FFFFFF" d="M72.9,37.6c0,0,0-2.4-2.2-2.4h-4.1V25c0-1.1-0.9-2.1-2.1-2.1
	c-1.2,0-2.1,0.9-2.1,2.1v10.3H49.6V25c0-1.1-0.9-2.1-2.1-2.1c-1.2,0-2.1,0.9-2.1,2.1v10.3h-4.2c0,0-2.1,0.5-2.1,2.4H72.9z"/>
<path fill-rule="evenodd" clip-rule="evenodd" fill="#FFFFFF" d="M54,69.8c0,0,1.6,8.1,5.8,9.7c2.6,1.5,2.4,4.1,2.4,4.1l0.1,3.8
	l3.7-0.1c0,0,0-1.3,0-3.5c-0.1-4-2.4-5.6-2.4-5.6c-5.1-3.7-5.5-8.4-5.5-8.4L54,69.8z"/>
<line fill="none" stroke="#FFFFFF" stroke-width="2" stroke-linecap="round" stroke-miterlimit="10" x1="49.2" y1="57.7" x2="62.7" y2="57.7"/>
<line fill="none" stroke="#FFFFFF" stroke-width="2" stroke-linecap="round" stroke-miterlimit="10" x1="50.3" y1="61.7" x2="62" y2="61.7"/>
<line fill="none" stroke="#FFFFFF" stroke-width="2" stroke-linecap="round" stroke-miterlimit="10" x1="50.3" y1="65.8" x2="61.7" y2="65.8"/>
</svg>
