<svg xmlns="http://www.w3.org/2000/svg" xmlns:xlink="http://www.w3.org/1999/xlink" viewBox="0 0 65 65" enable-background="new 0 0 65 65"><circle fill="#FA0E6A" cx="32.5" cy="32.5" r="30"/><circle fill="#fff" cx="32.5" cy="32.5" r="27.5"/><defs><circle id="a" cx="32.5" cy="32.5" r="27.5"/></defs><clipPath id="b"><use xlink:href="#a" overflow="visible"/></clipPath><path clip-path="url(#b)" fill-rule="evenodd" clip-rule="evenodd" fill="#D5D5D5" d="M48 60.3h-31c-.2 0-.3-.1-.3-.3v-14.8c0-3.2 1.1-6.1 3.3-8.4 2.3-2.4 5-4 8.2-4h8.4c3.1 0 5.8 1.4 8 3.7 2.2 2.3 3.6 4.9 3.6 8.1v.7l.1 14.7c0 .2-.1.3-.3.3"/><path clip-path="url(#b)" fill-rule="evenodd" clip-rule="evenodd" fill="#FA0E6A" d="M24.2 46c0-4.3 3.5-7.8 7.8-7.8s7.8 3.5 7.8 7.8-3.5 7.8-7.8 7.8-7.8-3.5-7.8-7.8m14.9 0c0 3.9-3.1 7-7 7s-7-3.1-7-7 3.1-7 7-7c3.8 0 7 3.1 7 7m-13.4 0c0 3.5 2.8 6.3 6.3 6.3s6.3-2.8 6.3-6.3-2.8-6.3-6.3-6.3c-3.4 0-6.3 2.8-6.3 6.3m2-.8c-.1-.1-.1-.3 0-.4l2.4-2.3c.1-.1.3-.1.4 0l.5.6c.1.1.1.3 0 .4l-2.4 2.3c-.1.1-.3.1-.4 0l-.5-.6m.9 2.8c.2-.2.6-.2.8.1.6.8 1.5 1.2 2.6 1.2 1 0 2-.5 2.6-1.2.3-.3.6-.3.8-.1.2.2.5.4.1.8-.8 1-2.1 1.7-3.5 1.7s-2.7-.6-3.5-1.7c-.3-.5-.1-.6.1-.8m7.5-2.8c.1-.1.1-.3 0-.4l-2.4-2.3c-.1-.1-.3-.1-.4 0l-.5.6c-.1.1-.1.3 0 .4l2.4 2.3c.1.1.3.1.4 0l.5-.6"/><path clip-path="url(#b)" fill-rule="evenodd" clip-rule="evenodd" fill="#ccc" d="M36.3 32.8h-8c-3.2 0-6 1.5-8.2 4-2.2 2.4-3.3 5.2-3.3 8.4v15.1h7.6l3.3-7.8 6.2-14 2.4-5.7"/><path clip-path="url(#b)" fill-rule="evenodd" clip-rule="evenodd" fill="#EBADAD" d="M26.6 16c1.6-1.8 3.6-2.8 5.8-2.8 2.3 0 4.2.9 5.9 2.8 1.6 1.8 2.4 4.1 2.4 6.6 0 2.6-.8 4.8-2.4 6.7-1.6 1.8-3.6 2.7-5.9 2.7-2.2 0-4.2-.9-5.8-2.7-1.6-1.8-2.4-4.1-2.4-6.7 0-2.6.8-4.8 2.4-6.6"/><path clip-path="url(#b)" fill-rule="evenodd" clip-rule="evenodd" fill="#E3A4A1" d="M32.5 13.2c-2.2 0-4.2.9-5.8 2.8-1.6 1.8-2.4 4.1-2.4 6.6l.1 1.8c.3-3.1 1.9-5.4 1.9-5.4s3.2 1.4 6.6 2.4c3.3.9 8.2.8 7.4 4.2 0 0-.1.4-.2 1 .5-1.2.7-3.3.7-4.8-.2-2.2-1-4.2-2.4-5.8-1.7-1.8-3.6-2.8-5.9-2.8"/><path clip-path="url(#b)" fill-rule="evenodd" clip-rule="evenodd" fill="#894C41" d="M23.7 24.8c.6.4 1.2.9 1.7 1.3-.3-.9-.5-1.8-.6-2.9-.2-4.5 1.8-5.9 1.8-5.9s2.1 1 5.6 1.4c4.2.4 7.4-.2 7.4-.2s.8 4.6 0 7.9l1.6-1.4c.8-4.1 2-10.7-3-13-1.8-1.1-5.9-1.4-8.2-1.9-2.5-.5-2.1-2.6-2.1-2.6s-1.7 2.4-2.3 3.8c-.2.4-.8 1.3-1.2 2.4-1.6 4.2-1.3 7-1.1 8.7.1.9.2 1.7.4 2.4"/><path clip-path="url(#b)" fill-rule="evenodd" clip-rule="evenodd" fill="#FA0E6A" d="M33.2 38.3"/><path fill="#E80E63" d="M24.2 46c0 2.7 1.3 5 3.4 6.4l.3-.8c-1.7-1.2-2.9-3.3-2.9-5.6 0-3.9 3.1-7 7-7 .5 0 1 .1 1.4.1l.3-.7c-.6-.1-1.2-.2-1.8-.2-4.2 0-7.7 3.5-7.7 7.8zM25.7 46c0 2.1 1 3.9 2.5 5l.7-1.7c-.2-.2-.3-.3-.4-.5-.4-.5-.1-.7.1-.8.2-.2.6-.2.8.1l3.7-8.3c-.4-.1-.8-.1-1.2-.1-3.3 0-6.2 2.8-6.2 6.3zm5.4-2.5l-2.4 2.3c-.1.1-.3.1-.4 0l-.5-.6c-.1-.1-.1-.3 0-.4l2.4-2.3c.1-.1.3-.1.4 0l.5.6c.2.1.2.3 0 .4z"/></svg>