<svg version="1.1" id="Layer_1" xmlns="http://www.w3.org/2000/svg" xmlns:xlink="http://www.w3.org/1999/xlink" x="0px" y="0px"
	 viewBox="0 0 300 40" enable-background="new 0 0 300 40" xml:space="preserve">
<polygon fill="#bc216b" points="108.3,26.9 108.3,23.5 120.5,15.4 120,14.7 108.3,22.4 108.3,18.9 117.6,12.7 117.1,12 108.3,17.8 
	108.3,14.3 114.9,9.9 114.5,9.2 108.3,13.3 108.3,9.7 112,7.3 111.5,6.6 108.3,8.7 108.3,7 107.3,7 107.3,8.7 104,6.6 103.6,7.3 
	107.3,9.7 107.3,13.3 101.1,9.2 100.7,9.9 107.3,14.3 107.3,17.8 98.5,12 98,12.7 107.3,18.9 107.3,22.4 95.6,14.7 95.2,15.4 
	107.3,23.5 107.3,26.9 95.6,19.3 95.2,20 107.3,27.9 107.3,28 107.3,40 108.3,40 108.3,28 108.3,27.9 120.5,20 120,19.3 "/>
<g>
	<path fill="#bc216b" d="M38.5,17.5c0-7.8-6.6-14.1-14.8-14.1S9.2,9.7,9.2,17.5c0,7.5,6.4,13.5,14.2,14V28v-0.1l-12.2-8l0.4-0.7
		l11.7,7.6v-3.4l-12.2-8.1l0.4-0.7l11.7,7.7v-3.5l-9.3-6.1l0.4-0.7l8.9,5.8v-3.5l-6.6-4.4l0.4-0.7l6.2,4.1V9.7l-3.7-2.4l0.4-0.7
		l3.3,2.1V7h1v1.7l3.2-2.1L28,7.3l-3.7,2.4v3.5l6.2-4.1L31,9.9l-6.6,4.4v3.5l8.8-5.8l0.5,0.7l-9.2,6.1v3.5L36,14.7l0.5,0.7
		l-12.1,8.1v3.4L36,19.3l0.5,0.7l-12.1,8V28v3.6C32.1,31.2,38.5,25,38.5,17.5z"/>
	<path fill="#bc216b" d="M23.9,31.6c-0.2,0-0.4,0-0.5,0V40h1v-8.4C24.2,31.6,24.1,31.6,23.9,31.6L23.9,31.6z"/>
</g>
<line fill="#0E91CF" x1="24.4" y1="13" x2="24.4" y2="10"/>
<line fill="#0E91CF" x1="24.4" y1="18" x2="24.4" y2="14"/>
<line fill="#0E91CF" x1="24.4" y1="22" x2="24.4" y2="19"/>
<line fill="#0E91CF" x1="24.4" y1="27" x2="24.4" y2="23"/>
<circle fill="#bc216b" cx="98.8" cy="22" r="1.2"/>
<circle fill="#bc216b" cx="104.1" cy="20.8" r="1.2"/>
<circle fill="#bc216b" cx="97.5" cy="16.2" r="1.2"/>
<circle fill="#bc216b" cx="111.8" cy="7.8" r="1.2"/>
<circle fill="#bc216b" cx="102.3" cy="14.5" r="1.2"/>
<circle fill="#bc216b" cx="104.1" cy="25.8" r="1.2"/>
<circle fill="#bc216b" cx="116.4" cy="26.4" r="1.2"/>
<circle fill="#bc216b" cx="114.3" cy="33.8" r="1.2"/>
<circle fill="#bc216b" cx="124.2" cy="38.1" r="1.2"/>
<circle fill="#bc216b" cx="120.5" cy="19.5" r="1.2"/>
<circle fill="#bc216b" cx="113" cy="20" r="1.2"/>
<circle fill="#bc216b" cx="115.1" cy="13.7" r="1.2"/>
<circle fill="#bc216b" cx="111.4" cy="12.5" r="1.2"/>
<path fill="#bc216b" d="M275.8,31.6c-0.2,0-0.4,0-0.5,0V40h1v-8.4C276.1,31.6,276,31.6,275.8,31.6L275.8,31.6z"/>
<path fill="#bc216b" d="M275.6,3.4c-8.2,0-14.5,6.3-14.5,14.1c0,7.5,6.4,13.5,14.2,14V28v-0.1l-2-1.3c-0.2,0.2-0.5,0.4-0.9,0.4
	c-0.7,0-1.2-0.6-1.2-1.2c0-0.2,0-0.3,0.1-0.5l-3.5-2.3c-0.2,0.1-0.4,0.3-0.7,0.3c-0.7,0-1.2-0.6-1.2-1.2c0-0.1,0-0.2,0.1-0.3
	l-2.8-1.8l0.4-0.7l2.8,1.8c0.2-0.2,0.5-0.3,0.8-0.3c0.7,0,1.2,0.6,1.2,1.2c0,0.1,0,0.2-0.1,0.3l3.6,2.3c0.2-0.1,0.3-0.1,0.5-0.1
	c0.7,0,1.2,0.6,1.2,1.2c0,0,0,0,0,0l1.6,1.1v-3.4l-2.3-1.6c-0.2,0.1-0.3,0.1-0.5,0.1c-0.7,0-1.2-0.6-1.2-1.2c0,0,0,0,0,0l-5-3.3
	c-0.1,0-0.2,0.1-0.3,0.1c-0.6,0-1.1-0.5-1.2-1.1l-1.5-1l0.4-0.7l1.3,0.9c0.2-0.3,0.6-0.5,1-0.5c0.7,0,1.2,0.6,1.2,1.2
	c0,0.2-0.1,0.5-0.2,0.6l4.6,3.1c0.2-0.2,0.5-0.4,0.9-0.4c0.7,0,1.2,0.6,1.2,1.2c0,0.2,0,0.3-0.1,0.5l1.7,1.1v-3.5l-4.8-3.2
	c-0.4,0-0.7-0.3-0.9-0.6l-3.5-2.3l0.4-0.7l3,2c0.2-0.5,0.6-0.8,1.2-0.8c0.7,0,1.2,0.6,1.2,1.2c0,0.3-0.1,0.6-0.4,0.9l3.8,2.5v-3.5
	l-6.6-4.4l0.4-0.7l6.2,4.1V9.7l-3.7-2.4l0.4-0.7l3.3,2.1V7h1v1.7l3.2-2.1l0.1,0.1c0.2-0.1,0.3-0.1,0.5-0.1c0.7,0,1.2,0.6,1.2,1.2
	s-0.6,1.2-1.2,1.2c-0.6,0-1.1-0.5-1.2-1.1l-2.6,1.7v3.5l6.2-4.1l0.5,0.7l-2.4,1.6c0.3,0.2,0.5,0.6,0.5,1c0,0.7-0.6,1.2-1.2,1.2
	c-0.6,0-1-0.4-1.2-0.9l-2.2,1.5v3.5l6-4c0-0.1,0-0.1,0-0.2c0-0.7,0.6-1.2,1.2-1.2c0.2,0,0.4,0.1,0.6,0.2l1-0.7l0.5,0.7l-0.9,0.6
	c0,0.1,0.1,0.3,0.1,0.4c0,0.7-0.6,1.2-1.2,1.2c-0.3,0-0.6-0.1-0.8-0.3l-6.4,4.2v3.5l3.8-2.5c0.1-0.6,0.6-1.1,1.2-1.1
	c0.1,0,0.3,0,0.4,0.1l6.2-4.1l0.5,0.7l-6,4c0.1,0.2,0.2,0.4,0.2,0.6c0,0.7-0.6,1.2-1.2,1.2c-0.4,0-0.7-0.2-1-0.5l-4.1,2.7v3.4
	l11.7-7.6l0.5,0.7l-4.9,3.2c0.3,0.2,0.5,0.6,0.5,1c0,0.7-0.6,1.2-1.2,1.2c-0.6,0-1-0.4-1.2-0.9l-5.2,3.4V28v3.6
	c7.8-0.4,14.2-6.5,14.2-14.1C290.4,9.7,283.8,3.4,275.6,3.4z"/>
<polygon fill="#bc216b" points="192.3,26.9 192.3,23.5 204.4,15.4 204,14.7 192.3,22.4 192.3,18.9 201.5,12.7 201.1,12 192.3,17.8 
	192.3,14.3 198.9,9.9 198.4,9.2 192.3,13.3 192.3,9.7 196,7.3 195.5,6.6 192.3,8.7 192.3,7 191.3,7 191.3,8.7 188,6.6 187.6,7.3 
	191.3,9.7 191.3,13.3 185.1,9.2 184.7,9.9 191.3,14.3 191.3,17.8 182.4,12 182,12.7 191.3,18.9 191.3,22.4 179.5,14.7 179.1,15.4 
	191.3,23.5 191.3,26.9 179.5,19.3 179.1,20 191.3,27.9 191.3,28 191.3,40 192.3,40 192.3,28 192.3,27.9 204.4,20 204,19.3 "/>
</svg>
