<svg version="1.1" id="Layer_1" xmlns="http://www.w3.org/2000/svg" xmlns:xlink="http://www.w3.org/1999/xlink" x="0px" y="0px"
	 viewBox="0 0 112 112" enable-background="new 0 0 112 112" xml:space="preserve">
<circle fill="#FA0E6A" cx="56" cy="56" r="56"/>
<g>
	<g>
		<path fill="#FFFFFF" d="M41.5,51.5c-1.2,0-2.1,0.9-2.1,2.1c0,1.2,0.9,2.1,2.1,2.1c1.2,0,2.1-0.9,2.1-2.1
			C43.6,52.4,42.7,51.5,41.5,51.5z M91.8,50.6c-0.4-0.6-1.3-0.8-1.9-0.4c-1.1,0.7-2.1,1-2.9,1.2c0.3-0.7,0.4-1.4,0.4-2.1
			c0-2.7-2-4.2-3.9-4.2c-2.4,0-3.8,2.2-3.8,4.2c0,1.4,1,2.8,2.5,3.8c-0.8,0.5-1.8,0.9-2.9,1.1c-0.4-5.3-2.9-10-6.8-13.1
			c1.5-1.7,2.4-3.8,2.5-6c0.3-5.5-3.8-10.2-9.2-10.5c-5.4-0.4-10.1,3.8-10.5,9.3c-0.1,0.9,0,1.8,0.2,2.6c0.1,0.4,0.2,0.8,0.3,1.2
			c-0.9,0.3-1.8,0.6-2.6,1c-0.8-1.8-2.6-4.9-7-5c-3.2-0.1-4.4,0.8-5.9,1.9c-1.1,0.8-2.5,1.8-5.4,3c-3.2,1.3-3.3,3.1-3.1,4.1
			c0.5,2,3.1,3.6,6.1,4.6c-0.5,0.7-1.4,1.4-2.5,1.7c-3,0.8-5.8,1.2-5.9,1.2c-0.5,0.1-0.9,0.4-1.2,0.8c-0.1,0.3-3.2,6.8,0.8,13.9
			c1.3,2.3,5.4,2.7,7.1,2.7c0.1,0,0.2,0,0.3,0c0.4,0,0.8,0,1.2,0c0.1,0.2,0.2,0.5,0.4,0.7c1.1,1.1,2.6,1.7,3.6,2
			c0.3,3.7,1.7,7,1.9,7.5c0.2,0.5,0.8,0.9,1.4,0.9h7.5c0.6,0,1.2-0.4,1.4-0.9c0.1-0.3,0.7-1.6,1.1-3.2c1.3,0.2,2.9,0.1,4.2,0
			c0.5,1.9,1.1,3.2,1.1,3.3c0.2,0.5,0.8,0.9,1.4,0.9H69c0.6,0,1.2-0.4,1.4-0.9c0.2-0.5,1.6-3.9,1.9-7.5c4-3.2,6.5-8,6.9-13
			c2.4-0.2,4.5-1.3,6-2.8c2,0.2,4.2-0.3,6.2-1.6C92,52.1,92.2,51.2,91.8,50.6z M65.5,27.4c3.8,0.2,6.7,3.5,6.4,7.3
			c-0.1,1.7-0.8,3.3-2.1,4.5c-2.7-1.6-5.8-2.4-9.2-2.4c-0.7,0-1.3,0-2,0.1c-0.2-0.4-0.3-0.8-0.4-1.2c-0.1-0.6-0.2-1.2-0.1-1.8
			C58.5,30,61.7,27.2,65.5,27.4z M69.9,67.9c-0.4,0.3-0.6,0.7-0.6,1.2c-0.1,2.5-0.9,5-1.3,6.3h-5.4c-0.3-0.7-0.7-1.9-0.9-3.2
			c-0.1-0.4-0.3-0.8-0.7-1c-0.4-0.2-0.8-0.3-1.2-0.2c-1.2,0.3-4.2,0.4-5.5,0c-0.4-0.1-0.8-0.1-1.2,0.1c-0.4,0.2-0.6,0.6-0.7,1
			c-0.3,1.3-0.7,2.5-0.9,3.2h-5.4c-0.5-1.4-1.3-4-1.3-6.7c0-0.8-0.6-1.4-1.3-1.5c-0.3,0-1.1-0.2-1.8-0.5c2-0.6,3.8-1.6,4.8-3.2
			c0.4-0.7,0.2-1.6-0.5-2.1c-0.7-0.4-1.6-0.2-2.1,0.5c-0.9,1.5-4,2.5-7.5,2.4c-2.8,0-4.3-0.8-4.5-1.1c-2.5-4.5-1.5-8.8-1-10.4
			c1.1-0.2,3.2-0.5,5.4-1.1c2.6-0.7,4.1-2.6,4.8-3.8c1.9,0.4,3.7,0.6,5,0.5c0.8-0.1,1.4-0.8,1.4-1.6c-0.1-0.8-0.8-1.5-1.6-1.4
			c-4.3,0.3-10.4-2.3-10.9-3.6c0.1-0.1,0.4-0.4,1.2-0.7c3.2-1.3,4.8-2.4,6-3.3c1.4-1,1.9-1.4,4.1-1.3c2.7,0.1,3.7,1.9,4.5,3.7
			c0.3,0.8,0.6,1.4,1.4,1.7c0.4,0.1,0.9,0.1,1.3-0.1c2.3-1.2,4.8-1.9,7.4-1.9c8.6,0,15.6,7,15.6,15.6C76.2,60.4,73.9,64.9,69.9,67.9
			z M84.1,50.9c-0.1-0.1-0.2-0.1-0.3-0.2c-1-0.5-1.4-1.2-1.4-1.6c0-0.6,0.4-1.5,1.1-1.5c0.4,0,1.2,0.1,1.2,1.4
			C84.6,49.7,84.4,50.3,84.1,50.9z"/>
	</g>
</g>
</svg>
