<svg xmlns="http://www.w3.org/2000/svg" viewBox="0 0 410 280" enable-background="new 0 0 410 280"><title>Consumer Trusted</title><path fill="#231F20" d="M401.1 188.4c0-7.1-4.1-13.2-10.1-16.1v-26.5l-9.9-.5h-1.2c-1.6 0-3.6.2-5.7.7h-30.2v3.1c-4.4-2.6-9.7-4-15.5-4-8.1 0-15.3 3-20.7 8-4.2-5.1-10.6-8-18.3-8-4.6 0-8.8 1-12.6 3.1-3.5-2-7.6-3.1-12-3.1-1.9 0-4.2.2-6.5.9h-20.7c19.9-12.6 33.1-34.7 33.1-59.9 0-11.4-2.7-22.2-7.5-31.7 2.7-2.9 5.6-5.9 8.6-8.9l.4-.4c1.5-2.2 1.8-4.6.7-6.7-1.4-2.6-4.5-4-9-4-3.8 0-8.2 1.1-12.6 3-12.9-13.6-31.2-22.2-51.4-22.2-39 0-70.8 31.8-70.8 70.8 0 25.3 13.3 47.5 33.3 60-4.2 1-7.9 2.9-10.9 5.5-4.2-4.1-9.9-6.5-16.6-6.5-1.9 0-4.1.2-6.5.9h-29.8v3.8c-5-3-10.9-4.7-17.2-4.7-8.3 0-15.7 2.9-21.3 7.6-5.3-4.5-12-6.8-19.7-6.8-17.7 0-31.5 13.7-31.5 31.3 0 11.1 5.5 20.6 14 26.1-3.2 4-5.1 9-5.1 14.5v23.7c0 12.9 10.5 23.3 23.3 23.3h327.8c12.9 0 23.3-10.5 23.3-23.3v-23.7c0-4.5-1.3-8.7-3.5-12.3 7.1-2.3 12.3-9 12.3-17"/><path fill="#fff" d="M134.8 155.4c-5.6 0-9.3 3.2-11.8 6.5v-5.6h-13.9v40h13.9v-21.6c0-4.4 2.5-6.7 5.8-6.7s5.6 2.4 5.6 6.7v21.6h13.9v-26.1c-.1-9.2-5.1-14.8-13.5-14.8m-53.3 0c-12.7 0-21.9 9.5-21.9 20.9v.1c0 11.4 9.1 20.8 21.8 20.8 12.7 0 21.9-9.5 21.9-20.9v-.2c-.1-11.3-9.2-20.7-21.8-20.7m8.2 21c0 4.8-3.2 8.9-8.3 8.9-4.9 0-8.4-4.1-8.4-9v-.2c0-4.8 3.2-8.9 8.3-8.9 4.9 0 8.4 4.1 8.4 9v.2zm-49.1 9.7c-4.7 0-7.9-3.9-7.9-9.1v-.1c0-4.9 3.3-8.9 7.7-8.9 3.4 0 5.5 1.6 7.4 4.2l9.4-7.1c-3.4-5.4-8.8-8.9-16.9-8.9-12.5 0-21.2 9.5-21.2 20.8v.2c0 11.3 8.8 20.8 20.7 20.8l2.7-.1.8-.1 1.7-.3 1.1-.2.8-.3c1.2-.4 2.3-.8 3.3-1.3l.3-.2c1-.5 1.9-1.1 2.7-1.8l.1-.1c.7-.5 1.3-1.2 1.9-1.8.1-.1.2-.3.4-.4.7-.8 1.3-1.6 1.9-2.5l-9.3-6.8c-2.1 2.5-4.3 4-7.6 4m306.3 3l-7.7-6.4c-2.8 2.8-5.5 4.1-8.8 4.1-4.3 0-7.5-2.2-8.6-6.6h26.5c.1-1 .1-2 .1-2.9 0-11.7-6.3-21.9-19.9-21.9-11.7 0-19.9 9.2-19.9 20.9v.1c0 12.4 8.8 20.8 21.2 20.8 7.8 0 13.3-3.3 17.1-8.1m-18.4-23.4c3.8 0 6.4 2.8 6.9 7.2h-13.7c.7-4.3 3.2-7.2 6.8-7.2m52.2 4.7v-14.8c-6.6-.3-10.2 3.2-12.5 8.7v-8h-13.9v40h13.9v-12.4c0-9.2 4.1-13.4 11.3-13.4h1.2zm-77.7 25.8v-26.2c0-9.3-5.1-14.6-13.5-14.6-5.8 0-9.8 2.5-13.2 6.5-2.1-4.1-6.1-6.5-11.4-6.5-5.5 0-9.2 3-11.8 6.4v-5.5h-13.9v40h13.9v-21.7c0-4.4 2.3-6.6 5.6-6.6s5.4 2.3 5.4 6.6v21.7h13.9v-21.7c0-4.4 2.4-6.6 5.7-6.6 3.3 0 5.4 2.3 5.4 6.6v21.7h13.9zm-71.2 0v-40h-13.9v21.6c0 4.4-2.5 6.7-5.8 6.7-3.4 0-5.6-2.4-5.6-6.7v-21.6h-13.9v26.1c0 9.1 5 14.7 13.4 14.7 5.6 0 9.3-3 11.8-6.3v5.5h14zm-58.6-25.3c-4.2-1.2-6.4-2-6.4-3.5v-.2c0-1.1 1.1-1.9 3.2-1.9 3.1 0 7.6 1.4 11.7 3.7l4.8-8.9c-4.5-3-10.5-4.7-16.3-4.7-9.1 0-15.9 4.7-15.9 13.2v.2c0 8 6.2 10.7 14 12.8 4.2 1.2 6.4 1.9 6.4 3.4v.2c0 1.4-1.1 2.1-3.5 2.1-4.1 0-9.1-1.6-13.6-4.6l-5.2 8.5c5.5 4 12.1 5.9 18.7 5.9 9.7 0 16.2-4.6 16.2-13.4v-.2c-.1-7.6-6.3-10.4-14.1-12.6M375.6 188.4c0 4.2 3.4 7.6 7.6 7.6 4.2 0 7.6-3.4 7.6-7.6 0-4.2-3.4-7.6-7.6-7.6-4.2 0-7.6 3.4-7.6 7.6"/><path fill="#45A7DE" d="M368.9 204.8h-327.8c-7.1 0-13 5.8-13 13v23.7c0 7.1 5.8 13 13 13h327.8c7.1 0 13-5.8 13-13v-23.7c-.1-7.2-5.9-13-13-13"/><path fill="#fff" d="M103.3 220.4h-9v-6.1h24.7v6.1h-9.1v23.7h-6.6z"/><g fill="#fff"><path d="M139.8 228.8c3.2 0 5-1.7 5-4.2v-.1c0-2.8-2-4.3-5.2-4.3h-6.5v8.6h6.7zm-13.2-14.5h13.6c3.8 0 6.7 1.1 8.7 3 1.7 1.7 2.6 4 2.6 6.8v.1c0 4.8-2.6 7.8-6.4 9.2l7.3 10.7h-7.7l-6.4-9.5h-5.2v9.5h-6.6v-29.8zM159.5 231.4v-17h6.6v16.9c0 4.9 2.4 7.4 6.4 7.4s6.4-2.4 6.4-7.2v-17.1h6.6v16.8c0 9-5.1 13.5-13.1 13.5-8-.1-12.9-4.6-12.9-13.3M192.7 239.8l3.9-4.6c2.7 2.2 5.5 3.6 8.9 3.6 2.7 0 4.3-1.1 4.3-2.8v-.1c0-1.7-1-2.5-6-3.8-6-1.5-9.9-3.2-9.9-9.1v-.1c0-5.4 4.3-9 10.4-9 4.3 0 8.1 1.4 11.1 3.8l-3.4 4.9c-2.6-1.8-5.2-2.9-7.8-2.9-2.5 0-3.8 1.2-3.8 2.6v.1c0 2 1.3 2.6 6.4 3.9 6.1 1.6 9.5 3.7 9.5 8.9v.1c0 5.9-4.5 9.2-11 9.2-4.5.1-9-1.5-12.6-4.7"/></g><path fill="#fff" d="M231.5 220.4h-9.1v-6.1h24.8v6.1h-9.1v23.7h-6.6zM254.7 214.3h22.6v5.9h-16v6h14v5.8h-14v6.3h16.2v5.8h-22.8zM292.4 220.2v18h5.1c5.4 0 9-3.6 9-8.9v-.1c0-5.3-3.6-9-9-9h-5.1zm-6.5-5.9h11.6c9.4 0 15.9 6.4 15.9 14.8v.1c0 8.4-6.5 14.9-15.9 14.9h-11.6v-29.8zM234.8 108.4c-7.3 10.7-19.8 17.7-33.9 17.7-22.6 0-40.9-18-40.9-40.2 0-22.2 18.3-40.2 40.9-40.2 10.1 0 19.3 3.6 26.4 9.6 4.3-4.7 9-9.3 13.6-13l1.1-.8c-9.7-9.9-23-16-41.1-16-36.1 0-61.3 27.6-61.3 60.2v.4c0 32.7 25.3 60 59.8 60 25.1 0 40.3-10.7 50.9-26.5l-15.5-11.2z"/><path fill="#45A7DE" d="M241.9 41.6l-1.1.8c-4.6 3.7-9.3 8.2-13.6 13-3.4 3.7-6.6 7.6-9.5 11.2-7.2 9.1-12.2 16.6-12.2 16.6l-13.7-14.7c-1.4-.8-5.1.2-9.1 2-7.4 3.3-16.1 9.3-14.3 11.4l10.8 10.5 20.4 19.7.6.6c7.7 6.5 14 3.2 20.3-5.4 1.2-1.6 2.4-3.8 3.8-6.4 3.3-6.2 7.6-15.2 15.5-26.7 6.8-9.9 16.2-21.7 29.7-35.2 4.7-6.7-10.4-10.3-27.6 2.6"/></svg>