<svg version="1.1" id="Layer_1" xmlns="http://www.w3.org/2000/svg" xmlns:xlink="http://www.w3.org/1999/xlink" x="0px" y="0px"
	 viewBox="0 0 410 280" enable-background="new 0 0 410 280" xml:space="preserve">
<g>
	<g>
		<path fill="#231F20" d="M401.1,188.4c0-7.1-4.1-13.2-10.1-16.1v-26.5l-9.9-0.5c-0.4,0-0.8,0-1.2,0c-1.6,0-3.6,0.2-5.7,0.7H344v3.1
			c-4.4-2.6-9.7-4-15.5-4c-8.1,0-15.3,3-20.7,8c-4.2-5.1-10.6-8-18.3-8c-4.6,0-8.8,1-12.6,3.1c-3.5-2-7.6-3.1-12-3.1
			c-1.9,0-4.2,0.2-6.5,0.9h-20.7c19.9-12.6,33.1-34.7,33.1-59.9c0-11.4-2.7-22.2-7.5-31.7c2.7-2.9,5.6-5.9,8.6-8.9l0.4-0.4
			c1.5-2.2,1.8-4.6,0.7-6.7c-1.4-2.6-4.5-4-9-4c-3.8,0-8.2,1.1-12.6,3c-12.9-13.6-31.2-22.2-51.4-22.2c-39,0-70.8,31.8-70.8,70.8
			c0,25.3,13.3,47.5,33.3,60c-4.2,1-7.9,2.9-10.9,5.5c-4.2-4.1-9.9-6.5-16.6-6.5c-1.9,0-4.1,0.2-6.5,0.9H98.7v3.8
			c-5-3-10.9-4.7-17.2-4.7c-8.3,0-15.7,2.9-21.3,7.6c-5.3-4.5-12-6.8-19.7-6.8c-17.7,0-31.5,13.7-31.5,31.3c0,11.1,5.5,20.6,14,26.1
			c-3.2,4-5.1,9-5.1,14.5v23.7c0,12.9,10.5,23.3,23.3,23.3l65.5,0l262.3,0c12.9,0,23.3-10.5,23.3-23.3v-23.7c0-4.5-1.3-8.7-3.5-12.3
			C395.9,203.1,401.1,196.4,401.1,188.4"/>
		<path fill="#FFFFFF" d="M134.8,155.4c-5.6,0-9.3,3.2-11.8,6.5v-5.6h-13.9v40h13.9v-21.6c0-4.4,2.5-6.7,5.8-6.7
			c3.3,0,5.6,2.4,5.6,6.7v21.6h13.9v-26.1C148.2,161,143.2,155.4,134.8,155.4 M81.5,155.4c-12.7,0-21.9,9.5-21.9,20.9v0.1
			c0,11.4,9.1,20.8,21.8,20.8c12.7,0,21.9-9.5,21.9-20.9v-0.2C103.2,164.8,94.1,155.4,81.5,155.4 M89.7,176.4c0,4.8-3.2,8.9-8.3,8.9
			c-4.9,0-8.4-4.1-8.4-9v-0.2c0-4.8,3.2-8.9,8.3-8.9c4.9,0,8.4,4.1,8.4,9V176.4z M40.6,186.1c-4.7,0-7.9-3.9-7.9-9.1v-0.1
			c0-4.9,3.3-8.9,7.7-8.9c3.4,0,5.5,1.6,7.4,4.2l9.4-7.1c-3.4-5.4-8.8-8.9-16.9-8.9c-12.5,0-21.2,9.5-21.2,20.8v0.2
			c0,11.3,8.8,20.8,20.7,20.8c0.9,0,1.8-0.1,2.7-0.1c0.3,0,0.5-0.1,0.8-0.1c0.6-0.1,1.1-0.2,1.7-0.3c0.4-0.1,0.7-0.1,1.1-0.2
			c0.3-0.1,0.5-0.2,0.8-0.3c1.2-0.4,2.3-0.8,3.3-1.3c0.1-0.1,0.2-0.1,0.3-0.2c1-0.5,1.9-1.1,2.7-1.8c0,0,0.1-0.1,0.1-0.1
			c0.7-0.5,1.3-1.2,1.9-1.8c0.1-0.1,0.2-0.3,0.4-0.4c0.7-0.8,1.3-1.6,1.9-2.5l-9.3-6.8C46.1,184.6,43.9,186.1,40.6,186.1
			 M346.9,189.1l-7.7-6.4c-2.8,2.8-5.5,4.1-8.8,4.1c-4.3,0-7.5-2.2-8.6-6.6h26.5c0.1-1,0.1-2,0.1-2.9c0-11.7-6.3-21.9-19.9-21.9
			c-11.7,0-19.9,9.2-19.9,20.9v0.1c0,12.4,8.8,20.8,21.2,20.8C337.6,197.2,343.1,193.9,346.9,189.1 M328.5,165.7
			c3.8,0,6.4,2.8,6.9,7.2h-13.7C322.4,168.6,324.9,165.7,328.5,165.7 M380.7,170.4v-14.8c-6.6-0.3-10.2,3.2-12.5,8.7v-8h-13.9v40
			h13.9v-12.4c0-9.2,4.1-13.4,11.3-13.4H380.7z M303,196.2V170c0-9.3-5.1-14.6-13.5-14.6c-5.8,0-9.8,2.5-13.2,6.5
			c-2.1-4.1-6.1-6.5-11.4-6.5c-5.5,0-9.2,3-11.8,6.4v-5.5h-13.9v40h13.9v-21.7c0-4.4,2.3-6.6,5.6-6.6c3.3,0,5.4,2.3,5.4,6.6v21.7
			H278v-21.7c0-4.4,2.4-6.6,5.7-6.6c3.3,0,5.4,2.3,5.4,6.6v21.7H303z M231.8,196.2v-40h-13.9v21.6c0,4.4-2.5,6.7-5.8,6.7
			c-3.4,0-5.6-2.4-5.6-6.7v-21.6h-13.9v26.1c0,9.1,5,14.7,13.4,14.7c5.6,0,9.3-3,11.8-6.3v5.5H231.8z M173.2,170.9
			c-4.2-1.2-6.4-2-6.4-3.5v-0.2c0-1.1,1.1-1.9,3.2-1.9c3.1,0,7.6,1.4,11.7,3.7l4.8-8.9c-4.5-3-10.5-4.7-16.3-4.7
			c-9.1,0-15.9,4.7-15.9,13.2v0.2c0,8,6.2,10.7,14,12.8c4.2,1.2,6.4,1.9,6.4,3.4v0.2c0,1.4-1.1,2.1-3.5,2.1c-4.1,0-9.1-1.6-13.6-4.6
			l-5.2,8.5c5.5,4,12.1,5.9,18.7,5.9c9.7,0,16.2-4.6,16.2-13.4v-0.2C187.2,175.9,181,173.1,173.2,170.9"/>
		<path fill="#FFFFFF" d="M375.6,188.4c0,4.2,3.4,7.6,7.6,7.6c4.2,0,7.6-3.4,7.6-7.6c0-4.2-3.4-7.6-7.6-7.6
			C379,180.8,375.6,184.2,375.6,188.4"/>
		<path fill="#45A7DE" d="M368.9,204.8l-79.3,0v0l-248.5,0c-7.1,0-13,5.8-13,13v23.7c0,7.1,5.8,13,13,13l65.5,0l262.3,0
			c7.1,0,13-5.8,13-13v-23.7C381.8,210.6,376,204.8,368.9,204.8"/>
	</g>
	<polygon fill="#FFFFFF" points="103.3,220.4 94.3,220.4 94.3,214.3 119,214.3 119,220.4 109.9,220.4 109.9,244.1 103.3,244.1 	"/>
	<g>
		<path fill="#FFFFFF" d="M139.8,228.8c3.2,0,5-1.7,5-4.2v-0.1c0-2.8-2-4.3-5.2-4.3h-6.5v8.6H139.8z M126.6,214.3h13.6
			c3.8,0,6.7,1.1,8.7,3c1.7,1.7,2.6,4,2.6,6.8v0.1c0,4.8-2.6,7.8-6.4,9.2l7.3,10.7h-7.7l-6.4-9.5h-5.2v9.5h-6.6V214.3z"/>
		<path fill="#FFFFFF" d="M159.5,231.4v-17h6.6v16.9c0,4.9,2.4,7.4,6.4,7.4c4,0,6.4-2.4,6.4-7.2v-17.1h6.6v16.8
			c0,9-5.1,13.5-13.1,13.5C164.4,244.6,159.5,240.1,159.5,231.4"/>
		<path fill="#FFFFFF" d="M192.7,239.8l3.9-4.6c2.7,2.2,5.5,3.6,8.9,3.6c2.7,0,4.3-1.1,4.3-2.8v-0.1c0-1.7-1-2.5-6-3.8
			c-6-1.5-9.9-3.2-9.9-9.1v-0.1c0-5.4,4.3-9,10.4-9c4.3,0,8.1,1.4,11.1,3.8l-3.4,4.9c-2.6-1.8-5.2-2.9-7.8-2.9
			c-2.5,0-3.8,1.2-3.8,2.6v0.1c0,2,1.3,2.6,6.4,3.9c6.1,1.6,9.5,3.7,9.5,8.9v0.1c0,5.9-4.5,9.2-11,9.2
			C200.8,244.6,196.3,243,192.7,239.8"/>
	</g>
	<polygon fill="#FFFFFF" points="231.5,220.4 222.4,220.4 222.4,214.3 247.2,214.3 247.2,220.4 238.1,220.4 238.1,244.1 
		231.5,244.1 	"/>
	<polygon fill="#FFFFFF" points="254.7,214.3 277.3,214.3 277.3,220.2 261.3,220.2 261.3,226.2 275.3,226.2 275.3,232 261.3,232 
		261.3,238.3 277.5,238.3 277.5,244.1 254.7,244.1 	"/>
	<g>
		<path fill="#FFFFFF" d="M292.4,220.2v18h5.1c5.4,0,9-3.6,9-8.9v-0.1c0-5.3-3.6-9-9-9H292.4z M285.9,214.3h11.6
			c9.4,0,15.9,6.4,15.9,14.8v0.1c0,8.4-6.5,14.9-15.9,14.9h-11.6V214.3z"/>
		<path fill="#FFFFFF" d="M234.8,108.4c-7.3,10.7-19.8,17.7-33.9,17.7c-22.6,0-40.9-18-40.9-40.2c0-22.2,18.3-40.2,40.9-40.2
			c10.1,0,19.3,3.6,26.4,9.6c4.3-4.7,9-9.3,13.6-13c0.4-0.3,0.7-0.5,1.1-0.8c-9.7-9.9-23-16-41.1-16c-36.1,0-61.3,27.6-61.3,60.2
			v0.4c0,32.7,25.3,60,59.8,60c25.1,0,40.3-10.7,50.9-26.5L234.8,108.4z"/>
		<path fill="#45A7DE" d="M241.9,41.6c-0.4,0.3-0.7,0.5-1.1,0.8c-4.6,3.7-9.3,8.2-13.6,13c-3.4,3.7-6.6,7.6-9.5,11.2
			c-7.2,9.1-12.2,16.6-12.2,16.6l-13.7-14.7c-1.4-0.8-5.1,0.2-9.1,2c-7.4,3.3-16.1,9.3-14.3,11.4l10.8,10.5l20.4,19.7l0.6,0.6
			c7.7,6.5,14,3.2,20.3-5.4c1.2-1.6,2.4-3.8,3.8-6.4c3.3-6.2,7.6-15.2,15.5-26.7c6.8-9.9,16.2-21.7,29.7-35.2
			C274.2,32.3,259.1,28.7,241.9,41.6"/>
	</g>
</g>
</svg>
