<svg xmlns="http://www.w3.org/2000/svg" viewBox="0 0 185 40" enable-background="new 0 0 185 40">
<title>Play</title>
<path d="M146.8,2.7l27.8,16c0.7,0.4,0.7,1.4,0,1.8l-27.8,16c-0.7,0.4-1.6-0.1-1.6-0.9V3.6C145.2,2.8,146.1,2.3,146.8,2.7z"/>
<g>
  <path d="M9.1,5.7c0-1.1,0.9-2,2-2h8.6c7.9,0,12.4,3.7,12.4,10.2c0,6.7-4.4,10.4-12.8,10.4h-6.7v11.7c0,0.9-0.5,1.6-1.6,1.6h-0.5c-1,0-1.5-0.5-1.5-1.6V5.7z M19.7,21.1c5.9,0,8.8-2.5,8.8-7.1c0-4.7-3-7.1-8.7-7.1h-7.1v14.3H19.7z"/>
  <path d="M37.9,5.1c0-1.1,0.5-1.6,1.5-1.6h0.5c1,0,1.6,0.5,1.6,1.6v29h16.2c1,0,1.6,0.5,1.6,1.5v0.3c0,0.9-0.6,1.5-1.6,1.5H39.9c-1.1,0-2-0.9-2-2V5.1z"/>
  <path d="M75.2,4.7c0.4-0.9,1-1.3,2.7-1.3s2.3,0.4,2.7,1.3l12.3,31.8c0.1,0.3-0.9,1-2,1c-0.8,0-1.7-0.4-2.1-1.6l-3.7-9.6H70.5l-3.6,9.6c-0.5,1.2-1.2,1.6-2,1.6c-1,0-2.1-0.8-2-1L75.2,4.7z M83.8,23.2L77.7,7.4l-6.1,15.8H83.8z"/>
  <path d="M106.2,23.3L94.2,5c-0.2-0.3,0.6-1.5,2.1-1.5c0.7,0,1.4,0.5,1.8,1.2l9.9,15.4l9.8-15.4c0.6-0.9,1.2-1.2,1.8-1.2c1.5,0,2.2,1.2,2.1,1.5l-12,18.4v12.6c0,1.1-0.5,1.6-1.6,1.6h-0.5c-1,0-1.5-0.5-1.5-1.6V23.3z"/>
</g>
</svg>