<svg xmlns="http://www.w3.org/2000/svg" viewBox="0 0 360 108" enable-background="new 0 0 360 108"><title>Download on the App Store</title><g><path d="M346.661 2c6.263 0 11.339 5.076 11.339 11.339v81.323c0 6.262-5.076 11.339-11.339 11.339h-333.322c-6.263-.001-11.339-5.078-11.339-11.34v-81.322c0-6.263 5.076-11.339 11.339-11.339h333.322" fill="#A5A5A5"/><path d="M346.661 106h-333.322c-6.263 0-11.339-5.077-11.339-11.339v-81.322c0-6.263 5.076-11.339 11.339-11.339h333.323c6.262 0 11.338 5.076 11.338 11.339v81.323c0 6.261-5.076 11.338-11.339 11.338z"/><path d="M346.661 2c6.263 0 11.339 5.076 11.339 11.339v81.323c0 6.262-5.076 11.339-11.339 11.339h-333.322c-6.263-.001-11.339-5.078-11.339-11.34v-81.322c0-6.263 5.076-11.339 11.339-11.339h333.322m0-2h-333.322c-7.355 0-13.339 5.984-13.339 13.339v81.323c0 7.354 5.984 13.338 13.339 13.338h333.323c7.355 0 13.339-5.984 13.339-13.339v-81.322c-.001-7.355-5.985-13.339-13.34-13.339z" fill="#A5A5A5"/><g fill="#fff"><path d="M79.338 51.22c-.079-8.686 7.112-12.913 7.441-13.111-4.072-5.938-10.385-6.75-12.603-6.813-5.303-.557-10.443 3.173-13.145 3.173-2.754 0-6.915-3.118-11.395-3.026-5.767.089-11.164 3.428-14.124 8.614-6.107 10.573-1.552 26.113 4.298 34.659 2.927 4.185 6.348 8.86 10.823 8.694 4.38-.182 6.016-2.793 11.303-2.793 5.238 0 6.773 2.793 11.339 2.688 4.7-.076 7.661-4.204 10.485-8.428 3.382-4.798 4.741-9.523 4.795-9.765-.108-.037-9.127-3.477-9.217-13.892zM70.713 25.675c2.355-2.947 3.967-6.954 3.519-11.022-3.41.151-7.674 2.357-10.129 5.241-2.172 2.539-4.113 6.702-3.612 10.614 3.831.284 7.763-1.932 10.222-4.833z"/></g><g fill="#fff"><path d="M142.725 82.81h-6.12l-3.353-10.537h-11.654l-3.194 10.537h-5.959l11.547-35.869h7.132l11.601 35.869zm-10.484-14.956l-3.034-9.365c-.32-.958-.923-3.211-1.81-6.758h-.107c-.354 1.527-.922 3.779-1.703 6.758l-2.98 9.365h9.634zM172.42 69.56c0 4.398-1.188 7.876-3.565 10.429-2.13 2.272-4.772 3.406-7.929 3.406-3.406 0-5.854-1.224-7.344-3.672h-.107v13.624h-5.747v-27.885c0-2.767-.073-5.604-.213-8.515h5.055l.32 4.098h.107c1.916-3.088 4.825-4.63 8.727-4.63 3.052 0 5.597 1.206 7.637 3.617 2.039 2.416 3.059 5.59 3.059 9.528zm-5.854.211c0-2.516-.567-4.593-1.703-6.225-1.242-1.703-2.91-2.556-5.003-2.556-1.419 0-2.706.474-3.857 1.411-1.154.943-1.908 2.174-2.262 3.701-.178.711-.266 1.295-.266 1.753v4.311c0 1.882.577 3.469 1.729 4.764 1.153 1.295 2.652 1.943 4.497 1.943 2.164 0 3.85-.834 5.055-2.501 1.206-1.669 1.81-3.869 1.81-6.601zM202.169 69.56c0 4.398-1.19 7.876-3.569 10.429-2.127 2.272-4.769 3.406-7.928 3.406-3.406 0-5.854-1.224-7.342-3.672h-.105v13.624h-5.747v-27.885c0-2.767-.073-5.604-.213-8.515h5.055l.32 4.098h.107c1.915-3.088 4.821-4.63 8.727-4.63 3.048 0 5.596 1.206 7.639 3.617 2.035 2.416 3.056 5.59 3.056 9.528zm-5.854.211c0-2.516-.568-4.593-1.706-6.225-1.242-1.703-2.906-2.556-5.001-2.556-1.422 0-2.706.474-3.859 1.411-1.153.943-1.904 2.174-2.26 3.701-.176.711-.266 1.295-.266 1.753v4.311c0 1.882.577 3.469 1.725 4.764 1.153 1.295 2.653 1.943 4.501 1.943 2.164 0 3.848-.834 5.054-2.501 1.207-1.669 1.812-3.869 1.812-6.601zM235.429 72.753c0 3.051-1.058 5.533-3.185 7.449-2.337 2.095-5.591 3.14-9.771 3.14-3.859 0-6.954-.745-9.297-2.235l1.332-4.791c2.522 1.527 5.291 2.29 8.307 2.29 2.164 0 3.848-.489 5.059-1.466 1.206-.977 1.806-2.285 1.806-3.919 0-1.455-.495-2.682-1.49-3.677-.99-.995-2.643-1.919-4.948-2.774-6.28-2.343-9.418-5.772-9.418-10.287 0-2.948 1.1-5.366 3.301-7.249 2.195-1.884 5.122-2.826 8.781-2.826 3.264 0 5.975.569 8.139 1.703l-1.437 4.684c-2.022-1.099-4.306-1.65-6.865-1.65-2.022 0-3.601.497-4.732 1.491-.958.887-1.437 1.968-1.437 3.247 0 1.419.547 2.59 1.648 3.511.958.853 2.695 1.774 5.217 2.769 3.085 1.242 5.354 2.695 6.812 4.361 1.452 1.67 2.178 3.747 2.178 6.229zM254.428 61.258h-6.333v12.558c0 3.193 1.116 4.79 3.353 4.79 1.027 0 1.879-.089 2.553-.266l.158 4.364c-1.132.424-2.622.637-4.469.637-2.269 0-4.043-.692-5.322-2.074-1.274-1.384-1.916-3.709-1.916-6.973v-13.036h-3.775v-4.311h3.775v-4.737l5.644-1.703v6.44h6.333v4.311zM283.009 69.665c0 3.975-1.137 7.238-3.406 9.792-2.379 2.627-5.538 3.938-9.476 3.938-3.796 0-6.817-1.258-9.07-3.777s-3.38-5.696-3.38-9.526c0-4.009 1.158-7.291 3.485-9.845 2.322-2.556 5.454-3.833 9.392-3.833 3.796 0 6.849 1.258 9.155 3.78 2.199 2.449 3.3 5.605 3.3 9.471zm-5.965.187c0-2.385-.51-4.43-1.542-6.138-1.206-2.064-2.927-3.095-5.159-3.095-2.311 0-4.064 1.032-5.27 3.095-1.032 1.708-1.543 3.788-1.543 6.246 0 2.385.511 4.43 1.543 6.136 1.242 2.064 2.98 3.095 5.217 3.095 2.195 0 3.917-1.05 5.159-3.148 1.063-1.742 1.595-3.809 1.595-6.191zM301.687 62c-.568-.105-1.174-.158-1.811-.158-2.022 0-3.585.763-4.685 2.29-.958 1.348-1.437 3.051-1.437 5.107v13.571h-5.743l.053-17.72c0-2.982-.074-5.696-.216-8.144h5.007l.211 4.948h.158c.605-1.7 1.563-3.069 2.874-4.096 1.279-.924 2.664-1.385 4.154-1.385.532 0 1.011.037 1.437.105v5.482zM327.387 68.655c0 1.029-.068 1.898-.211 2.606h-17.241c.069 2.556.9 4.509 2.501 5.856 1.453 1.206 3.332 1.808 5.638 1.808 2.553 0 4.88-.408 6.975-1.224l.9 3.99c-2.448 1.066-5.338 1.598-8.67 1.598-4.011 0-7.16-1.179-9.45-3.54-2.285-2.358-3.432-5.525-3.432-9.499 0-3.901 1.063-7.149 3.195-9.739 2.232-2.767 5.249-4.148 9.044-4.148 3.727 0 6.549 1.382 8.465 4.148 1.523 2.2 2.286 4.917 2.286 8.144zm-5.48-1.49c.037-1.703-.337-3.174-1.116-4.417-.995-1.598-2.522-2.395-4.58-2.395-1.879 0-3.406.779-4.575 2.343-.958 1.243-1.527 2.732-1.701 4.469h11.972z"/></g><g fill="#fff"><path d="M130.341 24.874c0 3.173-.95 5.561-2.851 7.165-1.761 1.481-4.262 2.222-7.502 2.222-1.606 0-2.982-.07-4.133-.209v-17.336c1.5-.243 3.119-.366 4.864-.366 3.085 0 5.412.671 6.98 2.014 1.76 1.516 2.642 3.686 2.642 6.51zm-2.98.079c0-2.057-.545-3.634-1.634-4.733-1.09-1.098-2.68-1.646-4.772-1.646-.89 0-1.648.06-2.274.183v13.176c.347.053.985.079 1.908.079 2.161 0 3.83-.601 5.007-1.804 1.176-1.203 1.765-2.955 1.765-5.255zM146.131 27.645c0 1.953-.558 3.556-1.674 4.81-1.169 1.291-2.719 1.936-4.654 1.936-1.866 0-3.351-.619-4.459-1.857-1.105-1.237-1.658-2.798-1.658-4.68 0-1.969.568-3.581 1.711-4.837 1.142-1.255 2.679-1.882 4.614-1.882 1.866 0 3.364.619 4.498 1.855 1.08 1.204 1.622 2.756 1.622 4.655zm-2.929.092c0-1.171-.253-2.177-.758-3.015-.592-1.015-1.437-1.521-2.535-1.521-1.134 0-1.998.507-2.59 1.521-.505.839-.758 1.861-.758 3.067 0 1.173.253 2.177.758 3.017.61 1.013 1.463 1.52 2.564 1.52 1.079 0 1.924-.516 2.535-1.546.523-.858.784-1.871.784-3.043zM167.307 21.397l-3.975 12.707h-2.587l-1.648-5.517c-.418-1.377-.758-2.745-1.021-4.105h-.05c-.245 1.395-.584 2.764-1.021 4.105l-1.75 5.517h-2.616l-3.739-12.707h2.903l1.437 6.039c.347 1.429.634 2.789.863 4.079h.05c.211-1.062.558-2.414 1.047-4.052l1.803-6.066h2.3l1.727 5.935c.419 1.446.758 2.841 1.019 4.183h.079c.192-1.307.479-2.701.864-4.183l1.542-5.935h2.773zM181.95 34.103h-2.824v-7.277c0-2.243-.853-3.364-2.561-3.364-.837 0-1.516.308-2.04.925-.521.617-.784 1.344-.784 2.178v7.537h-2.824v-9.072c0-1.116-.034-2.327-.103-3.635h2.482l.132 1.986h.079c.329-.616.819-1.128 1.464-1.533.766-.475 1.622-.713 2.561-.713 1.187 0 2.172.383 2.956 1.15.977.941 1.464 2.344 1.464 4.209v7.609zM189.74 34.103h-2.822v-18.537h2.822v18.537zM206.37 27.645c0 1.953-.558 3.556-1.674 4.81-1.169 1.291-2.721 1.936-4.654 1.936-1.869 0-3.354-.619-4.459-1.857-1.106-1.237-1.658-2.798-1.658-4.68 0-1.969.569-3.581 1.711-4.837 1.142-1.255 2.679-1.882 4.611-1.882 1.869 0 3.364.619 4.501 1.855 1.08 1.204 1.622 2.756 1.622 4.655zm-2.932.092c0-1.171-.253-2.177-.758-3.015-.59-1.015-1.437-1.521-2.532-1.521-1.137 0-2 .507-2.59 1.521-.505.839-.758 1.861-.758 3.067 0 1.173.253 2.177.758 3.017.61 1.013 1.464 1.52 2.564 1.52 1.079 0 1.921-.516 2.532-1.546.526-.858.784-1.871.784-3.043zM220.042 34.103h-2.537l-.211-1.464h-.079c-.869 1.167-2.106 1.752-3.712 1.752-1.2 0-2.169-.384-2.901-1.151-.663-.696-.995-1.56-.995-2.588 0-1.552.647-2.736 1.948-3.556 1.301-.819 3.127-1.22 5.48-1.203v-.236c0-1.673-.879-2.51-2.637-2.51-1.253 0-2.358.315-3.311.941l-.574-1.856c1.179-.732 2.637-1.098 4.359-1.098 3.322 0 4.985 1.752 4.985 5.255v4.68c0 1.273.064 2.285.185 3.034zm-2.933-4.366v-1.96c-3.117-.053-4.675.802-4.675 2.561 0 .663.179 1.16.542 1.491.363.33.826.496 1.379.496.621 0 1.2-.196 1.727-.588.532-.392.858-.892.979-1.503.032-.14.048-.305.048-.497zM236.093 34.103h-2.506l-.132-2.04h-.079c-.8 1.552-2.164 2.328-4.08 2.328-1.532 0-2.806-.601-3.817-1.804-1.011-1.203-1.516-2.762-1.516-4.68 0-2.057.547-3.722 1.648-4.993 1.063-1.186 2.369-1.778 3.922-1.778 1.706 0 2.9.575 3.58 1.725h.053v-7.295h2.827v15.113c-.001 1.237.031 2.378.1 3.424zm-2.927-5.359v-2.119c0-.366-.026-.662-.079-.888-.158-.679-.5-1.25-1.021-1.712-.526-.462-1.158-.694-1.89-.694-1.053 0-1.879.419-2.485 1.255-.6.837-.906 1.909-.906 3.215 0 1.255.29 2.276.869 3.06.611.836 1.437 1.254 2.469 1.254.927 0 1.669-.349 2.232-1.045.542-.644.811-1.42.811-2.326zM260.251 27.645c0 1.953-.558 3.556-1.674 4.81-1.169 1.291-2.717 1.936-4.654 1.936-1.864 0-3.348-.619-4.459-1.857-1.106-1.237-1.658-2.798-1.658-4.68 0-1.969.568-3.581 1.711-4.837 1.143-1.255 2.68-1.882 4.617-1.882 1.864 0 3.364.619 4.496 1.855 1.079 1.204 1.621 2.756 1.621 4.655zm-2.927.092c0-1.171-.253-2.177-.758-3.015-.595-1.015-1.437-1.521-2.537-1.521-1.132 0-1.995.507-2.59 1.521-.505.839-.758 1.861-.758 3.067 0 1.173.253 2.177.758 3.017.611 1.013 1.464 1.52 2.564 1.52 1.079 0 1.927-.516 2.537-1.546.521-.858.784-1.871.784-3.043zM275.438 34.103h-2.822v-7.277c0-2.243-.853-3.364-2.564-3.364-.837 0-1.516.308-2.037.925s-.784 1.344-.784 2.178v7.537h-2.827v-9.072c0-1.116-.032-2.327-.1-3.635h2.479l.132 1.986h.079c.332-.616.821-1.128 1.464-1.533.768-.475 1.621-.713 2.564-.713 1.185 0 2.169.383 2.953 1.15.979.941 1.464 2.344 1.464 4.209v7.609zM294.448 23.514h-3.111v6.171c0 1.569.553 2.353 1.648 2.353.505 0 .926-.043 1.258-.132l.074 2.144c-.558.209-1.29.315-2.195.315-1.116 0-1.985-.341-2.611-1.02-.632-.681-.942-1.822-.942-3.425v-6.407h-1.858v-2.117h1.858v-2.326l2.769-.836v3.163h3.111v2.117zM309.404 34.103h-2.827v-7.224c0-2.278-.853-3.416-2.558-3.416-1.311 0-2.206.661-2.695 1.982-.084.278-.132.617-.132 1.017v7.641h-2.822v-18.537h2.822v7.658h.053c.89-1.392 2.164-2.089 3.817-2.089 1.169 0 2.137.383 2.906 1.15.958.958 1.437 2.379 1.437 4.262v7.556zM324.829 27.149c0 .505-.037.932-.105 1.281h-8.47c.037 1.255.442 2.214 1.227 2.876.716.594 1.642.89 2.774.89 1.253 0 2.395-.2 3.427-.601l.442 1.961c-1.206.522-2.621.784-4.264.784-1.969 0-3.517-.579-4.638-1.739-1.127-1.16-1.685-2.715-1.685-4.667 0-1.917.521-3.513 1.569-4.785 1.095-1.36 2.574-2.039 4.443-2.039 1.827 0 3.217.679 4.154 2.039.752 1.081 1.126 2.414 1.126 4zm-2.696-.732c.021-.837-.163-1.561-.547-2.17-.49-.784-1.237-1.177-2.248-1.177-.921 0-1.674.383-2.248 1.15-.468.611-.747 1.342-.837 2.196h5.88z"/></g></g></svg>