<svg xmlns="http://www.w3.org/2000/svg" viewBox="0 0 360 108" enable-background="new 0 0 360 108"><title>Get it on Google Play</title><g><path d="M13.339 106.999c-6.804 0-12.339-5.535-12.339-12.339v-81.322c0-6.804 5.535-12.339 12.339-12.339h333.321c6.804 0 12.339 5.535 12.339 12.339v81.322c0 6.804-5.535 12.339-12.339 12.339h-333.321z"/><path d="M346.661 1.999c6.262 0 11.339 5.076 11.339 11.339v81.323c0 6.262-5.076 11.339-11.339 11.339h-333.322c-6.263-.001-11.339-5.076-11.339-11.34v-81.322c0-6.262 5.076-11.339 11.339-11.339h333.322m0-2h-333.322c-7.355 0-13.339 5.984-13.339 13.339v81.323c0 7.355 5.984 13.339 13.339 13.339h333.323c7.355 0 13.339-5.984 13.339-13.339v-81.323c-.001-7.355-5.985-13.339-13.34-13.339z" fill="#A5A5A5"/><g fill="#fff"><path d="M241.936 72.952l-2.546 2.401c-.587.323-1.172.699-1.756.966-1.768.802-3.565 1.004-5.164 1.004-1.7 0-4.364-.109-7.083-2.076-3.778-2.661-5.428-7.233-5.428-11.219 0-8.251 6.716-12.297 12.194-12.297 1.916 0 3.882.479 5.481 1.491 2.658 1.757 3.346 4.042 3.728 5.267l-12.511 5.054-4.096.319c1.326 6.764 5.903 10.698 10.96 10.698 2.526 0 4.401-.824 6.121-1.674.001-.001.346-.181.1.066zm-7.548-13.457c1.016-.37 1.545-.688 1.545-1.429 0-2.125-2.406-4.58-5.275-4.58-2.127 0-6.117 1.655-6.117 7.404 0 .898.106 1.853.16 2.809l9.687-4.204zM215.779 72.539c0 2.068.37 2.39 2.118 2.552l2.72.262-1.968 1.172h-9.379c1.23-1.595 1.441-1.754 1.441-2.818v-1.188l-.02-31.639h-4.141l3.985-1.92h7.611c-1.649.955-2.142 1.537-2.355 3.399l-.012 30.18zM201.235 54.342c1.221 1.004 3.771 3.135 3.771 7.179 0 3.941-2.222 5.798-4.463 7.557-.687.691-1.491 1.443-1.491 2.604 0 1.177.804 1.816 1.383 2.291l1.922 1.485c2.338 1.973 4.468 3.782 4.468 7.455 0 5.007-4.845 10.053-13.999 10.053-7.711 0-11.439-3.671-11.439-7.609 0-1.917.953-4.631 4.101-6.49 3.299-2.017 7.769-2.287 10.162-2.444-.747-.966-1.6-1.976-1.6-3.625 0-.903.271-1.44.533-2.074-.582.055-1.169.112-1.702.112-5.644 0-8.835-4.21-8.835-8.361 0-2.447 1.116-5.162 3.41-7.13 3.034-2.498 6.651-2.929 9.527-2.929h10.966l-3.41 1.925-3.304.001zm-3.771 23.624c-.436-.057-.697-.057-1.224-.057-.482 0-3.357.105-5.584.852-1.178.431-4.583 1.703-4.583 5.484 0 3.771 3.676 6.491 9.363 6.491 5.108 0 7.822-2.449 7.822-5.746-.001-2.714-1.756-4.146-5.794-7.024zm1.53-10.112c1.231-1.228 1.337-2.924 1.337-3.889 0-3.827-2.282-9.788-6.705-9.788-1.38 0-2.875.693-3.724 1.763-.899 1.109-1.169 2.547-1.169 3.93 0 3.563 2.077 9.474 6.65 9.474 1.334.001 2.769-.647 3.611-1.49zM168.242 77.213c-8.459 0-12.985-6.588-12.985-12.551 0-6.969 5.69-12.931 13.783-12.931 7.823 0 12.724 6.124 12.724 12.556-.001 6.279-4.844 12.926-13.522 12.926zm6.654-4.306c1.287-1.703 1.599-3.829 1.599-5.901 0-4.686-2.233-13.625-8.832-13.625-1.756 0-3.524.685-4.797 1.806-2.079 1.862-2.449 4.201-2.449 6.497 0 5.257 2.598 13.929 9.048 13.929 2.082.001 4.206-1.006 5.431-2.706zM139.921 77.213c-8.461 0-12.979-6.588-12.979-12.551 0-6.969 5.692-12.931 13.782-12.931 7.819 0 12.713 6.124 12.713 12.556-.001 6.279-4.836 12.926-13.516 12.926zm6.656-4.306c1.277-1.703 1.595-3.829 1.595-5.901 0-4.686-2.239-13.625-8.832-13.625-1.762 0-3.51.685-4.788 1.806-2.082 1.862-2.45 4.201-2.45 6.497 0 5.257 2.609 13.929 9.048 13.929 2.078.001 4.198-1.006 5.427-2.706zM123.56 75.366l-7.135 1.632c-2.891.456-5.485.858-8.234.858-13.762 0-19.004-10.13-19.004-18.057 0-9.682 7.429-18.657 20.151-18.657 2.692 0 5.282.396 7.642 1.038 3.739 1.052 5.487 2.345 6.581 3.105l-4.144 3.936-1.748.391 1.246-1.987c-1.688-1.648-4.789-4.689-10.675-4.689-7.871 0-13.809 5.983-13.809 14.718 0 9.382 6.781 18.206 17.653 18.206 3.195 0 4.84-.642 6.332-1.241v-8.042l-7.532.405 3.993-2.145h10.571l-1.292 1.244c-.349.297-.396.397-.494.795-.052.454-.1 1.899-.1 2.407v6.083h-.002zM257.276 73.178v13.555h-2.692v-34.49h2.692v3.927c1.752-2.538 4.957-4.551 8.679-4.551 6.674 0 11.171 5.064 11.171 13.079 0 7.962-4.497 13.132-11.171 13.132-3.514 0-6.66-1.811-8.679-4.652zm16.958-8.479c0-6.042-3.149-10.649-8.733-10.649-3.468 0-6.784 2.726-8.225 5.102v11.04c1.441 2.381 4.757 5.205 8.225 5.205 5.584 0 8.733-4.648 8.733-10.698zM280.803 77.21v-34.49h2.69v34.49h-2.69zM313.699 84.503c.574.256 1.557.414 2.181.414 1.646 0 2.792-.673 3.822-3.052l1.963-4.448-10.604-25.174h3.003l9.097 21.816 9.008-21.816h3.044l-12.933 30.458c-1.341 3.139-3.453 4.648-6.354 4.648-.87 0-2.017-.155-2.69-.362l.463-2.484zM305.835 77.134c-.18-.865-.316-1.628-.414-2.265-.083-.636-.129-1.286-.129-1.947-.924 1.355-2.231 2.483-3.901 3.371-1.671.893-3.259 1.332-5.438 1.332-2.623 0-4.657-.645-6.111-1.954-1.448-1.307-2.176-3.079-2.176-5.319 0-2.238 1.055-4.055 3.159-5.444 2.104-1.395 4.823-2.088 8.188-2.088h6.279v-3.103c0-1.786-.61-3.191-1.825-4.21-1.221-1.02-2.934-1.535-5.154-1.535-2.03 0-3.676.471-4.93 1.389-1.243.936-1.868 2.098-1.868 3.496h-2.755l-.057-.134c-.1-1.885.764-3.541 2.598-4.968 1.825-1.428 4.218-2.145 7.163-2.145 2.934 0 5.308.707 7.099 2.116 1.788 1.395 2.686 3.413 2.686 6.049v12.317c0 .884.042 1.739.152 2.572.114.835.294 1.666.536 2.472h-3.102v-.002zm-9.552-1.96c2.287 0 3.93-.511 5.61-1.522 1.668-1.006 2.803-2.316 3.399-3.902v-4.794h-6.308c-2.41 0-4.404.533-5.974 1.609-1.572 1.072-2.37 2.37-2.37 3.879 0 1.423.505 2.563 1.509 3.425 1.006.872 2.381 1.305 4.134 1.305z"/></g><path fill="none" d="M54.037 63.293l8.635-8.636h-.003l-8.632 8.636-27.562-27.559h-.001l27.563 27.563-27.606 27.607 27.606-27.607 8.673 8.674h.005z"/><linearGradient id="a" gradientUnits="userSpaceOnUse" x1="1010.36" y1="1878.796" x2="973.969" y2="1901.571" gradientTransform="matrix(.707 .707 .707 -.707 -1994.696 675.147)"><stop offset="0" stop-color="#D6E59C"/><stop offset=".326" stop-color="#93D0A4"/><stop offset="1" stop-color="#00A2B5"/></linearGradient><path d="M62.669 54.657l-33.647-18.501c-.953-.522-1.834-.644-2.546-.422l27.562 27.558 8.631-8.635z" fill="url(#a)"/><linearGradient id="b" gradientUnits="userSpaceOnUse" x1="989.202" y1="1898.251" x2="1036.384" y2="1885.917" gradientTransform="matrix(.707 .707 .707 -.707 -1994.696 675.147)"><stop offset="0" stop-color="#EC277C"/><stop offset=".643" stop-color="#F9A776"/><stop offset="1" stop-color="#FFEA73"/></linearGradient><path d="M62.715 71.971l11.485-6.316c2.329-1.286 2.329-3.377 0-4.659l-11.528-6.339-8.635 8.636 8.678 8.678z" fill="url(#b)"/><linearGradient id="c" gradientUnits="userSpaceOnUse" x1="1015.542" y1="1861.521" x2="964.379" y2="1891.622" gradientTransform="matrix(.707 .707 .707 -.707 -1994.696 675.147)"><stop offset="0" stop-color="#89CEBC"/><stop offset=".308" stop-color="#5EA2B2"/><stop offset=".777" stop-color="#2265A3"/><stop offset="1" stop-color="#0A4D9D"/></linearGradient><path d="M26.474 35.734c-1.023.32-1.686 1.357-1.686 2.924l.007 49.334c0 1.549.642 2.57 1.636 2.911l27.606-27.606-27.563-27.563z" fill="url(#c)"/><linearGradient id="d" gradientUnits="userSpaceOnUse" x1="1034.117" y1="1885.42" x2="1002.615" y2="1843.918" gradientTransform="matrix(.707 .707 .707 -.707 -1994.696 675.147)"><stop offset="0" stop-color="#EF492B"/><stop offset=".005" stop-color="#EE492C"/><stop offset=".689" stop-color="#9A4F7F"/><stop offset="1" stop-color="#7851A0"/></linearGradient><path d="M26.431 90.904c.716.243 1.615.129 2.591-.407l33.688-18.526-8.673-8.673-27.606 27.606z" fill="url(#d)"/><g fill="#fff"><path d="M56.761 23.74c0-5.301 3.938-8.709 8.835-8.709 3.282 0 5.427 1.565 6.765 3.484l-2.398 1.389c-.909-1.263-2.499-2.247-4.367-2.247-3.331 0-5.806 2.524-5.806 6.083 0 3.508 2.475 6.083 5.806 6.083 1.717 0 3.231-.782 3.989-1.514v-2.601h-5.048v-2.599h7.976v6.285c-1.64 1.843-4.013 3.08-6.916 3.08-4.898-.001-8.836-3.458-8.836-8.734zM76.165 32.145v-16.837h11.535v2.601h-8.582v4.341h8.407v2.6h-8.407v4.695h8.582v2.6h-11.535zM95.873 32.145v-14.236h-5.099v-2.601h13.15v2.601h-5.097v14.236h-2.954zM114.189 32.145v-16.837h2.952v16.837h-2.952zM125.367 32.145v-14.236h-5.099v-2.601h13.15v2.601h-5.098v14.236h-2.953zM142.951 23.74c0-5.024 3.559-8.709 8.609-8.709 5.022 0 8.607 3.685 8.607 8.709 0 5.023-3.585 8.709-8.607 8.709-5.051-.001-8.609-3.686-8.609-8.709zm14.186 0c0-3.484-2.196-6.083-5.578-6.083-3.408 0-5.579 2.599-5.579 6.083 0 3.457 2.171 6.083 5.579 6.083 3.382 0 5.578-2.626 5.578-6.083zM175.352 32.145l-8.784-12.04v12.04h-2.952v-16.837h3.029l8.607 11.662v-11.662h2.954v16.837h-2.854z"/></g></g></svg>