<svg xmlns="http://www.w3.org/2000/svg" xmlns:xlink="http://www.w3.org/1999/xlink" viewBox="0 0 241 125" enable-background="new 0 0 241 125"><path fill="#EC1D6B" d="M11.6 14.3h217.9v45.6h-217.9z"/><path fill="#EC1D6B" d="M53.5 65.2h134v45.6h-134z"/><g fill="#fff"><path d="M32.3 43.3c-.7-.7-1.1-1.5-1.1-2.4 0-1.8 2-2.9 2.1-2.8 1.2 1.5 3.6 2.8 5.7 2.8 1.5 0 2.2-.5 2.2-1.5 0-.8-1.2-1.1-2.8-1.7-2.2-.8-4.7-2.1-4.7-5.3 0-3.3 2.4-6.5 8-6.5 3.1 0 5.3.8 6.5 2 .6.6.9 1.4.9 2.1 0 2-2.2 3.2-2.3 3-1.2-1.6-3.2-2.7-5.1-2.7-1.5 0-2.2.6-2.2 1.5s1.4 1.2 3.1 1.9c2.5.9 5 2.2 5 5.2 0 3.7-2.6 6.5-8.5 6.5-3.3-.1-5.5-.9-6.8-2.1zM58.2 42.5c0-.8.2-1.7.7-3.3.3-1.2.5-2.2.5-2.6 0-1.1-.6-1.7-1.7-1.7-1 0-1.6.4-2.2 1.2l-1.4 6.4c-.4 2-1.1 2.7-2.5 2.7h-.6c-1.5 0-2.8-.6-2.4-2.7l3.2-15.1c.4-2 1.2-2.7 2.6-2.7h.6c1.5 0 2.9.6 2.4 2.7l-1.2 5.8c1-1.6 2.8-2.8 4.8-2.8 2.7 0 4.2 1.8 4.2 4.5 0 1-.3 2.3-.8 4.1-.4 1.4-.7 2.5-.7 3.1 0 .8.4 1.2 1.1 1.4.1 0-.5 2-3.3 2-2.4-.2-3.3-1.3-3.3-3zM66.6 38.8c0-4.3 2.9-8.5 8.1-8.5 4.7 0 7 2.9 7 6.5 0 4.3-2.9 8.5-8.1 8.5-4.7 0-7-3-7-6.5zm10.5-1.8c0-1.5-1-2.7-2.5-2.7-2 0-3.4 2.1-3.4 4.2 0 1.6 1 2.7 2.5 2.7 2.1.1 3.4-2 3.4-4.2zM94.3 30.3c3.1 0 5.5 2.2 5.5 6 0 4.6-2.8 9-7.3 9-2 0-3.6-.9-4.5-2.4l-1.1 5c-.4 2-1.1 2.7-2.5 2.7h-.6c-1.5 0-2.9-.6-2.4-2.7l3.6-17c0-.1.7-.3 1.6-.3 1.4 0 2.8.7 3 2.8.9-1.9 2.5-3.1 4.7-3.1zm-5.2 7.3c-.4 2 .5 3.5 2.4 3.5s3-1.9 3-3.9c0-1.6-.9-2.6-2.3-2.6-1 0-2 .5-2.7 1.4l-.4 1.6zM112.4 30.3c3.1 0 5.5 2.2 5.5 6 0 4.6-2.8 9-7.3 9-2 0-3.6-.9-4.5-2.4l-1.1 5c-.4 2-1.1 2.7-2.5 2.7h-.6c-1.5 0-2.9-.6-2.4-2.7l3.6-17c0-.1.7-.3 1.6-.3 1.4 0 2.8.7 3 2.8.9-1.9 2.5-3.1 4.7-3.1zm-5.2 7.3c-.4 2 .5 3.5 2.4 3.5s3-1.9 3-3.9c0-1.6-.9-2.6-2.3-2.6-1 0-2 .5-2.7 1.4l-.4 1.6zM119.2 40.8l1.6-7.7c.4-2 1.1-2.7 2.5-2.7h.6c1.5 0 2.9.6 2.4 2.7l-1.7 7.9c-.4 1.7-.1 2.4 1 2.7 0 0-.4 1.6-3 1.6-3.2 0-3.9-2-3.4-4.5zm2.9-14c0-1.8 1.3-2.9 3.1-2.9s2.9 1 2.9 2.3c0 1.8-1.3 2.9-3.1 2.9-1.8-.1-2.9-1-2.9-2.3zM139.6 30.3c2.8 0 4.4 1.8 4.4 4.5 0 1-.3 2.3-.8 4.1-.4 1.4-.7 2.5-.7 3.1 0 .8.4 1.2 1.1 1.4.1 0-.5 2-3.3 2-2.4 0-3.4-1.1-3.4-2.8 0-.8.2-1.7.7-3.3.3-1.2.5-2.2.5-2.6 0-1.1-.6-1.7-1.7-1.7-1 0-1.6.4-2.2 1.2l-1.4 6.4c-.4 2-1.1 2.7-2.5 2.7h-.6c-1.5 0-2.9-.6-2.4-2.7l2.5-11.5c0-.1.7-.3 1.6-.3 1.4 0 2.8.7 3 2.7 1.2-2.1 2.9-3.2 5.2-3.2zM161.1 30.5c1.1 0 1.9.5 1.9.7l-2.6 12.1c-1.1 5-3.5 7.4-9.4 7.4-3.1 0-4.6-.9-5.5-1.8-.6-.6-.9-1.4-.9-2.2 0-1.9 2.2-2.9 2.4-2.7.9 1.4 2.1 2.3 4.2 2.3 2.3 0 3.3-1 3.8-3l.2-1.1c-1.1 1.3-2.5 2-4.4 2-3.1 0-5.3-2.3-5.3-5.8 0-4 2.7-8 7.4-8 1.8 0 3.6.8 4.5 2.4.8-1.7 2-2.3 3.7-2.3zm-7.1 4.1c-2.1 0-3.3 1.6-3.3 3.2 0 1.3 1 2.2 2.3 2.2 1.6 0 2.8-1 3.1-2.4l.3-1.5c-.3-.9-1.2-1.5-2.4-1.5zM169.5 42.4l1.6-7.6h-.5c-1.2 0-2-.6-2-1.5 0-.5.2-1.6.8-2.2.3-.3.8-.5 1.9-.5h.7l.1-.5c.9-4.4 3.4-5.6 6.2-5.6 1.6 0 2.7.4 3.3 1 .4.4.6.9.6 1.5 0 1.4-1.2 2.4-1.3 2.3-.4-.4-1-.7-1.8-.7-.9 0-1.4.4-1.7 1.5l-.1.5h1.3c1.3 0 2 .6 2 1.5 0 .5-.2 1.6-.8 2.1-.3.3-.8.5-1.9.5h-1.3l-1.6 7.6c-.4 2-1.2 2.7-2.6 2.7h-.6c-1.4.1-2.8-.5-2.3-2.6zM180.3 38.8c0-4.3 2.9-8.5 8.1-8.5 4.7 0 7 2.9 7 6.5 0 4.3-2.9 8.5-8.1 8.5-4.7 0-7-3-7-6.5zm10.5-1.8c0-1.5-1-2.7-2.5-2.7-2 0-3.4 2.1-3.4 4.2 0 1.6 1 2.7 2.5 2.7 2.1.1 3.4-2 3.4-4.2zM207.3 30.3c1.6 0 2.8 1 2.8 2.5 0 2.7-2.5 3.5-2.5 3.5-.4-.5-1-.9-2-.9-1.6 0-2.5 1.5-3 3.8l-.7 3.3c-.4 2-1.1 2.7-2.5 2.7h-.6c-1.5 0-2.9-.6-2.4-2.7l2.5-11.5c0-.1.7-.3 1.6-.3 1.4 0 2.8.7 3 2.7.6-1.9 2-3.1 3.8-3.1zM77.7 93.6l2.8-13.2c.4-2 1.6-2.9 3.5-2.9h4.3c4.8 0 7.5 1.9 7.5 5.7 0 4.4-2.7 7.7-8.8 7.7h-2.9l-.6 2.7c-.4 1.8-1.2 2.7-2.9 2.7h-.8c-1.6 0-2.5-.9-2.1-2.7zm9.6-6.9c1.8 0 2.9-1 2.9-2.9 0-1.2-.8-1.9-2.5-1.9h-1.8l-1 4.8h2.4zM95.7 90c0-4.3 2.9-8.5 8.1-8.5 4.7 0 7 2.9 7 6.5 0 4.3-2.9 8.5-8.1 8.5-4.7.1-7-2.9-7-6.5zm10.5-1.7c0-1.5-1-2.7-2.5-2.7-2 0-3.4 2.1-3.4 4.2 0 1.6 1 2.7 2.5 2.7 2 0 3.4-2.1 3.4-4.2zM114.6 94.5l-.5-7.8c-.1-1.9-.9-2.5-1.9-2.7-.1 0 .3-2.4 3.1-2.4 1 0 1.8.3 2.4.8.8.8 1.1 2.1 1.1 4v3.9l2.8-5.9c.6-1.2 1.3-1.6 2.6-1.6 1.7 0 2.7.5 2.8 2.1l.3 5.4 4-8.8c.1-.1 3.7 0 3.7 2.5 0 .7-.2 1.2-.8 2.3l-4.9 8.6c-.5 1-1.4 1.3-2.7 1.3-1.8 0-2.4-.5-2.6-1.8l-.6-5.3-3.3 5.8c-.5 1-1.4 1.3-2.5 1.3-2.4.2-3-.5-3-1.7zM142.5 92.8c1.7 0 3-.9 3.8-1.9 0 0 2.2.3 2.2 2 0 1-.3 1.5-.9 2.1-.9.9-2.7 1.6-5.2 1.6-5.1 0-7.4-2.7-7.4-6.3 0-5.2 4-8.7 9-8.7 3.9 0 6 1.8 6 4.5 0 3-1.9 4.7-8.2 4.7-.7 0-1.5 0-2.3-.1.3 1.3 1.3 2.1 3 2.1zm-1.1-5.2c3.2 0 4.2-.6 4.2-1.4 0-.6-.6-1.2-1.8-1.2-1.6 0-2.9 1.1-3.7 2.6h1.3zM161.5 81.5c1.6 0 2.8 1 2.8 2.5 0 2.7-2.5 3.5-2.5 3.5-.4-.5-1-.9-2-.9-1.6 0-2.5 1.5-3 3.8l-.7 3.3c-.4 2-1.1 2.7-2.5 2.7h-.6c-1.5 0-2.9-.6-2.4-2.7l2.5-11.5c0-.1.7-.3 1.6-.3 1.4 0 2.8.7 3 2.7.6-1.9 2-3.1 3.8-3.1z"/></g></svg>