<svg version="1.1" id="Layer_1" xmlns="http://www.w3.org/2000/svg" xmlns:xlink="http://www.w3.org/1999/xlink" x="0px" y="0px"
	 viewBox="0 0 25 25" enable-background="new 0 0 25 25" xml:space="preserve" preserveAspectRatio="xMinYMid">
<g>
	<path fill="#0E91CF" d="M12.5,17.9c-4.1,0-7.4-3.3-7.4-7.4c0-4.1,3.3-7.4,7.4-7.4c4.1,0,7.4,3.3,7.4,7.4
		C19.9,14.6,16.6,17.9,12.5,17.9z M17.5,9.2l-2.8-2.7c-0.1-0.1-0.4-0.1-0.5,0l-0.6,0.7c-0.1,0.1-0.1,0.4,0,0.5l2.8,2.7
		c0.1,0.1,0.4,0.1,0.5,0l0.6-0.7C17.7,9.6,17.7,9.3,17.5,9.2z M15.5,13c-0.7,0.9-1.8,1.4-3,1.4c-1.2,0-2.3-0.6-3-1.4
		c-0.3-0.4-0.7-0.3-1-0.1c-0.3,0.2-0.5,0.4-0.1,1c0.9,1.2,2.4,1.9,4.1,1.9c1.7,0,3.2-0.7,4.1-1.9c0.4-0.6,0.2-0.8-0.1-1
		C16.2,12.7,15.8,12.7,15.5,13z M8.4,10.4c0.1,0.1,0.4,0.2,0.5,0l2.8-2.7c0.1-0.1,0.2-0.4,0-0.5l-0.6-0.7c-0.1-0.1-0.4-0.2-0.5,0
		L7.8,9.2c-0.1,0.1-0.2,0.4,0,0.5L8.4,10.4z M13.9,19.6c-0.2,0.8-0.3,2.6,0.8,3.9c0,0-2.8-0.7-3.8-4c-4.2-0.8-7.4-4.5-7.4-8.9
		c0-5,4.1-9.1,9.1-9.1s9.1,4.1,9.1,9.1C21.6,15.1,18.3,18.9,13.9,19.6z M12.5,18.7c4.5,0,8.1-3.6,8.1-8.1c0-4.5-3.6-8.1-8.1-8.1
		c-4.5,0-8.1,3.6-8.1,8.1C4.4,15.1,8,18.7,12.5,18.7z"/>
</g>
</svg>
