<svg version="1.1" id="Layer_1" xmlns="http://www.w3.org/2000/svg" xmlns:xlink="http://www.w3.org/1999/xlink" x="0px" y="0px"
	 viewBox="0 0 25 25" enable-background="new 0 0 25 25" xml:space="preserve" preserveAspectRatio="xMinYMid">
<path fill="#0E91CF" d="M12.5,7c-0.7-2.7,1.2-4.8,2.8-5.3c1.6-0.5,3.7-0.1,4.9,1.2c0,0,1.8-0.4,2.9-1.1c0,0-0.6,1.8-2.1,2.5
	c0,0,1.1,0,2.6-0.7c0,0-0.9,1.3-2.3,2.4c0,11.9-11.9,16.6-19.7,11.4c0,0,3.7,0.5,6.6-1.9c0,0-3.3,0-4.3-3.1c0,0,1.4,0.2,2.1-0.1
	c0,0-3.5-0.7-3.6-4.5c0,0,0.6,0.7,2.1,0.6c0,0-3.3-2-1.4-6.1C3.2,2.3,6.8,7.4,12.5,7z"/>
</svg>
