<svg xmlns="http://www.w3.org/2000/svg" viewBox="0 0 25 25" enable-background="new 0 0 25 25" preserveAspectRatio="xMinYMid"><path fill="#0E91CF" d="M12.5 17.9c-4.1 0-7.4-3.3-7.4-7.4 0-4.1 3.3-7.4 7.4-7.4 4.1 0 7.4 3.3 7.4 7.4 0 4.1-3.3 7.4-7.4 7.4zm5-8.7l-2.8-2.7c-.1-.1-.4-.1-.5 0l-.6.7c-.1.1-.1.4 0 .5l2.8 2.7c.1.1.4.1.5 0l.6-.7c.2-.1.2-.4 0-.5zm-2 3.8c-.7.9-1.8 1.4-3 1.4s-2.3-.6-3-1.4c-.3-.4-.7-.3-1-.1-.3.2-.5.4-.1 1 .9 1.2 2.4 1.9 4.1 1.9 1.7 0 3.2-.7 4.1-1.9.4-.6.2-.8-.1-1-.3-.2-.7-.2-1 .1zm-7.1-2.6c.1.1.4.2.5 0l2.8-2.7c.1-.1.2-.4 0-.5l-.6-.7c-.1-.1-.4-.2-.5 0l-2.8 2.7c-.1.1-.2.4 0 .5l.6.7zm5.5 9.2c-.2.8-.3 2.6.8 3.9 0 0-2.8-.7-3.8-4-4.2-.8-7.4-4.5-7.4-8.9 0-5 4.1-9.1 9.1-9.1s9.1 4.1 9.1 9.1c-.1 4.5-3.4 8.3-7.8 9zm-1.4-.9c4.5 0 8.1-3.6 8.1-8.1s-3.6-8.1-8.1-8.1-8.1 3.6-8.1 8.1 3.6 8.1 8.1 8.1z"/></svg>