<svg version="1.1" id="Layer_1" xmlns="http://www.w3.org/2000/svg" xmlns:xlink="http://www.w3.org/1999/xlink" x="0px" y="0px"
	 viewBox="0 0 25 25" enable-background="new 0 0 25 25" xml:space="preserve" preserveAspectRatio="xMinYMid">
<g>
	<path fill="#0E91CF" d="M21,17.8c0,1.2-1,2.2-2.2,2.2H5.2C4,20,3,19,3,17.8V4.2C3,3,4,2,5.2,2h13.5C20,2,21,3,21,4.2V17.8z"/>
</g>
<g>
	<path fill="#FFFFFF" d="M13.1,8.9h1V11h-1v5.2H9.9V11h-1V8.9h1V8.2c0-0.3,0-0.7,0.1-1.1c0.1-0.4,0.2-0.7,0.4-1
		c0.2-0.3,0.5-0.5,0.8-0.6c0.4-0.2,0.9-0.2,1.6-0.2c0.5,0,1.3,0.1,2.4,0.2l-0.3,1.9c-0.4-0.1-0.7-0.1-0.9-0.1c-0.3,0-0.5,0-0.6,0.1
		c-0.1,0.1-0.2,0.4-0.3,0.6C13.1,8.2,13.1,8.9,13.1,8.9z"/>
</g>
</svg>
