<svg class="credit-150-white" data-name="Layer 1" xmlns="http://www.w3.org/2000/svg" viewBox="0 0 1413.99 557.96">
  <defs>
    <style>
      .cls-1 {
        fill: #e2005c;
      }

      .cls-2 {
        fill: #eaeaea;
      }

      .cls-3 {
        fill: #c1c1c1;
      }

      .cls-4 {
        fill: #9a9a9a;
      }

      .cls-5, .cls-6 {
        fill: #fff;
      }

      .cls-6 {
        opacity: 0.6;
      }

      .cls-7 {
        fill: #f8f8f8;
      }
    </style>
  </defs>
  <title>$150 Offer Graphic</title>
  <path id="_Path_" data-name="&lt;Path&gt;" class="cls-1" d="M234.8,321.9a19.19,19.19,0,0,0-3.47-2.1l-0.5-.23c-0.42-.2-0.8-0.38-1.29-0.58a36.9,36.9,0,0,0-11-2.63h-0.09c-1.66-.16-3.37-0.27-5.16-0.28l-39.94-.29a14.63,14.63,0,0,1-2.11-.17l-0.28,0a11.21,11.21,0,0,1-1.82-.47l-0.28-.11A8.33,8.33,0,0,1,166,313.2l-0.27-.29a8.78,8.78,0,0,1-2.16-4.64l0-.19a13.23,13.23,0,0,1-.14-2l0.27-36.5a9.5,9.5,0,0,1,.09-1.19l0-.24c0-.15.06-0.3,0.1-0.45a10.81,10.81,0,0,1,.87-2.48c0.12-.23.24-0.46,0.39-0.68s0.17-.26.26-0.38a7,7,0,0,1,.84-1l0.26-.21a6.51,6.51,0,0,1,.82-0.58c0.21-.12.41-0.24,0.61-0.33a6.78,6.78,0,0,1,1-.38l0.53-.14a8.52,8.52,0,0,1,1.53-.16l32,0.2-0.16,21.7,36.85,0.27,0.41-55.79-0.78-.79L238.4,226l-38.57-.28,0.11-16.19h0l-26-.19-3.58,0h-0.06l0.06,0.06-0.12,16.47-9.64-.07h-1.24s-18.35-.59-27.1,7.75h0c-8.13,6.63-11.12,17.1-11.21,29.84L120.59,324c-0.06,9.22,2,16.87,7.16,22.21h0a23.27,23.27,0,0,0,9.63,6l0.36,0.12a45.18,45.18,0,0,0,13.44,2.21l39.11,0.28a14,14,0,0,1,2.41.24c0.29,0.05.57,0.11,0.83,0.18a9.76,9.76,0,0,1,1.2.4,9.48,9.48,0,0,1,1,.49,8,8,0,0,1,1.23.8l0.09,0.06c2.49,2.16,3.13,5.57,3.11,8.57l-0.26,35.82a11.31,11.31,0,0,1-2.7,7.65,15.34,15.34,0,0,1-2.79,2.2,12.27,12.27,0,0,1-4.17,1.28l-30-.22,0.17-23.94-37.89-.27h-0.06l0.06,0.06L122.12,446l2,2.08,42.71,0.31-0.12,17.22h0.14l29.68,0.21-0.09-17.22,4.82,0h1.34a67.94,67.94,0,0,0,8.92-.49l0.61-.08c1-.13,2.08-0.28,3.17-0.48a47.28,47.28,0,0,0,6.4-1.54c0.58-.18,1.16-0.39,1.73-0.59,0.4-.15.82-0.29,1.22-0.45a30.92,30.92,0,0,0,3.11-1.47l0.07,0a23.93,23.93,0,0,0,3-1.86s3.58-1.77,6.9-7.64l0.32-.55c0.1-.19.2-0.41,0.31-0.61,3.3-6.12,4.84-14.11,4.92-24.2l0.47-65.22S244.7,329.06,234.8,321.9Z" transform="translate(-111.86 -167.47)"/>
  <g id="_Group_" data-name="&lt;Group&gt;">
    <path id="_Compound_Path_" data-name="&lt;Compound Path&gt;" class="cls-1" d="M595.56,596.56L453.4,597l-3.87-3.29L449.17,488l78.79-.27,0.11,33.06,42.43-.14-0.27-79.35-114.61.39-0.77-227.57,198.36-.67,0.26,77.14-112.41.38,0.24,71.63,68.88-.23c47.39-.16,56.84,25.15,56.95,57.11l0.36,106.34C667.64,566,657.82,596.35,595.56,596.56Z" transform="translate(-111.86 -167.47)"/>
    <path id="_Compound_Path_2" data-name="&lt;Compound Path&gt;" class="cls-1" d="M842.94,596.27l-62.81.21c-61.16.21-86-21.2-86.24-84l-0.72-213.24c-0.22-63.92,20.09-88.23,85.66-88.45l62.81-.21c65.57-.22,86,24,86.26,87.87l0.72,213.24C928.83,574.49,904.1,596.07,842.94,596.27ZM830.87,286.09l-40.77.14,0.79,233.63,40.77-.14Z" transform="translate(-111.86 -167.47)"/>
    <g id="_Group_2" data-name="&lt;Group&gt;">
      <path id="_Compound_Path_3" data-name="&lt;Compound Path&gt;" class="cls-1" d="M295.92,596V521.87H310.3V291H287.63V212.93H407.77V521.87h14.38V596H295.92Z" transform="translate(-111.86 -167.47)"/>
    </g>
  </g>
  <path id="_Compound_Path_4" data-name="&lt;Compound Path&gt;" class="cls-2" d="M582.47,582.73l-142.16.48-3.87-3.29-0.36-105.79,78.79-.27L515,506.92l42.43-.14-0.27-79.35-114.61.39-0.77-227.57,198.36-.67,0.26,77.14L528,277.1l0.24,71.63,68.88-.23c47.39-.16,56.84,25.15,56.95,57.11L654.41,512C654.55,552.18,644.73,582.52,582.47,582.73Z" transform="translate(-111.86 -167.47)"/>
  <path id="_Compound_Path_5" data-name="&lt;Compound Path&gt;" class="cls-2" d="M829.85,582.44l-62.81.21c-61.16.21-86-21.2-86.24-84L680.07,285.4c-0.22-63.92,20.09-88.23,85.66-88.45l62.81-.21c65.57-.22,86,24,86.26,87.87l0.72,213.24C915.74,560.66,891,582.23,829.85,582.44ZM817.78,272.26L777,272.4,777.8,506l40.77-.14Z" transform="translate(-111.86 -167.47)"/>
  <polygon id="_Path_2" data-name="&lt;Path&gt;" class="cls-3" points="403.13 339.45 403.13 339.45 403.13 339.4 403.02 306.39 365.87 333.24 365.54 376.66 403.13 339.45"/>
  <polygon id="_Path_3" data-name="&lt;Path&gt;" class="cls-3" points="494.35 70.14 526.48 109.26 528.54 109.25 528.27 32.11 494.35 70.14"/>
  <polygon id="_Path_4" data-name="&lt;Path&gt;" class="cls-3" points="416.29 156.93 416.13 109.63 371.63 71.13 371.63 224.73 416.37 181.26 416.37 181.26 416.29 156.93"/>
  <path id="_Path_5" data-name="&lt;Path&gt;" class="cls-3" d="M914.8,284.61c-0.11-32.06-5.32-54.11-18.76-68.11l-32.61,26.4,2.74,292.29,26.13,31.27h0c16.14-13,23.33-34.79,23.22-68.61Z" transform="translate(-111.86 -167.47)"/>
  <polygon id="_Path_6" data-name="&lt;Path&gt;" class="cls-3" points="665.33 158.35 665.15 104.93 618.65 76.98 618.06 368.03 665.94 338.56 665.33 158.35"/>
  <path id="_Path_7" data-name="&lt;Path&gt;" class="cls-3" d="M654.41,512l-0.36-106.34c-0.07-20.38-4-38-19.09-48.12l-31.76,34-1.09,151,25.09,31.67C649.94,562.28,654.5,539.43,654.41,512Z" transform="translate(-111.86 -167.47)"/>
  <polygon id="_Path_8" data-name="&lt;Path&gt;" class="cls-4" points="371.63 224.73 330.68 260.35 445.29 259.96 445.29 259.96 491.35 223.98 371.63 224.73"/>
  <path id="_Path_9" data-name="&lt;Path&gt;" class="cls-4" d="M866.17,535.19l-136.26.31-23.55,33.15c13.85,10,33.73,14.1,60.67,14l62.81-.21c28.24-.1,48.62-4.83,62.45-16Z" transform="translate(-111.86 -167.47)"/>
  <polygon id="_Path_10" data-name="&lt;Path&gt;" class="cls-4" points="618.65 76.98 665.15 104.93 665.15 104.93 705.93 104.79 705.93 104.79 705.93 104.79 751.58 75.43 618.65 76.98"/>
  <polygon id="_Path_11" data-name="&lt;Path&gt;" class="cls-4" points="371.63 71.13 372.23 72.31 416.13 109.63 416.13 109.63 416.13 109.63 526.48 109.26 494.35 70.14 371.63 71.13"/>
  <path id="_Path_12" data-name="&lt;Path&gt;" class="cls-4" d="M440.31,583.21l142.16-.48c19.73-.07,34.19-3.17,44.74-8.64l-25.09-31.67L477.4,544.13l-39.06,37.4Z" transform="translate(-111.86 -167.47)"/>
  <path id="_Path_13" data-name="&lt;Path&gt;" class="cls-5" d="M635,357.49c-9.08-6.06-21.24-9-37.86-9l-68.87.23h0L483.49,392.2l119.72-.75Z" transform="translate(-111.86 -167.47)"/>
  <path id="_Path_14" data-name="&lt;Path&gt;" class="cls-5" d="M704.76,211.58l25.75,32.87,132.92-1.55h0L896,216.49c-13.35-13.91-34.82-19.87-67.5-19.76l-62.82.21C737.82,197,718.17,201.56,704.76,211.58Z" transform="translate(-111.86 -167.47)"/>
  <polygon id="_Path_15" data-name="&lt;Path&gt;" class="cls-5" points="706.71 337.62 706.72 338.42 665.94 338.56 665.94 338.56 665.94 338.56 618.06 368.03 754.32 367.72 706.71 337.62"/>
  <polygon id="_Path_16" data-name="&lt;Path&gt;" class="cls-5" points="365.87 333.24 403.02 306.39 403.02 306.39 324.23 306.65 324.23 306.65 365.87 333.24"/>
  <polygon id="_Path_17" data-name="&lt;Path&gt;" class="cls-5" points="528.27 32.11 329.91 32.78 329.91 32.78 371.63 71.13 494.35 70.14 528.27 32.11 528.27 32.11"/>
  <polygon id="_Path_18" data-name="&lt;Path&gt;" class="cls-5" points="445.56 339.31 420.04 339.39 403.13 339.45 365.54 376.66 490.26 374.95 445.56 339.31"/>
  <g id="_Group_3" data-name="&lt;Group&gt;">
    <path id="_Compound_Path_6" data-name="&lt;Compound Path&gt;" class="cls-2" d="M192.58,439.38l-4.82,0-0.13,17.22L158,456.35l0.12-17.22-42.71-.31-2-2.08,0.42-57.86,37.89,0.27-0.17,24.1,27.89,0.2c6.89,0,11.74-4,11.79-11.28l0.26-35.82c0-4.82-1.64-10.68-9.91-10.74L144,345.34c-24.1-.17-32.28-12.29-32.15-30.54l0.44-60.61c0.16-22.39,9.23-37.82,39.53-37.6l9.64,0.07,0.12-16.53,29.63,0.22-0.11,16.19,38.57,0.28,1.71,1.73L231,274.33l-36.85-.27,0.16-21.7-31.68-.23c-5.86,0-7.62,5.11-7.64,8.21l-0.27,36.5c0,5.86,3.38,9.67,9.92,9.71l39.94,0.29C223.51,307,235.16,315,235,335.32l-0.46,64.07C234.35,427.62,222.89,439.6,192.58,439.38Z" transform="translate(-111.86 -167.47)"/>
  </g>
  <polygon id="_Path_19" data-name="&lt;Path&gt;" class="cls-4" points="82.27 106.6 100.79 88.34 119.12 106.86 82.27 106.6"/>
  <polygon id="_Path_20" data-name="&lt;Path&gt;" class="cls-4" points="46.31 288.88 61.29 274.24 75.99 289.1 46.31 288.88"/>
  <polygon id="_Path_21" data-name="&lt;Path&gt;" class="cls-3" points="20.7 230.41 20.53 253.57 39.66 235.78 39.84 211.68 20.7 230.41"/>
  <polygon id="_Path_22" data-name="&lt;Path&gt;" class="cls-3" points="100.79 88.34 100.98 67.13 118.75 50.28 119.53 51.07 119.12 106.86 100.79 88.34"/>
  <polygon id="_Path_23" data-name="&lt;Path&gt;" class="cls-3" points="64.27 66.86 64.39 47.51 79.36 32.87 79.25 49.06 64.27 66.86"/>
  <path id="_Path_24" data-name="&lt;Path&gt;" class="cls-4" d="M212.84,234.59l-18.55,17.77-32.34-.2a7.17,7.17,0,0,0-5.12,2.6L133.59,234Z" transform="translate(-111.86 -167.47)"/>
  <path id="_Path_25" data-name="&lt;Path&gt;" class="cls-5" d="M133.59,234" transform="translate(-111.86 -167.47)"/>
  <path id="_Path_26" data-name="&lt;Path&gt;" class="cls-3" d="M133.59,234l-0.66,91.78,23.71-22.54s-2-1.81-1.94-6.41l0.27-37a10.62,10.62,0,0,1,1.86-5Z" transform="translate(-111.86 -167.47)"/>
  <path id="_Path_27" data-name="&lt;Path&gt;" class="cls-4" d="M132.93,325.8l79.25,0.57-22.79,22.47s-2.18-3.21-7.83-3.22l-39.11-.28s-15.65.25-23.43-8.32Z" transform="translate(-111.86 -167.47)"/>
  <path id="_Path_28" data-name="&lt;Path&gt;" class="cls-3" d="M212.17,326.37l-0.69,95.23,10.63,10.78s12.24-5.92,12.44-33L235,334.16s1-14.33-9-21.48Z" transform="translate(-111.86 -167.47)"/>
  <path id="_Path_29" data-name="&lt;Path&gt;" class="cls-4" d="M211.48,421.61l-38.22-.28,14.5,18,6.17,0s18.13,0.57,28.19-7Z" transform="translate(-111.86 -167.47)"/>
  <polygon id="_Path_30" data-name="&lt;Path&gt;" class="cls-3" points="61.29 274.24 61.44 253.86 75.91 271.87 75.99 289.1 61.29 274.24"/>
  <polygon id="_Path_31" data-name="&lt;Path&gt;" class="cls-4" points="46.29 271.66 61.44 253.86 20.53 253.57 2.61 270.36 3.58 271.35 46.29 271.66"/>
  <g id="_Group_4" data-name="&lt;Group&gt;">
    <polygon id="_Path_32" data-name="&lt;Path&gt;" class="cls-6" points="39.84 211.68 20.7 230.41 1.9 211.41 39.84 211.68"/>
    <polygon id="_Path_33" data-name="&lt;Path&gt;" class="cls-6" points="79.36 32.87 64.39 47.51 49.68 32.66 79.36 32.87"/>
    <polygon id="_Path_34" data-name="&lt;Path&gt;" class="cls-6" points="100.98 67.13 64.27 66.86 79.25 49.06 117.82 49.34 118.75 50.28 100.98 67.13"/>
    <path id="_Path_35" data-name="&lt;Path&gt;" class="cls-6" d="M176.13,234.33l-14.66-17.67-10.88-.07s-18.35-.59-27.1,7.75l10.1,9.69Z" transform="translate(-111.86 -167.47)"/>
    <path id="_Path_36" data-name="&lt;Path&gt;" class="cls-6" d="M212.17,326.37l13.89-13.69s-6.57-5.72-21.51-5.82l-38.79-.28s-6.52.5-9.14-3.31L132.93,325.8Z" transform="translate(-111.86 -167.47)"/>
    <path id="_Path_37" data-name="&lt;Path&gt;" class="cls-6" d="M211.48,421.61L188.9,399.41s-3.49,3.92-7.21,3.9l-30.17-.22L132.39,421Z" transform="translate(-111.86 -167.47)"/>
  </g>
  <g id="_Group_5" data-name="&lt;Group&gt;">
    <path id="_Compound_Path_7" data-name="&lt;Compound Path&gt;" class="cls-1" d="M1068.42,269.21v-17h-25.08v41.21h16.42V280.86h33.74v64.8h-33.74V333.11h-16.42v43.6H1058v40H983v-40h7.76V250.1H983v-40h126v59.12h-40.61Z" transform="translate(-111.86 -167.47)"/>
    <path id="_Compound_Path_8" data-name="&lt;Compound Path&gt;" class="cls-1" d="M1203.68,416.72l-3-16.12-17.91-56.14h-5.68v32.25h8.06v40h-68.38v-40h7.76V250.1h-7.76v-40h92c32.55,0,42.71,13.44,42.7,38.52v53.45c0,19.11-7.47,29.86-21.8,33.44L1247,376.7h11.35v40h-54.64Zm-4.78-165.43h-21.8v52.56h21.8V251.29Z" transform="translate(-111.86 -167.47)"/>
    <path id="_Compound_Path_9" data-name="&lt;Compound Path&gt;" class="cls-1" d="M1264.88,416.72v-40h7.76V250.1h-7.76v-40h126v59.12h-40.61v-17H1325.2v41.21h16.42V280.86h33.75v64.8h-33.75V333.11H1325.2v41.51h25.08v-14h40.61v56.13h-126Z" transform="translate(-111.86 -167.47)"/>
    <path id="_Compound_Path_10" data-name="&lt;Compound Path&gt;" class="cls-1" d="M1399.84,416.72v-40h7.76V250.1h-7.76v-40h126v59.12h-40.61v-17h-25.08v41.21h16.42V280.85h33.74v64.8h-33.74V333.11h-16.42v41.51h25.08v-14h40.61v56.13h-126Z" transform="translate(-111.86 -167.47)"/>
    <path id="_Compound_Path_11" data-name="&lt;Compound Path&gt;" class="cls-1" d="M1041.52,548.26h-19.39v15.47h8v27.64H980.46V563.73h5.36V476.27h-5.36V448.63h62.71c22.69,0,30.53,10.93,30.53,30.53v39C1073.71,537.33,1064.63,548.26,1041.52,548.26Zm-4.33-71.17h-15.06v42.7h15.06v-42.7Z" transform="translate(-111.86 -167.47)"/>
    <path id="_Compound_Path_12" data-name="&lt;Compound Path&gt;" class="cls-1" d="M1126.5,593.44c-26.61,0-43.74-6.81-43.73-35.69v-75.3c0-29.5,17.54-35.89,43.94-35.9s43.94,7.22,43.94,35.9v74.47C1170.65,586.22,1152.91,593.44,1126.5,593.44Zm7.84-117.17h-15.27v87.46h15.27V476.27Z" transform="translate(-111.86 -167.47)"/>
    <path id="_Compound_Path_13" data-name="&lt;Compound Path&gt;" class="cls-1" d="M1324.11,476.27V558c0,29.5-17.95,35.48-44.35,35.48-9.9,0-18.77-1-25.78-3.92-7.22,3.09-16.3,3.92-26.61,3.92-26,0-44.35-7-44.35-35.48V476.27h-5.36V448.63h47v27.64h-5.36v87.67h16.09V476.27H1230V448.62h47v27.64h-5.36v87.67h16.09V476.27h-5.36V448.63h47v27.64h-5.36Z" transform="translate(-111.86 -167.47)"/>
    <path id="_Compound_Path_14" data-name="&lt;Compound Path&gt;" class="cls-1" d="M1334.82,591.37V563.73h5.36V476.27h-5.36V448.63h87.05v40.84h-28.05V477.71H1376.5v28.47h11.34v-8.66h23.31v44.76h-23.31v-8.66h-11.34v28.68h17.33v-9.69h28.05v38.78h-87.05Z" transform="translate(-111.86 -167.47)"/>
    <path id="_Compound_Path_15" data-name="&lt;Compound Path&gt;" class="cls-1" d="M1488.09,591.37L1486,580.23l-12.38-38.78h-3.92v22.28h5.57v27.64h-47.24V563.73h5.36V476.27h-5.36V448.63h63.54c22.49,0,29.5,9.28,29.5,26.61v36.92c0,13.2-5.16,20.63-15.06,23.1l12,28.47h7.84v27.64h-37.75Zm-3.3-114.28h-15.06V513.4h15.06v-36.3Z" transform="translate(-111.86 -167.47)"/>
    <text x="-111.86" y="-167.47"/>  </g>
  <g id="_Group_6" data-name="&lt;Group&gt;">
    <path id="_Compound_Path_16" data-name="&lt;Compound Path&gt;" class="cls-7" d="M1058,258.77v-17h-25.08V283h16.42V270.42h33.74v64.8h-33.74V322.67h-16.42v43.6h14.63v40h-75v-40h7.76V239.66h-7.76v-40h126v59.12H1058Z" transform="translate(-111.86 -167.47)"/>
    <path id="_Compound_Path_17" data-name="&lt;Compound Path&gt;" class="cls-7" d="M1193.24,406.28l-3-16.12L1172.35,334h-5.68v32.25h8.06v40h-68.38v-40h7.76V239.66h-7.76v-40h92c32.55,0,42.71,13.44,42.7,38.52v53.45c0,19.11-7.47,29.86-21.8,33.44l17.32,41.21h11.35v40h-54.64Zm-4.78-165.43h-21.8v52.56h21.8V240.85Z" transform="translate(-111.86 -167.47)"/>
    <path id="_Compound_Path_18" data-name="&lt;Compound Path&gt;" class="cls-7" d="M1254.44,406.28v-40h7.76V239.66h-7.76v-40h126v59.12h-40.61v-17h-25.08V283h16.42V270.42h33.75v64.8h-33.75V322.67h-16.42v41.51h25.08v-14h40.61v56.13h-126Z" transform="translate(-111.86 -167.47)"/>
    <path id="_Compound_Path_19" data-name="&lt;Compound Path&gt;" class="cls-7" d="M1389.4,406.28v-40h7.76V239.66h-7.76v-40h126v59.12H1474.8v-17h-25.08V283h16.42V270.42h33.74v64.8h-33.74V322.67h-16.42v41.51h25.08v-14h40.61v56.13h-126Z" transform="translate(-111.86 -167.47)"/>
    <path id="_Compound_Path_20" data-name="&lt;Compound Path&gt;" class="cls-7" d="M1031.08,537.82h-19.39v15.47h8v27.64H970V553.29h5.36V465.83H970V438.19h62.71c22.69,0,30.53,10.93,30.53,30.53v39C1063.27,526.89,1054.19,537.82,1031.08,537.82Zm-4.33-71.17h-15.06v42.7h15.06v-42.7Z" transform="translate(-111.86 -167.47)"/>
    <path id="_Compound_Path_21" data-name="&lt;Compound Path&gt;" class="cls-7" d="M1116.07,583c-26.61,0-43.74-6.81-43.73-35.69V472c0-29.5,17.54-35.89,43.94-35.9s43.94,7.22,43.94,35.9v74.47C1160.21,575.78,1142.47,583,1116.07,583Zm7.84-117.17h-15.27v87.46h15.27V465.83Z" transform="translate(-111.86 -167.47)"/>
    <path id="_Compound_Path_22" data-name="&lt;Compound Path&gt;" class="cls-7" d="M1313.68,465.83v81.69c0,29.5-17.95,35.48-44.35,35.48-9.9,0-18.77-1-25.78-3.92-7.22,3.09-16.3,3.92-26.61,3.92-26,0-44.35-7-44.35-35.48V465.83h-5.36V438.19h47v27.64h-5.36V553.5H1225V465.83h-5.36V438.19h47v27.64h-5.36V553.5h16.09V465.83H1272V438.19h47v27.64h-5.36Z" transform="translate(-111.86 -167.47)"/>
    <path id="_Compound_Path_23" data-name="&lt;Compound Path&gt;" class="cls-7" d="M1324.39,580.94V553.29h5.36V465.83h-5.36V438.19h87.05V479h-28.05V467.27h-17.33v28.47h11.34v-8.66h23.31v44.76H1377.4v-8.66h-11.34v28.68h17.33v-9.69h28.05v38.78h-87.05Z" transform="translate(-111.86 -167.47)"/>
    <path id="_Compound_Path_24" data-name="&lt;Compound Path&gt;" class="cls-7" d="M1477.65,580.93l-2.06-11.14L1463.21,531h-3.92v22.28h5.57v27.64h-47.24V553.29H1423V465.83h-5.36V438.19h63.54c22.49,0,29.5,9.28,29.5,26.61v36.92c0,13.2-5.16,20.63-15.06,23.1l12,28.47h7.84v27.64h-37.75Zm-3.3-114.28h-15.06V503h15.06v-36.3Z" transform="translate(-111.86 -167.47)"/>
    <text x="-111.86" y="-167.47"/>  </g>
  <g id="_Group_7" data-name="&lt;Group&gt;">
    <path id="_Compound_Path_25" data-name="&lt;Compound Path&gt;" class="cls-5" d="M281.33,582.07l0-74.18h14.38V277H273V199H393.13V507.89h14.38v74.18H281.33Z" transform="translate(-111.86 -167.47)"/>
  </g>
  <polygon id="_Path_38" data-name="&lt;Path&gt;" class="cls-2" points="161.14 109.55 200.12 70.56 161.09 31.54 161.14 109.55"/>
  <polygon id="_Path_39" data-name="&lt;Path&gt;" class="cls-2" points="169.47 414.6 206.54 377.54 169.43 340.42 169.47 414.6"/>
  <polygon id="_Path_40" data-name="&lt;Path&gt;" class="cls-4" points="200.12 70.56 231.15 70.56 183.81 109.55 161.14 109.55 200.12 70.56"/>
  <polygon id="_Path_41" data-name="&lt;Path&gt;" class="cls-3" points="281.28 31.49 231.15 70.56 231.15 376.66 281.28 340.42 281.28 31.49"/>
  <polygon id="_Path_42" data-name="&lt;Path&gt;" class="cls-3" points="295.66 340.42 258.5 377.51 295.66 414.6 295.66 340.42"/>
  <polygon id="_Path_43" data-name="&lt;Path&gt;" class="cls-2" points="231.15 376.66 183.81 340.42 183.81 109.55 231.15 70.56 231.15 376.66"/>
  <polygon id="_Path_44" data-name="&lt;Path&gt;" class="cls-4" points="206.54 377.54 258.5 377.54 295.66 414.6 169.47 414.6 206.54 377.54"/>
  <g id="_Group_8" data-name="&lt;Group&gt;">
    <path id="_Compound_Path_26" data-name="&lt;Compound Path&gt;" class="cls-7" d="M464.78,674.1c11.44,0,19.32,7.8,19.32,19.09s-7.87,19-19.47,19-19.31-7.66-19.31-19.1C445.32,681.9,453.27,674.1,464.78,674.1Zm-0.07,29.79c5.79,0,10.1-4.53,10.1-10.7s-4.23-10.92-10.1-10.92S454.53,686.8,454.53,693,458.84,703.89,464.71,703.89Z" transform="translate(-111.86 -167.47)"/>
    <path id="_Compound_Path_27" data-name="&lt;Compound Path&gt;" class="cls-7" d="M485.66,677.59c-0.22-.6,2.53-3.12,5.65-3.12,2.53,0,4.61,1.19,5.95,5.35l7.35,21.77,7.58-21.77c1.34-4.16,3.49-5.35,5.72-5.35,3.19,0,5.87,2.53,5.64,3.12l-13,31.28c-0.89,2.15-3.49,2.75-5.87,2.75s-5-.52-5.87-2.68Z" transform="translate(-111.86 -167.47)"/>
    <path id="_Compound_Path_28" data-name="&lt;Compound Path&gt;" class="cls-7" d="M544.06,674.1c10.7,0,18.05,7.5,18.05,18.12V693c-0.07,1.86-.59,2.9-2.53,2.9h-25c0.74,5.42,4.9,8.61,10.55,8.61s8.54-2.45,10.25-5.35c0.07-.15,5.05.52,5.05,4.68,0,3.94-5.57,8.32-15.68,8.32-11.81,0-19.61-7.36-19.61-18.8C525.12,682.27,533.07,674.1,544.06,674.1Zm8.32,15.67c-0.22-5.05-3.42-8.4-8.47-8.4s-8.62,3.49-9.36,8.4h17.83Z" transform="translate(-111.86 -167.47)"/>
    <path id="_Compound_Path_29" data-name="&lt;Compound Path&gt;" class="cls-7" d="M567.91,675.73c0-.3,1.86-1.19,3.94-1.19,2.75,0,5.72,1.26,6.39,6.16,1.49-4.16,4.46-6.61,8.84-6.61s6.76,2.37,6.76,6.09c0,4.17-3.19,5.65-3.34,5.5a6.9,6.9,0,0,0-4.75-1.78c-5.13,0-7.35,4.46-7.35,11.74v10.85c0,3.79-1.93,5-4.61,5h-1.11c-2.82,0-4.75-1.11-4.75-5V675.73Z" transform="translate(-111.86 -167.47)"/>
    <path id="_Compound_Path_30" data-name="&lt;Compound Path&gt;" class="cls-7" d="M608.26,677.59c-0.22-.6,2.53-3,5.72-3.12,2.45,0,4.61,1.19,5.87,5.28l7.87,20.73,7-20.65c1.26-4.09,3.49-5.35,5.8-5.35,3,0,5.87,2.45,5.65,3l-16.49,42.87c-1.56,3.94-3.64,5.13-5.95,5.13-3,0-5.87-2.38-5.57-2.9l6-13.67a3.86,3.86,0,0,1-3.42-2.38Z" transform="translate(-111.86 -167.47)"/>
    <path id="_Compound_Path_31" data-name="&lt;Compound Path&gt;" class="cls-7" d="M667.11,674.1c11.44,0,19.31,7.8,19.31,19.09s-7.87,19-19.46,19-19.32-7.66-19.32-19.1C647.64,681.9,655.59,674.1,667.11,674.1ZM667,703.89c5.8,0,10.11-4.53,10.11-10.7S672.9,682.27,667,682.27,656.85,686.8,656.85,693,661.16,703.89,667,703.89Z" transform="translate(-111.86 -167.47)"/>
    <path id="_Compound_Path_32" data-name="&lt;Compound Path&gt;" class="cls-7" d="M692.07,679.6c0-3.79,1.93-5.05,4.61-5.05h1.11c2.75,0,4.75,1.19,4.75,5.05v16c0,4.83,2.45,7.8,6.84,7.8a8.7,8.7,0,0,0,7.8-4.75v-19c0-3.79,1.93-5.05,4.68-5.05h1c2.82,0,4.75,1.19,4.75,5.05v30.68c0,0.37-1.78,1.19-3.94,1.19-2.6,0-5.5-1.11-6.31-5.72a13.65,13.65,0,0,1-11.89,6.39c-9.51,0-13.45-6.69-13.45-15V679.6Z" transform="translate(-111.86 -167.47)"/>
    <path id="_Compound_Path_33" data-name="&lt;Compound Path&gt;" class="cls-7" d="M735.54,675.73c0-.3,1.86-1.19,3.94-1.19,2.75,0,5.72,1.26,6.39,6.16,1.49-4.16,4.46-6.61,8.84-6.61s6.76,2.37,6.76,6.09c0,4.17-3.2,5.65-3.35,5.5a6.9,6.9,0,0,0-4.75-1.78c-5.13,0-7.35,4.46-7.35,11.74v10.85c0,3.79-1.93,5-4.61,5h-1.11c-2.83,0-4.75-1.11-4.75-5V675.73Z" transform="translate(-111.86 -167.47)"/>
    <path id="_Compound_Path_34" data-name="&lt;Compound Path&gt;" class="cls-7" d="M782.86,683.09h-3c-3,0-4.38-1.34-4.38-3.87v-0.59c0-2.45,1.34-3.72,4.38-3.72h3V673c0-10.1,5-13.89,12.56-13.89,6.39,0,9.21,2.75,9.21,5.72,0,2.53-2.08,4.46-2.23,4.23a7.63,7.63,0,0,0-5-1.93c-3,0-4.46,1.71-4.46,5.87v1.93h4.68c3,0,4.38,1.34,4.38,3.87v0.67c0,2.38-1.34,3.65-4.38,3.65h-4.31v23.4c0,3.87-1.86,5-4.68,5h-1.11c-2.68,0-4.68-1.19-4.68-5v-23.4Zm24.22-19.54c0-3.27,2.16-5.28,5.8-5.28s5.87,1.93,5.87,5.28-2.23,5.35-5.8,5.35S807.09,666.89,807.09,663.55Zm0.52,16c0-3.79,2-5.05,4.75-5.05h1c2.83,0,4.75,1.19,4.75,5.05v26.89c0,3.79-1.93,5-4.68,5h-1c-2.82,0-4.83-1.11-4.83-5V679.6Z" transform="translate(-111.86 -167.47)"/>
    <path id="_Compound_Path_35" data-name="&lt;Compound Path&gt;" class="cls-7" d="M826.33,675.73c0-.3,1.86-1.19,3.94-1.19,2.75,0,5.72,1.26,6.39,6.16,1.49-4.16,4.46-6.61,8.84-6.61s6.76,2.37,6.76,6.09c0,4.17-3.19,5.65-3.34,5.5a6.9,6.9,0,0,0-4.75-1.78c-5.13,0-7.35,4.46-7.35,11.74v10.85c0,3.79-1.93,5-4.61,5h-1.11c-2.82,0-4.75-1.11-4.75-5V675.73Z" transform="translate(-111.86 -167.47)"/>
    <path id="_Compound_Path_36" data-name="&lt;Compound Path&gt;" class="cls-7" d="M857.91,699.8a16.24,16.24,0,0,0,12,4.83c4.08,0,6.39-1.2,6.39-3.5,0-2.75-2.9-3.2-7.8-4.23s-12.78-2.75-12.78-11c0-7.06,5.95-11.74,15.16-11.74,9.81,0,14.71,3.57,14.71,7.73,0,2.75-3.19,4.68-3.41,4.46a14.33,14.33,0,0,0-10.62-4.83c-3.94,0-6.17,1.26-6.17,3.57,0,2.6,2.9,3,7.73,4.08,5.13,1.12,13.37,2.83,13.37,11.07,0,7.28-6,11.74-16,11.74-10.62,0-15.75-3.71-15.75-7.87C854.71,701.44,857.69,699.58,857.91,699.8Z" transform="translate(-111.86 -167.47)"/>
    <path id="_Compound_Path_37" data-name="&lt;Compound Path&gt;" class="cls-7" d="M895.88,683.09h-1.78c-3,0-4.38-1.26-4.38-3.65v-0.67c0-2.53,1.41-3.87,4.38-3.87h1.78v-4.6c0-3.42,1.78-5.05,4.75-5.05h0.89c2.82,0,4.68,1.19,4.68,5.05v4.6h6.32c3,0,4.23,1.26,4.23,3.72v0.59c0,2.53-1.34,3.87-4.31,3.87H906v15.45c0,3.57,1.19,5.35,4,5.35a5.68,5.68,0,0,0,4.68-2.45c0.15-.23,2.53,1.19,2.53,4.08,0,3.64-3.64,6.62-9.58,6.62-8,0-11.74-4.24-11.74-12.41V683.09Z" transform="translate(-111.86 -167.47)"/>
    <path id="_Compound_Path_38" data-name="&lt;Compound Path&gt;" class="cls-7" d="M938.67,696c1.56,5.05,6,7.65,12,7.65s9.44-2.6,9.44-6.83c0-4.46-2.83-6.62-8.54-6.62H949c-3.64,0-5.13-1.34-5.13-3.71v-0.59c0-2.53,1.71-3.72,5-3.72h3.57c4.46,0,6.83-2.15,6.83-5.57,0-3.79-3.27-6.09-8.77-6.09-6.24,0-9.36,3.34-10.77,6.91-0.07.45-6.31,0.23-6.31-5.12,0-5.05,6.69-10.18,17.23-10.18,12.19,0,18.95,4.68,18.95,13.15,0,5.05-2.9,8.39-8.4,10,6.09,2,9.36,6.24,9.36,12.18,0,9.21-7.28,14.64-19.91,14.64-11.74,0-18.43-5.8-18.43-10.93C932.21,695.71,938.6,695.57,938.67,696Z" transform="translate(-111.86 -167.47)"/>
    <path id="_Compound_Path_39" data-name="&lt;Compound Path&gt;" class="cls-7" d="M989.64,675.73c0-.3,1.86-1.19,3.94-1.19,2.68,0,5.57,1.19,6.32,5.8a13,13,0,0,1,11.22-6.24c6,0,9.88,2.82,11.59,7.43,2.45-4.16,6.24-7.43,12.26-7.43,9.21,0,13.07,5.86,13.07,14.41v18c0,3.79-1.93,5-4.61,5h-1.11c-2.83,0-4.75-1.11-4.75-5V690.22c0-4.83-2.16-7.35-6.32-7.35a8.46,8.46,0,0,0-7.2,4.46v19.16c0,3.79-1.86,5-4.61,5h-1c-2.82,0-4.83-1.11-4.83-5v-16q0-7.57-6.24-7.58a8.46,8.46,0,0,0-7.2,4.46v19.16c0,3.79-1.93,5-4.61,5H994.4c-2.83,0-4.75-1.11-4.75-5V675.73Z" transform="translate(-111.86 -167.47)"/>
    <path id="_Compound_Path_40" data-name="&lt;Compound Path&gt;" class="cls-7" d="M1073.08,674.1c11.44,0,19.31,7.8,19.31,19.09s-7.87,19-19.46,19-19.32-7.66-19.32-19.1C1053.62,681.9,1061.57,674.1,1073.08,674.1ZM1073,703.89c5.8,0,10.11-4.53,10.11-10.7s-4.24-10.92-10.11-10.92-10.18,4.53-10.18,10.77S1067.14,703.89,1073,703.89Z" transform="translate(-111.86 -167.47)"/>
    <path id="_Compound_Path_41" data-name="&lt;Compound Path&gt;" class="cls-7" d="M1098.35,675.73c0-.3,1.86-1.19,3.94-1.19,2.68,0,5.57,1.26,6.32,5.94a13.77,13.77,0,0,1,12-6.39c9.44,0,13.45,6.68,13.45,15v17.38c0,3.79-1.93,5-4.61,5h-1.11c-2.83,0-4.75-1.11-4.75-5V690.66c0-4.83-2.45-7.8-6.69-7.8a8.8,8.8,0,0,0-8,4.75v18.87c0,3.79-1.93,5-4.61,5h-1.11c-2.83,0-4.75-1.11-4.75-5V675.73Z" transform="translate(-111.86 -167.47)"/>
    <path id="_Compound_Path_42" data-name="&lt;Compound Path&gt;" class="cls-7" d="M1144,683.09h-1.78c-3,0-4.38-1.26-4.38-3.65v-0.67c0-2.53,1.41-3.87,4.38-3.87H1144v-4.6c0-3.42,1.78-5.05,4.75-5.05h0.89c2.82,0,4.68,1.19,4.68,5.05v4.6h6.32c3,0,4.23,1.26,4.23,3.72v0.59c0,2.53-1.34,3.87-4.31,3.87h-6.46v15.45c0,3.57,1.19,5.35,4,5.35a5.68,5.68,0,0,0,4.68-2.45c0.15-.23,2.53,1.19,2.53,4.08,0,3.64-3.64,6.62-9.58,6.62-8,0-11.74-4.24-11.74-12.41V683.09Z" transform="translate(-111.86 -167.47)"/>
    <path id="_Compound_Path_43" data-name="&lt;Compound Path&gt;" class="cls-7" d="M1170.64,660.72c0-.37,1.86-1.19,3.94-1.19,3.12,0,6.54,1.63,6.54,8.39v12.78a13,13,0,0,1,11.74-6.61c9.44,0,13.45,6.83,13.45,15.3v17.09c0,3.79-1.93,5-4.61,5h-1.11c-2.83,0-4.75-1.11-4.75-5v-15.6c0-5-2.53-8-6.62-8-5,0-8.1,3.27-8.1,8.47v15.15c0,3.79-1.93,5-4.61,5h-1.11c-2.83,0-4.75-1.11-4.75-5V660.72Z" transform="translate(-111.86 -167.47)"/>
    <path id="_Compound_Path_44" data-name="&lt;Compound Path&gt;" class="cls-7" d="M1214.55,699.8a16.23,16.23,0,0,0,12,4.83c4.09,0,6.39-1.2,6.39-3.5,0-2.75-2.9-3.2-7.8-4.23s-12.78-2.75-12.78-11c0-7.06,5.94-11.74,15.16-11.74,9.8,0,14.71,3.57,14.71,7.73,0,2.75-3.19,4.68-3.42,4.46a14.32,14.32,0,0,0-10.62-4.83c-3.94,0-6.17,1.26-6.17,3.57,0,2.6,2.9,3,7.73,4.08,5.13,1.12,13.37,2.83,13.37,11.07,0,7.28-6,11.74-16,11.74-10.63,0-15.75-3.71-15.75-7.87C1211.36,701.44,1214.33,699.58,1214.55,699.8Z" transform="translate(-111.86 -167.47)"/>
  </g>
</svg>
