<!-- Generator: Adobe Illustrator 18.1.0, SVG Export Plug-In  -->
<svg version="1.1"
	 xmlns="http://www.w3.org/2000/svg" xmlns:xlink="http://www.w3.org/1999/xlink" xmlns:a="http://ns.adobe.com/AdobeSVGViewerExtensions/3.0/"
	 x="0px" y="0px" width="142.3px" height="105.4px" viewBox="0 0 142.3 105.4" enable-background="new 0 0 142.3 105.4"
	 xml:space="preserve">
<defs>
</defs>
<g>
	<defs>
		<path id="SVGID_1_" d="M110,101.7H18.3c-2.4,0-4.3-1.9-4.3-4.3V4.3C14,1.9,15.9,0,18.3,0H110c2.4,0,4.3,1.9,4.3,4.3v93.1
			C114.3,99.8,112.4,101.7,110,101.7z"/>
	</defs>
	<clipPath id="SVGID_2_">
		<use xlink:href="#SVGID_1_"  overflow="visible"/>
	</clipPath>
	<g clip-path="url(#SVGID_2_)">
		<path fill="#8DDF00" d="M142.3,66.1c-22.9-9.1-46.8-14-70.9-14.2c-24.1-0.2-48,4.3-71.1,13L0,104.3l142,1.1L142.3,66.1z"/>
		<g>
			<path fill-rule="evenodd" clip-rule="evenodd" fill="#FFFFFF" d="M17,65.6L17,65.6C17,65.6,17,65.6,17,65.6
				c-0.1-0.3-0.7-0.4-1.3-0.3c-0.7,0.1-1.2,0.5-1.1,0.8c0,0,0,0,0,0.1c-0.1,0-0.1,0-0.2,0c-0.7,0.1-1.2,0.5-1.1,0.8
				c0.1,0.3,0.7,0.4,1.3,0.3c0,0,0.1,0,0.1,0c0,0,0,0,0,0.1c0.1,0.3,0.7,0.4,1.3,0.3c0.7-0.1,1.2-0.5,1.1-0.8c0,0,0-0.1-0.1-0.1
				c0,0,0.1,0,0.1,0c0.7-0.1,1.2-0.5,1.1-0.8C18.3,65.6,17.7,65.4,17,65.6z M15.8,66.5C15.8,66.5,15.8,66.5,15.8,66.5
				c0-0.1,0-0.1,0-0.1c0.1,0,0.1,0,0.2,0l0,0c0,0,0,0,0,0c0,0,0,0.1,0.1,0.1c0,0-0.1,0-0.1,0C15.8,66.5,15.8,66.5,15.8,66.5z"/>
			
				<ellipse transform="matrix(0.9813 -0.1927 0.1927 0.9813 -12.4907 4.3095)" fill-rule="evenodd" clip-rule="evenodd" fill="#FFC900" cx="15.9" cy="66.4" rx="0.8" ry="0.4"/>
		</g>
		<g>
			<path fill-rule="evenodd" clip-rule="evenodd" fill="#FFFFFF" d="M111.4,60L111.4,60C111.4,60,111.4,60,111.4,60
				c0-0.3-0.5-0.7-1.3-0.8c-0.7-0.1-1.4,0.1-1.4,0.4c0,0,0,0,0,0.1c-0.1,0-0.1,0-0.2,0c-0.7-0.1-1.4,0.1-1.4,0.4
				c0,0.3,0.5,0.7,1.3,0.7c0,0,0.1,0,0.1,0c0,0,0,0,0,0.1c0,0.3,0.5,0.7,1.3,0.7c0.7,0.1,1.4-0.1,1.4-0.4c0,0,0-0.1,0-0.1
				c0,0,0.1,0,0.1,0c0.7,0.1,1.4-0.1,1.4-0.4C112.7,60.4,112.2,60.1,111.4,60z M109.8,60.6C109.8,60.5,109.8,60.5,109.8,60.6
				c0-0.1,0-0.1,0-0.1c0.1,0,0.1,0,0.2,0l0,0c0,0,0,0,0,0c0,0,0,0.1,0,0.1c0,0-0.1,0-0.1,0C109.9,60.6,109.8,60.6,109.8,60.6z"/>
			
				<ellipse transform="matrix(0.9935 0.114 -0.114 0.9935 7.6109 -12.1456)" fill-rule="evenodd" clip-rule="evenodd" fill="#FFC900" cx="110" cy="60.5" rx="0.9" ry="0.4"/>
		</g>
		<g>
			<path fill-rule="evenodd" clip-rule="evenodd" fill="#FFFFFF" d="M103.2,62L103.2,62C103.2,62,103.2,62,103.2,62
				c0.1-0.3-0.4-0.6-1-0.7c-0.6-0.2-1.2-0.1-1.3,0.2c0,0,0,0,0,0.1c-0.1,0-0.1,0-0.2,0c-0.6-0.2-1.2-0.1-1.3,0.2
				c-0.1,0.2,0.4,0.6,1,0.7c0,0,0.1,0,0.1,0c0,0,0,0,0,0.1c-0.1,0.2,0.4,0.6,1,0.7c0.6,0.2,1.2,0.1,1.3-0.2c0,0,0-0.1,0-0.1
				c0,0,0.1,0,0.1,0c0.6,0.2,1.2,0.1,1.3-0.2C104.3,62.5,103.9,62.1,103.2,62z M101.8,62.2C101.8,62.2,101.8,62.2,101.8,62.2
				c0-0.1,0-0.1,0-0.1c0.1,0,0.1,0,0.2,0l0,0c0,0,0,0,0,0c0,0,0,0.1,0,0.1C101.9,62.3,101.9,62.2,101.8,62.2
				C101.8,62.2,101.8,62.2,101.8,62.2z"/>
			<path fill-rule="evenodd" clip-rule="evenodd" fill="#FFC900" d="M102.7,62.3c0,0.2-0.4,0.2-0.8,0.1c-0.4-0.1-0.7-0.3-0.7-0.5
				c0-0.2,0.4-0.2,0.8-0.1C102.5,62,102.8,62.2,102.7,62.3z"/>
		</g>
		<g>
			<path fill-rule="evenodd" clip-rule="evenodd" fill="#FFFFFF" d="M111.7,66.7L111.7,66.7C111.7,66.7,111.7,66.7,111.7,66.7
				c0.1-0.3-0.4-0.6-1-0.7c-0.6-0.2-1.2-0.1-1.3,0.1c0,0,0,0,0,0.1c-0.1,0-0.1,0-0.2,0c-0.6-0.2-1.2-0.1-1.3,0.1
				c-0.1,0.2,0.4,0.6,1,0.7c0,0,0.1,0,0.1,0c0,0,0,0,0,0.1c-0.1,0.2,0.4,0.6,1,0.7c0.6,0.2,1.2,0.1,1.3-0.1c0,0,0-0.1,0-0.1
				c0,0,0.1,0,0.1,0c0.6,0.2,1.2,0.1,1.3-0.1C112.8,67.2,112.3,66.9,111.7,66.7z M110.3,66.9C110.3,66.9,110.3,66.9,110.3,66.9
				c0-0.1,0-0.1,0-0.1c0.1,0,0.1,0,0.2,0l0,0c0,0,0,0,0,0c0,0,0,0.1,0,0.1C110.4,67,110.4,66.9,110.3,66.9
				C110.3,66.9,110.3,66.9,110.3,66.9z"/>
			<path fill-rule="evenodd" clip-rule="evenodd" fill="#FFC900" d="M111.2,67.1c-0.1,0.2-0.4,0.2-0.8,0.1c-0.4-0.1-0.7-0.3-0.7-0.5
				c0.1-0.2,0.4-0.2,0.8-0.1C111,66.7,111.2,66.9,111.2,67.1z"/>
		</g>
	</g>
</g>
</svg>
