<!-- Generator: Adobe Illustrator 18.1.0, SVG Export Plug-In  -->
<svg version="1.1"
	 xmlns="http://www.w3.org/2000/svg" xmlns:xlink="http://www.w3.org/1999/xlink" xmlns:a="http://ns.adobe.com/AdobeSVGViewerExtensions/3.0/"
	 x="0px" y="0px" width="129.5px" height="101.7px" viewBox="0 0 129.5 101.7" enable-background="new 0 0 129.5 101.7"
	 xml:space="preserve">
<defs>
</defs>
<g>
	<defs>
		<path id="SVGID_1_" d="M99,101.7H7.3c-2.4,0-4.3-1.9-4.3-4.3V4.3C3,1.9,4.9,0,7.3,0H99c2.4,0,4.3,1.9,4.3,4.3v93.1
			C103.3,99.8,101.4,101.7,99,101.7z"/>
	</defs>
	<clipPath id="SVGID_2_">
		<use xlink:href="#SVGID_1_"  overflow="visible"/>
	</clipPath>
	<g clip-path="url(#SVGID_2_)">
		<path display="none" fill="#FF371F" d="M63.2,8c30.7,0.2,55.7,24.2,57.7,54.3c0.7,0.2,1.3,0.4,2,0.7h6.6
			C126.2,30.3,98.7,4.7,65.2,4.5C31.8,4.2,4.2,29,0,61.2c1.6-0.5,3.2-1,4.8-1.5C8,30.4,33,7.7,63.2,8z"/>
		<path display="none" fill="#FF9200" d="M61.5,11c27.5,0.2,49.8,21.7,51.5,48.8c2.6,0.8,5.3,1.6,7.9,2.5
			C118.9,32.1,93.9,8.2,63.2,8C33,7.7,8,30.4,4.8,59.8c1.5-0.4,3-0.9,4.5-1.3C11.6,31.7,34.2,10.8,61.5,11z"/>
		<path display="none" fill="#FFE01F" d="M61.5,11C34.2,10.8,11.6,31.7,9.3,58.5c1.2-0.3,2.4-0.6,3.7-0.9
			c2.5-23.6,22.6-42,46.9-41.8C84,16,103.7,34.4,106,57.9c2.3,0.6,4.7,1.2,7,1.9C111.4,32.8,89,11.2,61.5,11z"/>
		<path fill="#8DDF00" d="M59.9,15.8C35.6,15.6,15.5,33.9,13,57.6c1.3-0.3,2.7-0.6,4-0.9c1.9-21.3,19.8-37.9,41.5-37.8
			c21.4,0.2,38.9,16.6,40.9,37.4c2.2,0.5,4.5,1,6.7,1.6C103.7,34.4,84,16,59.9,15.8z"/>
		<path display="none" fill="#00D3DF" d="M58.5,18.9C36.8,18.7,18.8,35.3,17,56.6c1-0.2,2-0.5,3-0.7c2-18.5,17.7-32.9,36.8-32.8
			c18.5,0.1,33.7,14,36.1,31.8c2.2,0.4,4.4,0.8,6.5,1.3C97.4,35.5,79.9,19.1,58.5,18.9z"/>
		<path display="none" fill="#B95FFF" d="M56.8,23.2C37.7,23.1,22,37.4,20,56c0.9-0.2,1.7-0.3,2.6-0.5C26,39,39.8,26.8,56.2,26.9
			C72.1,27,85.3,38.7,89,54.4c1.3,0.2,2.5,0.4,3.8,0.7C90.5,37.2,75.3,23.4,56.8,23.2z"/>
	</g>
</g>
</svg>
