<!-- Generator: Adobe Illustrator 18.1.0, SVG Export Plug-In  -->
<svg version="1.1"
	 xmlns="http://www.w3.org/2000/svg" xmlns:xlink="http://www.w3.org/1999/xlink" xmlns:a="http://ns.adobe.com/AdobeSVGViewerExtensions/3.0/"
	 x="0px" y="0px" width="80px" height="93px" viewBox="0 0 80 93" enable-background="new 0 0 80 93" xml:space="preserve">
<defs>
</defs>
<path fill="#FFFFFF" d="M80,15.2c0-3.1-2.5-5.5-5.5-5.5H5.5C2.5,9.6,0,12.1,0,15.2v72.3C0,90.5,2.5,93,5.5,93h64.8l9.6-9.6V15.2z"/>
<g>
	<g>
		<path fill="#FFFFFF" d="M15.3,18.3c-1.7,0-3-1.3-3-3V4c0-1.7,1.3-3,3-3h4c1.7,0,3,1.3,3,3v11.3c0,1.7-1.3,3-3,3H15.3z"/>
		<path fill="#7DAB2C" d="M19.3,2c1.1,0,2,0.9,2,2v11.3c0,1.1-0.9,2-2,2h-4c-1.1,0-2-0.9-2-2V4c0-1.1,0.9-2,2-2H19.3 M19.3,0h-4
			c-2.2,0-4,1.8-4,4v11.3c0,2.2,1.8,4,4,4h4c2.2,0,4-1.8,4-4V4C23.3,1.8,21.6,0,19.3,0L19.3,0z"/>
	</g>
	<g>
		<path fill="#FFFFFF" d="M60.7,18.3c-1.7,0-3-1.3-3-3V4c0-1.7,1.3-3,3-3h4c1.7,0,3,1.3,3,3v11.3c0,1.7-1.3,3-3,3H60.7z"/>
		<path fill="#7DAB2C" d="M64.7,2c1.1,0,2,0.9,2,2v11.3c0,1.1-0.9,2-2,2h-4c-1.1,0-2-0.9-2-2V4c0-1.1,0.9-2,2-2H64.7 M64.7,0h-4
			c-2.2,0-4,1.8-4,4v11.3c0,2.2,1.8,4,4,4h4c2.2,0,4-1.8,4-4V4C68.7,1.8,66.9,0,64.7,0L64.7,0z"/>
	</g>
</g>
<path fill="#C2C2C2" d="M80,83.3h-7.2c-1.3,0-2.4,1.1-2.4,2.4V93l0,0L80,83.3L80,83.3z"/>
</svg>
