<!-- Generator: Adobe Illustrator 18.1.0, SVG Export Plug-In  -->
<svg version="1.1"
	 xmlns="http://www.w3.org/2000/svg" xmlns:xlink="http://www.w3.org/1999/xlink" xmlns:a="http://ns.adobe.com/AdobeSVGViewerExtensions/3.0/"
	 x="0px" y="0px" width="72.8px" height="20px" viewBox="0 0 72.8 20" enable-background="new 0 0 72.8 20" xml:space="preserve">
<defs>
</defs>
<g>
	<path fill="#FFFFFF" d="M11.4,5.1c0,1.1-1.2,1.8-1.3,1.7C9.2,5.7,7.7,5,6.2,4.9c-1.6,0-2.5,0.7-2.5,1.7c0,1.2,1.3,1.6,3.1,2
		c2.1,0.5,5,1.4,5,4.4c0,2.4-1.7,4-4.4,4.4l0,0.9c0,1.1-0.4,1.6-1.4,1.6l-0.1,0c-1,0-1.3-0.5-1.3-1.6l0-0.9C1.6,17.2,0,15.9,0,14.6
		c0-1,1.1-1.7,1.2-1.6c0.9,1.1,2.6,2,4.4,2c1.7,0,2.6-0.7,2.6-1.7c0-1.3-1.4-1.7-3.1-2.1c-2.1-0.5-4.8-1.3-4.7-4.4
		c0-2.2,1.6-3.8,4.2-4.3l0-0.9C4.6,0.5,5,0,5.9,0l0.1,0c1,0,1.3,0.5,1.3,1.6l0,0.8C10,2.7,11.4,3.9,11.4,5.1z"/>
	<path fill="#FFFFFF" d="M24.8,11.4c1.1,0,1.5,0.4,1.5,1.3l0,0.1c0,0.9-0.4,1.3-1.5,1.3c0,0-0.4,0-1.2,0l0,2.3
		c0,1.1-0.5,1.6-1.5,1.6l-0.3,0c-0.9,0-1.4-0.6-1.4-1.6l0-2.3c-2.7,0-5.7,0-5.6,0c-1.2,0-1.9-0.6-1.9-1.5l0-0.6
		c0-0.6,0.2-1.1,0.7-1.8l4.7-6.4c0.7-1,1.2-1.3,2.9-1.3c1.8,0,2.5,0.6,2.5,2.3l-0.1,6.7L24.8,11.4z M20.7,11.4l0.1-6.6L16,11.4
		L20.7,11.4z"/>
	<path fill="#FFFFFF" d="M32.4,12.3c-3.1,0-5.1-1.7-5-4.6l0-0.1c0-3.1,2.5-5.4,6-5.4c4,0,6.5,2.7,6.5,7.2l0,1.5c0,4.7-2.5,7.2-7,7.2
		c-3.4,0-5.1-1.3-5.1-2.7c0-1.3,1.1-1.7,1.2-1.7c0.8,0.9,2,1.6,3.7,1.6c2.6,0,3.8-1.3,3.8-4.3l0-0.1C35.6,11.7,34.1,12.3,32.4,12.3z
		 M33.5,4.9c-1.6,0-2.8,1.1-2.8,2.6l0,0.1c0,1.5,1,2.4,2.7,2.4c1.2,0,2.3-0.5,3.1-1.3C36.4,6.3,35.3,4.9,33.5,4.9z"/>
	<path fill="#FFFFFF" d="M41.8,16.4l0-0.3c0-1,0.5-1.5,1.6-1.5l0.4,0c1.1,0,1.6,0.5,1.6,1.6l0,0.3c0,1-0.5,1.5-1.6,1.5l-0.4,0
		C42.3,18,41.8,17.5,41.8,16.4z"/>
	<path fill="#FFFFFF" d="M52.1,12.5c-3.1,0-5.1-1.7-5-4.6l0-0.1c0-3.1,2.5-5.4,6-5.4c4,0,6.5,2.7,6.5,7.2l0,1.5c0,4.7-2.5,7.2-7,7.2
		c-3.4,0-5.1-1.3-5.1-2.7c0-1.3,1.1-1.7,1.2-1.7c0.8,0.9,2,1.6,3.7,1.6c2.6,0,3.8-1.3,3.8-4.3l0-0.1C55.3,11.8,53.8,12.5,52.1,12.5z
		 M53.2,5.1c-1.6,0-2.8,1.1-2.8,2.6l0,0.1c0,1.5,1,2.4,2.7,2.4c1.2,0,2.3-0.5,3.1-1.3C56.1,6.5,55,5.1,53.2,5.1z"/>
	<path fill="#FFFFFF" d="M67.2,8.5c3.4,0,5.6,1.9,5.6,4.8c0,3.1-2.4,5-6.2,5c-3.6,0-5.6-1.6-5.6-3c0-1,1.3-1.7,1.4-1.6
		c1,1.3,2.4,2.1,4.2,2.1c2,0,3.2-0.9,3.2-2.4c0-1.5-1.1-2.4-3-2.5c-1.5,0-2.5,0.4-3.1,0.9c-1.3-0.1-2-0.6-2-2l0-5
		c0-1.2,0.6-1.9,1.7-1.9l7.4,0.1c1.1,0,1.6,0.5,1.6,1.4l0,0.1c0,0.9-0.5,1.3-1.6,1.3l-6.1,0l0,3.3C65.3,8.7,66.2,8.5,67.2,8.5z"/>
</g>
</svg>
