<svg class="gs-badge" xmlns="http://www.w3.org/2000/svg" xmlns:xlink="http://www.w3.org/1999/xlink" viewBox="0 0 259.86 93.52">
  <defs>
    <radialGradient id="radial-gradient" cx="45.99" cy="45.74" r="45.87" gradientUnits="userSpaceOnUse">
      <stop offset="0.21" stop-color="#ec1d6b"/>
      <stop offset="0.5" stop-color="#ec1a6b"/>
      <stop offset="1" stop-color="#a7226b"/>
    </radialGradient>
  </defs>
  <title>guaranteed-savings</title>
  <polygon class="shadow" points="259.86 20.76 85.09 20.76 85.24 20.47 78.58 20.17 78.81 13.53 72.26 14.44 71.03 7.93 64.85 10.06 62.25 4.04 56.66 7.28 52.84 2.04 48.05 6.26 43.23 2.04 39.39 7.06 33.82 4.04 31.07 9.66 25.04 7.95 23.47 13.96 17.26 13.6 16.93 19.76 10.82 20.75 11.74 26.82 6.02 29.07 8.14 34.82 3.05 38.22 6.31 43.4 2.04 47.78 6.31 52.17 3.05 57.34 8.14 60.74 6.02 66.49 11.74 68.74 10.82 74.81 16.93 75.8 17.26 81.96 23.47 81.61 25.04 87.61 31.07 85.9 33.82 91.52 39.39 88.5 43.23 93.52 48.05 89.31 52.84 93.52 56.66 88.28 62.25 91.52 64.85 85.5 71.03 87.61 72.26 81.09 78.81 81.96 78.58 75.26 85.24 74.4 85.18 73.76 259.86 73.76 246.18 46.08 259.86 20.76 259.86 20.76"/>
  <polygon class="white box" points="256.09 20.76 71.11 20.76 73.46 70.76 256.09 70.76 243.52 44.68 256.09 20.76 256.09 20.76"/>
  <polygon class="radial-gradient" style="fill:url(#radial-gradient)" points="46.01 4.21 50.8 0 54.62 5.24 60.2 2 62.81 8.02 68.99 5.91 70.22 12.44 76.77 11.56 76.53 18.27 83.2 18.71 81.5 25.25 88.01 27.03 84.93 33.1 90.98 36.18 86.68 41.47 91.98 45.74 86.68 50.01 90.98 55.3 84.93 58.38 88.01 64.45 81.5 66.23 83.2 72.77 76.53 73.22 76.77 79.92 70.22 79.05 68.99 85.57 62.81 83.46 60.2 89.48 54.62 86.24 50.8 91.48 46.01 87.27 41.19 91.48 37.35 86.46 31.78 89.48 29.03 83.86 23 85.57 21.43 79.56 15.22 79.92 14.88 73.76 8.78 72.77 9.7 66.7 3.98 64.45 6.1 58.7 1 55.3 4.26 50.13 0 45.74 4.26 41.35 1 36.18 6.1 32.78 3.98 27.03 9.7 24.78 8.78 18.71 14.88 17.72 15.22 11.56 21.43 11.92 23 5.91 29.03 7.62 31.78 2 37.35 5.02 41.19 0 46.01 4.21"/>
  <g>
    <path class="white" d="M17.94,50.39a3.06,3.06,0,0,1-3.55.92,3.14,3.14,0,0,1-1.81-3.07,4.28,4.28,0,0,1,5.16-4,1.68,1.68,0,0,1,1.32.82,1.07,1.07,0,0,1-.59,1.45c-0.54.16-.77-0.33-1.34-0.45a2,2,0,0,0-1.49.31A2.2,2.2,0,0,0,15,49.09c0.6,1.07,2.56,1,2.83-.33l-0.72.08c-0.56.06-1.08-.06-1-0.73,0-1.12,2.13-1,2.92-1.06,0.95-.11.75,1.09,0.75,1.72v2c0,0.27-.93.31-1,0.29a0.91,0.91,0,0,1-.75-0.72C17.75,50.68,18,50.55,17.94,50.39Z" transform="translate(-2.74 -4.24)"/>
    <path class="white" d="M23.8,50.65a2.62,2.62,0,0,1-3.2-2.84c0-1,0-2,0-3a1.12,1.12,0,0,1,1.22-1.14c1.47-.16,1,3,1,3.89a1,1,0,0,0,1.29,1.14,1.36,1.36,0,0,0,.78-1.51c0-.94,0-1.89,0-2.83a1.13,1.13,0,0,1,1.23-1.14c1.45-.16.94,3,0.94,3.88a3.32,3.32,0,0,1-3.21,3.52h0Z" transform="translate(-2.74 -4.24)"/>
    <path class="white" d="M29.88,48.45L29.67,49a1.44,1.44,0,0,1-1.4,1.14,0.83,0.83,0,0,1-.88-0.62,6.19,6.19,0,0,1,.67-1.8l1.58-4.24c0.33-1,2.28-1.05,2.75-.22a15.12,15.12,0,0,1,.7,1.66l1.63,3.87c0.27,0.62-1.39.84-1.67,0.73a1.36,1.36,0,0,1-.73-0.81,1.66,1.66,0,0,0-.18-0.47C31.78,48,30.34,48.4,29.88,48.45Zm1.86-1.76-0.75-2-0.76,2.11Z" transform="translate(-2.74 -4.24)"/>
    <path class="white" d="M41.5,48c0.28,0.41-1.09.86-1.24,0.88A1.4,1.4,0,0,1,39,48.37c-0.45-.45-0.83-1-1.23-1.49l-0.4,0v1.22a1.14,1.14,0,0,1-1.25,1.14c-1.5.16-.92-4.82-0.92-5.74,0-1.65,2.11-1.44,3.28-1.56s2.44,0,2.82,1.26a2.38,2.38,0,0,1-1.42,2.93Zm-3.21-2.69c0.72-.08,1.46-1,0.65-1.55a2.87,2.87,0,0,0-1.56,0v1.63Z" transform="translate(-2.74 -4.24)"/>
    <path class="white" d="M44.34,46.91l-0.21.56a1.44,1.44,0,0,1-1.4,1.14A0.83,0.83,0,0,1,41.86,48a6.2,6.2,0,0,1,.67-1.8l1.58-4.24c0.33-1,2.28-1.05,2.75-.22a15.21,15.21,0,0,1,.7,1.66l1.63,3.87c0.27,0.62-1.39.84-1.67,0.73a1.36,1.36,0,0,1-.73-0.81,1.67,1.67,0,0,0-.18-0.47C46.25,46.46,44.81,46.86,44.34,46.91Zm1.86-1.76-0.75-2L44.7,45.31Z" transform="translate(-2.74 -4.24)"/>
    <path class="white" d="M49.71,46.83V41.74a1,1,0,0,1,1.1-1.12c0.87-.09,1.49,1,2,1.61l1.5,1.8V41.25a1.07,1.07,0,0,1,1.12-1.13c1.27-.13.91,2,0.91,2.78v3.22a1,1,0,0,1-1,1.12c-0.88.1-1.49-1-2-1.59l-1.54-1.83v2.79C51.75,47.9,49.71,48.25,49.71,46.83Z" transform="translate(-2.74 -4.24)"/>
    <path class="white" d="M57.92,41.79a0.8,0.8,0,0,1-1-.88c0-1.21,1.71-1.08,2.56-1.17l2.93-.31a0.79,0.79,0,0,1,1,.83c0,1.16-1.31,1.08-2.14,1.17V45.6A1.15,1.15,0,0,1,60,46.74c-1.19.13-.9-1.57-0.9-2.32V41.67Z" transform="translate(-2.74 -4.24)"/>
    <path class="white" d="M64.29,45.93C63.74,45.42,64,43.82,64,43.17V40.48c0-1.36,1.22-1.34,2.22-1.45l2.61-.28a0.8,0.8,0,0,1,1,.87c0,1.38-2.71,1.19-3.67,1.29v0.7l1.77-.19a0.76,0.76,0,0,1,1,.77c0,1.23-1.92,1.08-2.78,1.17v0.81l2.71-.29a0.77,0.77,0,0,1,1,.8c0,1.28-1.79,1.14-2.69,1.24-0.66.07-2.34,0.54-2.91,0h0Z" transform="translate(-2.74 -4.24)"/>
    <path class="white" d="M70.95,45.22c-0.55-.51-0.29-2.12-0.29-2.77V39.77c0-1.36,1.22-1.34,2.22-1.45L75.5,38a0.8,0.8,0,0,1,1,.87c0,1.38-2.71,1.19-3.67,1.29v0.7l1.77-.19a0.76,0.76,0,0,1,1,.77c0,1.23-1.92,1.08-2.78,1.17v0.81l2.71-.29a0.77,0.77,0,0,1,1,.8c0,1.28-1.79,1.14-2.69,1.24-0.66.07-2.34,0.54-2.91,0h0Z" transform="translate(-2.74 -4.24)"/>
    <path class="white" d="M78.06,44.67c-1-.32-0.74-1.91-0.74-2.73V39.06c0-1.57,1.88-1.41,3-1.53a3.12,3.12,0,0,1,3.55,1.91,4,4,0,0,1-.66,3.63,4.44,4.44,0,0,1-3,1.47,5.72,5.72,0,0,1-2.11.13h0Zm2.15-2A1.87,1.87,0,0,0,81.73,40c-0.45-.86-1.46-0.66-2.25-0.58v3.32Z" transform="translate(-2.74 -4.24)"/>
    <path class="white" d="M28.52,61.91c-0.88.09-3.06,0.12-2.76-1.34a1.42,1.42,0,0,1,.69-0.9,3.76,3.76,0,0,1,.66.36,3.18,3.18,0,0,0,1,.23,1.43,1.43,0,0,0,1.34-.41c0.28-.63-0.53-0.63-0.94-0.67-1.24-.12-2.58-0.46-2.6-2a2.57,2.57,0,0,1,2-2.44c0.9-.28,3-0.62,3.57.48a1.11,1.11,0,0,1-.34,1.26,0.41,0.41,0,0,1-.46.18c-0.31,0-.71-0.38-1.06-0.45s-1.33-.11-1.54.38,0.58,0.57,1,.61c1.37,0.13,2.85.62,2.67,2.27s-1.71,2.24-3.14,2.4h0Z" transform="translate(-2.74 -4.24)"/>
    <path class="white" d="M34.5,59.67l-0.21.56a1.44,1.44,0,0,1-1.4,1.14A0.83,0.83,0,0,1,32,60.75a6.19,6.19,0,0,1,.67-1.8l1.58-4.24c0.32-1,2.28-1,2.75-.22a15.17,15.17,0,0,1,.7,1.66L39.35,60c0.27,0.62-1.39.84-1.67,0.73a1.35,1.35,0,0,1-.73-0.81,1.66,1.66,0,0,0-.18-0.47C36.41,59.22,35,59.62,34.5,59.67Zm1.86-1.76-0.75-2-0.76,2.11Z" transform="translate(-2.74 -4.24)"/>
    <path class="white" d="M43.38,54.14A1.4,1.4,0,0,1,44.79,53a1,1,0,0,1,1,.62,5.27,5.27,0,0,1-.65,1.63L43.52,59.4a1.37,1.37,0,0,1-2.5.23c-0.27-.5-0.47-1-0.7-1.56l-1.66-3.7c-0.3-.69,1.71-1,2.07-0.7a2.31,2.31,0,0,1,.65,1.25l0.91,2.79Z" transform="translate(-2.74 -4.24)"/>
    <path class="white" d="M46.45,58.89V53.8a1.1,1.1,0,0,1,1.23-1.14c1.31-.14.94,2,0.94,2.77v3.22C48.62,60,46.45,60.33,46.45,58.89Z" transform="translate(-2.74 -4.24)"/>
    <path class="white" d="M49.68,58.55V53.46a1,1,0,0,1,1.1-1.12c0.87-.09,1.49,1,2,1.61l1.5,1.8V53a1.07,1.07,0,0,1,1.12-1.13c1.27-.14.91,2,0.91,2.78v3.22a1,1,0,0,1-1,1.12c-0.88.1-1.49-1-2-1.59l-1.54-1.83v2.79C51.73,59.61,49.68,60,49.68,58.55Z" transform="translate(-2.74 -4.24)"/>
    <path class="white" d="M62.48,57.36a3.06,3.06,0,0,1-3.55.92,3.14,3.14,0,0,1-1.81-3.07,4.28,4.28,0,0,1,5.16-4,1.68,1.68,0,0,1,1.32.82A1.07,1.07,0,0,1,63,53.46c-0.54.16-.77-0.33-1.34-0.45a2,2,0,0,0-1.49.31,2.2,2.2,0,0,0-.66,2.73c0.6,1.07,2.57,1,2.83-.33l-0.72.08c-0.56.06-1.08-.06-1-0.74,0-1.12,2.13-1,2.92-1.06,0.95-.11.75,1.09,0.75,1.72v2c0,0.27-.93.31-1,0.29a0.91,0.91,0,0,1-.75-0.71C62.29,57.65,62.52,57.52,62.48,57.36Z" transform="translate(-2.74 -4.24)"/>
    <path class="white" d="M67.67,57.74c-0.88.09-3.06,0.12-2.76-1.34a1.42,1.42,0,0,1,.69-0.91,3.77,3.77,0,0,1,.66.36,3.17,3.17,0,0,0,1,.23,1.44,1.44,0,0,0,1.34-.41C68.86,55,68,55,67.64,55c-1.24-.12-2.58-0.45-2.6-2a2.57,2.57,0,0,1,2-2.44c0.89-.28,3-0.62,3.57.48a1.12,1.12,0,0,1-.34,1.26,0.41,0.41,0,0,1-.46.18c-0.31,0-.71-0.39-1.06-0.45s-1.33-.11-1.54.38,0.58,0.57,1,.61c1.37,0.13,2.85.62,2.67,2.27s-1.71,2.24-3.14,2.4h0Z" transform="translate(-2.74 -4.24)"/>
  </g>
  <path class="white" d="M30.73,37.15a0.51,0.51,0,0,1-.06-1L64,32.2a0.49,0.49,0,0,1,.56.44,0.51,0.51,0,0,1-.44.56L30.79,37.15H30.73Z" transform="translate(-2.74 -4.24)"/>
  <path class="white" d="M30.73,68.87a0.51,0.51,0,0,1-.06-1L64,63.92a0.5,0.5,0,0,1,.56.44,0.51,0.51,0,0,1-.44.56L30.79,68.86H30.73Z" transform="translate(-2.74 -4.24)"/>
  <g>
      <path class="grey" d="M122,53.9A4.08,4.08,0,0,1,117.68,50,4.36,4.36,0,1,1,122,53.9Zm0-2.36c2.26,0,2.28-3.65,0-3.64S119.75,51.54,122,51.54Z" transform="translate(-2.74 -4.24)"/>
      <path class="grey" d="M131,50.7L132.18,47a1.7,1.7,0,0,1,1.74-1.4c0.42,0,1.46.37,1.49,0.91a6.45,6.45,0,0,1-.82,1.92l-2,4.62c-0.48,1.12-2.74.87-3.28,0a15.3,15.3,0,0,1-.8-1.85l-2-4.7c-0.1-.39,1.14-0.82,1.39-0.87a1.64,1.64,0,0,1,1.43.41,3.59,3.59,0,0,1,.71,1.55Z" transform="translate(-2.74 -4.24)"/>
      <path class="grey" d="M138.93,51.45a2.48,2.48,0,0,0,1.88.24,2.13,2.13,0,0,0,.78-0.38,6.43,6.43,0,0,1,.49-0.56,1.44,1.44,0,0,1,1.2.59,1.27,1.27,0,0,1,0,1.43c-0.64,1-2.19,1.14-3.26,1.13a4.49,4.49,0,0,1-3.66-1.55,4.35,4.35,0,0,1,2.08-6.59,4.13,4.13,0,0,1,5.54,4c-0.06,1.2-1.81.8-2.65,0.8h-3A1.49,1.49,0,0,0,138.93,51.45Zm2.25-2.53c-0.1-1.84-2.69-1.72-2.92,0h2.92Z" transform="translate(-2.74 -4.24)"/>
      <path class="grey" d="M147.94,47c0.42-1.24,2.05-2.11,3.14-1a1.82,1.82,0,0,1,.39,1.76,1.62,1.62,0,0,1-.6.9c-0.4.22-.31,0.05-0.69-0.06-2.48-.7-2.12,2-2.12,3.67a1.39,1.39,0,0,1-1.68,1.49c-1.87,0-1.4-2.51-1.4-3.76V46c0-.43,1.48-0.36,1.72-0.29A1.8,1.8,0,0,1,147.94,47C148.09,46.6,147.87,46.77,147.94,47Z" transform="translate(-2.74 -4.24)"/>
      <path class="grey" d="M157.48,47.93a1.09,1.09,0,0,1-1.25-1.22,1.16,1.16,0,0,1,1.43-1.11V44.83a1.39,1.39,0,0,1,1.64-1.49c1.41,0,1.38,1.21,1.38,2.26h0.92a1.07,1.07,0,0,1,1.2,1.22c0,1.25-1.29,1.11-2.18,1.11V50.6c0,0.86.68,0.9,1.29,0.59,0.39-.19.42-0.37,0.74,0.14a1.44,1.44,0,0,1,.15,1.08c-0.38,1.61-2.91,1.71-4.07,1s-1.07-2-1.07-3.12C157.66,49.9,157.84,47.91,157.48,47.93Z" transform="translate(-2.74 -4.24)"/>
      <path class="grey" d="M167.89,45.85a3,3,0,0,1,3.09,0,3.33,3.33,0,0,1,1.26,2.88c0,1.14,0,2.28,0,3.42a1.39,1.39,0,0,1-1.67,1.49c-2,0-1.41-3.11-1.41-4.45A1.11,1.11,0,0,0,167.62,48a1.36,1.36,0,0,0-.7,1.41c0,0.9,0,1.8,0,2.71a1.39,1.39,0,0,1-1.68,1.49c-1.32,0-1.4-1.08-1.4-2.09V42.62c0-.6,1.95-0.24,2.18-0.1a2.34,2.34,0,0,1,.9,2.09c0,0.75,0,1.51,0,2.26a3.35,3.35,0,0,1,1-1h0Z" transform="translate(-2.74 -4.24)"/>
      <path class="grey" d="M176.58,51.34a2.48,2.48,0,0,0,1.88.24,2.13,2.13,0,0,0,.78-0.38,6.43,6.43,0,0,1,.49-0.56,1.44,1.44,0,0,1,1.2.59,1.27,1.27,0,0,1,0,1.43c-0.64,1-2.19,1.14-3.26,1.13A4.49,4.49,0,0,1,174,52.24a4.35,4.35,0,0,1,2.08-6.59,4.13,4.13,0,0,1,5.54,4c-0.06,1.2-1.81.8-2.65,0.8h-3A1.49,1.49,0,0,0,176.58,51.34Zm2.25-2.53c-0.1-1.84-2.69-1.72-2.92,0h2.92Z" transform="translate(-2.74 -4.24)"/>
      <path class="grey" d="M188.09,56.48c-0.42,0-1.62-.3-1.65-0.87a2.49,2.49,0,0,1,.36-0.75l0.94-2c-1.1-.25-1.57-2.35-2-3.23l-1.48-3.37c-0.09-.36,1-0.77,1.24-0.82a1.65,1.65,0,0,1,1.59.36,3.58,3.58,0,0,1,.68,1.45l1,3L190,46.8a1.72,1.72,0,0,1,2.52-1.18,0.82,0.82,0,0,1,.67.84,12.33,12.33,0,0,1-1.11,2.79l-2.32,5.86A1.82,1.82,0,0,1,188.09,56.48Z" transform="translate(-2.74 -4.24)"/>
      <path class="grey" d="M196.72,51.24a2.48,2.48,0,0,0,1.88.24,2.13,2.13,0,0,0,.78-0.38,6.43,6.43,0,0,1,.49-0.56,1.44,1.44,0,0,1,1.2.59,1.27,1.27,0,0,1,0,1.43c-0.64,1-2.19,1.14-3.26,1.13a4.49,4.49,0,0,1-3.66-1.55,4.35,4.35,0,0,1,2.08-6.59,4.13,4.13,0,0,1,5.54,4c-0.06,1.2-1.81.8-2.65,0.8h-3A1.49,1.49,0,0,0,196.72,51.24ZM199,48.71c-0.1-1.84-2.69-1.72-2.92,0H199Z" transform="translate(-2.74 -4.24)"/>
      <path class="grey" d="M206.33,47.54a1.71,1.71,0,0,0-1.4.68,1.16,1.16,0,0,1-.28.37,1.76,1.76,0,0,1-.95-0.07,1.28,1.28,0,0,1-.71-2.09c1.13-1.57,4.7-1.38,6.19-.56s1.44,2.43,1.44,3.89v3.5c0,0.48-1.55.35-1.81,0.27a1.67,1.67,0,0,1-1.12-1.22c-1.36,2.22-5.78,1.55-5.28-1.46,0.38-2.24,3.4-2.28,5.15-2.26A1.12,1.12,0,0,0,206.33,47.54Zm-0.1,4.21a1.39,1.39,0,0,0,1.35-1.64H207.2c-0.54,0-1.53,0-1.82.59A0.77,0.77,0,0,0,206.24,51.75Z" transform="translate(-2.74 -4.24)"/>
      <path class="grey" d="M214.94,46.83c0.42-1.24,2.05-2.11,3.14-1a1.82,1.82,0,0,1,.39,1.76,1.62,1.62,0,0,1-.6.9c-0.4.22-.31,0.05-0.69-0.06-2.48-.7-2.12,2-2.12,3.67a1.39,1.39,0,0,1-1.68,1.49c-1.87,0-1.4-2.51-1.4-3.76v-4c0-.43,1.48-0.36,1.72-0.29a1.8,1.8,0,0,1,1.24,1.35C215.09,46.38,214.86,46.56,214.94,46.83Z" transform="translate(-2.74 -4.24)"/>
  </g>
</svg>
