<svg xmlns="http://www.w3.org/2000/svg" viewBox="0 0 900 841.9"><path d="M822.3 522.36c0 14.2-29.5 33.6-30.7 47.7s15.3 38.7 15.4 52.9c0 19.9-31.7 38.2-39.2 52.9-5.1 9.9.9 34.1-3.4 44.4-7.6 17.9-39.5 45.6-58 51.2-58.8 17.7-245.6 0-245.6 0l-162-27.3v-293.4h24.4c19.6-4.5 60.6-31.1 111.3-160.3 8.2-21 23.9-33.1 41.8-47 29.8-22.9 52-55.2 59.5-171.4 1-16.1 51.2-13.6 78.5 22.1 22.3 29.3 25.3 86.4 7.6 129.4-12 29.4-55.8 97.3-40.1 124.8 0 0 161-6 192.7 6.9 20 8.1 49 50.1 47.7 71.6-.7 11.8-22.3 29.2-23.9 40.9-1.9 14.7 23.9 39.7 24 54.6zM265.6 779.26H116.1a38.41 38.41 0 0 1-38.4-38.4v-281.5A38.41 38.41 0 0 1 116.1 421h149.5v358.3z"/></svg>