<svg viewBox="0 0 13 13" version="1.1" xmlns="http://www.w3.org/2000/svg" xmlns:xlink="http://www.w3.org/1999/xlink" xmlns:sketch="http://www.bohemiancoding.com/sketch/ns">
    <ellipse id="outer-circle" fill="#0E91CF" cx="6.64610746" cy="6.41981908" rx="6.18818531" ry="6.18818531"></ellipse>
    <ellipse id="inner-circle" fill="#FFFFFF" cx="6.64610746" cy="6.41981908" rx="5.5" ry="5.5"></ellipse>
    <path id="info" d="M7.10251508,4.47226522 C7.54026801,4.47226522 7.83508121,4.15958455 7.83508121,3.73969909 C7.83508121,3.41808469 7.58493668,3.19474136 7.13825001,3.19474136 C6.70049708,3.19474136 6.40568388,3.50742202 6.40568388,3.92730749 C6.40568388,4.24892189 6.65582842,4.47226522 7.10251508,4.47226522 L7.10251508,4.47226522 Z M6.36994895,9.6448968 C7.03997895,9.6448968 7.11144881,9.20714387 7.10251508,9.19821013 C6.73623202,9.14460773 6.65582842,8.95699934 6.75409948,8.47457774 L7.33479215,5.76765655 C7.43306321,5.29416868 7.12931628,5.16016268 6.78983442,5.16016268 L6.65582842,5.16016268 C6.33421402,5.16016268 6.17340682,5.31203615 6.07513575,5.76765655 L5.50337682,8.4388428 C5.35150335,9.14460773 5.55697922,9.6448968 6.36994895,9.6448968 L6.36994895,9.6448968 Z" fill="#0E91CF"></path>
</svg>