<svg version="1.1" id="Layer_1" xmlns="http://www.w3.org/2000/svg" xmlns:xlink="http://www.w3.org/1999/xlink" x="0px" y="0px"
	 viewBox="0 0 65 65" enable-background="new 0 0 65 65" xml:space="preserve">
<circle fill="#FA0E6A" cx="32.5" cy="32.5" r="30"/>
<circle fill="#FFFFFF" cx="32.5" cy="32.5" r="27.5"/>
<g>
	<defs>
		<circle id="SVGID_1_" cx="32.5" cy="32.5" r="27.5"/>
	</defs>
	<clipPath id="SVGID_2_">
		<use xlink:href="#SVGID_1_"  overflow="visible"/>
	</clipPath>
	<path clip-path="url(#SVGID_2_)" fill-rule="evenodd" clip-rule="evenodd" fill="#D5D5D5" d="M48,60.3H17c-0.2,0-0.3-0.1-0.3-0.3
		V45.2c0-3.2,1.1-6.1,3.3-8.4c2.3-2.4,5-4,8.2-4h8.4c3.1,0,5.8,1.4,8,3.7c2.2,2.3,3.6,4.9,3.6,8.1v0.7l0.1,14.7
		C48.3,60.2,48.2,60.3,48,60.3"/>
	<path clip-path="url(#SVGID_2_)" fill-rule="evenodd" clip-rule="evenodd" fill="#FA0E6A" d="M24.2,46c0-4.3,3.5-7.8,7.8-7.8
		c4.3,0,7.8,3.5,7.8,7.8c0,4.3-3.5,7.8-7.8,7.8C27.7,53.8,24.2,50.3,24.2,46 M39.1,46c0,3.9-3.1,7-7,7c-3.9,0-7-3.1-7-7
		c0-3.9,3.1-7,7-7C35.9,39,39.1,42.1,39.1,46 M25.7,46c0,3.5,2.8,6.3,6.3,6.3c3.5,0,6.3-2.8,6.3-6.3c0-3.5-2.8-6.3-6.3-6.3
		C28.6,39.7,25.7,42.5,25.7,46 M27.7,45.2c-0.1-0.1-0.1-0.3,0-0.4l2.4-2.3c0.1-0.1,0.3-0.1,0.4,0l0.5,0.6c0.1,0.1,0.1,0.3,0,0.4
		l-2.4,2.3c-0.1,0.1-0.3,0.1-0.4,0L27.7,45.2 M28.6,48c0.2-0.2,0.6-0.2,0.8,0.1c0.6,0.8,1.5,1.2,2.6,1.2c1,0,2-0.5,2.6-1.2
		c0.3-0.3,0.6-0.3,0.8-0.1c0.2,0.2,0.5,0.4,0.1,0.8c-0.8,1-2.1,1.7-3.5,1.7c-1.4,0-2.7-0.6-3.5-1.7C28.2,48.3,28.4,48.2,28.6,48
		 M36.1,45.2c0.1-0.1,0.1-0.3,0-0.4l-2.4-2.3c-0.1-0.1-0.3-0.1-0.4,0l-0.5,0.6c-0.1,0.1-0.1,0.3,0,0.4l2.4,2.3
		c0.1,0.1,0.3,0.1,0.4,0L36.1,45.2"/>
	<path clip-path="url(#SVGID_2_)" fill-rule="evenodd" clip-rule="evenodd" fill="#CCCCCC" d="M36.3,32.8h-8c-3.2,0-6,1.5-8.2,4
		c-2.2,2.4-3.3,5.2-3.3,8.4v15.1h7.6l3.3-7.8l6.2-14L36.3,32.8"/>
	<path clip-path="url(#SVGID_2_)" fill-rule="evenodd" clip-rule="evenodd" fill="#EBADAD" d="M26.6,16c1.6-1.8,3.6-2.8,5.8-2.8
		c2.3,0,4.2,0.9,5.9,2.8c1.6,1.8,2.4,4.1,2.4,6.6c0,2.6-0.8,4.8-2.4,6.7c-1.6,1.8-3.6,2.7-5.9,2.7c-2.2,0-4.2-0.9-5.8-2.7
		c-1.6-1.8-2.4-4.1-2.4-6.7C24.2,20,25,17.8,26.6,16"/>
	<path clip-path="url(#SVGID_2_)" fill-rule="evenodd" clip-rule="evenodd" fill="#E3A4A1" d="M32.5,13.2c-2.2,0-4.2,0.9-5.8,2.8
		c-1.6,1.8-2.4,4.1-2.4,6.6c0,0.6,0.1,1.2,0.1,1.8c0.3-3.1,1.9-5.4,1.9-5.4s3.2,1.4,6.6,2.4c3.3,0.9,8.2,0.8,7.4,4.2
		c0,0-0.1,0.4-0.2,1c0.5-1.2,0.7-3.3,0.7-4.8v0c-0.2-2.2-1-4.2-2.4-5.8C36.7,14.2,34.8,13.2,32.5,13.2"/>
	<path clip-path="url(#SVGID_2_)" fill-rule="evenodd" clip-rule="evenodd" fill="#894C41" d="M23.7,24.8c0.6,0.4,1.2,0.9,1.7,1.3
		c-0.3-0.9-0.5-1.8-0.6-2.9c-0.2-4.5,1.8-5.9,1.8-5.9s2.1,1,5.6,1.4c4.2,0.4,7.4-0.2,7.4-0.2s0.8,4.6,0,7.9l1.6-1.4
		c0.8-4.1,2-10.7-3-13c-1.8-1.1-5.9-1.4-8.2-1.9c-2.5-0.5-2.1-2.6-2.1-2.6s-1.7,2.4-2.3,3.8c-0.2,0.4-0.8,1.3-1.2,2.4
		c-1.6,4.2-1.3,7-1.1,8.7C23.4,23.3,23.5,24.1,23.7,24.8"/>
	<path clip-path="url(#SVGID_2_)" fill-rule="evenodd" clip-rule="evenodd" fill="#FA0E6A" d="M33.2,38.3"/>
</g>
<path fill="#E80E63" d="M24.2,46c0,2.7,1.3,5,3.4,6.4l0.3-0.8C26.2,50.4,25,48.3,25,46c0-3.9,3.1-7,7-7c0.5,0,1,0.1,1.4,0.1l0.3-0.7
	c-0.6-0.1-1.2-0.2-1.8-0.2C27.7,38.2,24.2,41.7,24.2,46z"/>
<path fill="#E80E63" d="M25.7,46c0,2.1,1,3.9,2.5,5l0.7-1.7c-0.2-0.2-0.3-0.3-0.4-0.5c-0.4-0.5-0.1-0.7,0.1-0.8
	c0.2-0.2,0.6-0.2,0.8,0.1c0,0,0,0,0,0l3.7-8.3c-0.4-0.1-0.8-0.1-1.2-0.1C28.6,39.7,25.7,42.5,25.7,46z M31.1,43.5l-2.4,2.3
	c-0.1,0.1-0.3,0.1-0.4,0l-0.5-0.6c-0.1-0.1-0.1-0.3,0-0.4l2.4-2.3c0.1-0.1,0.3-0.1,0.4,0l0.5,0.6C31.3,43.2,31.3,43.4,31.1,43.5z"/>
</svg>
