<svg xmlns="http://www.w3.org/2000/svg" viewBox="0 0 300 40" enable-background="new 0 0 300 40" preserveAspectRatio="xMidYMid meet" xml:space="preserve"><path fill="#bc216b" d="M108.3 26.9v-3.4l12.2-8.1-.5-.7-11.7 7.7v-3.5l9.3-6.2-.5-.7-8.8 5.8v-3.5l6.6-4.4-.4-.7-6.2 4.1v-3.6l3.7-2.4-.5-.7-3.2 2.1v-1.7h-1v1.7l-3.3-2.1-.4.7 3.7 2.4v3.6l-6.2-4.1-.4.7 6.6 4.4v3.5l-8.8-5.8-.5.7 9.3 6.2v3.5l-11.7-7.7-.4.7 12.1 8.1v3.4l-11.7-7.6-.4.7 12.1 7.9v12.1h1v-12.1l12.2-7.9-.5-.7z"/><g fill="#bc216b"><path d="M38.5 17.5c0-7.8-6.6-14.1-14.8-14.1s-14.5 6.3-14.5 14.1c0 7.5 6.4 13.5 14.2 14v-3.6l-12.2-8 .4-.7 11.7 7.6v-3.4l-12.2-8.1.4-.7 11.7 7.7v-3.5l-9.3-6.1.4-.7 8.9 5.8v-3.5l-6.6-4.4.4-.7 6.2 4.1v-3.6l-3.7-2.4.4-.7 3.3 2.1v-1.7h1v1.7l3.2-2.1.6.7-3.7 2.4v3.5l6.2-4.1.5.8-6.6 4.4v3.5l8.8-5.8.5.7-9.2 6.1v3.5l11.5-7.6.5.7-12.1 8.1v3.4l11.6-7.6.5.7-12.1 8v3.6c7.7-.4 14.1-6.6 14.1-14.1zM23.9 31.6h-.5v8.4h1v-8.4h-.5z"/></g><path fill="#0E91CF" d="M24.4 13v-3M24.4 18v-4M24.4 22v-3M24.4 27v-4"/><circle fill="#bc216b" cx="98.8" cy="22" r="1.2"/><circle fill="#bc216b" cx="104.1" cy="20.8" r="1.2"/><circle fill="#bc216b" cx="97.5" cy="16.2" r="1.2"/><circle fill="#bc216b" cx="111.8" cy="7.8" r="1.2"/><circle fill="#bc216b" cx="102.3" cy="14.5" r="1.2"/><circle fill="#bc216b" cx="104.1" cy="25.8" r="1.2"/><circle fill="#bc216b" cx="116.4" cy="26.4" r="1.2"/><circle fill="#bc216b" cx="114.3" cy="33.8" r="1.2"/><circle fill="#bc216b" cx="124.2" cy="38.1" r="1.2"/><circle fill="#bc216b" cx="120.5" cy="19.5" r="1.2"/><circle fill="#bc216b" cx="113" cy="20" r="1.2"/><circle fill="#bc216b" cx="115.1" cy="13.7" r="1.2"/><circle fill="#bc216b" cx="111.4" cy="12.5" r="1.2"/><path fill="#bc216b" d="M275.8 31.6h-.5v8.4h1v-8.4h-.5zM275.6 3.4c-8.2 0-14.5 6.3-14.5 14.1 0 7.5 6.4 13.5 14.2 14v-3.6l-2-1.3c-.2.2-.5.4-.9.4-.7 0-1.2-.6-1.2-1.2 0-.2 0-.3.1-.5l-3.5-2.3c-.2.1-.4.3-.7.3-.7 0-1.2-.6-1.2-1.2 0-.1 0-.2.1-.3l-2.8-1.8.4-.7 2.8 1.8c.2-.2.5-.3.8-.3.7 0 1.2.6 1.2 1.2 0 .1 0 .2-.1.3l3.6 2.3c.2-.1.3-.1.5-.1.7 0 1.2.6 1.2 1.2l1.6 1.1v-3.4l-2.3-1.6c-.2.1-.3.1-.5.1-.7 0-1.2-.6-1.2-1.2l-5-3.3-.3.1c-.6 0-1.1-.5-1.2-1.1l-1.5-1 .4-.7 1.3.9c.2-.3.6-.5 1-.5.7 0 1.2.6 1.2 1.2 0 .2-.1.5-.2.6l4.6 3.1c.2-.2.5-.4.9-.4.7 0 1.2.6 1.2 1.2 0 .2 0 .3-.1.5l1.7 1.1v-3.5l-4.8-3.2c-.4 0-.7-.3-.9-.6l-3.5-2.3.4-.7 3 2c.2-.5.6-.8 1.2-.8.7 0 1.2.6 1.2 1.2 0 .3-.1.6-.4.9l3.8 2.5v-3.5l-6.6-4.4.4-.7 6.2 4.1v-3.7l-3.7-2.4.4-.7 3.3 2.1v-1.7h1v1.7l3.2-2.1.1.1c.2-.1.3-.1.5-.1.7 0 1.2.6 1.2 1.2s-.6 1.2-1.2 1.2-1.1-.5-1.2-1.1l-2.6 1.7v3.5l6.2-4.1.5.7-2.4 1.6c.3.2.5.6.5 1 0 .7-.6 1.2-1.2 1.2s-1-.4-1.2-.9l-2.2 1.5v3.5l6-4v-.2c0-.7.6-1.2 1.2-1.2.2 0 .4.1.6.2l1-.7.5.7-.9.6.1.4c0 .7-.6 1.2-1.2 1.2-.3 0-.6-.1-.8-.3l-6.4 4.2v3.5l3.8-2.5c.1-.6.6-1.1 1.2-1.1.1 0 .3 0 .4.1l6.2-4.1.5.7-6 4c.1.2.2.4.2.6 0 .7-.6 1.2-1.2 1.2-.4 0-.7-.2-1-.5l-4.1 2.7v3.4l11.7-7.6.5.7-4.9 3.2c.3.2.5.6.5 1 0 .7-.6 1.2-1.2 1.2s-1-.4-1.2-.9l-5.2 3.4v4.1c7.8-.4 14.2-6.5 14.2-14.1-.5-7.8-7.1-14.1-15.3-14.1zM192.3 26.9v-3.4l12.1-8.1-.4-.7-11.7 7.7v-3.5l9.2-6.2-.4-.7-8.8 5.8v-3.5l6.6-4.4-.5-.7-6.1 4.1v-3.6l3.7-2.4-.5-.7-3.2 2.1v-1.7h-1v1.7l-3.3-2.1-.4.7 3.7 2.4v3.6l-6.2-4.1-.4.7 6.6 4.4v3.5l-8.9-5.8-.4.7 9.3 6.2v3.5l-11.8-7.7-.4.7 12.2 8.1v3.4l-11.8-7.6-.4.7 12.2 7.9v12.1h1v-12.1l12.1-7.9-.4-.7z"/></svg>