<svg id="winky-loading" version="1.1" xmlns="http://www.w3.org/2000/svg" xmlns:xlink="http://www.w3.org/1999/xlink" x="0px" y="0px" viewBox="0 0 640 640" enable-background="new 0 0 640 640" xml:space="preserve">
	<circle fill-rule="evenodd" clip-rule="evenodd" fill="#ffffff" cx="320" cy="320" r="243"/>
	<g>
		<path fill-rule="evenodd" clip-rule="evenodd" fill="#C54180" d="M452.8,410.4c-30,39.3-79.2,62.7-132.6,62.7
			c-53.7,0-103.2-23.5-132.9-63.3c-14.1-18.7-5.6-24.6,3.3-31.9c9-7.4,22.5-8.5,32.1,3.3c23,28.3,58.2,46.4,97.5,46.4
			c39.2,0,74.2-18,97.2-46c9.7-11.7,23.1-10.5,32.1-3.2C458.5,385.7,466.7,392,452.8,410.4z"/>
		<path fill-rule="evenodd" clip-rule="evenodd" fill="#C54180" d="M161.4,273.5c-4.4-4.6-4.1-11.9,0.5-16.2l92.3-86.4
			c4.6-4.4,11.9-4.1,16.2,0.6l20.5,22c4.3,4.7,4.1,12-0.6,16.3L198,296.1c-4.6,4.4-11.8,4.1-16.2-0.5L161.4,273.5z"/>
		<path fill-rule="evenodd" clip-rule="evenodd" fill="#C54180" d="M478.7,273.5l-20.4,22.1c-4.3,4.6-11.6,4.9-16.2,0.5l-92.3-86.4
			c-4.6-4.3-4.9-11.6-0.6-16.3l20.5-22c4.3-4.7,11.6-4.9,16.2-0.6l92.3,86.4C482.8,261.6,483,268.9,478.7,273.5z"/>
	</g>
	<path fill="none" d="M589,320c0-148.6-120.4-269-269-269v538C468.6,589,589,468.6,589,320z"/>
	<path fill="none" d="M51,320c0,148.6,120.4,269,269,269V51C171.4,51,51,171.4,51,320z"/>
	<g id="outer-circle">
		<animateTransform attributeType="xml" attributeName="transform" type="rotate" from="0 320 320" to="360 320 320" dur="2s" repeatCount="indefinite"/>
		<linearGradient id="SVGID_1_" gradientUnits="userSpaceOnUse" x1="322.1222" y1="172.5812" x2="617.3835" y2="167.4274">
			<stop  offset="0" style="stop-color:#C54180"/>
			<stop  offset="1" style="stop-color:#ffffff"/>
		</linearGradient>
		<path fill="url(#SVGID_1_)" d="M320,20c8.6,0,15.5,6.9,15.5,15.5S328.6,51,320,51c148.6,0,269,120.4,269,269h31
			C620,154.3,485.7,20,320,20z"/>
		<path fill="#ffffff" d="M589,320c0,148.6-120.4,269-269,269S51,468.6,51,320S171.4,51,320,51c8.6,0,15.5-6.9,15.5-15.5
			S328.6,20,320,20C154.3,20,20,154.3,20,320s134.3,300,300,300s300-134.3,300-300H589z"/>
	</g>
</svg>
