<svg id="Layer_1" xmlns="http://www.w3.org/2000/svg" viewBox="54 3.2 560 146"><style>.st0{fill:#FFFFFF;}</style><path class="st0" d="M107.1 126c-7.2 0-13.7-1.2-19.4-3.6-5.7-2.4-10.4-5.4-14-9.1-1.7-1.7-3-3.3-3.9-5-.9-1.7-1.4-3-1.4-3.9 0-1.3.5-2.2 1.6-2.8 1.1-.5 1.7-.7 2-.4 2.6 5.6 7 10.2 13.2 13.9 6.2 3.7 13.6 5.5 22.1 5.5 10.5 0 18.9-2.8 25.1-8.4 6.2-5.6 9.3-13.3 9.3-23.1 0-4.5-.8-8.6-2.4-12.2-1.6-3.6-3.9-6.7-6.8-9.2-2.9-2.5-6.4-4.5-10.4-6-4-1.4-8.5-2.1-13.5-2.1-5.3 0-10.7.7-16.1 2-5.4 1.3-10.4 3.6-15 6.9-2.8-.1-4.3-1.6-4.3-4.4V13.6c0-2.7 1.4-4.1 4.1-4.1h61.1c1.9 0 2.8.8 2.8 2.5v.5c0 1.5-.9 2.3-2.8 2.3H79.1v47.3c4.6-3 9.5-5 14.7-6.1 5.2-1.1 10.2-1.7 15.2-1.7 5.7 0 10.9.8 15.7 2.5 4.8 1.7 8.9 4 12.3 7s6 6.7 7.9 11c1.9 4.3 2.8 9.1 2.8 14.3 0 5.7-.9 10.8-2.8 15.4s-4.6 8.4-8.1 11.6c-3.5 3.2-7.7 5.7-12.7 7.4s-10.7 2.5-17 2.5zM176.2 68.4c2.3-2.4 5.1-4.6 8.3-6.6 3.2-2 6.8-3.5 10.9-4.7 4.1-1.2 8.6-1.8 13.6-1.8 5.8 0 11 .8 15.7 2.4 4.7 1.6 8.7 3.9 12.1 6.8 3.4 3 6 6.5 7.8 10.6 1.8 4.1 2.8 8.6 2.8 13.6v.5c0 5.3-1 10.2-2.9 14.7-2 4.4-4.7 8.3-8.1 11.6-3.4 3.3-7.6 5.9-12.4 7.7-4.9 1.8-10.1 2.8-15.8 2.8-6.4 0-12.2-1.1-17.5-3.4-5.3-2.2-9.8-5.5-13.6-9.9-3.8-4.3-6.8-9.7-8.9-16.2-2.1-6.5-3.2-13.8-3.2-22.1v-13c0-17.2 3.9-30.4 11.6-39.6 7.8-9.2 18.5-13.9 32.1-13.9 6.6 0 12.3 1 17.1 3.1 4.7 2.1 8.5 4.5 11.4 7.4 1.9 1.9 3.3 3.7 4.1 5.4.8 1.7 1.2 3.1 1.2 4 0 1.1-.5 1.9-1.5 2.5-1 .6-1.6.8-1.9.7-.9-2.2-2.3-4.4-4.1-6.6-1.8-2.1-3.9-4.1-6.5-5.8-2.5-1.7-5.5-3.1-8.7-4.1-3.3-1-7-1.5-11.1-1.5-11.8 0-21.1 4.1-27.8 12.4-6.7 8.2-10 20.1-10 35.6v14.9c1.2-2.6 3-5.1 5.3-7.5zm31.5 52.5c5 0 9.5-.8 13.7-2.3 4.1-1.5 7.7-3.7 10.7-6.5 3-2.8 5.3-6.1 6.9-9.9 1.7-3.8 2.5-7.9 2.5-12.4v-.7c0-8.8-2.9-15.8-8.8-21-5.9-5.2-13.9-7.8-24.1-7.8-4.5 0-8.8.6-12.8 1.7s-7.7 2.7-10.9 4.7c-3.3 2-6 4.3-8.4 6.9-2.3 2.6-4.1 5.5-5.2 8.5 1.3 12.9 5.2 22.6 11.8 29.1 6.6 6.5 14.8 9.7 24.6 9.7zM259.3 147.5c-.4.1-.8 0-1.2-.1-.4-.1-.7-.3-1-.6-.2-.3-.3-.7-.2-1.2l10.5-28.3c.5-1.2.9-2 1.2-2.6.4-.5 1.1-.8 2.1-.8h.5c1.8 0 2.7 1 2.7 3v.4c0 .6-.1 1.2-.3 2-.2.7-.6 1.5-1.2 2.5L260.1 147c-.1.2-.3.4-.8.5zM333 126c-6.8 0-12.9-1.3-18.3-3.8-5.5-2.5-10.1-6.2-13.9-10.8-3.9-4.7-6.8-10.3-8.9-16.9-2.1-6.6-3.1-14-3.1-22.1V61.7c0-8.2 1.1-15.6 3.2-22.2s5.1-12.3 9-17c3.8-4.7 8.5-8.3 13.9-10.8s11.6-3.8 18.3-3.8c6.6 0 12.7 1.3 18.1 3.8 5.4 2.5 10.1 6.2 13.9 10.8 3.8 4.7 6.8 10.3 9 16.9 2.1 6.6 3.2 13.9 3.2 22.1v10.7c0 8.2-1.1 15.5-3.2 22.1-2.1 6.6-5.1 12.2-9 17-3.9 4.7-8.5 8.4-13.9 10.9-5.4 2.6-11.5 3.8-18.3 3.8zm0-5.1c5.9 0 11.2-1.2 15.9-3.5 4.7-2.3 8.7-5.6 12.1-9.8 3.4-4.2 6-9.3 7.7-15.3 1.8-6 2.7-12.7 2.7-20.2V61.9c0-7.5-.9-14.2-2.8-20.2-1.8-6-4.4-11.1-7.7-15.4-3.3-4.3-7.3-7.6-12.1-9.9-4.7-2.3-10-3.5-15.8-3.5-5.8 0-11.1 1.2-15.8 3.5-4.7 2.3-8.8 5.6-12.1 9.8-3.3 4.2-5.9 9.3-7.7 15.3-1.8 6-2.8 12.7-2.8 20.2V72c0 7.5.9 14.2 2.8 20.2 1.8 6 4.4 11.1 7.7 15.4 3.3 4.3 7.3 7.6 12.1 9.9 4.7 2.2 10 3.4 15.8 3.4zM443.4 126c-6.8 0-12.9-1.3-18.3-3.8-5.5-2.5-10.1-6.2-13.9-10.8-3.9-4.7-6.8-10.3-8.9-16.9-2.1-6.6-3.1-14-3.1-22.1V61.7c0-8.2 1.1-15.6 3.2-22.2s5.1-12.3 9-17c3.8-4.7 8.5-8.3 14-10.8 5.4-2.5 11.6-3.8 18.3-3.8 6.6 0 12.7 1.3 18.1 3.8 5.4 2.5 10.1 6.2 13.9 10.8 3.8 4.7 6.8 10.3 9 16.9 2.1 6.6 3.2 13.9 3.2 22.1v10.7c0 8.2-1.1 15.5-3.2 22.1-2.1 6.6-5.1 12.2-9 17-3.9 4.7-8.5 8.4-13.9 10.9-5.6 2.6-11.7 3.8-18.4 3.8zm0-5.1c5.9 0 11.2-1.2 15.9-3.5 4.7-2.3 8.7-5.6 12.1-9.8 3.4-4.2 6-9.3 7.7-15.3 1.8-6 2.7-12.7 2.7-20.2V61.9c0-7.5-.9-14.2-2.8-20.2-1.8-6-4.4-11.1-7.7-15.4-3.3-4.3-7.3-7.6-12.1-9.9-4.7-2.3-10-3.5-15.8-3.5-5.8 0-11.1 1.2-15.8 3.5-4.7 2.3-8.8 5.6-12.1 9.8-3.3 4.2-5.9 9.3-7.7 15.3-1.8 6-2.8 12.7-2.8 20.2V72c0 7.5.9 14.2 2.8 20.2 1.8 6 4.4 11.1 7.7 15.4 3.3 4.3 7.3 7.6 12.1 9.9 4.7 2.2 9.9 3.4 15.8 3.4zM553.7 126c-6.8 0-12.9-1.3-18.3-3.8-5.5-2.5-10.1-6.2-13.9-10.8-3.9-4.7-6.8-10.3-8.9-16.9-2.1-6.6-3.1-14-3.1-22.1V61.7c0-8.2 1.1-15.6 3.2-22.2s5.1-12.3 9-17c3.8-4.7 8.5-8.3 14-10.8 5.4-2.5 11.6-3.8 18.3-3.8 6.6 0 12.7 1.3 18.1 3.8 5.4 2.5 10.1 6.2 13.9 10.8 3.8 4.7 6.8 10.3 9 16.9 2.1 6.6 3.2 13.9 3.2 22.1v10.7c0 8.2-1.1 15.5-3.2 22.1-2.1 6.6-5.1 12.2-9 17-3.9 4.7-8.5 8.4-13.9 10.9-5.5 2.6-11.6 3.8-18.4 3.8zm0-5.1c5.9 0 11.2-1.2 15.9-3.5 4.7-2.3 8.7-5.6 12.1-9.8 3.4-4.2 6-9.3 7.7-15.3 1.8-6 2.7-12.7 2.7-20.2V61.9c0-7.5-.9-14.2-2.8-20.2-1.8-6-4.4-11.1-7.7-15.4-3.3-4.3-7.3-7.6-12.1-9.9-4.7-2.3-10-3.5-15.8-3.5-5.8 0-11.1 1.2-15.8 3.5-4.7 2.3-8.8 5.6-12.1 9.8-3.3 4.2-5.9 9.3-7.7 15.3-1.8 6-2.8 12.7-2.8 20.2V72c0 7.5.9 14.2 2.8 20.2 1.8 6 4.4 11.1 7.7 15.4 3.3 4.3 7.3 7.6 12.1 9.9 4.7 2.2 10 3.4 15.8 3.4z"/></svg>