<?xml version="1.0" encoding="utf-8"?>
<!-- Generator: Adobe Illustrator 21.1.0, SVG Export Plug-In . SVG Version: 6.00 Build 0)  -->
<svg version="1.1" id="Layer_1" xmlns="http://www.w3.org/2000/svg" xmlns:xlink="http://www.w3.org/1999/xlink" x="0px" y="0px"
	 viewBox="0 0 482 331" style="enable-background:new 0 0 482 331;" xml:space="preserve">
<style type="text/css">
	.st0{fill:#EBEBEB;}
	.st1{fill:#FA0E6A;}
	.st2{fill:#7D7D7D;}
	.st3{fill:#FFFFFF;}
	.st4{fill:none;stroke:#7D7D7D;stroke-width:2.2;stroke-linecap:round;stroke-miterlimit:10;}
</style>
<g id="Light_grey_x5F_Screen">
</g>
<g id="Banner_x5F_White">
</g>
<g>
	<rect class="st0" width="481.5" height="330.9"/>
	<g>
		<g>
			<g>
				<path class="st1" d="M212.1,43.2c0-2.7,1.3-4.1,3.7-4.1h11.6c2.3,0,3.4,1,3.4,3v0.2c0,2-1.1,3.1-3.4,3.1h-8.1v3.9h5.5
					c2.4,0,3.4,1,3.4,2.8v0.1c0,1.9-1,3-3.4,3h-5.3v4.6c0,2.3-1.1,3.5-3.2,3.5h-1.2c-2,0-3.1-1.6-3.1-4.3V43.2H212.1z"/>
				<path class="st1" d="M233,43.2c0-2.7,1.3-4.1,3.7-4.1h7.3c6.6,0,9.9,2.8,9.9,7.9c0,3.5-1.8,6.1-5.1,7.1l5.3,6.7
					c0.2,0.3-1.1,2.6-4.2,2.6c-2.3,0-3.4-1-4.9-3.2l-3.4-4.5h-1.3v4.2c0,2.2-1.1,3.5-3.2,3.5h-1c-2,0-3.1-1.6-3.1-4.3V43.2z
					 M243.3,50.3c2.2,0,3.3-1,3.3-2.8c0-1.9-1.1-2.8-3.4-2.8h-3v5.6H243.3z"/>
				<path class="st1" d="M256.8,43.2c0-2.7,1.3-4.1,3.7-4.1h12.6c2.3,0,3.4,1.2,3.4,3.1v0.2c0,2-1.1,3.1-3.4,3.1h-9v2.4h6
					c2.4,0,3.4,1,3.4,2.9v0.1c0,1.9-1,3-3.4,3h-6v2.8h9.2c2.3,0,3.4,1,3.4,2.9v0.2c0,2-1.1,3.3-3.4,3.3h-12.8
					c-2.4,0-3.7-1.4-3.7-4.1L256.8,43.2L256.8,43.2z"/>
				<path class="st1" d="M279.4,43.2c0-2.7,1.3-4.1,3.7-4.1h12.6c2.3,0,3.4,1.2,3.4,3.1v0.2c0,2-1.1,3.1-3.4,3.1h-9v2.4h6
					c2.4,0,3.4,1,3.4,2.9v0.1c0,1.9-1,3-3.4,3h-6v2.8h9.2c2.3,0,3.4,1,3.4,2.9v0.2c0,2-1.1,3.3-3.4,3.3h-12.8
					c-2.4,0-3.7-1.4-3.7-4.1L279.4,43.2L279.4,43.2z"/>
			</g>
			<g>
				<path class="st1" d="M312.9,43.2c0-2.7,1.3-4.1,3.7-4.1h6.3c6.8,0,10.5,3,10.5,8.7s-3.6,8.6-10.2,8.6h-2.9v3.5
					c0,2.2-1.1,3.5-3.2,3.5H316c-1.9,0-3.1-1.2-3.1-3.5V43.2z M322.8,50.9c2.2,0,3.4-1.1,3.4-3.1s-1.2-3.1-3.5-3.1h-2.6v6.2
					C320.1,50.9,322.8,50.9,322.8,50.9z"/>
				<path class="st1" d="M347.1,38.5c7.3,0,12.5,5.2,12.5,12.5s-5.2,12.6-12.5,12.6s-12.5-5.2-12.5-12.6
					C334.6,43.8,339.8,38.5,347.1,38.5z M347.1,57c3.1,0,5.2-2.3,5.2-5.9c0-3.5-2.1-5.9-5.2-5.9c-3.2,0-5.3,2.3-5.3,5.9
					C341.8,54.6,343.9,57,347.1,57z"/>
				<path class="st1" d="M360.4,41.5c-0.1-0.3,1.5-2.5,4.6-2.5c1.5,0,3.4,0.8,4,4l2,10.4l2.5-9.4c0.4-1.9,2-2.7,4-2.7
					c1.9,0,3.5,1,3.9,2.7l2.5,9.4l2-10.5c0.5-2.9,2.3-3.9,4-3.9c2.9,0,4.4,2.2,4.3,2.5l-5.4,19c-0.5,2.1-2,2.9-4.3,2.9
					c-2.2,0-3.7-0.7-4.3-2.9l-2.8-9.9l-2.7,9.9c-0.6,2.2-2.2,2.9-4.4,2.9c-2.3,0-3.7-0.6-4.2-2.9L360.4,41.5z"/>
				<path class="st1" d="M397,43.2c0-2.7,1.3-4.1,3.7-4.1h12.6c2.3,0,3.4,1.2,3.4,3.1v0.2c0,2-1.1,3.1-3.4,3.1h-9v2.4h6
					c2.4,0,3.4,1,3.4,2.9v0.1c0,1.9-1,3-3.4,3h-6v2.8h9.2c2.3,0,3.4,1,3.4,2.9v0.2c0,2-1.1,3.3-3.4,3.3h-12.8
					c-2.4,0-3.7-1.4-3.7-4.1L397,43.2L397,43.2z"/>
				<path class="st1" d="M419.6,43.2c0-2.7,1.3-4.1,3.7-4.1h7.3c6.6,0,9.9,2.8,9.9,7.9c0,3.5-1.8,6.1-5.1,7.1l5.3,6.7
					c0.2,0.3-1.1,2.6-4.2,2.6c-2.3,0-3.4-1-4.9-3.2l-3.4-4.5h-1.3v4.2c0,2.2-1.1,3.5-3.2,3.5h-1c-2,0-3.1-1.6-3.1-4.3L419.6,43.2
					L419.6,43.2z M429.8,50.3c2.2,0,3.3-1,3.3-2.8c0-1.9-1.1-2.8-3.4-2.8h-3v5.6H429.8z"/>
			</g>
			<g>
				<path class="st2" d="M218.1,73.6c3.3,0,5.3,2.2,5.3,5.2c0,4.3-3.3,7.2-6.5,7.2c-3.3,0-5.3-2.2-5.3-5.2
					C211.6,76.6,214.8,73.6,218.1,73.6z M216.9,84.9c2.5,0,5.1-2.5,5.1-6.1c0-2.3-1.4-4.2-4.1-4.2c-2.5,0-5.1,2.5-5.1,6.1
					C212.9,83,214.3,84.9,216.9,84.9z"/>
				<path class="st2" d="M225,74.1c0-0.1,0.3-0.4,0.7-0.4c0.3,0,0.6,0.2,0.7,0.7l1.8,10.1l6-10.7c0,0,0.9-0.1,0.9,0.7
					c0,0.2-0.1,0.5-0.3,0.9L229,85.6c-0.2,0.3-0.4,0.4-0.8,0.4c-0.6,0-0.8-0.2-0.9-0.6L225,74.1z"/>
				<path class="st2" d="M236.9,74.6c0.1-0.5,0.4-0.8,0.9-0.8h7c0.4,0,0.6,0.1,0.6,0.3c0,0.2-0.1,0.6-0.2,0.7
					c-0.1,0.1-0.2,0.1-0.5,0.1h-6.5l-0.9,4.1h5.2c0.4,0,0.5,0.1,0.5,0.3c0,0.2-0.1,0.6-0.2,0.7c-0.1,0.1-0.2,0.1-0.5,0.1H237
					l-0.9,4.5h6.6c0.4,0,0.6,0.1,0.6,0.3c0,0.2-0.1,0.6-0.2,0.7c-0.1,0.1-0.2,0.1-0.5,0.1h-7c-0.5,0-0.8-0.3-0.7-0.8L236.9,74.6z"/>
				<path class="st2" d="M247.4,74.6c0.1-0.5,0.4-0.8,0.9-0.8h2.9c2.5,0,3.9,1,3.9,3c0,2.5-1.7,4-4.5,4h-0.2l1.6,2.9
					c0.5,1,0.9,1.4,1.7,1.4c0,0,0.1,0.9-0.9,0.9c-0.6,0-1.1-0.3-2-1.8l-1.8-3.3h-1.7l-1,4.5c-0.1,0.4-0.3,0.6-0.6,0.6h-0.2
					c-0.4,0-0.5-0.2-0.4-0.6L247.4,74.6z M250.7,79.7c2,0,3.1-1,3.1-2.8c0-1.3-1-2-2.7-2h-2.5l-1,4.8H250.7z"/>
				<path class="st2" d="M262.6,80.8l-2.9-6.6c0-0.1,0.3-0.5,0.7-0.5c0.3,0,0.5,0.2,0.6,0.5l2.3,5.5l5-6c0,0,0.7,0.1,0.7,0.7
					c0,0.3-0.1,0.5-0.5,1l-4.8,5.5l-0.9,4.4c-0.1,0.4-0.3,0.6-0.7,0.6h-0.2c-0.3,0-0.5-0.1-0.4-0.6L262.6,80.8z"/>
				<path class="st2" d="M275.7,73.6c3.3,0,5.3,2.2,5.3,5.2c0,4.3-3.3,7.2-6.5,7.2c-3.3,0-5.3-2.2-5.3-5.2
					C269.2,76.6,272.4,73.6,275.7,73.6z M274.5,84.9c2.5,0,5.1-2.5,5.1-6.1c0-2.3-1.4-4.2-4.1-4.2c-2.5,0-5.1,2.5-5.1,6.1
					C270.5,83,271.9,84.9,274.5,84.9z"/>
				<path class="st2" d="M284.1,74.3c0.1-0.4,0.3-0.6,0.6-0.6h0.2c0.4,0,0.5,0.3,0.4,0.6l-1.3,6.2c-0.6,2.9,0.5,4.3,3,4.3
					c1.9,0,3.1-1.2,3.7-3.7l1.4-6.9c0.1-0.4,0.3-0.6,0.6-0.6h0.1c0.4,0,0.5,0.3,0.4,0.6l-1.5,7.1c-0.6,3-2.3,4.5-4.9,4.5
					c-3.2,0-4.9-1.9-4.1-5.5L284.1,74.3z"/>
				<path class="st2" d="M295.9,74.6c0.1-0.5,0.4-0.8,0.9-0.8h2.9c2.5,0,3.9,1,3.9,3c0,2.5-1.7,4-4.5,4h-0.2l1.6,2.9
					c0.5,1,0.9,1.4,1.7,1.4c0,0,0.1,0.9-0.9,0.9c-0.6,0-1.1-0.3-2-1.8l-1.8-3.3h-1.7l-1,4.5c-0.1,0.4-0.3,0.6-0.6,0.6H294
					c-0.4,0-0.5-0.2-0.4-0.6L295.9,74.6z M299.2,79.7c2,0,3.1-1,3.1-2.8c0-1.3-1-2-2.7-2h-2.5l-1,4.8H299.2z"/>
				<path class="st2" d="M309.4,74.6c0.1-0.5,0.4-0.8,0.9-0.8h6.5c0.4,0,0.6,0.1,0.6,0.3c0,0.2-0.1,0.6-0.2,0.7s-0.2,0.1-0.5,0.1
					h-6.1l-1,4.5h4.5c0.4,0,0.5,0.1,0.5,0.3c0,0.2-0.1,0.6-0.2,0.7s-0.2,0.1-0.5,0.1h-4.6l-1,4.7c-0.1,0.4-0.3,0.6-0.6,0.6h-0.2
					c-0.4,0-0.5-0.2-0.4-0.6L309.4,74.6z"/>
				<path class="st2" d="M319.4,74.3c0.1-0.4,0.3-0.6,0.6-0.6h0.2c0.4,0,0.5,0.3,0.4,0.6l-2.3,10.9c-0.1,0.4-0.3,0.6-0.6,0.6h-0.2
					c-0.4,0-0.5-0.2-0.4-0.6L319.4,74.3z"/>
				<path class="st2" d="M323.6,74.6c0.1-0.5,0.4-0.8,0.9-0.8h2.9c2.5,0,3.9,1,3.9,3c0,2.5-1.7,4-4.5,4h-0.2l1.6,2.9
					c0.5,1,0.9,1.4,1.7,1.4c0,0,0.1,0.9-0.9,0.9c-0.6,0-1.1-0.3-2-1.8l-1.8-3.3h-1.7l-1,4.5c-0.1,0.4-0.3,0.6-0.6,0.6h-0.2
					c-0.4,0-0.5-0.2-0.4-0.6L323.6,74.6z M326.8,79.7c2,0,3.1-1,3.1-2.8c0-1.3-1-2-2.7-2h-2.5l-1,4.8H326.8z"/>
				<path class="st2" d="M331.3,83.4c0-0.6,0.7-0.8,0.8-0.7c0.5,1.4,1.8,2.3,3.7,2.3c1.9,0,2.8-0.9,2.8-2.2c0-1.3-1.2-1.8-2.6-2.4
					c-1.5-0.6-3.1-1.4-3.1-3.4c0-1.9,1.5-3.3,4-3.3c1.6,0,2.8,0.5,3.4,1.2c0.4,0.4,0.6,0.8,0.6,1.2c0,0.6-0.7,0.7-0.7,0.7
					c-0.5-1.2-1.6-2-3.3-2c-1.6,0-2.7,0.9-2.7,2.1c0,1.4,1.1,1.9,2.7,2.5c1.5,0.6,3,1.3,3,3.3c0,2.1-1.5,3.5-4.1,3.5
					c-1.6,0-3-0.6-3.7-1.4C331.6,84.3,331.3,83.8,331.3,83.4z"/>
				<path class="st2" d="M346.9,75h-3.6c-0.4,0-0.6-0.1-0.6-0.3c0-0.2,0.1-0.6,0.2-0.7s0.2-0.1,0.5-0.1h8.6c0.4,0,0.6,0.1,0.6,0.3
					c0,0.2-0.1,0.6-0.2,0.7s-0.2,0.1-0.5,0.1h-3.7L346,85.3c-0.1,0.4-0.3,0.6-0.6,0.6h-0.2c-0.4,0-0.5-0.2-0.4-0.6L346.9,75z"/>
				<path class="st2" d="M370.3,74.6c0.1-0.5,0.5-0.9,1-0.9h0.3c0.6,0,0.7,0.3,0.9,0.9l1.6,7l4.6-7c0.5-0.7,0.7-0.9,1.3-0.9h0.3
					c0.5,0,0.8,0.4,0.7,0.9l-2.2,10.7c-0.1,0.4-0.3,0.6-0.6,0.6H378c-0.3,0-0.5-0.2-0.4-0.6l2.1-10.1l-4.6,6.9
					c-0.4,0.5-0.7,0.7-1.2,0.7c-0.7,0-0.9-0.3-1-0.9l-1.6-6.8l-2.1,10.1c-0.1,0.4-0.3,0.6-0.6,0.6h-0.1c-0.3,0-0.5-0.2-0.4-0.6
					L370.3,74.6z"/>
				<path class="st2" d="M388.7,73.6c3.3,0,5.3,2.2,5.3,5.2c0,4.3-3.3,7.2-6.5,7.2c-3.3,0-5.3-2.2-5.3-5.2
					C382.1,76.6,385.4,73.6,388.7,73.6z M387.5,84.9c2.5,0,5.1-2.5,5.1-6.1c0-2.3-1.4-4.2-4.1-4.2c-2.5,0-5.1,2.5-5.1,6.1
					C383.4,83,384.9,84.9,387.5,84.9z"/>
				<path class="st2" d="M397.2,74.6c0.1-0.5,0.4-0.9,0.9-0.9h0.3c0.4,0,0.6,0.2,0.8,0.7l4.4,9.5l2-9.6c0.1-0.4,0.3-0.6,0.6-0.6h0.1
					c0.3,0,0.5,0.2,0.4,0.6L404.5,85c-0.1,0.4-0.4,0.8-0.8,0.8h-0.1c-0.4,0-0.5-0.2-0.8-0.7l-4.6-9.9l-2.1,10
					c-0.1,0.4-0.3,0.6-0.6,0.6h-0.1c-0.3,0-0.5-0.2-0.4-0.6L397.2,74.6z"/>
				<path class="st2" d="M412.8,75h-3.6c-0.4,0-0.6-0.1-0.6-0.3c0-0.2,0.1-0.6,0.2-0.7s0.2-0.1,0.5-0.1h8.6c0.4,0,0.6,0.1,0.6,0.3
					c0,0.2-0.1,0.6-0.2,0.7s-0.2,0.1-0.5,0.1H414l-2.2,10.4c-0.1,0.4-0.3,0.6-0.6,0.6H411c-0.4,0-0.5-0.2-0.4-0.6L412.8,75z"/>
				<path class="st2" d="M420.3,74.3c0.1-0.4,0.3-0.6,0.6-0.6h0.2c0.4,0,0.5,0.3,0.4,0.6l-1,4.8h6.9l1-4.9c0.1-0.4,0.3-0.6,0.6-0.6
					h0.2c0.4,0,0.5,0.3,0.4,0.6l-2.3,10.9c-0.1,0.4-0.3,0.6-0.6,0.6h-0.2c-0.4,0-0.5-0.2-0.4-0.6l1-4.9h-6.9l-1,4.9
					c-0.1,0.4-0.3,0.6-0.6,0.6h-0.2c-0.4,0-0.5-0.2-0.4-0.6L420.3,74.3z"/>
				<path class="st2" d="M429.8,83.4c0-0.6,0.7-0.8,0.8-0.7c0.5,1.4,1.8,2.3,3.7,2.3c1.9,0,2.8-0.9,2.8-2.2c0-1.3-1.2-1.8-2.6-2.4
					c-1.5-0.6-3.1-1.4-3.1-3.4c0-1.9,1.5-3.3,4-3.3c1.6,0,2.8,0.5,3.4,1.2c0.4,0.4,0.6,0.8,0.6,1.2c0,0.6-0.7,0.7-0.7,0.7
					c-0.5-1.2-1.6-2-3.3-2c-1.6,0-2.7,0.9-2.7,2.1c0,1.4,1.1,1.9,2.7,2.5c1.5,0.6,3,1.3,3,3.3c0,2.1-1.5,3.5-4.1,3.5
					c-1.6,0-3-0.6-3.7-1.4C430,84.3,429.8,83.8,429.8,83.4z"/>
				<g>
					<path class="st2" d="M357.1,75.1c0.8-0.8,1.7-1.4,3.5-1.4c1.4,0,2.4,0.5,2.9,1.1c0.4,0.4,0.5,0.8,0.5,1.1
						c0,0.6-0.7,0.8-0.7,0.8c-0.6-1.2-1.6-1.8-2.9-1.8c-2.3,0-3.6,1.7-4.3,4.8c0.7-0.6,1.8-1.1,3.3-1.1c2.3,0,3.9,1.2,3.9,3.4
						c0,2.3-1.8,4.4-4.5,4.4c-2.5,0-4.2-1.5-4.2-4.3C354.7,80.3,355.4,76.8,357.1,75.1z M358.9,85.2c2.1,0,3.3-1.4,3.3-3.2
						c0-1.4-1-2.4-2.9-2.4c-1.6,0-2.5,0.6-3.4,1.3c-0.1,0.4-0.1,0.8-0.1,1.1C355.9,84.1,357,85.2,358.9,85.2z"/>
				</g>
			</g>
			<g>
				<path class="st1" d="M45.2,69c3,2.7,8.7,5.2,13.5,5.2c4.2,0,6.1-1.2,6.1-3.5c0-2.6-3.5-3.3-7.8-4.3c-6-1.3-15.2-3.8-15.2-14.1
					c0-7.5,4.6-12.6,12.5-14.3v-1.6c0-4.6,1.7-7,5.7-7h0.4c4.2,0,5.7,2.2,5.7,7v1.3c7.9,1,11.9,4.2,11.9,8.7c0,4.1-4.4,7.3-4.7,7
					c-3.2-3-8-5-12.1-5c-4,0-5.9,1.3-5.9,3.5c0,2.5,3.5,3.1,8.1,4.2c6.3,1.3,15.7,4,15.7,13.9c0,7.9-4.6,12.9-13,14.6v1.9
					c0,4.6-1.7,7-5.7,7H60c-4.2,0-5.7-2.2-5.7-7V85c-8.8-1-13.5-4.5-13.5-9.3C40.7,71.8,44.9,68.6,45.2,69z"/>
				<path class="st1" d="M93,54c-1.1,0.5-2.3,0.8-3.5,0.8c-4.3,0-7.4-3.1-7.4-7.5c0-5,3.3-7.1,3.8-6.9c1.5,1,2.9,1.5,4.6,1.5
					c3.2,0,5.8-2,6.6-5.5h3.8c4.2,0,6.5,2.3,6.5,7v35.8c0,4.6-2.3,7-6.5,7h-1.8c-4,0-6.2-2.4-6.2-7L93,54L93,54z"/>
				<path class="st1" d="M118.3,70.3c3.5,3.7,8,5.6,12.9,5.6c5.1,0,8-2.2,8-5.8c0-3.7-2.6-5.8-8-5.8c-4.1,0-6.7,1.3-8.3,2.5
					c-5.4-0.1-8.5-2.3-8.5-8.4v-13c0-5.4,1.9-8.3,6.9-8.3h22c4.8,0,7.1,1.8,7.1,5.8v0.4c0,4-2.2,5.7-7.1,5.7h-16.9v7.2
					c2.2-0.7,4.7-1.2,7.4-1.2c11.1,0,18.3,5.7,18.3,15.4c0,9.9-7.7,16.2-20.4,16.2c-12.1,0-18.7-4.6-18.7-9.4
					C112.9,73.2,117.9,70,118.3,70.3z"/>
				<path class="st1" d="M155.5,59c0-14,8.2-22.9,22.1-22.9c13.8,0,22,8.8,22,22.9v4.6c0,14.1-8.2,23-22,23
					c-13.9,0-22.1-8.8-22.1-23V59z M177.6,74.5c4.8,0,7.2-3.2,7.2-9.6v-7.3c0-6.4-2.4-9.7-7.2-9.7c-4.9,0-7.3,3.1-7.3,9.7v7.3
					C170.3,71.4,172.7,74.5,177.6,74.5z"/>
			</g>
		</g>
		<g>
			<g>
				<polygon id="XMLID_4870_" class="st3" points="440.7,183.1 114.4,183.1 119.1,272.5 440.7,272.5 414.9,228.6 				"/>
				<polygon id="XMLID_4869_" class="st1" points="121,155 129.3,147.6 136,156.8 145.7,151.1 150.3,161.6 161.1,157.9 163.2,169.3 
					174.6,167.8 174.2,179.5 185.9,180.3 182.9,191.7 194.2,194.8 188.9,205.4 199.4,210.7 191.9,220 201.2,227.4 191.9,234.9 
					199.4,244.1 188.9,249.5 194.2,260 182.9,263.2 185.9,274.6 174.2,275.3 174.6,287 163.2,285.5 161.1,296.9 150.3,293.2 
					145.7,303.7 136,298.1 129.3,307.2 121,299.8 112.6,307.2 105.9,298.5 96.2,303.7 91.4,293.9 80.8,296.9 78.1,286.4 67.3,287 
					66.7,276.3 56.1,274.6 57.7,264 47.7,260 51.4,250 42.5,244.1 48.2,235.1 40.7,227.4 48.2,219.8 42.5,210.7 51.4,204.8 
					47.7,194.8 57.7,190.9 56.1,180.3 66.7,178.5 67.3,167.8 78.1,168.4 80.8,157.9 91.4,160.9 96.2,151.1 105.9,156.4 112.6,147.6 
									"/>
				<g id="XMLID_4518_">
					<path id="XMLID_4867_" class="st3" d="M64.2,228.4c-0.3,0.5-0.8,1-1.5,1.3c-0.6,0.4-1.4,0.6-2.3,0.7c-0.9,0.1-1.8,0-2.5-0.2
						c-0.8-0.3-1.4-0.6-1.9-1.2c-0.5-0.5-0.9-1.2-1.2-2s-0.4-1.6-0.4-2.6s0.2-1.9,0.5-2.7c0.3-0.9,0.8-1.6,1.4-2.3
						c0.6-0.7,1.4-1.2,2.2-1.6c0.9-0.4,1.8-0.7,2.9-0.8c0.8-0.1,1.5-0.1,2.2,0c0.6,0.1,1.2,0.2,1.6,0.5c0.4,0.2,0.8,0.5,1,0.8
						s0.3,0.7,0.3,1.1c0,0.4-0.1,0.7-0.3,0.9c-0.2,0.3-0.4,0.5-0.7,0.6c-0.2,0.2-0.5,0.3-0.7,0.4c-0.2,0.1-0.3,0.1-0.4,0.1
						c-0.3-0.4-0.8-0.7-1.3-0.9s-1-0.2-1.6-0.2c-0.5,0-0.9,0.2-1.3,0.4c-0.4,0.2-0.7,0.5-1,0.8s-0.5,0.7-0.7,1.2
						c-0.2,0.4-0.2,0.9-0.2,1.4s0.1,1,0.2,1.4c0.2,0.4,0.4,0.8,0.6,1c0.3,0.3,0.6,0.5,1,0.6s0.8,0.2,1.2,0.1
						c0.7-0.1,1.3-0.3,1.7-0.6c0.4-0.4,0.7-0.8,0.8-1.3l-1.3,0.1c-0.6,0.1-1.1,0-1.4-0.1c-0.3-0.2-0.5-0.5-0.5-1v-0.2
						c0-0.6,0.2-1,0.5-1.2s0.8-0.3,1.4-0.4l3.5-0.4c0.3,0,0.5,0,0.7,0s0.3,0.1,0.4,0.3c0.1,0.1,0.2,0.3,0.2,0.5s0,0.5,0,0.8v5.4
						c0,0.1-0.1,0.2-0.4,0.3s-0.6,0.2-0.9,0.2c-0.2,0-0.4,0-0.6,0s-0.4-0.1-0.6-0.2s-0.3-0.2-0.5-0.4
						C64.4,228.9,64.3,228.7,64.2,228.4z"/>
					<path id="XMLID_4865_" class="st3" d="M74.9,228.9c-3.9,0.4-5.9-1.3-5.9-5.2v-5.5c0-0.6,0.2-1.1,0.5-1.4
						c0.3-0.3,0.7-0.5,1.3-0.6l0.5-0.1c1.2-0.1,1.7,0.4,1.7,1.7v5.5c0,1.6,0.6,2.3,1.9,2.2c0.6-0.1,1.1-0.3,1.4-0.7s0.5-1,0.5-1.9
						v-5.5c0-0.6,0.2-1.1,0.5-1.4c0.3-0.3,0.7-0.5,1.3-0.6l0.5-0.1c1.2-0.1,1.7,0.4,1.7,1.7v5.5c0,1.9-0.5,3.5-1.5,4.5
						C78.4,228,76.9,228.7,74.9,228.9z"/>
					<path id="XMLID_4862_" class="st3" d="M86.1,224.8l-0.4,1c-0.2,0.7-0.6,1.2-0.9,1.5c-0.4,0.3-0.8,0.5-1.2,0.5
						c-0.3,0-0.5,0-0.8-0.1s-0.5-0.2-0.7-0.3s-0.4-0.2-0.5-0.4c-0.1-0.1-0.1-0.2-0.1-0.3l4.2-11.2c0.1-0.2,0.1-0.3,0.2-0.5
						c0.1-0.1,0.2-0.3,0.4-0.4c0.2-0.1,0.4-0.2,0.7-0.3c0.3-0.1,0.7-0.2,1.1-0.2c0.5,0,0.8-0.1,1.1,0c0.3,0,0.5,0.1,0.7,0.2
						s0.3,0.2,0.4,0.3s0.2,0.3,0.2,0.4l4.3,10.3c0,0.1,0,0.2-0.1,0.4s-0.3,0.3-0.5,0.5s-0.4,0.3-0.7,0.4c-0.3,0.1-0.6,0.2-0.9,0.2
						c-0.4,0-0.8,0-1.3-0.3c-0.4-0.2-0.8-0.7-1-1.4l-0.4-0.9L86.1,224.8z M89.5,221.6l-1.4-3.6l-1.4,3.9L89.5,221.6z"/>
					<path id="XMLID_4859_" class="st3" d="M107.5,223.9c0,0,0,0.1-0.1,0.3s-0.2,0.3-0.4,0.5s-0.4,0.4-0.7,0.5
						c-0.3,0.2-0.7,0.3-1.1,0.3c-0.3,0-0.6,0-0.8,0c-0.2,0-0.5-0.1-0.7-0.2c-0.2-0.1-0.4-0.3-0.6-0.5s-0.4-0.4-0.6-0.7l-1.8-2.2
						L100,222v2.2c0,0.6-0.1,1.1-0.4,1.4c-0.3,0.3-0.7,0.6-1.3,0.6l-0.6,0.1c-0.6,0.1-1-0.1-1.3-0.5s-0.4-0.9-0.4-1.7v-8.4
						c0-0.7,0.2-1.3,0.5-1.7c0.4-0.4,0.9-0.7,1.5-0.7l4-0.4c1.8-0.2,3.1,0,4,0.6s1.3,1.6,1.3,3c0,0.9-0.2,1.8-0.7,2.5
						s-1.2,1.2-2.1,1.6L107.5,223.9z M101.6,219c0.6-0.1,1-0.2,1.3-0.5s0.4-0.7,0.4-1.1c0-1-0.6-1.4-1.8-1.3l-1.6,0.2v3L101.6,219z"
						/>
					<path id="XMLID_4856_" class="st3" d="M112.7,222l-0.4,1c-0.2,0.7-0.6,1.2-0.9,1.5c-0.4,0.3-0.8,0.5-1.2,0.5
						c-0.3,0-0.5,0-0.8-0.1s-0.5-0.2-0.7-0.3s-0.4-0.2-0.5-0.4c-0.1-0.1-0.1-0.2-0.1-0.3l4.2-11.2c0.1-0.2,0.1-0.3,0.2-0.5
						c0.1-0.1,0.2-0.3,0.4-0.4c0.2-0.1,0.4-0.2,0.7-0.3c0.3-0.1,0.7-0.2,1.1-0.2s0.8-0.1,1.1,0c0.3,0,0.5,0.1,0.7,0.1
						c0.2,0.1,0.3,0.2,0.4,0.3s0.2,0.3,0.2,0.4l4.3,10.3c0,0.1,0,0.2-0.1,0.4c-0.1,0.1-0.3,0.3-0.5,0.5s-0.4,0.3-0.7,0.4
						c-0.3,0.1-0.6,0.2-0.9,0.2c-0.4,0-0.8,0-1.3-0.3c-0.4-0.2-0.8-0.7-1-1.4l-0.4-0.9L112.7,222z M116.1,218.8l-1.4-3.6l-1.4,3.9
						L116.1,218.8z"/>
					<path id="XMLID_4854_" class="st3" d="M122.6,221.8v-9.4c0-0.6,0.1-1.1,0.4-1.4c0.3-0.3,0.7-0.5,1.2-0.6h0.4c0.2,0,0.4,0,0.6,0
						s0.3,0.1,0.4,0.1c0.1,0.1,0.3,0.2,0.4,0.3s0.2,0.2,0.4,0.4l4.6,5.5v-5.1c0-1.2,0.6-1.9,1.7-2h0.3c1.1-0.1,1.7,0.4,1.7,1.7v9.4
						c0,0.6-0.1,1.1-0.4,1.4c-0.3,0.3-0.7,0.5-1.2,0.6h-0.3c-0.2,0-0.4,0-0.6,0c-0.2,0-0.3,0-0.4-0.1c-0.1-0.1-0.2-0.1-0.4-0.2
						s-0.2-0.2-0.4-0.4l-4.7-5.6v5.1c0,1.2-0.6,1.9-1.7,2h-0.3C123.1,223.6,122.6,223.1,122.6,221.8z"/>
					<path id="XMLID_4852_" class="st3" d="M137.7,212.6c-1.2,0.1-1.8-0.4-1.8-1.5V211c0-1.1,0.6-1.7,1.8-1.8l8.2-0.9
						c1.2-0.1,1.8,0.4,1.8,1.5v0.1c0,1.2-0.6,1.8-1.8,1.9l-2.1,0.2v7.7c0,0.6-0.2,1.1-0.5,1.4c-0.3,0.3-0.7,0.5-1.3,0.6l-0.6,0.1
						c-1.1,0.1-1.7-0.4-1.7-1.7v-7.7L137.7,212.6z"/>
					<path id="XMLID_4850_" class="st3" d="M149.4,220.2c-0.4-0.3-0.5-0.9-0.5-1.6v-8.4c0-0.7,0.2-1.3,0.5-1.7
						c0.4-0.4,0.9-0.7,1.5-0.7l6.8-0.7c0.6-0.1,1.1,0,1.4,0.3c0.3,0.3,0.4,0.7,0.4,1.2v0.1c0,0.6-0.1,1-0.4,1.3
						c-0.3,0.3-0.8,0.5-1.4,0.6l-4.9,0.5v1.3l3.3-0.3c0.7-0.1,1.1,0,1.4,0.2c0.3,0.2,0.4,0.6,0.4,1.1v0.1c0,0.5-0.1,0.9-0.4,1.2
						c-0.3,0.3-0.8,0.5-1.4,0.6l-3.3,0.3v1.5l5-0.5c1.2-0.1,1.8,0.3,1.8,1.4v0.1c0,0.6-0.1,1-0.4,1.3c-0.3,0.3-0.8,0.5-1.4,0.6
						l-6.9,0.7C150.2,220.6,149.7,220.5,149.4,220.2z"/>
					<path id="XMLID_4848_" class="st3" d="M161.6,218.9c-0.4-0.3-0.5-0.9-0.5-1.6v-8.4c0-0.7,0.2-1.3,0.5-1.7
						c0.4-0.4,0.9-0.7,1.5-0.7l6.8-0.7c0.6-0.1,1.1,0,1.4,0.3c0.3,0.3,0.4,0.7,0.4,1.2v0.1c0,0.6-0.1,1-0.4,1.3
						c-0.3,0.3-0.8,0.5-1.4,0.6l-4.9,0.5v1.3l3.3-0.3c0.7-0.1,1.1,0,1.4,0.2c0.3,0.2,0.4,0.6,0.4,1.1v0.1c0,0.5-0.1,0.9-0.4,1.2
						c-0.3,0.3-0.8,0.5-1.4,0.6l-3.3,0.3v1.5l5-0.5c1.2-0.1,1.8,0.3,1.8,1.4v0.1c0,0.6-0.1,1-0.4,1.3c-0.3,0.3-0.8,0.5-1.4,0.6
						l-6.9,0.7C162.5,219.3,162,219.2,161.6,218.9z"/>
					<path id="XMLID_4845_" class="st3" d="M174.7,217.9c-0.3-0.1-0.5-0.2-0.7-0.4s-0.4-0.4-0.5-0.6c-0.1-0.3-0.2-0.5-0.2-0.8v-8.4
						c0-0.7,0.2-1.3,0.6-1.7c0.4-0.4,0.9-0.7,1.5-0.7l3.4-0.4c1.1-0.1,2-0.1,2.9,0.1c0.8,0.2,1.6,0.6,2.1,1c0.6,0.5,1,1.1,1.4,1.9
						c0.3,0.8,0.5,1.6,0.5,2.6s-0.2,1.9-0.5,2.7s-0.8,1.6-1.4,2.2c-0.6,0.6-1.3,1.1-2.2,1.5s-1.8,0.7-2.9,0.8l-3.2,0.3
						C175.3,218,175,218,174.7,217.9z M178.7,214.2c0.9-0.1,1.7-0.4,2.2-1c0.6-0.6,0.8-1.4,0.8-2.4s-0.3-1.7-0.8-2.1
						c-0.5-0.5-1.3-0.6-2.2-0.5l-1.4,0.1v6.1L178.7,214.2z"/>
					<path id="XMLID_4843_" class="st3" d="M83.6,249.6c-0.9,0.1-1.7,0.1-2.4,0c-0.7-0.1-1.2-0.2-1.6-0.4s-0.7-0.5-0.9-0.8
						c-0.2-0.3-0.3-0.6-0.3-0.9c0-0.2,0.1-0.5,0.2-0.7c0.1-0.3,0.3-0.5,0.4-0.7c0.2-0.2,0.3-0.4,0.4-0.5s0.2-0.2,0.2-0.1
						c0.2,0.2,0.5,0.3,0.8,0.5c0.3,0.1,0.6,0.3,0.9,0.4c0.3,0.1,0.7,0.2,1.1,0.2s0.7,0.1,1.1,0c1.2-0.1,1.8-0.5,1.8-1.2
						c0-0.2-0.1-0.3-0.2-0.4s-0.3-0.2-0.5-0.2s-0.5-0.1-0.7-0.1c-0.3,0-0.6,0-0.9-0.1c-0.5,0-1.1-0.1-1.6-0.3
						c-0.5-0.1-1-0.3-1.4-0.6s-0.7-0.6-1-1c-0.2-0.4-0.4-1-0.4-1.7c0-1.3,0.5-2.4,1.4-3.3c0.9-0.9,2.3-1.4,4.1-1.6
						c0.8-0.1,1.6-0.1,2.2,0s1.1,0.2,1.5,0.4s0.7,0.4,0.9,0.7c0.2,0.3,0.3,0.6,0.3,0.9c0,0.3-0.1,0.6-0.2,0.8s-0.3,0.5-0.5,0.7
						s-0.3,0.4-0.5,0.5c-0.1,0.1-0.2,0.2-0.3,0.2c-0.4-0.4-0.9-0.6-1.6-0.8c-0.6-0.2-1.2-0.3-1.8-0.2c-1.2,0.1-1.7,0.5-1.7,1.2
						c0,0.2,0.1,0.3,0.2,0.4c0.1,0.1,0.3,0.1,0.5,0.2c0.2,0,0.5,0.1,0.8,0.1s0.6,0,0.9,0.1c0.6,0.1,1.2,0.2,1.8,0.3
						c0.5,0.2,1,0.4,1.4,0.7s0.7,0.6,0.9,1c0.2,0.4,0.3,0.9,0.3,1.5c0,1.4-0.5,2.5-1.4,3.4C87,248.8,85.6,249.4,83.6,249.6z"/>
					<path id="XMLID_4840_" class="st3" d="M94.6,245.4l-0.4,1c-0.2,0.7-0.6,1.2-0.9,1.5c-0.4,0.3-0.8,0.5-1.2,0.5
						c-0.3,0-0.5,0-0.8-0.1s-0.5-0.2-0.7-0.3s-0.4-0.2-0.5-0.4c-0.1-0.1-0.1-0.2-0.1-0.3l4.2-11.2c0.1-0.2,0.1-0.3,0.2-0.5
						c0.1-0.1,0.2-0.3,0.4-0.4c0.2-0.1,0.4-0.2,0.7-0.3c0.3-0.1,0.7-0.2,1.1-0.2c0.5,0,0.8-0.1,1.1,0c0.3,0,0.5,0.1,0.7,0.2
						c0.2,0.1,0.3,0.2,0.4,0.3s0.2,0.3,0.2,0.4l4.3,10.3c0,0.1,0,0.2-0.1,0.4c-0.1,0.1-0.3,0.3-0.5,0.5s-0.4,0.3-0.7,0.4
						c-0.3,0.1-0.6,0.2-0.9,0.2c-0.4,0-0.8,0-1.3-0.3c-0.4-0.2-0.8-0.7-1-1.4l-0.4-0.9L94.6,245.4z M98,242.2l-1.4-3.6l-1.4,3.9
						L98,242.2z"/>
					<path id="XMLID_4838_" class="st3" d="M110.9,235.3c0.2-0.7,0.5-1.2,0.9-1.5s0.8-0.5,1.3-0.6c0.3,0,0.6,0,0.9,0.1
						s0.6,0.2,0.8,0.3c0.2,0.1,0.4,0.3,0.5,0.4c0.1,0.1,0.2,0.3,0.1,0.4l-4.2,10.6c-0.2,0.6-0.5,1-0.9,1.2c-0.4,0.3-0.8,0.4-1.4,0.5
						s-1.1,0-1.4-0.2s-0.6-0.5-0.9-1.1l-4.4-9.7c0-0.1,0-0.2,0.1-0.4s0.3-0.3,0.5-0.5s0.5-0.3,0.8-0.5c0.3-0.1,0.6-0.2,1-0.3
						c0.5-0.1,1,0.1,1.3,0.4c0.4,0.3,0.7,0.7,0.9,1.3l2,6.1L110.9,235.3z"/>
					<path id="XMLID_4836_" class="st3" d="M116.6,244v-9.4c0-1.2,0.6-1.9,1.7-2l0.6-0.1c1.2-0.1,1.7,0.4,1.7,1.7v9.4
						c0,1.2-0.6,1.9-1.7,2l-0.6,0.1C117.2,245.8,116.6,245.3,116.6,244z"/>
					<path id="XMLID_4834_" class="st3" d="M122.5,243.4V234c0-0.6,0.1-1.1,0.4-1.4c0.3-0.3,0.7-0.5,1.2-0.6h0.4c0.2,0,0.4,0,0.6,0
						s0.3,0.1,0.4,0.1c0.1,0.1,0.3,0.2,0.4,0.3s0.2,0.2,0.4,0.4l4.6,5.5v-5.1c0-1.2,0.6-1.9,1.7-2h0.3c1.1-0.1,1.7,0.4,1.7,1.7v9.4
						c0,0.6-0.1,1.1-0.4,1.4c-0.3,0.3-0.7,0.5-1.2,0.6h-0.3c-0.2,0-0.4,0-0.6,0c-0.2,0-0.3,0-0.4-0.1c-0.1-0.1-0.2-0.1-0.4-0.2
						c-0.1-0.1-0.2-0.2-0.4-0.4l-4.7-5.6v5.1c0,1.2-0.6,1.9-1.7,2h-0.3C123.1,245.2,122.5,244.6,122.5,243.4z"/>
					<path id="XMLID_4832_" class="st3" d="M146.1,241.2c-0.3,0.5-0.8,1-1.5,1.3c-0.6,0.4-1.4,0.6-2.3,0.7c-0.9,0.1-1.8,0-2.5-0.2
						c-0.8-0.3-1.4-0.6-1.9-1.2c-0.5-0.5-0.9-1.2-1.2-2s-0.4-1.6-0.4-2.6s0.2-1.9,0.5-2.7c0.3-0.9,0.8-1.6,1.4-2.3
						c0.6-0.7,1.4-1.2,2.2-1.6c0.9-0.4,1.8-0.7,2.9-0.8c0.8-0.1,1.5-0.1,2.2,0c0.6,0.1,1.2,0.2,1.6,0.5c0.4,0.2,0.8,0.5,1,0.8
						s0.3,0.7,0.3,1.1c0,0.4-0.1,0.7-0.3,0.9s-0.4,0.5-0.7,0.6c-0.2,0.2-0.5,0.3-0.7,0.4c-0.2,0.1-0.3,0.1-0.4,0.1
						c-0.3-0.4-0.8-0.7-1.3-0.9s-1-0.2-1.6-0.2c-0.5,0-0.9,0.2-1.3,0.4c-0.4,0.2-0.7,0.5-1,0.8s-0.5,0.7-0.7,1.2
						c-0.2,0.4-0.2,0.9-0.2,1.4s0.1,1,0.2,1.4c0.2,0.4,0.4,0.8,0.6,1c0.3,0.3,0.6,0.5,1,0.6s0.8,0.2,1.2,0.1
						c0.7-0.1,1.3-0.3,1.7-0.6s0.7-0.8,0.8-1.3l-1.3,0.1c-0.6,0.1-1.1,0-1.4-0.1c-0.3-0.2-0.5-0.5-0.5-1V237c0-0.6,0.2-1,0.5-1.2
						s0.8-0.3,1.4-0.4l3.5-0.4c0.3,0,0.5,0,0.7,0s0.3,0.1,0.4,0.3c0.1,0.1,0.2,0.3,0.2,0.5s0,0.5,0,0.8v5.4c0,0.1-0.1,0.2-0.4,0.3
						c-0.3,0.1-0.6,0.2-0.9,0.2c-0.2,0-0.4,0-0.6,0c-0.2,0-0.4-0.1-0.6-0.2c-0.2-0.1-0.3-0.2-0.5-0.4
						C146.2,241.7,146.1,241.5,146.1,241.2z"/>
					<path id="XMLID_4830_" class="st3" d="M155.6,241.9c-0.9,0.1-1.7,0.1-2.4,0s-1.2-0.2-1.6-0.4c-0.4-0.2-0.7-0.5-0.9-0.8
						s-0.3-0.6-0.3-0.9c0-0.2,0.1-0.5,0.2-0.7c0.1-0.3,0.3-0.5,0.4-0.7c0.2-0.2,0.3-0.4,0.4-0.5c0.1-0.1,0.2-0.2,0.2-0.1
						c0.2,0.2,0.5,0.3,0.8,0.5c0.3,0.1,0.6,0.3,0.9,0.4c0.3,0.1,0.7,0.2,1.1,0.2c0.4,0,0.7,0.1,1.1,0c1.2-0.1,1.8-0.5,1.8-1.2
						c0-0.2-0.1-0.3-0.2-0.4c-0.1-0.1-0.3-0.2-0.5-0.2s-0.5-0.1-0.7-0.1s-0.6,0-0.9-0.1c-0.5,0-1.1-0.1-1.6-0.3
						c-0.5-0.1-1-0.3-1.4-0.6s-0.7-0.6-1-1c-0.2-0.4-0.4-1-0.4-1.7c0-1.3,0.5-2.4,1.4-3.3c0.9-0.9,2.3-1.4,4.1-1.6
						c0.8-0.1,1.6-0.1,2.2,0c0.6,0.1,1.1,0.2,1.5,0.4s0.7,0.4,0.9,0.7s0.3,0.6,0.3,0.9c0,0.3-0.1,0.6-0.2,0.8
						c-0.1,0.3-0.3,0.5-0.5,0.7s-0.3,0.4-0.5,0.5c-0.1,0.1-0.2,0.2-0.3,0.2c-0.4-0.4-0.9-0.6-1.6-0.8c-0.6-0.2-1.2-0.3-1.8-0.2
						c-1.2,0.1-1.7,0.5-1.7,1.2c0,0.2,0.1,0.3,0.2,0.4c0.1,0.1,0.3,0.1,0.5,0.2c0.2,0,0.5,0.1,0.8,0.1s0.6,0,0.9,0.1
						c0.6,0.1,1.2,0.2,1.8,0.3c0.5,0.2,1,0.4,1.4,0.7s0.7,0.6,0.9,1s0.3,0.9,0.3,1.5c0,1.4-0.5,2.5-1.4,3.4
						C159,241.2,157.5,241.7,155.6,241.9z"/>
				</g>
				<path class="st3" d="M87.7,204.1c-0.5,0-0.9-0.4-0.9-0.8c-0.1-0.5,0.3-1,0.8-1.1l61.3-7.2c0.5-0.1,1,0.3,1.1,0.8s-0.3,1-0.8,1.1
					l-61.3,7.2C87.8,204.1,87.7,204.1,87.7,204.1z"/>
				<path class="st3" d="M87.7,262.4c-0.5,0-0.9-0.4-0.9-0.8c-0.1-0.5,0.3-1,0.8-1.1l61.3-7.2c0.5-0.1,1,0.3,1.1,0.8s-0.3,1-0.8,1.1
					l-61.3,7.2C87.8,262.4,87.7,262.4,87.7,262.4z"/>
			</g>
			<g>
				<path class="st2" d="M236.4,223.5c3.7,0,6.1,2.4,6.1,5.9c0,3.6-2.4,5.9-6.2,5.9s-6.1-2.3-6.1-5.9
					C230.3,225.8,232.7,223.5,236.4,223.5z M236.4,231.9c1.4,0,2.4-1.1,2.4-2.6s-1-2.6-2.4-2.6s-2.4,1.1-2.4,2.6
					C233.9,230.8,234.9,231.9,236.4,231.9z"/>
				<path class="st2" d="M242.7,224.8c-0.1-0.2,1.2-1.3,2.4-1.3c0.9,0,1.8,0.5,2.3,2l1.6,5.2l1.7-5.2c0.5-1.5,1.4-2,2.2-2
					c1.3,0,2.5,1,2.4,1.3l-3.9,9.3c-0.4,0.8-1.6,1-2.3,1s-2-0.2-2.3-1L242.7,224.8z"/>
				<path class="st2" d="M261.5,223.5c3.4,0,5.8,2.4,5.8,5.6v0.3c0,0.7-0.2,1.1-0.9,1.1h-7.1c0.3,1.2,1.2,1.8,2.6,1.8
					s2.3-0.7,2.7-1.4c0,0,2,0.2,2,1.8c0,1.5-1.7,2.6-4.9,2.6c-3.8,0-6.3-2.2-6.3-5.8C255.5,226,258,223.5,261.5,223.5z M263.4,228.2
					c0-1.2-0.8-1.9-2-1.9c-1.1,0-2,0.8-2.2,1.9H263.4z"/>
				<path class="st2" d="M268.8,224.1c0-0.2,0.8-0.5,1.7-0.5c1,0,2.1,0.4,2.5,2c0.4-1.3,1.4-2.1,2.7-2.1c1.5,0,2.4,0.9,2.4,2.3
					c0,1.7-1.4,2.3-1.4,2.3c-0.4-0.3-0.9-0.6-1.6-0.6c-1.3,0-1.9,0.9-1.9,2.8v2.7c0,1.6-0.8,2.1-1.9,2.1h-0.5c-1.2,0-2-0.5-2-2.1
					L268.8,224.1L268.8,224.1z"/>
				<path class="st2" d="M284.5,227h-0.2c-1.2,0-1.8-0.5-1.8-1.5v-0.2c0-1,0.6-1.6,1.8-1.6h0.2v-1.1c0-1.4,0.7-2.1,2-2.1h0.4
					c1.2,0,2,0.5,2,2.1v1.1h1.3c1.2,0,1.7,0.5,1.7,1.5v0.2c0,1-0.6,1.6-1.7,1.6h-1.3v3.8c0,0.7,0.3,1.1,1,1.1c0.6,0,1-0.3,1.2-0.7
					c0.1-0.1,1,0.5,1,1.6c0,1.5-1.3,2.5-3.4,2.5c-2.7,0-3.9-1.4-3.9-4V227H284.5z"/>
				<path class="st2" d="M293.2,219.5c0-0.2,0.8-0.5,1.7-0.5c1.2,0,2.7,0.7,2.7,3.3v3.2c0.7-1.2,1.7-2,3.5-2c2.9,0,4,2.2,4,4.6v4.9
					c0,1.6-0.8,2.1-1.9,2.1h-0.4c-1.2,0-2-0.5-2-2.1v-4.2c0-1.1-0.5-1.7-1.4-1.7c-1.1,0-1.7,0.7-1.7,1.8v4.1c0,1.6-0.8,2.1-1.9,2.1
					h-0.5c-1.2,0-2-0.5-2-2.1v-13.5H293.2z"/>
				<path class="st2" d="M312.4,223.5c3.4,0,5.8,2.4,5.8,5.6v0.3c0,0.7-0.2,1.1-0.9,1.1h-7.1c0.3,1.2,1.2,1.8,2.6,1.8
					s2.3-0.7,2.7-1.4c0,0,2,0.2,2,1.8c0,1.5-1.7,2.6-4.9,2.6c-3.8,0-6.3-2.2-6.3-5.8C306.4,226,308.9,223.5,312.4,223.5z
					 M314.3,228.2c0-1.2-0.8-1.9-2-1.9c-1.1,0-2,0.8-2.2,1.9H314.3z"/>
				<path class="st2" d="M322.7,224.8c-0.1-0.2,1.2-1.2,2.4-1.3c0.9,0,1.8,0.5,2.3,2l1.7,4.9l1.6-4.9c0.5-1.5,1.4-2,2.2-2
					c1.2,0,2.5,1,2.4,1.3l-4.9,12.5c-0.6,1.5-1.4,1.9-2.3,1.9c-1.3,0-2.4-1-2.3-1.2l1.9-3.9c-0.5-0.1-0.9-0.4-1.1-0.8L322.7,224.8z"
					/>
				<path class="st2" d="M341.5,223.5c3.4,0,5.8,2.4,5.8,5.6v0.3c0,0.7-0.2,1.1-0.9,1.1h-7.1c0.3,1.2,1.2,1.8,2.6,1.8
					s2.3-0.7,2.7-1.4c0,0,2,0.2,2,1.8c0,1.5-1.7,2.6-4.9,2.6c-3.8,0-6.3-2.2-6.3-5.8C335.5,226,338,223.5,341.5,223.5z M343.4,228.2
					c0-1.2-0.8-1.9-2-1.9c-1.1,0-2,0.8-2.2,1.9H343.4z"/>
				<path class="st2" d="M355.1,228h0.4c-0.1-1-0.7-1.5-1.7-1.5c-1.4,0-2,0.8-2.3,1.5c0,0.1-2.9,0.2-2.9-1.7c0-1.8,1.7-2.9,5.4-2.9
					c4,0,5.8,1.6,5.8,4.8v6.4c0,0.2-0.8,0.5-1.7,0.5c-1.2,0-2.1-0.6-2.4-1.8c-0.7,1.2-2.1,1.8-3.8,1.8c-2.3,0-3.7-1.4-3.7-3.3
					C348.2,229.3,350.3,228.1,355.1,228z M353.7,232.5c1.2,0,1.9-0.8,1.9-1.9v-0.4H355c-1.7,0-2.7,0.4-2.7,1.3
					C352.4,232.1,352.9,232.5,353.7,232.5z"/>
				<path class="st2" d="M361.8,224.1c0-0.2,0.8-0.5,1.7-0.5c1,0,2.1,0.4,2.5,2c0.4-1.3,1.4-2.1,2.7-2.1c1.5,0,2.4,0.9,2.4,2.3
					c0,1.7-1.4,2.3-1.4,2.3c-0.4-0.3-0.9-0.6-1.6-0.6c-1.3,0-1.9,0.9-1.9,2.8v2.7c0,1.6-0.8,2.1-1.9,2.1h-0.5c-1.2,0-2-0.5-2-2.1
					L361.8,224.1L361.8,224.1z"/>
			</g>
		</g>
		<g>
			<line class="st4" x1="241.5" y1="120" x2="241.5" y2="149.1"/>
			<line class="st4" x1="227.6" y1="135.2" x2="253.9" y2="135.2"/>
		</g>
	</g>
</g>
</svg>
