<?xml version="1.0" encoding="utf-8"?>
<!-- Generator: Adobe Illustrator 18.1.0, SVG Export Plug-In . SVG Version: 6.00 Build 0)  -->
<!DOCTYPE svg PUBLIC "-//W3C//DTD SVG 1.1//EN" "http://www.w3.org/Graphics/SVG/1.1/DTD/svg11.dtd">
<svg version="1.1" id="Layer_1" xmlns="http://www.w3.org/2000/svg" xmlns:xlink="http://www.w3.org/1999/xlink" x="0px" y="0px"
	 viewBox="0 0 260 40" enable-background="new 0 0 260 40" xml:space="preserve">
<g>
	<g>
		<path fill="#ED1F6C" d="M99.5,31c-1.2,0-2.1-0.2-2.9-0.7c-0.8-0.4-1.3-1.3-1.6-2.4c0,0-4.5-14.1-4.8-15c-0.2-0.7-0.1-1.3,0.1-1.5
			c0.2-0.3,0.4-0.6,0.8-0.9c0.4-0.3,1-0.6,1.6-0.9c0.7-0.3,1.4-0.4,2.3-0.4c0.4,0,0.8,0.1,1.3,0.2c0.5,0.1,0.9,0.3,1.3,0.7
			c0.4,0.3,0.8,0.8,1.2,1.3c0.3,0.6,0.6,1.3,0.8,2.1l1.1,6.4l1.7-7c0.2-1.1,0.7-1.9,1.4-2.4c0.8-0.5,1.6-0.8,2.6-0.8
			c0.5,0,0.9,0.1,1.3,0.2c0.5,0.1,0.9,0.3,1.2,0.6c0.4,0.3,0.7,0.6,0.9,1c0.3,0.4,0.4,0.9,0.5,1.3l1.7,7l1-6.5
			c0.1-0.8,0.4-1.4,0.7-1.9c0.3-0.6,0.7-1,1.1-1.3c0.4-0.3,0.9-0.6,1.3-0.7c0.5-0.2,1-0.2,1.3-0.2c0.9,0,1.5,0.1,2.2,0.4
			c0.6,0.3,1.2,0.6,1.5,0.9c0.4,0.3,0.7,0.7,0.9,1c0.2,0.3,0.4,0.7,0.1,1.5l-4.8,15c-0.3,1.2-0.9,1.9-1.6,2.4
			c-0.8,0.5-1.8,0.7-3,0.7c-1.2,0-2.2-0.2-3-0.7c-0.8-0.4-1.3-1.3-1.7-2.4l-1.8-6.7l-1.6,6.7c-0.3,1.2-0.9,1.9-1.7,2.4
			C101.7,30.8,100.6,31,99.5,31z"/>
		<path fill="#ED1F6C" d="M56.7,19.8c0.8,0,1.3-0.2,1.6-0.6c0.4-0.4,0.6-1,0.6-1.6c0-1.4-0.8-2.2-2.4-2.2h-1.5v4.4H56.7L56.7,19.8z
			 M55.1,27.3c0,1.3-0.3,2.1-0.9,2.8c-0.6,0.7-1.4,1-2.7,1h-1.2c-1.1,0-1.9-0.3-2.5-1c-0.6-0.7-0.9-1.6-0.9-2.8V13.8
			c0-3,1.3-4.5,4.1-4.5H57c3.3,0,5.8,0.7,7.5,2c1.7,1.3,2.6,3.5,2.6,6.2c0,2.7-0.9,4.7-2.5,6.1c-1.6,1.3-4,1.9-7.2,1.9h-2v1.8H55.1z
			"/>
		<path fill="#ED1F6C" d="M126.8,30.8c-2.8,0-4.1-1.4-4.1-4.4V13.8c0-3,1.3-4.5,4.1-4.5h11c1.3,0,2.3,0.3,2.9,0.8
			c0.6,0.5,0.9,1.3,0.9,2.3v0.2c0,1.2-0.3,1.9-0.9,2.4c-0.6,0.5-1.5,0.7-2.9,0.7h-6.9v1.4h4.1c1.3,0,2.3,0.2,2.9,0.7
			c0.6,0.4,0.9,1.2,0.9,2.1V20c0,1.1-0.3,1.8-0.9,2.3s-1.5,0.7-2.9,0.7h-4.1v1.7h7.1c1.3,0,2.3,0.2,2.9,0.7c0.6,0.4,0.9,1.2,0.9,2.2
			v0.2c0,1.2-0.3,1.9-0.9,2.5c-0.6,0.5-1.5,0.8-2.9,0.8L126.8,30.8L126.8,30.8z"/>
		<path fill="#ED1F6C" d="M152.7,19.3c1.5,0,2.3-0.7,2.3-1.9c0-0.7-0.2-1.2-0.6-1.4c-0.4-0.3-1-0.5-1.7-0.5h-1.9v4L152.7,19.3
			L152.7,19.3z M162.8,27.4c0.5,0.6,0.7,1.3,0.3,1.8c-0.2,0.3-0.4,0.4-0.5,0.5c-0.4,0.3-0.9,0.6-1.4,0.9c-0.6,0.3-1.3,0.4-2.2,0.4
			c-0.7,0-1.3-0.1-1.7-0.2c-0.5-0.2-1-0.4-1.3-0.7c-0.4-0.3-0.8-0.7-1.2-1.1c-0.4-0.5-0.8-1-1.2-1.5l-2.1-3H151v2.7
			c0,2.5-1.2,3.8-3.6,3.8h-1.2c-1.2,0-2-0.4-2.6-1.3c-0.6-0.9-0.9-2-0.9-3.6V13.7c0-3,1.3-4.5,4.1-4.5h6.9c3.2,0,5.6,0.7,7,1.9
			c1.5,1.3,2.3,3.1,2.3,5.5c0,1.4-0.3,2.7-1,3.8c-0.7,1.1-1.6,1.8-3,2.4L162.8,27.4z"/>
		<path fill="#ED1F6C" d="M172.7,31.3c-1.7,0-3.2-0.1-4.2-0.4c-1.2-0.2-2-0.6-2.7-1c-0.7-0.4-1.2-0.9-1.4-1.4
			c-0.3-0.6-0.4-1.2-0.4-1.7c0-0.5,0.1-1,0.3-1.4c0.3-0.5,0.5-0.9,0.8-1.3c0.3-0.4,0.8-0.6,1.2-0.7c0.5-0.1,1.1,0.1,1.6,0.3
			c0.5,0.3,1.1,0.5,1.6,0.7s1.2,0.4,1.7,0.5c0.6,0.1,1.2,0.2,1.6,0.2c0.9,0,1.4-0.1,1.7-0.2c0.3-0.2,0.5-0.4,0.5-0.8
			c0-0.2-0.1-0.4-0.2-0.5c-0.2-0.1-0.4-0.2-0.7-0.3c-0.3-0.1-0.6-0.2-1-0.2c-0.4-0.1-0.8-0.1-1.3-0.2c-1-0.2-1.8-0.4-2.7-0.8
			c-0.9-0.3-1.7-0.8-2.4-1.3c-0.7-0.5-1.3-1.2-1.6-1.9c-0.4-0.8-0.7-1.7-0.7-2.9c0-2.4,0.9-4.2,2.5-5.5s4.1-1.9,7.4-1.9
			c1.5,0,2.8,0.1,4,0.3c1.1,0.2,1.9,0.5,2.6,0.9s1.2,0.9,1.5,1.3c0.3,0.5,0.5,1.1,0.5,1.6c0,0.6-0.1,1-0.4,1.5
			c-0.2,0.6-0.5,0.9-0.9,1.3c-0.3,0.4-0.7,0.6-1.1,0.7c-0.9,0.1-2.1-0.7-3.2-1.1c-1.1-0.4-2-0.6-2.9-0.6c-0.8,0-1.3,0.1-1.7,0.2
			c-0.3,0.1-0.5,0.4-0.5,0.7c0,0.2,0.1,0.3,0.3,0.5c0.2,0.1,0.4,0.2,0.8,0.3c0.3,0.1,0.7,0.1,1.1,0.2c0.4,0,0.9,0.1,1.3,0.2
			c1.2,0.3,2.2,0.6,3.1,1c1,0.4,1.7,0.8,2.4,1.3c0.7,0.6,1.2,1.2,1.5,1.9c0.4,0.7,0.6,1.5,0.6,2.5c0,2.5-0.9,4.4-2.6,5.7
			C178.9,30.7,176.3,31.3,172.7,31.3z"/>
		<path fill="#ED1F6C" d="M187.5,31c-2.3,0-3.5-1.3-3.5-3.8V12.9c0-2.5,1.2-3.8,3.5-3.8h1.2c2.4,0,3.6,1.3,3.6,3.8v3.8h4.9v-3.8
			c0-2.5,1.2-3.8,3.5-3.8h1.2c2.4,0,3.6,1.3,3.6,3.8v14.4c0,2.5-1.2,3.8-3.6,3.8h-1.2c-2.3,0-3.5-1.3-3.5-3.8v-3.9h-4.9v3.9
			c0,2.5-1.2,3.8-3.6,3.8H187.5L187.5,31z"/>
		<path fill="#ED1F6C" d="M218,31.3c-1.7,0-3.3-0.3-4.7-0.9c-1.4-0.6-2.6-1.3-3.7-2.4c-1.1-1-1.8-2.2-2.4-3.6
			c-0.6-1.3-0.9-2.9-0.9-4.5c0-1.6,0.3-3.2,0.9-4.5s1.3-2.6,2.4-3.6c1.1-1,2.3-1.7,3.7-2.3c1.4-0.6,3-0.9,4.7-0.9s3.3,0.3,4.6,0.9
			c1.4,0.6,2.6,1.3,3.7,2.3c1.1,1,1.8,2.2,2.4,3.6c0.6,1.3,0.9,2.9,0.9,4.5c0,1.6-0.3,3.2-0.9,4.5c-0.6,1.3-1.3,2.6-2.4,3.6
			c-1.1,1-2.2,1.8-3.7,2.4C221.2,31,219.7,31.3,218,31.3z M218,24c1.2,0,2-0.4,2.6-1.1c0.7-0.7,1-1.7,1-2.9c0-1.3-0.3-2.2-1-2.9
			c-0.6-0.8-1.4-1.1-2.6-1.1s-2,0.4-2.7,1.1c-0.6,0.7-1,1.6-1,3c0,1.3,0.3,2.2,1,2.9C216,23.7,216.9,24,218,24z"/>
		<path fill="#ED1F6C" d="M240.5,19.8c0.8,0,1.3-0.2,1.6-0.6c0.4-0.4,0.6-1,0.6-1.6c0-1.4-0.8-2.2-2.4-2.2h-1.5v4.4H240.5
			L240.5,19.8z M238.8,27.3c0,1.3-0.3,2.1-0.9,2.8c-0.6,0.7-1.4,1-2.7,1h-1.2c-1.1,0-1.9-0.3-2.5-1c-0.6-0.7-0.9-1.6-0.9-2.8V13.8
			c0-3,1.3-4.5,4.1-4.5h5.8c3.3,0,5.8,0.7,7.5,2c1.7,1.3,2.6,3.5,2.6,6.2c0,2.7-0.9,4.7-2.5,6.1c-1.6,1.3-4,1.9-7.2,1.9h-2v1.8
			H238.8z"/>
		<path fill="#ED1F6C" d="M79.2,24c1.2,0,2-0.4,2.6-1.1c0.7-0.7,1-1.7,1-2.9c0-1.3-0.3-2.2-1-2.9c-0.6-0.8-1.4-1.1-2.6-1.1
			s-2,0.4-2.7,1.1c-0.6,0.7-1,1.6-1,3c0,1.3,0.3,2.2,1,2.9C77.2,23.7,78.1,24,79.2,24z M79.2,31.3c-1.7,0-3.3-0.3-4.6-0.9
			c-1.4-0.6-2.6-1.3-3.7-2.4c-1.1-1-1.8-2.2-2.4-3.6c-0.6-1.3-0.9-2.9-0.9-4.5c0-1.6,0.3-3.2,0.9-4.5c0.6-1.3,1.3-2.6,2.4-3.6
			s2.3-1.7,3.7-2.3c1.4-0.6,3-0.9,4.6-0.9c1.7,0,3.3,0.3,4.6,0.9c1.4,0.6,2.7,1.3,3.7,2.3c1.1,1,1.8,2.2,2.4,3.6
			c0.6,1.3,0.9,2.9,0.9,4.5c0,1.6-0.3,3.2-0.9,4.5c-0.6,1.3-1.3,2.6-2.4,3.6c-1.1,1-2.2,1.8-3.7,2.4C82.4,31,80.9,31.3,79.2,31.3z"
			/>
	</g>
	<g>
		<path fill="#ED1F6C" d="M20,3.9c-9,0-16.2,7.2-16.2,16.2S11.1,36.2,20,36.2S36.2,29,36.2,20C36.1,11.1,28.9,3.9,20,3.9z M9,18.1
			c-0.3-0.3-0.3-0.8,0-1.1l6.3-5.9c0.3-0.3,0.8-0.3,1.1,0l1.3,1.5c0.3,0.3,0.3,0.8,0,1.1l-6.3,5.9c-0.3,0.3-0.8,0.3-1.1,0L9,18.1z
			 M29,27.4c-2,2.7-5.4,4.2-9,4.2c-3.7,0-6.9-1.6-9-4.3c-1-1.3-0.4-1.6,0.2-2.1c0.6-0.5,1.5-0.6,2.2,0.2c1.5,1.9,4,3.2,6.6,3.2
			s5-1.3,6.6-3.1c0.7-0.8,1.5-0.7,2.2-0.2C29.4,25.7,29.9,26.1,29,27.4z M30.5,18.1l-1.3,1.5c-0.3,0.3-0.8,0.3-1.1,0l-6.3-5.9
			c-0.3-0.3-0.3-0.8,0-1.1l1.3-1.5c0.3-0.3,0.8-0.3,1.1,0l6.3,5.9C30.7,17.3,30.7,17.7,30.5,18.1z"/>
		<path fill="#ED1F6C" d="M20,0C9,0,0,9,0,20C0,31,9,40,20,40s20-9,20-20C40,9,31,0,20,0z M20,38C10.1,38,2.1,30,2.1,20
			S10.1,2.1,20,2.1S38,10.1,38,20C38,30,29.9,38,20,38z"/>
	</g>
</g>
</svg>
