<svg version="1.1" id="Layer_1" xmlns="http://www.w3.org/2000/svg" xmlns:xlink="http://www.w3.org/1999/xlink" x="0px" y="0px"
	 viewBox="0 0 46 46" enable-background="new 0 0 46 46" xml:space="preserve">
<g>
	<path fill="#FA0E6A" d="M32,17c0,0.5-0.4,1-1,1H14c-0.5,0-1-0.4-1-1v-1c0-0.5,0.4-1,1-1h17c0.5,0,1,0.4,1,1V17z"/>
	<path fill="#FA0E6A" d="M32,23c0,0.5-0.4,1-1,1H14c-0.5,0-1-0.4-1-1v-1c0-0.5,0.4-1,1-1h17c0.5,0,1,0.4,1,1V23z"/>
	<path fill="#FA0E6A" d="M32,29c0,0.5-0.4,1-1,1H14c-0.5,0-1-0.4-1-1v-1c0-0.5,0.4-1,1-1h17c0.5,0,1,0.4,1,1V29z"/>
</g>
</svg>
