<?xml version="1.0" encoding="utf-8"?>
<!-- Generator: Adobe Illustrator 18.1.0, SVG Export Plug-In . SVG Version: 6.00 Build 0)  -->
<!DOCTYPE svg PUBLIC "-//W3C//DTD SVG 1.1//EN" "http://www.w3.org/Graphics/SVG/1.1/DTD/svg11.dtd">
<svg version="1.1" id="Layer_1" xmlns="http://www.w3.org/2000/svg" xmlns:xlink="http://www.w3.org/1999/xlink" x="0px" y="0px"
	 viewBox="0 0 128 128" enable-background="new 0 0 128 128" xml:space="preserve">
<g>
	<path fill="#EE236D" d="M64,12.5c-28.8,0-51.8,23-51.8,51.8s23.4,51.5,51.8,51.5s51.8-23,51.8-51.8C115.5,35.5,92.5,12.5,64,12.5z
		 M28.8,57.9c-1-1-1-2.6,0-3.5L49,35.5c1-1,2.6-1,3.5,0l4.2,4.8c1,1,1,2.6,0,3.5L36.5,62.7c-1,1-2.6,1-3.5,0L28.8,57.9z M92.8,87.7
		c-6.4,8.6-17.3,13.4-28.8,13.4c-11.8,0-22.1-5.1-28.8-13.8c-3.2-4.2-1.3-5.1,0.6-6.7c1.9-1.6,4.8-1.9,7,0.6
		c4.8,6.1,12.8,10.2,21.1,10.2s16-4.2,21.1-9.9c2.2-2.6,4.8-2.2,7-0.6C94.1,82.2,95.7,83.5,92.8,87.7z M97.6,57.9l-4.2,4.8
		c-1,1-2.6,1-3.5,0L69.8,43.8c-1-1-1-2.6,0-3.5l4.2-4.8c1-1,2.6-1,3.5,0l20.2,18.9C98.2,55.4,98.2,56.6,97.6,57.9z"/>
	<path fill="#EE236D" d="M64,0C28.8,0,0,28.8,0,64s28.8,64,64,64s64-28.8,64-64S99.2,0,64,0z M64,121.6C32.3,121.6,6.7,96,6.7,64
		S32.3,6.7,64,6.7s57.6,25.6,57.6,57.3C121.6,96,95.7,121.6,64,121.6z"/>
</g>
</svg>
